<svg xmlns="http://www.w3.org/2000/svg" xmlns:xlink="http://www.w3.org/1999/xlink" version="1.1" baseProfile="full" viewBox="0 0 200 200" width="200" height="200">
<g fill="black">
<path d="M 14.0 168.0 L 60.19130430221558 168.0 L 74.86521739959717 93.0 L 32.0 93.0 L 32.0 89.0 L 75.64782609939576 89.0 L 86.40869569778442 34.0 L 22.0 34.0 L 22.0 30.0 L 156.0 30.0 L 166.0 20.0 L 178.0 30.0 L 178.0 34.0 L 98.70869569778442 34.0 L 87.94782609939575 89.0 L 134.0 89.0 L 140.0 84.0 L 151.0 93.0 L 146.0 97.0 L 146.0 168.0 L 164.0 168.0 L 174.0 158.0 L 186.0 168.0 L 186.0 172.0 L 14.0 172.0 Z M 87.16521739959717 93.0 L 72.49130430221558 168.0 L 134.0 168.0 L 134.0 93.0 Z M 172.0 134.0 L 170.8 131.5 L 169.3 129.1 L 167.4 126.6 L 165.3 124.1 L 162.8 121.5 L 159.9 119.0 L 156.8 116.3 L 153.2 113.9 L 154.0 112.3 L 158.1 113.8 L 162.2 115.2 L 166.0 116.9 L 169.5 118.8 L 172.7 120.8 L 175.7 123.1 L 178.4 125.6 L 180.8 128.3 L 182.9 131.3 L 184.7 134.4 L 184.5 139.0 L 181.3 142.2 L 176.7 142.0 L 173.5 138.7 L 172.9 136.3 Z " />
</g>
</svg>
