<?xml version="1.0" encoding="UTF-8" standalone="no"?>
<svg
   xmlns:dc="http://purl.org/dc/elements/1.1/"
   xmlns:cc="http://creativecommons.org/ns#"
   xmlns:rdf="http://www.w3.org/1999/02/22-rdf-syntax-ns#"
   xmlns:svg="http://www.w3.org/2000/svg"
   xmlns="http://www.w3.org/2000/svg"
   xmlns:sodipodi="http://sodipodi.sourceforge.net/DTD/sodipodi-0.dtd"
   xmlns:inkscape="http://www.inkscape.org/namespaces/inkscape"
   version="1.1"
   viewBox="-10 0 1010 1000"
   id="svg145"
   sodipodi:docname="ng.svg"
   inkscape:version="1.0.1 (c497b03c, 2020-09-10)">
  <metadata
     id="metadata151">
    <rdf:RDF>
      <cc:Work
         rdf:about="">
        <dc:format>image/svg+xml</dc:format>
        <dc:type
           rdf:resource="http://purl.org/dc/dcmitype/StillImage" />
      </cc:Work>
    </rdf:RDF>
  </metadata>
  <defs
     id="defs149" />
  <sodipodi:namedview
     pagecolor="#ffffff"
     bordercolor="#666666"
     borderopacity="1"
     objecttolerance="10"
     gridtolerance="10"
     guidetolerance="10"
     inkscape:pageopacity="0"
     inkscape:pageshadow="2"
     inkscape:window-width="1080"
     inkscape:window-height="945"
     id="namedview147"
     showgrid="false"
     inkscape:zoom="0.50351251"
     inkscape:cx="487.43077"
     inkscape:cy="562.83793"
     inkscape:window-x="0"
     inkscape:window-y="23"
     inkscape:window-maximized="0"
     inkscape:current-layer="svg145"
     inkscape:document-rotation="0" />
  <path
     id="path157"
     d="M 750 860 L 296 860 L 52 860 L 61 890 L 942 890 C 957.33333 890 966.33333 884.66667 969 874 C 968 871.33333 956 860.83333 933 842.5 L 898.5 815 L 884 804 L 838 860 L 750 860 z "
     transform="translate(-10)" />
  <path
     id="path155"
     d="M 827 101 L 782 155 L 116 155 L 125 184 L 445 184 L 490 184 L 882 184 C 896.66667 184 905 179 907 169 C 906 166.33333 894.66667 156.16667 873 138.5 L 840.5 112 L 827 101 z "
     transform="translate(-10)" />
  <path
     d="M 202.95516,827.8219 189.91019,811.51567 Q 266.00591,758.24868 344.27578,682.15296 422.54567,606.05724 492.11889,512.56821 429.06816,452.77872 362.75617,396.25047 296.44419,339.72223 242.09011,296.23896 l 15.21914,-13.04499 q 81.53112,52.17992 147.29956,100.01153 65.76844,47.83158 117.94836,89.14069 85.87946,-120.66606 151.10437,-257.63836 l 82.61819,41.30911 q -4.34831,7.60957 -15.76267,13.04497 -11.41436,5.43541 -29.89475,2.17417 -32.61245,63.05073 -70.11677,121.75314 -37.50432,58.70242 -79.90051,110.88235 90.22779,77.18279 135.88522,133.71104 45.65743,56.52824 58.15887,91.31485 12.50144,34.78662 1.08708,45.65744 -11.41435,10.87081 -36.41723,-3.26125 -27.17704,-47.83158 -78.26989,-105.99046 -51.09284,-58.15887 -114.14357,-119.03545 -75.00864,89.14071 -157.0833,159.80102 -82.07468,70.6603 -166.86705,121.75314 z"
     id="path177"
     style="stroke-width:1.08708" />
</svg>
