<?xml version="1.0" standalone="no"?>
<!DOCTYPE svg PUBLIC "-//W3C//DTD SVG 1.1//EN" "http://www.w3.org/Graphics/SVG/1.1/DTD/svg11.dtd" >
<svg xmlns="http://www.w3.org/2000/svg" xmlns:xlink="http://www.w3.org/1999/xlink" version="1.1" viewBox="-10 0 1010 1000">
   <path fill="currentColor"
d="M415 194l9 -21q26 4 42.5 9t35.5 16q19 10 35 26t16 28q0 10 -5.5 15t-14 12.5t-19.5 24.5q-13 21 -30.5 48t-37.5 56q8 1 16.5 1.5t19.5 0.5q13 0 38.5 -1.5t55 -3t54.5 -3.5t37 -3q22 -2 29 -9.5t17 -7.5q9 0 25.5 11.5t30.5 27t14 26.5q0 13 -14.5 19.5t-25.5 21.5
q-26 36 -73.5 97t-107.5 126q24 20 43.5 38t32.5 33q17 18 32.5 40.5t15.5 41.5q0 28 -19 28q-10 0 -17 -9.5t-21 -29.5q-51 -77 -121.5 -134.5t-144.5 -106.5l16 -22q47 24 86 49.5t70 49.5q39 -44 74 -89.5t61.5 -86.5t38.5 -69q5 -10 3 -12.5t-12 -2.5q-13 0 -39.5 2
t-58 5t-59 6t-43.5 5t-23.5 4.5t-15.5 2.5q-12 0 -34 -19q-21 31 -44 59q-45 57 -102.5 119t-116.5 111l-22 -21q53 -50 107 -110t101 -123q24 -32 50 -70t48 -75.5t33 -66.5q5 -11 3 -18t-13 -16t-25.5 -16t-30.5 -14z" />
</svg>
