<?xml version="1.0" standalone="no"?>
<!DOCTYPE svg PUBLIC "-//W3C//DTD SVG 1.1//EN" "http://www.w3.org/Graphics/SVG/1.1/DTD/svg11.dtd" >
<svg xmlns="http://www.w3.org/2000/svg" xmlns:xlink="http://www.w3.org/1999/xlink" version="1.1" viewBox="-10 0 1010 1000">
   <path fill="currentColor"
d="M131 166l19 -13q14 7 21 12t19 16q8 7 22 24t25.5 37.5t11.5 39.5q0 14 -10 33.5t-29 68.5q-9 26 -23.5 67.5t-25.5 92t-11 103.5q0 46 6 71t16 42q10 19 22 0q8 -12 20.5 -41.5t27 -65t28 -68.5t21.5 -52l25 12q-7 19 -18.5 49.5t-23.5 63t-22.5 60t-15.5 41.5
q-7 21 -12 37t-5 29q0 21 6 42t6 38q0 20 -20 20q-11 0 -20.5 -10t-18.5 -25q-11 -18 -24.5 -53.5t-23 -81t-9.5 -92.5q0 -98 18.5 -168t31.5 -115q10 -36 18 -62t9 -47q1 -24 -15.5 -47.5t-45.5 -57.5zM682 730v-6q-45 -12 -103 -12q-32 0 -63.5 9t-52.5 26t-21 42
q0 36 31 52.5t79 16.5q57 0 84.5 -14.5t36.5 -43t9 -70.5zM583 185l-2 -23q14 -4 32.5 -7t33.5 -3q17 0 36 7t32.5 17t13.5 21q0 9 -2.5 16.5t-6 19t-7.5 35.5q-4 20 -5 41.5t-2 47.5q32 -8 55.5 -16t36.5 -15q23 -11 32 -16t16 -5q11 1 26.5 7.5t15.5 17.5q0 19 -39 32
q-23 7 -60.5 17.5t-82.5 19.5q1 79 6.5 157.5t9.5 137.5q61 16 101.5 42.5t62.5 46.5q14 13 22.5 26t8.5 26q0 23 -18 23q-9 0 -17 -6.5t-18 -16.5q-29 -28 -62 -54t-77 -43q1 10 1 19.5v17.5q0 34 -15.5 62.5t-50.5 45.5t-95 17q-66 0 -111 -28t-45 -78q0 -40 25 -65.5
t68 -38t95 -12.5q23 0 44 2t40 5q-1 -36 -3.5 -83t-5 -98.5t-3.5 -98.5q-31 5 -62 8t-60 3q-45 0 -78 -16t-75 -63l16 -16q27 22 60.5 38t80.5 16q32 0 61 -3t56 -7v-51v-56v-41q0 -11 -3 -17t-13 -8q-13 -3 -30.5 -5t-38.5 -2zM863 246q32 0 54 -22.5t22 -54.5t-22 -54
t-54 -22t-54.5 22t-22.5 54t22.5 54.5t54.5 22.5zM863 63q44 0 75 31t31 75t-31 75.5t-75 31.5t-75.5 -31.5t-31.5 -75.5t31.5 -75t75.5 -31z" />
</svg>
