<?xml version="1.0" standalone="no"?>
<!DOCTYPE svg PUBLIC "-//W3C//DTD SVG 1.1//EN" "http://www.w3.org/Graphics/SVG/1.1/DTD/svg11.dtd" >
<svg xmlns="http://www.w3.org/2000/svg" xmlns:xlink="http://www.w3.org/1999/xlink" version="1.1" viewBox="-10 0 1010 1000">
   <path fill="currentColor"
d="M469 488q16 10 35 28t36 39t25.5 41.5t3.5 36.5q-9 28 -17.5 25.5t-22.5 -39.5q-14 -35 -34 -64.5t-55 -58.5q-25 -22 -18 -26.5t47 18.5zM374 834q19 -2 52 -4.5t72.5 -4.5t78 -2.5t67.5 1.5q2 -14 4 -32t3 -41q2 -38 3.5 -90t3 -105.5t2 -95.5t0.5 -58
q0 -39 -2.5 -56.5t-13.5 -23t-37 -8.5q-16 -2 -47 -1.5t-68.5 3t-73 9t-60.5 16.5q-1 7 -1 15.5t-2 19.5q-3 24 -4.5 73.5t-3 110t-2 119t-0.5 101.5v37t6 15t23 2zM714 307q5 5 5.5 11.5t-10.5 20.5q-5 5 -8.5 34.5t-5.5 70t-3 81t-2 68.5q0 21 -0.5 55t-1 74.5t-1.5 80
t-3 72.5q-1 21 -4.5 32.5t-11 7t-20.5 -31.5q-4 -7 -5 -15t-1 -18q-13 -1 -43.5 -1t-70 0.5t-77.5 2.5t-66.5 6.5t-36.5 11.5q-18 15 -23.5 13t-14.5 -23q-7 -18 -7.5 -26.5t3 -19.5t7.5 -35q5 -37 4.5 -105t-0.5 -173q0 -23 -0.5 -54t-2.5 -62t-7.5 -54t-15.5 -31
q-14 -11 -11.5 -17.5t11.5 -4.5q13 1 24 7.5t22 11.5q5 2 8 4t6 5q28 -6 69 -9.5t83 -5t72.5 -3t36.5 -3.5q23 -8 33.5 -11t16.5 -2t13 6q10 6 20 13.5t19 15.5z" />
</svg>
