<?xml version="1.0" standalone="no"?>
<!DOCTYPE svg PUBLIC "-//W3C//DTD SVG 1.1//EN" "http://www.w3.org/Graphics/SVG/1.1/DTD/svg11.dtd" >
<svg xmlns="http://www.w3.org/2000/svg" xmlns:xlink="http://www.w3.org/1999/xlink" version="1.1" viewBox="-10 0 1010 1000">
   <path fill="currentColor"
d="M704 834q3 10 -1.5 24.5t-15.5 14.5t-15.5 -9.5t-23.5 -43.5q-18 -32 -58 -89t-90 -121q-52 61 -120.5 124t-155.5 119q-29 19 -37.5 19.5t-2.5 -9t19 -19.5q85 -59 154 -126.5t121 -134.5q-49 -63 -100.5 -121t-91.5 -95q-23 -21 -19.5 -29.5t26.5 5.5q18 10 50.5 41
t74 75t84.5 94q47 -64 77.5 -119.5t43 -95.5t5.5 -56q-10 -25 -1 -27t38 24q25 21 25 33t-17 33q-2 3 -18.5 35.5t-48.5 84.5t-82 115q45 52 84 102t65 90t31 62z" />
</svg>
