<?xml version="1.0" standalone="no"?>
<!DOCTYPE svg PUBLIC "-//W3C//DTD SVG 1.1//EN" "http://www.w3.org/Graphics/SVG/1.1/DTD/svg11.dtd" >
<svg xmlns="http://www.w3.org/2000/svg" xmlns:xlink="http://www.w3.org/1999/xlink" version="1.1" viewBox="-10 0 1010 1000">
   <path fill="currentColor"
d="M838 138l40 -50l13 10t30.5 25t32.5 29q-4 16 -26 16h-539q-12 43 -30.5 98t-38 110t-36.5 100h466l33 -35l67 56q-5 5 -15 9t-27 5q-6 58 -18 121t-27.5 121t-34 101.5t-39.5 61.5q-23 19 -56.5 30t-74.5 10q0 -11 -6 -22t-20 -17q-11 -5 -38 -11t-59.5 -11.5
t-63.5 -9.5l2 -19q27 3 61.5 6t69.5 6.5t62 5.5t38 2q20 0 31.5 -3t22.5 -11q16 -12 30.5 -49t27.5 -89.5t23.5 -111.5t17.5 -116h-485v1h10l-29 27l-52 -53q8 -5 21 -9.5t25 -6.5q17 -41 36 -95t36 -107.5t28 -94.5h-272l-9 -30h772z" />
</svg>
