<?xml version="1.0" standalone="no"?>
<!DOCTYPE svg PUBLIC "-//W3C//DTD SVG 1.1//EN" "http://www.w3.org/Graphics/SVG/1.1/DTD/svg11.dtd" >
<svg xmlns="http://www.w3.org/2000/svg" xmlns:xlink="http://www.w3.org/1999/xlink" version="1.1" viewBox="-10 0 1010 1000">
   <path fill="currentColor"
d="M827 162l43 -53l13.5 10.5t32.5 26t34 30.5q-3 15 -26 15h-498q-2 53 -5.5 108t-11.5 110h320l30 -33l64 53q-11 11 -41 14q-4 80 -12.5 155t-20 137t-26 106t-32.5 62q-21 19 -50 29t-61 10q0 -11 -4.5 -20.5t-15.5 -15.5q-13 -7 -49.5 -14t-71.5 -11l1 -20
q27 3 63.5 6.5t68 6.5t43.5 3q17 0 26 -3t19 -11q14 -12 26 -50.5t22 -96.5t17.5 -129t12.5 -148h-334q-16 93 -52 184t-103.5 175.5t-178.5 159.5l-16 -18q88 -66 146 -139t92.5 -150t51 -155t22.5 -155t7 -150h-314l-9 -29h777z" />
</svg>
