<?xml version="1.0" standalone="no"?>
<!DOCTYPE svg PUBLIC "-//W3C//DTD SVG 1.1//EN" "http://www.w3.org/Graphics/SVG/1.1/DTD/svg11.dtd" >
<svg xmlns="http://www.w3.org/2000/svg" xmlns:xlink="http://www.w3.org/1999/xlink" version="1.1" viewBox="-10 0 1010 1000">
   <path fill="currentColor"
d="M922 289h-291q-3 89 -14 167t-38 145.5t-78 124.5q90 68 207 112.5t259 67.5l-2 10q-17 1 -31 11t-20 27q-138 -28 -248.5 -75.5t-195.5 -118.5q-64 60 -165.5 109t-251.5 87l-10 -21q145 -40 241 -90t157 -111q-152 -143 -213 -385l19 -12q62 229 224 365
q65 -83 87.5 -185.5t26.5 -227.5h-519l-9 -30h529q1 -49 0.5 -101.5t-0.5 -109.5l83 10q-1 10 -8.5 18t-26.5 10q-1 46 -1 89t-2 84h193l43 -53l13.5 10.5t32.5 26t34 30.5q-4 16 -25 16z" />
</svg>
