<?xml version="1.0" standalone="no"?>
<!DOCTYPE svg PUBLIC "-//W3C//DTD SVG 1.1//EN" "http://www.w3.org/Graphics/SVG/1.1/DTD/svg11.dtd" >
<svg xmlns="http://www.w3.org/2000/svg" xmlns:xlink="http://www.w3.org/1999/xlink" version="1.1" viewBox="-10 0 1010 1000">
   <path fill="currentColor"
d="M812 114l43 -53l13.5 10.5t32.5 26t34 30.5q-3 16 -26 16h-391v180h237l40 -50l13 10t31 25t32 29q-4 16 -25 16h-328v185h299l29 -32l62 52q-8 11 -38 14q-4 87 -13.5 159t-23.5 121t-34 68q-17 16 -43.5 24t-53.5 8q0 -10 -4 -19.5t-15 -14.5q-10 -6 -42.5 -12
t-61.5 -10l1 -19q23 2 54.5 5t59.5 5t39 2q26 0 39 -11q13 -12 23.5 -55t18.5 -108.5t12 -146.5h-596l-22 25l-58 -38q12 -10 29 -18v-302l82 10q-3 22 -38 28v265h251v-395h-401l-9 -30h748z" />
</svg>
