<?xml version="1.0" standalone="no"?>
<!DOCTYPE svg PUBLIC "-//W3C//DTD SVG 1.1//EN" "http://www.w3.org/Graphics/SVG/1.1/DTD/svg11.dtd" >
<svg xmlns="http://www.w3.org/2000/svg" xmlns:xlink="http://www.w3.org/1999/xlink" version="1.1" viewBox="-10 0 1010 1000">
   <path fill="currentColor"
d="M475 315l80 10q-2 10 -9.5 17.5t-26.5 9.5v585q0 6 -11.5 12.5t-23.5 6.5h-9v-641zM505 97q-46 74 -117 152.5t-158 149.5t-183 124l-8 -16q67 -43 133 -98.5t124.5 -117t104 -124.5t71.5 -120l88 22q-2 8 -10 12t-26 6q49 71 115 139t147 126.5t173 101.5l-2 15
q-34 6 -46 36q-132 -80 -238 -185.5t-168 -222.5z" />
</svg>
