<?xml version="1.0" standalone="no"?>
<!DOCTYPE svg PUBLIC "-//W3C//DTD SVG 1.1//EN" "http://www.w3.org/Graphics/SVG/1.1/DTD/svg11.dtd" >
<svg xmlns="http://www.w3.org/2000/svg" xmlns:xlink="http://www.w3.org/1999/xlink" version="1.1" viewBox="-10 0 1010 1000">
   <path fill="currentColor"
d="M747 105l88 18q-2 10 -11.5 14.5t-30.5 4.5q-32 162 -93.5 302t-170.5 251q89 73 199.5 126.5t240.5 86.5l-3 11q-41 -2 -58 34q-249 -70 -417 -223q-79 72 -185.5 128.5t-244.5 94.5l-9 -17q131 -41 233 -99.5t179 -131.5q-104 -103 -173.5 -240.5t-101.5 -310.5l20 -13
q70 330 290 529q104 -113 162.5 -255.5t85.5 -309.5z" />
</svg>
