<?xml version="1.0" standalone="no"?>
<!DOCTYPE svg PUBLIC "-//W3C//DTD SVG 1.1//EN" "http://www.w3.org/Graphics/SVG/1.1/DTD/svg11.dtd" >
<svg xmlns="http://www.w3.org/2000/svg" xmlns:xlink="http://www.w3.org/1999/xlink" version="1.1" viewBox="-10 0 1010 1000">
   <path fill="currentColor"
d="M883 371l64 54q-5 5 -14 8.5t-26 5.5q-5 112 -17.5 210.5t-30.5 167.5t-42 94q-20 20 -49 30t-62 10q0 -11 -4 -21t-15 -15q-13 -8 -48.5 -15t-69.5 -11l1 -19q26 2 61.5 5.5t66 6t42.5 2.5q17 0 26 -2.5t19 -10.5q14 -12 26 -51t21.5 -98.5t17 -132.5t12.5 -154h-223
l-29 28l-59 -54q9 -5 21.5 -9.5t25.5 -7.5q12 -33 26 -74t27.5 -83t22.5 -76h-298q-2 77 -8.5 159t-23.5 165.5t-51 165t-90 158t-142 145.5l-16 -18q98 -87 154 -185t83 -199.5t35.5 -201t9.5 -189.5h-229l-8 -30h579l30 -32l64 57q-5 7 -17 10.5t-26 4.5q-9 31 -23 72.5
t-28.5 84.5t-27.5 79h212z" />
</svg>
