<?xml version="1.0" standalone="no"?>
<!DOCTYPE svg PUBLIC "-//W3C//DTD SVG 1.1//EN" "http://www.w3.org/Graphics/SVG/1.1/DTD/svg11.dtd" >
<svg xmlns="http://www.w3.org/2000/svg" xmlns:xlink="http://www.w3.org/1999/xlink" version="1.1" viewBox="-10 0 1010 1000">
   <path fill="currentColor"
d="M633 180l60 58q-6 6 -15 8t-26 4q-7 30 -16 60.5t-20 59.5q10 77 32 152t62 145.5t104.5 133t160.5 113.5l-3 11q-18 1 -30 6t-19 23q-85 -50 -142.5 -113t-93.5 -133.5t-56 -145.5t-29 -150q-45 118 -116.5 221t-178 185t-258.5 137l-11 -17q164 -69 276.5 -172.5
t183 -236t105.5 -286.5h-268q-102 223 -260 347l-13 -12q61 -59 115.5 -140.5t99 -181t73.5 -210.5l81 25q-3 9 -11.5 15t-25.5 5q-10 31 -21.5 62t-25.5 60h252z" />
</svg>
