<?xml version="1.0" standalone="no"?>
<!DOCTYPE svg PUBLIC "-//W3C//DTD SVG 1.1//EN" "http://www.w3.org/Graphics/SVG/1.1/DTD/svg11.dtd" >
<svg xmlns="http://www.w3.org/2000/svg" xmlns:xlink="http://www.w3.org/1999/xlink" version="1.1" viewBox="-10 0 1010 1000">
   <path fill="currentColor"
d="M921 678l2 190q17 4 22.5 9t5.5 13q0 10 -10 17t-36 10t-75.5 4.5t-129.5 1.5h-157q-69 0 -93 -16t-24 -59v-319l-366 39l-11 -28l377 -40v-295q-82 19 -169 34t-173 24l-5 -19q95 -14 194.5 -36t193 -49t173.5 -55.5t136 -56.5l64 50q-13 14 -47 1q-135 51 -323 97v19
v281l343 -37l41 -64l16.5 10.5l38.5 24.5t40 27q-2 17 -24 20l-455 48v317q0 22 13 31.5t62 9.5h153q59 0 97.5 -1t55.5 -3q12 -2 16.5 -6t8.5 -12q5 -15 13 -65.5t18 -116.5h14z" />
</svg>
