<?xml version="1.0" standalone="no"?>
<!DOCTYPE svg PUBLIC "-//W3C//DTD SVG 1.1//EN" "http://www.w3.org/Graphics/SVG/1.1/DTD/svg11.dtd" >
<svg xmlns="http://www.w3.org/2000/svg" xmlns:xlink="http://www.w3.org/1999/xlink" version="1.1" viewBox="-10 0 1010 1000">
   <path fill="currentColor"
d="M428 46l83 40q-4 8 -14 13t-26 2q-52 96 -116.5 182.5t-135.5 157.5t-144 121l-14 -13q65 -55 132 -133.5t128 -173t107 -196.5zM642 597l14 -7q93 67 148 126.5t80.5 106t28 77t-10.5 40t-34 -5.5q-15 -48 -51 -105q-113 13 -272.5 29.5t-348.5 33.5q-9 13 -20 18
l-29 -67l11 -3t17 -8q41 -40 87.5 -92.5t92.5 -111.5t89 -118.5t77.5 -114.5t56.5 -98l76 47q-4 7 -14.5 11.5t-25.5 0.5q-31 51 -77.5 113t-102 129t-114.5 130.5t-116 117.5q64 -3 157 -8.5t207 -13.5t237 -17q-37 -57 -81 -112.5t-82 -97.5z" />
</svg>
