<?xml version="1.0" standalone="no"?>
<!DOCTYPE svg PUBLIC "-//W3C//DTD SVG 1.1//EN" "http://www.w3.org/Graphics/SVG/1.1/DTD/svg11.dtd" >
<svg xmlns="http://www.w3.org/2000/svg" xmlns:xlink="http://www.w3.org/1999/xlink" version="1.1" viewBox="-10 0 1010 1000">
   <path fill="currentColor"
d="M843 223l40 -50l13 10t31 25t32 29q-3 16 -26 16h-448v185h284l38 -48l12 10t29.5 24t31.5 28q-4 16 -26 16h-369v181h319l40 -49l12.5 10t30 24.5t31.5 28.5q-4 16 -25 16h-408v258q0 3 -10.5 10t-27.5 7h-6v-701h-168q-49 85 -105.5 159t-115.5 127l-15 -12
q50 -56 100 -133t94.5 -167t77.5 -184l82 31q-4 8 -13 13.5t-26 4.5q-13 33 -29.5 66t-33.5 65h554z" />
</svg>
