<?xml version="1.0" standalone="no"?>
<!DOCTYPE svg PUBLIC "-//W3C//DTD SVG 1.1//EN" "http://www.w3.org/Graphics/SVG/1.1/DTD/svg11.dtd" >
<svg xmlns="http://www.w3.org/2000/svg" xmlns:xlink="http://www.w3.org/1999/xlink" version="1.1" viewBox="-10 0 1010 1000">
   <path fill="currentColor"
d="M823 520l48 -59l15 12t35.5 28.5t37.5 32.5q-4 16 -26 16h-411v321q0 21 -6 38t-26 28.5t-62 16.5q-1 -10 -7 -19t-17 -14q-13 -7 -37 -12t-62 -9v-16l18.5 1.5t44.5 3t49 3t32 1.5q17 0 23 -5.5t6 -19.5v-318h-427l-8 -30h435v-368q-89 11 -184 19t-188 10l-3 -21
q91 -6 187 -17.5t187.5 -27.5t170 -34t135.5 -37l59 54q-13 13 -47 -2q-58 13 -127 25.5t-146 23.5v375h301zM151 229l14 -7q63 47 98 91t48.5 80t10.5 59.5t-16 30.5t-30 -7q-5 -39 -25.5 -84t-47.5 -88t-52 -75zM655 487l-16 -10q34 -48 71.5 -120.5t65.5 -145.5l82 36
q-4 7 -13 12t-25 4q-35 61 -79 121.5t-86 102.5z" />
</svg>
