<?xml version="1.0" standalone="no"?>
<!DOCTYPE svg PUBLIC "-//W3C//DTD SVG 1.1//EN" "http://www.w3.org/Graphics/SVG/1.1/DTD/svg11.dtd" >
<svg xmlns="http://www.w3.org/2000/svg" xmlns:xlink="http://www.w3.org/1999/xlink" version="1.1" viewBox="-10 0 1010 1000">
   <path fill="currentColor"
d="M910 652l-6 189q38 8 38 22q0 24 -64.5 33.5t-205.5 9.5h-268q-148 0 -222.5 -23t-85.5 -93q-7 -44 27 -98.5t108.5 -127.5t189.5 -170t269 -226h-563l-9 -30h599l28 -26l60 56q-8 4 -18.5 7t-33.5 4q-216 172 -352 291.5t-197 194t-55 114.5q6 29 30.5 47t76.5 26t140 8
h284q54 0 85.5 -2t47 -5.5t22 -8t10.5 -10.5q17 -26 28 -72t23 -112z" />
</svg>
