<?xml version="1.0" standalone="no"?>
<!DOCTYPE svg PUBLIC "-//W3C//DTD SVG 1.1//EN" "http://www.w3.org/Graphics/SVG/1.1/DTD/svg11.dtd" >
<svg xmlns="http://www.w3.org/2000/svg" xmlns:xlink="http://www.w3.org/1999/xlink" version="1.1" viewBox="-10 0 1010 1000">
   <path fill="currentColor"
d="M910 748l3 107q19 5 25.5 9.5t6.5 13.5q0 12 -13.5 19t-50 11t-104 5t-176.5 1l-225 -1q-60 0 -94.5 -8t-49.5 -29t-15 -59v-424l-162 40l-16 -28l178 -43v-310l80 10q-1 10 -9 18t-27 10v261l490 -120l11 -3l32 -34l58 62q-5 5 -14.5 7t-24.5 4q-12 64 -33 140
t-49.5 151t-61.5 135l-16 -10q24 -59 45.5 -133.5t38 -151t25.5 -139.5l-501 124v429q0 21 8 34t32.5 19.5t73.5 6.5h229q86 0 144.5 -1.5t80.5 -3.5q15 -2 22 -5.5t11 -8.5q6 -11 15 -36.5t19 -68.5h14z" />
</svg>
