<?xml version="1.0" standalone="no"?>
<!DOCTYPE svg PUBLIC "-//W3C//DTD SVG 1.1//EN" "http://www.w3.org/Graphics/SVG/1.1/DTD/svg11.dtd" >
<svg xmlns="http://www.w3.org/2000/svg" xmlns:xlink="http://www.w3.org/1999/xlink" version="1.1" viewBox="-10 0 1010 1000">
   <path fill="currentColor"
d="M841 85l65 62q-11 8 -45 9q-38 27 -89 61t-107 67.5t-110 59.5h3q-2 10 -10 17t-26 9v501q0 21 -6.5 37.5t-28 28t-67.5 16.5q-3 -11 -9 -19.5t-18 -14.5q-26 -13 -110 -20v-17l21.5 1.5t51 3.5t55.5 3.5t36 1.5q18 0 24.5 -6t6.5 -19v-533l53 7q44 -27 89.5 -60
t87.5 -67t74 -63h-660l-9 -30h689z" />
</svg>
