<?xml version="1.0" standalone="no"?>
<!DOCTYPE svg PUBLIC "-//W3C//DTD SVG 1.1//EN" "http://www.w3.org/Graphics/SVG/1.1/DTD/svg11.dtd" >
<svg xmlns="http://www.w3.org/2000/svg" xmlns:xlink="http://www.w3.org/1999/xlink" version="1.1" viewBox="-10 0 1010 1000">
   <path fill="currentColor"
d="M509 869v-547l79 10q-1 10 -9 17t-26 9v516q0 21 -6 38.5t-27 28.5t-67 16q-3 -11 -9 -20t-18 -14q-24 -13 -106 -22v-17l20.5 1.5t49.5 3.5t54.5 3.5t34.5 1.5q18 0 24 -6t6 -19zM883 194l65 62q-5 5 -14.5 6.5t-23.5 3.5q-11 24 -27.5 55.5t-35 62.5t-35.5 55l-15 -8
q9 -23 19 -53t19.5 -61.5t16.5 -57.5h-585q-43 64 -90.5 120t-96.5 97l-15 -12q46 -49 93.5 -116.5t91 -147.5t75.5 -164l76 42q-4 7 -14.5 11t-25.5 1q-16 35 -35.5 70.5t-40.5 68.5h564z" />
</svg>
