<?xml version="1.0" standalone="no"?>
<!DOCTYPE svg PUBLIC "-//W3C//DTD SVG 1.1//EN" "http://www.w3.org/Graphics/SVG/1.1/DTD/svg11.dtd" >
<svg xmlns="http://www.w3.org/2000/svg" xmlns:xlink="http://www.w3.org/1999/xlink" version="1.1" viewBox="-10 0 1010 1000">
   <path fill="currentColor"
d="M827 172h-663l-8 -30h574l43 -53l13.5 10.5t32.5 26t35 30.5q-4 16 -27 16zM834 413l44 -54l14 11t33 26.5t35 30.5q-4 16 -27 16h-462l68 39q-3 7 -13 11.5t-26 1.5q-32 52 -82 117t-108.5 130t-116.5 118q64 -3 159 -10t210.5 -17t240.5 -21q-40 -61 -90 -121t-94 -104
l14 -9q99 70 158.5 132.5t87.5 111.5t32 81t-9 42.5t-34 -5.5q-7 -24 -20.5 -51.5t-30.5 -55.5q-115 15 -276.5 32.5t-352.5 37.5q-8 14 -20 19l-29 -66l10 -3t15 -7q39 -36 82.5 -87.5t85 -108.5t76 -111t55.5 -96h-410l-9 -30h790z" />
</svg>
