<?xml version="1.0" standalone="no"?>
<!DOCTYPE svg PUBLIC "-//W3C//DTD SVG 1.1//EN" "http://www.w3.org/Graphics/SVG/1.1/DTD/svg11.dtd" >
<svg xmlns="http://www.w3.org/2000/svg" xmlns:xlink="http://www.w3.org/1999/xlink" version="1.1" viewBox="-10 0 1010 1000">
   <path fill="currentColor"
d="M696 481h-277q-22 103 -45.5 203t-42.5 176h365v-379zM828 860l46 -56l14.5 11t34.5 27.5t36 31.5q-4 16 -27 16h-881l-9 -30h244q20 -77 43 -176.5t45 -202.5h-217l-9 -30h233q15 -73 29 -141.5t25 -125.5h-320l-9 -29h666l45 -54l13.5 11t32.5 26.5t34 30.5
q-3 15 -25 15h-392q-10 58 -24.5 126t-30.5 141h261l30 -32l67 52q-12 14 -43 20v369h88z" />
</svg>
