<?xml version="1.0" standalone="no"?>
<!DOCTYPE svg PUBLIC "-//W3C//DTD SVG 1.1//EN" "http://www.w3.org/Graphics/SVG/1.1/DTD/svg11.dtd" >
<svg xmlns="http://www.w3.org/2000/svg" xmlns:xlink="http://www.w3.org/1999/xlink" version="1.1" viewBox="-10 0 1010 1000">
   <path fill="currentColor"
d="M832 878l44 -54l14 10.5t33 26.5t35 31q-4 15 -26 15h-877l-9 -29h592l66 -507h-381q-18 68 -38 137.5t-39 131.5t-35 108q-19 12 -52 1q15 -36 34 -91.5t38.5 -121t38.5 -133t34 -129.5t25 -109h-238l-9 -30h712l43 -54l14 11t33.5 26.5t34.5 30.5q-3 16 -25 16h-519
q-8 37 -19.5 82t-24.5 94h367l30 -32l56 52q-11 10 -34 11l-62 506h144zM352 639l9 -12q71 15 114.5 38.5t64 48.5t22.5 45t-9 29t-31 0q-12 -28 -40 -56.5t-63 -53t-67 -39.5zM388 464l9 -12q67 9 108.5 27t61 39t22 38t-7.5 25.5t-29 1.5q-15 -21 -43 -43.5t-60 -42.5
t-61 -33z" />
</svg>
