<?xml version="1.0" standalone="no"?>
<!DOCTYPE svg PUBLIC "-//W3C//DTD SVG 1.1//EN" "http://www.w3.org/Graphics/SVG/1.1/DTD/svg11.dtd" >
<svg xmlns="http://www.w3.org/2000/svg" xmlns:xlink="http://www.w3.org/1999/xlink" version="1.1" viewBox="-10 0 1010 1000">
   <path fill="currentColor"
d="M221 806l-15 -17q96 -64 157.5 -136t97 -148t51.5 -152t20 -149t5 -140l78 9q-1 10 -8 17.5t-25 9.5q-1 18 -1.5 37.5t-2.5 40.5q13 110 46.5 213.5t102.5 193t187 159.5l-3 11q-19 1 -32 7t-19 26q-94 -63 -152.5 -144.5t-91 -175.5t-47.5 -193q-9 66 -29 135t-58.5 138
t-102 134.5t-158.5 123.5zM822 878l47 -57l14.5 11t34.5 27t36 31q-3 16 -25 16h-742l-25 31l-64 -46q12 -11 36 -19v-745l81 10q-1 22 -37 28v713h644z" />
</svg>
