<?xml version="1.0" standalone="no"?>
<!DOCTYPE svg PUBLIC "-//W3C//DTD SVG 1.1//EN" "http://www.w3.org/Graphics/SVG/1.1/DTD/svg11.dtd" >
<svg xmlns="http://www.w3.org/2000/svg" xmlns:xlink="http://www.w3.org/1999/xlink" version="1.1" viewBox="-10 0 1010 1000">
   <path fill="currentColor"
d="M193 169v220q0 64 -3.5 137t-16.5 148t-40 146.5t-74 133.5l-17 -11q49 -83 71.5 -175t29 -188.5t6.5 -190.5v-277l54 27h626l43 -53l13.5 10.5t32.5 26t35 30.5q-4 16 -27 16h-733zM518 230l84 9q-1 9 -9 16.5t-25 9.5q9 103 30 196.5t63.5 175t113 150t178.5 122.5
l-2 12q-19 1 -33 6.5t-20 25.5q-112 -64 -180.5 -149t-104.5 -186.5t-51 -213.5q-6 75 -24 149.5t-59 145.5t-113.5 135.5t-188.5 119.5l-13 -18q105 -56 171.5 -120t103.5 -134t53.5 -144.5t20.5 -152t5 -155.5z" />
</svg>
