<?xml version="1.0" standalone="no"?>
<!DOCTYPE svg PUBLIC "-//W3C//DTD SVG 1.1//EN" "http://www.w3.org/Graphics/SVG/1.1/DTD/svg11.dtd" >
<svg xmlns="http://www.w3.org/2000/svg" xmlns:xlink="http://www.w3.org/1999/xlink" version="1.1" viewBox="-10 0 1010 1000">
   <path fill="currentColor"
d="M733 558l36 -28l54 51q-10 10 -41 11q-21 58 -55 123.5t-77.5 128.5t-95.5 115l-15 -13q38 -48 74 -109t66.5 -126t49.5 -123h-575l-9 -30h588zM591 384l40 -50l12.5 10t30 25t32.5 29q-4 16 -26 16h-420l-8 -30h339zM480 37l68 42q-4 7 -12.5 11t-22.5 1
q46 75 116.5 140t155 113t173.5 74l-2 11q-14 1 -25 8.5t-16 21.5q-85 -31 -164 -82t-144 -119.5t-110 -151.5q-85 135 -201 228.5t-238 142.5l-11 -17q80 -38 159.5 -99.5t150.5 -143.5t123 -180z" />
</svg>
