<?xml version="1.0" standalone="no"?>
<!DOCTYPE svg PUBLIC "-//W3C//DTD SVG 1.1//EN" "http://www.w3.org/Graphics/SVG/1.1/DTD/svg11.dtd" >
<svg xmlns="http://www.w3.org/2000/svg" xmlns:xlink="http://www.w3.org/1999/xlink" version="1.1" viewBox="-10 0 1010 1000">
   <path fill="currentColor"
d="M521 104q-34 63 -84 128.5t-111.5 127.5t-130 116t-139.5 94l-9 -16q63 -41 129.5 -101t127 -130.5t106 -142t66.5 -134.5l102 28q-4 14 -37 17q42 76 106.5 147t146.5 132.5t174 110.5l-3 13q-18 2 -32 13t-19 25q-85 -51 -161.5 -119.5t-136.5 -147.5t-95 -161z
M322 669q116 41 188 81.5t108 76t43.5 60.5t-5.5 35.5t-38 1.5q-22 -26 -59 -58.5t-80.5 -66t-87 -64.5t-79.5 -54zM414 401q79 34 125.5 68.5t67.5 64.5t21.5 51.5t-12.5 29.5t-34 -3q-16 -30 -47 -67t-66.5 -73t-65.5 -62z" />
</svg>
