<?xml version="1.0" standalone="no"?>
<!DOCTYPE svg PUBLIC "-//W3C//DTD SVG 1.1//EN" "http://www.w3.org/Graphics/SVG/1.1/DTD/svg11.dtd" >
<svg xmlns="http://www.w3.org/2000/svg" xmlns:xlink="http://www.w3.org/1999/xlink" version="1.1" viewBox="-10 0 1010 1000">
   <path fill="currentColor"
d="M304 279l-10 -16q58 -25 115 -61t104 -75.5t74 -73.5l72 33q-9 15 -41 9q-33 31 -83.5 66t-110 66t-120.5 52zM269 48l80 26q-3 8 -12 14t-25 5q-20 55 -43.5 109t-49.5 104l33 13q-5 14 -30 17v601q-1 3 -12.5 9.5t-23.5 6.5h-8v-573q-58 100 -123 169l-16 -11
q44 -59 86.5 -137.5t79.5 -169t64 -183.5zM460 650l73 35q-4 8 -12 11t-24 -1q-23 33 -58.5 72.5t-78.5 78t-89 68.5l-12 -14q40 -34 79 -77.5t71 -89t51 -83.5zM760 423l14 -8q64 40 100.5 78t51.5 69.5t13.5 53t-13.5 28t-29 -5.5q-4 -20 -14 -41.5t-24 -43.5
q-42 4 -92.5 10t-109.5 11v309q0 31 -14.5 51.5t-69.5 27.5q-1 -10 -6 -19.5t-14 -14.5q-22 -12 -85 -19v-16l15.5 1t37.5 2.5t41.5 2.5t26.5 1q14 0 19 -4.5t5 -14.5v-302q-54 5 -112.5 10t-120.5 10q-9 21 -22 26l-36 -66l11 -2t18 -5q64 -30 135 -74.5t137 -90.5
q-46 7 -104 14.5t-119 15.5q-7 16 -17 22l-36 -66l9 -2t14 -4q34 -18 70.5 -45.5t71.5 -59t64.5 -61.5t47.5 -52l66 41q-4 6 -14 10t-27 0q-27 26 -65.5 57.5t-82.5 62t-88 56.5q47 -2 111 -6t134 -9q44 -33 81.5 -64t63.5 -56l62 49q-4 6 -15 9t-27 -3q-46 37 -115 84
t-149 94t-159 86q79 -4 196 -11.5t250 -16.5q-19 -30 -42.5 -58.5t-43.5 -50.5zM719 665l12 -8q77 40 122 79t65 72.5t21.5 57t-10 31.5t-29.5 -4q-11 -37 -41.5 -79t-68 -81.5t-71.5 -67.5z" />
</svg>
