<?xml version="1.0" standalone="no"?>
<!DOCTYPE svg PUBLIC "-//W3C//DTD SVG 1.1//EN" "http://www.w3.org/Graphics/SVG/1.1/DTD/svg11.dtd" >
<svg xmlns="http://www.w3.org/2000/svg" xmlns:xlink="http://www.w3.org/1999/xlink" version="1.1" viewBox="-10 0 1010 1000">
   <path fill="currentColor"
d="M937 753l2 133q14 4 18.5 8.5t4.5 12.5q0 11 -13 18t-53 9.5t-121 2.5h-117q-54 0 -70.5 -12t-16.5 -42v-327h-154q-14 112 -53.5 188t-114 126t-196.5 84l-7 -17q112 -39 179 -89.5t100.5 -121t44.5 -170.5h-159v41q-1 3 -10.5 9.5t-29.5 6.5h-4v-493l66 25
q53 -22 103.5 -49t80.5 -49l63 44q-10 13 -43 3q-40 19 -102 43t-124 39v143h151l39 -48l12 10t29.5 24.5t31.5 27.5q-4 16 -26 16h-237v177h579v-177h-228l-9 -30h237v-169h-240l-9 -30h239l30 -33l68 53q-12 14 -44 20v426q-1 4 -14 11.5t-24 7.5h-6v-49h-174v7v312
q0 13 7.5 17.5t39.5 4.5h110q39 0 67.5 -0.5t39.5 -1.5q9 -1 12 -3.5t6 -9.5q5 -12 11.5 -49t13.5 -80h14z" />
</svg>
