<?xml version="1.0" standalone="no"?>
<!DOCTYPE svg PUBLIC "-//W3C//DTD SVG 1.1//EN" "http://www.w3.org/Graphics/SVG/1.1/DTD/svg11.dtd" >
<svg xmlns="http://www.w3.org/2000/svg" xmlns:xlink="http://www.w3.org/1999/xlink" version="1.1" viewBox="-10 0 1010 1000">
   <path fill="currentColor"
d="M322 98l76 32q-4 7 -12.5 10.5t-26.5 0.5q-29 54 -75 114t-106 115.5t-130 97.5l-12 -14q63 -45 118.5 -105.5t99 -126t68.5 -124.5zM702 567l29 -32l63 52q-10 11 -40 14q-7 76 -20.5 142.5t-32 113.5t-40.5 66q-19 16 -46.5 24t-57.5 8q0 -10 -4.5 -19.5t-15.5 -14.5
q-11 -7 -44 -13t-64 -10l1 -19q24 2 57.5 5t63 5.5t41.5 2.5q16 0 25 -2.5t18 -9.5q16 -12 30 -52.5t26 -100.5t19 -130h-380l-30 26l-54 -54q9 -5 22 -9t25 -7q17 -37 35 -83.5t30 -80.5h-126l-8 -30h422l39 -49l12.5 10t30 24.5t31.5 28.5q-4 16 -26 16h-329
q-14 39 -34 88.5t-37 89.5h369zM650 40l80 56q-8 9 -23.5 13t-36.5 6q29 87 103.5 165.5t189.5 123.5l-3 10q-32 3 -42 32q-217 -112 -276 -335h-136l-9 -30h123z" />
</svg>
