<?xml version="1.0" standalone="no"?>
<!DOCTYPE svg PUBLIC "-//W3C//DTD SVG 1.1//EN" "http://www.w3.org/Graphics/SVG/1.1/DTD/svg11.dtd" >
<svg xmlns="http://www.w3.org/2000/svg" xmlns:xlink="http://www.w3.org/1999/xlink" version="1.1" viewBox="-10 0 1010 1000">
   <path fill="currentColor"
d="M822 189l39 -46l12.5 9.5t29.5 23t32 27.5q-4 16 -26 16h-473q-49 84 -104 154l10 5h408l26 -33l71 54q-4 5 -16 11t-27 8v456q0 20 -5.5 36t-24 26t-58.5 14q-2 -10 -7 -18.5t-16 -12.5q-12 -5 -33 -10t-56 -9v-16l16.5 1t40 3t44.5 3t29 1q15 0 20.5 -5t5.5 -17v-462
h-428v138q0 46 -3 99.5t-14 109t-34 108.5t-64 99l-16 -13q40 -61 58.5 -128.5t23.5 -137.5t5 -137v-119q-104 116 -227 193l-12 -15q89 -65 175.5 -163.5t154.5 -222.5h-302l-9 -30h328q19 -35 35 -72t31 -75l77 34q-9 19 -39 15q-11 25 -23 49.5t-25 48.5h370z" />
</svg>
