<?xml version="1.0" standalone="no"?>
<!DOCTYPE svg PUBLIC "-//W3C//DTD SVG 1.1//EN" "http://www.w3.org/Graphics/SVG/1.1/DTD/svg11.dtd" >
<svg xmlns="http://www.w3.org/2000/svg" xmlns:xlink="http://www.w3.org/1999/xlink" version="1.1" viewBox="-10 0 1010 1000">
   <path fill="currentColor"
d="M827 264l66 55q-6 5 -15.5 9t-26.5 6q-3 105 -9 199.5t-15.5 170.5t-22.5 127.5t-30 71.5q-19 22 -48 33t-61 11q0 -11 -4 -21t-15 -17q-13 -6 -47.5 -13.5t-67.5 -11.5l2 -20q26 3 59.5 6.5t63 6t41.5 2.5q17 0 25 -3t17 -11q14 -14 25 -60.5t19 -119t14 -163.5t9 -193
h-320q-7 93 -28 180t-66.5 166t-125 149t-202.5 130l-13 -19q111 -59 183.5 -126.5t114.5 -144t62 -160.5t27 -175h-326l-8 -29h336q3 -60 3.5 -123.5t0.5 -128.5l85 9q-2 10 -9.5 18t-24.5 10q-1 55 -2 108.5t-5 106.5h308z" />
</svg>
