<?xml version="1.0" standalone="no"?>
<!DOCTYPE svg PUBLIC "-//W3C//DTD SVG 1.1//EN" "http://www.w3.org/Graphics/SVG/1.1/DTD/svg11.dtd" >
<svg xmlns="http://www.w3.org/2000/svg" xmlns:xlink="http://www.w3.org/1999/xlink" version="1.1" viewBox="-10 0 1010 1000">
   <path fill="currentColor"
d="M299 387l12 -9q94 51 150 99.5t81.5 89t28 68t-10.5 37.5t-35 -4q-12 -33 -37 -70.5t-57.5 -75.5t-67 -73t-64.5 -62zM878 204l65 54q-11 12 -41 15q-2 80 -6 162.5t-10 159t-14.5 140.5t-19.5 108.5t-26 62.5q-41 50 -121 50q0 -11 -4.5 -21.5t-16.5 -15.5
q-10 -6 -34 -11.5t-53 -10.5t-56 -9l2 -20q24 3 54.5 6t60 6t52.5 5t33 2q19 0 27.5 -3t18.5 -12q13 -12 23 -52.5t17.5 -101.5t13 -135t9.5 -155t6 -160h-600q-45 80 -98.5 148.5t-109.5 118.5l-14 -12q49 -54 97.5 -129t90.5 -163.5t73 -182.5l82 30q-3 8 -12 13.5
t-26 4.5q-15 37 -31 72.5t-35 69.5h574z" />
</svg>
