<?xml version="1.0" standalone="no"?>
<!DOCTYPE svg PUBLIC "-//W3C//DTD SVG 1.1//EN" "http://www.w3.org/Graphics/SVG/1.1/DTD/svg11.dtd" >
<svg xmlns="http://www.w3.org/2000/svg" xmlns:xlink="http://www.w3.org/1999/xlink" version="1.1" viewBox="-10 0 1010 1000">
   <path fill="currentColor"
d="M673 740l42 -51l13 10t31 25t33 30q-4 16 -26 16h-533l-25 30l-64 -44q5 -5 15.5 -10.5t20.5 -9.5v-381l81 10q-3 22 -37 28v347h449zM496 277l79 21q-3 9 -11.5 15t-25.5 6q-8 34 -19.5 66t-24.5 61q79 39 126.5 75.5t70.5 67t27 51.5t-5.5 28.5t-26.5 -2.5
q-15 -31 -48 -67t-73.5 -71t-79.5 -63q-77 160 -205 242l-13 -13q81 -66 141.5 -171.5t87.5 -245.5zM866 154l66 54q-6 6 -15 10t-26 6q-1 127 -3.5 240.5t-8 204.5t-15 151.5t-24.5 82.5q-18 25 -46 37t-61 12q0 -11 -4 -21t-15 -16q-13 -8 -47.5 -15t-68.5 -12l1 -20
q27 3 60.5 6.5t62.5 6t40 2.5q17 0 25 -2.5t15 -11.5q13 -14 21.5 -70.5t13 -145t7 -199.5t3.5 -235h-573q-49 77 -106.5 142.5t-117.5 111.5l-14 -12q49 -48 98.5 -114t93.5 -145t77 -163l81 35q-9 19 -40 16q-13 25 -26 49.5t-27 49.5h543z" />
</svg>
