<?xml version="1.0" standalone="no"?>
<!DOCTYPE svg PUBLIC "-//W3C//DTD SVG 1.1//EN" "http://www.w3.org/Graphics/SVG/1.1/DTD/svg11.dtd" >
<svg xmlns="http://www.w3.org/2000/svg" xmlns:xlink="http://www.w3.org/1999/xlink" version="1.1" viewBox="-10 0 1010 1000">
   <path fill="currentColor"
d="M832 878l41 -51l13 10.5t31 25.5t33 29q-4 16 -26 16h-759l-22 30l-57 -43q11 -11 27 -18v-783l56 27h638l39 -47l12 9.5t28.5 23.5t29.5 28q-4 16 -25 16h-734v727h675zM263 782l-12 -15q70 -49 142 -119t136 -156q-58 -55 -119 -107t-111 -92l14 -12q75 48 135.5 92
t108.5 82q79 -111 139 -237l76 38q-4 7 -14.5 12t-27.5 2q-30 58 -64.5 112t-73.5 102q83 71 125 123t53.5 84t1 42t-33.5 -3q-25 -44 -72 -97.5t-105 -109.5q-69 82 -144.5 147t-153.5 112z" />
</svg>
