<?xml version="1.0" standalone="no"?>
<!DOCTYPE svg PUBLIC "-//W3C//DTD SVG 1.1//EN" "http://www.w3.org/Graphics/SVG/1.1/DTD/svg11.dtd" >
<svg xmlns="http://www.w3.org/2000/svg" xmlns:xlink="http://www.w3.org/1999/xlink" version="1.1" viewBox="-10 0 1010 1000">
   <path fill="currentColor"
d="M956 741l-17 156q24 40 14 50q-15 12 -38.5 -1.5t-43.5 -40.5q-34 -36 -57 -96t-36.5 -137.5t-20.5 -166t-9 -182t-2 -184.5h-326v333h198l39 -48l12.5 10t29.5 24t31 28q-4 16 -25 16h-285v434q0 3 -10.5 10t-27.5 7h-6v-451h-282l-8 -30h290v-333h-289l-8 -30h657
l32 -33l68 60q-5 5 -15.5 10t-27.5 7q-3 74 -2 158t6.5 167.5t17 158.5t31 132t47.5 86q8 8 11.5 7t7.5 -11q9 -29 16.5 -57.5t13.5 -54.5z" />
</svg>
