<?xml version="1.0" standalone="no"?>
<!DOCTYPE svg PUBLIC "-//W3C//DTD SVG 1.1//EN" "http://www.w3.org/Graphics/SVG/1.1/DTD/svg11.dtd" >
<svg xmlns="http://www.w3.org/2000/svg" xmlns:xlink="http://www.w3.org/1999/xlink" version="1.1" viewBox="-10 0 1010 1000">
   <path fill="currentColor"
d="M204 156v222q0 66 -4.5 140.5t-19 151t-44.5 149t-81 135.5l-17 -12q54 -83 80 -176.5t34 -191.5t8 -195v-281l54 28h622l41 -50l13 10t30.5 25t31.5 29q-3 16 -25 16h-723zM844 862l40 -50l13 10t31 25t32 29q-4 16 -25 16h-740l-9 -30h351v-356h-258l-8 -30h266v-265
l79 10q-1 10 -9 17.5t-26 10.5v227h190l41 -50l13 10t31 25t32 29q-4 16 -25 16h-282v356h263zM662 586l12 -9q65 31 102.5 63t53 60.5t15 49t-12.5 27t-29 -4.5q-9 -30 -32 -64.5t-52.5 -67t-56.5 -54.5z" />
</svg>
