<?xml version="1.0" standalone="no"?>
<!DOCTYPE svg PUBLIC "-//W3C//DTD SVG 1.1//EN" "http://www.w3.org/Graphics/SVG/1.1/DTD/svg11.dtd" >
<svg xmlns="http://www.w3.org/2000/svg" xmlns:xlink="http://www.w3.org/1999/xlink" version="1.1" viewBox="-10 0 1010 1000">
   <path fill="currentColor"
d="M676 506l16 -6q91 88 145 162.5t79.5 130.5t28.5 91t-10 45.5t-34 -6.5q-7 -29 -21 -62.5t-31 -68.5q-131 19 -308 41t-387 47q-12 22 -29 27l-28 -74l12.5 -3.5t17.5 -10.5q36 -57 76 -131.5t80 -157t77 -166t66 -159.5t47 -136l81 47q-4 8 -14.5 12.5t-24.5 1.5
q-26 71 -66 160t-89.5 185t-103 188t-105.5 169q70 -4 176 -13.5t237.5 -22t274.5 -26.5q-37 -70 -81.5 -140t-81.5 -124z" />
</svg>
