<?xml version="1.0" standalone="no"?>
<!DOCTYPE svg PUBLIC "-//W3C//DTD SVG 1.1//EN" "http://www.w3.org/Graphics/SVG/1.1/DTD/svg11.dtd" >
<svg xmlns="http://www.w3.org/2000/svg" xmlns:xlink="http://www.w3.org/1999/xlink" version="1.1" viewBox="-10 0 1010 1000">
   <path fill="currentColor"
d="M736 502h-348q29 73 74 132.5t105 107.5q111 -102 169 -240zM773 440l58 55q-11 11 -43 12q-33 75 -80 140t-110 119q71 49 157 82.5t186 53.5l-2 11q-35 2 -48 37q-98 -25 -180.5 -63.5t-147.5 -91.5q-74 55 -169 96.5t-214 67.5l-7 -18q219 -55 361 -172
q-114 -105 -168 -267h-40q-37 122 -102 235.5t-172 196.5l-13 -10q78 -71 132.5 -162.5t89 -195.5t53.5 -210h-239l-9 -30h253q12 -74 18 -145q-66 6 -127 10t-114 5l-1 -20q72 -7 156.5 -17.5t175.5 -25t182 -33.5t176 -41l48 59q-15 9 -34 -5q-104 22 -222 39t-231 28
l82 10q-2 10 -11 16t-32 8q-4 27 -8 55t-9 57h438l43 -53l13.5 10.5t32.5 26t34 30.5q-4 16 -25 16h-542q-5 28 -12.5 57.5t-15.5 58.5h404z" />
</svg>
