<?xml version="1.0" standalone="no"?>
<!DOCTYPE svg PUBLIC "-//W3C//DTD SVG 1.1//EN" "http://www.w3.org/Graphics/SVG/1.1/DTD/svg11.dtd" >
<svg xmlns="http://www.w3.org/2000/svg" xmlns:xlink="http://www.w3.org/1999/xlink" version="1.1" viewBox="-10 0 1010 1000">
   <path fill="currentColor"
d="M758 559h-517v284h517v-284zM821 267l45 -56l14.5 11.5t34.5 27.5t36 31q-4 16 -27 16h-405v232h227l31 -36l76 58q-14 16 -51 22v361q-1 4 -14.5 11t-24.5 7h-5v-79h-517v64q0 4 -11 10t-25 6h-8v-449l49 25h229v-232h-413l-9 -30h422v-218l81 9q-2 10 -10.5 17.5
t-26.5 10.5v181h302z" />
</svg>
