<?xml version="1.0" standalone="no"?>
<!DOCTYPE svg PUBLIC "-//W3C//DTD SVG 1.1//EN" "http://www.w3.org/Graphics/SVG/1.1/DTD/svg11.dtd" >
<svg xmlns="http://www.w3.org/2000/svg" xmlns:xlink="http://www.w3.org/1999/xlink" version="1.1" viewBox="-10 0 1010 1000">
   <path fill="currentColor"
d="M72 435h406v-198h-320l-8 -30h328v-160l81 9q-3 22 -37 28v123h225l41 -51l13 10t31 25t33 30q-3 16 -26 16h-317v198h285l42 -53l13.5 10.5t32 26t33.5 29.5q-4 16 -26 16h-821zM828 900l44 -55l14 11t33 26.5t34 30.5q-3 16 -26 16h-872l-9 -29h432v-219h-344l-9 -30
h353v-159l81 10q-3 21 -37 27v122h250l43 -52l13.5 10.5t32 26t33.5 29.5q-4 16 -26 16h-346v219h306z" />
</svg>
