<?xml version="1.0" standalone="no"?>
<!DOCTYPE svg PUBLIC "-//W3C//DTD SVG 1.1//EN" "http://www.w3.org/Graphics/SVG/1.1/DTD/svg11.dtd" >
<svg xmlns="http://www.w3.org/2000/svg" xmlns:xlink="http://www.w3.org/1999/xlink" version="1.1" viewBox="-10 0 1010 1000">
   <path fill="currentColor"
d="M838 177l64 58q-10 11 -44 13q-54 151 -125.5 264.5t-166.5 197t-217 143t-276 101.5l-9 -19q140 -46 254 -105t204.5 -140t159.5 -191.5t120 -259.5h-416q-19 35 -41 71t-48 71q81 34 129.5 70t71.5 69t25.5 56.5t-9.5 32.5t-32 -3q-13 -35 -45.5 -73.5t-72.5 -74.5
t-78 -62q-40 55 -87.5 105t-101.5 93l-12 -13q78 -71 142 -163t112 -189t76 -184l81 29q-4 9 -11.5 12.5t-27.5 1.5q-11 28 -25 58.5t-30 62.5h403z" />
</svg>
