<?xml version="1.0" standalone="no"?>
<!DOCTYPE svg PUBLIC "-//W3C//DTD SVG 1.1//EN" "http://www.w3.org/Graphics/SVG/1.1/DTD/svg11.dtd" >
<svg xmlns="http://www.w3.org/2000/svg" xmlns:xlink="http://www.w3.org/1999/xlink" version="1.1" viewBox="-10 0 1010 1000">
   <path fill="currentColor"
d="M929 368h-402q14 72 42.5 145.5t78.5 144.5t129 135.5t193 118.5l-2 11q-19 1 -33 6.5t-21 25.5q-110 -59 -183.5 -129.5t-119 -148t-69.5 -156t-36 -153.5h-2q-10 85 -35.5 165.5t-75 155t-131.5 141.5t-206 124l-13 -19q112 -57 187.5 -121.5t122 -136t70.5 -149
t34 -160.5h-394l-9 -30h407q6 -70 7 -142.5t1 -147.5l85 9q-2 10 -9.5 18t-25.5 10q-1 64 -3 127.5t-8 125.5h314l46 -58l15 11.5t35.5 28t36.5 32.5q-3 16 -26 16z" />
</svg>
