<?xml version="1.0" standalone="no"?>
<!DOCTYPE svg PUBLIC "-//W3C//DTD SVG 1.1//EN" "http://www.w3.org/Graphics/SVG/1.1/DTD/svg11.dtd" >
<svg xmlns="http://www.w3.org/2000/svg" xmlns:xlink="http://www.w3.org/1999/xlink" version="1.1" viewBox="-10 0 1010 1000">
   <path fill="currentColor"
d="M925 450h-401q14 62 43 125t79.5 123.5t128.5 114.5t190 99l-2 12q-19 1 -33 6t-20 25q-109 -50 -182 -110t-118 -126.5t-70 -134.5t-37 -134h-4q-12 81 -38.5 152.5t-77 135t-131.5 118t-201 101.5l-12 -19q110 -47 184.5 -101t121 -114.5t71.5 -129t35 -143.5h-379
l-9 -30h392q7 -60 8.5 -124t2.5 -132h-332l-9 -30h643l43 -53l13.5 10.5t32.5 26t34 30.5q-4 16 -26 16h-349q-1 69 -3.5 133t-9.5 123h322l45 -54l14 11t33 26.5t34 30.5q-4 16 -26 16z" />
</svg>
