<?xml version="1.0" standalone="no"?>
<!DOCTYPE svg PUBLIC "-//W3C//DTD SVG 1.1//EN" "http://www.w3.org/Graphics/SVG/1.1/DTD/svg11.dtd" >
<svg xmlns="http://www.w3.org/2000/svg" xmlns:xlink="http://www.w3.org/1999/xlink" version="1.1" viewBox="-10 0 1010 1000">
   <path fill="currentColor"
d="M558 642l11 -12q121 65 197 119.5t114.5 95t49 66.5t1 34.5t-29.5 -1.5q-24 -30 -64.5 -69.5t-89.5 -82t-98.5 -81.5t-90.5 -69zM759 258h-235q-1 82 -7 154t-20 137h262v-291zM231 549h220q16 -64 21.5 -136.5t6.5 -154.5h-248v291zM843 549l42 -63l13 12.5t31 30.5
t32 34q-4 16 -26 16h-446q-23 84 -72.5 153.5t-135.5 125t-221 99.5l-12 -19q122 -43 201 -96t125.5 -118.5t69.5 -144.5h-392l-8 -30h143v-347l56 26h236q1 -42 0.5 -86.5t-0.5 -91.5l82 10q-2 10 -9.5 17.5t-25.5 10.5q-1 37 -1 71.5v68.5h224l31 -33l66 53q-12 14 -43 20
v281h40z" />
</svg>
