<?xml version="1.0" standalone="no"?>
<!DOCTYPE svg PUBLIC "-//W3C//DTD SVG 1.1//EN" "http://www.w3.org/Graphics/SVG/1.1/DTD/svg11.dtd" >
<svg xmlns="http://www.w3.org/2000/svg" xmlns:xlink="http://www.w3.org/1999/xlink" version="1.1" viewBox="-10 0 1010 1000">
   <path fill="currentColor"
d="M765 529l38 -46l12.5 9.5t29.5 23t30 27.5q-4 16 -25 16h-494q-9 23 -21 52t-23 53h387l30 -31l63 51q-11 11 -41 14q-13 83 -41 147t-60 87q-19 13 -44.5 20t-53.5 7q0 -10 -3.5 -19.5t-13.5 -14.5q-10 -6 -37 -11.5t-55 -9.5l1 -19q21 2 50 4.5t55 4.5t37 2
q26 0 41 -10q21 -14 43 -66.5t35 -125.5h-396l-30 25l-51 -53q9 -5 22.5 -9t25.5 -6q10 -23 20 -48t17 -44h-182l-9 -30h643zM603 388l33 -42l11 9t26 21.5t27 25.5q-3 16 -25 16h-376l-8 -30h312zM930 221h-307q53 86 145.5 147.5t200.5 86.5v11q-34 5 -43 38
q-109 -36 -193.5 -107.5t-132.5 -175.5h-186q-77 104 -171 182t-192 125l-12 -16q82 -47 164.5 -121t152.5 -170h-294l-9 -30h324q24 -35 46.5 -73.5t41.5 -78.5l72 40q-4 7 -14 12t-27 1q-14 25 -29 50.5t-32 48.5h404l40 -46l13 9.5t31 23t32 27.5q-4 16 -25 16z" />
</svg>
