<?xml version="1.0" standalone="no"?>
<!DOCTYPE svg PUBLIC "-//W3C//DTD SVG 1.1//EN" "http://www.w3.org/Graphics/SVG/1.1/DTD/svg11.dtd" >
<svg xmlns="http://www.w3.org/2000/svg" xmlns:xlink="http://www.w3.org/1999/xlink" version="1.1" viewBox="-10 0 1010 1000">
   <path fill="currentColor"
d="M714 282l75 21q-3 8 -11.5 14t-23.5 5q-9 30 -19.5 58.5t-23.5 54.5q68 25 108 53t58.5 53t19.5 44t-10 26t-29 -2q-12 -25 -37.5 -53.5t-57 -55.5t-61.5 -47q-23 44 -51.5 81t-61.5 65q50 94 137 172.5t228 138.5l-2 11q-21 1 -35.5 7t-20.5 26q-135 -66 -216.5 -151.5
t-123.5 -187.5t-60 -217q-7 86 -30 167t-72 153t-132 132t-211 104l-10 -20q112 -44 187 -98.5t120.5 -119t68.5 -136.5t30.5 -150t7.5 -160v-34h-392l-9 -30h401v-157l81 8q-2 10 -9.5 17.5t-26.5 10.5v121h327l42 -53l13.5 10.5t32.5 26t34 30.5q-4 16 -27 16h-422v26
q8 87 26.5 167t52.5 151q46 -53 82 -130t53 -168zM243 279l75 20q-7 20 -35 20q-16 59 -39 112q69 28 102 58.5t39 55.5t-5 36.5t-31 -0.5q-13 -32 -46.5 -69.5t-66.5 -64.5q-56 119 -146 184l-14 -12q59 -56 103.5 -143t63.5 -197z" />
</svg>
