<?xml version="1.0" standalone="no"?>
<!DOCTYPE svg PUBLIC "-//W3C//DTD SVG 1.1//EN" "http://www.w3.org/Graphics/SVG/1.1/DTD/svg11.dtd" >
<svg xmlns="http://www.w3.org/2000/svg" xmlns:xlink="http://www.w3.org/1999/xlink" version="1.1" viewBox="-10 0 1010 1000">
   <path fill="currentColor"
d="M479 52l80 10q-2 10 -9.5 17.5t-26.5 9.5v534q0 6 -11.5 12.5t-23.5 6.5h-9v-590zM661 197q94 58 150.5 110.5t84 94t32 69t-6.5 37t-30 -3.5q-13 -34 -40 -74t-62 -80.5t-72 -77.5t-69 -65zM291 195l81 31q-4 8 -12 11.5t-27 1.5q-25 57 -64.5 126t-90.5 136.5
t-112 121.5l-13 -12q54 -58 100 -130.5t81.5 -147.5t56.5 -138zM748 493l73 39q-4 8 -13 10t-29 -2q-64 105 -138.5 176t-160.5 116.5t-184.5 74t-211.5 47.5l-5 -21q107 -24 202 -55t178 -79.5t155 -122.5t134 -183z" />
</svg>
