<?xml version="1.0" standalone="no"?>
<!DOCTYPE svg PUBLIC "-//W3C//DTD SVG 1.1//EN" "http://www.w3.org/Graphics/SVG/1.1/DTD/svg11.dtd" >
<svg xmlns="http://www.w3.org/2000/svg" xmlns:xlink="http://www.w3.org/1999/xlink" version="1.1" viewBox="-10 0 1010 1000">
   <path fill="currentColor"
d="M252 152v202v28t-1 29h511v-259h-510zM762 441h-260q14 63 43.5 126.5t81 124t131 115.5t193.5 101l-2 12q-20 1 -33.5 6t-19.5 24q-110 -50 -184.5 -111t-121 -128t-72 -135.5t-37.5 -134.5h-231q-4 84 -21 174.5t-57.5 176.5t-115.5 158l-15 -13q71 -85 107 -180.5
t48 -197.5t12 -204v-261l54 28h490l30 -33l67 53q-12 14 -43 20v318q-1 4 -14 11.5t-24 7.5h-6v-58z" />
</svg>
