<?xml version="1.0" standalone="no"?>
<!DOCTYPE svg PUBLIC "-//W3C//DTD SVG 1.1//EN" "http://www.w3.org/Graphics/SVG/1.1/DTD/svg11.dtd" >
<svg xmlns="http://www.w3.org/2000/svg" xmlns:xlink="http://www.w3.org/1999/xlink" version="1.1" viewBox="-10 0 1010 1000">
   <path fill="currentColor"
d="M675 57l64 45q-6 7 -14.5 7.5t-25.5 -3.5q-101 88 -233.5 157t-272.5 116l-10 -19q88 -36 175.5 -81t169 -100.5t147.5 -121.5zM745 285l67 44q-9 13 -40 5q-112 115 -256 189t-305 123l-9 -18q102 -37 199 -85t184.5 -111.5t159.5 -146.5zM831 550l70 47q-6 7 -15 8.5
t-28 -4.5q-94 105 -204 172t-235 107.5t-265 67.5l-6 -20q133 -33 255 -78t230 -116.5t198 -183.5z" />
</svg>
