<?xml version="1.0" standalone="no"?>
<!DOCTYPE svg PUBLIC "-//W3C//DTD SVG 1.1//EN" "http://www.w3.org/Graphics/SVG/1.1/DTD/svg11.dtd" >
<svg xmlns="http://www.w3.org/2000/svg" xmlns:xlink="http://www.w3.org/1999/xlink" version="1.1" viewBox="-10 0 1010 1000">
   <path fill="currentColor"
d="M653 39l63 44q-6 7 -14 8.5t-25 -5.5q-51 49 -129 103t-170 102.5t-186 82.5l-10 -14q66 -29 133.5 -67.5t131 -81t116.5 -87t90 -85.5zM726 221l65 44q-7 7 -15 8.5t-25 -5.5q-77 91 -204 184l28 11q-4 13 -30 18v455q-1 4 -12.5 11t-23.5 7h-8v-469q-76 53 -163.5 99.5
t-178.5 81.5l-9 -15q86 -38 169.5 -88t160 -107.5t139.5 -117t107 -117.5z" />
</svg>
