<?xml version="1.0" standalone="no"?>
<!DOCTYPE svg PUBLIC "-//W3C//DTD SVG 1.1//EN" "http://www.w3.org/Graphics/SVG/1.1/DTD/svg11.dtd" >
<svg xmlns="http://www.w3.org/2000/svg" xmlns:xlink="http://www.w3.org/1999/xlink" version="1.1" viewBox="-10 0 1010 1000">
   <path fill="currentColor"
d="M281 46l80 10q-2 10 -9.5 17.5t-26.5 10.5v850q0 6 -11.5 13t-23.5 7h-9v-908zM179 243l19 2q7 55 -1 100.5t-22.5 78t-29.5 50.5q-14 16 -34 24t-31 -4q-9 -11 -4.5 -24.5t15.5 -25.5q19 -18 37.5 -49.5t32.5 -71t18 -80.5zM377 216q45 40 67 78.5t27.5 70t-1.5 52
t-20.5 25t-28.5 -10.5q2 -34 -6.5 -72t-22.5 -74t-30 -63z" />
</svg>
