<?xml version="1.0" standalone="no"?>
<!DOCTYPE svg PUBLIC "-//W3C//DTD SVG 1.1//EN" "http://www.w3.org/Graphics/SVG/1.1/DTD/svg11.dtd" >
<svg xmlns="http://www.w3.org/2000/svg" xmlns:xlink="http://www.w3.org/1999/xlink" version="1.1" viewBox="-10 0 1010 1000">
   <path fill="currentColor"
d="M423 77l14 -8q59 42 90 83t42 76.5t6.5 59t-18 31t-29.5 -7.5q1 -39 -14.5 -82t-40 -83t-50.5 -69zM173 374h20q14 72 6.5 128t-25 94t-34.5 58q-16 19 -37 28t-31 -3q-9 -10 -4.5 -23.5t14.5 -25.5q25 -21 46 -60t33.5 -90t11.5 -106zM785 665l2 191q16 4 21.5 9t5.5 13
q0 10 -9.5 16.5t-35 10t-73.5 5t-126 1.5h-153q-67 0 -90 -16t-23 -56v-49q-112 83 -245 146l-12 -15q71 -36 135 -79t122 -92v-525l78 10q-2 21 -34 27v449q142 -129 241.5 -283t156.5 -312l85 33q-4 10 -13.5 13t-30.5 -1q-64 157 -172.5 312.5t-266.5 283.5v76
q0 19 12.5 27.5t58.5 8.5h149q115 0 148 -3q11 -2 16 -6t7 -12q5 -16 13.5 -66.5t18.5 -116.5h14zM756 388l14 -8q71 49 110.5 96t55 87t13.5 67.5t-15.5 36.5t-31.5 -7q-3 -45 -25.5 -95t-55 -96.5t-65.5 -80.5z" />
</svg>
