<?xml version="1.0" standalone="no"?>
<!DOCTYPE svg PUBLIC "-//W3C//DTD SVG 1.1//EN" "http://www.w3.org/Graphics/SVG/1.1/DTD/svg11.dtd" >
<svg xmlns="http://www.w3.org/2000/svg" xmlns:xlink="http://www.w3.org/1999/xlink" version="1.1" viewBox="-10 0 1010 1000">
   <path fill="currentColor"
d="M537 81l10 -11q70 21 112 47t62 51t22 44t-8.5 27t-28.5 -1q-12 -27 -40.5 -56.5t-63 -56.5t-65.5 -44zM933 764l-13 138q26 16 31.5 22.5t2.5 13.5q-7 21 -44 16t-87 -24q-93 -28 -164.5 -78.5t-124.5 -118.5q-91 70 -206.5 125t-254.5 89l-7 -17q131 -39 242.5 -98
t201.5 -134q-48 -72 -78.5 -160.5t-47.5 -189.5l-322 24l-12 -29l329 -25q-18 -128 -18 -273l81 10q-1 10 -8.5 17.5t-26.5 10.5q0 60 3.5 118t10.5 114l394 -29l37 -56l14 9.5t33.5 23.5t35.5 28q-3 15 -26 17l-483 37q14 92 42.5 174.5t72.5 152.5q71 -64 124.5 -135.5
t90.5 -147.5l77 39q-5 8 -14 10.5t-28 -1.5q-78 148 -224 270q49 63 115 109t153 71q21 7 30 5t16 -16q9 -20 20 -52t18 -62z" />
</svg>
