<?xml version="1.0" standalone="no"?>
<!DOCTYPE svg PUBLIC "-//W3C//DTD SVG 1.1//EN" "http://www.w3.org/Graphics/SVG/1.1/DTD/svg11.dtd" >
<svg xmlns="http://www.w3.org/2000/svg" xmlns:xlink="http://www.w3.org/1999/xlink" version="1.1" viewBox="-10 0 1010 1000">
   <path fill="currentColor"
d="M403 56l11 -9q63 27 99.5 56.5t52 56t15 45.5t-11.5 25.5t-28 -3.5q-8 -29 -31 -60.5t-51.5 -61t-55.5 -49.5zM717 290h-440q34 113 91 207.5t136 169.5q77 -80 129.5 -174t83.5 -203zM929 290h-153q-36 121 -95 222.5t-145 183.5q86 74 194 126.5t235 83.5l-3 11
q-38 0 -54 35q-247 -71 -408 -223q-85 73 -195.5 129.5t-250.5 97.5l-9 -16q263 -89 427 -241q-77 -80 -132 -182.5t-86 -226.5h-195l-9 -30h781l43 -53l13.5 10.5t32.5 26t34 30.5q-4 16 -25 16z" />
</svg>
