<?xml version="1.0" standalone="no"?>
<!DOCTYPE svg PUBLIC "-//W3C//DTD SVG 1.1//EN" "http://www.w3.org/Graphics/SVG/1.1/DTD/svg11.dtd" >
<svg xmlns="http://www.w3.org/2000/svg" xmlns:xlink="http://www.w3.org/1999/xlink" version="1.1" viewBox="-10 0 1010 1000">
   <path fill="currentColor"
d="M188 456h271q20 -77 25.5 -154.5t6.5 -153.5h-233q-8 42 -20 97t-25 110.5t-25 100.5zM902 486h-404q-25 87 -76 170t-139 159.5t-224 143.5l-14 -19q125 -67 206 -140.5t128.5 -152.5t71.5 -161h-261l-29 28l-58 -53q8 -5 19.5 -9t22.5 -8q12 -41 24.5 -95t24 -108
t17.5 -93h-101l-9 -30h666l42 -52l13.5 10.5t31.5 25.5t33 30q-4 16 -26 16h-321q-3 77 -9 154.5t-25 153.5h301l43 -52l13 10.5t31.5 25.5t33.5 30q-4 16 -26 16zM924 745l3 133q15 4 20 8.5t5 11.5q0 12 -15 18.5t-60 9.5t-135 3h-134q-58 0 -76 -12t-18 -44v-348l75 10
q-3 21 -31 25v305q0 14 8.5 19t45.5 5h128q47 0 80 -1t45 -2q15 -1 20 -13t12 -48.5t14 -79.5h13z" />
</svg>
