<?xml version="1.0" standalone="no"?>
<!DOCTYPE svg PUBLIC "-//W3C//DTD SVG 1.1//EN" "http://www.w3.org/Graphics/SVG/1.1/DTD/svg11.dtd" >
<svg xmlns="http://www.w3.org/2000/svg" xmlns:xlink="http://www.w3.org/1999/xlink" version="1.1" viewBox="-10 0 1010 1000">
   <path fill="currentColor"
d="M866 472h-317q47 78 114.5 149t145.5 126.5t154 87.5l-3 9q-14 1 -27.5 10t-19.5 26q-74 -40 -147 -101t-135.5 -139t-106.5 -168h-4v461q0 7 -11.5 14t-23.5 7h-9v-471q-71 122 -181.5 226t-246.5 177l-11 -17q81 -50 153.5 -114t132 -136.5t100.5 -146.5h-307l-9 -29
h369v-183h-411l-9 -29h420v-185l80 9q-2 10 -9.5 17.5t-26.5 10.5v148h304l42 -52l13.5 10.5t32 25.5t33.5 30q-4 15 -26 15h-399v183h248l44 -54l13.5 11t32.5 26.5t34 29.5q-3 16 -26 16z" />
</svg>
