<?xml version="1.0" standalone="no"?>
<!DOCTYPE svg PUBLIC "-//W3C//DTD SVG 1.1//EN" "http://www.w3.org/Graphics/SVG/1.1/DTD/svg11.dtd" >
<svg xmlns="http://www.w3.org/2000/svg" xmlns:xlink="http://www.w3.org/1999/xlink" version="1.1" viewBox="-10 0 1010 1000">
   <path fill="currentColor"
d="M604 85l9 -12q62 12 100 31.5t56 39.5t20.5 36.5t-7 23.5t-26.5 0q-12 -21 -37.5 -43.5t-56 -42.5t-58.5 -33zM63 938l-15 -17q80 -50 124 -109.5t63 -127t23 -140t5 -147.5l78 8q-1 10 -8.5 17t-23.5 9q-3 69 -8.5 138.5t-27.5 135.5t-71.5 125t-138.5 108zM919 314
h-405v619q0 7 -11.5 14t-23.5 7h-9v-640h-400l-9 -30h409v-238l79 10q-2 10 -9 17.5t-26 10.5v200h309l43 -53l13.5 10.5t32 26t33.5 30.5q-3 16 -26 16zM931 827l4 1q14 4 19.5 7.5t5.5 11.5q0 10 -10.5 15.5t-39.5 8t-85 2.5h-72q-43 0 -55.5 -12t-12.5 -38v-425l74 10
q-2 21 -30 25v379q0 12 5 16.5t26 4.5h67h39.5t25.5 -1q4 0 6.5 -0.5t5.5 -0.5q7 0 17 -4h10z" />
</svg>
