<?xml version="1.0" standalone="no"?>
<!DOCTYPE svg PUBLIC "-//W3C//DTD SVG 1.1//EN" "http://www.w3.org/Graphics/SVG/1.1/DTD/svg11.dtd" >
<svg xmlns="http://www.w3.org/2000/svg" xmlns:xlink="http://www.w3.org/1999/xlink" version="1.1" viewBox="-10 0 1010 1000">
   <path fill="currentColor"
d="M833 261h-537q-84 169 -205 265l-15 -12q78 -78 143 -200.5t100 -268.5l83 25q-3 8 -12 14.5t-25 5.5q-12 37 -26 72.5t-29 68.5h523l36 -35l63 62q-5 5 -15 7t-25 3q-16 29 -42 68t-54.5 77t-52.5 66l-15 -9q16 -27 35.5 -63.5t38 -75t31.5 -70.5zM481 346l80 24
q-3 9 -11.5 15.5t-25.5 5.5q11 78 37 151t74 138.5t126 121.5t194 101l-2 12q-20 1 -34.5 7.5t-20.5 26.5q-99 -44 -167.5 -98.5t-111.5 -118t-68 -132.5t-37 -142q-10 70 -33.5 137t-72.5 130t-133.5 120.5t-217.5 108.5l-11 -20q111 -47 186.5 -99t123 -108.5t73.5 -117.5
t37 -127t15 -136z" />
</svg>
