<?xml version='1.0' encoding='ASCII' standalone='yes'?>
<svg xmlns="http://www.w3.org/2000/svg" xmlns:xlink="http://www.w3.org/1999/xlink" version="1.1" viewBox="0 0 1010 1000" height="1000" width="1010">
   <g><g transform="translate(1010, 0) scale(1)  scale(-1.000000 1.000000)"><path fill="currentColor" d="M832 877l44 -54l14 10.5t33 26.5t35 31q-4 16 -26 16h-877l-9 -30h159v-501l81 9q-2 10 -10.5 17.5t-26.5 10.5v464h234v-714h-393l-9 -30h716l44 -54l14 11t33.5 26.5t34.5 30.5q-4 16 -26 16h-370v316h220l43 -53l13.5 10.5t32.5 26t35 30.5q-4 16 -27 16h-317v368h305 z"/>
</g></g></svg>
