<?xml version="1.0" standalone="no"?>
<!DOCTYPE svg PUBLIC "-//W3C//DTD SVG 1.1//EN" "http://www.w3.org/Graphics/SVG/1.1/DTD/svg11.dtd" >
<svg xmlns="http://www.w3.org/2000/svg" xmlns:xlink="http://www.w3.org/1999/xlink" version="1.1" viewBox="-10 0 1010 1000">
   <path fill="currentColor"
d="M76 432l-7 -19q110 -29 216.5 -73t200.5 -96q-80 -32 -172 -63.5t-191 -56.5l7 -20q126 29 225.5 58t175.5 56q70 -42 127 -85.5t95 -86.5l75 40q-9 15 -45 7q-40 36 -91.5 72t-111.5 71q96 36 154 67.5t85.5 56.5t32.5 41.5t-5 22t-28 -1.5q-92 -73 -288 -159
q-99 52 -215 96.5t-240 72.5zM666 408l81 31q-4 9 -12.5 12t-27.5 1q-31 79 -79.5 151t-116.5 132q89 63 201 105.5t240 65.5l-2 11q-16 1 -29.5 10.5t-19.5 26.5q-127 -28 -233.5 -75t-191.5 -115q-80 65 -186 113t-238 75l-7 -17q122 -31 222.5 -81.5t177.5 -116.5
q-64 -58 -112.5 -130.5t-79.5 -160.5l18 -13q32 83 84 152t121 124q132 -126 190 -301z" />
</svg>
