<?xml version="1.0" standalone="no"?>
<!DOCTYPE svg PUBLIC "-//W3C//DTD SVG 1.1//EN" "http://www.w3.org/Graphics/SVG/1.1/DTD/svg11.dtd" >
<svg xmlns="http://www.w3.org/2000/svg" xmlns:xlink="http://www.w3.org/1999/xlink" version="1.1" viewBox="-10 0 1010 1000">
   <path fill="currentColor"
d="M827 878l44 -54l14 10.5t33 26.5t35 31q-4 15 -27 15h-867l-9 -29h419v-371h-306l-8 -30h314v-312h-352l-9 -30h661l45 -54l14 11t33 26.5t34 30.5q-3 16 -26 16h-356v312h220l42 -53l13.5 10.5t32.5 26t34 30.5q-4 16 -26 16h-316v371h314zM608 587l11 -9q70 28 111 60
t58 62.5t16 52.5t-14 30t-32 -5q-8 -33 -32.5 -68t-56 -67.5t-61.5 -55.5z" />
</svg>
