<?xml version="1.0" standalone="no"?>
<!DOCTYPE svg PUBLIC "-//W3C//DTD SVG 1.1//EN" "http://www.w3.org/Graphics/SVG/1.1/DTD/svg11.dtd" >
<svg xmlns="http://www.w3.org/2000/svg" xmlns:xlink="http://www.w3.org/1999/xlink" version="1.1" viewBox="-10 0 1010 1000">
   <path fill="currentColor"
d="M832 885l44 -54l14 10.5t33 26.5t35 31q-4 15 -26 15h-877l-9 -29h429v-287h-310l-8 -29h318v-253h-243q-39 68 -83.5 125.5t-92.5 101.5l-15 -11q46 -52 90.5 -123t82.5 -155t65 -173l79 28q-3 7 -12 13t-26 5q-16 41 -34 81.5t-38 78.5h227v-240l80 9q-2 10 -10 17.5
t-26 10.5v203h254l44 -53l13.5 10.5t32 25.5t34.5 31q-4 15 -26 15h-352v253h216l43 -54l13.5 11t32.5 26.5t34 29.5q-3 16 -26 16h-313v287h313z" />
</svg>
