<?xml version="1.0" standalone="no"?>
<!DOCTYPE svg PUBLIC "-//W3C//DTD SVG 1.1//EN" "http://www.w3.org/Graphics/SVG/1.1/DTD/svg11.dtd" >
<svg xmlns="http://www.w3.org/2000/svg" xmlns:xlink="http://www.w3.org/1999/xlink" version="1.1" viewBox="-10 0 1010 1000">
   <path fill="currentColor"
d="M304 622l69 34q-5 7 -13 9.5t-25 -1.5q-27 39 -69.5 83t-94.5 86t-109 74l-11 -14q51 -36 99.5 -82.5t88.5 -96t65 -92.5zM644 386l11 -11q88 36 141.5 74t79.5 71.5t31 58.5t-5.5 34.5t-29.5 -0.5q-8 -21 -23 -43.5t-35 -44.5q-60 6 -134 13t-158 14v330
q0 29 -12.5 47.5t-61.5 23.5q-1 -8 -4 -15.5t-11 -12.5q-9 -6 -25 -9.5t-42 -6.5v-16l12 1t28 2t31 2t21 1q12 0 16 -4t4 -14v-325q-68 5 -142 11t-154 12q-4 9 -11 14.5t-14 7.5l-28 -75l12.5 -1.5t21.5 -4.5q64 -25 133.5 -58.5t139.5 -72t132 -76.5q-71 12 -160.5 24.5
t-189.5 23.5q-10 17 -24 22l-27 -75l9.5 -1.5t15.5 -4.5q42 -20 87.5 -51t88.5 -66t79 -68.5t58 -58.5l69 46q-4 6 -14 9.5t-26 -0.5q-34 29 -84 65.5t-106.5 73t-112.5 65.5q68 -5 170 -13.5t214 -19.5q41 -26 76 -51t61 -45l62 57q-5 6 -17 8t-28 -5q-45 30 -108.5 66
t-138 74.5t-154 75t-157.5 67.5q66 -2 157 -6t199.5 -9.5t226.5 -11.5q-34 -35 -74.5 -66t-75.5 -52zM636 635l12 -11q92 43 148 87t83 82t31.5 65t-6.5 37.5t-31 -2.5q-11 -32 -36.5 -67.5t-59.5 -70.5t-71 -66t-70 -54z" />
</svg>
