<?xml version="1.0" standalone="no"?>
<!DOCTYPE svg PUBLIC "-//W3C//DTD SVG 1.1//EN" "http://www.w3.org/Graphics/SVG/1.1/DTD/svg11.dtd" >
<svg xmlns="http://www.w3.org/2000/svg" xmlns:xlink="http://www.w3.org/1999/xlink" version="1.1" viewBox="-10 0 1010 1000">
   <path fill="currentColor"
d="M101 64l11 -10q65 24 103 51.5t54 52.5t16.5 43.5t-11 25t-28.5 -3.5q-10 -26 -34.5 -56t-54 -57.5t-56.5 -45.5zM334 481l57 52q-10 10 -41 11q-16 58 -48.5 119t-83.5 110q3 2 9 8q46 48 99.5 71.5t123.5 31t163 7.5q89 0 170 -0.5t173 -4.5v14q-31 4 -36 33h-319
q-98 0 -167 -9.5t-121 -37.5t-99 -81q-10 -9 -16.5 -8.5t-13.5 8.5q-11 13 -28.5 35.5t-36.5 46.5t-33 43q6 12 -4 22l-46 -50q18 -15 41.5 -37t46 -43.5t41.5 -36.5t28 -17q40 -45 68.5 -106t43.5 -120h-135l-26 20l-41 -47q8 -4 18.5 -7.5t20.5 -6.5q19 -24 40.5 -54.5
t42.5 -62.5t37 -59h-201l-9 -30h214l32 -33l67 58q-8 8 -24 12t-36 4q-16 24 -37 55t-43 62.5t-42 58.5h119z" />
</svg>
