<?xml version="1.0" standalone="no"?>
<!DOCTYPE svg PUBLIC "-//W3C//DTD SVG 1.1//EN" "http://www.w3.org/Graphics/SVG/1.1/DTD/svg11.dtd" >
<svg xmlns="http://www.w3.org/2000/svg" xmlns:xlink="http://www.w3.org/1999/xlink" version="1.1" viewBox="-10 0 1010 1000">
   <path fill="currentColor"
d="M806 78l73 40q-5 7 -12.5 9.5t-23.5 -1.5q-23 30 -60.5 70.5t-76.5 72.5l-14 -13q22 -26 44 -58t40.5 -64t29.5 -56zM117 86l12 -8q59 28 91.5 58t45 56t10 44t-15 24t-29.5 -6q-7 -27 -26 -58t-42.5 -60t-45.5 -50zM235 843l-13 -13q33 -40 64 -88.5t56.5 -97.5
t40.5 -88l75 35q-4 8 -12 11t-25 0q-19 34 -48 77t-64 85.5t-74 78.5zM646 335l7 -17q103 26 164.5 54.5t91.5 54.5t36 45.5t-4.5 28t-28.5 0.5q-20 -23 -59 -52t-92 -59t-115 -55zM832 285l42 -53l14 10.5t33 26t34 30.5q-4 16 -27 16h-409v175h261l26 -32l71 53
q-4 5 -16 11t-27 8v350q0 20 -5.5 35.5t-23 24.5t-55.5 13q-1 -9 -5.5 -17t-14.5 -12q-11 -5 -31 -10t-51 -8v-16l15 1t36 2.5t40 2.5t27 1q14 0 19 -5t5 -16v-356h-271v404q0 2 -10.5 9t-27.5 7h-6v-420h-265v417q0 4 -10.5 10.5t-24.5 6.5h-8v-485q-28 16 -58.5 29
t-59.5 24l-10 -15q48 -24 96.5 -56.5t90 -68t67.5 -67.5l70 40q-5 7 -13 9t-25 -2q-56 54 -153 105l45 23h258v-175h-420l-9 -30h342v-238l76 9q-1 10 -8 16.5t-24 9.5v203h135v-238l77 9q-1 10 -8.5 16.5t-24.5 9.5v203h221zM567 577l15 -8q87 58 129.5 108t53 85t-1.5 48
t-33 -2q-13 -34 -41 -76t-61 -83.5t-61 -71.5z" />
</svg>
