<?xml version="1.0" standalone="no"?>
<!DOCTYPE svg PUBLIC "-//W3C//DTD SVG 1.1//EN" "http://www.w3.org/Graphics/SVG/1.1/DTD/svg11.dtd" >
<svg xmlns="http://www.w3.org/2000/svg" xmlns:xlink="http://www.w3.org/1999/xlink" version="1.1" viewBox="-10 0 1010 1000">
   <path fill="currentColor"
d="M100 114q68 54 106.5 103.5t54.5 89.5t14.5 66.5t-14 35t-29.5 -6.5q-5 -44 -29 -95.5t-55.5 -100.5t-61.5 -85zM389 51q59 55 91 105t43.5 90.5t8 67t-16.5 34.5t-29 -8q-1 -45 -18.5 -97t-42.5 -101t-51 -85zM858 81l82 34q-4 7 -13 10.5t-28 0.5q-29 62 -75.5 137
t-105.5 149.5t-127 134.5l-14 -12q60 -64 114.5 -143.5t97.5 -161t69 -149.5z" />
</svg>
