<?xml version="1.0" standalone="no"?>
<!DOCTYPE svg PUBLIC "-//W3C//DTD SVG 1.1//EN" "http://www.w3.org/Graphics/SVG/1.1/DTD/svg11.dtd" >
<svg xmlns="http://www.w3.org/2000/svg" xmlns:xlink="http://www.w3.org/1999/xlink" version="1.1" viewBox="-10 0 1010 1000">
   <path fill="currentColor"
d="M335 157l5 -16q44 -5 83 -3t70 18q19 9 42.5 27t40.5 37.5t17 34.5q0 13 -9 22.5t-20 18t-18 18.5q-12 17 -27.5 38t-32.5 44q23 -1 54 -4t59.5 -7t41.5 -7q15 -3 27 -13t23 -18.5t22 -8.5q18 0 44 16.5t50.5 40.5t41 48t16.5 39q0 16 -16 27.5t-36 20t-31 17.5
q-49 42 -94.5 81.5t-97.5 79.5q23 16 40.5 30.5t29.5 27.5q17 18 31 43t14 48q0 31 -17 58t-61 27q-38 0 -55 -19.5t-33 -50.5q-26 -51 -53 -89.5t-62.5 -75t-87.5 -79.5l10 -14q56 10 101.5 25.5t82.5 34.5q41 -56 71 -104t54 -93q5 -10 1 -15.5t-14 -4.5q-17 1 -40 4
t-44.5 6t-34.5 6q-16 3 -27 7.5t-23 4.5q-8 0 -17.5 -8t-19.5 -18q-17 20 -35 40.5t-37 40.5q-53 55 -119 115.5t-154 106.5l-14 -15q62 -68 112 -133t90 -124q28 -42 53.5 -89t45 -89.5t29.5 -71.5q4 -11 3 -20.5t-11 -19.5q-12 -14 -28.5 -23.5t-35.5 -19.5z" />
</svg>
