<?xml version="1.0" standalone="no"?>
<!DOCTYPE svg PUBLIC "-//W3C//DTD SVG 1.1//EN" "http://www.w3.org/Graphics/SVG/1.1/DTD/svg11.dtd" >
<svg xmlns="http://www.w3.org/2000/svg" xmlns:xlink="http://www.w3.org/1999/xlink" version="1.1" viewBox="-10 0 1020 1000">
   <path fill="currentColor"
d="M290 512l21 9q-9 27 -20.5 61t-21 64.5t-14.5 48.5q-6 33 -8.5 51t-2.5 29q0 29 11 55.5t11 52.5q0 70 -62 70q-21 0 -41 -13.5t-37 -35.5q-31 -41 -47.5 -104t-16.5 -154q0 -39 7.5 -89.5t17.5 -98.5t17 -78q10 -37 16 -71t6 -72t-16.5 -71.5t-32.5 -52.5l7 -10
q29 5 50.5 13t42.5 21q18 10 40.5 32.5t39 51t16.5 59.5q0 23 -11 42t-28 49q-32 53 -58 124t-26 145q0 15 1.5 31t4.5 24q5 12 13 12.5t15 -11.5q13 -19 32.5 -53t39.5 -70t34 -61zM626 731q-27 -8 -53.5 -10.5t-52.5 -2.5q-40 0 -71 16.5t-31 45.5q0 25 26.5 35.5
t57.5 10.5q73 0 98.5 -23.5t25.5 -71.5zM515 165l-3 -13q21 -17 49 -33.5t50 -16.5q40 0 73.5 11t54 27t20.5 32q0 19 -6 31.5t-11 36.5q-4 18 -9 58q43 -15 62.5 -24.5t22.5 -9.5q33 0 61.5 14.5t28.5 42.5q0 29 -16 40t-56 28q-14 6 -44 14t-68 16q-1 15 -1 30.5v30.5
q0 55 3 97t7 77q63 16 104.5 43t66.5 53q34 34 34 71q0 31 -15 47.5t-39 16.5q-20 0 -37 -13.5t-48 -41.5q-13 -13 -26.5 -23.5t-27.5 -19.5q-2 74 -53 109t-153 35q-45 0 -85 -16.5t-65 -48.5t-25 -78q0 -53 31.5 -86.5t83.5 -49t111 -15.5h16t16 1q-2 -37 -4 -78.5
t-2 -81.5v-43q-22 2 -43 3.5t-42 1.5q-33 0 -62.5 -7t-56 -35.5t-50.5 -92.5l10 -8q41 25 75 34t59 9q32 0 59 -3t52 -7v-83q0 -27 -3.5 -38.5t-9.5 -15.5t-16 -8q-17 -8 -36.5 -12t-36.5 -8zM887 192q29 0 48.5 -20t19.5 -48q0 -29 -19.5 -48.5t-48.5 -19.5q-28 0 -48 19.5
t-20 48.5q0 28 20 48t48 20zM887 11q47 0 80 33t33 80t-33 80t-80 33t-80 -33t-33 -80t33 -80t80 -33z" />
</svg>
