<?xml version="1.0" standalone="no"?>
<!DOCTYPE svg PUBLIC "-//W3C//DTD SVG 1.1//EN" "http://www.w3.org/Graphics/SVG/1.1/DTD/svg11.dtd" >
<svg xmlns="http://www.w3.org/2000/svg" xmlns:xlink="http://www.w3.org/1999/xlink" version="1.1" viewBox="-10 0 1010 1000">
   <path fill="currentColor"
d="M479 477q33 18 63 44.5t43 61t-4 78.5q-13 36 -33.5 24t-34.5 -52q-9 -28 -26.5 -54.5t-35 -47.5t-28.5 -33q-30 -35 -16 -44.5t72 23.5zM372 360l-2 21q-3 25 -5 71t-3.5 102.5t-2.5 112t-1 99.5q0 25 1.5 36t9.5 13t25 1q25 -2 67 -5.5t88.5 -5.5t83.5 -1q3 -21 6 -48
q3 -36 4.5 -88t2 -104.5t0 -94.5t-0.5 -58q-1 -34 -3.5 -48t-13.5 -18t-37 -6q-19 -2 -57 -0.5t-82 6.5t-80 15zM349 285l6 3q30 -5 69.5 -8.5t79 -5.5t68.5 -4.5t37 -5.5q25 -10 37.5 -13.5t21.5 -1.5t21 9t24.5 16.5t26.5 24.5q12 13 11.5 20t-14.5 25q-8 10 -12 42
t-5.5 72.5t-1.5 78.5v59t-0.5 59t-1 82.5t-1.5 88t-3 76.5q-1 31 -15.5 41t-33 -2.5t-34.5 -46.5q-2 -6 -4 -16q-24 -1 -63 -0.5t-80.5 2.5t-75 6.5t-46.5 13.5q-27 18 -40 23t-22 -5.5t-23 -39.5q-8 -18 -9 -29t3.5 -27.5t10.5 -49.5q8 -43 6.5 -114t-2.5 -177
q0 -32 -2 -69.5t-7.5 -68t-16.5 -41.5q-22 -23 -18.5 -34.5t21.5 -9.5q18 1 40 7t48 20z" />
</svg>
