<?xml version="1.0" standalone="no"?>
<!DOCTYPE svg PUBLIC "-//W3C//DTD SVG 1.1//EN" "http://www.w3.org/Graphics/SVG/1.1/DTD/svg11.dtd" >
<svg xmlns="http://www.w3.org/2000/svg" xmlns:xlink="http://www.w3.org/1999/xlink" version="1.1" viewBox="-10 0 1010 1000">
   <path fill="currentColor"
d="M717 351q-5 3 -23.5 35t-48.5 81.5t-70 107.5q47 52 84 101.5t58.5 88.5t21.5 62q0 50 -13 64.5t-31 14.5q-31 1 -43.5 -21t-29.5 -58q-16 -35 -43 -80t-62 -94q-44 55 -95 105.5t-108 87t-119 50.5q-51 12 -52 -3.5t42 -44.5q74 -50 145.5 -123t129.5 -150
q-46 -59 -96 -112.5t-99 -92.5q-21 -17 -21 -33t16 -21t42 12q47 31 101 77.5t106 99.5q47 -72 72.5 -133t17.5 -94q-12 -53 8.5 -62.5t80.5 35.5q45 33 50.5 59t-21.5 41z" />
</svg>
