<?xml version="1.0" standalone="no"?>
<!DOCTYPE svg PUBLIC "-//W3C//DTD SVG 1.1//EN" "http://www.w3.org/Graphics/SVG/1.1/DTD/svg11.dtd" >
<svg xmlns="http://www.w3.org/2000/svg" xmlns:xlink="http://www.w3.org/1999/xlink" version="1.1" viewBox="-10 0 1011 1000">
   <path fill="currentColor"
d="M790 128l72 -99l13 11t33.5 28t42.5 36t40 36q-4 16 -29 16h-510q-10 32 -25 78t-30.5 94t-28.5 86h337l83 -78l132 115q-14 16 -46 20q-21 178 -55.5 295t-90.5 157q-23 17 -48 27.5t-58.5 15t-83.5 4.5q1 -33 -6 -60t-27 -45q-20 -19 -60.5 -35t-90.5 -26l1 -9
q39 3 84 5.5t82.5 4.5t53.5 2q26 0 43 -12q20 -15 38 -63.5t33 -123.5t25 -166h-349l-53 64l-144 -77q7 -7 16 -14t19 -13q14 -36 29 -82.5t28 -91t19 -72.5h-236l-8 -28h755z" />
</svg>
