<?xml version="1.0" standalone="no"?>
<!DOCTYPE svg PUBLIC "-//W3C//DTD SVG 1.1//EN" "http://www.w3.org/Graphics/SVG/1.1/DTD/svg11.dtd" >
<svg xmlns="http://www.w3.org/2000/svg" xmlns:xlink="http://www.w3.org/1999/xlink" version="1.1" viewBox="-10 0 1010 1000">
   <path fill="currentColor"
d="M752 142l78 -99l14.5 11t36.5 28t46.5 36t44.5 36q-4 16 -30 16h-452q-1 55 -4 108t-10 106h190l76 -73l123 107q-13 14 -44 20q-14 205 -40.5 319t-75.5 152q-31 25 -68.5 36t-96.5 11q0 -32 -5.5 -57t-19.5 -40q-34 -36 -119 -53l1 -11q28 2 61.5 4.5t62 3.5t41.5 1
q24 0 39 -11q26 -21 45 -121t30 -260h-203q-12 82 -39 159.5t-76 148.5t-127.5 135t-195.5 118l-9 -13q90 -74 146.5 -150t88 -155t45.5 -159.5t17 -162t4 -163.5h-285l-8 -28h718z" />
</svg>
