<?xml version="1.0" standalone="no"?>
<!DOCTYPE svg PUBLIC "-//W3C//DTD SVG 1.1//EN" "http://www.w3.org/Graphics/SVG/1.1/DTD/svg11.dtd" >
<svg xmlns="http://www.w3.org/2000/svg" xmlns:xlink="http://www.w3.org/1999/xlink" version="1.1" viewBox="-10 0 1010 1000">
   <path fill="currentColor"
d="M946 287h-256q-3 88 -13.5 165t-35 143.5t-70.5 123.5q89 43 192.5 68t213.5 39l-2 12q-52 10 -86 44.5t-50 87.5q-106 -27 -196.5 -66.5t-164.5 -98.5q-73 53 -181.5 95t-263.5 74l-7 -14q137 -50 228.5 -106t148.5 -120q-63 -71 -107.5 -165.5t-70.5 -220.5l13 -8
q31 105 88 182t133 132q44 -78 59.5 -169t17.5 -198h-492l-8 -28h500q1 -53 0.5 -111.5t-0.5 -120.5l195 17q-3 24 -37 30q-1 49 -1 95t-2 90h58l81 -103l14.5 11.5t37.5 29t48 37.5t46 37q-4 16 -30 16z" />
</svg>
