<?xml version="1.0" standalone="no"?>
<!DOCTYPE svg PUBLIC "-//W3C//DTD SVG 1.1//EN" "http://www.w3.org/Graphics/SVG/1.1/DTD/svg11.dtd" >
<svg xmlns="http://www.w3.org/2000/svg" xmlns:xlink="http://www.w3.org/1999/xlink" version="1.1" viewBox="-10 0 1010 1000">
   <path fill="currentColor"
d="M415 334l197 17q-1 10 -8.5 18t-28.5 11v553q0 6 -20 16t-50.5 18t-61.5 8h-28v-641zM521 120q-28 60 -75 124t-111 125t-141.5 111.5t-167.5 82.5l-5 -9q66 -49 123.5 -112.5t103 -134.5t78.5 -144t51 -141l211 59q-3 11 -14 17t-39 10q46 64 115 117.5t154 93.5t178 64
l-1 15q-46 18 -70.5 59.5t-35.5 85.5q-126 -64 -214.5 -172t-139.5 -251z" />
</svg>
