<?xml version="1.0" standalone="no"?>
<!DOCTYPE svg PUBLIC "-//W3C//DTD SVG 1.1//EN" "http://www.w3.org/Graphics/SVG/1.1/DTD/svg11.dtd" >
<svg xmlns="http://www.w3.org/2000/svg" xmlns:xlink="http://www.w3.org/1999/xlink" version="1.1" viewBox="-10 0 1010 1000">
   <path fill="currentColor"
d="M707 61l199 41q-3 10 -11 16.5t-31 7.5q-23 103 -56.5 201.5t-84 188t-124.5 167.5q86 50 183 84.5t202 57.5l-3 12q-57 6 -97 37.5t-61 84.5q-95 -33 -178 -77.5t-152 -104.5q-85 64 -198.5 114.5t-260.5 82.5l-7 -11q129 -49 227 -113.5t171 -140.5
q-91 -102 -150.5 -248t-83.5 -348l15 -7q32 177 109 302t186 210q90 -124 137 -266.5t69 -290.5z" />
</svg>
