<?xml version="1.0" standalone="no"?>
<!DOCTYPE svg PUBLIC "-//W3C//DTD SVG 1.1//EN" "http://www.w3.org/Graphics/SVG/1.1/DTD/svg11.dtd" >
<svg xmlns="http://www.w3.org/2000/svg" xmlns:xlink="http://www.w3.org/1999/xlink" version="1.1" viewBox="-10 0 1010 1000">
   <path fill="currentColor"
d="M838 331l126 109q-6 7 -16.5 12.5t-27.5 7.5q-7 142 -19 238t-31.5 152t-51.5 82q-30 24 -67 35t-97 11q1 -34 -4.5 -59.5t-20.5 -40.5q-32 -35 -116 -54v-10q28 2 60 4t59 3t40 1q22 0 36 -11q25 -19 39.5 -116.5t23.5 -260.5h-88l-50 60l-133 -76q14 -14 36 -25
q14 -34 28.5 -79t27.5 -89.5t21 -77.5h-183q-2 103 -8 199t-26 184t-62 167.5t-115 148.5t-187 128l-10 -14q77 -71 125 -146.5t74 -154.5t36.5 -162.5t12.5 -171t2 -178.5h-193l-9 -28h537l67 -66l130 122q-13 14 -48 16q-9 29 -21.5 67.5t-24.5 77.5t-23 70h74z" />
</svg>
