<?xml version="1.0" standalone="no"?>
<!DOCTYPE svg PUBLIC "-//W3C//DTD SVG 1.1//EN" "http://www.w3.org/Graphics/SVG/1.1/DTD/svg11.dtd" >
<svg xmlns="http://www.w3.org/2000/svg" xmlns:xlink="http://www.w3.org/1999/xlink" version="1.1" viewBox="-10 0 1010 1000">
   <path fill="currentColor"
d="M602 125l137 124q-6 10 -15.5 14t-29.5 6q-17 79 -42 152q26 129 104.5 229t231.5 157v13q-110 24 -125 154q-75 -53 -121 -135t-70 -180t-35 -198q-45 118 -122 218.5t-196.5 176.5t-295.5 121l-7 -10q154 -75 259 -186.5t167.5 -249.5t88.5 -295h-145
q-61 134 -146 223.5t-198 151.5l-9 -8q57 -68 106 -159.5t84.5 -198.5t50.5 -223l205 54q-7 22 -41 22q-9 29 -19 56.5t-21 53.5h124z" />
</svg>
