<?xml version="1.0" standalone="no"?>
<!DOCTYPE svg PUBLIC "-//W3C//DTD SVG 1.1//EN" "http://www.w3.org/Graphics/SVG/1.1/DTD/svg11.dtd" >
<svg xmlns="http://www.w3.org/2000/svg" xmlns:xlink="http://www.w3.org/1999/xlink" version="1.1" viewBox="-10 0 1010 1000">
   <path fill="currentColor"
d="M907 647l4 140q35 13 46.5 27.5t11.5 35.5q0 32 -23 51.5t-82.5 28t-171.5 8.5h-123q-67 0 -107 -10t-58 -38.5t-18 -84.5v-279l-341 38l-11 -27l352 -39v-263q-78 11 -157 20.5t-156 14.5l-3 -13q87 -20 180.5 -48t183 -60t165.5 -64.5t129 -62.5l143 122q-8 8 -26 9.5
t-46 -7.5q-55 17 -122 33t-141 30v24v249l196 -22l72 -113l16.5 9t41.5 24t53.5 32t52.5 32q-1 9 -9 14t-19 7l-404 45v257q0 20 12 27t42 7h118q25 0 47.5 -0.5t37.5 -1.5q26 -2 40 -16q12 -16 28.5 -50.5t36.5 -85.5h9z" />
</svg>
