<?xml version="1.0" standalone="no"?>
<!DOCTYPE svg PUBLIC "-//W3C//DTD SVG 1.1//EN" "http://www.w3.org/Graphics/SVG/1.1/DTD/svg11.dtd" >
<svg xmlns="http://www.w3.org/2000/svg" xmlns:xlink="http://www.w3.org/1999/xlink" version="1.1" viewBox="-10 0 1010 1000">
   <path fill="currentColor"
d="M371 15l202 88q-10 21 -45 17q-96 173 -217.5 285t-271.5 186l-8 -8q63 -64 127.5 -154.5t120.5 -196.5t92 -217zM624 584l9 -6q112 37 179.5 86.5t99 101.5t34 96.5t-17 73.5t-53 33t-74.5 -27q-7 -37 -20 -74t-30 -74q-92 27 -225 59t-301 67q-9 12 -20 19t-22 11
l-51 -185l11 -3t24.5 -8t22.5 -11q33 -21 74 -63t84 -96.5t82.5 -114t70.5 -117.5t47 -105l198 102q-4 8 -15.5 13.5t-30.5 4.5q-33 48 -83.5 102t-111.5 109t-126 104.5t-126 87.5q89 0 216 -2.5t266 -6.5q-24 -48 -52.5 -93t-58.5 -84z" />
</svg>
