<?xml version="1.0" standalone="no"?>
<!DOCTYPE svg PUBLIC "-//W3C//DTD SVG 1.1//EN" "http://www.w3.org/Graphics/SVG/1.1/DTD/svg11.dtd" >
<svg xmlns="http://www.w3.org/2000/svg" xmlns:xlink="http://www.w3.org/1999/xlink" version="1.1" viewBox="-10 0 1010 1000">
   <path fill="currentColor"
d="M753 226l76 -99l14 11t35 28t44.5 36t42.5 36q-4 16 -30 16h-402v187h139l71 -92l13 10t32.5 26t41.5 34t40 34q-4 16 -29 16h-308v191h177l76 -100l14 11t35.5 28t45 36.5t42.5 36.5q-4 16 -29 16h-361v250q0 7 -32 22.5t-90 15.5h-28v-722h-61q-61 98 -134 173.5
t-159 131.5l-10 -8q44 -63 87.5 -149t80.5 -183.5t60 -196.5l193 66q-8 21 -42 20q-14 31 -29 60.5t-31 57.5h415z" />
</svg>
