<?xml version="1.0" standalone="no"?>
<!DOCTYPE svg PUBLIC "-//W3C//DTD SVG 1.1//EN" "http://www.w3.org/Graphics/SVG/1.1/DTD/svg11.dtd" >
<svg xmlns="http://www.w3.org/2000/svg" xmlns:xlink="http://www.w3.org/1999/xlink" version="1.1" viewBox="-10 0 1010 1000">
   <path fill="currentColor"
d="M759 530l81 -101l14.5 11t37.5 28.5t48 37t46 36.5q-4 16 -30 16h-380v243q0 49 -14 87t-57 61.5t-130 29.5q-2 -38 -9.5 -65.5t-24.5 -43.5q-16 -17 -40.5 -29.5t-77.5 -21.5v-12l22.5 1t54 3t60 3t39.5 1q23 0 23 -20v-237h-396l-8 -28h404v-347q-90 5 -182 6.5
t-178 -1.5l-1 -15q92 -11 191 -28t194.5 -38.5t178.5 -45t141 -46.5l132 131q-10 7 -28 7.5t-46 -10.5q-53 9 -116 16.5t-132 13.5v357h183zM132 242l9 -5q85 22 134.5 56t70 70.5t18.5 69t-21 53.5t-48 22.5t-62 -24.5q-10 -63 -39.5 -127t-61.5 -115zM621 515l-10 -8
q19 -36 39.5 -84.5t41 -103.5t36.5 -108l172 73q-4 9 -14.5 14t-27.5 4q-52 64 -113.5 119t-123.5 94z" />
</svg>
