<?xml version="1.0" standalone="no"?>
<!DOCTYPE svg PUBLIC "-//W3C//DTD SVG 1.1//EN" "http://www.w3.org/Graphics/SVG/1.1/DTD/svg11.dtd" >
<svg xmlns="http://www.w3.org/2000/svg" xmlns:xlink="http://www.w3.org/1999/xlink" version="1.1" viewBox="-10 0 1010 1000">
   <path fill="currentColor"
d="M902 579l-2 182q44 17 58 28t14 34q0 38 -35 60.5t-110.5 31.5t-198.5 9h-202q-179 0 -261.5 -46.5t-91.5 -130.5q-6 -48 24 -99t98 -116t176 -153t259 -209h-523l-9 -28h553l70 -71l141 134q-20 18 -74 21q-156 115 -263.5 199.5t-172.5 144t-92.5 97.5t-23.5 61
q6 35 53.5 44.5t123.5 9.5h227q60 0 93.5 -2t49 -6.5t22.5 -10.5q44 -41 88 -184h9z" />
</svg>
