<?xml version="1.0" standalone="no"?>
<!DOCTYPE svg PUBLIC "-//W3C//DTD SVG 1.1//EN" "http://www.w3.org/Graphics/SVG/1.1/DTD/svg11.dtd" >
<svg xmlns="http://www.w3.org/2000/svg" xmlns:xlink="http://www.w3.org/1999/xlink" version="1.1" viewBox="-10 0 1010 1000">
   <path fill="currentColor"
d="M894 675l4 107q43 13 60 28.5t17 35.5q0 29 -15.5 48t-54.5 30t-108 15.5t-176 4.5h-157q-81 0 -134.5 -10t-79.5 -42.5t-26 -98.5v-386l-173 48l-17 -25l190 -53v-316l192 20q-1 10 -8.5 17.5t-27.5 10.5v224l343 -96l78 -79l131 135q-10 13 -43 17q-20 55 -50.5 121.5
t-69.5 130.5t-84 113l-6 -6q12 -64 21 -135.5t15 -140.5t7 -126l-342 96v392q0 29 20 39t63 10h172q33 0 64 -1t51 -2q17 -2 32 -5.5t26 -10.5q14 -13 33.5 -38.5t43.5 -71.5h9z" />
</svg>
