<?xml version="1.0" standalone="no"?>
<!DOCTYPE svg PUBLIC "-//W3C//DTD SVG 1.1//EN" "http://www.w3.org/Graphics/SVG/1.1/DTD/svg11.dtd" >
<svg xmlns="http://www.w3.org/2000/svg" xmlns:xlink="http://www.w3.org/1999/xlink" version="1.1" viewBox="-10 0 1010 1000">
   <path fill="currentColor"
d="M799 48l135 117q-11 12 -43 15q-61 39 -136.5 80.5t-152.5 76.5l10 1q-3 21 -34 27v438q0 50 -14 85t-58 55.5t-133 28.5q-4 -36 -11.5 -61.5t-26.5 -42.5t-45 -29.5t-82 -22.5v-12l17 1l42.5 2.5t53.5 3t50 2.5t31 1q23 0 23 -20v-472l119 10q45 -41 88.5 -90t74.5 -88
h-599l-9 -28h617z" />
</svg>
