<?xml version="1.0" standalone="no"?>
<!DOCTYPE svg PUBLIC "-//W3C//DTD SVG 1.1//EN" "http://www.w3.org/Graphics/SVG/1.1/DTD/svg11.dtd" >
<svg xmlns="http://www.w3.org/2000/svg" xmlns:xlink="http://www.w3.org/1999/xlink" version="1.1" viewBox="-10 0 1010 1000">
   <path fill="currentColor"
d="M450 789v-497l194 16q-3 23 -35 27v464q0 39 -7 69.5t-28.5 52.5t-62 35.5t-108.5 19.5q-4 -39 -11.5 -66t-24.5 -46q-18 -18 -42.5 -31t-77.5 -23v-12l15.5 1t40 2t50 2.5t46.5 2.5t29 1q22 0 22 -18zM845 149l134 127q-7 7 -15 9.5t-25 4.5q-20 27 -48.5 59t-59.5 62
t-61 53l-6 -5q5 -44 9 -101t5 -103h-466q-114 159 -264 257l-10 -7q37 -59 75.5 -140t74 -172t59.5 -180l200 76q-8 21 -42 18q-17 32 -35 62t-38 58h435z" />
</svg>
