<?xml version="1.0" standalone="no"?>
<!DOCTYPE svg PUBLIC "-//W3C//DTD SVG 1.1//EN" "http://www.w3.org/Graphics/SVG/1.1/DTD/svg11.dtd" >
<svg xmlns="http://www.w3.org/2000/svg" xmlns:xlink="http://www.w3.org/1999/xlink" version="1.1" viewBox="-10 0 1010 1000">
   <path fill="currentColor"
d="M845 155h-708l-8 -28h517l81 -104l15 11.5t38.5 29t48.5 37.5t46 38q-4 16 -30 16zM739 404l83 -107l15.5 11.5t39 30t49.5 39t47 38.5q-4 16 -30 16h-490l154 81q-7 18 -38 15q-37 42 -95 91t-124 94t-129 78h142.5t177 -1.5t195.5 -2.5q-29 -59 -65 -115t-74 -104l9 -6
q101 34 168 77.5t105.5 90t52 90.5t8 79t-26 55.5t-51.5 20t-67 -27.5q-7 -32 -18 -63.5t-25 -62.5q-98 25 -238 54.5t-316 61.5q-16 18 -37 25l-50 -182l19 -5t30 -12q30 -17 66.5 -54.5t72 -86t65 -98.5t46.5 -92h-371l-8 -28h708z" />
</svg>
