<?xml version="1.0" standalone="no"?>
<!DOCTYPE svg PUBLIC "-//W3C//DTD SVG 1.1//EN" "http://www.w3.org/Graphics/SVG/1.1/DTD/svg11.dtd" >
<svg xmlns="http://www.w3.org/2000/svg" xmlns:xlink="http://www.w3.org/1999/xlink" version="1.1" viewBox="-10 0 1010 1000">
   <path fill="currentColor"
d="M618 491h-151q-22 108 -46 212t-44 183h241v-395zM778 886l74 -112l13.5 12.5t34 31.5t43 40.5t39.5 39.5q-4 16 -29 16h-922l-8 -28h202q21 -79 45 -183.5t46 -211.5h-174l-9 -28h189q15 -74 29 -144t24 -128h-284l-8 -28h624l77 -106l14 11.5t36 30t46 38.5t43 38
q-4 16 -30 16h-366q-11 59 -24.5 128.5t-29.5 143.5h135l68 -72l129 100q-4 6 -13.5 11.5t-25.5 9.5v374h12z" />
</svg>
