<?xml version="1.0" standalone="no"?>
<!DOCTYPE svg PUBLIC "-//W3C//DTD SVG 1.1//EN" "http://www.w3.org/Graphics/SVG/1.1/DTD/svg11.dtd" >
<svg xmlns="http://www.w3.org/2000/svg" xmlns:xlink="http://www.w3.org/1999/xlink" version="1.1" viewBox="-10 0 1010 1000">
   <path fill="currentColor"
d="M747 895l82 -106l15 11.5t38.5 29.5t48.5 38.5t46 38.5q-4 16 -30 16h-914l-8 -28h554l57 -523h-251q-18 69 -38 139t-38.5 131.5t-32.5 105.5q-25 15 -68.5 15t-91.5 -15q16 -42 35 -99.5t39 -123t38 -132t33 -126t23 -105.5h-207l-8 -28h643l80 -103l15 11.5t38 29
t48 37.5t46 37q-4 16 -30 16h-472q-8 38 -19.5 85t-25.5 97h235l62 -76l141 113q-7 8 -16 12t-28 7l-53 495h14zM353 627l7 -6q78 1 123.5 19t65 44t18 52.5t-18.5 45.5t-44 23t-59 -16q-9 -44 -36 -88.5t-56 -73.5zM389 439l7 -6q74 -6 118.5 7.5t64 36t19.5 47.5t-15.5 44
t-41.5 24.5t-58 -11.5q-10 -40 -37.5 -79t-56.5 -63z" />
</svg>
