<?xml version="1.0" standalone="no"?>
<!DOCTYPE svg PUBLIC "-//W3C//DTD SVG 1.1//EN" "http://www.w3.org/Graphics/SVG/1.1/DTD/svg11.dtd" >
<svg xmlns="http://www.w3.org/2000/svg" xmlns:xlink="http://www.w3.org/1999/xlink" version="1.1" viewBox="-10 0 1010 1000">
   <path fill="currentColor"
d="M946 632l-1 13q-102 23 -117 139q-73 -48 -119.5 -119.5t-73 -158t-40.5 -178.5q-10 69 -31.5 134t-62 124t-106 111t-162.5 96l-9 -12q74 -63 120 -130t70 -139t33.5 -148t11 -156.5t1.5 -164.5l187 16q-2 10 -10 17.5t-26 9.5q-1 38 -2.5 76t-3.5 75q17 88 57 163
t109.5 133.5t174.5 98.5zM770 879l74 -97l13.5 11t34.5 28t44 36t42 36q-4 16 -30 16h-719l-42 62l-146 -71q15 -18 38 -36v-756l182 17q-2 11 -9.5 18.5t-27.5 10.5v725h546z" />
</svg>
