<?xml version="1.0" standalone="no"?>
<!DOCTYPE svg PUBLIC "-//W3C//DTD SVG 1.1//EN" "http://www.w3.org/Graphics/SVG/1.1/DTD/svg11.dtd" >
<svg xmlns="http://www.w3.org/2000/svg" xmlns:xlink="http://www.w3.org/1999/xlink" version="1.1" viewBox="-10 0 1010 1000">
   <path fill="currentColor"
d="M243 150v204q0 69 -5 150.5t-24.5 165.5t-62.5 162.5t-120 141.5l-8 -6q38 -93 54.5 -198.5t20 -212t3.5 -202.5v-301l163 68h495l75 -96l14 10.5t35 27t44.5 35t42.5 35.5q-2 8 -10 12t-19 4h-698zM456 206l184 16q-1 11 -9.5 18.5t-26.5 9.5q10 146 48 256.5t118 187.5
t215 124l-1 12q-105 24 -125 148q-91 -54 -144.5 -138.5t-79.5 -194t-37 -237.5q-6 89 -24 170.5t-62 153.5t-124 133t-209 111l-9 -13q90 -61 145.5 -127t84.5 -138.5t40.5 -151t13 -163.5t2.5 -177z" />
</svg>
