<?xml version="1.0" standalone="no"?>
<!DOCTYPE svg PUBLIC "-//W3C//DTD SVG 1.1//EN" "http://www.w3.org/Graphics/SVG/1.1/DTD/svg11.dtd" >
<svg xmlns="http://www.w3.org/2000/svg" xmlns:xlink="http://www.w3.org/1999/xlink" version="1.1" viewBox="-10 0 1010 1000">
   <path fill="currentColor"
d="M637 568l80 -70l131 103q-4 9 -12 12.5t-25 5.5q-27 66 -74.5 132t-110.5 125.5t-138 104.5l-7 -9q32 -52 61.5 -116.5t52.5 -132t36 -127.5h-466l-9 -28h481zM522 411l70 -96l13 10.5t32.5 27.5t41 35.5t38.5 34.5q-4 16 -28 16h-432l-8 -28h273zM396 18l178 93
q-9 16 -30 16q52 55 124 98t154 72t162 44l-2 12q-42 10 -73 44.5t-44 87.5q-124 -51 -208 -137.5t-137 -209.5q-63 97 -139.5 165t-164 113t-186.5 75l-7 -9q73 -47 144 -117t131 -158t98 -189z" />
</svg>
