<?xml version="1.0" standalone="no"?>
<!DOCTYPE svg PUBLIC "-//W3C//DTD SVG 1.1//EN" "http://www.w3.org/Graphics/SVG/1.1/DTD/svg11.dtd" >
<svg xmlns="http://www.w3.org/2000/svg" xmlns:xlink="http://www.w3.org/1999/xlink" version="1.1" viewBox="-10 0 1010 1000">
   <path fill="currentColor"
d="M405 23l212 52q-3 11 -14.5 16.5t-37.5 8.5q33 54 81.5 93.5t106 68t118.5 48t119 33.5l-1 15q-32 10 -55.5 32.5t-38 51.5t-19.5 57q-36 -18 -69 -38.5t-62 -44.5q-4 6 -11.5 10.5t-22.5 7.5v503q0 5 -18.5 14.5t-46.5 16.5t-57 7h-26v-586l167 14
q-64 -54 -109.5 -125.5t-71.5 -165.5q-40 76 -105.5 149t-147.5 134l170 15q-1 10 -8 17.5t-25 9.5v81q-1 51 -10 104.5t-32 106t-66.5 99.5t-113 85.5t-171.5 63.5l-5 -8q87 -45 137.5 -99.5t75.5 -114t32.5 -120.5t7.5 -118v-116q-61 43 -128 79t-138 61l-6 -11
q69 -44 133.5 -105.5t117.5 -131.5t89 -139.5t49 -130.5z" />
</svg>
