<?xml version="1.0" standalone="no"?>
<!DOCTYPE svg PUBLIC "-//W3C//DTD SVG 1.1//EN" "http://www.w3.org/Graphics/SVG/1.1/DTD/svg11.dtd" >
<svg xmlns="http://www.w3.org/2000/svg" xmlns:xlink="http://www.w3.org/1999/xlink" version="1.1" viewBox="-10 0 1010 1000">
   <path fill="currentColor"
d="M539 104q-47 105 -126 203t-178.5 177t-208.5 129l-7 -10q65 -53 127 -124.5t114 -152.5t87.5 -161.5t47.5 -149.5l212 52q-3 11 -14.5 16.5t-37.5 7.5q41 88 107 150.5t145.5 104.5t157.5 71l-2 15q-49 13 -79 54t-40 84q-112 -78 -192 -189t-113 -277zM235 610
q145 7 243 34t155 64.5t80 76.5t17.5 71t-32.5 47.5t-70 6.5q-37 -38 -85.5 -78.5t-102.5 -79.5t-108.5 -73t-103.5 -59zM418 350q85 8 134 31.5t68.5 53.5t16.5 59t-22.5 49t-50 22.5t-64.5 -20.5q-10 -52 -36 -102.5t-53 -87.5z" />
</svg>
