<?xml version="1.0" standalone="no"?>
<!DOCTYPE svg PUBLIC "-//W3C//DTD SVG 1.1//EN" "http://www.w3.org/Graphics/SVG/1.1/DTD/svg11.dtd" >
<svg xmlns="http://www.w3.org/2000/svg" xmlns:xlink="http://www.w3.org/1999/xlink" version="1.1" viewBox="-10 0 1010 1000">
   <path fill="currentColor"
d="M732 556l76 -96l14 10.5t35.5 27t45.5 35t43 35.5q-4 16 -29 16h-471l135 75q-9 17 -37 13q-32 24 -78.5 50.5t-100 51t-105.5 43.5q83 1 200 0.5t245 -1.5q-26 -39 -55.5 -75.5t-56.5 -67.5l9 -6q103 22 167 57.5t95.5 75.5t36.5 76.5t-10 62t-44 31.5t-66 -16
q-10 -26 -24.5 -53.5t-31.5 -54.5q-91 22 -219 47.5t-286 52.5q-14 19 -32 26l-59 -161l16.5 -3.5t26.5 -8.5q28 -11 60.5 -35.5t64 -55.5t58.5 -63.5t44 -60.5h-316l-8 -28h657zM564 390l66 -81l20.5 15t48.5 36.5t50 41.5q-3 16 -28 16h-460l-8 -28h311zM411 18l199 50
q-3 10 -14.5 16t-37.5 8q34 45 83.5 79.5t107.5 60.5t118 44.5t114 31.5l-1 16q-43 13 -70.5 52t-34.5 78q-72 -38 -137.5 -88.5t-116 -115.5t-79.5 -146q-37 58 -93.5 115.5t-126 109t-145 93.5t-150.5 71l-6 -11q64 -42 127 -99t117 -121.5t92.5 -127.5t53.5 -116z" />
</svg>
