<?xml version="1.0" standalone="no"?>
<!DOCTYPE svg PUBLIC "-//W3C//DTD SVG 1.1//EN" "http://www.w3.org/Graphics/SVG/1.1/DTD/svg11.dtd" >
<svg xmlns="http://www.w3.org/2000/svg" xmlns:xlink="http://www.w3.org/1999/xlink" version="1.1" viewBox="-10 0 1010 1000">
   <path fill="currentColor"
d="M248 307l62 23q-2 7 -9 12t-22 8v583q-1 5 -18.5 15t-44 18t-55.5 8h-27v-520q-28 28 -57 53t-61 48l-11 -7q40 -64 77.5 -149t68 -181.5t47.5 -193.5l192 57q-4 10 -14 16t-27 5q-44 115 -101 205zM576 705v-81q-27 5 -55.5 11t-58.5 11zM769 421l9 -5q72 22 111.5 52.5
t54 62.5t10 59.5t-23 44t-44.5 16t-53 -24.5q-1 -14 -2.5 -28.5t-5.5 -28.5q-24 6 -51.5 12t-57.5 13v240q0 42 -11 72t-45 47t-105 22q-1 -29 -4 -49.5t-12 -33.5q-8 -12 -22.5 -22t-46.5 -16v-12l18.5 1t40 2.5t30.5 1.5q11 0 14 -4.5t3 -11.5v-111q-10 7 -29 4
q-41 52 -103.5 107t-138.5 93l-9 -10q29 -37 54.5 -82.5t45.5 -92t32 -86.5l-25 5q-10 15 -25 22l-62 -134l17 -3t28 -7q46 -16 99.5 -47t105.5 -68q-34 11 -71.5 23t-78.5 23q-8 12 -20 18l-59 -130l13 -3t22 -7q37 -14 79 -44t81 -66.5t63 -67.5q-64 26 -140.5 49.5
t-153.5 39.5l-5 -10q54 -29 109.5 -68t103 -79.5t76.5 -73.5l153 94q-7 8 -22 11t-41 -1q-22 12 -48 24l134 74q-4 7 -13.5 10.5t-25.5 1.5q-29 19 -71 40.5t-89.5 41.5t-94.5 36q39 1 86 0.5t97 -0.5q38 -32 68.5 -62t49.5 -55l141 91q-4 7 -15 11t-28 0q-44 33 -113 70.5
t-148.5 73t-156.5 63.5q72 -1 168 -3.5t202 -6.5q-9 -32 -22 -62.5t-27 -55.5zM727 649l9 -5q81 22 127.5 54.5t66 68t16.5 66.5t-21 50.5t-46 20.5t-59 -24q-9 -59 -36.5 -120.5t-56.5 -110.5z" />
</svg>
