<?xml version="1.0" standalone="no"?>
<!DOCTYPE svg PUBLIC "-//W3C//DTD SVG 1.1//EN" "http://www.w3.org/Graphics/SVG/1.1/DTD/svg11.dtd" >
<svg xmlns="http://www.w3.org/2000/svg" xmlns:xlink="http://www.w3.org/1999/xlink" version="1.1" viewBox="-10 0 1010 1000">
   <path fill="currentColor"
d="M859 155h-716l-8 -28h540l76 -96l14 10.5t35.5 27t45 35t42.5 35.5q-4 16 -29 16zM939 636l3 160q28 12 36.5 26t8.5 36q0 29 -19 48.5t-65 29t-128 9.5h-88q-56 0 -86.5 -10.5t-42 -37t-11.5 -75.5v-415h-105q-6 99 -27.5 186.5t-67.5 161t-125 129.5t-200 91l-4 -9
q81 -51 132 -113.5t78.5 -133.5t38 -149.5t11.5 -162.5h-237l-8 -28h718l78 -102l14.5 11t36.5 28.5t46.5 37.5t44.5 37q-4 16 -30 16h-246v25v351q0 12 6 16.5t24 4.5h68h28.5t23.5 -1q10 0 15.5 -3t10.5 -13q11 -17 25.5 -57t32.5 -94h10z" />
</svg>
