<?xml version="1.0" standalone="no"?>
<!DOCTYPE svg PUBLIC "-//W3C//DTD SVG 1.1//EN" "http://www.w3.org/Graphics/SVG/1.1/DTD/svg11.dtd" >
<svg xmlns="http://www.w3.org/2000/svg" xmlns:xlink="http://www.w3.org/1999/xlink" version="1.1" viewBox="-10 0 1010 1000">
   <path fill="currentColor"
d="M930 671l3 136q27 11 35.5 24.5t8.5 34.5q0 28 -18.5 46.5t-66 28t-133.5 9.5h-97q-56 0 -86.5 -10t-41.5 -35.5t-11 -71.5v-294h-41q-13 113 -61 200t-142 146.5t-246 91.5l-4 -11q108 -49 170.5 -112.5t91 -142t34.5 -172.5h-38v30q0 5 -14 15.5t-40.5 19.5t-64.5 9
l-21 1v-537l131 41q27 -26 53.5 -53.5t42.5 -46.5l136 115q-21 17 -68 2q-29 5 -70.5 11t-84.5 11v164h25l57 -78l18 15t42 35.5t42 39.5q-3 16 -27 16h-157v162h419v-162h-154l-9 -28h163v-165h-170l-9 -28h169l64 -71l131 100q-4 6 -14 12.5t-26 9.5v390q0 4 -20.5 12
t-48 15t-52.5 7h-24v-64h-41v13v245q0 11 6 15.5t25 4.5h80h34.5t26.5 -1q18 -1 28 -15t23.5 -48t31.5 -82h10z" />
</svg>
