<?xml version="1.0" standalone="no"?>
<!DOCTYPE svg PUBLIC "-//W3C//DTD SVG 1.1//EN" "http://www.w3.org/Graphics/SVG/1.1/DTD/svg11.dtd" >
<svg xmlns="http://www.w3.org/2000/svg" xmlns:xlink="http://www.w3.org/1999/xlink" version="1.1" viewBox="-10 0 1010 1000">
   <path fill="currentColor"
d="M283 77l176 80q-3 8 -11.5 12.5t-26.5 3.5q-38 61 -93.5 123.5t-128 116t-163.5 89.5l-7 -9q64 -55 114.5 -127t86 -148t53.5 -141zM660 564l72 -67l121 101q-6 7 -15.5 12t-26.5 7q-13 132 -37 212t-68 109q-28 19 -63 27.5t-91 8.5q1 -29 -4 -52.5t-21 -39.5t-48 -29
t-73 -21l1 -10q29 2 63.5 4t63.5 3.5t41 1.5q23 0 35 -9q20 -14 34.5 -75t23.5 -155h-254l-63 72l-129 -85q20 -17 48 -27q19 -38 39.5 -84t31.5 -77h-71l-8 -28h287l69 -83l12.5 9t32 23.5t40.5 31t39 31.5q-4 16 -28 16h-215q-10 23 -24 54t-28.5 62t-27.5 57h241zM671 26
l105 69q-10 11 -35 18t-57 9q24 52 69 99t105 83t129 57l-1 13q-41 15 -72.5 51t-42.5 77q-82 -67 -135 -165.5t-76 -219.5h-141l-9 -28h124z" />
</svg>
