<?xml version="1.0" standalone="no"?>
<!DOCTYPE svg PUBLIC "-//W3C//DTD SVG 1.1//EN" "http://www.w3.org/Graphics/SVG/1.1/DTD/svg11.dtd" >
<svg xmlns="http://www.w3.org/2000/svg" xmlns:xlink="http://www.w3.org/1999/xlink" version="1.1" viewBox="-10 0 1010 1000">
   <path fill="currentColor"
d="M762 197l74 -92l13.5 10t35 26t44.5 34t42 34q-1 8 -9.5 12t-19.5 4h-464q-43 79 -96 141l44 15h250l62 -70l130 99q-4 6 -14 12.5t-26 9.5v389q0 44 -12 76t-49.5 50.5t-115.5 25.5q-3 -32 -8.5 -55.5t-18.5 -39.5q-13 -15 -33 -26.5t-62 -18.5v-12l16.5 1t40.5 2t46 2
t33 1q21 0 21 -19v-399h-282v177q0 48 -6.5 100.5t-28 104t-66 98t-119.5 83.5l-6 -7q37 -54 53.5 -117t20.5 -130t4 -132v-98q-50 40 -106 71t-117 57l-9 -9q84 -67 161 -164.5t132 -217.5h-265l-8 -28h285q37 -84 59 -175l194 54q-7 22 -42 22q-11 26 -22.5 51t-23.5 48
h268z" />
</svg>
