<?xml version="1.0" standalone="no"?>
<!DOCTYPE svg PUBLIC "-//W3C//DTD SVG 1.1//EN" "http://www.w3.org/Graphics/SVG/1.1/DTD/svg11.dtd" >
<svg xmlns="http://www.w3.org/2000/svg" xmlns:xlink="http://www.w3.org/1999/xlink" version="1.1" viewBox="-10 0 1010 1000">
   <path fill="currentColor"
d="M804 209l127 112q-7 7 -17.5 12.5t-28.5 8.5q-6 169 -16.5 285.5t-30 186t-51.5 98.5q-31 28 -70 41t-106 13q1 -35 -6 -61.5t-24 -42.5q-37 -37 -132 -56v-10q32 2 69 4t68.5 3.5t46.5 1.5q26 0 39 -13q28 -23 42.5 -148.5t21.5 -328.5h-215q-7 102 -30 196t-74 177.5
t-142 155.5t-235 130l-9 -13q99 -70 162 -145t99 -155.5t52.5 -167t21.5 -178.5h-286l-9 -28h297q2 -62 2 -127v-132l196 18q-1 12 -9.5 19t-27.5 9q-1 55 -2 108t-4 105h202z" />
</svg>
