<?xml version="1.0" standalone="no"?>
<!DOCTYPE svg PUBLIC "-//W3C//DTD SVG 1.1//EN" "http://www.w3.org/Graphics/SVG/1.1/DTD/svg11.dtd" >
<svg xmlns="http://www.w3.org/2000/svg" xmlns:xlink="http://www.w3.org/1999/xlink" version="1.1" viewBox="-10 0 1010 1000">
   <path fill="currentColor"
d="M288 377l8 -5q106 24 169.5 63.5t92 83.5t29.5 83.5t-19 66t-54 30.5t-75 -25q-19 -79 -61.5 -156.5t-89.5 -140.5zM852 149l126 114q-6 7 -17 13t-30 8q-13 270 -39 427.5t-79 205.5q-34 31 -74.5 45t-112.5 14q1 -35 -7 -61.5t-25 -42.5q-19 -18 -56.5 -33.5
t-87.5 -24.5l1 -11q36 2 76.5 5t75.5 4.5t52 1.5q15 0 24.5 -3.5t19.5 -10.5q23 -18 39 -90.5t27 -188.5t19 -264h-454q-60 97 -134 168.5t-163 124.5l-9 -8q45 -62 88 -145.5t78 -179.5t55 -195l203 66q-8 21 -42 20q-13 32 -28 62.5t-32 58.5h426z" />
</svg>
