<?xml version="1.0" standalone="no"?>
<!DOCTYPE svg PUBLIC "-//W3C//DTD SVG 1.1//EN" "http://www.w3.org/Graphics/SVG/1.1/DTD/svg11.dtd" >
<svg xmlns="http://www.w3.org/2000/svg" xmlns:xlink="http://www.w3.org/1999/xlink" version="1.1" viewBox="-10 0 1010 1000">
   <path fill="currentColor"
d="M444 232l176 43q-7 22 -39 23q-21 67 -48 123q75 13 117 40t58 58.5t11.5 59.5t-24 44.5t-48.5 12.5q11 8 29.5 22.5t40.5 31.5t41 33q11 -80 16 -212.5t8 -309.5h-455q-60 85 -131 149l133 13q-2 11 -10 18.5t-28 10.5v325h275l68 -84q-11 -3 -24 -11q-10 -43 -36.5 -87
t-59.5 -79q-40 70 -91.5 122t-116.5 89l-11 -8q57 -78 97.5 -189t51.5 -238zM844 96l120 109q-12 15 -47 21q-3 215 -9.5 358t-22.5 225t-46 114t-69.5 42.5t-103.5 10.5q0 -29 -6.5 -50t-22.5 -34q-18 -16 -51.5 -28.5t-78.5 -21.5v-12q31 2 66.5 5t65.5 4.5t46 1.5
q15 0 24 -4t17 -11q9 -8 16 -29.5t13 -54.5q-7 3 -18 3h-440l-41 59l-139 -68q7 -9 17.5 -18.5t20.5 -16.5v-316q-57 45 -121 80l-9 -8q40 -52 80.5 -122.5t76 -152.5t58.5 -166l187 74q-8 21 -42 18q-9 17 -18.5 33t-20.5 32h423z" />
</svg>
