<?xml version="1.0" standalone="no"?>
<!DOCTYPE svg PUBLIC "-//W3C//DTD SVG 1.1//EN" "http://www.w3.org/Graphics/SVG/1.1/DTD/svg11.dtd" >
<svg xmlns="http://www.w3.org/2000/svg" xmlns:xlink="http://www.w3.org/1999/xlink" version="1.1" viewBox="-10 0 1010 1000">
   <path fill="currentColor"
d="M764 881l76 -106l14 11.5t35.5 30t45 38.5t42.5 38q-4 16 -29 16h-709l-41 71l-144 -80q12 -16 32 -33v-806l159 58h502l66 -92l12.5 10t31 26t39.5 34t37 34q-4 16 -28 16h-674v734h533zM663 186l184 84q-4 9 -15 13.5t-29 1.5q-52 109 -116 192q60 55 89 105t33 90
t-11.5 65t-45 28.5t-67.5 -18.5q-20 -37 -46 -76t-55 -78q-67 64 -144.5 112t-166.5 85l-8 -9q65 -52 129 -122.5t119 -155.5q-53 -63 -109 -122t-109 -108l11 -8q83 30 150.5 62.5t120.5 66.5q26 -50 48 -101.5t38 -106.5z" />
</svg>
