<?xml version="1.0" standalone="no"?>
<!DOCTYPE svg PUBLIC "-//W3C//DTD SVG 1.1//EN" "http://www.w3.org/Graphics/SVG/1.1/DTD/svg11.dtd" >
<svg xmlns="http://www.w3.org/2000/svg" xmlns:xlink="http://www.w3.org/1999/xlink" version="1.1" viewBox="-10 0 1010 1000">
   <path fill="currentColor"
d="M748 448l84 -112l15 12t39 31t49.5 40.5t46.5 40.5q-4 16 -30 16h-373v456q0 4 -16 14.5t-45 19.5t-69 9h-30v-499h-380l-8 -28h388v-234q-79 5 -160 7t-158 0l-2 -13q83 -13 171.5 -33t173.5 -44t157 -50.5t122 -52.5l146 139q-10 7 -28.5 8t-47.5 -9
q-46 10 -100.5 18.5t-113.5 15.5v248h169z" />
</svg>
