<?xml version="1.0" standalone="no"?>
<!DOCTYPE svg PUBLIC "-//W3C//DTD SVG 1.1//EN" "http://www.w3.org/Graphics/SVG/1.1/DTD/svg11.dtd" >
<svg xmlns="http://www.w3.org/2000/svg" xmlns:xlink="http://www.w3.org/1999/xlink" version="1.1" viewBox="-10 0 1010 1000">
   <path fill="currentColor"
d="M634 468l10 -5q97 48 161 102.5t99 110t46 105t3 88t-31 59.5t-56 18.5t-71 -35.5q-6 -39 -16 -78t-23 -79q-97 31 -246 70t-343 83q-13 23 -32 32l-88 -185l11 -4t25.5 -11t22.5 -16q27 -30 63 -87.5t74.5 -133t74 -157.5t63.5 -161.5t41 -144.5l215 86q-4 10 -16 18
t-33 7q-32 71 -81.5 152.5t-108.5 163.5t-121.5 156t-121.5 130q67 -2 160.5 -5.5t204 -9t227.5 -11.5q-24 -68 -53 -132.5t-60 -125.5z" />
</svg>
