<?xml version="1.0" standalone="no"?>
<!DOCTYPE svg PUBLIC "-//W3C//DTD SVG 1.1//EN" "http://www.w3.org/Graphics/SVG/1.1/DTD/svg11.dtd" >
<svg xmlns="http://www.w3.org/2000/svg" xmlns:xlink="http://www.w3.org/1999/xlink" version="1.1" viewBox="-10 0 1010 1000">
   <path fill="currentColor"
d="M685 504h-239q23 56 57 100t77 78q67 -79 105 -178zM765 399l129 121q-6 9 -15.5 12.5t-29.5 5.5q-31 61 -70 114t-89 97q65 31 137 50.5t148 32.5l-1 12q-46 10 -77 43.5t-45 85.5q-77 -28 -142 -64.5t-117 -87.5q-181 112 -477 149l-4 -11q128 -35 232.5 -90
t181.5 -129q-31 -47 -55.5 -105.5t-41.5 -130.5h-7q-29 90 -78 173.5t-125 153.5t-188 120l-8 -9q93 -74 150.5 -168.5t88.5 -200t44 -213.5h-262l-8 -28h273q3 -29 5 -58.5t3 -58.5q-73 1 -137 -0.5t-114 -6.5l-2 -12q96 -16 212.5 -41.5t243.5 -59.5t252 -73l110 147
q-18 15 -50 0q-102 17 -215.5 28t-222.5 16l122 18q-1 9 -9 16t-28 9q-3 19 -6 37.5t-7 38.5h278l80 -102l14.5 11t37.5 28.5t48 37.5t45 37q-4 16 -30 16h-479q-6 29 -13 58t-16 58h249z" />
</svg>
