<?xml version="1.0" standalone="no"?>
<!DOCTYPE svg PUBLIC "-//W3C//DTD SVG 1.1//EN" "http://www.w3.org/Graphics/SVG/1.1/DTD/svg11.dtd" >
<svg xmlns="http://www.w3.org/2000/svg" xmlns:xlink="http://www.w3.org/1999/xlink" version="1.1" viewBox="-10 0 1010 1000">
   <path fill="currentColor"
d="M54 433h366v-197h-282l-8 -28h290v-174l187 15q-1 10 -8.5 17.5t-28.5 10.5v131h133l68 -89l12.5 10t32 25.5t41 33t38.5 32.5q-4 16 -28 16h-297v197h188l70 -91l13 10t32.5 26t41.5 33.5t40 33.5q-4 16 -29 16h-864zM773 913l71 -93l13.5 10t33.5 26t42.5 34.5
t40.5 34.5q-1 8 -9 12t-19 4h-911l-8 -28h393v-225h-300l-8 -28h308v-180l187 15q-1 10 -8.5 17.5t-28.5 11.5v136h147l70 -90l12.5 10t32 25.5t41 33.5t39.5 33q-4 16 -28 16h-314v225h203z" />
</svg>
