<?xml version="1.0" standalone="no"?>
<!DOCTYPE svg PUBLIC "-//W3C//DTD SVG 1.1//EN" "http://www.w3.org/Graphics/SVG/1.1/DTD/svg11.dtd" >
<svg xmlns="http://www.w3.org/2000/svg" xmlns:xlink="http://www.w3.org/1999/xlink" version="1.1" viewBox="-10 0 1010 1000">
   <path fill="currentColor"
d="M754 476l79 -110l14.5 12t36.5 30.5t46.5 40t43.5 39.5q-4 16 -30 16h-366v360h134l76 -109l13.5 12t35 30.5t44.5 39.5t41 39q-4 16 -29 16h-783l-8 -28h309v-360h-381l-8 -28h389v-323h-269l-8 -28h540l76 -109l13.5 12t35 30.5t44.5 39.5t41 39q-4 16 -29 16h-277v323
h176z" />
</svg>
