<?xml version="1.0" standalone="no"?>
<!DOCTYPE svg PUBLIC "-//W3C//DTD SVG 1.1//EN" "http://www.w3.org/Graphics/SVG/1.1/DTD/svg11.dtd" >
<svg xmlns="http://www.w3.org/2000/svg" xmlns:xlink="http://www.w3.org/1999/xlink" version="1.1" viewBox="-10 0 1010 1000">
   <path fill="currentColor"
d="M785 145l139 120q-7 9 -19 13t-34 6q-48 139 -117.5 252t-168 199t-232 145.5t-308.5 91.5l-6 -12q182 -74 312.5 -173.5t219 -231.5t142.5 -305h-273q-22 33 -46 66t-52 65q71 17 113 45.5t59 60t14.5 60t-19.5 47.5t-45 22t-61 -17q-15 -45 -42 -91.5t-57 -86.5
q-52 53 -114.5 99.5t-137.5 82.5l-7 -9q63 -57 114.5 -128t91.5 -148t69 -153t45 -142l189 74q-4 8 -12 13.5t-27 4.5q-13 26 -27 53t-31 54h254z" />
</svg>
