<?xml version="1.0" standalone="no"?>
<!DOCTYPE svg PUBLIC "-//W3C//DTD SVG 1.1//EN" "http://www.w3.org/Graphics/SVG/1.1/DTD/svg11.dtd" >
<svg xmlns="http://www.w3.org/2000/svg" xmlns:xlink="http://www.w3.org/1999/xlink" version="1.1" viewBox="-10 0 1010 1000">
   <path fill="currentColor"
d="M943 359h-390q17 91 66 177.5t137 158.5t223 122l-1 12q-111 23 -129 147q-79 -51 -133.5 -119t-89.5 -146.5t-55 -159t-30 -155.5q-12 90 -41 173t-85.5 156t-149.5 136.5t-233 114.5l-8 -13q102 -66 169.5 -136t107.5 -145.5t60.5 -156t27.5 -166.5h-348l-8 -28h358
q5 -71 5 -146.5v-154.5l199 18q-2 12 -10.5 19t-26.5 10q-1 66 -3 129.5t-7 124.5h193l83 -105l15 11.5t38.5 29.5t49 38t46.5 38q-4 16 -30 16z" />
</svg>
