<?xml version="1.0" standalone="no"?>
<!DOCTYPE svg PUBLIC "-//W3C//DTD SVG 1.1//EN" "http://www.w3.org/Graphics/SVG/1.1/DTD/svg11.dtd" >
<svg xmlns="http://www.w3.org/2000/svg" xmlns:xlink="http://www.w3.org/1999/xlink" version="1.1" viewBox="-10 0 1010 1000">
   <path fill="currentColor"
d="M941 464h-392q19 73 69.5 141.5t139.5 124.5t222 95l-1 12q-53 11 -83.5 44t-38.5 94q-77 -41 -132 -95.5t-92 -117.5t-59 -129t-34 -128q-15 79 -47 147.5t-89.5 127t-148 107t-223.5 87.5l-7 -14q100 -51 167 -106.5t107.5 -117t61.5 -129.5t29 -143h-328l-8 -28h338
q5 -61 5.5 -127t0.5 -138h-279l-8 -28h287v-1h164v1h126l79 -99l14.5 11t36.5 28t46.5 36t44.5 36q-4 16 -30 16h-317q-1 72 -3 138t-9 127h198l79 -101l14.5 11t37 28.5t47.5 37t45 36.5q-4 16 -30 16z" />
</svg>
