<?xml version="1.0" standalone="no"?>
<!DOCTYPE svg PUBLIC "-//W3C//DTD SVG 1.1//EN" "http://www.w3.org/Graphics/SVG/1.1/DTD/svg11.dtd" >
<svg xmlns="http://www.w3.org/2000/svg" xmlns:xlink="http://www.w3.org/1999/xlink" version="1.1" viewBox="-10 0 1010 1000">
   <path fill="currentColor"
d="M938 509h-381q30 100 131.5 176.5t295.5 117.5v13q-56 12 -87.5 46t-37.5 99q-79 -34 -135 -83t-92 -107.5t-57 -122t-32 -126.5q-15 79 -48 146.5t-91.5 123t-150 101t-224.5 81.5l-7 -13q124 -61 198.5 -129.5t114 -148.5t54.5 -174h-337l-8 -28h349q6 -48 8.5 -100.5
t3.5 -108.5h-296l-8 -28h304q0 -48 -0.5 -100t-0.5 -107l200 17q-3 24 -38 30q-1 42 -1 82t-1 78h124l78 -98l14.5 10.5t36.5 27.5t46.5 36t44.5 36q-2 8 -10 12t-19 4h-315q-1 57 -4 109t-10 100h193l80 -100l14.5 11t37.5 28t47.5 36.5t45.5 36.5q-4 16 -30 16z" />
</svg>
