<?xml version="1.0" standalone="no"?>
<!DOCTYPE svg PUBLIC "-//W3C//DTD SVG 1.1//EN" "http://www.w3.org/Graphics/SVG/1.1/DTD/svg11.dtd" >
<svg xmlns="http://www.w3.org/2000/svg" xmlns:xlink="http://www.w3.org/1999/xlink" version="1.1" viewBox="-10 0 1017 1000">
   <path fill="currentColor"
d="M571 624l9 -7q121 29 198 71t117 88t50 88t-3 70.5t-43 36.5t-69 -14q-26 -58 -69 -118t-92.5 -115.5t-97.5 -99.5zM680 256h-112q-1 82 -5 155t-16 136h133v-291zM296 547h104q11 -64 14.5 -136.5t2.5 -154.5h-121v291zM827 530l56 -92l12 12t30.5 31t37.5 39.5t34 38.5
q-3 16 -27 16h-428q-17 73 -50.5 134t-91.5 111t-146 89.5t-214 69.5l-7 -14q116 -50 188.5 -108.5t113.5 -128t59 -153.5h-362l-8 -28h130v-376l156 57h107q0 -47 -0.5 -97t-0.5 -103l191 17q-3 25 -38 29q-1 40 -1 78.5v75.5h102l67 -70l129 97q-10 15 -39 21v254z" />
</svg>
