<?xml version="1.0" standalone="no"?>
<!DOCTYPE svg PUBLIC "-//W3C//DTD SVG 1.1//EN" "http://www.w3.org/Graphics/SVG/1.1/DTD/svg11.dtd" >
<svg xmlns="http://www.w3.org/2000/svg" xmlns:xlink="http://www.w3.org/1999/xlink" version="1.1" viewBox="-10 0 1010 1000">
   <path fill="currentColor"
d="M682 537l64 -77l19.5 14.5t47 35t49.5 39.5q-4 16 -28 16h-409q-8 19 -19 45t-21 49h234l71 -65l122 100q-11 14 -40 18q-11 99 -31.5 154.5t-59.5 79.5q-26 16 -61 21t-88 5q0 -27 -4.5 -45.5t-18.5 -32.5q-15 -15 -42 -26t-64 -18v-10q25 2 54.5 3.5t55 2.5t35.5 1
q23 0 33 -7q14 -10 26 -50t19 -103h-247l-51 59l-134 -76q14 -13 39 -26q9 -19 17.5 -41t13.5 -38h-156l-8 -28h582zM931 214h-313q39 42 98 73t129 50.5t139 27.5l-2 11q-41 12 -70.5 49t-41.5 94q-106 -44 -169 -118.5t-101 -186.5h-107q-39 61 -84.5 107.5t-95.5 82.5
h221l60 -80l18.5 15.5t43.5 36.5t45 40q-4 16 -27 16h-354l-8 -28q-63 45 -134.5 75.5t-151.5 53.5l-7 -9q86 -52 164.5 -130t135.5 -180h-272l-8 -28h295q41 -79 65 -170l198 66q-7 21 -42 20q-10 22 -21.5 43t-22.5 41h236l76 -100l14 11t35.5 28t45.5 36.5t43 36.5
q-4 16 -30 16z" />
</svg>
