<?xml version="1.0" standalone="no"?>
<!DOCTYPE svg PUBLIC "-//W3C//DTD SVG 1.1//EN" "http://www.w3.org/Graphics/SVG/1.1/DTD/svg11.dtd" >
<svg xmlns="http://www.w3.org/2000/svg" xmlns:xlink="http://www.w3.org/1999/xlink" version="1.1" viewBox="-10 0 1010 1000">
   <path fill="currentColor"
d="M656 257l180 39q-6 23 -39 24q-8 26 -18 49.5t-21 45.5q67 10 106 32t54 49.5t11.5 53.5t-21 43.5t-44 20t-57.5 -17.5q-8 -38 -28 -75.5t-43 -68.5q-49 74 -119 119q48 90 134.5 153.5t224.5 103.5l-1 12q-105 22 -121 135q-113 -54 -178.5 -137.5t-97 -192.5
t-44.5 -238q-8 91 -35 177t-82 161.5t-148.5 134.5t-234.5 95l-5 -9q102 -53 168 -116t105.5 -134t58.5 -147q-19 11 -44.5 10t-51.5 -22q-2 -41 -15 -78q-37 58 -86 98.5t-108 68.5l-11 -8q55 -68 92 -164.5t45 -211.5l177 43q-7 22 -39 23q-17 51 -36 92q37 9 60.5 22.5
t35.5 30.5q6 -47 8 -95t2 -96v-47h-341l-8 -28h349v-179l187 18q-2 10 -9.5 17.5t-27.5 10.5v133h195l79 -101l14.5 11t37 28.5t47.5 37t45 36.5q-4 16 -30 16h-388v34q6 76 20 142.5t39 122.5q25 -59 40.5 -130t16.5 -147z" />
</svg>
