<?xml version="1.0" standalone="no"?>
<!DOCTYPE svg PUBLIC "-//W3C//DTD SVG 1.1//EN" "http://www.w3.org/Graphics/SVG/1.1/DTD/svg11.dtd" >
<svg xmlns="http://www.w3.org/2000/svg" xmlns:xlink="http://www.w3.org/1999/xlink" version="1.1" viewBox="-10 0 1010 1000">
   <path fill="currentColor"
d="M433 26l187 15q-1 10 -8 18t-29 11v521q0 11 -21 29t-51.5 32.5t-59.5 14.5h-18v-641zM668 187q104 24 167.5 62t93.5 80.5t33.5 81t-14 64.5t-48.5 30.5t-69 -20.5q-15 -51 -42.5 -103.5t-61 -101t-67.5 -87.5zM213 169l181 73q-3 7 -11 12.5t-28 5.5q-31 63 -76 133
t-106 135t-140 114l-8 -8q36 -49 66.5 -108.5t54.5 -122.5t41 -123t26 -111zM700 461l177 89q-11 17 -48 13q-73 116 -155.5 192t-176 121t-200.5 67.5t-231 32.5l-3 -13q103 -28 197 -66t175.5 -95t148.5 -140t116 -201z" />
</svg>
