<?xml version="1.0" standalone="no"?>
<!DOCTYPE svg PUBLIC "-//W3C//DTD SVG 1.1//EN" "http://www.w3.org/Graphics/SVG/1.1/DTD/svg11.dtd" >
<svg xmlns="http://www.w3.org/2000/svg" xmlns:xlink="http://www.w3.org/1999/xlink" version="1.1" viewBox="-10 0 1010 1000">
   <path fill="currentColor"
d="M339 139v217v27.5t-1 28.5h350v-273h-349zM688 440h-190q21 78 74.5 148t147.5 127t235 96l-1 13q-55 10 -86.5 44.5t-39.5 96.5q-90 -45 -151.5 -106.5t-100.5 -132t-61 -144t-33 -142.5h-145q-3 69 -17 142t-47 143.5t-92 133.5t-152 113l-8 -7q58 -67 92.5 -141.5
t52 -153t23 -158t5.5 -155.5v-302l166 56h318l63 -70l131 99q-4 6 -13.5 12.5t-25.5 9.5v312q0 4 -20.5 12t-48 14.5t-51.5 6.5h-25v-67z" />
</svg>
