<?xml version="1.0" standalone="no"?>
<!DOCTYPE svg PUBLIC "-//W3C//DTD SVG 1.1//EN" "http://www.w3.org/Graphics/SVG/1.1/DTD/svg11.dtd" >
<svg xmlns="http://www.w3.org/2000/svg" xmlns:xlink="http://www.w3.org/1999/xlink" version="1.1" viewBox="-10 0 1010 1000">
   <path fill="currentColor"
d="M716 658h-292v207h292v-207zM723 124h-445v156h445v-156zM769 465l71 -99l13 11t33 28t41.5 36t39.5 36q-4 16 -29 16h-292v137h60l63 -69l129 98q-4 6 -14 12t-26 10v245q0 4 -19.5 13t-46.5 16.5t-51 7.5h-25v-70h-292v31q0 6 -17.5 16.5t-44.5 18.5t-55 8h-20v-392
l145 55h72v-137h-231q-6 84 -28.5 171.5t-72.5 168t-139 144.5l-8 -6q50 -94 72 -200.5t28 -215.5t6 -209v-316l168 66h414l63 -70l133 100q-4 6 -13.5 12t-25.5 9v189q-1 3 -21.5 10.5t-48.5 13.5t-51 6h-26v-58h-445v38q0 28 -0.5 57.5t-2.5 61.5h229v-142l175 14
q-1 10 -7.5 16.5t-25.5 9.5v102h123z" />
</svg>
