<?xml version="1.0" standalone="no"?>
<!DOCTYPE svg PUBLIC "-//W3C//DTD SVG 1.1//EN" "http://www.w3.org/Graphics/SVG/1.1/DTD/svg11.dtd" >
<svg xmlns="http://www.w3.org/2000/svg" xmlns:xlink="http://www.w3.org/1999/xlink" version="1.1" viewBox="-10 0 1010 1000">
   <path fill="currentColor"
d="M719 646h-345v206h345v-206zM866 110v244q0 2 -13 9q8 6 30.5 23.5t49 39t47.5 40.5q-4 16 -29 16h-460q-41 71 -109 134l6 2h321l66 -72l136 102q-4 6 -13.5 12t-25.5 10v261q-1 3 -22.5 11t-50.5 14.5t-54 6.5h-26v-83h-345v51q0 5 -14 15t-40.5 18.5t-64.5 8.5h-28
v-242q-48 28 -100 51.5t-106 41.5l-5 -9q62 -42 117 -97t97 -116t63 -120h-257l-8 -28h750l68 -89q-17 7 -44.5 12t-56.5 5h-24v-53h-435l-42 60l-143 -69q16 -19 38 -35v-209l179 17q-1 11 -9 18.5t-28 10.5v179h149v-276l180 14q-1 10 -8.5 17.5t-27.5 10.5v234h147v-234
l182 15q-1 10 -8.5 17.5t-28.5 10.5z" />
</svg>
