<?xml version="1.0" standalone="no"?>
<!DOCTYPE svg PUBLIC "-//W3C//DTD SVG 1.1//EN" "http://www.w3.org/Graphics/SVG/1.1/DTD/svg11.dtd" >
<svg xmlns="http://www.w3.org/2000/svg" xmlns:xlink="http://www.w3.org/1999/xlink" version="1.1" viewBox="-10 0 1010 1000">
   <path fill="currentColor"
d="M590 26l166 122q-13 15 -46 7q-133 78 -265.5 126t-275.5 73l-3 -12q121 -54 224.5 -133t199.5 -183zM639 274l175 115q-13 16 -46 9q-133 100 -269 153.5t-293 78.5l-4 -12q131 -56 238.5 -138.5t198.5 -205.5zM726 542l178 111q-12 16 -49 10q-108 107 -221 169
t-237 92.5t-268 41.5l-2 -13q121 -35 229.5 -86t201.5 -129.5t168 -195.5z" />
</svg>
