<?xml version="1.0" standalone="no"?>
<!DOCTYPE svg PUBLIC "-//W3C//DTD SVG 1.1//EN" "http://www.w3.org/Graphics/SVG/1.1/DTD/svg11.dtd" >
<svg xmlns="http://www.w3.org/2000/svg" xmlns:xlink="http://www.w3.org/1999/xlink" version="1.1" viewBox="-10 0 1010 1000">
   <path fill="currentColor"
d="M599 18l156 113q-4 6 -13.5 9t-26.5 -1q-62 51 -148 100.5t-189.5 89.5t-218.5 63l-6 -11q93 -46 179.5 -108t155.5 -129t111 -126zM682 218l157 117q-4 7 -14 10t-27 -2q-43 38 -96.5 77t-115.5 76l43 16q-6 16 -32 20v412q-1 4 -20 11.5t-46.5 13t-54.5 5.5h-28v-406
q-72 33 -151 60.5t-164 46.5l-6 -11q87 -42 170 -96t156 -114t131.5 -120.5t97.5 -115.5z" />
</svg>
