<?xml version="1.0" standalone="no"?>
<!DOCTYPE svg PUBLIC "-//W3C//DTD SVG 1.1//EN" "http://www.w3.org/Graphics/SVG/1.1/DTD/svg11.dtd" >
<svg xmlns="http://www.w3.org/2000/svg" xmlns:xlink="http://www.w3.org/1999/xlink" version="1.1" viewBox="-10 0 1010 1000">
   <path fill="currentColor"
d="M223 26l177 17q-1 10 -8.5 18t-28.5 11v865q0 5 -17 14.5t-42.5 16.5t-52.5 7h-28v-949zM155 232h12q41 102 31.5 174.5t-44.5 109.5q-17 17 -40.5 21t-45 -5t-33.5 -31q-13 -29 -2 -55.5t36 -43.5q19 -14 38.5 -40t33 -60t14.5 -70zM389 214q65 29 98.5 64t43 69
t0.5 61.5t-29.5 42.5t-46.5 12t-51 -31q8 -55 0 -111.5t-25 -102.5z" />
</svg>
