<?xml version="1.0" standalone="no"?>
<!DOCTYPE svg PUBLIC "-//W3C//DTD SVG 1.1//EN" "http://www.w3.org/Graphics/SVG/1.1/DTD/svg11.dtd" >
<svg xmlns="http://www.w3.org/2000/svg" xmlns:xlink="http://www.w3.org/1999/xlink" version="1.1" viewBox="-10 0 1010 1000">
   <path fill="currentColor"
d="M408 49l8 -5q81 22 126 54.5t61.5 68t11 66.5t-26.5 49.5t-50.5 18.5t-61.5 -28q-1 -59 -21 -118.5t-47 -105.5zM172 358l10 -1q42 79 53 143t0 112t-36 78q-18 22 -44 28t-50 -3.5t-38 -31.5q-18 -32 -8.5 -61t36.5 -49q19 -17 38 -49.5t30.5 -75.5t8.5 -90zM767 633
l4 135q32 13 43.5 27.5t11.5 34.5q0 32 -23 53t-80 31t-160 10h-116q-57 0 -93 -8t-54 -29.5t-23 -62.5q-52 30 -111 56t-124 48l-8 -11q68 -36 128.5 -78.5t113.5 -89.5v-532l181 17q-1 10 -8.5 17.5t-25.5 9.5v332q97 -122 160 -253t98 -255l186 65q-4 9 -13 14.5t-29 4.5
q-38 98 -93 196.5t-131 190.5t-178 171v24q0 17 10 23.5t38 6.5h108h45.5t34.5 -1q25 -2 38 -16q11 -14 26.5 -48.5t33.5 -82.5h10zM750 387l9 -5q87 32 134.5 74t64.5 85.5t10 79.5t-30.5 57.5t-56.5 20t-68 -35.5q2 -71 -16 -143t-47 -133z" />
</svg>
