<?xml version="1.0" standalone="no"?>
<!DOCTYPE svg PUBLIC "-//W3C//DTD SVG 1.1//EN" "http://www.w3.org/Graphics/SVG/1.1/DTD/svg11.dtd" >
<svg xmlns="http://www.w3.org/2000/svg" xmlns:xlink="http://www.w3.org/1999/xlink" version="1.1" viewBox="-10 0 1010 1000">
   <path fill="currentColor"
d="M530 53l6 -6q85 -5 136.5 10.5t76 41.5t26.5 54.5t-13.5 51t-43.5 29.5t-63 -10q-17 -48 -53 -94.5t-72 -76.5zM951 643l-31 178q29 31 41 51.5t12 34.5t-8 27q-16 26 -44.5 35t-62.5 6t-68 -14.5t-63 -26.5q-60 -33 -108.5 -70.5t-87.5 -80.5q-95 58 -213 102.5
t-261 68.5l-6 -12q126 -43 231 -103t189 -131q-54 -79 -85 -169t-46 -188l-304 23l-10 -27l310 -23q-10 -71 -13.5 -145t-3.5 -150l190 17q-1 10 -8 18t-26 11q-1 61 1.5 120.5t9.5 116.5l255 -19l73 -109l15.5 10t39 26t50 34t47.5 34q-1 16 -27 18l-449 34
q11 70 33.5 135.5t59.5 123.5q103 -118 160 -247l164 89q-4 7 -13.5 11t-28.5 1q-39 63 -90 123.5t-116 114.5q59 56 140 97q16 8 26.5 8.5t20.5 -12.5q11 -14 28 -38.5t35 -53t32 -52.5z" />
</svg>
