<?xml version="1.0" standalone="no"?>
<!DOCTYPE svg PUBLIC "-//W3C//DTD SVG 1.1//EN" "http://www.w3.org/Graphics/SVG/1.1/DTD/svg11.dtd" >
<svg xmlns="http://www.w3.org/2000/svg" xmlns:xlink="http://www.w3.org/1999/xlink" version="1.1" viewBox="-10 0 1010 1000">
   <path fill="currentColor"
d="M518 290h-159v152q42 -10 85.5 -20.5t86.5 -21.5l3 11q-32 22 -75.5 50t-99.5 60v295q0 47 -11.5 80t-48.5 52t-113 26q-2 -34 -7 -58.5t-17 -40.5q-13 -16 -31.5 -27.5t-58.5 -18.5v-13l16 1t38.5 2.5t43 2.5t28.5 1q21 0 21 -17v-208q-43 22 -93 48q-8 22 -28 29
l-73 -159q30 -5 80.5 -16t113.5 -25v-185h-161l-8 -28h169v-234l176 16q-2 23 -36 29v185l66 -94l12.5 11t31.5 27.5t40 35.5t37 36q-3 16 -28 16z" />
</svg>
