<?xml version="1.0" standalone="no"?>
<!DOCTYPE svg PUBLIC "-//W3C//DTD SVG 1.1//EN" "http://www.w3.org/Graphics/SVG/1.1/DTD/svg11.dtd" >
<svg xmlns="http://www.w3.org/2000/svg" xmlns:xlink="http://www.w3.org/1999/xlink" version="1.1" viewBox="-10 0 1010 1000">
   <path fill="currentColor"
d="M377 33l6 -5q88 4 138.5 26t72 52.5t19 60.5t-22.5 51t-51 24.5t-66 -20.5q-9 -52 -36 -103t-60 -86zM637 286h-372q33 118 95 205.5t144 150.5q57 -79 89 -168.5t44 -187.5zM935 286h-123q-22 124 -71.5 230.5t-132.5 192.5q83 45 177 75t193 50l-3 12q-55 8 -92.5 41.5
t-57.5 88.5q-93 -32 -173.5 -75.5t-147.5 -103.5q-88 62 -205 106.5t-268 70.5l-4 -10q134 -45 234.5 -105.5t172.5 -133.5q-66 -80 -113 -188t-73 -251h-203l-8 -28h703l81 -110l14.5 12t37.5 30.5t47.5 40t43.5 39.5q-4 16 -29 16z" />
</svg>
