<?xml version="1.0" standalone="no"?>
<!DOCTYPE svg PUBLIC "-//W3C//DTD SVG 1.1//EN" "http://www.w3.org/Graphics/SVG/1.1/DTD/svg11.dtd" >
<svg xmlns="http://www.w3.org/2000/svg" xmlns:xlink="http://www.w3.org/1999/xlink" version="1.1" viewBox="-10 0 1010 1000">
   <path fill="currentColor"
d="M293 439h137q14 -76 16.5 -154.5t3.5 -158.5h-108q-5 38 -13.5 94.5t-17.5 115t-18 103.5zM925 670l3 127q27 11 35.5 24t8.5 33q0 28 -19.5 47t-64.5 28.5t-124 9.5h-89q-55 0 -83.5 -9.5t-39 -34.5t-10.5 -71v-266q-34 82 -95.5 157t-162.5 140t-252 119l-8 -14
q130 -76 211 -156.5t125.5 -164.5t63.5 -172h-129l-48 63l-136 -70q13 -15 30 -26q7 -32 14.5 -73.5t13.5 -85.5t11 -83t7 -66h-93l-8 -28h591l77 -88l14 9.5t36.5 24.5t47 32.5t45.5 33.5q-4 16 -30 16h-259q-2 82 -7.5 160.5t-22.5 152.5h157l82 -100l15 11t38 28
t48.5 36.5t46.5 36.5q-4 16 -30 16h-363q-2 9 -5 18t-5 18l152 12q-3 21 -32 26v246q0 10 5.5 14.5t22.5 4.5h72h31.5t23.5 -1q17 0 27 -13q9 -14 22 -46t29 -76h10z" />
</svg>
