<?xml version="1.0" standalone="no"?>
<!DOCTYPE svg PUBLIC "-//W3C//DTD SVG 1.1//EN" "http://www.w3.org/Graphics/SVG/1.1/DTD/svg11.dtd" >
<svg xmlns="http://www.w3.org/2000/svg" xmlns:xlink="http://www.w3.org/1999/xlink" version="1.1" viewBox="-10 0 1010 1000">
   <path fill="currentColor"
d="M893 458h-306q40 75 102 135t137 102t153 65l-3 11q-40 10 -70.5 43t-44.5 85q-114 -66 -183.5 -174.5t-108.5 -265.5v466q0 7 -18.5 19t-46 21.5t-55.5 9.5h-28v-349q-142 180 -390 282l-8 -10q76 -54 138.5 -126.5t109.5 -153.5t75 -160h-253l-8 -28h336v-176h-379
l-8 -28h387v-200l185 18q-1 10 -8.5 17.5t-28.5 10.5v154h173l79 -99l14.5 11t37 28t47.5 36t45 36q-4 16 -30 16h-366v176h135l78 -97l14 10.5t36 27.5t46 35.5t44 35.5q-4 16 -29 16z" />
</svg>
