<?xml version="1.0" standalone="no"?>
<!DOCTYPE svg PUBLIC "-//W3C//DTD SVG 1.1//EN" "http://www.w3.org/Graphics/SVG/1.1/DTD/svg11.dtd" >
<svg xmlns="http://www.w3.org/2000/svg" xmlns:xlink="http://www.w3.org/1999/xlink" version="1.1" viewBox="-10 0 1010 1000">
   <path fill="currentColor"
d="M919 286h-333q41 90 104 163t138.5 127t152.5 87l-3 11q-43 9 -77 43t-51 87q-109 -82 -175.5 -209t-104.5 -304v411l64 -96l12.5 11t31.5 29t39.5 37.5t36.5 36.5q-4 16 -28 16h-156v196q0 6 -17.5 15.5t-45 17t-58.5 7.5h-28v-236h-172l-8 -28h180v-207
q-67 101 -164.5 183t-225.5 142l-9 -8q79 -66 141.5 -153.5t107.5 -185t69 -193.5h-269l-8 -28h358v-235l194 19q-1 13 -10 21.5t-35 12.5v182h159l79 -109l14.5 12t36.5 30.5t46 39.5t43 39q-4 16 -29 16z" />
</svg>
