<?xml version="1.0" standalone="no"?>
<!DOCTYPE svg PUBLIC "-//W3C//DTD SVG 1.1//EN" "http://www.w3.org/Graphics/SVG/1.1/DTD/svg11.dtd" >
<svg xmlns="http://www.w3.org/2000/svg" xmlns:xlink="http://www.w3.org/1999/xlink" version="1.1" viewBox="-10 0 1010 1000">
   <path fill="currentColor"
d="M610 61l7 -6q70 1 110.5 17t57 39.5t14 47t-18.5 40.5t-41 19.5t-54 -15.5q-6 -39 -28 -78t-47 -64zM38 925l-9 -12q67 -56 102.5 -117t49.5 -128.5t16 -141t3 -154.5l178 14q-1 11 -9 18t-25 9q-3 64 -8 124t-20.5 114.5t-47.5 104t-87.5 92t-142.5 77.5zM929 297h-364
v627q0 7 -18.5 19t-45.5 21.5t-55 9.5h-28v-677h-352l-8 -28h360v-244l184 18q-1 10 -8.5 17.5t-28.5 10.5v198h201l68 -84l12.5 9t32 24t40.5 31.5t39 31.5q-4 16 -29 16zM933 735l6 2q24 12 33.5 25t9.5 33q0 40 -38 61.5t-126 21.5h-60q-48 0 -71.5 -10.5t-31.5 -35.5
t-8 -69v-393l174 14q-1 10 -8 17t-24 10v315q0 9 3.5 13t13.5 4h31h29q5 -1 14.5 -1.5t13.5 -1.5q7 -1 15.5 -2.5t14.5 -2.5h9z" />
</svg>
