<?xml version="1.0" standalone="no"?>
<!DOCTYPE svg PUBLIC "-//W3C//DTD SVG 1.1//EN" "http://www.w3.org/Graphics/SVG/1.1/DTD/svg11.dtd" >
<svg xmlns="http://www.w3.org/2000/svg" xmlns:xlink="http://www.w3.org/1999/xlink" version="1.1" viewBox="-10 0 1010 1000">
   <path fill="currentColor"
d="M765 260h-425q-55 100 -125.5 172.5t-158.5 125.5l-10 -7q46 -64 87.5 -148.5t73.5 -182t48 -199.5l198 57q-3 10 -13 16t-28 5q-25 70 -57 133h403l78 -77l131 126q-10 11 -41 14q-25 31 -61.5 67.5t-76 71t-75.5 60.5l-6 -5q11 -33 22 -73t20.5 -81t15.5 -75zM575 363
l-1 4q13 109 56.5 194.5t128.5 146.5t220 98v12q-116 26 -132 157q-74 -38 -124.5 -95t-82 -127.5t-49 -151t-25.5 -165.5q-9 65 -26.5 127t-51 120t-91 111t-147 98.5t-218.5 83.5l-8 -13q107 -60 178 -122t113 -126.5t63.5 -132t29.5 -138.5t10 -146l197 41
q-2 10 -11.5 17t-28.5 7z" />
</svg>
