<?xml version='1.0' encoding='ASCII' standalone='yes'?>
<svg xmlns="http://www.w3.org/2000/svg" xmlns:xlink="http://www.w3.org/1999/xlink" version="1.1" viewBox="0 0 1010 1000" height="1000" width="1010">
   <g><g transform="translate(1010, 0) scale(1)  scale(-1.000000 1.000000)"><path fill="currentColor" d="M742 890l83 -105l15 11.5t38.5 29.5t49 38t46.5 38q-4 16 -30 16h-911l-8 -28h139v-530l193 16q-1 10 -8.5 17.5t-28.5 11.5v485h122v-731h-352l-8 -28h624l81 -103l14.5 11.5t37.5 29t48 37.5t46 37q-4 16 -29 16h-304v325h83l78 -101l14.5 11t36.5 28.5t46 37t44 36.5 q-4 16 -30 16h-272v378h142z"/>
</g></g></svg>
