<?xml version="1.0" standalone="no"?>
<!DOCTYPE svg PUBLIC "-//W3C//DTD SVG 1.1//EN" "http://www.w3.org/Graphics/SVG/1.1/DTD/svg11.dtd" >
<svg xmlns="http://www.w3.org/2000/svg" xmlns:xlink="http://www.w3.org/1999/xlink" version="1.1" viewBox="-10 0 1010 1000">
   <path fill="currentColor"
d="M485 421h-213v358q53 -14 114.5 -31.5t122.5 -36.5l3 10q-43 34 -120 92t-181 124q-7 14 -15.5 24t-17.5 16l-101 -151q35 -22 45 -35t10 -33v-719l181 17q-2 13 -10.5 20.5t-30.5 11.5v305h43l72 -115l13.5 12.5t33.5 32.5t41.5 42t37.5 40q-1 8 -9 12t-19 4zM926 645
l5 151q28 13 38 27t10 33q0 30 -20 50t-67 30t-129 10h-87q-55 0 -87 -10.5t-45.5 -38.5t-13.5 -79v-773l178 19q-1 10 -8.5 17.5t-27.5 10.5v301h65l72 -115l13 12.5t33.5 32.5t42 42t37.5 40q-4 16 -28 16h-235v353q0 17 9 24t29 7h68q16 0 30 -0.5t23 -1.5q9 0 16.5 -3
t14.5 -11q11 -16 25.5 -56t28.5 -88h10z" />
</svg>
