<?xml version="1.0" standalone="no"?>
<!DOCTYPE svg PUBLIC "-//W3C//DTD SVG 1.1//EN" "http://www.w3.org/Graphics/SVG/1.1/DTD/svg11.dtd" >
<svg xmlns="http://www.w3.org/2000/svg" xmlns:xlink="http://www.w3.org/1999/xlink" version="1.1" viewBox="-10 0 1010 1000">
   <path fill="currentColor"
d="M39 462l-3 -12q116 -38 223.5 -90.5t198.5 -113.5q-75 -35 -159.5 -66t-176.5 -56l3 -11q137 6 245.5 21t190.5 36q92 -75 145 -148l181 103q-6 10 -21.5 14t-44.5 -1q-24 21 -51 41t-56 40q81 34 122 71.5t51.5 70.5t-2 56.5t-41 30.5t-63.5 -8q-35 -30 -89 -66
t-124 -73q-113 55 -247 96t-282 65zM639 421l187 86q-4 8 -13 12.5t-28 3.5q-33 61 -76.5 117.5t-99.5 105.5q87 32 182.5 51t190.5 29l-1 13q-51 11 -82.5 46.5t-45.5 90.5q-100 -25 -189 -61t-163 -89q-90 55 -207 93t-266 54l-4 -12q125 -36 222 -89t171 -118
q-54 -55 -95.5 -125t-70.5 -158l11 -8q35 73 92 128.5t128 96.5q55 -61 93.5 -128.5t63.5 -138.5z" />
</svg>
