<?xml version="1.0" standalone="no"?>
<!DOCTYPE svg PUBLIC "-//W3C//DTD SVG 1.1//EN" "http://www.w3.org/Graphics/SVG/1.1/DTD/svg11.dtd" >
<svg xmlns="http://www.w3.org/2000/svg" xmlns:xlink="http://www.w3.org/1999/xlink" version="1.1" viewBox="-10 0 1010 1000">
   <path fill="currentColor"
d="M740 891l83 -105l15 11.5t38.5 29.5t49 38t46.5 38q-4 16 -30 16h-897l-8 -28h375v-388h-271l-8 -28h279v-316h-308l-8 -28h605l81 -103l15 11.5t38 29t48 37.5t46 37q-4 16 -30 16h-327v316h96l78 -98l14 10.5t36 27.5t46 36t44 36q-4 16 -29 16h-285v388h168zM618 549
l7 -5q88 11 138 38t70 60t16 64t-24.5 52t-52 22.5t-66.5 -24.5q-6 -56 -31 -111.5t-57 -95.5z" />
</svg>
