<?xml version="1.0" standalone="no"?>
<!DOCTYPE svg PUBLIC "-//W3C//DTD SVG 1.1//EN" "http://www.w3.org/Graphics/SVG/1.1/DTD/svg11.dtd" >
<svg xmlns="http://www.w3.org/2000/svg" xmlns:xlink="http://www.w3.org/1999/xlink" version="1.1" viewBox="-10 0 1010 1000">
   <path fill="currentColor"
d="M740 895l83 -105l15 11.5t38.5 29.5t49 38t46.5 38q-4 16 -30 16h-897l-8 -28h380v-379h-298l-8 -28h306v-334h-333l-8 -28h624l81 -103l14.5 11.5t37.5 29t48 37.5t46 37q-4 16 -29 16h-321v334h97l78 -98l14 10.5t36 27.5t46 36t44 36q-4 16 -29 16h-286v379h163z" />
</svg>
