<?xml version="1.0" standalone="no"?>
<!DOCTYPE svg PUBLIC "-//W3C//DTD SVG 1.1//EN" "http://www.w3.org/Graphics/SVG/1.1/DTD/svg11.dtd" >
<svg xmlns="http://www.w3.org/2000/svg" xmlns:xlink="http://www.w3.org/1999/xlink" version="1.1" viewBox="-10 0 1010 1000">
   <path fill="currentColor"
d="M742 893l83 -105l15 11.5t38.5 29.5t49 38t46.5 38q-4 16 -30 16h-911l-8 -28h391v-306h-261l-8 -28h269v-257h-152q-49 81 -109 143t-131 108l-10 -7q36 -60 69 -138.5t59 -168t39 -179.5l202 58q-7 22 -41 22q-14 36 -29.5 69.5t-32.5 64.5h136v-242l197 18
q-1 11 -8.5 18.5t-28.5 10.5v195h122l79 -97l14 10t36.5 26.5t47 35.5t45.5 37q-4 16 -30 16h-314v257h92l80 -100l14.5 11t37.5 28t48 36.5t46 36.5q-4 16 -29 16h-289v306h166z" />
</svg>
