<?xml version="1.0" standalone="no"?>
<!DOCTYPE svg PUBLIC "-//W3C//DTD SVG 1.1//EN" "http://www.w3.org/Graphics/SVG/1.1/DTD/svg11.dtd" >
<svg xmlns="http://www.w3.org/2000/svg" xmlns:xlink="http://www.w3.org/1999/xlink" version="1.1" viewBox="-10 0 1010 1000">
   <path fill="currentColor"
d="M569 850h180v-273h-180v273zM245 577v273h176v-273h-176zM421 294h-176v255h176v-255zM749 294h-180v255h180v-255zM806 187l140 110q-6 8 -18 15.5t-31 11.5v604q-1 5 -21 14.5t-48.5 17.5t-55.5 8h-23v-90h-504v46q0 8 -18 20.5t-45.5 21.5t-58.5 9h-23v-770l155 61
h166v-231l185 17q-1 11 -8.5 18.5t-28.5 10.5v185h168z" />
</svg>
