<?xml version="1.0" standalone="no"?>
<!DOCTYPE svg PUBLIC "-//W3C//DTD SVG 1.1//EN" "http://www.w3.org/Graphics/SVG/1.1/DTD/svg11.dtd" >
<svg xmlns="http://www.w3.org/2000/svg" xmlns:xlink="http://www.w3.org/1999/xlink" version="1.1" viewBox="-10 0 1010 1000">
   <path fill="currentColor"
d="M938 423h-352q41 76 105 135.5t141.5 101t156.5 63.5l-3 12q-44 10 -77 47t-48 94q-118 -68 -186.5 -179t-106.5 -274v515q-1 7 -32 23t-88 16h-28v-373q-144 187 -395 297l-8 -9q77 -59 141 -137t113 -164t79 -168h-305l-8 -28h383v-181q-81 7 -163.5 10t-161.5 2
l-2 -13q84 -14 174.5 -35t176.5 -46.5t160 -53t126 -53.5l146 137q-10 8 -28.5 8.5t-47.5 -9.5q-49 11 -108 21t-124 18v195h177l79 -99l14.5 11t37 28t47.5 36t45 36q-4 16 -30 16z" />
</svg>
