<?xml version="1.0" standalone="no"?>
<!DOCTYPE svg PUBLIC "-//W3C//DTD SVG 1.1//EN" "http://www.w3.org/Graphics/SVG/1.1/DTD/svg11.dtd" >
<svg xmlns="http://www.w3.org/2000/svg" xmlns:xlink="http://www.w3.org/1999/xlink" version="1.1" viewBox="-10 0 1010 1000">
   <path fill="currentColor"
d="M102 34l8 -6q79 6 125 27t65.5 49t18.5 55.5t-18 47t-44.5 22.5t-58.5 -17q-10 -48 -37.5 -96.5t-58.5 -81.5zM336 444l110 87q-7 12 -37 15q-28 55 -78.5 109.5t-114.5 96.5q3 1 12 6q38 26 94 41t138 20.5t197 5.5q86 0 162.5 -1.5t162.5 -6.5v11q-43 10 -67.5 45.5
t-29.5 76.5h-278q-84 0 -144 -9t-104 -27.5t-78 -47t-65 -67.5q-22 -31 -36 2q-11 24 -25.5 61t-29.5 78q3 13 -10 20l-92 -137q25 -11 53.5 -26t54.5 -28.5t42 -19.5q33 -45 60 -103t41 -111h-54l-38 37l-102 -68q8 -5 18 -11t21 -10q22 -34 47 -79.5t42 -80.5h-158l-9 -28
h171l54 -55l108 98q-7 8 -22 12t-35 5q-16 31 -41 74t-46 78h41z" />
</svg>
