<?xml version="1.0" standalone="no"?>
<!DOCTYPE svg PUBLIC "-//W3C//DTD SVG 1.1//EN" "http://www.w3.org/Graphics/SVG/1.1/DTD/svg11.dtd" >
<svg xmlns="http://www.w3.org/2000/svg" xmlns:xlink="http://www.w3.org/1999/xlink" version="1.1" viewBox="-10 0 1010 1000">
   <path fill="currentColor"
d="M39 975l-3 -10q65 -27 127.5 -66.5t113.5 -83t81 -81.5l161 100q-7 9 -22.5 12.5t-41.5 -1.5q-48 30 -114 55.5t-143.5 44.5t-158.5 30zM534 783l3 -11q131 3 213 19.5t124 40.5t52.5 50t-2 48t-38 34t-56.5 9.5t-58 -26.5q-28 -37 -85.5 -83.5t-152.5 -80.5zM658 266
h-308v121h308v-121zM350 691h308v-125h-308v125zM350 415v123h308v-123h-308zM744 111l74 -87l13.5 9.5t35 24.5t45 32.5t43.5 32.5q-4 16 -29 16h-330q-29 27 -62.5 53t-66.5 46h181l65 -71l129 100q-4 6 -14 12t-25 10v428q0 5 -19.5 15.5t-47.5 19t-54 8.5h-24v-41h-308
v10q0 7 -18 18.5t-46 20.5t-59 9h-22v-598l153 59h62q1 -22 1.5 -48t0.5 -51h-369l-8 -28h699z" />
</svg>
