<?xml version="1.0" standalone="no"?>
<!DOCTYPE svg PUBLIC "-//W3C//DTD SVG 1.1//EN" "http://www.w3.org/Graphics/SVG/1.1/DTD/svg11.dtd" >
<svg xmlns="http://www.w3.org/2000/svg" xmlns:xlink="http://www.w3.org/1999/xlink" version="1.1" viewBox="-10 0 1010 1000">
   <path fill="currentColor"
d="M693 273l-9 -9q17 -33 34 -74t31 -81t21 -68l147 89q-4 7 -12.5 11t-26.5 2q-36 31 -84.5 66.5t-100.5 63.5zM80 62l8 -5q79 12 124.5 37.5t64 56t15.5 59t-21.5 47.5t-46 20.5t-58.5 -21.5q-7 -52 -31.5 -104t-54.5 -90zM427 587v-76h-157v316q15 -44 27.5 -96.5
t21 -103t11.5 -87.5zM233 465l46 18h148v-168h-133l110 73q-4 7 -12.5 10t-25.5 -1q-27 18 -60.5 35.5t-72.5 32.5zM664 330l4 -12q93 -2 153.5 12t95 37t46.5 48.5t6.5 47.5t-23 35t-43.5 10l6 4q-4 6 -14 12.5t-26 9.5v298q0 42 -11.5 72t-47 48t-109.5 24
q-2 -32 -6.5 -54t-15.5 -36q-10 -14 -26.5 -25t-53.5 -17v-13l13.5 1t32.5 2t37 2t27 1q11 0 15 -5t4 -13v-308h-161v55l10 -4q72 35 106 75t39.5 76.5t-8.5 61t-40 28t-53 -22.5q-1 -53 -17.5 -109.5t-36.5 -102.5v351q-1 5 -30.5 19t-83.5 14h-26v-322q-26 48 -63 105
t-84 104l-10 -8v97q0 7 -17.5 17.5t-45 19t-56.5 8.5h-21v-473q-25 7 -50 12.5t-51 10.5l-8 -12q47 -25 92.5 -58t84.5 -69t65 -69h-224l-8 -28h304v-259l165 13q-1 10 -7.5 16.5t-24.5 9.5v220h57v-259l167 13q-1 10 -7.5 16.5t-25.5 9.5v220h108l72 -87l13.5 9.5t34 24.5
t43 32.5t41.5 32.5q-1 8 -9 12t-19 4h-376v168h151l61 -69l80 60q-31 -33 -81.5 -72.5t-113.5 -71.5z" />
</svg>
