<?xml version="1.0" standalone="no"?>
<!DOCTYPE svg PUBLIC "-//W3C//DTD SVG 1.1//EN" "http://www.w3.org/Graphics/SVG/1.1/DTD/svg11.dtd" >
<svg xmlns="http://www.w3.org/2000/svg" xmlns:xlink="http://www.w3.org/1999/xlink" version="1.1" viewBox="-10 0 1010 1000">
   <path fill="currentColor"
d="M87 94q88 31 139.5 72t73 83.5t19 79t-21.5 59t-49 23.5t-64 -27q-7 -74 -37.5 -149.5t-68.5 -135.5zM345 32q86 33 135 75.5t68 86t15 80.5t-24.5 59t-51 22t-64.5 -30q-3 -74 -28 -150t-59 -138zM767 56l191 93q-4 7 -12 12.5t-28 4.5q-40 59 -95 126t-124.5 130
t-151.5 112l-7 -8q38 -50 73 -111.5t64.5 -125.5t52.5 -124.5t37 -108.5z" />
</svg>
