<?xml version="1.0" standalone="no"?>
<!DOCTYPE svg PUBLIC "-//W3C//DTD SVG 1.1//EN" "http://www.w3.org/Graphics/SVG/1.1/DTD/svg11.dtd" >
<svg xmlns="http://www.w3.org/2000/svg" xmlns:xlink="http://www.w3.org/1999/xlink" version="1.1" viewBox="-10 0 1010 1000">
   <path fill="currentColor"
d="M776 255l111 60q-20 59 -50 123.5t-67 129t-77 123.5q32 20 60 40.5t48 40.5l-100 140q-28 -30 -71 -62.5t-94 -64.5t-105.5 -61.5t-104.5 -51.5l89 -122q69 28 142 64q34 -50 64 -103.5t52 -104.5h-258q-43 83 -94 158t-110 131q-17 -13 -42 -28t-51 -29t-47 -23
q56 -49 104 -114t87 -138t68 -146.5t47 -140.5l161 36q-12 37 -26 74t-30 75h267z" />
</svg>
