<?xml version="1.0" standalone="no"?>
<!DOCTYPE svg PUBLIC "-//W3C//DTD SVG 1.1//EN" "http://www.w3.org/Graphics/SVG/1.1/DTD/svg11.dtd" >
<svg xmlns="http://www.w3.org/2000/svg" xmlns:xlink="http://www.w3.org/1999/xlink" version="1.1" viewBox="-10 0 1010 1000">
   <path fill="currentColor"
d="M459 756q0 26 23 36.5t54 10.5q37 0 52.5 -20t15.5 -61v-7q-34 -9 -68 -9t-55.5 13t-21.5 37zM754 102q-3 14 -4.5 32t-2.5 35q-1 14 -1.5 38.5t-1.5 55.5q38 -4 75 -9.5t71 -12.5v150q-34 5 -71 9t-75 7q1 68 4 123t6 99q64 26 111 61.5t80 67.5l-81 127
q-28 -26 -54.5 -48.5t-52.5 -41.5q-10 70 -59 111t-147 41q-106 0 -170 -44.5t-64 -129.5q0 -56 29 -97.5t81 -64t121 -22.5q13 0 25.5 0.5t25.5 1.5q-2 -40 -4 -85t-3 -92q-14 1 -28.5 1h-28.5q-89 0 -178 -6l-1 -144q87 9 178 9h28.5t28.5 -1q-1 -35 -1 -62t-1 -40
q0 -11 -2.5 -32t-5.5 -37h173zM269 115q-4 11 -10 32t-11 41t-7 29q-4 16 -9.5 50t-12 78.5t-12 91.5t-9 88.5t-3.5 69.5v11t1 12q9 -22 18 -38.5t19 -38.5l74 58q-15 45 -29.5 91.5t-26 87.5t-17.5 70q-2 10 -4 24.5t-2 22.5v20.5t1 25.5l-136 9q-16 -51 -28.5 -135
t-12.5 -186q0 -57 4.5 -118.5t11 -118.5t13 -103.5t10.5 -74.5q3 -23 6.5 -54t4.5 -59zM833 58q14 31 28 68.5t21 66.5l-80 26q-10 -33 -21.5 -69.5t-26.5 -67.5zM938 25q14 31 28.5 69t22.5 66l-79 25q-10 -32 -23 -68t-28 -67z" />
</svg>
