<?xml version="1.0" standalone="no"?>
<!DOCTYPE svg PUBLIC "-//W3C//DTD SVG 1.1//EN" "http://www.w3.org/Graphics/SVG/1.1/DTD/svg11.dtd" >
<svg xmlns="http://www.w3.org/2000/svg" xmlns:xlink="http://www.w3.org/1999/xlink" version="1.1" viewBox="-10 0 1010 1000">
   <path fill="currentColor"
d="M354 385l125 -60q30 45 60 95.5t56.5 98.5t44.5 86l-132 72q-15 -39 -41 -89.5t-55.5 -104t-57.5 -98.5zM286 758l427 -15v-496h-427v511zM168 100h708v835h-163v-50q-130 6 -220 10t-148.5 6.5t-94.5 4.5t-57.5 5t-36.5 8q-9 -18 -26 -44t-35 -51t-31 -39q14 -11 30 -31
t27 -45t11 -50v-558h36v-1z" />
</svg>
