<?xml version="1.0" standalone="no"?>
<!DOCTYPE svg PUBLIC "-//W3C//DTD SVG 1.1//EN" "http://www.w3.org/Graphics/SVG/1.1/DTD/svg11.dtd" >
<svg xmlns="http://www.w3.org/2000/svg" xmlns:xlink="http://www.w3.org/1999/xlink" version="1.1" viewBox="-10 0 1010 1000">
   <path fill="currentColor"
d="M929 796l-130 131q-42 -65 -108 -141t-144 -156q-77 91 -164.5 166.5t-183.5 134.5q-11 -17 -31.5 -40.5t-42.5 -47t-39 -38.5q100 -53 188 -125t163 -160q-72 -71 -145.5 -138.5t-141.5 -126.5l109 -102q63 53 134 113.5t143 124.5q50 -73 91 -153.5t75 -166.5l151 46
q-83 206 -203 379q85 79 158 156t121 144z" />
</svg>
