<?xml version="1.0" standalone="no"?>
<!DOCTYPE svg PUBLIC "-//W3C//DTD SVG 1.1//EN" "http://www.w3.org/Graphics/SVG/1.1/DTD/svg11.dtd" >
<svg xmlns="http://www.w3.org/2000/svg" xmlns:xlink="http://www.w3.org/1999/xlink" version="1.1" viewBox="-10 0 1010 1000">
   <path fill="currentColor"
d="M961 207h-548q-12 57 -25.5 116.5t-26.5 114.5h505l-1 11.5t-2 26.5t-3 25q-13 128 -28.5 212.5t-33.5 133.5t-42 73q-27 28 -56 38.5t-70 14.5q-31 3 -78 3t-98 -1q-1 -32 -15.5 -73.5t-35.5 -71.5q50 4 98.5 5.5t71.5 1.5q17 0 29.5 -2.5t23.5 -11.5q21 -16 39 -78.5
t31 -175.5h-533q15 -48 31.5 -108.5t32 -126t27.5 -127.5h-212v-131h919v131z" />
</svg>
