<?xml version="1.0" standalone="no"?>
<!DOCTYPE svg PUBLIC "-//W3C//DTD SVG 1.1//EN" "http://www.w3.org/Graphics/SVG/1.1/DTD/svg11.dtd" >
<svg xmlns="http://www.w3.org/2000/svg" xmlns:xlink="http://www.w3.org/1999/xlink" version="1.1" viewBox="-10 0 1010 1000">
   <path fill="currentColor"
d="M944 232h-520q-1 35 -3 70l-4 70h452l-0.5 11.5t-1 26.5t-1.5 24q-7 150 -16 245.5t-22 148t-33 76.5q-25 29 -53 40.5t-65 16.5q-31 4 -78.5 4t-96.5 -1q-2 -31 -16.5 -72t-35.5 -71q50 4 95.5 5t68.5 1q16 0 27 -2.5t21 -11.5q18 -17 30 -89.5t19 -211.5h-311
q-15 90 -47 173.5t-89 156.5t-148 130q-16 -30 -46 -64t-59 -56q93 -53 144.5 -123.5t75 -152t30 -169t9.5 -175.5h-213v-142h887v142z" />
</svg>
