<?xml version="1.0" standalone="no"?>
<!DOCTYPE svg PUBLIC "-//W3C//DTD SVG 1.1//EN" "http://www.w3.org/Graphics/SVG/1.1/DTD/svg11.dtd" >
<svg xmlns="http://www.w3.org/2000/svg" xmlns:xlink="http://www.w3.org/1999/xlink" version="1.1" viewBox="-10 0 1010 1000">
   <path fill="currentColor"
d="M949 339h-270q-8 115 -34 212.5t-85 174.5q76 42 174.5 68t222.5 38q-15 16 -32 41.5t-32 51.5t-24 47q-268 -34 -424 -137q-58 40 -136.5 72t-180.5 56q-7 -20 -20.5 -43.5t-30.5 -46.5t-33 -39q92 -20 161.5 -45.5t120.5 -56.5q-58 -65 -101 -148.5t-77 -187.5l139 -33
q24 82 60 149.5t88 120.5q43 -59 61.5 -132t23.5 -162h-467v-142h472q1 -37 1 -75.5v-79.5h161q0 40 -0.5 78.5t-1.5 76.5h264v142z" />
</svg>
