<?xml version="1.0" standalone="no"?>
<!DOCTYPE svg PUBLIC "-//W3C//DTD SVG 1.1//EN" "http://www.w3.org/Graphics/SVG/1.1/DTD/svg11.dtd" >
<svg xmlns="http://www.w3.org/2000/svg" xmlns:xlink="http://www.w3.org/1999/xlink" version="1.1" viewBox="-10 0 1010 1000">
   <path fill="currentColor"
d="M945 224h-374v84h319v135h-319v90h364l-1 11.5t-2.5 25.5t-3.5 24q-14 143 -34.5 219t-55.5 108q-30 28 -65 38.5t-87 12.5q-37 2 -95.5 1.5t-121.5 -1.5q-2 -32 -19.5 -72.5t-41.5 -69.5q46 3 93.5 5t87.5 2.5t62 0.5q20 0 35 -1.5t28 -8.5q18 -12 31 -51t23 -104h-649
v-383h146v243h149v-309h-356v-139h887v139z" />
</svg>
