<?xml version="1.0" standalone="no"?>
<!DOCTYPE svg PUBLIC "-//W3C//DTD SVG 1.1//EN" "http://www.w3.org/Graphics/SVG/1.1/DTD/svg11.dtd" >
<svg xmlns="http://www.w3.org/2000/svg" xmlns:xlink="http://www.w3.org/1999/xlink" version="1.1" viewBox="-10 0 1010 1000">
   <path fill="currentColor"
d="M707 429h218l-0.5 12t-0.5 26.5t-1 24.5q-5 125 -12 205.5t-19 127t-32 68.5q-26 30 -57 41.5t-71 15.5q-32 4 -82 4.5t-103 -0.5q-2 -35 -19.5 -79t-41.5 -76q55 4 106 5.5t77 1.5q17 0 28.5 -2.5t21.5 -10.5q30 -24 40 -224h-264q25 -71 52 -163t51 -186h-239v41
q0 55 -4 126t-16.5 150t-37.5 158.5t-67 152t-105 131.5q-12 -18 -32.5 -42t-42.5 -46.5t-40 -35.5q54 -49 89.5 -109t56.5 -126t31.5 -131t13.5 -124.5t3 -105.5v-39h-134v-142h715q-18 85 -39.5 176.5t-42.5 174.5z" />
</svg>
