<?xml version="1.0" standalone="no"?>
<!DOCTYPE svg PUBLIC "-//W3C//DTD SVG 1.1//EN" "http://www.w3.org/Graphics/SVG/1.1/DTD/svg11.dtd" >
<svg xmlns="http://www.w3.org/2000/svg" xmlns:xlink="http://www.w3.org/1999/xlink" version="1.1" viewBox="-10 0 1010 1000">
   <path fill="currentColor"
d="M627 164l107 48q-37 149 -99 274q50 115 139 209t210 145q-17 15 -37.5 38t-38.5 48t-30 46q-109 -55 -191 -140.5t-141 -194.5q-82 116 -185 201t-221 137q-11 -19 -31 -44.5t-42 -49.5t-41 -37q177 -69 310 -201t201 -325h-182q-44 82 -96.5 152t-111.5 122
q-13 -15 -37 -36t-49.5 -41.5t-44.5 -32.5q67 -49 121.5 -120t96 -157t67.5 -180l160 37q-8 28 -17.5 55t-20.5 54h177z" />
</svg>
