<?xml version="1.0" standalone="no"?>
<!DOCTYPE svg PUBLIC "-//W3C//DTD SVG 1.1//EN" "http://www.w3.org/Graphics/SVG/1.1/DTD/svg11.dtd" >
<svg xmlns="http://www.w3.org/2000/svg" xmlns:xlink="http://www.w3.org/1999/xlink" version="1.1" viewBox="-10 0 1010 1000">
   <path fill="currentColor"
d="M627 812h149q25 0 38.5 -9.5t19.5 -36.5t10 -78q26 18 67 34.5t73 23.5q-9 78 -29.5 123.5t-59.5 65t-105 19.5h-180q-78 0 -121.5 -18t-60.5 -62.5t-17 -123.5v-185h-371v-139h371v-178q-71 8 -142 13.5t-139 10.5q-2 -30 -14.5 -69t-23.5 -65q131 -9 263 -24
t253.5 -36.5t219.5 -47.5l80 135q-79 20 -166 36t-179 29v196h400v139h-400v184q0 28 4 41.5t18 17.5t42 4z" />
</svg>
