<?xml version="1.0" standalone="no"?>
<!DOCTYPE svg PUBLIC "-//W3C//DTD SVG 1.1//EN" "http://www.w3.org/Graphics/SVG/1.1/DTD/svg11.dtd" >
<svg xmlns="http://www.w3.org/2000/svg" xmlns:xlink="http://www.w3.org/1999/xlink" version="1.1" viewBox="-10 0 1010 1000">
   <path fill="currentColor"
d="M407 27l153 56q-50 82 -115.5 166t-140 160t-152.5 134q-14 -16 -34.5 -36t-42 -38.5t-39.5 -31.5q57 -38 111.5 -87t104 -104.5t89 -111.5t66.5 -107zM973 881l-143 76q-13 -38 -35 -88q-151 12 -255 20t-171.5 12.5t-108.5 8t-65 7.5t-41 10q-5 -15 -15.5 -41.5
t-22.5 -54.5t-23 -49q32 -8 62.5 -29t80.5 -63q28 -22 76.5 -69.5t107.5 -114.5t121 -146.5t117 -166.5l152 75q-101 148 -212 268.5t-219 216.5l347 -22q-22 -40 -44.5 -78t-45.5 -72l133 -65q40 57 79 122.5t72 128.5t53 114z" />
</svg>
