<?xml version="1.0" standalone="no"?>
<!DOCTYPE svg PUBLIC "-//W3C//DTD SVG 1.1//EN" "http://www.w3.org/Graphics/SVG/1.1/DTD/svg11.dtd" >
<svg xmlns="http://www.w3.org/2000/svg" xmlns:xlink="http://www.w3.org/1999/xlink" version="1.1" viewBox="-10 0 1010 1000">
   <path fill="currentColor"
d="M130 290l124 -46q26 44 50.5 97.5t34.5 93.5l-133 53q-5 -27 -17 -61t-27.5 -70t-31.5 -67zM961 488v150h-370v163q0 63 -16.5 95.5t-57.5 49.5t-99 22t-133 5q-4 -22 -14 -49.5t-22.5 -54.5t-24.5 -47q34 2 70.5 3t65.5 1h41q32 0 32 -27v-161h-391v-150h391v-266
q-76 6 -152.5 9t-149.5 5q-2 -29 -13 -67.5t-22 -64.5q128 -5 257.5 -15t249.5 -26t216 -38l71 134q-68 16 -143.5 27.5t-155.5 20.5v281h370zM785 482l-121 -44q23 -45 46.5 -105.5t36.5 -112.5l158 49q-31 59 -62.5 116t-57.5 97z" />
</svg>
