<?xml version="1.0" standalone="no"?>
<!DOCTYPE svg PUBLIC "-//W3C//DTD SVG 1.1//EN" "http://www.w3.org/Graphics/SVG/1.1/DTD/svg11.dtd" >
<svg xmlns="http://www.w3.org/2000/svg" xmlns:xlink="http://www.w3.org/1999/xlink" version="1.1" viewBox="-10 0 1010 1000">
   <path fill="currentColor"
d="M354 777h368q30 0 50 -15t31 -61t14 -138q32 16 73 31t75 23q-7 95 -25 156t-49.5 95t-78 47.5t-110.5 13.5h-336q-148 0 -218 -55t-70 -147q0 -27 6 -55t27.5 -63t66 -84t121 -117t193.5 -162h-396v-152h618l34 -7l104 76q-4 4 -10.5 9t-14.5 10q-139 102 -237 178
t-163 130t-103.5 91t-57 61.5t-24 41t-5.5 29.5q0 34 29.5 49t87.5 15z" />
</svg>
