<?xml version="1.0" standalone="no"?>
<!DOCTYPE svg PUBLIC "-//W3C//DTD SVG 1.1//EN" "http://www.w3.org/Graphics/SVG/1.1/DTD/svg11.dtd" >
<svg xmlns="http://www.w3.org/2000/svg" xmlns:xlink="http://www.w3.org/1999/xlink" version="1.1" viewBox="-10 0 1010 1000">
   <path fill="currentColor"
d="M452 814h256q41 0 62 -11t31.5 -42.5t16.5 -92.5q26 16 65.5 32t69.5 22q-10 83 -33 131.5t-69.5 69.5t-128.5 21h-275q-92 0 -144 -18t-72.5 -64.5t-20.5 -131.5v-216l-154 49l-38 -134l192 -60v-304h142v260l340 -106l40 -26l108 35l-6 21q-5 72 -13 154t-19 161.5
t-26 143.5l-118 -33q11 -59 19.5 -143t12.5 -170l-338 107v262q0 37 6.5 54.5t28 23t65.5 5.5z" />
</svg>
