<?xml version="1.0" standalone="no"?>
<!DOCTYPE svg PUBLIC "-//W3C//DTD SVG 1.1//EN" "http://www.w3.org/Graphics/SVG/1.1/DTD/svg11.dtd" >
<svg xmlns="http://www.w3.org/2000/svg" xmlns:xlink="http://www.w3.org/1999/xlink" version="1.1" viewBox="-10 0 1010 1000">
   <path fill="currentColor"
d="M851 160l115 38q-28 82 -67.5 160.5t-80.5 135.5l-129 -54q35 -54 68 -130h-163v484q0 58 -13.5 91t-51.5 50q-37 17 -89.5 22t-120.5 4q-4 -32 -19 -76.5t-31 -75.5q29 1 59 2t54.5 1h34.5q26 0 26 -21v-481h-153q-32 54 -66.5 101.5t-69.5 84.5q-15 -14 -39.5 -32
t-50 -35.5t-44.5 -27.5q49 -44 93.5 -104.5t81 -131t60.5 -142.5l154 41q-10 25 -20.5 51t-22.5 52h459z" />
</svg>
