<?xml version="1.0" standalone="no"?>
<!DOCTYPE svg PUBLIC "-//W3C//DTD SVG 1.1//EN" "http://www.w3.org/Graphics/SVG/1.1/DTD/svg11.dtd" >
<svg xmlns="http://www.w3.org/2000/svg" xmlns:xlink="http://www.w3.org/1999/xlink" version="1.1" viewBox="-10 0 1010 1000">
   <path fill="currentColor"
d="M854 83v150h-694v-150h694zM957 513h-455q-40 66 -85.5 128t-91.5 115l340 -17q-20 -30 -39.5 -59.5t-38.5 -56.5l135 -70q41 55 83.5 117t80 121t62.5 106l-143 87q-10 -23 -23.5 -49.5t-30.5 -54.5q-144 10 -243.5 17t-164.5 12.5t-105 10t-64.5 9t-42.5 11.5
q-4 -17 -14 -46.5t-21.5 -61t-21.5 -54.5q24 -7 42 -22t43 -42q13 -13 34.5 -42.5t48 -70.5t52.5 -88h-251v-151h914v151z" />
</svg>
