<?xml version="1.0" standalone="no"?>
<!DOCTYPE svg PUBLIC "-//W3C//DTD SVG 1.1//EN" "http://www.w3.org/Graphics/SVG/1.1/DTD/svg11.dtd" >
<svg xmlns="http://www.w3.org/2000/svg" xmlns:xlink="http://www.w3.org/1999/xlink" version="1.1" viewBox="-10 0 1010 1000">
   <path fill="currentColor"
d="M751 801h209v133h-919v-133h556q14 -88 27 -195.5t23 -214.5h-262l-3 15q35 11 76 27t79.5 32.5t64.5 30.5l-72 107q-28 -18 -77 -41.5t-96 -42.5l-13 55q34 12 74.5 29t78 35t61.5 34l-67 107q-28 -20 -77.5 -45.5t-97.5 -47.5q-5 22 -10.5 42.5t-10.5 40.5l-147 -23
q20 -72 41 -161.5t41 -186.5t35 -190h-198v-134h869v134h-513l-12 57h398q-7 89 -16.5 184.5t-20 186.5t-21.5 165z" />
</svg>
