<?xml version="1.0" standalone="no"?>
<!DOCTYPE svg PUBLIC "-//W3C//DTD SVG 1.1//EN" "http://www.w3.org/Graphics/SVG/1.1/DTD/svg11.dtd" >
<svg xmlns="http://www.w3.org/2000/svg" xmlns:xlink="http://www.w3.org/1999/xlink" version="1.1" viewBox="-10 0 1010 1000">
   <path fill="currentColor"
d="M248 208v171q0 65 -4 143t-14.5 159.5t-31.5 157.5t-54 137q-14 -12 -37.5 -26.5t-48.5 -27.5t-44 -19q31 -55 48.5 -121.5t26 -137.5t11 -139t2.5 -126v-311h851v140h-705zM522 230h154q-3 58 -7.5 118t-14.5 120q39 130 117 230t205 149q-15 14 -33.5 35.5t-34.5 44
t-26 41.5q-100 -46 -169.5 -120.5t-117.5 -172.5q-37 85 -102 160t-169 133q-16 -28 -43.5 -60.5t-56.5 -54.5q86 -43 140.5 -98.5t85.5 -119.5t45 -132.5t19 -137.5t8 -135z" />
</svg>
