<?xml version="1.0" standalone="no"?>
<!DOCTYPE svg PUBLIC "-//W3C//DTD SVG 1.1//EN" "http://www.w3.org/Graphics/SVG/1.1/DTD/svg11.dtd" >
<svg xmlns="http://www.w3.org/2000/svg" xmlns:xlink="http://www.w3.org/1999/xlink" version="1.1" viewBox="-10 0 1010 1000">
   <path fill="currentColor"
d="M760 496l25 -7l116 54q-46 67 -101 142.5t-113 150.5t-113 144l-153 -70q53 -62 109.5 -131.5t105.5 -133.5h-485v-149h609zM392 329h241q-32 -27 -63 -55t-60 -57q-28 30 -57.5 58t-60.5 54zM472 11l146 69l-21 30q49 46 113 91t134.5 84.5t136.5 67.5q-19 16 -41 40
t-41.5 49t-32.5 46q-87 -48 -175 -114v92h-352v-95q-49 37 -101.5 70t-105.5 61q-18 -32 -49.5 -70.5t-63.5 -66.5q87 -37 172.5 -89t158.5 -119t122 -146z" />
</svg>
