<?xml version="1.0" standalone="no"?>
<!DOCTYPE svg PUBLIC "-//W3C//DTD SVG 1.1//EN" "http://www.w3.org/Graphics/SVG/1.1/DTD/svg11.dtd" >
<svg xmlns="http://www.w3.org/2000/svg" xmlns:xlink="http://www.w3.org/1999/xlink" version="1.1" viewBox="-10 0 1015 1000">
   <path fill="currentColor"
d="M243 551v-102h154v106q0 50 -7 105.5t-28.5 112t-65.5 108.5t-118 95q-13 -17 -35 -38t-45.5 -40t-43.5 -31q64 -35 101.5 -74.5t56.5 -81t25 -82.5t6 -78zM621 974v-527h155v527h-155zM492 8l118 84q-4 7 -9.5 13.5t-10.5 13.5q65 70 171.5 123t233.5 79q-17 16 -37 41
t-38 51t-29 47q-120 -34 -219 -94.5t-175 -143.5q-83 79 -188 146t-212 108q-14 -32 -39 -72.5t-50 -68.5q98 -28 191 -78t169.5 -114.5t123.5 -134.5z" />
</svg>
