<?xml version="1.0" standalone="no"?>
<!DOCTYPE svg PUBLIC "-//W3C//DTD SVG 1.1//EN" "http://www.w3.org/Graphics/SVG/1.1/DTD/svg11.dtd" >
<svg xmlns="http://www.w3.org/2000/svg" xmlns:xlink="http://www.w3.org/1999/xlink" version="1.1" viewBox="-10 0 1010 1000">
   <path fill="currentColor"
d="M203 761l77 -109q56 14 121 34.5t131 44.5t124.5 49t100.5 49l-84 125q-38 -24 -94 -50.5t-121 -53t-130.5 -49.5t-124.5 -40zM330 492l87 -94q47 20 102 48t105.5 58t83.5 57l-95 107q-29 -27 -77.5 -59t-102.5 -63t-103 -54zM457 21l128 54l-15 27q84 106 188 173.5
t231 116.5q-25 22 -49.5 54t-38.5 62q-121 -57 -218.5 -127t-184.5 -175q-78 100 -177.5 176t-213.5 132q-15 -28 -41.5 -61t-52.5 -57q92 -37 176 -91t153 -125.5t115 -158.5z" />
</svg>
