<?xml version="1.0" standalone="no"?>
<!DOCTYPE svg PUBLIC "-//W3C//DTD SVG 1.1//EN" "http://www.w3.org/Graphics/SVG/1.1/DTD/svg11.dtd" >
<svg xmlns="http://www.w3.org/2000/svg" xmlns:xlink="http://www.w3.org/1999/xlink" version="1.1" viewBox="-10 0 1010 1000">
   <path fill="currentColor"
d="M379 789l286 -14q-16 -19 -33.5 -36.5t-34.5 -33.5l92 -47h-181q-28 34 -61 66.5t-68 64.5zM920 658h-179q41 37 79.5 79t71 83t53.5 76l-132 79q-8 -17 -19.5 -35.5t-25.5 -37.5q-143 10 -241 16.5t-162 11.5t-103 9.5t-62 9t-40 10.5q-4 -15 -12.5 -42t-18 -55.5
t-18.5 -48.5q22 -5 40 -16.5t42 -31.5q16 -11 46 -39.5t64 -67.5h-216v-141h833v141zM367 322h279q-40 -26 -76.5 -54t-68.5 -55q-31 29 -65 56.5t-69 52.5zM492 17l130 63q-8 11 -17 21.5t-18 21.5q51 38 116 76t137.5 70t143.5 53q-16 14 -35.5 37t-37 47t-29.5 43
q-74 -30 -149 -73v79h-464v-71q-35 21 -72 39.5t-75 35.5q-10 -19 -28 -44t-38 -49t-37 -38q94 -33 183.5 -82t164.5 -108t125 -121z" />
</svg>
