<?xml version="1.0" standalone="no"?>
<!DOCTYPE svg PUBLIC "-//W3C//DTD SVG 1.1//EN" "http://www.w3.org/Graphics/SVG/1.1/DTD/svg11.dtd" >
<svg xmlns="http://www.w3.org/2000/svg" xmlns:xlink="http://www.w3.org/1999/xlink" version="1.1" viewBox="-10 0 1010 1000">
   <path fill="currentColor"
d="M212 27l134 42q-15 43 -33.5 86t-39.5 87v733h-141v-499q-27 37 -56 68q-6 -18 -19 -47.5t-27.5 -59t-26.5 -47.5q42 -44 81 -102.5t72 -125.5t56 -135zM846 640l-147 10v185q0 46 -11 73.5t-43 42.5q-31 14 -70.5 17t-89.5 3q-4 -29 -15.5 -64.5t-23.5 -62.5
q23 1 52 1.5t37 0.5q18 0 18 -14v-172q-40 3 -70 6t-51 5l95 29q-29 58 -66 117.5t-73 103.5q-22 -18 -54.5 -38.5t-55.5 -33.5q30 -35 59 -82t48 -89q-10 2 -17.5 4.5t-14.5 4.5q-3 -12 -9.5 -32.5t-14 -42.5t-14.5 -38q27 -5 54 -18.5t66 -37.5q14 -8 37.5 -23.5
t51.5 -36.5q-58 3 -91 6t-49.5 6t-27.5 7q-3 -12 -9.5 -33t-14 -43t-14.5 -38q17 -3 34 -12t37 -23q17 -11 56.5 -42t79.5 -71q-37 7 -74.5 12.5t-72.5 10.5q-4 -24 -16.5 -57.5t-24.5 -55.5q81 -13 164 -31t158.5 -38.5t133.5 -42.5l97 114q-61 21 -131 38.5t-142 32.5
l63 32q-31 31 -66 60.5t-72 55.5l125 -3q31 -27 62 -56.5t59 -60.5l95 78q-67 66 -142 125.5t-152 110.5l178 -9q-14 -17 -27.5 -33t-27.5 -30l108 -66q28 28 58 61.5t56.5 66.5t41.5 61l-117 74l-6 -12t-7 -13zM724 707l119 -56q22 28 46 61t44.5 65.5t31.5 59.5l-127 63
q-10 -26 -28.5 -59.5t-41 -68.5t-44.5 -65z" />
</svg>
