<?xml version="1.0" standalone="no"?>
<!DOCTYPE svg PUBLIC "-//W3C//DTD SVG 1.1//EN" "http://www.w3.org/Graphics/SVG/1.1/DTD/svg11.dtd" >
<svg xmlns="http://www.w3.org/2000/svg" xmlns:xlink="http://www.w3.org/1999/xlink" version="1.1" viewBox="-10 0 1010 1000">
   <path fill="currentColor"
d="M708 853h94q18 0 27 -10t13 -41.5t6 -95.5q15 10 39 19t50 16t46 11q-6 82 -23.5 127t-51.5 62.5t-92 17.5h-131q-66 0 -102 -13t-50 -44t-14 -83v-235h-46q-7 69 -24.5 128t-55.5 108.5t-104.5 88t-173.5 66.5q-11 -26 -37 -60t-50 -54q90 -20 144 -47t82.5 -61.5
t40.5 -77t17 -91.5h-173v-459q67 -21 136 -49.5t120 -53.5l109 103q-48 17 -100.5 33.5t-103.5 30.5v74h160v126h-160v62h422v-63h-175v-126h175v-44h-182v-132h327v498h-199v234q0 23 6.5 29t33.5 6z" />
</svg>
