<?xml version="1.0" standalone="no"?>
<!DOCTYPE svg PUBLIC "-//W3C//DTD SVG 1.1//EN" "http://www.w3.org/Graphics/SVG/1.1/DTD/svg11.dtd" >
<svg xmlns="http://www.w3.org/2000/svg" xmlns:xlink="http://www.w3.org/1999/xlink" version="1.1" viewBox="-10 0 1010 1000">
   <path fill="currentColor"
d="M567 63l135 -39q25 72 67 140.5t97.5 125t120.5 93.5q-17 14 -37.5 35.5t-38 44.5t-29.5 42q-71 -47 -131 -115v67h-294q-7 25 -14.5 49.5t-15.5 48.5h384l-0.5 10.5t-2 24.5t-3.5 23q-14 136 -33 208t-50 101q-27 26 -58 36t-75 12q-32 2 -82.5 2t-105.5 -1
q-2 -32 -17.5 -72t-38.5 -69q38 3 77 4.5t72.5 2.5t51.5 1q17 0 30 -2t25 -9q30 -21 48 -143h-422q20 -47 41 -107t38 -120h-69v-56q-24 31 -48.5 58t-48.5 50q-14 -14 -37.5 -32.5t-47.5 -36.5t-42 -29q56 -44 107 -106t94 -134t72 -146l149 43q-28 66 -64 131t-77 124h405
q-40 -58 -73 -123.5t-59 -136.5z" />
</svg>
