<?xml version="1.0" standalone="no"?>
<!DOCTYPE svg PUBLIC "-//W3C//DTD SVG 1.1//EN" "http://www.w3.org/Graphics/SVG/1.1/DTD/svg11.dtd" >
<svg xmlns="http://www.w3.org/2000/svg" xmlns:xlink="http://www.w3.org/1999/xlink" version="1.1" viewBox="-10 0 1010 1000">
   <path fill="currentColor"
d="M522 228h401l-0.5 13t-1 28.5t-1.5 25.5q-7 147 -14.5 252t-17 175t-22 111.5t-29.5 62.5q-25 32 -51 45t-61 18q-29 5 -72.5 5.5t-88.5 -0.5q-1 -32 -15.5 -76t-35.5 -75q46 4 85 4.5t60 0.5q28 0 46 -17q22 -22 37 -122t25 -302h-249q-6 78 -25 160.5t-59.5 163
t-108 152.5t-171.5 128q-12 -18 -32 -41t-42.5 -44t-40.5 -34q89 -45 148.5 -102.5t95.5 -122t54 -131t25 -129.5h-290v-149h296v-201h155v201z" />
</svg>
