<?xml version="1.0" standalone="no"?>
<!DOCTYPE svg PUBLIC "-//W3C//DTD SVG 1.1//EN" "http://www.w3.org/Graphics/SVG/1.1/DTD/svg11.dtd" >
<svg xmlns="http://www.w3.org/2000/svg" xmlns:xlink="http://www.w3.org/1999/xlink" version="1.1" viewBox="-10 0 1010 1000">
   <path fill="currentColor"
d="M242 479l127 -71q37 39 73 84.5t65 91.5t43 87l-139 79q-12 -38 -38 -85.5t-60.5 -96t-70.5 -89.5zM375 170h557l-0.5 13t-0.5 29t-1 25q-6 165 -12.5 281.5t-15 193t-20 121.5t-28.5 66q-25 34 -51 47.5t-61 19.5q-31 6 -76 6t-91 -1q-1 -31 -15.5 -74.5t-35.5 -74.5
q49 4 90.5 5t62.5 1q16 0 26 -4t20 -14q23 -23 36.5 -141t21.5 -355h-474q-34 64 -73 119.5t-80 98.5q-14 -13 -38 -31.5t-49.5 -36t-44.5 -27.5q53 -47 99 -112t81.5 -142t58.5 -158l153 37q-8 27 -18 54.5t-21 53.5z" />
</svg>
