<?xml version="1.0" standalone="no"?>
<!DOCTYPE svg PUBLIC "-//W3C//DTD SVG 1.1//EN" "http://www.w3.org/Graphics/SVG/1.1/DTD/svg11.dtd" >
<svg xmlns="http://www.w3.org/2000/svg" xmlns:xlink="http://www.w3.org/1999/xlink" version="1.1" viewBox="-10 0 1010 1000">
   <path fill="currentColor"
d="M283 688h93q-18 -17 -45 -37t-48 -34v71zM356 149h581l-0.5 13t-0.5 29t-1 25q-5 177 -10.5 299.5t-12.5 202t-17 124t-24 64.5q-21 32 -43.5 45t-51.5 19q-27 5 -64.5 5.5t-77.5 -0.5q-1 -28 -12 -65.5t-28 -65.5q35 3 63.5 3.5t45.5 0.5q24 0 39 -20q13 -16 22.5 -75
t16 -173t10.5 -294h-506q-28 48 -60 90h58v225q57 -51 95 -127.5t56 -164.5l136 25q-5 24 -12 47.5t-15 46.5q31 25 64 54t62.5 58t47.5 53l-105 93q-19 -28 -52 -64t-70 -70q-43 81 -98 136h328v131h-437v61h-141v-408l-11 11q-13 -14 -35 -33t-45.5 -37.5t-40.5 -29.5
q51 -41 95.5 -97.5t80 -123.5t58.5 -137l147 38q-7 22 -16 43.5t-19 42.5z" />
</svg>
