<?xml version="1.0" standalone="no"?>
<!DOCTYPE svg PUBLIC "-//W3C//DTD SVG 1.1//EN" "http://www.w3.org/Graphics/SVG/1.1/DTD/svg11.dtd" >
<svg xmlns="http://www.w3.org/2000/svg" xmlns:xlink="http://www.w3.org/1999/xlink" version="1.1" viewBox="-10 0 1010 1000">
   <path fill="currentColor"
d="M216 808h746v139h-888v-884h860v139h-718v606zM882 668l-113 109q-34 -38 -83.5 -85t-107.5 -97q-60 55 -123.5 101t-125.5 83q-12 -15 -32 -36.5t-41.5 -42t-37.5 -33.5q65 -32 128.5 -73.5t121.5 -90.5q-52 -43 -104 -84.5t-99 -77.5l100 -88q46 34 98.5 73t107.5 81
q41 -43 76.5 -89t63.5 -94l137 56q-35 56 -77 109.5t-89 103.5q59 47 111 92t89 83z" />
</svg>
