<?xml version="1.0" standalone="no"?>
<!DOCTYPE svg PUBLIC "-//W3C//DTD SVG 1.1//EN" "http://www.w3.org/Graphics/SVG/1.1/DTD/svg11.dtd" >
<svg xmlns="http://www.w3.org/2000/svg" xmlns:xlink="http://www.w3.org/1999/xlink" version="1.1" viewBox="-10 0 1010 1000">
   <path fill="currentColor"
d="M651 534v271h302v138h-752v-138h300v-271h-240v-138h240v-164h150v164h272v138h-272zM672 618l102 -70q44 32 85.5 72t64.5 73l-106 84q-14 -23 -37.5 -51t-52 -56.5t-56.5 -51.5zM970 69v140h-735v188q0 63 -4 139.5t-14.5 156.5t-30.5 154t-53 133q-12 -12 -34 -28
t-45 -30.5t-40 -21.5q29 -53 46 -116.5t25 -131t10 -133t2 -121.5v-329h873z" />
</svg>
