<?xml version="1.0" standalone="no"?>
<!DOCTYPE svg PUBLIC "-//W3C//DTD SVG 1.1//EN" "http://www.w3.org/Graphics/SVG/1.1/DTD/svg11.dtd" >
<svg xmlns="http://www.w3.org/2000/svg" xmlns:xlink="http://www.w3.org/1999/xlink" version="1.1" viewBox="-10 0 1010 1000">
   <path fill="currentColor"
d="M974 881l-148 71q-7 -26 -16.5 -56t-20.5 -63q-160 13 -270 22t-182.5 15.5t-116.5 12t-70 11t-46 12.5q-4 -16 -16 -46t-26 -62t-26 -54q31 -10 54 -36.5t59 -76.5q15 -20 40.5 -63t56.5 -103t63 -132t61.5 -150.5t51.5 -157.5l173 67q-42 118 -95.5 229.5t-113 212.5
t-119.5 188l471 -29q-20 -53 -41 -106t-41 -101l134 -56q23 54 49.5 114t52 121t47 116.5t35.5 99.5z" />
</svg>
