<?xml version="1.0" standalone="no"?>
<!DOCTYPE svg PUBLIC "-//W3C//DTD SVG 1.1//EN" "http://www.w3.org/Graphics/SVG/1.1/DTD/svg11.dtd" >
<svg xmlns="http://www.w3.org/2000/svg" xmlns:xlink="http://www.w3.org/1999/xlink" version="1.1" viewBox="-10 0 1010 1000">
   <path fill="currentColor"
d="M661 592h-231q55 65 131 115q29 -25 54.5 -53.5t45.5 -61.5zM951 399h-518q-5 16 -11 31.5t-12 31.5h326l23 -5l91 47q-28 82 -71 149t-98 120q121 56 268 83q-14 14 -31 36t-31.5 44.5t-24.5 41.5q-164 -39 -296 -116q-67 43 -145 72.5t-162 48.5q-7 -16 -22 -38.5
t-32 -43.5t-31 -34q77 -14 146 -35.5t129 -51.5q-37 -31 -69 -65.5t-61 -71.5q-40 61 -92 118t-120 105q-13 -27 -36.5 -58t-49.5 -54q75 -48 126.5 -107.5t85.5 -123.5t55 -124h-238v-131h275q6 -32 12 -57q-56 1 -111 2.5t-108 1.5q-1 -27 -11 -63.5t-20 -60.5
q131 -2 265.5 -8.5t258.5 -18t220 -27.5l81 123q-95 16 -204 27t-222 17q-4 15 -7.5 31t-7.5 33h480v131z" />
</svg>
