<?xml version="1.0" standalone="no"?>
<!DOCTYPE svg PUBLIC "-//W3C//DTD SVG 1.1//EN" "http://www.w3.org/Graphics/SVG/1.1/DTD/svg11.dtd" >
<svg xmlns="http://www.w3.org/2000/svg" xmlns:xlink="http://www.w3.org/1999/xlink" version="1.1" viewBox="-10 0 1010 1000">
   <path fill="currentColor"
d="M485 526h-147v134h147v-134zM375 151h563l-0.5 13.5t-0.5 30t-1 26.5q-4 170 -9.5 290t-13 198.5t-18.5 124t-27 67.5q-25 35 -51.5 49t-61.5 21q-31 6 -76.5 6t-91.5 -1q-1 -32 -16 -76.5t-37 -77.5q50 4 90.5 4.5t62.5 0.5q15 0 25 -4t20 -14q15 -16 25 -74.5
t16.5 -166.5t10.5 -273h-479q-30 54 -63 102h388v392h-292v67h-141v-398q-15 19 -30.5 36t-31.5 33q-13 -14 -36 -33.5t-47 -38.5t-42 -31q54 -45 101 -108t84 -137.5t61 -153.5l152 38q-7 22 -15.5 44t-17.5 44z" />
</svg>
