<?xml version="1.0" standalone="no"?>
<!DOCTYPE svg PUBLIC "-//W3C//DTD SVG 1.1//EN" "http://www.w3.org/Graphics/SVG/1.1/DTD/svg11.dtd" >
<svg xmlns="http://www.w3.org/2000/svg" xmlns:xlink="http://www.w3.org/1999/xlink" version="1.1" viewBox="-10 0 1010 1000">
   <path fill="currentColor"
d="M706 331h-288l-26 34t-27 33q53 32 108.5 71t98.5 77q41 -47 75 -100.5t59 -114.5zM799 179l112 52q-54 209 -161 355t-260 240t-347 149q-9 -22 -23.5 -49t-31 -52.5t-32.5 -42.5q116 -27 217.5 -71.5t184.5 -108.5q-39 -38 -90 -77.5t-102 -73.5q-25 22 -49.5 41.5
t-50.5 36.5q-13 -16 -37 -37.5t-49 -42.5t-44 -34q125 -68 221.5 -183.5t148.5 -256.5l159 45q-13 31 -26.5 60t-29.5 58h263z" />
</svg>
