<?xml version="1.0" standalone="no"?>
<!DOCTYPE svg PUBLIC "-//W3C//DTD SVG 1.1//EN" "http://www.w3.org/Graphics/SVG/1.1/DTD/svg11.dtd" >
<svg xmlns="http://www.w3.org/2000/svg" xmlns:xlink="http://www.w3.org/1999/xlink" version="1.1" viewBox="-10 0 1010 1000">
   <path fill="currentColor"
d="M949 435h-340q49 136 138 240.5t227 157.5q-18 16 -38.5 40.5t-39 50.5t-30.5 47q-132 -61 -218.5 -159.5t-144.5 -231.5q-43 115 -127.5 216t-232.5 175q-17 -30 -47.5 -65t-62.5 -59q110 -50 180 -114.5t110.5 -140.5t60.5 -157h-331v-151h355q5 -66 5.5 -131.5
t1.5 -127.5h160q-1 62 -2.5 127.5t-7.5 131.5h384v151z" />
</svg>
