<?xml version="1.0" standalone="no"?>
<!DOCTYPE svg PUBLIC "-//W3C//DTD SVG 1.1//EN" "http://www.w3.org/Graphics/SVG/1.1/DTD/svg11.dtd" >
<svg xmlns="http://www.w3.org/2000/svg" xmlns:xlink="http://www.w3.org/1999/xlink" version="1.1" viewBox="-10 0 1010 1000">
   <path fill="currentColor"
d="M936 534h-334q53 107 148 183t237 111q-17 16 -36 40t-36 49.5t-28 46.5q-136 -43 -228.5 -121.5t-154.5 -190.5q-30 62 -80 121t-125 108.5t-182 86.5q-9 -18 -25.5 -42t-35 -47t-34.5 -37q109 -35 180.5 -84t114 -107t64.5 -117h-319v-150h350q1 -15 1.5 -29t0.5 -27
v-92h-313v-150h797v150h-330v94v26.5t-1 27.5h369v150z" />
</svg>
