<?xml version="1.0" standalone="no"?>
<!DOCTYPE svg PUBLIC "-//W3C//DTD SVG 1.1//EN" "http://www.w3.org/Graphics/SVG/1.1/DTD/svg11.dtd" >
<svg xmlns="http://www.w3.org/2000/svg" xmlns:xlink="http://www.w3.org/1999/xlink" version="1.1" viewBox="-10 0 1010 1000">
   <path fill="currentColor"
d="M951 583h-348q54 96 146.5 158.5t234.5 88.5q-16 16 -34.5 40.5t-34.5 50.5t-26 47q-139 -35 -230.5 -101t-151.5 -166q-47 88 -138.5 160.5t-249.5 116.5q-8 -19 -23.5 -44.5t-33.5 -50.5t-33 -40q104 -27 173.5 -67t112.5 -89.5t66 -103.5h-331v-150h366q3 -38 3 -73
v-63h-300v-150h300v-122h157v122h322v150h-322v63q0 18 -0.5 36t-1.5 37h377v150z" />
</svg>
