<?xml version="1.0" standalone="no"?>
<!DOCTYPE svg PUBLIC "-//W3C//DTD SVG 1.1//EN" "http://www.w3.org/Graphics/SVG/1.1/DTD/svg11.dtd" >
<svg xmlns="http://www.w3.org/2000/svg" xmlns:xlink="http://www.w3.org/1999/xlink" version="1.1" viewBox="-10 0 1010 1000">
   <path fill="currentColor"
d="M168 507h661q-41 -25 -78 -54.5t-69 -61.5v67h-365v-60q-32 29 -69.5 56.5t-79.5 52.5zM583 263h-148q-14 21 -30 40.5t-33 39.5h267q-16 -20 -30 -39.5t-26 -40.5zM951 263h-210q47 52 110 91t137 61q-11 18 -22 43.5t-20 52t-14 47.5q-22 -9 -42.5 -19t-40.5 -21v107
h-439l-15 47h412l-1 10.5t-3 23.5t-5 23q-15 85 -33.5 133.5t-43.5 70.5q-22 20 -48.5 28t-61.5 10q-27 2 -68.5 2t-88.5 -1q-1 -29 -13.5 -65.5t-30.5 -63.5q41 4 85 5t65 1q14 0 24.5 -1.5t20.5 -7.5q17 -12 31 -54h-282v1h-156q15 -34 30.5 -76.5t29.5 -85.5h-116v-103
q-9 4 -18 9t-19 10q-7 -18 -21.5 -41t-30.5 -44t-31 -34q74 -33 131.5 -73t100.5 -86h-204v-127h297q14 -27 26 -55t21 -56l149 24q-8 22 -16.5 44t-18.5 43h443v127z" />
</svg>
