<?xml version="1.0" standalone="no"?>
<!DOCTYPE svg PUBLIC "-//W3C//DTD SVG 1.1//EN" "http://www.w3.org/Graphics/SVG/1.1/DTD/svg11.dtd" >
<svg xmlns="http://www.w3.org/2000/svg" xmlns:xlink="http://www.w3.org/1999/xlink" version="1.1" viewBox="-10 0 1010 1000">
   <path fill="currentColor"
d="M688 292h-115v163q0 45 16 89q39 -47 63.5 -113t35.5 -139zM957 557l-90 103q-19 -23 -51.5 -52.5t-67.5 -59.5q-25 51 -59 89q-13 -10 -34.5 -22.5t-43.5 -23.5q41 72 127.5 137.5t229.5 109.5q-17 16 -35 40.5t-33.5 50.5t-26.5 47q-78 -26 -141.5 -65.5t-112 -84
t-80.5 -87.5t-46 -76q-13 34 -42.5 77t-75.5 87.5t-107.5 83t-138.5 63.5q-10 -17 -27 -39.5t-36 -45.5t-35 -39q104 -31 176.5 -78.5t118.5 -102.5t67 -111t21 -103v-163h-203l120 23q-13 56 -33 109q29 24 59.5 50t47.5 46l-82 104q-13 -17 -34.5 -38t-44.5 -43
q-23 42 -50.5 78.5t-59.5 65.5q-11 -13 -30.5 -30.5t-40 -35t-35.5 -27.5q62 -50 104.5 -129.5t61.5 -172.5h-143v-140h363v-122h159v122h379v140h-244l116 17q-11 61 -27 116q44 32 89 68.5t71 63.5z" />
</svg>
