<?xml version="1.0" standalone="no"?>
<!DOCTYPE svg PUBLIC "-//W3C//DTD SVG 1.1//EN" "http://www.w3.org/Graphics/SVG/1.1/DTD/svg11.dtd" >
<svg xmlns="http://www.w3.org/2000/svg" xmlns:xlink="http://www.w3.org/1999/xlink" version="1.1" viewBox="-10 0 1010 1000">
   <path fill="currentColor"
d="M961 453v146h-378v209q0 58 -15 90t-56 49q-40 17 -94 22t-121 4q-4 -22 -14.5 -49t-23 -54t-24.5 -47q32 2 66.5 3t61.5 0.5t38 -0.5q17 0 23 -4.5t6 -17.5v-205h-388v-146h388v-136q41 -19 83 -44t79 -53h-451v-143h614l33 -8l111 86q-64 63 -147 126t-169 112v60h378z
" />
</svg>
