<?xml version="1.0" standalone="no"?>
<!DOCTYPE svg PUBLIC "-//W3C//DTD SVG 1.1//EN" "http://www.w3.org/Graphics/SVG/1.1/DTD/svg11.dtd" >
<svg xmlns="http://www.w3.org/2000/svg" xmlns:xlink="http://www.w3.org/1999/xlink" version="1.1" viewBox="-10 0 1010 1000">
   <path fill="currentColor"
d="M575 24v476q0 55 -12.5 87.5t-49.5 49.5q-36 17 -84.5 22t-109.5 5q-4 -32 -19 -75.5t-31 -74.5q26 1 53 1.5t49 0.5h31q14 0 19 -4t5 -15v-473h149zM193 151l163 37q-23 64 -54 131.5t-68.5 128t-80.5 104.5q-17 -14 -41 -30.5t-48.5 -31.5t-43.5 -24q41 -39 75 -93
t59.5 -112.5t38.5 -109.5zM983 463l-150 81q-1 -6 -3.5 -12t-4.5 -12q-39 114 -96.5 192.5t-136 130.5t-181 84t-232.5 53q-10 -35 -32 -76.5t-45 -69.5q120 -12 213.5 -36t164 -67.5t119.5 -112.5t79 -171l132 36q-28 -66 -73.5 -141.5t-92.5 -139.5l136 -70q40 50 80 108
t73 116t50 107z" />
</svg>
