<?xml version="1.0" standalone="no"?>
<!DOCTYPE svg PUBLIC "-//W3C//DTD SVG 1.1//EN" "http://www.w3.org/Graphics/SVG/1.1/DTD/svg11.dtd" >
<svg xmlns="http://www.w3.org/2000/svg" xmlns:xlink="http://www.w3.org/1999/xlink" version="1.1" viewBox="-10 0 1010 1000">
   <path fill="currentColor"
d="M638 36l139 92q-76 54 -168.5 100t-188.5 82.5t-184 63.5q-16 -32 -45.5 -73t-60.5 -72q63 -14 133.5 -34t140 -45t130.5 -54t104 -60zM662 293l145 83q-72 68 -161 122t-186.5 95.5t-193.5 71.5q-16 -33 -45 -74t-60 -72q67 -16 138 -38t138.5 -50.5t125.5 -63t99 -74.5
zM765 549l147 83q-85 95 -196.5 161.5t-239.5 110.5t-266 73q-13 -35 -39 -78t-54 -75q96 -15 190 -38t179.5 -56t156.5 -77.5t122 -103.5z" />
</svg>
