<?xml version="1.0" standalone="no"?>
<!DOCTYPE svg PUBLIC "-//W3C//DTD SVG 1.1//EN" "http://www.w3.org/Graphics/SVG/1.1/DTD/svg11.dtd" >
<svg xmlns="http://www.w3.org/2000/svg" xmlns:xlink="http://www.w3.org/1999/xlink" version="1.1" viewBox="-10 0 1010 1000">
   <path fill="currentColor"
d="M548 34l154 67q-52 57 -117.5 113.5t-136 106.5t-138.5 87q-14 -17 -34.5 -38t-42 -41.5t-38.5 -33.5q67 -31 134.5 -75.5t125.5 -93.5t93 -92zM634 268l147 72q-41 49 -91 97.5t-105 93.5v446h-160v-328q-40 27 -79 50t-77 43q-12 -17 -32 -43t-41 -51.5t-37 -40.5
q88 -37 176.5 -90.5t166 -117t132.5 -131.5z" />
</svg>
