<?xml version="1.0" standalone="no"?>
<!DOCTYPE svg PUBLIC "-//W3C//DTD SVG 1.1//EN" "http://www.w3.org/Graphics/SVG/1.1/DTD/svg11.dtd" >
<svg xmlns="http://www.w3.org/2000/svg" xmlns:xlink="http://www.w3.org/1999/xlink" version="1.1" viewBox="-10 0 1010 1000">
   <path fill="currentColor"
d="M621 184l-96 120q-28 -24 -67.5 -55t-82.5 -63t-81 -58l94 -106q39 24 82 53.5t83 58t68 50.5zM116 278l140 35q-10 61 -24 125.5t-32 122t-41 100.5l-143 -51q35 -65 61 -152.5t39 -179.5zM981 653l-141 72q-10 -40 -30.5 -90t-47 -102.5t-53.5 -97.5q-60 77 -129 150.5
t-148 138.5v32q0 27 3.5 39.5t15.5 16.5t37 4h128q24 0 36.5 -12t18 -46.5t9.5 -100.5q17 12 42.5 24.5t52 22t47.5 14.5q-9 91 -28.5 144t-58.5 76t-105 23h-162q-91 0 -133 -27t-53 -98q-40 27 -81.5 51t-85.5 46q-11 -17 -27.5 -38.5t-34.5 -42.5t-33 -35
q68 -32 132.5 -71t124.5 -85v-421h155v286q104 -104 185 -218t133 -225l147 58q-37 70 -81 140t-95 138l115 -55q30 45 58.5 97t51 101.5t35.5 90.5z" />
</svg>
