<?xml version="1.0" standalone="no"?>
<!DOCTYPE svg PUBLIC "-//W3C//DTD SVG 1.1//EN" "http://www.w3.org/Graphics/SVG/1.1/DTD/svg11.dtd" >
<svg xmlns="http://www.w3.org/2000/svg" xmlns:xlink="http://www.w3.org/1999/xlink" version="1.1" viewBox="-10 0 1010 1000">
   <path fill="currentColor"
d="M744 366l149 68q-55 85 -127 158.5t-155 135.5q31 39 67.5 60.5t77.5 21.5q20 0 33 -16t21.5 -56t15.5 -110q29 26 68 49t72 33q-12 80 -28.5 131t-41 78.5t-59 38t-81.5 10.5q-89 0 -159 -40t-123 -110q-75 43 -155.5 78t-163.5 62q-10 -18 -27.5 -45t-37 -53.5
t-34.5 -42.5q186 -48 342 -134q-28 -63 -47.5 -135t-33.5 -151l-257 22l-13 -145l251 -20q-5 -56 -7.5 -112t-3.5 -113h165q-1 54 1 107.5t7 104.5l219 -18q-32 -26 -71.5 -54.5t-71.5 -51.5l101 -95q27 17 62 40t68 45.5t55 39.5l-69 70l189 -15l13 140l-476 41
q11 58 25 111t32 99q63 -49 115.5 -106t92.5 -121z" />
</svg>
