<?xml version="1.0" standalone="no"?>
<!DOCTYPE svg PUBLIC "-//W3C//DTD SVG 1.1//EN" "http://www.w3.org/Graphics/SVG/1.1/DTD/svg11.dtd" >
<svg xmlns="http://www.w3.org/2000/svg" xmlns:xlink="http://www.w3.org/1999/xlink" version="1.1" viewBox="-10 0 1010 1000">
   <path fill="currentColor"
d="M520 337h-151v128q34 -7 68 -13.5t67 -13.5l14 140l-74 18t-75 17v178q0 55 -12.5 86.5t-44.5 49.5q-33 17 -78.5 22t-107.5 5q-4 -31 -18 -73t-28 -72q31 1 64.5 1.5t45.5 0.5q22 0 22 -21v-141l-123 28l-35 -154q34 -5 74 -12.5t84 -15.5v-158h-143v-144h143v-181h157
v181h151v144z" />
</svg>
