<?xml version="1.0" standalone="no"?>
<!DOCTYPE svg PUBLIC "-//W3C//DTD SVG 1.1//EN" "http://www.w3.org/Graphics/SVG/1.1/DTD/svg11.dtd" >
<svg xmlns="http://www.w3.org/2000/svg" xmlns:xlink="http://www.w3.org/1999/xlink" version="1.1" viewBox="-10 0 1010 1000">
   <path fill="currentColor"
d="M649 331h-299q59 139 159 245q44 -51 79.5 -112t60.5 -133zM964 331h-151q-70 202 -193 342q75 54 166 93.5t200 63.5q-16 16 -35 40.5t-35.5 50t-27.5 45.5q-115 -30 -210 -76.5t-172 -108.5q-82 64 -181 112t-218 81q-8 -18 -23.5 -43.5t-33 -51t-31.5 -42.5
q115 -26 209 -65.5t170 -94.5q-62 -72 -111 -158.5t-88 -187.5h-158v-142h412q-7 -30 -20 -65.5t-27 -65.5l156 -46q19 35 37.5 77.5t25.5 74.5l-81 25h420v142z" />
</svg>
