<?xml version="1.0" standalone="no"?>
<!DOCTYPE svg PUBLIC "-//W3C//DTD SVG 1.1//EN" "http://www.w3.org/Graphics/SVG/1.1/DTD/svg11.dtd" >
<svg xmlns="http://www.w3.org/2000/svg" xmlns:xlink="http://www.w3.org/1999/xlink" version="1.1" viewBox="-10 0 1010 1000">
   <path fill="currentColor"
d="M577 668h147q-45 -67 -81.5 -144.5t-65.5 -160.5v305zM269 668h153v-310h-1q-29 85 -67 163.5t-85 146.5zM947 358h-223q44 100 108.5 190t143.5 149q-18 15 -40.5 37.5t-42.5 46.5t-33 45q-49 -43 -90 -94v84h-193v159h-155v-159h-197v-89q-48 60 -102 104
q-12 -18 -31 -40t-39 -43t-37 -35q81 -59 147 -154t109 -201h-217v-148h367v-185h155v185h370v148z" />
</svg>
