<?xml version="1.0" standalone="no"?>
<!DOCTYPE svg PUBLIC "-//W3C//DTD SVG 1.1//EN" "http://www.w3.org/Graphics/SVG/1.1/DTD/svg11.dtd" >
<svg xmlns="http://www.w3.org/2000/svg" xmlns:xlink="http://www.w3.org/1999/xlink" version="1.1" viewBox="-10 0 1010 1000">
   <path fill="currentColor"
d="M753 313h-456q-30 68 -64.5 127t-72.5 104q-15 -13 -40.5 -31t-52 -35.5t-45.5 -27.5q48 -49 88 -118.5t70.5 -151.5t49.5 -167l159 33q-7 31 -16.5 62t-19.5 61h459l26 -7l116 38q-27 94 -65 184.5t-79 158.5l-130 -55q19 -35 38 -80.5t35 -94.5zM570 371v82
q0 12 -0.5 24.5t-1.5 26.5q47 132 147 218t271 119q-16 15 -34 39t-34 49.5t-26 46.5q-137 -36 -228 -106t-150 -175q-29 54 -79 106.5t-128 97t-191 77.5q-8 -18 -24.5 -40t-35.5 -43.5t-35 -35.5q107 -29 178.5 -68t115.5 -83.5t66 -90.5t29.5 -88.5t7.5 -77.5v-78h152z
" />
</svg>
