<?xml version="1.0" standalone="no"?>
<!DOCTYPE svg PUBLIC "-//W3C//DTD SVG 1.1//EN" "http://www.w3.org/Graphics/SVG/1.1/DTD/svg11.dtd" >
<svg xmlns="http://www.w3.org/2000/svg" xmlns:xlink="http://www.w3.org/1999/xlink" version="1.1" viewBox="-10 0 1010 1000">
   <path fill="currentColor"
d="M909 346l-108 116q-54 -36 -124.5 -73t-150.5 -72q-91 43 -190.5 76.5t-203.5 56.5q-8 -19 -21.5 -43t-28 -47.5t-26.5 -39.5q73 -14 145.5 -33.5t139.5 -44.5q-56 -21 -112 -39.5t-110 -33.5l109 -103q71 19 145 43.5t147 53.5q59 -32 107.5 -66.5t82.5 -71.5l143 77
q-74 70 -170 129q64 29 121.5 58t104.5 57zM664 427l152 52q-36 70 -82 128.5t-101 107.5q145 79 350 112q-17 17 -36 43t-35.5 53t-27.5 48q-116 -23 -212 -62t-175 -94q-83 49 -178.5 85.5t-200.5 61.5q-8 -18 -24 -44t-34 -51.5t-32 -41.5q98 -17 186 -44.5t163 -66.5
q-50 -50 -92 -109.5t-77 -127.5l135 -48q59 115 162 201q51 -41 91 -91.5t68 -111.5z" />
</svg>
