<?xml version='1.0' encoding='ASCII' standalone='yes'?>
<svg xmlns="http://www.w3.org/2000/svg" xmlns:xlink="http://www.w3.org/1999/xlink" version="1.1" width="1010" viewBox="0 0 1010 1000" height="1000">
  <g>
    <g transform=" scale(0.500000 1.000000)"><path fill="currentColor" d="M714 87l162 38q-43 164 -107 297t-153 237q72 60 163.5 103.5t206.5 70.5q-17 16 -37.5 42t-38.5 53.5t-29 48.5q-121 -32 -217 -81.5t-170 -116.5q-153 127 -369 200q-10 -18 -30 -44t-41.5 -51.5t-38.5 -42.5q219 -62 369 -182q-78 -104 -130 -237t-89 -293l151 -31 q27 131 72 243t115 201q73 -89 125 -202t86 -253z"/>
</g>
    <g transform="translate(505.0, 0) scale(1)  scale(0.500000 1.000000)"><path fill="currentColor" d="M714 87l162 38q-43 164 -107 297t-153 237q72 60 163.5 103.5t206.5 70.5q-17 16 -37.5 42t-38.5 53.5t-29 48.5q-121 -32 -217 -81.5t-170 -116.5q-153 127 -369 200q-10 -18 -30 -44t-41.5 -51.5t-38.5 -42.5q219 -62 369 -182q-78 -104 -130 -237t-89 -293l151 -31 q27 131 72 243t115 201q73 -89 125 -202t86 -253z"/>
</g>
  </g>
</svg>
