<?xml version="1.0" standalone="no"?>
<!DOCTYPE svg PUBLIC "-//W3C//DTD SVG 1.1//EN" "http://www.w3.org/Graphics/SVG/1.1/DTD/svg11.dtd" >
<svg xmlns="http://www.w3.org/2000/svg" xmlns:xlink="http://www.w3.org/1999/xlink" version="1.1" viewBox="-10 0 1010 1000">
   <path fill="currentColor"
d="M206 656l149 51q-26 42 -61 86.5t-71.5 84t-68.5 68.5q-16 -14 -40 -31t-48.5 -33t-43.5 -26q34 -24 68.5 -57t64.5 -70t51 -73zM788 596l-194 13v208q0 53 -13.5 84.5t-52.5 48.5q-37 17 -83.5 21t-101.5 4q-3 -22 -12.5 -49.5t-21 -54t-22.5 -46.5q23 1 49.5 2t48.5 1
h31q13 0 17.5 -3t4.5 -12v-194q-77 6 -128 10t-82.5 8t-51.5 8.5t-36 10.5q-3 -15 -11.5 -41.5t-19 -55.5t-19.5 -49q35 -6 65.5 -20t79.5 -40q18 -9 46.5 -25t62.5 -38q-60 4 -94.5 8t-53 7.5t-31.5 8.5q-4 -15 -12 -41t-17.5 -54t-18.5 -48q20 -5 38.5 -16t40.5 -29
q17 -12 49.5 -41.5t70.5 -70t68 -85.5l149 71q-38 43 -82.5 85.5t-91.5 80.5l169 -7q37 -29 72.5 -60t66.5 -63l135 98q-82 76 -174 139t-185 116l252 -12q-13 -16 -26.5 -32t-26.5 -30l123 -63q34 35 71.5 78t71.5 85.5t54 77.5l-133 73q-15 -31 -41 -67zM633 724l125 -71
q34 30 73.5 67.5t75 75t57.5 68.5l-135 81q-18 -30 -51 -69t-71.5 -78.5t-73.5 -73.5z" />
</svg>
