<?xml version="1.0" standalone="no"?>
<!DOCTYPE svg PUBLIC "-//W3C//DTD SVG 1.1//EN" "http://www.w3.org/Graphics/SVG/1.1/DTD/svg11.dtd" >
<svg xmlns="http://www.w3.org/2000/svg" xmlns:xlink="http://www.w3.org/1999/xlink" version="1.1" viewBox="-10 0 1013 1000">
   <path fill="currentColor"
d="M787 558h-251q21 31 46.5 58.5t54.5 53.5q37 -23 78 -53.5t72 -58.5zM294 370v50h411v-50h-411zM705 208h-411v46h411v-46zM809 558l81 92q-34 24 -72 48t-74 45q53 29 115.5 51.5t133.5 36.5q-17 16 -36 40.5t-35.5 50t-27.5 46.5q-192 -49 -317 -151t-206 -259h-77v231
l200 -44q2 31 8 69.5t12 62.5q-103 26 -168.5 43t-103 28.5t-57 19.5t-32.5 16q-4 -15 -14.5 -35t-22 -38.5t-22.5 -28.5q18 -12 33.5 -35t15.5 -62v-715h716v488h-50z" />
</svg>
