<?xml version="1.0" standalone="no"?>
<!DOCTYPE svg PUBLIC "-//W3C//DTD SVG 1.1//EN" "http://www.w3.org/Graphics/SVG/1.1/DTD/svg11.dtd" >
<svg xmlns="http://www.w3.org/2000/svg" xmlns:xlink="http://www.w3.org/1999/xlink" version="1.1" viewBox="-10 0 1010 1000">
   <path fill="currentColor"
d="M69 86l113 -63q32 37 66 79.5t54 74.5l-116 75q-12 -22 -31.5 -51t-42 -59.5t-43.5 -55.5zM247 496l75 26q-7 54 -17.5 102t-24.5 91q29 46 72.5 68.5t102 29t131.5 6.5q54 0 125 -2t145 -7t134 -11q-10 16 -20 42t-18 53.5t-12 49.5q-82 4 -174.5 7t-182.5 3
q-85 0 -151.5 -8.5t-117 -32.5t-89.5 -70q-25 45 -55.5 79.5t-65.5 60.5q-10 -15 -28 -35.5t-38 -39.5t-35 -29q62 -41 104 -109t64 -160h-45q-15 0 -34 4.5t-26 11.5q-4 -16 -12.5 -39.5t-18 -46.5t-16.5 -36q14 -4 26.5 -11t26.5 -23q10 -11 28.5 -38.5t38.5 -59.5h-104
v-120h186l18 -7l94 36q-17 28 -39.5 66t-47 78t-47.5 74h25z" />
</svg>
