<?xml version="1.0" standalone="no"?>
<!DOCTYPE svg PUBLIC "-//W3C//DTD SVG 1.1//EN" "http://www.w3.org/Graphics/SVG/1.1/DTD/svg11.dtd" >
<svg xmlns="http://www.w3.org/2000/svg" xmlns:xlink="http://www.w3.org/1999/xlink" version="1.1" viewBox="-10 0 1010 1000">
   <path fill="currentColor"
d="M672 419l-48 -27q15 -17 33 -41t33 -48h-125v116h107zM426 613v-74h-173v225q20 -40 36.5 -87t27.5 -91zM426 303h-125q20 22 39 44.5t30 40.5l-44 31h100v-116zM958 178v125h-182l46 25q-18 25 -36.5 48t-35.5 43h136v413q0 45 -11 71.5t-40 42.5q-30 15 -67.5 18.5
t-85.5 3.5q-4 -28 -18 -63.5t-28 -60.5q26 2 54 2h37q18 0 18 -16v-291h-180v69l96 -32q23 46 46 99t36 92l-112 41q-9 -35 -27.5 -83t-38.5 -92v326h-139v-328q-17 58 -40.5 116.5t-45.5 99.5q-16 -10 -40.5 -21t-46.5 -19v168h-139v-556h131q-14 -20 -31 -41.5t-33 -39.5
l56 -35h-198v-125h136q-24 -50 -56 -93l116 -52q23 27 44.5 61t32.5 60l-48 24h69v-151h133v151h64v-151h135v151h123l-90 -22q14 -26 30.5 -61t25.5 -63l133 31q-16 34 -31.5 63.5t-29.5 51.5h132z" />
</svg>
