<?xml version="1.0" standalone="no"?>
<!DOCTYPE svg PUBLIC "-//W3C//DTD SVG 1.1//EN" "http://www.w3.org/Graphics/SVG/1.1/DTD/svg11.dtd" >
<svg xmlns="http://www.w3.org/2000/svg" xmlns:xlink="http://www.w3.org/1999/xlink" version="1.1" viewBox="-10 0 1010 1000">
   <path fill="currentColor"
d="M776 65l170 54q-54 104 -116.5 199t-117.5 161l-152 -57q38 -45 78 -105t76 -125.5t62 -126.5zM52 156l135 -55q27 39 53.5 84t48 89.5t31.5 81.5l-147 63q-8 -36 -26.5 -81.5t-43 -93t-51.5 -88.5zM336 94l139 -48q22 39 43 84t38 88.5t25 78.5l-151 55
q-6 -34 -20.5 -78.5t-34 -91.5t-39.5 -88z" />
</svg>
