<?xml version="1.0" standalone="no"?>
<!DOCTYPE svg PUBLIC "-//W3C//DTD SVG 1.1//EN" "http://www.w3.org/Graphics/SVG/1.1/DTD/svg11.dtd" >
<svg xmlns="http://www.w3.org/2000/svg" xmlns:xlink="http://www.w3.org/1999/xlink" version="1.1" viewBox="-10 0 1010 1000">
   <path fill="currentColor"
d="M785 303l36 20q-25 67 -62 139.5t-79.5 140t-85.5 122.5q47 32 87 65t67 63l-35 41q-38 -43 -101 -91.5t-137 -95t-146 -81.5l32 -37q47 22 96 50t95 58q38 -47 75 -105.5t69 -120t55 -117.5h-369q-45 89 -101 171t-123 147q-7 -7 -20 -15.5t-23 -14.5
q75 -70 135.5 -161.5t106.5 -191t75 -193.5l53 13q-16 48 -36 97.5t-43 99.5h369z" />
</svg>
