<?xml version="1.0" standalone="no"?>
<!DOCTYPE svg PUBLIC "-//W3C//DTD SVG 1.1//EN" "http://www.w3.org/Graphics/SVG/1.1/DTD/svg11.dtd" >
<svg xmlns="http://www.w3.org/2000/svg" xmlns:xlink="http://www.w3.org/1999/xlink" version="1.1" viewBox="-10 0 1010 1000">
   <path fill="currentColor"
d="M409 776q0 43 38 67t100 24q74 0 99 -33.5t25 -86.5v-21t-1 -25q-27 -8 -55.5 -13t-60.5 -5q-64 0 -104.5 26t-40.5 67zM714 127q-2 16 -3.5 30t-2.5 28q-1 23 -2 59.5t-1 71.5q98 -6 183 -23v49q-43 7 -89.5 12.5t-93.5 9.5q1 74 5.5 155.5t7.5 152.5q59 22 109 56.5
t91 72.5l-29 44q-40 -38 -82 -70t-88 -54q1 11 1 21.5v20.5q0 34 -13 69t-47.5 58t-99.5 23q-98 0 -147.5 -35.5t-49.5 -96.5q0 -37 22.5 -68.5t66 -50.5t107.5 -19q29 0 56.5 3.5t52.5 9.5q-2 -43 -4.5 -94t-4 -102t-2.5 -94q-55 3 -111 3q-43 0 -81.5 -2t-82.5 -5v-49
q42 4 82.5 6t83.5 2q27 0 54.5 -0.5t54.5 -1.5v-74.5t1 -58.5q0 -14 -0.5 -30t-2.5 -29h59zM217 132q-4 10 -8 25t-6 29q-9 40 -18 92.5t-16.5 109.5t-12 111t-4.5 99q0 49 3.5 91.5t10.5 92.5q9 -26 20.5 -58t23 -63t20.5 -53l29 22q-11 31 -26 71.5t-27.5 78t-17.5 60.5
q-2 10 -3.5 22.5t-0.5 22.5q1 7 2 15.5t2 15.5l-45 4q-15 -55 -26 -134.5t-11 -180.5q0 -54 5.5 -114.5t13.5 -119t16 -108t13 -81.5q2 -16 3.5 -30t1.5 -26zM801 153q0 28 19 47t47 19t47.5 -19t19.5 -47t-19.5 -47.5t-47.5 -19.5t-47 19.5t-19 47.5zM765 153
q0 -43 29.5 -73t72.5 -30t73.5 30t30.5 73t-30.5 73t-73.5 30t-72.5 -30t-29.5 -73z" />
</svg>
