<?xml version="1.0" standalone="no"?>
<!DOCTYPE svg PUBLIC "-//W3C//DTD SVG 1.1//EN" "http://www.w3.org/Graphics/SVG/1.1/DTD/svg11.dtd" >
<svg xmlns="http://www.w3.org/2000/svg" xmlns:xlink="http://www.w3.org/1999/xlink" version="1.1" viewBox="-10 0 1010 1000">
   <path fill="currentColor"
d="M355 349l40 -24q43 47 89 102t86 106.5t65 89.5l-43 30q-25 -40 -65 -93t-85 -108.5t-87 -102.5zM226 815l544 -8v-636h-544v644zM181 122h640v801h-51v-68q-155 3 -257.5 4.5t-165.5 3t-96.5 3t-48.5 3t-23 4.5q-4 -11 -12.5 -25.5t-15.5 -23.5q8 -5 16.5 -18.5
t8.5 -41.5v-637h5v-5z" />
</svg>
