<?xml version="1.0" standalone="no"?>
<!DOCTYPE svg PUBLIC "-//W3C//DTD SVG 1.1//EN" "http://www.w3.org/Graphics/SVG/1.1/DTD/svg11.dtd" >
<svg xmlns="http://www.w3.org/2000/svg" xmlns:xlink="http://www.w3.org/1999/xlink" version="1.1" viewBox="-10 0 1010 1000">
   <path fill="currentColor"
d="M943 172h-573q-11 49 -24 103t-26.5 106t-26.5 96h539l-0.5 10.5t-2.5 15.5q-16 138 -31.5 224.5t-33.5 134.5t-41 69q-16 15 -33.5 20t-44.5 5q-25 1 -71.5 0t-99.5 -5q-1 -11 -5.5 -24.5t-10.5 -23.5q56 6 105 7.5t68 1.5t31 -2t20 -9q20 -16 36 -58.5t31 -120
t29 -199.5h-550q14 -45 30 -105.5t32 -125t29 -120.5h-258v-45h882v45z" />
</svg>
