<?xml version="1.0" standalone="no"?>
<!DOCTYPE svg PUBLIC "-//W3C//DTD SVG 1.1//EN" "http://www.w3.org/Graphics/SVG/1.1/DTD/svg11.dtd" >
<svg xmlns="http://www.w3.org/2000/svg" xmlns:xlink="http://www.w3.org/1999/xlink" version="1.1" viewBox="-10 0 1010 1000">
   <path fill="currentColor"
d="M935 173h-529q-1 55 -4 113t-10 117h446l-0.5 10.5t-0.5 15.5q-7 124 -14 211.5t-15.5 143.5t-19.5 88.5t-26 47.5q-13 16 -30.5 21.5t-43.5 7.5q-26 1 -74.5 -0.5t-101.5 -5.5q-2 -26 -17 -47q59 6 109 7t69 1q18 1 29 -1.5t18 -10.5q17 -15 28.5 -62t21 -139.5
t17.5 -241.5h-401q-14 101 -47 197.5t-95 176.5t-164 134q-6 -8 -16.5 -18t-19.5 -16q87 -45 143.5 -109.5t90 -142.5t50 -162.5t22 -170.5t7.5 -165h-291v-46h869v46z" />
</svg>
