<?xml version="1.0" standalone="no"?>
<!DOCTYPE svg PUBLIC "-//W3C//DTD SVG 1.1//EN" "http://www.w3.org/Graphics/SVG/1.1/DTD/svg11.dtd" >
<svg xmlns="http://www.w3.org/2000/svg" xmlns:xlink="http://www.w3.org/1999/xlink" version="1.1" viewBox="-10 0 1010 1000">
   <path fill="currentColor"
d="M929 170h-407v177h346v46h-346v182h397l-3 24q-13 106 -25.5 173.5t-27 104.5t-34.5 54q-15 14 -32 18.5t-46 5.5q-25 1 -73.5 0t-103.5 -5q-2 -26 -18 -47q59 5 112 6.5t73 1.5q19 0 30.5 -1.5t19.5 -8.5q23 -18 40.5 -82.5t33.5 -197.5h-715v-323h48v277h274v-405h-396
v-47h853v47z" />
</svg>
