<?xml version="1.0" standalone="no"?>
<!DOCTYPE svg PUBLIC "-//W3C//DTD SVG 1.1//EN" "http://www.w3.org/Graphics/SVG/1.1/DTD/svg11.dtd" >
<svg xmlns="http://www.w3.org/2000/svg" xmlns:xlink="http://www.w3.org/1999/xlink" version="1.1" viewBox="-10 0 1010 1000">
   <path fill="currentColor"
d="M624 475h258v10t-1 15q-7 135 -15.5 217t-19.5 125t-28 60q-13 14 -30 19.5t-43 6.5q-25 1 -73.5 0t-101.5 -5q-1 -11 -6 -24.5t-13 -23.5q58 5 108.5 6.5t69.5 1.5q17 0 27.5 -2t17.5 -9q14 -13 23.5 -50.5t17.5 -110t15 -189.5h-276q16 -45 33.5 -105t35 -125
t31.5 -124h-326v26q0 77 -7 170t-31 194t-75.5 201.5t-140.5 193.5q-7 -8 -17.5 -18t-20.5 -17q86 -89 135.5 -185.5t72.5 -192.5t29 -184.5t6 -161.5v-26h-172v-47h611q-13 55 -29 118t-33 124t-32 112z" />
</svg>
