<?xml version="1.0" standalone="no"?>
<!DOCTYPE svg PUBLIC "-//W3C//DTD SVG 1.1//EN" "http://www.w3.org/Graphics/SVG/1.1/DTD/svg11.dtd" >
<svg xmlns="http://www.w3.org/2000/svg" xmlns:xlink="http://www.w3.org/1999/xlink" version="1.1" viewBox="-10 0 1010 1000">
   <path fill="currentColor"
d="M633 213l32 16q-16 68 -38.5 130.5t-50.5 119.5q35 95 92 180.5t131 150.5t160 102q-8 7 -18.5 19t-15.5 22q-82 -38 -153 -101t-127.5 -144.5t-96.5 -175.5q-85 153 -204.5 258.5t-253.5 167.5q-6 -10 -16.5 -23t-19.5 -18q123 -54 231.5 -144t191 -217t126.5 -293h-290
q-46 91 -104.5 169t-124.5 137q-7 -7 -19.5 -17.5t-22.5 -16.5q102 -84 181 -212t128 -276l50 12q-14 40 -30.5 79.5t-33.5 77.5h285z" />
</svg>
