<?xml version="1.0" standalone="no"?>
<!DOCTYPE svg PUBLIC "-//W3C//DTD SVG 1.1//EN" "http://www.w3.org/Graphics/SVG/1.1/DTD/svg11.dtd" >
<svg xmlns="http://www.w3.org/2000/svg" xmlns:xlink="http://www.w3.org/1999/xlink" version="1.1" viewBox="-10 0 1010 1000">
   <path fill="currentColor"
d="M584 880h250q30 0 45.5 -13.5t22 -50t9.5 -104.5q23 14 47 21q-5 74 -15.5 116.5t-35.5 60t-74 17.5h-248q-49 0 -77 -9.5t-39.5 -33.5t-11.5 -69v-296h-402v-47h402v-284q-84 11 -168 19.5t-164 14.5q-3 -22 -14 -43q93 -8 193.5 -19t197 -24.5t180.5 -29.5t144 -35
l27 42q-67 21 -157.5 38t-190.5 31v290h444v47h-444v298q0 37 15 50t64 13z" />
</svg>
