<?xml version="1.0" standalone="no"?>
<!DOCTYPE svg PUBLIC "-//W3C//DTD SVG 1.1//EN" "http://www.w3.org/Graphics/SVG/1.1/DTD/svg11.dtd" >
<svg xmlns="http://www.w3.org/2000/svg" xmlns:xlink="http://www.w3.org/1999/xlink" version="1.1" viewBox="-10 0 1010 1000">
   <path fill="currentColor"
d="M457 62l48 19q-49 75 -114 153t-137.5 150t-146.5 129q-7 -8 -17 -18t-18 -17q73 -54 145.5 -123.5t135 -145.5t104.5 -147zM935 918l-43 26q-13 -24 -30.5 -53t-38.5 -60q-153 13 -262.5 22.5t-183.5 16t-119.5 11t-71 7t-38 5t-20.5 5.5q-3 -9 -9.5 -24.5t-11.5 -25.5
q20 -5 54 -31.5t78 -67.5q24 -21 71 -67.5t107 -112t124 -142t122 -155.5l49 23q-121 158 -248.5 297.5t-252.5 243.5l582 -49q-37 -52 -78 -104.5t-81 -97.5l41 -21q50 55 100 119t92.5 125.5t67.5 109.5z" />
</svg>
