<?xml version="1.0" standalone="no"?>
<!DOCTYPE svg PUBLIC "-//W3C//DTD SVG 1.1//EN" "http://www.w3.org/Graphics/SVG/1.1/DTD/svg11.dtd" >
<svg xmlns="http://www.w3.org/2000/svg" xmlns:xlink="http://www.w3.org/1999/xlink" version="1.1" viewBox="-10 0 1010 1000">
   <path fill="currentColor"
d="M277 867h502q38 0 58 -16.5t28.5 -60.5t11.5 -127q10 6 24.5 11t25.5 7q-6 95 -20 146t-44.5 70t-85.5 19h-492q-95 0 -142.5 -31t-47.5 -86q0 -17 5 -36.5t23 -48t55.5 -71.5t102 -105.5t163.5 -150t239 -205.5h-587v-48h652l12 -4l34 23q-2 3 -5 5t-7 4
q-150 126 -256.5 219t-176.5 158.5t-111 109.5t-60.5 71.5t-25.5 45t-6 30.5q0 37 37 54t94 17z" />
</svg>
