<?xml version="1.0" standalone="no"?>
<!DOCTYPE svg PUBLIC "-//W3C//DTD SVG 1.1//EN" "http://www.w3.org/Graphics/SVG/1.1/DTD/svg11.dtd" >
<svg xmlns="http://www.w3.org/2000/svg" xmlns:xlink="http://www.w3.org/1999/xlink" version="1.1" viewBox="-10 0 1010 1000">
   <path fill="currentColor"
d="M415 871h357q43 0 65 -15t32 -54t15 -110q21 13 47 20q-7 76 -20.5 121t-45.5 64t-96 19h-349q-62 0 -98.5 -11t-51.5 -40t-15 -83v-338l-203 63l-13 -43l216 -66v-317h47v302l472 -147l16 -14l35 12l-2 10q-1 68 -4.5 146t-8 150.5t-11.5 126.5l-41 -12
q6 -47 9.5 -110.5t5.5 -132.5t3 -131l-474 148v356q0 33 9 52t33.5 26.5t70.5 7.5z" />
</svg>
