<?xml version="1.0" standalone="no"?>
<!DOCTYPE svg PUBLIC "-//W3C//DTD SVG 1.1//EN" "http://www.w3.org/Graphics/SVG/1.1/DTD/svg11.dtd" >
<svg xmlns="http://www.w3.org/2000/svg" xmlns:xlink="http://www.w3.org/1999/xlink" version="1.1" viewBox="-10 0 1010 1000">
   <path fill="currentColor"
d="M881 221l34 15q-26 62 -60.5 126t-68.5 107l-41 -19q26 -33 53 -81.5t49 -97.5h-306v598q0 29 -9 42.5t-30 20.5t-61.5 7.5t-107.5 0.5q-2 -10 -7 -24t-11 -24q55 1 97.5 1t56.5 -1q13 -1 18.5 -5.5t5.5 -16.5v-599h-238q-35 59 -74.5 111.5t-80.5 94.5
q-7 -7 -20.5 -16.5t-23.5 -13.5q78 -73 144.5 -179t109.5 -221l49 13q-17 42 -36 83t-41 81h589z" />
</svg>
