<?xml version="1.0" standalone="no"?>
<!DOCTYPE svg PUBLIC "-//W3C//DTD SVG 1.1//EN" "http://www.w3.org/Graphics/SVG/1.1/DTD/svg11.dtd" >
<svg xmlns="http://www.w3.org/2000/svg" xmlns:xlink="http://www.w3.org/1999/xlink" version="1.1" viewBox="-10 0 1010 1000">
   <path fill="currentColor"
d="M836 135v49h-668v-49h668zM940 467h-482q-54 104 -116.5 204t-126.5 180l561 -49q-34 -52 -71.5 -106t-72.5 -100l42 -21q43 56 89 120.5t86 125.5t64 108l-45 26q-12 -23 -28 -50.5t-35 -57.5q-144 13 -247 22.5t-172.5 16t-113 11t-68 8t-37 6t-21.5 6.5
q-2 -9 -7.5 -26t-10.5 -28q14 -3 33 -24t41 -54q12 -14 33.5 -45.5t49 -75t56 -94t53.5 -103.5h-332v-48h878v48z" />
</svg>
