<?xml version="1.0" standalone="no"?>
<!DOCTYPE svg PUBLIC "-//W3C//DTD SVG 1.1//EN" "http://www.w3.org/Graphics/SVG/1.1/DTD/svg11.dtd" >
<svg xmlns="http://www.w3.org/2000/svg" xmlns:xlink="http://www.w3.org/1999/xlink" version="1.1" viewBox="-10 0 1010 1000">
   <path fill="currentColor"
d="M796 540l9 -3l36 19q-30 39 -69 88.5t-82 103t-87 106.5t-84 101l-47 -23q47 -54 98.5 -116t100 -121.5t84.5 -106.5h-590v-48h631zM329 367h345v46h-345v-46zM502 44l45 20q-4 7 -8.5 13t-9.5 13q38 47 89 94.5t108.5 91.5t117 79.5t113.5 59.5q-10 8 -20 20t-17 22
q-68 -34 -145 -86.5t-149 -116t-126 -128.5q-53 67 -121.5 129t-145 114t-155.5 91q-6 -9 -15.5 -20t-20.5 -18q91 -42 178 -102t160 -131t122 -145z" />
</svg>
