<?xml version="1.0" standalone="no"?>
<!DOCTYPE svg PUBLIC "-//W3C//DTD SVG 1.1//EN" "http://www.w3.org/Graphics/SVG/1.1/DTD/svg11.dtd" >
<svg xmlns="http://www.w3.org/2000/svg" xmlns:xlink="http://www.w3.org/1999/xlink" version="1.1" viewBox="-10 0 1010 1000">
   <path fill="currentColor"
d="M291 567v-137h49v137q0 50 -7 101.5t-29.5 102t-67.5 97t-121 86.5q-6 -8 -17.5 -18.5t-20.5 -16.5q73 -37 116 -80t64 -88.5t27.5 -92t6.5 -91.5zM664 956v-527h49v527h-49zM501 44l38 25q-4 6 -7.5 12t-6.5 12q36 50 86 99.5t109.5 93.5t123 78.5t126.5 54.5
q-8 8 -18.5 20.5t-16.5 23.5q-80 -30 -161 -81.5t-151.5 -116.5t-121.5 -135q-51 72 -121 138t-150 119t-162 86q-4 -10 -12.5 -22.5t-16.5 -21.5q69 -25 137.5 -65t129.5 -91.5t111.5 -109.5t83.5 -119z" />
</svg>
