<?xml version="1.0" standalone="no"?>
<!DOCTYPE svg PUBLIC "-//W3C//DTD SVG 1.1//EN" "http://www.w3.org/Graphics/SVG/1.1/DTD/svg11.dtd" >
<svg xmlns="http://www.w3.org/2000/svg" xmlns:xlink="http://www.w3.org/1999/xlink" version="1.1" viewBox="-10 0 1010 1000">
   <path fill="currentColor"
d="M257 735l24 -39q55 16 115.5 36.5t119.5 43.5t110.5 46t87.5 44l-25 45q-36 -21 -86.5 -45t-109.5 -48t-119.5 -45.5t-116.5 -37.5zM370 455l28 -32q48 23 98.5 53.5t95.5 62t74 57.5l-31 37q-28 -26 -72.5 -58t-95 -63.5t-97.5 -56.5zM496 51l42 19q-4 5 -7.5 11
t-6.5 13q87 130 196 215t234 150q-8 7 -17.5 17.5t-14.5 20.5q-122 -66 -227 -151.5t-195 -215.5q-51 75 -117 144.5t-141.5 127.5t-155.5 101q-6 -9 -15 -19.5t-18 -17.5q89 -45 173 -110.5t154 -144t116 -160.5z" />
</svg>
