<?xml version="1.0" standalone="no"?>
<!DOCTYPE svg PUBLIC "-//W3C//DTD SVG 1.1//EN" "http://www.w3.org/Graphics/SVG/1.1/DTD/svg11.dtd" >
<svg xmlns="http://www.w3.org/2000/svg" xmlns:xlink="http://www.w3.org/1999/xlink" version="1.1" viewBox="-10 0 1010 1000">
   <path fill="currentColor"
d="M91 600v-47h824v47h-450q-54 73 -112 141.5t-118 124.5l516 -45q-31 -37 -65 -73t-67 -66l40 -21q45 40 89.5 87t81.5 93.5t59 83.5l-43 27q-22 -38 -61 -88q-165 15 -274 25t-175.5 16.5t-102 10.5t-51.5 7t-25 6q-2 -8 -7 -25t-10 -27q14 -2 32 -16.5t41 -37.5
q15 -13 45.5 -46.5t68.5 -80t73 -96.5h-309zM262 362h481v45h-481v-45zM509 50l49 20q-7 10 -13.5 19t-13.5 18q44 50 111 104t147.5 101t164.5 78q-8 8 -18 21t-16 22q-82 -33 -161 -82t-145 -104t-111 -105q-76 90 -182 167t-233 136q-6 -9 -16.5 -20.5t-19.5 -18.5
q100 -45 188 -101.5t157 -121t112 -133.5z" />
</svg>
