<?xml version="1.0" standalone="no"?>
<!DOCTYPE svg PUBLIC "-//W3C//DTD SVG 1.1//EN" "http://www.w3.org/Graphics/SVG/1.1/DTD/svg11.dtd" >
<svg xmlns="http://www.w3.org/2000/svg" xmlns:xlink="http://www.w3.org/1999/xlink" version="1.1" viewBox="-10 0 1010 1000">
   <path fill="currentColor"
d="M742 31l36 36q-52 37 -124 71.5t-152 64.5t-158 56q-5 -19 -16 -37q76 -26 154 -57t146.5 -65.5t113.5 -68.5zM269 54l45 13q-18 55 -41 109t-49 106v669h-46v-586q-25 43 -52 81t-55 71q-4 -8 -13 -22t-16 -22q46 -51 88 -118t77.5 -144t61.5 -157zM429 665l45 14
q-30 56 -75.5 116.5t-92.5 103.5q-7 -6 -17 -14t-18 -13q47 -41 90 -98t68 -109zM848 582l-212 22v290q0 19 -5.5 30t-20.5 16q-16 6 -44 7t-75 1q-2 -9 -6.5 -20.5t-9.5 -20.5q34 1 62 1h35q9 -1 12.5 -3.5t3.5 -10.5v-285q-78 8 -126 13.5t-73.5 9t-37.5 6.5t-19 6
q-2 -8 -6.5 -22.5t-9.5 -24.5q19 -2 49.5 -17t68.5 -39q26 -14 80.5 -50.5t121.5 -86.5q-84 7 -134.5 12t-77 8t-38.5 5.5t-18 4.5q-1 -8 -5.5 -22t-8.5 -22q29 -5 75 -37q18 -10 56.5 -38t85 -66t88.5 -79l41 22q-60 53 -121 100.5t-121 85.5l236 -18q32 -25 64.5 -51.5
t62.5 -54.5l39 28q-205 177 -414 297l371 -37q-17 -21 -35 -42.5t-35 -40.5l35 -21q29 31 59.5 67.5t57 70.5t43.5 60l-37 25q-10 -17 -25 -37t-32 -42zM745 674l37 -21q32 31 63.5 69t57.5 74.5t40 65.5l-38 23q-14 -29 -40 -66t-57.5 -75.5t-62.5 -69.5z" />
</svg>
