<?xml version="1.0" standalone="no"?>
<!DOCTYPE svg PUBLIC "-//W3C//DTD SVG 1.1//EN" "http://www.w3.org/Graphics/SVG/1.1/DTD/svg11.dtd" >
<svg xmlns="http://www.w3.org/2000/svg" xmlns:xlink="http://www.w3.org/1999/xlink" version="1.1" viewBox="-10 0 1010 1000">
   <path fill="currentColor"
d="M856 130v47h-706v-47h706zM696 889h153q23 0 34 -13.5t15 -53.5t6 -119q22 17 46 22q-3 83 -11 128.5t-28.5 63.5t-59.5 18h-158q-57 0 -77 -17.5t-20 -68.5v-388h-211q-7 82 -23 156.5t-47.5 137.5t-85.5 113t-139 83q-4 -8 -13.5 -19t-17.5 -17q81 -31 132 -77
t80.5 -105t43.5 -128t20 -144h-270v-46h872v46h-293v388q0 24 10 32t42 8z" />
</svg>
