<?xml version="1.0" standalone="no"?>
<!DOCTYPE svg PUBLIC "-//W3C//DTD SVG 1.1//EN" "http://www.w3.org/Graphics/SVG/1.1/DTD/svg11.dtd" >
<svg xmlns="http://www.w3.org/2000/svg" xmlns:xlink="http://www.w3.org/1999/xlink" version="1.1" viewBox="-10 0 1010 1000">
   <path fill="currentColor"
d="M671 900h165q23 0 34.5 -11.5t16.5 -47.5t7 -107q8 6 21 11t23 7q-3 75 -11.5 115.5t-28.5 55.5t-58 15h-171q-60 0 -81 -14.5t-21 -60.5v-299h-141q-9 78 -28.5 140.5t-57 110t-100 82t-157.5 56.5q-4 -8 -12.5 -19.5t-16.5 -17.5q90 -20 149 -51t94 -74.5t52.5 -100
t24.5 -126.5h-206v-428h1q46 -11 94.5 -24t91.5 -28t72 -29l42 35q-51 21 -118.5 40t-132.5 33v148h231v44h-231v163h575v-162h-232v-45h232v-146h-250v-46h298v445h-226v300q0 22 10.5 29t45.5 7z" />
</svg>
