<?xml version="1.0" standalone="no"?>
<!DOCTYPE svg PUBLIC "-//W3C//DTD SVG 1.1//EN" "http://www.w3.org/Graphics/SVG/1.1/DTD/svg11.dtd" >
<svg xmlns="http://www.w3.org/2000/svg" xmlns:xlink="http://www.w3.org/1999/xlink" version="1.1" viewBox="-10 0 1010 1000">
   <path fill="currentColor"
d="M340 63l48 13q-49 120 -129.5 216t-175.5 160q-7 -6 -19.5 -17t-22.5 -16q97 -59 175.5 -151t123.5 -205zM340 575h449l-0.5 9.5t-1.5 14.5q-13 99 -26 162t-27.5 98.5t-33.5 52.5q-15 13 -32.5 17.5t-44.5 5.5q-25 0 -76.5 -1t-108.5 -6q-1 -11 -5.5 -23.5t-12.5 -22.5
q41 4 79.5 6t68 2.5t42.5 0.5q21 0 32 -1.5t20 -7.5q23 -18 40 -78t33 -184h-462q20 -45 42 -108t40 -121h-121v-46h536v46h-368q-15 46 -31.5 94.5t-30.5 89.5zM605 64l43 -14q31 73 80 142.5t109 125.5t122 89q-9 7 -19 18t-16 21q-63 -37 -123.5 -96.5t-111 -133.5
t-84.5 -152z" />
</svg>
