<?xml version="1.0" standalone="no"?>
<!DOCTYPE svg PUBLIC "-//W3C//DTD SVG 1.1//EN" "http://www.w3.org/Graphics/SVG/1.1/DTD/svg11.dtd" >
<svg xmlns="http://www.w3.org/2000/svg" xmlns:xlink="http://www.w3.org/1999/xlink" version="1.1" viewBox="-10 0 1010 1000">
   <path fill="currentColor"
d="M934 229h-528q-39 83 -91 157h484v494q0 26 -7.5 40t-29.5 20q-21 7 -62.5 8t-109.5 1q-2 -11 -7 -24t-10 -24q56 1 99 1.5t56 -0.5q14 -1 19 -5.5t5 -17.5v-448h-426v522h-48v-516q-43 55 -93 102.5t-109 86.5q-4 -9 -13 -20.5t-17 -18.5q100 -65 176.5 -159t128.5 -199
h-281v-47h303q15 -33 27.5 -66.5t22.5 -67.5l50 12q-10 31 -21.5 61.5t-23.5 60.5h506v47z" />
</svg>
