<?xml version="1.0" standalone="no"?>
<!DOCTYPE svg PUBLIC "-//W3C//DTD SVG 1.1//EN" "http://www.w3.org/Graphics/SVG/1.1/DTD/svg11.dtd" >
<svg xmlns="http://www.w3.org/2000/svg" xmlns:xlink="http://www.w3.org/1999/xlink" version="1.1" viewBox="-10 0 1010 1000">
   <path fill="currentColor"
d="M475 272h425l-0.5 11.5t-0.5 16.5q-9 158 -18.5 268t-19.5 180.5t-22.5 110.5t-29.5 58q-16 17 -33 23t-43 8q-25 1 -68.5 0t-90.5 -5q-1 -11 -5 -24.5t-12 -23.5q54 5 99 6t64 1q16 0 26.5 -2.5t19.5 -11.5q14 -14 26 -50.5t21.5 -103t18.5 -168.5t17 -246h-376
q-5 78 -23.5 161t-59 166t-111.5 161.5t-182 148.5q-6 -9 -17 -20t-20 -17q108 -67 176.5 -141.5t107.5 -152.5t56.5 -155.5t22.5 -150.5h-334v-48h337q1 -18 1 -35v-34v-153h49v153v34t-1 35z" />
</svg>
