<?xml version="1.0" standalone="no"?>
<!DOCTYPE svg PUBLIC "-//W3C//DTD SVG 1.1//EN" "http://www.w3.org/Graphics/SVG/1.1/DTD/svg11.dtd" >
<svg xmlns="http://www.w3.org/2000/svg" xmlns:xlink="http://www.w3.org/1999/xlink" version="1.1" viewBox="-10 0 1010 1000">
   <path fill="currentColor"
d="M762 787h-545v77h-47v-472h47v350h545v45zM481 299l46 8q-17 85 -45 155q40 32 81.5 69t78 73t60.5 64l-37 32q-21 -26 -54 -60t-71 -70t-76 -68q-63 131 -171 209q-6 -7 -17 -16.5t-20 -15.5q89 -59 145 -156t80 -224zM908 194v30q-5 184 -10 310t-12 205t-16 121
t-23 60t-29.5 24t-39.5 8q-22 1 -60 0.5t-78 -3.5q-1 -10 -4 -22.5t-10 -22.5q46 4 84.5 4.5t54.5 0.5q25 1 39 -15q11 -14 19.5 -53.5t15 -115t12 -194.5t9.5 -291h-601q-37 65 -81.5 121.5t-91.5 100.5q-6 -6 -19 -16t-22 -16q80 -68 145.5 -169t107.5 -214l48 13
q-13 34 -28.5 68t-32.5 66h623z" />
</svg>
