<?xml version="1.0" standalone="no"?>
<!DOCTYPE svg PUBLIC "-//W3C//DTD SVG 1.1//EN" "http://www.w3.org/Graphics/SVG/1.1/DTD/svg11.dtd" >
<svg xmlns="http://www.w3.org/2000/svg" xmlns:xlink="http://www.w3.org/1999/xlink" version="1.1" viewBox="-10 0 1010 1000">
   <path fill="currentColor"
d="M155 876h792v46h-840v-814h815v46h-767v722zM813 757l-41 34q-39 -50 -96.5 -114t-125.5 -131q-65 71 -136 133t-144 112q-6 -7 -18.5 -18.5t-21.5 -17.5q76 -48 148.5 -109.5t138.5 -131.5q-64 -62 -130.5 -122.5t-129.5 -112.5l36 -28q62 51 127.5 109.5t127.5 117.5
q109 -125 190 -266l45 18q-43 75 -94 145.5t-108 135.5q70 67 130.5 131t101.5 115z" />
</svg>
