<?xml version="1.0" standalone="no"?>
<!DOCTYPE svg PUBLIC "-//W3C//DTD SVG 1.1//EN" "http://www.w3.org/Graphics/SVG/1.1/DTD/svg11.dtd" >
<svg xmlns="http://www.w3.org/2000/svg" xmlns:xlink="http://www.w3.org/1999/xlink" version="1.1" viewBox="-10 0 1010 1000">
   <path fill="currentColor"
d="M900 869l-47 25q-7 -23 -18 -51t-23 -59q-150 10 -257.5 18t-180 13t-117.5 9t-70.5 7t-38 5.5t-21.5 6.5q-2 -10 -9 -26.5t-14 -27.5q17 -5 39.5 -39.5t52.5 -84.5q16 -25 47.5 -82t70 -135.5t77.5 -167.5t70 -179l53 21q-45 118 -98.5 235.5t-112 225t-117.5 196.5
l607 -40q-27 -64 -58.5 -131.5t-62.5 -127.5l43 -19q26 50 53.5 106t52.5 111t45.5 104.5t33.5 86.5z" />
</svg>
