<?xml version="1.0" standalone="no"?>
<!DOCTYPE svg PUBLIC "-//W3C//DTD SVG 1.1//EN" "http://www.w3.org/Graphics/SVG/1.1/DTD/svg11.dtd" >
<svg xmlns="http://www.w3.org/2000/svg" xmlns:xlink="http://www.w3.org/1999/xlink" version="1.1" viewBox="-10 0 1010 1000">
   <path fill="currentColor"
d="M751 524h-376q73 127 198 222q57 -44 102 -99.5t76 -122.5zM786 476l30 19q-34 87 -86.5 156.5t-117.5 122.5q72 49 155.5 85t175.5 56q-7 7 -15.5 19t-13.5 22q-94 -23 -180 -62t-160 -92q-74 54 -159.5 91.5t-176.5 62.5q-4 -9 -12.5 -21t-16.5 -19q89 -22 172.5 -57
t155.5 -85q-61 -50 -111.5 -109t-88.5 -126q-38 89 -98.5 172t-152.5 139q-5 -7 -14.5 -16.5t-17.5 -15.5q68 -41 117.5 -96.5t85 -119.5t59 -129.5t38.5 -125.5h-291v-45h301q9 -42 14.5 -77t9.5 -60q-67 7 -133.5 11.5t-129.5 8.5q-1 -10 -4.5 -21.5t-7.5 -19.5
q90 -6 187 -14t190 -19t173.5 -24.5t137.5 -30.5l34 39q-76 21 -179.5 37.5t-216.5 28.5q-4 25 -10.5 61t-16.5 80h530v45h-540q-8 31 -18 64.5t-22 67.5h414z" />
</svg>
