<?xml version="1.0" standalone="no"?>
<!DOCTYPE svg PUBLIC "-//W3C//DTD SVG 1.1//EN" "http://www.w3.org/Graphics/SVG/1.1/DTD/svg11.dtd" >
<svg xmlns="http://www.w3.org/2000/svg" xmlns:xlink="http://www.w3.org/1999/xlink" version="1.1" viewBox="-10 0 1010 1000">
   <path fill="currentColor"
d="M572 450h-284v260h284v-260zM620 755h-332v75h-47v-425h379v350zM909 201v29q-7 179 -14 303.5t-15.5 204t-20 123t-27.5 61.5q-16 19 -34 26t-45 9q-28 1 -77 -0.5t-99 -4.5q-1 -12 -5 -25.5t-12 -23.5q60 5 110.5 6t69.5 1q31 1 47 -15q14 -14 25 -54.5t19.5 -116
t15.5 -192.5t13 -284h-587q-39 80 -85 149.5t-98 123.5q-6 -6 -19 -16.5t-23 -16.5q83 -79 148 -195t105 -246l49 12q-12 37 -25.5 72t-29.5 70h614z" />
</svg>
