<?xml version="1.0" standalone="no"?>
<!DOCTYPE svg PUBLIC "-//W3C//DTD SVG 1.1//EN" "http://www.w3.org/Graphics/SVG/1.1/DTD/svg11.dtd" >
<svg xmlns="http://www.w3.org/2000/svg" xmlns:xlink="http://www.w3.org/1999/xlink" version="1.1" viewBox="-10 0 1010 1000">
   <path fill="currentColor"
d="M821 253h-417q-25 36 -52.5 69t-56.5 63q58 34 118 75t113.5 81.5t90.5 76.5q68 -74 120 -165t84 -200zM851 203l33 16q-42 158 -117 280.5t-173 212.5t-211.5 150.5t-233.5 94.5q-4 -11 -12 -24.5t-16 -21.5q125 -32 243.5 -95.5t216.5 -160.5q-36 -36 -88.5 -77.5
t-112 -83t-117.5 -75.5q-64 59 -128 103q-6 -7 -19 -18t-22 -17q118 -74 214 -189t156 -252l49 15q-34 75 -78 145h406z" />
</svg>
