<?xml version="1.0" standalone="no"?>
<!DOCTYPE svg PUBLIC "-//W3C//DTD SVG 1.1//EN" "http://www.w3.org/Graphics/SVG/1.1/DTD/svg11.dtd" >
<svg xmlns="http://www.w3.org/2000/svg" xmlns:xlink="http://www.w3.org/1999/xlink" version="1.1" viewBox="-10 0 1010 1000">
   <path fill="currentColor"
d="M937 392h-392q36 118 93.5 219t136 177t176.5 119q-10 8 -19.5 21t-16.5 24q-151 -72 -254.5 -215t-161.5 -331q-16 78 -45.5 156t-77.5 150.5t-119.5 134t-171.5 106.5q-6 -10 -16 -21t-20 -18q98 -42 167.5 -100.5t116.5 -127.5t75.5 -144t44.5 -150h-386v-48h394
q14 -86 16 -162.5t3 -133.5h50q-1 58 -3.5 134.5t-15.5 161.5h426v48z" />
</svg>
