<?xml version="1.0" standalone="no"?>
<!DOCTYPE svg PUBLIC "-//W3C//DTD SVG 1.1//EN" "http://www.w3.org/Graphics/SVG/1.1/DTD/svg11.dtd" >
<svg xmlns="http://www.w3.org/2000/svg" xmlns:xlink="http://www.w3.org/1999/xlink" version="1.1" viewBox="-10 0 1010 1000">
   <path fill="currentColor"
d="M936 489h-397q52 156 157.5 266t260.5 156q-8 8 -17.5 20.5t-14.5 22.5q-156 -53 -262.5 -166.5t-163.5 -275.5q-18 78 -63 156.5t-130 151t-224 134.5q-13 -23 -31 -40q136 -60 218.5 -130t125 -145.5t58.5 -149.5h-384v-49h393q5 -35 6.5 -69t1.5 -65v-127h-367v-48
h789v48h-373v127q0 32 -1 65.5t-6 68.5h424v49z" />
</svg>
