<?xml version="1.0" standalone="no"?>
<!DOCTYPE svg PUBLIC "-//W3C//DTD SVG 1.1//EN" "http://www.w3.org/Graphics/SVG/1.1/DTD/svg11.dtd" >
<svg xmlns="http://www.w3.org/2000/svg" xmlns:xlink="http://www.w3.org/1999/xlink" version="1.1" viewBox="-10 0 1010 1000">
   <path fill="currentColor"
d="M122 568v-43h753v43h-532q-10 28 -20.5 57t-20.5 55h479l-1 9.5t-3 14.5q-19 103 -37.5 154t-43.5 71q-15 11 -30.5 14.5t-40.5 5.5q-22 0 -69 -1t-101 -5q-2 -23 -15 -45q56 6 104.5 7.5t67.5 1.5q20 0 30 -1.5t18 -7.5q19 -14 34.5 -54.5t31.5 -121.5h-492
q15 -32 30.5 -73t28.5 -81h-171zM291 369h420v42h-420v-42zM935 223h-279q34 50 82 95t105.5 80.5t118.5 57.5q-7 9 -13 22.5t-9 23.5q-68 -29 -132 -71.5t-116 -95.5t-87 -112h-206q-53 80 -134 153t-192 126q-4 -8 -13 -19.5t-17 -17.5q99 -47 173.5 -109.5t125.5 -132.5
h-275v-45h304q20 -33 34.5 -66t24.5 -64l51 7q-10 31 -23.5 61.5t-31.5 61.5h509v45z" />
</svg>
