<?xml version="1.0" standalone="no"?>
<!DOCTYPE svg PUBLIC "-//W3C//DTD SVG 1.1//EN" "http://www.w3.org/Graphics/SVG/1.1/DTD/svg11.dtd" >
<svg xmlns="http://www.w3.org/2000/svg" xmlns:xlink="http://www.w3.org/1999/xlink" version="1.1" viewBox="-10 0 1010 1000">
   <path fill="currentColor"
d="M524 238v218q0 25 10 68.5t35.5 96.5t74 107t124.5 101.5t186 80.5q-7 9 -16 22t-14 22q-96 -30 -165.5 -72t-116.5 -89t-76.5 -93t-45 -85.5t-21.5 -66.5q-5 27 -20.5 66t-45.5 85t-77.5 92.5t-116.5 88.5t-163 74q-5 -7 -14.5 -19t-17.5 -20q110 -34 186 -82.5
t124.5 -103t74.5 -107.5t36 -96.5t10 -69.5v-218h-416v-46h416v-141h49v141h418v46h-418zM261 276l46 9q-17 73 -42 133q27 22 54.5 47.5t52 49.5t39.5 42l-29 36q-22 -26 -59.5 -64t-75.5 -72q-28 59 -65.5 108t-81.5 87q-6 -6 -17 -16t-20 -16q74 -57 124 -145.5
t74 -198.5zM728 279l45 6q-7 37 -16.5 70.5t-21.5 65.5q35 29 72 62.5t69.5 65t53.5 55.5l-33 34q-19 -24 -48.5 -54t-63.5 -62t-68 -61q-47 95 -117 155q-7 -6 -19 -14.5t-21 -13.5q65 -51 107 -130t61 -179z" />
</svg>
