<?xml version="1.0" standalone="no"?>
<!DOCTYPE svg PUBLIC "-//W3C//DTD SVG 1.1//EN" "http://www.w3.org/Graphics/SVG/1.1/DTD/svg11.dtd" >
<svg xmlns="http://www.w3.org/2000/svg" xmlns:xlink="http://www.w3.org/1999/xlink" version="1.1" viewBox="-10 0 1010 1000">
   <path fill="currentColor"
d="M948 498v47h-421v335q0 31 -10 44.5t-34 20.5q-23 6 -70 7.5t-121 1.5q-3 -11 -9 -24.5t-13 -25.5q65 2 115.5 2t66.5 -1q15 -1 20.5 -6t5.5 -19v-335h-423v-47h423v-149q47 -22 98.5 -51.5t100 -63t86.5 -66.5h-607v-47h658l12 -3l35 27q-43 42 -100 84.5t-117.5 80
t-116.5 65.5v123h421z" />
</svg>
