<?xml version="1.0" standalone="no"?>
<!DOCTYPE svg PUBLIC "-//W3C//DTD SVG 1.1//EN" "http://www.w3.org/Graphics/SVG/1.1/DTD/svg11.dtd" >
<svg xmlns="http://www.w3.org/2000/svg" xmlns:xlink="http://www.w3.org/1999/xlink" version="1.1" viewBox="-10 0 1010 1000">
   <path fill="currentColor"
d="M198 456h346v-129h-345v65v31.5t-1 32.5zM825 148h-626v135h626v-135zM807 870v-188h-469v188h469zM934 500h-343v138h263v312h-47v-36h-469v38h-47v-314h253v-138h-347q-3 74 -14.5 154.5t-35.5 157t-66 141.5q-6 -7 -19 -14t-22 -11q38 -59 60.5 -127.5t33.5 -140
t14 -140t3 -128.5v-288h722v223h-282v129h343v44z" />
</svg>
