<?xml version="1.0" standalone="no"?>
<!DOCTYPE svg PUBLIC "-//W3C//DTD SVG 1.1//EN" "http://www.w3.org/Graphics/SVG/1.1/DTD/svg11.dtd" >
<svg xmlns="http://www.w3.org/2000/svg" xmlns:xlink="http://www.w3.org/1999/xlink" version="1.1" viewBox="-10 0 1010 1000">
   <path fill="currentColor"
d="M677 69l43 28q-65 47 -150.5 92.5t-176 84t-173.5 65.5q-6 -9 -15.5 -22t-17.5 -22q60 -18 127 -43t133 -55t125.5 -62.5t104.5 -65.5zM727 321l44 26q-63 57 -149 110t-181 96.5t-186 73.5q-6 -10 -14.5 -22.5t-18.5 -20.5q67 -21 137.5 -49.5t138 -62.5t126.5 -72.5
t103 -78.5zM807 572l44 25q-69 83 -171 151.5t-225.5 119.5t-256.5 84q-4 -11 -13 -24t-17 -23q131 -30 252.5 -78.5t221.5 -112.5t165 -142z" />
</svg>
