<?xml version="1.0" standalone="no"?>
<!DOCTYPE svg PUBLIC "-//W3C//DTD SVG 1.1//EN" "http://www.w3.org/Graphics/SVG/1.1/DTD/svg11.dtd" >
<svg xmlns="http://www.w3.org/2000/svg" xmlns:xlink="http://www.w3.org/1999/xlink" version="1.1" viewBox="-10 0 1010 1000">
   <path fill="currentColor"
d="M608 245l-32 39q-30 -26 -74.5 -61.5t-93 -71.5t-92.5 -65l32 -34q45 30 94 65.5t93 69.5t73 58zM160 368l44 12q-11 53 -28 115t-40 121t-53 103l-44 -21q31 -43 54.5 -100t40.5 -117.5t26 -112.5zM441 900h217q31 0 46.5 -16t22.5 -60t10 -129q23 16 48 23
q-5 88 -15 138t-35.5 70.5t-75.5 20.5h-219q-46 0 -72.5 -9t-37 -31.5t-10.5 -64.5v-100q-58 41 -120.5 77t-129.5 68q-5 -8 -14 -19t-17 -18q76 -34 146.5 -75.5t134.5 -89.5v-385h49v347q142 -113 252.5 -252t184.5 -288l47 21q-86 163 -207.5 311t-276.5 267v138
q0 34 14 45t58 11zM751 400l42 -17q36 50 70 109.5t61 117t40 102.5l-45 21q-13 -46 -39.5 -104t-60 -118t-68.5 -111z" />
</svg>
