<?xml version="1.0" standalone="no"?>
<!DOCTYPE svg PUBLIC "-//W3C//DTD SVG 1.1//EN" "http://www.w3.org/Graphics/SVG/1.1/DTD/svg11.dtd" >
<svg xmlns="http://www.w3.org/2000/svg" xmlns:xlink="http://www.w3.org/1999/xlink" version="1.1" viewBox="-10 0 1010 1000">
   <path fill="currentColor"
d="M824 181l-31 38q-24 -20 -61 -41.5t-79 -42.5t-81 -37l30 -33q39 15 81 35t79.5 41t61.5 40zM820 384l46 22q-57 88 -128.5 163.5t-154.5 137.5q51 92 114.5 144t133.5 52q22 0 36 -16t22 -55t12 -107q9 7 22.5 14t24.5 10q-7 78 -19.5 122.5t-36 63t-62.5 18.5
q-86 0 -158.5 -58.5t-128.5 -158.5q-93 66 -197 117t-216 91q-4 -9 -14 -22.5t-18 -21.5q116 -38 223 -89.5t199 -116.5q-35 -73 -61.5 -160t-44.5 -184l-349 30l-5 -47l347 -29q-18 -123 -21 -254h53q1 65 5.5 127.5t13.5 121.5l478 -39l5 46l-476 40q16 91 40.5 171.5
t56.5 146.5q77 -59 142.5 -129.5t115.5 -150.5z" />
</svg>
