<?xml version="1.0" standalone="no"?>
<!DOCTYPE svg PUBLIC "-//W3C//DTD SVG 1.1//EN" "http://www.w3.org/Graphics/SVG/1.1/DTD/svg11.dtd" >
<svg xmlns="http://www.w3.org/2000/svg" xmlns:xlink="http://www.w3.org/1999/xlink" version="1.1" viewBox="-10 0 1010 1000">
   <path fill="currentColor"
d="M562 198l-51 17q-10 -31 -33.5 -75.5t-47.5 -81.5l47 -14q25 36 49.5 79.5t35.5 74.5zM734 276h-474q41 106 102 199.5t139 170.5q74 -74 132.5 -166t100.5 -204zM948 276h-159q-94 247 -252 404q86 78 191.5 134.5t229.5 88.5q-9 8 -18 21t-16 23q-125 -35 -231 -94
t-192 -138q-86 76 -192 134t-234 102q-4 -10 -13.5 -23.5t-17.5 -22.5q127 -39 232 -94.5t189 -129.5q-165 -170 -255 -405h-155v-47h893v47z" />
</svg>
