<?xml version="1.0" standalone="no"?>
<!DOCTYPE svg PUBLIC "-//W3C//DTD SVG 1.1//EN" "http://www.w3.org/Graphics/SVG/1.1/DTD/svg11.dtd" >
<svg xmlns="http://www.w3.org/2000/svg" xmlns:xlink="http://www.w3.org/1999/xlink" version="1.1" viewBox="-10 0 1010 1000">
   <path fill="currentColor"
d="M369 828l162 -30l3 49q-85 16 -170.5 32t-163 30.5t-138.5 26.5l-10 -52l85 -15v-623h47v615l137 -24v-790h48v316h158v46h-158v419zM694 868h163q24 0 36 -15.5t17 -56t7 -114.5q23 17 47 23q-4 79 -12.5 124.5t-29.5 65t-62 19.5h-170q-41 0 -64 -9t-32 -33t-9 -68
v-757h51v382q70 -38 137.5 -80.5t109.5 -81.5l41 37q-56 44 -133.5 89t-154.5 83v330q0 38 10.5 50t47.5 12z" />
</svg>
