<?xml version="1.0" standalone="no"?>
<!DOCTYPE svg PUBLIC "-//W3C//DTD SVG 1.1//EN" "http://www.w3.org/Graphics/SVG/1.1/DTD/svg11.dtd" >
<svg xmlns="http://www.w3.org/2000/svg" xmlns:xlink="http://www.w3.org/1999/xlink" version="1.1" viewBox="-10 0 1010 1000">
   <path fill="currentColor"
d="M196 839l281 -75q0 10 2 23.5t3 21.5q-109 31 -174 49.5t-99 29t-48.5 16.5t-22.5 11q-3 -8 -10.5 -21.5t-14.5 -21.5q10 -5 22 -20t12 -45v-760h49v316h274v47h-274v429zM662 882h183q26 0 39 -15.5t18 -56t8 -114.5q10 7 22.5 13t22.5 8q-4 79 -13 125t-31 65.5
t-66 19.5h-185q-43 0 -67 -9.5t-33.5 -33.5t-9.5 -69v-768h48v316h285v47h-285v407q0 40 12 52.5t52 12.5z" />
</svg>
