<?xml version="1.0" standalone="no"?>
<!DOCTYPE svg PUBLIC "-//W3C//DTD SVG 1.1//EN" "http://www.w3.org/Graphics/SVG/1.1/DTD/svg11.dtd" >
<svg xmlns="http://www.w3.org/2000/svg" xmlns:xlink="http://www.w3.org/1999/xlink" version="1.1" viewBox="-10 0 1010 1000">
   <path fill="currentColor"
d="M878 382l-34 41q-60 -35 -144 -74.5t-180 -77.5q-97 46 -204 82t-214 61q-4 -8 -12.5 -21t-15.5 -20q98 -22 197 -53t190 -71q-83 -32 -169.5 -60t-168.5 -48l35 -38q86 22 179.5 52.5t183.5 65.5q79 -38 145.5 -81.5t113.5 -92.5l45 27q-50 47 -113 89.5t-134 79.5
q88 35 165.5 71t134.5 68zM728 397l47 17q-46 91 -105.5 166.5t-133.5 136.5q89 67 195.5 116t224.5 76q-20 18 -32 44q-120 -30 -227.5 -82.5t-198.5 -123.5q-91 67 -198 117.5t-229 87.5q-4 -9 -13 -22.5t-17 -21.5q121 -32 226 -79.5t193 -111.5q-146 -126 -233 -294
l41 -17q41 79 99.5 150t130.5 132q73 -59 130.5 -131.5t99.5 -159.5z" />
</svg>
