<?xml version='1.0' encoding='ASCII' standalone='yes'?>
<svg xmlns="http://www.w3.org/2000/svg" xmlns:xlink="http://www.w3.org/1999/xlink" version="1.1" width="1010" viewBox="0 0 1010 1000" height="1000">
  <g>
    <g transform=" scale(0.500000 1.000000)"><path fill="currentColor" d="M765 115l53 14q-47 180 -116 316.5t-167 239.5q84 79 191.5 136t241.5 89q-9 7 -18.5 20.5t-16.5 23.5q-135 -35 -243 -93t-193 -139q-82 75 -185.5 132t-233.5 101q-5 -10 -16 -24t-20 -23q131 -40 234.5 -95t183.5 -128q-99 -107 -166.5 -246.5t-112.5 -310.5l49 -10 q41 160 106 294t162 236q95 -98 159.5 -229.5t107.5 -303.5z"/>
</g>
    <g transform="translate(505.0, 0) scale(1)  scale(0.500000 1.000000)"><path fill="currentColor" d="M765 115l53 14q-47 180 -116 316.5t-167 239.5q84 79 191.5 136t241.5 89q-9 7 -18.5 20.5t-16.5 23.5q-135 -35 -243 -93t-193 -139q-82 75 -185.5 132t-233.5 101q-5 -10 -16 -24t-20 -23q131 -40 234.5 -95t183.5 -128q-99 -107 -166.5 -246.5t-112.5 -310.5l49 -10 q41 160 106 294t162 236q95 -98 159.5 -229.5t107.5 -303.5z"/>
</g>
  </g>
</svg>
