<?xml version="1.0" standalone="no"?>
<!DOCTYPE svg PUBLIC "-//W3C//DTD SVG 1.1//EN" "http://www.w3.org/Graphics/SVG/1.1/DTD/svg11.dtd" >
<svg xmlns="http://www.w3.org/2000/svg" xmlns:xlink="http://www.w3.org/1999/xlink" version="1.1" viewBox="-10 0 1010 1000">
   <path fill="currentColor"
d="M291 656l47 17q-48 67 -111.5 131.5t-123.5 110.5q-7 -6 -20 -15.5t-22 -15.5q63 -43 125 -103.5t105 -124.5zM828 548l-289 21v312q0 25 -7 38t-27 19q-19 7 -55.5 8.5t-90.5 1.5q-1 -11 -7.5 -25t-12.5 -25q49 1 84 1.5t47 -0.5t15.5 -4.5t3.5 -13.5v-308
q-112 8 -180 13t-104 8.5t-52 6.5t-25 6q-1 -9 -6.5 -25t-10.5 -26q45 -7 138 -64q26 -14 82.5 -50t125.5 -85q-93 7 -149 11t-85.5 7t-42 5t-18.5 4q-1 -8 -6 -23.5t-10 -24.5q14 -3 32.5 -16t40.5 -32q12 -11 36 -34t54.5 -55t62.5 -69.5t60 -76.5l46 26q-57 70 -119 135
t-124 115l285 -17q45 -33 90.5 -69.5t88.5 -73.5l43 31q-248 212 -501 345l554 -36q-26 -29 -54 -58.5t-54 -54.5l39 -20q38 34 78 76t75 83t56 73l-43 25q-12 -18 -28 -40t-36 -45zM651 678l38 -23q44 34 91.5 76t89 82.5t67.5 72.5l-40 28q-25 -32 -66 -73.5t-88 -84.5
t-92 -78z" />
</svg>
