<?xml version="1.0" standalone="no"?>
<!DOCTYPE svg PUBLIC "-//W3C//DTD SVG 1.1//EN" "http://www.w3.org/Graphics/SVG/1.1/DTD/svg11.dtd" >
<svg xmlns="http://www.w3.org/2000/svg" xmlns:xlink="http://www.w3.org/1999/xlink" version="1.1" viewBox="-10 0 1010 1000">
   <path fill="currentColor"
d="M256 204l-40 25q-12 -21 -32.5 -48.5t-43.5 -57t-44 -53.5l37 -20q22 24 45.5 52.5t44 55t33.5 46.5zM254 527l26 10q-10 64 -25.5 120t-35.5 103q35 57 90.5 85.5t133.5 37.5t178 9q52 0 110.5 -1t116.5 -3.5t105 -6.5q-6 9 -11 24t-7 26q-65 4 -150 5.5t-164 1.5
q-106 0 -186 -10t-138 -39t-97 -86q-25 49 -56.5 87.5t-66.5 67.5q-6 -8 -16.5 -19.5t-18.5 -17.5q67 -49 115.5 -138t69.5 -213h-104q-18 0 -34.5 4t-21.5 10q-2 -11 -9 -27t-12 -25q11 -3 22 -9t23 -19t34.5 -45t48 -70.5t45.5 -69.5h-164v-44h195l10 -5l39 17
q-21 30 -51 74t-62.5 88.5t-59.5 78.5h118z" />
</svg>
