<?xml version="1.0" standalone="no"?>
<!DOCTYPE svg PUBLIC "-//W3C//DTD SVG 1.1//EN" "http://www.w3.org/Graphics/SVG/1.1/DTD/svg11.dtd" >
<svg xmlns="http://www.w3.org/2000/svg" xmlns:xlink="http://www.w3.org/1999/xlink" version="1.1" viewBox="-10 0 1010 1000">
   <path fill="currentColor"
d="M795 61l44 15q-21 37 -45.5 75.5t-47.5 67.5l-39 -13q22 -29 47.5 -71t40.5 -74zM288 200l-40 20q-13 -29 -37.5 -68.5t-48.5 -71.5l39 -18q25 33 50.5 71t36.5 67zM382 540l42 11q-28 74 -64.5 147t-74.5 124q-7 -4 -19.5 -10t-21.5 -10q41 -51 77 -121t61 -141z
M754 284l35 25q-31 34 -71.5 67.5t-73.5 56.5l-31 -23q22 -17 48 -39t51 -45t42 -42zM523 277v156h327v446q0 25 -6.5 37t-26.5 19t-58 8t-97 1q-2 -11 -7 -23.5t-10 -22.5q51 1 88 1t50 -1q13 0 17 -4.5t4 -15.5v-401h-281v464h-46v-464h-281v476h-46v-520h327v-156h-420
v-44h320v-186h46v186h152v-186h46v186h322v44h-420zM753 787l-40 18q-14 -34 -37 -78t-50 -90t-54 -85l37 -15q27 39 55 84.5t51.5 89t37.5 76.5zM371 403l-34 28q-19 -25 -54 -59.5t-68 -60.5l32 -24q35 27 70 59.5t54 56.5z" />
</svg>
