<?xml version="1.0" standalone="no"?>
<!DOCTYPE svg PUBLIC "-//W3C//DTD SVG 1.1//EN" "http://www.w3.org/Graphics/SVG/1.1/DTD/svg11.dtd" >
<svg xmlns="http://www.w3.org/2000/svg" xmlns:xlink="http://www.w3.org/1999/xlink" version="1.1" viewBox="-10 0 1010 1000">
   <path fill="currentColor"
d="M857 90l51 20q-33 52 -73 109.5t-81.5 110.5t-79.5 93l-42 -20q37 -40 78.5 -94.5t80.5 -112.5t66 -106zM84 155l44 -19q29 36 56.5 77.5t49 81.5t31.5 72l-45 24q-10 -32 -31.5 -73.5t-48.5 -84t-56 -78.5zM365 89l46 -16q24 39 45.5 83.5t38.5 86.5t25 75l-50 18
q-6 -33 -22 -76t-37.5 -88t-45.5 -83z" />
</svg>
