<?xml version="1.0" standalone="no"?>
<!DOCTYPE svg PUBLIC "-//W3C//DTD SVG 1.1//EN" "http://www.w3.org/Graphics/SVG/1.1/DTD/svg11.dtd" >
<svg xmlns="http://www.w3.org/2000/svg" xmlns:xlink="http://www.w3.org/1999/xlink" version="1.1" viewBox="-10 0 1010 1000">
   <path fill="currentColor"
d="M465 403h9q13 0 37.5 -1.5t53 -4t53 -5t36.5 -4.5q22 -3 34 -15.5t25 -12.5q12 0 31 11.5t37.5 29t31 35t12.5 29.5t-11.5 20.5t-26.5 15.5t-24 17q-40 40 -86.5 89t-102.5 102q25 17 43.5 34t31.5 31q17 18 32 41.5t15 44.5q0 22 -11.5 40t-37.5 18q-25 0 -37 -15
t-27 -40q-45 -77 -101.5 -131.5t-132.5 -111.5l13 -18q52 16 94.5 36.5t76.5 42.5q50 -61 88 -119t60 -101q10 -18 -11 -18q-17 0 -48 3.5l-62 7t-48 6.5q-16 3 -25.5 6.5t-19.5 3.5q-6 0 -15.5 -6.5t-20.5 -16.5q-27 35 -58 70q-49 56 -110.5 117.5t-135.5 108.5l-18 -18
q116 -119 205 -245q26 -37 51.5 -79.5t46 -82.5t31.5 -69q5 -11 3.5 -19t-12.5 -18q-11 -11 -27 -20t-33 -17l7 -18q35 -1 63 2.5t53 17.5q16 8 33.5 22t30 28.5t12.5 26.5q0 17 -14.5 26t-28.5 29q-13 19 -29 43.5t-36 50.5z" />
</svg>
