<?xml version="1.0" standalone="no"?>
<!DOCTYPE svg PUBLIC "-//W3C//DTD SVG 1.1//EN" "http://www.w3.org/Graphics/SVG/1.1/DTD/svg11.dtd" >
<svg xmlns="http://www.w3.org/2000/svg" xmlns:xlink="http://www.w3.org/1999/xlink" version="1.1" viewBox="-10 0 1010 1000">
   <path fill="currentColor"
d="M291 522l23 11q-9 26 -23 65t-26.5 74.5t-18.5 53.5q-7 28 -10.5 45t-3.5 29q0 25 8.5 49t8.5 45q0 45 -41 45q-16 0 -31 -11.5t-28 -30.5q-25 -35 -43 -98t-18 -145q0 -52 8 -103.5t19 -96t19 -74.5q10 -36 17 -66.5t7 -59.5q1 -32 -15.5 -60.5t-38.5 -54.5l12 -11
q22 6 36.5 12.5t30.5 18.5q14 9 32 28.5t32 44t14 49.5q0 19 -10.5 38t-28.5 58q-15 31 -32 74t-28.5 92t-11.5 100q0 31 4 51t10 33q5 10 11.5 10.5t13.5 -10.5q9 -13 22 -39t28 -57.5t29 -60.5t23 -48zM654 731v-3q-46 -13 -105 -13q-29 0 -56.5 8t-45 23.5t-17.5 37.5
q0 31 28.5 44.5t68.5 13.5q52 0 79.5 -12.5t37.5 -37t10 -61.5zM715 409v22q0 70 5 131.5t9 111.5q61 16 101.5 42.5t64.5 49.5q33 31 33 62q0 44 -37 44q-14 0 -27 -10.5t-33 -29.5q-23 -22 -46.5 -40t-48.5 -31v16q0 65 -43.5 102t-140.5 37q-45 0 -82.5 -14.5
t-60.5 -42.5t-23 -68q0 -47 28.5 -76.5t76 -43.5t103.5 -14q30 0 57 3q-2 -50 -5 -112t-4 -118v-9q-26 3 -52 5t-51 2q-31 0 -58 -6.5t-52 -29.5t-51 -71l13 -12q68 48 137 48q32 0 60.5 -3t53.5 -7v-115q0 -26 -5 -33t-18 -11q-15 -5 -33 -8.5t-38 -4.5l-2 -18
q17 -11 40.5 -20.5t42.5 -9.5q29 0 55 9t43 22t17 26q0 17 -5.5 28.5t-10.5 41.5q-3 13 -5 31.5t-4 41.5q7 -2 13.5 -4.5t11.5 -4.5q44 -15 63 -24.5t25 -9.5q22 1 44 11t22 30t-12.5 29.5t-43.5 21.5q-18 7 -51.5 16t-75.5 17zM875 218q30 0 51 -21t21 -51t-21 -51t-51 -21
t-51 21t-21 51t21 51t51 21zM875 36q31 0 55.5 15t39.5 40t15 55q0 46 -32 78t-78 32t-78 -32t-32 -78q0 -30 15 -55t40 -40t55 -15z" />
</svg>
