<?xml version="1.0" standalone="no"?>
<!DOCTYPE svg PUBLIC "-//W3C//DTD SVG 1.1//EN" "http://www.w3.org/Graphics/SVG/1.1/DTD/svg11.dtd" >
<svg xmlns="http://www.w3.org/2000/svg" xmlns:xlink="http://www.w3.org/1999/xlink" version="1.1" viewBox="-10 0 1010 1000">
   <path fill="currentColor"
d="M475 482q27 16 55 42.5t43 58t3 64.5q-11 32 -26 25.5t-29 -46.5q-14 -38 -38.5 -72t-50.5 -57q-28 -29 -17.5 -36t60.5 21zM384 825q19 -2 50 -4t67.5 -4.5t72.5 -3.5t64 1q2 -12 4 -27t3 -33q3 -37 4.5 -89t2 -105.5t1 -95t0.5 -57.5q-1 -37 -3.5 -52.5t-13 -20.5
t-36.5 -8q-15 -2 -43.5 -1.5t-62.5 3t-68 7.5t-61 14q-1 13 -3 30q-3 24 -4.5 72t-3 106.5t-2.5 115.5t-1 100q0 25 1 37t8 14t24 1zM728 302q8 10 8 16.5t-12 22.5q-7 8 -10.5 38.5t-5.5 71.5t-2.5 80t-0.5 63q0 21 -0.5 57t-1 78.5t-1.5 84.5t-3 75q-2 39 -20.5 42.5
t-40.5 -41.5q-5 -10 -5 -26h-47.5t-66.5 1t-70.5 3t-60 6t-34.5 11q-20 14 -29.5 18t-16 -4.5t-16.5 -29.5q-8 -17 -8.5 -27t3.5 -24t9 -43q7 -39 5.5 -108.5t-1.5 -175.5q0 -24 -1 -53t-3.5 -57.5t-7.5 -50t-14 -29.5q-19 -18 -15.5 -27t16.5 -7q16 1 32.5 7t35.5 16
q3 1 5.5 2.5t4.5 3.5q29 -6 70 -9t81.5 -5t70 -4t36.5 -5q24 -9 35.5 -12t19 -1.5t17.5 7.5q20 11 45 35z" />
</svg>
