<?xml version="1.0" standalone="no"?>
<!DOCTYPE svg PUBLIC "-//W3C//DTD SVG 1.1//EN" "http://www.w3.org/Graphics/SVG/1.1/DTD/svg11.dtd" >
<svg xmlns="http://www.w3.org/2000/svg" xmlns:xlink="http://www.w3.org/1999/xlink" version="1.1" viewBox="-10 0 1010 1000">
   <path fill="currentColor"
d="M721 829q2 31 -7 45.5t-23 14.5q-22 1 -30 -15t-26 -50q-17 -35 -50.5 -86t-75.5 -107q-58 70 -133.5 136.5t-166.5 106.5q-31 13 -41.5 11t-2.5 -13.5t29 -26.5q80 -55 150 -125t125 -141q-49 -61 -99 -116.5t-95 -93.5q-18 -16 -20 -28.5t9.5 -15.5t32.5 10
q39 25 95 77.5t114 115.5q58 -83 87 -151t20 -97q-11 -39 4 -45t59 30q35 27 38 46t-19 37q-4 3 -21.5 35.5t-48.5 83.5t-75 110q46 52 83.5 102t61.5 89.5t26 60.5z" />
</svg>
