<?xml version="1.0" standalone="no"?>
<!DOCTYPE svg PUBLIC "-//W3C//DTD SVG 1.1//EN" "http://www.w3.org/Graphics/SVG/1.1/DTD/svg11.dtd" >
<svg xmlns="http://www.w3.org/2000/svg" xmlns:xlink="http://www.w3.org/1999/xlink" version="1.1" viewBox="-10 0 1010 1000">
   <path fill="currentColor"
d="M813 132l57 -74l17.5 14t41.5 34.5t43 38.5q-4 16 -27 16h-525q-11 37 -27.5 87.5t-34 102.5t-32.5 93h401l58 -57l100 87q-6 6 -16.5 10.5t-27.5 6.5q-11 98 -30 186.5t-44.5 152.5t-58.5 90q-29 22 -65.5 33t-95.5 11q1 -23 -6 -42t-24 -31q-18 -14 -62.5 -26.5
t-92.5 -19.5l2 -14q28 2 62 5t67 5.5t58.5 4t37.5 1.5q31 0 49 -13q21 -16 39 -69.5t33.5 -130.5t25.5 -161h-421v1h8l-41 46l-98 -66q8 -6 19 -12t22 -11q15 -38 32 -88t32 -99t23 -83h-254l-8 -29h763z" />
</svg>
