<?xml version="1.0" standalone="no"?>
<!DOCTYPE svg PUBLIC "-//W3C//DTD SVG 1.1//EN" "http://www.w3.org/Graphics/SVG/1.1/DTD/svg11.dtd" >
<svg xmlns="http://www.w3.org/2000/svg" xmlns:xlink="http://www.w3.org/1999/xlink" version="1.1" viewBox="-10 0 1010 1000">
   <path fill="currentColor"
d="M788 152l62 -76l19 14.5t45 35t47 39.5q-4 16 -28 16h-475q-1 54 -4 108.5t-11 107.5h254l53 -53l94 80q-6 6 -16 10.5t-27 6.5q-11 184 -36 306t-67 160q-50 43 -138 43q0 -21 -5 -38.5t-18 -28.5q-15 -12 -48.5 -22.5t-71.5 -16.5l1 -16q28 3 62.5 6t64.5 5t43 2
q26 0 42 -13q18 -15 33 -70.5t26 -141t17 -190.5h-267q-16 101 -56 197t-119 182.5t-212 160.5l-12 -15q89 -70 146.5 -144.5t90.5 -152.5t48 -157.5t19.5 -159t5.5 -156.5h-300l-8 -29h746z" />
</svg>
