<?xml version="1.0" standalone="no"?>
<!DOCTYPE svg PUBLIC "-//W3C//DTD SVG 1.1//EN" "http://www.w3.org/Graphics/SVG/1.1/DTD/svg11.dtd" >
<svg xmlns="http://www.w3.org/2000/svg" xmlns:xlink="http://www.w3.org/1999/xlink" version="1.1" viewBox="-10 0 1010 1000">
   <path fill="currentColor"
d="M934 289h-273q-3 89 -14 167t-36.5 145t-74.5 124q90 54 200.5 88t236.5 53l-2 12q-74 11 -94 85q-121 -27 -221.5 -70.5t-180.5 -107.5q-69 55 -174 100.5t-258 80.5l-8 -18q140 -44 234 -97.5t152 -115.5q-68 -71 -117 -166t-77 -219l15 -10q32 110 89 193.5t136 144.5
q53 -80 71.5 -176.5t21.5 -212.5h-505l-8 -29h514q1 -52 0.5 -107.5t-0.5 -115.5l140 13q-1 11 -9.5 19t-26.5 10q-1 48 -1 93t-2 88h124l63 -79l19.5 15t46 36.5t47.5 40.5q-4 16 -28 16z" />
</svg>
