<?xml version="1.0" standalone="no"?>
<!DOCTYPE svg PUBLIC "-//W3C//DTD SVG 1.1//EN" "http://www.w3.org/Graphics/SVG/1.1/DTD/svg11.dtd" >
<svg xmlns="http://www.w3.org/2000/svg" xmlns:xlink="http://www.w3.org/1999/xlink" version="1.1" viewBox="-10 0 1010 1000">
   <path fill="currentColor"
d="M920 144h-376v183h180l57 -76l18 14.5t43 35t45 39.5q-4 16 -28 16h-315v181h236l52 -51l93 78q-11 13 -40 17q-7 141 -25 230.5t-53 118.5q-22 18 -53 27t-74 9q1 -21 -4 -38t-19 -27q-14 -11 -46 -21t-67 -16l1 -15q26 2 59 5t61 4.5t40 1.5q14 0 21 -2t14 -8
q19 -17 31 -93t19 -191h-530l-31 42l-103 -54q6 -6 14 -13t17 -13v-296l129 14q-1 9 -8 15.5t-24 8.5v267h193v-393h-385l-8 -29h723l60 -74l19 14t45 34t47 39q-3 16 -28 16z" />
</svg>
