<?xml version="1.0" standalone="no"?>
<!DOCTYPE svg PUBLIC "-//W3C//DTD SVG 1.1//EN" "http://www.w3.org/Graphics/SVG/1.1/DTD/svg11.dtd" >
<svg xmlns="http://www.w3.org/2000/svg" xmlns:xlink="http://www.w3.org/1999/xlink" version="1.1" viewBox="-10 0 1010 1000">
   <path fill="currentColor"
d="M445 325l140 13q-2 10 -9.5 18t-27.5 10v569q0 5 -13 12.5t-32 13t-39 5.5h-19v-641zM513 109q-31 57 -79 118.5t-110 120t-134.5 109.5t-153.5 87l-6 -13q67 -46 128.5 -105.5t113.5 -126t91 -134.5t61 -131l151 41q-3 10 -12.5 15t-32.5 8q71 101 186.5 185.5
t254.5 135.5l-1 15q-32 10 -50 35.5t-26 54.5q-130 -71 -227 -178t-154 -237z" />
</svg>
