<?xml version="1.0" standalone="no"?>
<!DOCTYPE svg PUBLIC "-//W3C//DTD SVG 1.1//EN" "http://www.w3.org/Graphics/SVG/1.1/DTD/svg11.dtd" >
<svg xmlns="http://www.w3.org/2000/svg" xmlns:xlink="http://www.w3.org/1999/xlink" version="1.1" viewBox="-10 0 1010 1000">
   <path fill="currentColor"
d="M727 83l144 29q-3 10 -11.5 16t-31.5 6q-34 158 -94.5 300.5t-171.5 256.5q88 61 192 104.5t222 71.5l-3 11q-78 6 -108 78q-109 -35 -202.5 -84.5t-169.5 -117.5q-84 68 -193.5 121.5t-252.5 88.5l-8 -14q131 -45 230.5 -106.5t173.5 -136.5q-97 -102 -160.5 -244
t-92.5 -329l17 -10q33 172 109 300t185 220q97 -119 149 -261.5t77 -299.5z" />
</svg>
