<?xml version="1.0" standalone="no"?>
<!DOCTYPE svg PUBLIC "-//W3C//DTD SVG 1.1//EN" "http://www.w3.org/Graphics/SVG/1.1/DTD/svg11.dtd" >
<svg xmlns="http://www.w3.org/2000/svg" xmlns:xlink="http://www.w3.org/1999/xlink" version="1.1" viewBox="-10 0 1010 1000">
   <path fill="currentColor"
d="M861 351l95 82q-11 14 -42 17q-10 191 -33 313t-64 159q-47 43 -137 43q0 -23 -4.5 -40.5t-18.5 -27.5q-14 -13 -46 -23t-70 -17v-15q27 2 61 5t63 4.5t41 1.5q15 0 23.5 -2.5t17.5 -9.5q17 -15 30 -70t23 -141.5t16 -194.5h-155l-40 44l-96 -65q8 -6 19.5 -12t22.5 -10
q13 -34 27 -77t27 -86t21 -76h-239q-2 90 -8 178.5t-24.5 174.5t-56.5 166.5t-102.5 154t-164.5 137.5l-13 -16q97 -88 151 -185t78 -199t30 -205.5t6 -205.5h-211l-8 -29h557l50 -49l97 90q-12 13 -45 15q-9 30 -22 70t-27 81.5t-26 74.5h143z" />
</svg>
