<?xml version="1.0" standalone="no"?>
<!DOCTYPE svg PUBLIC "-//W3C//DTD SVG 1.1//EN" "http://www.w3.org/Graphics/SVG/1.1/DTD/svg11.dtd" >
<svg xmlns="http://www.w3.org/2000/svg" xmlns:xlink="http://www.w3.org/1999/xlink" version="1.1" viewBox="-10 0 1010 1000">
   <path fill="currentColor"
d="M617 151l99 93q-9 12 -44 16q-8 35 -17.5 69t-20.5 67q14 95 52 181t109.5 158t185.5 125l-1 12q-37 6 -58.5 28t-29.5 65q-70 -45 -118 -104.5t-79.5 -129.5t-49 -145t-26.5 -150q-45 118 -119 220.5t-187 181.5t-278 129l-9 -14q159 -72 268 -179.5t175 -243.5t97 -291
h-206q-55 121 -131 210.5t-171 150.5l-11 -9q59 -64 110.5 -150.5t91.5 -190t62 -217.5l144 41q-3 9 -12.5 15t-27.5 6q-10 31 -20.5 59t-22.5 56h187z" />
</svg>
