<?xml version="1.0" standalone="no"?>
<!DOCTYPE svg PUBLIC "-//W3C//DTD SVG 1.1//EN" "http://www.w3.org/Graphics/SVG/1.1/DTD/svg11.dtd" >
<svg xmlns="http://www.w3.org/2000/svg" xmlns:xlink="http://www.w3.org/1999/xlink" version="1.1" viewBox="-10 0 1010 1000">
   <path fill="currentColor"
d="M914 664l3 164q26 8 34.5 18t8.5 25q0 23 -20.5 36.5t-77.5 19t-166 5.5h-140q-56 0 -89.5 -8.5t-47.5 -31t-14 -65.5v-299l-353 38l-11 -27l364 -39v-279q-80 15 -163.5 26.5t-164.5 19.5l-3 -16q91 -17 187.5 -42t188.5 -54t170 -60t132 -60l104 86q-16 16 -60 2
q-60 20 -135 40t-158 38v24v264l269 -29l56 -88l22.5 12.5t53 31t54.5 35.5q-1 8 -8 13t-18 7l-429 46v288q0 20 12 28.5t52 8.5h136q87 0 118 -3q23 -3 33 -17q9 -15 21.5 -57.5t27.5 -100.5h11z" />
</svg>
