<?xml version="1.0" standalone="no"?>
<!DOCTYPE svg PUBLIC "-//W3C//DTD SVG 1.1//EN" "http://www.w3.org/Graphics/SVG/1.1/DTD/svg11.dtd" >
<svg xmlns="http://www.w3.org/2000/svg" xmlns:xlink="http://www.w3.org/1999/xlink" version="1.1" viewBox="-10 0 1010 1000">
   <path fill="currentColor"
d="M399 30l144 65q-10 20 -43 16q-88 159 -201 275t-243 190l-11 -9q64 -60 129.5 -145t124.5 -185.5t100 -206.5zM633 590l11 -7q95 47 154.5 97t89.5 97.5t37 86.5t-4 63.5t-34.5 29t-52.5 -17.5q-7 -31 -21 -63.5t-31 -65.5q-102 20 -247.5 45t-324.5 52q-14 18 -31 23
l-41 -126l17 -5t27 -12q37 -30 80.5 -77t88.5 -104t86 -116.5t73.5 -116t51.5 -101.5l139 75q-4 7 -15.5 12.5t-28.5 2.5q-33 49 -81.5 107.5t-107 119t-121 117t-121.5 101.5q62 -2 147.5 -5t186.5 -7.5t208 -9.5q-30 -53 -65.5 -104t-69.5 -91z" />
</svg>
