<?xml version="1.0" standalone="no"?>
<!DOCTYPE svg PUBLIC "-//W3C//DTD SVG 1.1//EN" "http://www.w3.org/Graphics/SVG/1.1/DTD/svg11.dtd" >
<svg xmlns="http://www.w3.org/2000/svg" xmlns:xlink="http://www.w3.org/1999/xlink" version="1.1" viewBox="-10 0 1010 1000">
   <path fill="currentColor"
d="M798 225l58 -75l18 14.5t43 34.5t45 39q-3 16 -28 16h-425v185h211l55 -70l17 13.5t40.5 32.5t42.5 37q-4 16 -27 16h-339v187h248l58 -76l18 14.5t43 35t45 39.5q-4 16 -28 16h-384v253q0 5 -21 16.5t-59 11.5h-17v-711h-115q-110 184 -256 295l-13 -10
q47 -60 93.5 -141t87.5 -175t69 -191l138 49q-4 9 -13.5 14.5t-27.5 4.5q-28 66 -61 125h484z" />
</svg>
