<?xml version="1.0" standalone="no"?>
<!DOCTYPE svg PUBLIC "-//W3C//DTD SVG 1.1//EN" "http://www.w3.org/Graphics/SVG/1.1/DTD/svg11.dtd" >
<svg xmlns="http://www.w3.org/2000/svg" xmlns:xlink="http://www.w3.org/1999/xlink" version="1.1" viewBox="-10 0 1010 1000">
   <path fill="currentColor"
d="M791 526l65 -80l20 15t47.5 36.5t50.5 41.5q-4 16 -29 16h-395v281q0 35 -10 63t-42 45.5t-97 22.5q-1 -24 -7.5 -42.5t-20.5 -28.5q-15 -12 -39 -21t-70 -15v-14l20.5 1t49.5 3t55 3t36 1q14 0 19.5 -5.5t5.5 -16.5v-277h-411l-8 -29h419v-357q-90 8 -183 12.5t-182 3.5
l-2 -18q91 -8 188.5 -22.5t191 -33.5t174 -39.5t138.5 -41.5l97 93q-8 7 -23.5 7t-38.5 -10q-55 11 -121 21t-139 18v367h241zM142 236l11 -6q83 37 126.5 80t56.5 83t3.5 68t-32.5 35t-52 -16q-6 -40 -24 -84t-41.5 -85.5t-47.5 -74.5zM638 501l-13 -9q21 -34 43.5 -80
t44.5 -98t40 -103l127 55q-4 8 -13.5 13t-26.5 4q-44 63 -96.5 120.5t-105.5 97.5z" />
</svg>
