<?xml version="1.0" standalone="no"?>
<!DOCTYPE svg PUBLIC "-//W3C//DTD SVG 1.1//EN" "http://www.w3.org/Graphics/SVG/1.1/DTD/svg11.dtd" >
<svg xmlns="http://www.w3.org/2000/svg" xmlns:xlink="http://www.w3.org/1999/xlink" version="1.1" viewBox="-10 0 1010 1000">
   <path fill="currentColor"
d="M906 616l-4 186q32 10 43.5 17.5t11.5 24.5q0 40 -72 56t-236 16h-234q-163 0 -242 -35t-90 -111q-6 -46 26 -99t103.5 -122t183 -161.5t264.5 -217.5h-544l-9 -29h576l50 -49l101 95q-9 7 -23.5 11t-39.5 6q-212 162 -341.5 271.5t-186 176.5t-50.5 102q7 40 57.5 53.5
t153.5 13.5h255q66 0 99.5 -2.5t47 -7.5t19.5 -12q20 -23 36 -69t34 -115z" />
</svg>
