<?xml version="1.0" standalone="no"?>
<!DOCTYPE svg PUBLIC "-//W3C//DTD SVG 1.1//EN" "http://www.w3.org/Graphics/SVG/1.1/DTD/svg11.dtd" >
<svg xmlns="http://www.w3.org/2000/svg" xmlns:xlink="http://www.w3.org/1999/xlink" version="1.1" viewBox="-10 0 1010 1000">
   <path fill="currentColor"
d="M902 711l3 107q32 10 43.5 19.5t11.5 24.5q0 21 -14.5 34t-52 20t-106 10t-176.5 3h-191q-71 0 -115 -9t-64 -36t-20 -79v-405l-168 44l-17 -26l185 -49v-312l137 14q-1 10 -9 18t-28 10v244l420 -110l57 -57l94 99q-8 10 -41 14q-16 59 -42 130.5t-59.5 141t-72.5 123.5
l-10 -8q17 -62 32 -135t26 -145.5t17 -132.5l-421 110v410q0 31 20 43t78 12h201q59 0 103.5 -1.5t65.5 -2.5q30 -4 45 -15q11 -12 25.5 -38t30.5 -70h12z" />
</svg>
