<?xml version="1.0" standalone="no"?>
<!DOCTYPE svg PUBLIC "-//W3C//DTD SVG 1.1//EN" "http://www.w3.org/Graphics/SVG/1.1/DTD/svg11.dtd" >
<svg xmlns="http://www.w3.org/2000/svg" xmlns:xlink="http://www.w3.org/1999/xlink" version="1.1" viewBox="-10 0 1010 1000">
   <path fill="currentColor"
d="M820 67l101 90q-7 6 -17 8t-28 4q-59 40 -139 87t-160 85l8 1q-3 22 -35 26v469q0 36 -10.5 62t-43 42t-100.5 22q-4 -23 -10.5 -40t-22.5 -29t-42.5 -20.5t-76.5 -15.5v-15l15.5 1t39.5 2.5t49.5 3t46.5 2.5t29 1q27 0 27 -22v-502l89 9q55 -41 110.5 -92.5t94.5 -92.5
h-631l-9 -29h654z" />
</svg>
