<?xml version="1.0" standalone="no"?>
<!DOCTYPE svg PUBLIC "-//W3C//DTD SVG 1.1//EN" "http://www.w3.org/Graphics/SVG/1.1/DTD/svg11.dtd" >
<svg xmlns="http://www.w3.org/2000/svg" xmlns:xlink="http://www.w3.org/1999/xlink" version="1.1" viewBox="-10 0 1010 1000">
   <path fill="currentColor"
d="M479 829v-522l138 13q-2 10 -10 17t-26 9v491q0 36 -10 63t-43 44t-101 23q-3 -25 -10 -43t-21 -30q-16 -13 -41.5 -22t-72.5 -16v-15l22 1.5t53 3.5t58.5 3.5t37.5 1.5q15 0 20.5 -5.5t5.5 -16.5zM864 171l99 96q-6 6 -14.5 8t-23.5 4q-16 25 -38.5 56.5t-47.5 62
t-48 53.5l-10 -6q9 -39 18.5 -92t14.5 -96h-526q-100 144 -225 237l-12 -9q41 -54 84 -128.5t82.5 -160.5t67.5 -172l138 60q-4 8 -13.5 12.5t-26.5 2.5q-34 67 -75 129h499z" />
</svg>
