<?xml version="1.0" standalone="no"?>
<!DOCTYPE svg PUBLIC "-//W3C//DTD SVG 1.1//EN" "http://www.w3.org/Graphics/SVG/1.1/DTD/svg11.dtd" >
<svg xmlns="http://www.w3.org/2000/svg" xmlns:xlink="http://www.w3.org/1999/xlink" version="1.1" viewBox="-10 0 1010 1000">
   <path fill="currentColor"
d="M836 163h-686l-8 -29h545l63 -79l19.5 15t46 36.5t48.5 40.5q-4 16 -28 16zM785 409l64 -82l20 15.5t47.5 37.5t49.5 42q-4 16 -28 16h-476l111 61q-4 6 -13.5 10t-24.5 3q-35 47 -89.5 104t-117.5 111.5t-124 97.5q63 -2 151.5 -5t194 -8t218.5 -11q-34 -61 -77 -119
t-83 -104l11 -8q101 49 164.5 101.5t96.5 102t41 90.5t-2.5 66.5t-34 30.5t-53.5 -17q-7 -29 -19.5 -58.5t-29.5 -60.5q-106 20 -255.5 44.5t-333.5 50.5q-13 17 -29 22l-40 -124l14.5 -4t23.5 -10q35 -26 74 -70t77.5 -97t70.5 -105t51 -94h-390l-8 -29h748z" />
</svg>
