<?xml version="1.0" standalone="no"?>
<!DOCTYPE svg PUBLIC "-//W3C//DTD SVG 1.1//EN" "http://www.w3.org/Graphics/SVG/1.1/DTD/svg11.dtd" >
<svg xmlns="http://www.w3.org/2000/svg" xmlns:xlink="http://www.w3.org/1999/xlink" version="1.1" viewBox="-10 0 1010 1000">
   <path fill="currentColor"
d="M656 487h-213q-22 106 -45.5 208t-43.5 179h302v-387zM802 874l61 -84l18.5 16t44 38.5t44.5 42.5q-4 16 -28 16h-901l-9 -29h222q21 -78 44.5 -180t45.5 -207h-195l-9 -29h210q16 -73 30 -142t24 -127h-302l-8 -29h645l61 -80l19 15t45 36.5t47 41.5q-4 16 -28 16h-380
q-11 58 -24.5 127t-29.5 142h197l50 -53l98 77q-5 6 -15 11.5t-26 9.5v371h49z" />
</svg>
