<?xml version="1.0" standalone="no"?>
<!DOCTYPE svg PUBLIC "-//W3C//DTD SVG 1.1//EN" "http://www.w3.org/Graphics/SVG/1.1/DTD/svg11.dtd" >
<svg xmlns="http://www.w3.org/2000/svg" xmlns:xlink="http://www.w3.org/1999/xlink" version="1.1" viewBox="-10 0 1010 1000">
   <path fill="currentColor"
d="M789 888l63 -81l20 15t47 37t48 42q-4 16 -28 16h-895l-9 -29h574l61 -515h-316q-18 69 -38 138.5t-39 131t-34 106.5q-16 10 -45 10t-61 -10q16 -39 34.5 -95.5t38.5 -122t38.5 -132.5t34 -128t24.5 -107h-224l-9 -29h679l61 -78l20 15t47 36t48 40q-4 16 -27 16h-495
q-9 37 -20.5 83.5t-25.5 96.5h301l46 -55l99 83q-11 11 -39 14l-58 502h79zM353 634l7 -9q69 7 112 25t64 41.5t25 46.5t-6 39.5t-29 21t-43 -8.5q-9 -29 -30.5 -58.5t-48 -55t-51.5 -42.5zM388 452l8 -9q78 1 122 20t60.5 44t11.5 47.5t-25 32.5t-49 -4
q-10 -24 -31.5 -48.5t-47 -46.5t-49.5 -36z" />
</svg>
