<?xml version="1.0" standalone="no"?>
<!DOCTYPE svg PUBLIC "-//W3C//DTD SVG 1.1//EN" "http://www.w3.org/Graphics/SVG/1.1/DTD/svg11.dtd" >
<svg xmlns="http://www.w3.org/2000/svg" xmlns:xlink="http://www.w3.org/1999/xlink" version="1.1" viewBox="-10 0 1010 1000">
   <path fill="currentColor"
d="M227 800l-12 -15q85 -64 138.5 -133.5t83 -143t42.5 -149.5t15.5 -153t3.5 -153l133 13q-1 10 -9 17.5t-26 9.5q-1 29 -2 58.5t-3 59.5q15 99 52 187.5t106.5 162t180.5 127.5l-2 11q-35 6 -56.5 26.5t-28.5 60.5q-83 -55 -135.5 -132t-82 -167t-43.5 -185q-9 67 -30 134
t-60.5 131t-104 123t-160.5 110zM796 878l60 -76l19 14.5t45 35t46 39.5q-4 16 -27 16h-731l-34 47l-105 -58q15 -16 37 -29v-749l133 13q-2 11 -10 18.5t-28 10.5v718h595z" />
</svg>
