<?xml version="1.0" standalone="no"?>
<!DOCTYPE svg PUBLIC "-//W3C//DTD SVG 1.1//EN" "http://www.w3.org/Graphics/SVG/1.1/DTD/svg11.dtd" >
<svg xmlns="http://www.w3.org/2000/svg" xmlns:xlink="http://www.w3.org/1999/xlink" version="1.1" viewBox="-10 0 1010 1000">
   <path fill="currentColor"
d="M218 160v213q0 66 -4 143t-20.5 157t-51.5 155t-97 137l-13 -9q43 -87 62.5 -186t24.5 -200.5t5 -196.5v-290l109 48h560l60 -75l18.5 14.5t44 34.5t45.5 39q-4 16 -28 16h-715zM487 219l134 12q-1 10 -9 17.5t-26 9.5q8 106 30 197.5t65 167.5t113 136.5t175 104.5
l-2 12q-35 7 -57.5 28.5t-30.5 61.5q-101 -59 -162 -143.5t-92.5 -190.5t-44.5 -226q-6 82 -24 160t-60 150t-118.5 135t-199.5 115l-11 -16q98 -58 158.5 -123t94 -136t47 -147.5t16.5 -158t4 -166.5z" />
</svg>
