<?xml version="1.0" standalone="no"?>
<!DOCTYPE svg PUBLIC "-//W3C//DTD SVG 1.1//EN" "http://www.w3.org/Graphics/SVG/1.1/DTD/svg11.dtd" >
<svg xmlns="http://www.w3.org/2000/svg" xmlns:xlink="http://www.w3.org/1999/xlink" version="1.1" viewBox="-10 0 1010 1000">
   <path fill="currentColor"
d="M684 563l58 -49l93 77q-5 7 -13.5 9.5t-25.5 4.5q-24 62 -64.5 128t-94.5 127t-117 110l-11 -12q35 -50 68 -112.5t59.5 -128.5t42.5 -125h-520l-9 -29h534zM555 398l56 -73l17 14t40.5 34t42.5 38q-4 16 -27 16h-426l-8 -29h305zM437 28l124 67q-4 7 -12.5 11t-21.5 3
q49 65 120.5 118.5t155 92.5t168.5 59l-2 11q-28 5 -49.5 26.5t-30.5 55.5q-126 -49 -223 -137.5t-158 -212.5q-89 142 -209 228.5t-256 133.5l-9 -13q76 -42 151.5 -108t141 -151t110.5 -184z" />
</svg>
