<?xml version="1.0" standalone="no"?>
<!DOCTYPE svg PUBLIC "-//W3C//DTD SVG 1.1//EN" "http://www.w3.org/Graphics/SVG/1.1/DTD/svg11.dtd" >
<svg xmlns="http://www.w3.org/2000/svg" xmlns:xlink="http://www.w3.org/1999/xlink" version="1.1" viewBox="-10 0 1010 1000">
   <path fill="currentColor"
d="M592 388l134 13q-2 10 -9.5 17.5t-27.5 10.5v507q0 4 -12 11t-30.5 12.5t-36.5 5.5h-18v-577zM303 390l128 12q-1 10 -8 17.5t-25 9.5v102q-1 60 -13.5 122.5t-47 121t-101 108t-174.5 82.5l-9 -13q83 -40 132.5 -89.5t75 -105.5t34 -113.5t8.5 -113.5v-140zM532 107
q-45 84 -121.5 165t-173.5 147.5t-204 108.5l-7 -13q69 -39 135.5 -96t123.5 -123t97.5 -133.5t56.5 -127.5l157 38q-5 18 -46 22q43 71 111 126t150.5 95.5t168.5 68.5l-2 15q-34 9 -55 35t-27 55q-125 -62 -221 -157.5t-143 -225.5z" />
</svg>
