<?xml version="1.0" standalone="no"?>
<!DOCTYPE svg PUBLIC "-//W3C//DTD SVG 1.1//EN" "http://www.w3.org/Graphics/SVG/1.1/DTD/svg11.dtd" >
<svg xmlns="http://www.w3.org/2000/svg" xmlns:xlink="http://www.w3.org/1999/xlink" version="1.1" viewBox="-10 0 1010 1000">
   <path fill="currentColor"
d="M530 104q-34 70 -86 140.5t-116.5 135t-137.5 118.5t-149 93l-8 -13q65 -47 129 -113t120 -141.5t96.5 -151.5t57.5 -142l157 40q-4 18 -45 21q42 82 107.5 148.5t146 118t165.5 90.5l-3 14q-34 8 -55.5 34t-29.5 54q-120 -77 -213 -189t-136 -257zM278 639
q122 20 204 51t130.5 65t68.5 66.5t17.5 57t-22.5 35.5t-52 3q-30 -32 -72.5 -68.5t-91.5 -73t-98 -69t-92 -56.5zM417 375q76 18 121.5 44t67.5 54.5t24.5 54t-9.5 42.5t-33 20t-47 -13q-12 -32 -34.5 -67.5t-49 -69t-50.5 -58.5z" />
</svg>
