<?xml version="1.0" standalone="no"?>
<!DOCTYPE svg PUBLIC "-//W3C//DTD SVG 1.1//EN" "http://www.w3.org/Graphics/SVG/1.1/DTD/svg11.dtd" >
<svg xmlns="http://www.w3.org/2000/svg" xmlns:xlink="http://www.w3.org/1999/xlink" version="1.1" viewBox="-10 0 1010 1000">
   <path fill="currentColor"
d="M755 558l59 -74l19 14t45 34t46 39q-4 16 -27 16h-458l114 66q-4 7 -13.5 11t-25.5 1q-31 28 -77 60.5t-98.5 64t-104.5 56.5q87 -1 217 -4.5t276 -8.5q-31 -41 -65 -79.5t-64 -67.5l11 -8q88 30 144 66t85.5 72t37.5 67t-1 51.5t-29.5 25.5t-47.5 -11q-10 -21 -23.5 -45
t-30.5 -48q-96 17 -232.5 38t-301.5 43q-13 16 -25 20l-44 -115l13 -2.5t21 -6.5q33 -17 69.5 -46.5t71.5 -65.5t64 -71t47 -63h-339l-9 -29h676zM593 386l54 -68l17.5 13t41 31.5t42.5 36.5q-3 16 -27 16h-466l-8 -29h346zM443 31l146 35q-4 17 -44 20q46 60 115 109.5
t150 88t163 66.5l-2 15q-30 7 -49.5 30.5t-25.5 49.5q-78 -39 -149.5 -91.5t-128.5 -117t-91 -137.5q-36 54 -90 109t-119.5 106t-137 94t-143.5 73l-7 -13q63 -37 128 -90t123 -113.5t101 -121t61 -112.5z" />
</svg>
