<?xml version="1.0" standalone="no"?>
<!DOCTYPE svg PUBLIC "-//W3C//DTD SVG 1.1//EN" "http://www.w3.org/Graphics/SVG/1.1/DTD/svg11.dtd" >
<svg xmlns="http://www.w3.org/2000/svg" xmlns:xlink="http://www.w3.org/1999/xlink" version="1.1" viewBox="-10 0 1010 1000">
   <path fill="currentColor"
d="M303 267l-7 -13q55 -27 111.5 -64.5t104 -77.5t75.5 -74l113 64q-6 7 -18.5 10t-34.5 -1q-38 28 -93.5 57.5t-120 55t-130.5 43.5zM233 306l49 18q-5 15 -31 19v592q0 3 -12 10t-29.5 12.5t-35.5 5.5h-18v-539q-28 36 -58 68.5t-62 60.5l-14 -9q42 -62 82 -144t74 -175.5
t55 -189.5l137 43q-4 9 -13 14.5t-26 4.5q-42 111 -98 209zM448 641l112 57q-4 7 -12 10.5t-25 0.5q-25 34 -61.5 72.5t-80.5 74t-92 63.5l-11 -12q36 -37 69 -84t59.5 -95t41.5 -87zM765 422l11 -6q75 33 114 70.5t50 72.5t2 59t-30.5 29.5t-46.5 -15.5q-2 -17 -7.5 -35.5
t-13.5 -37.5q-67 12 -156 27v272q0 31 -8.5 54t-35 37t-80.5 19q-1 -19 -5 -34t-13 -24q-10 -10 -27 -17.5t-49 -11.5v-14l13 1t32 2t36 2t24 1q12 0 16 -4.5t4 -13.5v-255q-47 7 -98 14.5t-105 15.5q-10 17 -24 23l-48 -100l13.5 -2.5t22.5 -6.5q56 -23 121 -62t126 -83
q-42 10 -91 21.5t-102 22.5q-4 7 -9.5 12t-10.5 8l-48 -99l11 -2.5t18 -5.5q33 -15 69 -40.5t70.5 -56.5t63 -61t44.5 -52l109 62q-4 7 -13.5 11t-26.5 1q-28 22 -69 48.5t-87.5 51.5t-92.5 46q44 -1 100 -3t117 -4q41 -32 75 -63t56 -56l102 70q-4 7 -15 10.5t-27 -1.5
q-45 35 -114.5 77.5t-150 84t-159.5 74.5q76 -2 183.5 -7t228.5 -11q-15 -32 -33.5 -61.5t-35.5 -53.5zM724 657l11 -7q87 33 133.5 73t62 78t8.5 64.5t-29 34t-50 -13.5q-8 -38 -30.5 -79.5t-51 -80.5t-54.5 -69z" />
</svg>
