<?xml version="1.0" standalone="no"?>
<!DOCTYPE svg PUBLIC "-//W3C//DTD SVG 1.1//EN" "http://www.w3.org/Graphics/SVG/1.1/DTD/svg11.dtd" >
<svg xmlns="http://www.w3.org/2000/svg" xmlns:xlink="http://www.w3.org/1999/xlink" version="1.1" viewBox="-10 0 1010 1000">
   <path fill="currentColor"
d="M302 87l126 57q-4 8 -12 12t-26 2q-33 57 -84 118t-117.5 115.5t-147.5 93.5l-9 -11q63 -50 116 -116.5t92.5 -137.5t61.5 -133zM680 566l52 -50l92 77q-5 6 -14.5 10.5t-26.5 6.5q-11 123 -35.5 207.5t-63.5 113.5q-24 17 -54.5 25.5t-74.5 8.5q0 -20 -4.5 -36.5
t-18.5 -26.5q-14 -11 -46 -21t-68 -16l1 -14q26 2 60 4.5t63.5 4.5t41.5 2q27 0 38 -11q22 -16 39.5 -86t27.5 -170h-318l-45 50l-92 -70q19 -14 48 -23q17 -37 36 -83t31 -79h-99l-8 -29h355l53 -66l17 12.5t40.5 31t42.5 35.5q-4 16 -27 16h-271q-15 37 -36.5 86.5
t-39.5 89.5h304zM661 32l92 64q-9 10 -29 15.5t-46 7.5q22 55 64 105.5t101.5 91.5t132.5 66l-2 12q-28 8 -50 31t-30 50q-95 -62 -156 -153.5t-87 -207.5h-138l-9 -29h123z" />
</svg>
