<?xml version="1.0" standalone="no"?>
<!DOCTYPE svg PUBLIC "-//W3C//DTD SVG 1.1//EN" "http://www.w3.org/Graphics/SVG/1.1/DTD/svg11.dtd" >
<svg xmlns="http://www.w3.org/2000/svg" xmlns:xlink="http://www.w3.org/1999/xlink" version="1.1" viewBox="-10 0 1010 1000">
   <path fill="currentColor"
d="M544 487h254v-332h-254v332zM205 155v332h244v-332h-244zM834 72l102 79q-4 6 -15 12t-26 8v668q0 33 -9.5 58t-41 40t-96.5 21q-3 -22 -9.5 -38.5t-21.5 -26.5q-15 -11 -39.5 -19t-69.5 -15v-14l21 1.5t50.5 3t55.5 3t36 1.5q16 0 21.5 -6t5.5 -19v-313h-593v411
q0 10 -24 23t-56 13h-16v-880l104 43h575z" />
</svg>
