<?xml version="1.0" standalone="no"?>
<!DOCTYPE svg PUBLIC "-//W3C//DTD SVG 1.1//EN" "http://www.w3.org/Graphics/SVG/1.1/DTD/svg11.dtd" >
<svg xmlns="http://www.w3.org/2000/svg" xmlns:xlink="http://www.w3.org/1999/xlink" version="1.1" viewBox="-10 0 1010 1000">
   <path fill="currentColor"
d="M815 237l97 84q-12 14 -44 18q-7 233 -26.5 380.5t-60.5 189.5q-48 48 -143 48q0 -22 -5.5 -40.5t-19.5 -30.5q-15 -12 -49.5 -23t-73.5 -18l1 -15q29 2 64 5t65.5 5t43.5 2q27 0 41 -13q19 -17 32 -85.5t21 -177t13 -243.5h-268q-7 97 -29.5 187.5t-70.5 172t-133 152.5
t-218 130l-11 -16q105 -64 172.5 -135.5t106.5 -150t57 -164t24 -176.5h-306l-9 -29h317q3 -62 3 -125.5v-130.5l141 14q-1 11 -9 18.5t-27 9.5q-1 55 -2 108.5t-4 105.5h255z" />
</svg>
