<?xml version="1.0" standalone="no"?>
<!DOCTYPE svg PUBLIC "-//W3C//DTD SVG 1.1//EN" "http://www.w3.org/Graphics/SVG/1.1/DTD/svg11.dtd" >
<svg xmlns="http://www.w3.org/2000/svg" xmlns:xlink="http://www.w3.org/1999/xlink" version="1.1" viewBox="-10 0 1010 1000">
   <path fill="currentColor"
d="M293 382l11 -7q92 33 149.5 73.5t86.5 80.5t35 74.5t-5.5 57t-35 26.5t-53.5 -16q-14 -48 -45 -100t-69 -101t-74 -88zM865 175l96 86q-11 14 -44 18q-5 118 -12.5 222.5t-19 188.5t-27.5 141.5t-38 80.5q-28 28 -63.5 41.5t-91.5 13.5q1 -23 -5.5 -42t-21.5 -29
q-17 -14 -57.5 -26t-85.5 -19l1 -15q34 3 75.5 6.5t77 6t50.5 2.5q17 0 26 -3.5t19 -11.5q17 -14 29 -65.5t21.5 -130.5t16 -176t10.5 -202h-526q-107 178 -254 281l-11 -10q47 -58 92.5 -137.5t84.5 -172t64 -189.5l143 49q-3 9 -13 14.5t-27 4.5q-14 35 -30 67.5t-33 63.5
h500z" />
</svg>
