<?xml version="1.0" standalone="no"?>
<!DOCTYPE svg PUBLIC "-//W3C//DTD SVG 1.1//EN" "http://www.w3.org/Graphics/SVG/1.1/DTD/svg11.dtd" >
<svg xmlns="http://www.w3.org/2000/svg" xmlns:xlink="http://www.w3.org/1999/xlink" version="1.1" viewBox="-10 0 1010 1000">
   <path fill="currentColor"
d="M855 123l94 83q-12 13 -45 19q-3 289 -14.5 466t-49.5 223q-24 28 -57.5 39.5t-83.5 11.5q0 -20 -5 -35.5t-19 -25.5q-16 -11 -49.5 -21.5t-73.5 -17.5l1 -15q29 2 63.5 5.5t64 5.5t43.5 2q16 0 24.5 -3.5t15.5 -11.5q14 -14 23 -66.5t14.5 -137t8.5 -195t4 -240.5h-513
q-27 40 -56 75.5t-60 67.5l111 12q-3 23 -38 29v335h360l58 -69l17.5 13t41.5 32t43 37q-3 16 -26 16h-486l-33 45l-103 -56q15 -16 38 -28v-349q-30 28 -61.5 53.5t-64.5 45.5l-11 -10q44 -49 89 -117.5t84.5 -149t67.5 -164.5l135 55q-8 20 -41 17q-11 20 -22.5 40.5
t-23.5 40.5h482zM469 254l129 32q-3 9 -12 15t-26 7q-10 34 -21.5 66t-25.5 61q82 26 127.5 59.5t63 66.5t13.5 57.5t-23 33t-46 -7.5q-11 -30 -34.5 -63t-52.5 -64.5t-60 -57.5q-39 76 -91 132.5t-116 94.5l-12 -10q68 -72 118.5 -180.5t68.5 -241.5z" />
</svg>
