<?xml version="1.0" standalone="no"?>
<!DOCTYPE svg PUBLIC "-//W3C//DTD SVG 1.1//EN" "http://www.w3.org/Graphics/SVG/1.1/DTD/svg11.dtd" >
<svg xmlns="http://www.w3.org/2000/svg" xmlns:xlink="http://www.w3.org/1999/xlink" version="1.1" viewBox="-10 0 1010 1000">
   <path fill="currentColor"
d="M798 879l58 -78l18.5 15t44 36t45.5 40q-4 16 -27 16h-735l-31 51l-101 -62q12 -14 29 -26v-794l108 43h570l53 -70l16.5 13.5t38.5 32.5t40 37q-4 16 -27 16h-704v730h604zM680 202l130 61q-4 8 -14.5 13t-28.5 2q-28 56 -60 107t-67 96q79 69 114 125t36.5 93t-21 49
t-58.5 -9q-22 -41 -57.5 -87.5t-78.5 -94.5q-67 73 -144.5 130t-162.5 99l-10 -12q68 -50 135 -121t128 -156q-56 -59 -114.5 -115t-110.5 -99l13 -10q80 39 145 77t114 75q33 -53 61.5 -109t50.5 -114z" />
</svg>
