<?xml version="1.0" standalone="no"?>
<!DOCTYPE svg PUBLIC "-//W3C//DTD SVG 1.1//EN" "http://www.w3.org/Graphics/SVG/1.1/DTD/svg11.dtd" >
<svg xmlns="http://www.w3.org/2000/svg" xmlns:xlink="http://www.w3.org/1999/xlink" version="1.1" viewBox="-10 0 1010 1000">
   <path fill="currentColor"
d="M963 681l-14 177q34 81 5 99q-30 18 -61.5 -1.5t-53.5 -53.5q-39 -48 -62 -130.5t-33.5 -186.5t-13 -218.5t-1.5 -226.5h-289v337h127l58 -81l18.5 15.5t43.5 37t44 41.5q-4 16 -28 16h-263v428q-1 5 -21.5 17t-57.5 12h-17v-457h-261l-8 -29h269v-337h-260l-9 -29h643
l51 -59l102 87q-12 13 -44 19q-4 64 -4.5 139t3 152t12.5 146.5t24.5 122.5t37.5 79q12 15 19 -4q10 -27 18 -56t15 -57z" />
</svg>
