<?xml version="1.0" standalone="no"?>
<!DOCTYPE svg PUBLIC "-//W3C//DTD SVG 1.1//EN" "http://www.w3.org/Graphics/SVG/1.1/DTD/svg11.dtd" >
<svg xmlns="http://www.w3.org/2000/svg" xmlns:xlink="http://www.w3.org/1999/xlink" version="1.1" viewBox="-10 0 1010 1000">
   <path fill="currentColor"
d="M786 445l65 -84l20 15.5t47 38t49 43.5q-4 16 -28 16h-388v461q0 5 -23 17.5t-61 12.5h-19v-491h-398l-8 -29h406v-254q-82 7 -166 12t-167 5l-3 -17q86 -9 177 -25t178.5 -36t162.5 -42t128 -43l101 95q-17 15 -62 -1q-52 11 -115 21.5t-131 19.5v265h235z" />
</svg>
