<?xml version="1.0" standalone="no"?>
<!DOCTYPE svg PUBLIC "-//W3C//DTD SVG 1.1//EN" "http://www.w3.org/Graphics/SVG/1.1/DTD/svg11.dtd" >
<svg xmlns="http://www.w3.org/2000/svg" xmlns:xlink="http://www.w3.org/1999/xlink" version="1.1" viewBox="-10 0 1010 1000">
   <path fill="currentColor"
d="M655 487l13 -6q95 64 154 128.5t89 122.5t36 103.5t-6 73t-37 31t-56 -22.5q-7 -35 -19 -71.5t-28 -73.5q-113 25 -276 56.5t-367 66.5q-13 22 -28 29l-58 -130l17.5 -6.5t26.5 -17.5q31 -43 69.5 -109t78 -145t75.5 -161.5t64.5 -160t43.5 -140.5l149 67q-4 8 -15 14
t-29 4q-29 72 -74.5 157.5t-100.5 174.5t-113.5 171.5t-114.5 148.5q68 -3 168.5 -9t222 -15t251.5 -19q-30 -68 -66 -135.5t-70 -125.5z" />
</svg>
