<?xml version="1.0" standalone="no"?>
<!DOCTYPE svg PUBLIC "-//W3C//DTD SVG 1.1//EN" "http://www.w3.org/Graphics/SVG/1.1/DTD/svg11.dtd" >
<svg xmlns="http://www.w3.org/2000/svg" xmlns:xlink="http://www.w3.org/1999/xlink" version="1.1" viewBox="-10 0 1010 1000">
   <path fill="currentColor"
d="M711 503h-293q26 64 66 116.5t92 93.5q87 -93 135 -210zM769 419l95 89q-10 12 -44 15q-32 68 -75.5 127t-100.5 108q68 40 147.5 66.5t167.5 41.5l-2 12q-31 5 -52.5 27t-32.5 57q-87 -26 -160.5 -64t-132.5 -90q-82 55 -189 94.5t-242 62.5l-5 -14q238 -64 386 -194
q-43 -50 -75.5 -113t-54.5 -141h-25q-27 85 -70 166.5t-107 151t-155 122.5l-11 -10q86 -73 142 -166t89 -197.5t49 -211.5h-251l-8 -29h263q5 -33 8 -66t5 -65q-70 4 -132.5 5t-113.5 -1l-2 -16q96 -13 213 -34t242 -49.5t244 -62.5l79 103q-17 12 -42 -2q-104 19 -221 33
t-228 22l106 14q-1 10 -9.5 16.5t-30.5 8.5q-3 22 -7 46t-9 48h358l62 -77l19.5 14.5t46 35.5t47.5 40q-4 16 -28 16h-510q-6 29 -13.5 58t-15.5 58h326z" />
</svg>
