<?xml version="1.0" standalone="no"?>
<!DOCTYPE svg PUBLIC "-//W3C//DTD SVG 1.1//EN" "http://www.w3.org/Graphics/SVG/1.1/DTD/svg11.dtd" >
<svg xmlns="http://www.w3.org/2000/svg" xmlns:xlink="http://www.w3.org/1999/xlink" version="1.1" viewBox="-10 0 1010 1000">
   <path fill="currentColor"
d="M508 413h-201v228h201v-228zM858 149l95 84q-13 13 -44 17q-5 176 -15.5 314t-29 227t-47.5 121q-26 28 -61 41.5t-87 12.5q0 -22 -5.5 -40.5t-19.5 -28.5q-16 -13 -52.5 -24.5t-77.5 -18.5l1 -15q31 2 67.5 5.5t68.5 5.5t46 2q17 0 26 -3.5t18 -11.5q16 -14 28 -65.5
t21 -132.5t14.5 -184t9.5 -220h-505q-19 31 -40.5 59t-44.5 54l88 36h187l45 -50l99 74q-4 6 -15 12t-26 9v294q0 3 -13.5 9t-31.5 11t-33 5h-16v-79h-201v93q0 7 -24.5 18.5t-53.5 11.5h-13v-435q-78 86 -170 143l-12 -9q49 -53 96 -126t87 -159t66 -177l141 54
q-9 19 -41 16q-13 28 -27 54.5t-29 52.5h476z" />
</svg>
