<?xml version="1.0" standalone="no"?>
<!DOCTYPE svg PUBLIC "-//W3C//DTD SVG 1.1//EN" "http://www.w3.org/Graphics/SVG/1.1/DTD/svg11.dtd" >
<svg xmlns="http://www.w3.org/2000/svg" xmlns:xlink="http://www.w3.org/1999/xlink" version="1.1" viewBox="-10 0 1010 1000">
   <path fill="currentColor"
d="M63 434h385v-196h-301l-8 -29h309v-168l135 12q-1 10 -9 17.5t-28 10.5v128h179l55 -71l17 13.5t40.5 33t42.5 37.5q-3 16 -27 16h-307v196h236l56 -71l18 13.5t42 33t43 37.5q-4 16 -26 16h-844zM799 908l59 -75l18 14.5t43 34.5t44 39q-3 16 -27 16h-891l-9 -29h412
v-223h-322l-8 -28h330v-170l135 12q-1 10 -9 17.5t-28 10.5v130h198l56 -72l17.5 14t42 33.5t43.5 36.5q-4 16 -27 16h-330v223h253z" />
</svg>
