<?xml version="1.0" standalone="no"?>
<!DOCTYPE svg PUBLIC "-//W3C//DTD SVG 1.1//EN" "http://www.w3.org/Graphics/SVG/1.1/DTD/svg11.dtd" >
<svg xmlns="http://www.w3.org/2000/svg" xmlns:xlink="http://www.w3.org/1999/xlink" version="1.1" viewBox="-10 0 1010 1000">
   <path fill="currentColor"
d="M811 160l102 90q-6 8 -17.5 11t-31.5 5q-51 145 -121.5 258.5t-167 198.5t-224.5 144t-293 97l-7 -16q184 -68 319.5 -161t230.5 -225t156 -317h-346q-19 34 -43 68.5t-51 68.5q85 26 131.5 62t63 71t10.5 61.5t-28.5 35t-52.5 -9.5q-17 -49 -58.5 -102t-86.5 -94
q-46 54 -101.5 103.5t-120.5 89.5l-10 -11q61 -55 112.5 -123.5t92.5 -143t71.5 -148t49.5 -139.5l136 52q-4 8 -12 12.5t-28 3.5q-12 28 -26.5 56.5t-31.5 57.5h330z" />
</svg>
