<?xml version="1.0" standalone="no"?>
<!DOCTYPE svg PUBLIC "-//W3C//DTD SVG 1.1//EN" "http://www.w3.org/Graphics/SVG/1.1/DTD/svg11.dtd" >
<svg xmlns="http://www.w3.org/2000/svg" xmlns:xlink="http://www.w3.org/1999/xlink" version="1.1" viewBox="-10 0 1010 1000">
   <path fill="currentColor"
d="M936 364h-396q18 93 65 185.5t136.5 173.5t233.5 142l-2 11q-37 7 -60.5 28t-31.5 62q-94 -55 -158.5 -125t-104.5 -149t-62 -159t-33 -155q-11 89 -38 171.5t-80 157t-140.5 139.5t-220.5 120l-11 -16q107 -61 178.5 -128.5t115 -141t65.5 -152.5t31 -164h-371l-9 -29
h382q6 -71 6.5 -145t0.5 -151l142 14q-2 11 -10 18.5t-26 10.5q-1 65 -3 128.5t-7 124.5h253l65 -82l20.5 15.5t48 37.5t49.5 42q-4 16 -28 16z" />
</svg>
