<?xml version="1.0" standalone="no"?>
<!DOCTYPE svg PUBLIC "-//W3C//DTD SVG 1.1//EN" "http://www.w3.org/Graphics/SVG/1.1/DTD/svg11.dtd" >
<svg xmlns="http://www.w3.org/2000/svg" xmlns:xlink="http://www.w3.org/1999/xlink" version="1.1" viewBox="-10 0 1010 1000">
   <path fill="currentColor"
d="M933 457h-396q19 78 67.5 154t138 142t230.5 115l-1 12q-37 6 -59 25t-29 59q-94 -45 -158.5 -103t-105.5 -123.5t-64 -133.5t-35 -132q-13 81 -42 152t-83 132.5t-140 113.5t-214 95l-10 -16q105 -49 175.5 -103.5t114 -115.5t66.5 -129t33 -144h-354l-8 -29h365
q6 -60 6.5 -125.5t1.5 -135.5h-306l-8 -29h610l61 -76l19 14.5t45 35t47 39.5q-4 16 -27 16h-334q-1 70 -3 135.5t-9 125.5h259l63 -78l19 14.5t45.5 35.5t48.5 41q-4 16 -29 16z" />
</svg>
