<?xml version="1.0" standalone="no"?>
<!DOCTYPE svg PUBLIC "-//W3C//DTD SVG 1.1//EN" "http://www.w3.org/Graphics/SVG/1.1/DTD/svg11.dtd" >
<svg xmlns="http://www.w3.org/2000/svg" xmlns:xlink="http://www.w3.org/1999/xlink" version="1.1" viewBox="-10 0 1010 1000">
   <path fill="currentColor"
d="M934 510h-390q21 65 70 129t136 120t221 98l-1 13q-37 7 -60 26.5t-29 61.5q-91 -41 -154 -93.5t-103.5 -112.5t-63.5 -122t-35 -120h-7q-15 77 -45.5 143.5t-84.5 123t-138.5 103.5t-206.5 85l-9 -16q127 -56 205 -122.5t119 -145t58 -171.5h-361l-9 -28h375
q8 -49 10.5 -101.5t3.5 -109.5h-316l-8 -29h324q1 -47 0.5 -97t-0.5 -102l142 14q-1 11 -9.5 18.5t-26.5 10.5q-1 40 -1 79t-1 77h180l62 -75l19 14.5t45 35t47 38.5q-4 16 -28 16h-326q-1 57 -4 109.5t-11 101.5h265l61 -78l19.5 15t46.5 35.5t48 39.5q-4 16 -29 16z" />
</svg>
