<?xml version="1.0" standalone="no"?>
<!DOCTYPE svg PUBLIC "-//W3C//DTD SVG 1.1//EN" "http://www.w3.org/Graphics/SVG/1.1/DTD/svg11.dtd" >
<svg xmlns="http://www.w3.org/2000/svg" xmlns:xlink="http://www.w3.org/1999/xlink" version="1.1" viewBox="-10 0 1010 1000">
   <path fill="currentColor"
d="M565 634l11 -10q111 41 184 85.5t114 86.5t56 77t9.5 58t-25.5 29t-48 -9q-22 -37 -57 -79t-77 -85t-85.5 -82.5t-81.5 -70.5zM720 257h-173q-1 82 -5.5 155t-18.5 136h197v-291zM263 548h163q14 -63 18 -136t5 -155h-186v291zM831 548l54 -85l16.5 16.5l39 39t39.5 42.5
q-4 16 -27 16h-437q-23 91 -74.5 164t-146 129.5t-246.5 98.5l-9 -17q119 -47 195 -102.5t120 -123t65 -149.5h-379l-8 -29h137v-362l106 42h173q0 -45 -0.5 -92t-0.5 -98l137 14q-2 11 -10.5 18.5t-26.5 9.5q-1 39 -1 76v72h163l49 -52l98 76q-10 14 -41 20v276h15z" />
</svg>
