<?xml version="1.0" standalone="no"?>
<!DOCTYPE svg PUBLIC "-//W3C//DTD SVG 1.1//EN" "http://www.w3.org/Graphics/SVG/1.1/DTD/svg11.dtd" >
<svg xmlns="http://www.w3.org/2000/svg" xmlns:xlink="http://www.w3.org/1999/xlink" version="1.1" viewBox="-10 0 1010 1000">
   <path fill="currentColor"
d="M723 533l50 -61l16.5 12t38.5 29t40 33q-4 16 -27 16h-450q-9 22 -20 48.5t-22 50.5h309l51 -48l92 76q-5 6 -14.5 10t-24.5 6q-13 91 -37 151.5t-60 83.5q-22 14 -52.5 20t-71.5 6q0 -19 -4 -32.5t-16 -23.5q-13 -11 -39.5 -19t-59.5 -14l1 -14q23 2 52.5 4t55 3.5
t35.5 1.5q24 0 38 -9q17 -11 33.5 -58.5t26.5 -114.5h-320l-40 43l-93 -65q17 -13 44 -22q9 -21 18 -43.5t15 -40.5h-170l-8 -29h613zM567 396l48 -62l14.5 12.5t34.5 29.5t36 33q-4 16 -26 16h-365l-8 -29h266zM929 217h-309q37 49 93.5 88t124 65.5t138.5 39.5l-1 11
q-28 7 -49 30.5t-29 60.5q-213 -78 -298 -295h-145q-82 118 -188.5 194t-227.5 120l-10 -13q84 -49 164.5 -125.5t144.5 -175.5h-283l-9 -29h310q22 -38 41 -78t35 -83l136 53q-4 9 -14 14t-28 3q-12 25 -24.5 47t-26.5 44h318l58 -73l18 14t43.5 34t45.5 38q-4 16 -28 16z
" />
</svg>
