<?xml version="1.0" standalone="no"?>
<!DOCTYPE svg PUBLIC "-//W3C//DTD SVG 1.1//EN" "http://www.w3.org/Graphics/SVG/1.1/DTD/svg11.dtd" >
<svg xmlns="http://www.w3.org/2000/svg" xmlns:xlink="http://www.w3.org/1999/xlink" version="1.1" viewBox="-10 0 1010 1000">
   <path fill="currentColor"
d="M684 270l128 30q-3 9 -11.5 15.5t-24.5 6.5q-18 58 -42 104q75 18 115 46.5t53.5 58t6.5 52t-28 30t-49 -9.5q-13 -38 -45 -79t-67 -74q-48 85 -118 135q50 92 137 163.5t226 121.5l-2 11q-35 6 -57.5 26t-30.5 58q-123 -60 -197 -144t-111 -189.5t-53 -226.5
q-8 88 -33 171.5t-77 157t-140 132.5t-222 99l-7 -14q105 -47 175 -104.5t112.5 -124t64 -139t28.5 -150t7 -156.5v-40h-366l-9 -29h375v-169l134 13q-2 10 -9.5 17.5t-26.5 10.5v128h261l60 -78l19.5 15t45.5 36t47 40q-4 16 -28 16h-405v29q7 83 23.5 156.5t46.5 137.5
q35 -56 60 -131t34 -159zM212 271l127 32q-7 21 -38 22q-16 54 -39 103q59 17 88.5 42t35.5 49.5t-4.5 42.5t-31.5 21.5t-44 -13.5q-5 -28 -22 -58t-37 -55q-65 121 -174 183l-13 -10q57 -62 98 -154.5t54 -204.5z" />
</svg>
