<?xml version="1.0" standalone="no"?>
<!DOCTYPE svg PUBLIC "-//W3C//DTD SVG 1.1//EN" "http://www.w3.org/Graphics/SVG/1.1/DTD/svg11.dtd" >
<svg xmlns="http://www.w3.org/2000/svg" xmlns:xlink="http://www.w3.org/1999/xlink" version="1.1" viewBox="-10 0 1010 1000">
   <path fill="currentColor"
d="M781 482l64 -81l20 15.5t47 37t49 41.5q-3 16 -28 16h-380v327q0 36 -10.5 62t-43.5 42.5t-102 22.5q-4 -23 -10.5 -40.5t-23.5 -28.5q-16 -12 -42.5 -21t-76.5 -16v-15l15.5 1t40 2.5t50 3t46.5 2.5t30 1q16 0 21.5 -5t5.5 -18v-320h-403l-9 -29h412v-171l83 8
q46 -35 92 -80.5t79 -82.5h-555l-9 -29h576l61 -57l100 89q-11 11 -43 12q-52 36 -123.5 77.5t-143.5 73.5l17 2q-3 21 -34 27v131h228z" />
</svg>
