<?xml version="1.0" standalone="no"?>
<!DOCTYPE svg PUBLIC "-//W3C//DTD SVG 1.1//EN" "http://www.w3.org/Graphics/SVG/1.1/DTD/svg11.dtd" >
<svg xmlns="http://www.w3.org/2000/svg" xmlns:xlink="http://www.w3.org/1999/xlink" version="1.1" viewBox="-10 0 1010 1000">
   <path fill="currentColor"
d="M456 38l134 13q-1 10 -9 17.5t-28 10.5v528q0 7 -13.5 18.5t-32.5 20.5t-38 9h-13v-617zM664 191q92 36 150 77.5t88.5 81.5t38.5 74t-1.5 56t-30.5 27t-48 -13q-16 -48 -50.5 -101.5t-76 -104t-80.5 -89.5zM251 181l132 53q-3 8 -11 12.5t-28 3.5q-28 60 -70.5 129.5
t-98.5 135.5t-126 118l-10 -10q51 -62 92.5 -140t72.5 -157.5t47 -144.5zM723 477l127 65q-6 8 -16 11t-30 -1q-69 110 -147.5 183.5t-168 119t-192.5 71t-221 40.5l-4 -17q105 -26 199 -61t176.5 -87.5t152 -131t124.5 -192.5z" />
</svg>
