<?xml version="1.0" standalone="no"?>
<!DOCTYPE svg PUBLIC "-//W3C//DTD SVG 1.1//EN" "http://www.w3.org/Graphics/SVG/1.1/DTD/svg11.dtd" >
<svg xmlns="http://www.w3.org/2000/svg" xmlns:xlink="http://www.w3.org/1999/xlink" version="1.1" viewBox="-10 0 1010 1000">
   <path fill="currentColor"
d="M295 145v210v28.5t-1 28.5h431v-267h-430zM725 441h-225q20 80 70.5 157.5t143.5 144t239 116.5l-1 13q-38 6 -60.5 25.5t-29.5 60.5q-100 -47 -168 -108t-110.5 -130t-66.5 -140t-35 -139h-189q-3 66 -15 136t-38.5 138.5t-74.5 131t-123 115.5l-12 -10q75 -87 111 -186
t47.5 -203.5t11.5 -206.5v-282l111 42h404l47 -51l100 76q-5 6 -15.5 12t-26.5 9v316q0 3 -13.5 9.5t-31.5 11.5t-34 5h-16v-63z" />
</svg>
