<?xml version="1.0" standalone="no"?>
<!DOCTYPE svg PUBLIC "-//W3C//DTD SVG 1.1//EN" "http://www.w3.org/Graphics/SVG/1.1/DTD/svg11.dtd" >
<svg xmlns="http://www.w3.org/2000/svg" xmlns:xlink="http://www.w3.org/1999/xlink" version="1.1" viewBox="-10 0 1010 1000">
   <path fill="currentColor"
d="M632 42l116 84q-12 13 -43 5q-118 83 -250.5 141.5t-273.5 94.5l-7 -15q126 -54 243 -131t215 -179zM691 280l121 81q-11 14 -42 7q-122 106 -262.5 170t-299.5 101l-6 -15q141 -56 265 -138t224 -206zM778 546l125 81q-13 15 -47 7q-101 105 -212.5 169.5t-236 100.5
t-266.5 54l-4 -16q127 -34 242 -82t216 -123.5t183 -190.5z" />
</svg>
