<?xml version="1.0" standalone="no"?>
<!DOCTYPE svg PUBLIC "-//W3C//DTD SVG 1.1//EN" "http://www.w3.org/Graphics/SVG/1.1/DTD/svg11.dtd" >
<svg xmlns="http://www.w3.org/2000/svg" xmlns:xlink="http://www.w3.org/1999/xlink" version="1.1" viewBox="-10 0 1010 1000">
   <path fill="currentColor"
d="M626 29l110 79q-6 7 -14.5 9t-25.5 -4q-56 50 -138 101t-180 95t-203 73l-8 -12q68 -32 135 -73t128 -86.5t111.5 -92t84.5 -89.5zM704 219l111 81q-6 7 -14.5 9t-25.5 -4q-81 85 -209 169l36 13q-5 16 -31 20v433q0 3 -12.5 8.5t-30.5 10t-36 4.5h-18v-434
q-74 43 -157.5 79t-171.5 62l-7 -12q87 -41 170 -93t158 -110.5t135.5 -119t102.5 -116.5z" />
</svg>
