<?xml version="1.0" standalone="no"?>
<!DOCTYPE svg PUBLIC "-//W3C//DTD SVG 1.1//EN" "http://www.w3.org/Graphics/SVG/1.1/DTD/svg11.dtd" >
<svg xmlns="http://www.w3.org/2000/svg" xmlns:xlink="http://www.w3.org/1999/xlink" version="1.1" viewBox="-10 0 1010 1000">
   <path fill="currentColor"
d="M252 35l129 14q-2 10 -9.5 17.5t-27.5 10.5v858q0 7 -23.5 18t-49.5 11h-19v-929zM166 237l16 1q17 62 15.5 112.5t-15.5 87t-33 57.5q-20 21 -49 23t-43 -20q-11 -20 -3.5 -40.5t26.5 -35.5q18 -16 37 -44.5t33 -65.5t16 -75zM383 215q61 38 89.5 78.5t31.5 75.5
t-10.5 58t-35.5 26t-45 -22q5 -53 -8.5 -110.5t-33.5 -100.5z" />
</svg>
