<?xml version="1.0" standalone="no"?>
<!DOCTYPE svg PUBLIC "-//W3C//DTD SVG 1.1//EN" "http://www.w3.org/Graphics/SVG/1.1/DTD/svg11.dtd" >
<svg xmlns="http://www.w3.org/2000/svg" xmlns:xlink="http://www.w3.org/1999/xlink" version="1.1" viewBox="-10 0 1010 1000">
   <path fill="currentColor"
d="M416 63l11 -7q65 28 102 62t52.5 67.5t14 61.5t-15.5 45.5t-35 18.5t-44 -19q0 -39 -12.5 -80.5t-31.5 -80t-41 -68.5zM172 366l15 -1q28 75 30 135.5t-12 103.5t-36 68q-22 27 -53 29.5t-47 -20.5q-13 -21 -6 -42t26 -37q21 -19 41 -55t32 -83t10 -98zM776 649l3 163
q24 8 32.5 18t8.5 24q0 23 -20.5 37t-75 20.5t-158.5 6.5h-133q-54 0 -85.5 -8.5t-44.5 -31t-13 -62.5v-6q-54 35 -114 65.5t-126 56.5l-10 -13q69 -36 132 -79t118 -90v-529l130 14q-1 10 -8.5 17t-25.5 10v395q119 -127 200 -271t127 -286l137 50q-4 9 -13.5 13t-30.5 2
q-41 101 -99.5 203t-137.5 197t-183 177v49q0 19 11 26.5t48 7.5h128q41 0 70 -0.5t43 -1.5q22 -3 32 -17q8 -16 20 -58t26 -99h12zM753 388l11 -7q73 36 115.5 77t60.5 80.5t17.5 72t-15 52.5t-37 21t-47.5 -22q-1 -46 -16.5 -95t-39 -95.5t-49.5 -83.5z" />
</svg>
