<?xml version="1.0" standalone="no"?>
<!DOCTYPE svg PUBLIC "-//W3C//DTD SVG 1.1//EN" "http://www.w3.org/Graphics/SVG/1.1/DTD/svg11.dtd" >
<svg xmlns="http://www.w3.org/2000/svg" xmlns:xlink="http://www.w3.org/1999/xlink" version="1.1" viewBox="-10 0 1010 1000">
   <path fill="currentColor"
d="M533 66l8 -8q72 6 117.5 24t69 42t28.5 48t-3.5 42t-28 23.5t-44.5 -6.5q-12 -30 -36.5 -61t-53.5 -58t-57 -46zM942 703l-22 159q35 31 41 46t-2 28q-13 24 -43 28t-68 -6t-74 -26q-76 -32 -135.5 -76t-105.5 -96q-94 64 -210.5 113t-257.5 78l-7 -14
q129 -41 237.5 -101t195.5 -133q-51 -75 -81.5 -164.5t-47.5 -189.5l-314 24l-11 -28l321 -24q-10 -68 -14 -139t-4 -146l136 14q-1 10 -8.5 17.5t-26.5 10.5q0 60 3 119.5t10 115.5l324 -23l55 -84l20 13.5t47.5 33t49.5 37.5q-1 8 -8 12.5t-17 5.5l-466 34q13 82 38.5 156
t65.5 137q62 -61 108 -128t78 -137l121 65q-4 8 -13.5 11t-28.5 0q-38 67 -92 131t-123 122q38 43 89 78t115 60q18 7 28 6.5t18 -13.5q13 -20 33 -57.5t35 -71.5z" />
</svg>
