<?xml version="1.0" standalone="no"?>
<!DOCTYPE svg PUBLIC "-//W3C//DTD SVG 1.1//EN" "http://www.w3.org/Graphics/SVG/1.1/DTD/svg11.dtd" >
<svg xmlns="http://www.w3.org/2000/svg" xmlns:xlink="http://www.w3.org/1999/xlink" version="1.1" viewBox="-10 0 1010 1000">
   <path fill="currentColor"
d="M389 45l9 -7q70 13 112.5 36t62.5 50t21.5 51.5t-10.5 41.5t-32.5 20.5t-45.5 -13.5q-7 -31 -25.5 -64t-42.5 -63t-49 -52zM676 288h-406q34 117 93.5 208t140.5 159q68 -79 110 -171.5t62 -195.5zM931 288h-137q-29 124 -83.5 228.5t-140.5 188.5q86 59 187.5 99.5
t213.5 65.5l-3 12q-74 8 -102 83q-107 -33 -198 -82.5t-165 -117.5q-87 67 -201 118t-260 83l-7 -14q134 -44 237.5 -104.5t179.5 -134.5q-71 -80 -122 -185.5t-80 -239.5h-199l-8 -28h741l63 -82l19.5 15.5t45.5 37t47 41.5q-4 16 -28 16z" />
</svg>
