<?xml version="1.0" standalone="no"?>
<!DOCTYPE svg PUBLIC "-//W3C//DTD SVG 1.1//EN" "http://www.w3.org/Graphics/SVG/1.1/DTD/svg11.dtd" >
<svg xmlns="http://www.w3.org/2000/svg" xmlns:xlink="http://www.w3.org/1999/xlink" version="1.1" viewBox="-10 0 1010 1000">
   <path fill="currentColor"
d="M242 447h202q17 -77 21 -154.5t5 -155.5h-169q-7 40 -17 95.5t-21 112.5t-21 102zM919 476h-384q-25 94 -80 182t-153.5 165.5t-256.5 143.5l-11 -16q128 -72 209 -149t127 -159t67 -167h-194l-39 46l-97 -62q13 -11 36 -23q11 -42 22 -98t20 -110.5t14 -91.5h-97l-9 -29
h628l60 -71l18.5 13.5t44.5 33t48 37.5q-4 16 -28 16h-290q-2 79 -8 157.5t-24 152.5h229l62 -76l19.5 14.5t46 35t48.5 39.5q-4 16 -28 16zM924 708l3 130q22 7 28.5 16t6.5 22q0 20 -17 33.5t-62.5 19.5t-129.5 6h-111q-47 0 -71.5 -7.5t-33.5 -26.5t-9 -52v-336l124 12
q-3 20 -31 26v275q0 13 7 17.5t34 4.5h99q32 0 55.5 -0.5t33.5 -1.5q16 -1 24 -13q8 -13 17.5 -47.5t21.5 -77.5h11z" />
</svg>
