<?xml version="1.0" standalone="no"?>
<!DOCTYPE svg PUBLIC "-//W3C//DTD SVG 1.1//EN" "http://www.w3.org/Graphics/SVG/1.1/DTD/svg11.dtd" >
<svg xmlns="http://www.w3.org/2000/svg" xmlns:xlink="http://www.w3.org/1999/xlink" version="1.1" viewBox="-10 0 1010 1000">
   <path fill="currentColor"
d="M911 290h-345q43 91 107.5 170t140.5 139.5t153 96.5l-2 11q-31 4 -54 26.5t-36 57.5q-111 -77 -195 -204.5t-134 -295.5v416h56l55 -77l17.5 15t41 35.5t41.5 39.5q-4 16 -27 16h-184v196q0 8 -24.5 19t-53.5 11h-19v-226h-196l-8 -29h204v-289q-66 123 -168.5 225.5
t-239.5 176.5l-11 -11q84 -65 152.5 -149.5t120.5 -179.5t83 -190h-309l-9 -29h381v-227l138 14q-1 11 -9.5 19t-31.5 12v182h219l63 -82l19 15.5t45.5 37.5t46.5 42q-4 16 -28 16z" />
</svg>
