<?xml version="1.0" standalone="no"?>
<!DOCTYPE svg PUBLIC "-//W3C//DTD SVG 1.1//EN" "http://www.w3.org/Graphics/SVG/1.1/DTD/svg11.dtd" >
<svg xmlns="http://www.w3.org/2000/svg" xmlns:xlink="http://www.w3.org/1999/xlink" version="1.1" viewBox="-10 0 1010 1000">
   <path fill="currentColor"
d="M607 73l8 -9q73 7 113 27.5t54 45.5t8 45.5t-25 28.5t-45 -7q-12 -36 -46 -72.5t-67 -58.5zM50 932l-12 -15q74 -53 113.5 -113.5t56 -127.5t19.5 -140t4 -151l128 11q-3 22 -33 26q-3 75 -10 146.5t-32 137t-80 122.5t-154 104zM925 305h-385v624q0 5 -12 13.5t-29.5 15
t-35.5 6.5h-19v-659h-376l-9 -29h385v-241l133 14q-2 10 -9.5 17.5t-27.5 10.5v199h254l56 -68l17.5 13t41.5 31.5t43 36.5q-3 16 -27 16zM932 781l5 1q20 8 27.5 16.5t7.5 22.5q0 28 -32 41t-118 13h-66q-38 0 -57.5 -8t-26 -26t-6.5 -48v-409l125 12q-3 22 -31 26v347
q0 10 4 14.5t19 4.5h49h27t20 -1q10 0 20 -2q5 0 12 -1.5t12 -2.5h9z" />
</svg>
