<?xml version="1.0" standalone="no"?>
<!DOCTYPE svg PUBLIC "-//W3C//DTD SVG 1.1//EN" "http://www.w3.org/Graphics/SVG/1.1/DTD/svg11.dtd" >
<svg xmlns="http://www.w3.org/2000/svg" xmlns:xlink="http://www.w3.org/1999/xlink" version="1.1" viewBox="-10 0 1010 1000">
   <path fill="currentColor"
d="M799 261h-482q-48 91 -109 161t-135 120l-12 -9q49 -58 92.5 -137t78 -171.5t54.5 -192.5l142 42q-3 9 -13 15.5t-27 5.5q-13 37 -26.5 71t-29.5 66h463l57 -57l97 95q-5 6 -14.5 8t-25.5 4q-21 30 -52 67.5t-65 73.5t-64 63l-11 -7q14 -29 29 -67t29 -78t24 -73z
M449 322l140 32q-3 10 -12.5 17t-27.5 6q14 107 56.5 197.5t129.5 161t232 118.5l-1 12q-40 7 -63.5 30t-30.5 67q-87 -41 -146.5 -97t-97 -123.5t-58 -142.5t-31.5 -154q-8 60 -24.5 118.5t-48.5 113.5t-85.5 106t-136 97t-200.5 85l-10 -17q109 -54 182.5 -111
t118.5 -117.5t68.5 -125t33 -132.5t12.5 -141z" />
</svg>
