<?xml version="1.0" standalone="no"?>
<!DOCTYPE svg PUBLIC "-//W3C//DTD SVG 1.1//EN" "http://www.w3.org/Graphics/SVG/1.1/DTD/svg11.dtd" >
<svg xmlns="http://www.w3.org/2000/svg" xmlns:xlink="http://www.w3.org/1999/xlink" version="1.1" viewBox="-10 0 1010 1000">
   <path fill="currentColor"
d="M786 885l64 -80l20 15t47 36.5t49 41.5q-4 16 -28 16h-894l-9 -29h149v-516l138 13q-2 10 -9.5 17t-27.5 10v476h177v-723h-373l-8 -29h670l62 -79l20 15t47 36t48 41q-4 16 -27 16h-337v321h150l62 -78l19 15t45 36t47 40q-4 16 -29 16h-294v373h222z" />
</svg>
