<?xml version='1.0' encoding='ASCII' standalone='yes'?>
<svg xmlns="http://www.w3.org/2000/svg" xmlns:xlink="http://www.w3.org/1999/xlink" version="1.1" viewBox="0 0 1010 1000" height="1000" width="1010">
   <g><g transform="translate(1010, 0) scale(1)  scale(-1.000000 1.000000)"><path fill="currentColor" d="M786 885l64 -80l20 15t47 36.5t49 41.5q-4 16 -28 16h-894l-9 -29h149v-516l138 13q-2 10 -9.5 17t-27.5 10v476h177v-723h-373l-8 -29h670l62 -79l20 15t47 36t48 41q-4 16 -27 16h-337v321h150l62 -78l19 15t45 36t47 40q-4 16 -29 16h-294v373h222z"/>
</g></g></svg>
