<?xml version="1.0" standalone="no"?>
<!DOCTYPE svg PUBLIC "-//W3C//DTD SVG 1.1//EN" "http://www.w3.org/Graphics/SVG/1.1/DTD/svg11.dtd" >
<svg xmlns="http://www.w3.org/2000/svg" xmlns:xlink="http://www.w3.org/1999/xlink" version="1.1" viewBox="-10 0 1010 1000">
   <path fill="currentColor"
d="M429 380l50 -75l15.5 14.5t36 35t36.5 38.5q-4 16 -27 16h-146v365q77 -15 156 -33l3 14q-71 34 -177 80.5t-260 105.5q-7 20 -25 25l-64 -119q16 -2 37.5 -6.5t47.5 -8.5v-582l121 12q-1 10 -8 17t-25 9v526q24 -5 49.5 -10t52.5 -10v-749l128 13q-1 10 -8.5 17.5
t-27.5 10.5v294h35zM924 683l3 156q22 9 29.5 18.5t7.5 23.5q0 20 -16.5 33t-56.5 19.5t-111 6.5h-84q-64 0 -87 -20.5t-23 -75.5v-800l130 15q-1 10 -9 17.5t-27 10.5v292h105l52 -79l16 15.5t37.5 36.5t37.5 40q-4 16 -27 16h-221v408q0 17 7.5 24t31.5 7h68
q22 0 38.5 -0.5t26.5 -1.5q13 0 21 -13q5 -9 11 -32t13.5 -54t14.5 -63h12z" />
</svg>
