<?xml version="1.0" standalone="no"?>
<!DOCTYPE svg PUBLIC "-//W3C//DTD SVG 1.1//EN" "http://www.w3.org/Graphics/SVG/1.1/DTD/svg11.dtd" >
<svg xmlns="http://www.w3.org/2000/svg" xmlns:xlink="http://www.w3.org/1999/xlink" version="1.1" viewBox="-10 0 1010 1000">
   <path fill="currentColor"
d="M57 448l-5 -16q113 -34 220.5 -82t198.5 -105q-77 -34 -165.5 -65t-183.5 -56l5 -15q134 17 238.5 39t183.5 46q57 -39 102.5 -80t77.5 -80l129 72q-5 8 -19 11t-38 -1q-32 29 -71 57t-83 54q89 35 138.5 69.5t69 64t15 49.5t-24 26.5t-46.5 -4.5q-39 -33 -102.5 -72
t-146.5 -78q-106 53 -231.5 96.5t-261.5 69.5zM652 415l134 59q-4 8 -12.5 11.5t-27.5 2.5q-33 71 -80 135.5t-110 120.5q89 46 194 76t217 46l-2 12q-67 12 -89 88q-113 -26 -210.5 -67.5t-176.5 -102.5q-86 61 -197.5 103.5t-252.5 63.5l-5 -14q124 -34 222.5 -85.5
t173.5 -116.5q-58 -57 -103.5 -128.5t-75.5 -159.5l14 -10q35 79 89.5 140.5t125.5 109.5q60 -63 103 -134.5t69 -149.5z" />
</svg>
