<?xml version="1.0" standalone="no"?>
<!DOCTYPE svg PUBLIC "-//W3C//DTD SVG 1.1//EN" "http://www.w3.org/Graphics/SVG/1.1/DTD/svg11.dtd" >
<svg xmlns="http://www.w3.org/2000/svg" xmlns:xlink="http://www.w3.org/1999/xlink" version="1.1" viewBox="-10 0 1010 1000">
   <path fill="currentColor"
d="M783 886l63 -80l20 15t47.5 36.5t48.5 41.5q-4 16 -28 16h-882l-9 -29h397v-380h-289l-8 -29h297v-315h-330l-9 -28h634l62 -79l20 15t47 36t49 40q-4 16 -29 16h-341v315h157l61 -76l19 14.5t44.5 35t46.5 39.5q-4 16 -28 16h-300v380h240zM613 569l9 -7q74 17 118 44
t64 56.5t21 56t-12 44t-34.5 20.5t-47.5 -15q-5 -35 -23.5 -71.5t-43.5 -69.5t-51 -58z" />
</svg>
