<?xml version="1.0" standalone="no"?>
<!DOCTYPE svg PUBLIC "-//W3C//DTD SVG 1.1//EN" "http://www.w3.org/Graphics/SVG/1.1/DTD/svg11.dtd" >
<svg xmlns="http://www.w3.org/2000/svg" xmlns:xlink="http://www.w3.org/1999/xlink" version="1.1" viewBox="-10 0 1010 1000">
   <path fill="currentColor"
d="M786 890l64 -80l20 15t47 36.5t49 41.5q-4 16 -28 16h-894l-9 -29h410v-297h-286l-8 -29h294v-254h-198q-44 74 -96 134t-111 105l-13 -9q41 -56 79.5 -131t70.5 -161.5t52 -176.5l141 43q-3 9 -12.5 15t-26.5 5q-15 39 -32 75.5t-36 71.5h182v-241l139 14
q-1 11 -8.5 18.5t-27.5 10.5v198h187l61 -75l19 14t45.5 34t48.5 40q-4 16 -28 16h-333v254h153l62 -76l19.5 14.5t46 35t47.5 39.5q-3 16 -27 16h-301v297h238z" />
</svg>
