<?xml version="1.0" standalone="no"?>
<!DOCTYPE svg PUBLIC "-//W3C//DTD SVG 1.1//EN" "http://www.w3.org/Graphics/SVG/1.1/DTD/svg11.dtd" >
<svg xmlns="http://www.w3.org/2000/svg" xmlns:xlink="http://www.w3.org/1999/xlink" version="1.1" viewBox="-10 0 1010 1000">
   <path fill="currentColor"
d="M545 577h236v-200h-236v200zM215 577h231v-200h-231v200zM446 153h-231v195h231v-195zM781 153h-236v195h236v-195zM818 71l102 78q-5 6 -15.5 11.5t-26.5 8.5v477q0 3 -14 9.5t-33 12t-36 5.5h-14v-67h-236v331q0 5 -21.5 17t-59.5 12h-18v-360h-231v49q0 7 -25 19.5
t-57 12.5h-15v-606l105 43h548z" />
</svg>
