<?xml version="1.0" standalone="no"?>
<!DOCTYPE svg PUBLIC "-//W3C//DTD SVG 1.1//EN" "http://www.w3.org/Graphics/SVG/1.1/DTD/svg11.dtd" >
<svg xmlns="http://www.w3.org/2000/svg" xmlns:xlink="http://www.w3.org/1999/xlink" version="1.1" viewBox="-10 0 1010 1000">
   <path fill="currentColor"
d="M929 423h-362q44 81 110 150t144 120t156 81l-3 11q-30 6 -53 28.5t-34 60.5q-115 -68 -201.5 -182t-139.5 -269h-2v514q-1 5 -21.5 16.5t-57.5 11.5h-18v-438q-70 112 -174.5 204.5t-235.5 159.5l-10 -13q79 -57 147.5 -131.5t122.5 -158t89 -165.5h-332l-8 -29h401
v-202q-84 9 -171.5 14.5t-171.5 7.5l-3 -17q88 -11 181.5 -28.5t182.5 -39t166 -45t132 -45.5l103 96q-18 16 -63 -1q-55 13 -120.5 24.5t-138.5 21.5v214h239l62 -76l19.5 14.5t45.5 35t47 39.5q-4 16 -28 16z" />
</svg>
