<?xml version="1.0" standalone="no"?>
<!DOCTYPE svg PUBLIC "-//W3C//DTD SVG 1.1//EN" "http://www.w3.org/Graphics/SVG/1.1/DTD/svg11.dtd" >
<svg xmlns="http://www.w3.org/2000/svg" xmlns:xlink="http://www.w3.org/1999/xlink" version="1.1" viewBox="-10 0 1010 1000">
   <path fill="currentColor"
d="M272 617l116 61q-4 7 -12 10.5t-26 0.5q-32 41 -79 84t-105 82t-122 68l-10 -12q51 -39 97.5 -90t83 -104.5t57.5 -99.5zM628 632l10 -8q91 27 148 63t86.5 73t36.5 69.5t-2.5 55t-31 27.5t-49.5 -13q-13 -47 -45 -96t-72.5 -93.5t-80.5 -77.5zM660 381l9 -8
q85 20 138.5 50t81.5 62.5t35.5 62t-1.5 49.5t-29 25.5t-46 -10.5q-7 -23 -21 -46.5t-31 -46.5q-50 7 -111.5 16t-131.5 19v296q0 32 -9 56.5t-36 39t-82 18.5q-1 -20 -5 -36t-12 -26q-10 -10 -25 -17.5t-47 -11.5v-14l12 1t29 2t32.5 2t22.5 1q11 0 15 -4.5t4 -12.5v-282
q-61 7 -126.5 15t-135.5 16q-12 17 -27 22l-46 -114l17 -2.5t30 -6.5q56 -18 120 -47t129.5 -64t125.5 -72q-66 13 -148.5 28t-174.5 30q-10 14 -23 19l-43 -106l12 -2.5t21 -6.5q40 -16 85 -44.5t88.5 -63t79 -68.5t55.5 -59l116 81q-4 6 -14 9.5t-26 -0.5
q-35 25 -88.5 54.5t-115 58t-121.5 50.5q66 -2 159 -6t194 -10q44 -30 81 -58.5t62 -51.5l104 97q-5 6 -18 8.5t-30 -4.5q-42 27 -105 58.5t-138.5 64.5t-156.5 64t-159 56q65 -1 151 -3t186 -5.5t206 -7.5q-26 -33 -57.5 -62.5t-60.5 -51.5z" />
</svg>
