<?xml version="1.0" standalone="no"?>
<!DOCTYPE svg PUBLIC "-//W3C//DTD SVG 1.1//EN" "http://www.w3.org/Graphics/SVG/1.1/DTD/svg11.dtd" >
<svg xmlns="http://www.w3.org/2000/svg" xmlns:xlink="http://www.w3.org/1999/xlink" version="1.1" viewBox="-10 0 1010 1000">
   <path fill="currentColor"
d="M325 710h336v-179h-336v179zM661 133h-336v169h336v-169zM325 331v171h336v-171h-336zM789 710l62 -78l20 15t47 36t49 40q-4 16 -28 16h-179v198q0 4 -21.5 16.5t-59.5 12.5h-18v-227h-617l-9 -29h192v-577h-151l-8 -29h700l63 -77l19.5 14.5t46.5 35.5t49 40
q-4 16 -28 16h-158v577h29z" />
</svg>
