<?xml version="1.0" standalone="no"?>
<!DOCTYPE svg PUBLIC "-//W3C//DTD SVG 1.1//EN" "http://www.w3.org/Graphics/SVG/1.1/DTD/svg11.dtd" >
<svg xmlns="http://www.w3.org/2000/svg" xmlns:xlink="http://www.w3.org/1999/xlink" version="1.1" viewBox="-10 0 1010 1000">
   <path fill="currentColor"
d="M822 150l100 80q-9 12 -42 20v676q0 4 -13.5 11t-32 13t-36.5 6h-15v-90h-570v69q-1 5 -21 16.5t-62 11.5h-13v-792l102 36q51 -32 107.5 -75t105.5 -86l95 94q-13 13 -41 2q-64 33 -137.5 59t-135.5 41v273h114l54 -76l17.5 14.5t41 35t42.5 38.5q-4 16 -27 16h-242v294
h570v-294h-231l-9 -28h240v-281h-251l-9 -29h251z" />
</svg>
