<?xml version="1.0" standalone="no"?>
<!DOCTYPE svg PUBLIC "-//W3C//DTD SVG 1.1//EN" "http://www.w3.org/Graphics/SVG/1.1/DTD/svg11.dtd" >
<svg xmlns="http://www.w3.org/2000/svg" xmlns:xlink="http://www.w3.org/1999/xlink" version="1.1" viewBox="-10 0 1010 1000">
   <path fill="currentColor"
d="M101 48l9 -8q80 16 123 43.5t57.5 57.5t7.5 53.5t-28 31.5t-49 -9q-8 -29 -27.5 -60.5t-44 -60t-48.5 -48.5zM335 462l83 70q-9 12 -39 13q-22 57 -64 114.5t-100 101.5q3 1 6 3.5t6 4.5q42 38 97 57.5t131 25.5t180 6q88 0 166.5 -1t167.5 -5v12q-29 6 -46 27.5
t-21 50.5h-298q-105 0 -175.5 -13t-120.5 -44t-94 -83q-18 -24 -32 1q-14 22 -36.5 60t-40.5 73q4 12 -7 21l-69 -94q24 -16 54 -38t57 -41t42 -25q35 -45 64 -105t43 -116h-94l-32 29l-73 -58q18 -11 40 -17q25 -36 54 -83t49 -85h-178l-9 -29h192l43 -45l89 79
q-7 8 -23 12t-36 5q-20 34 -49.5 79.5t-54.5 83.5h79z" />
</svg>
