<?xml version="1.0" standalone="no"?>
<!DOCTYPE svg PUBLIC "-//W3C//DTD SVG 1.1//EN" "http://www.w3.org/Graphics/SVG/1.1/DTD/svg11.dtd" >
<svg xmlns="http://www.w3.org/2000/svg" xmlns:xlink="http://www.w3.org/1999/xlink" version="1.1" viewBox="-10 0 1010 1000">
   <path fill="currentColor"
d="M788 59l110 65q-4 7 -12.5 10t-25.5 0q-29 31 -72 69.5t-88 67.5l-12 -11q19 -30 38.5 -66.5t36 -72.5t25.5 -62zM98 74l10 -7q77 21 117 52.5t52 63t2.5 55t-32 30.5t-49.5 -13q-8 -47 -38 -96.5t-62 -84.5zM655 332l6 -14q92 10 152 29.5t93 43.5t44 47.5t6 41
t-21 24.5t-38 -2q-18 -23 -53.5 -52.5t-83.5 -60.5t-105 -57zM452 486v-171h-156l88 57q-5 7 -13 9.5t-24 -1.5q-28 21 -65.5 43.5t-81.5 42.5l48 20h204zM799 286l57 -71l18 13.5t43.5 33t45.5 37.5q-4 16 -28 16h-391v171h204l44 -51l101 77q-4 5 -15 11.5t-27 8.5v324
q0 31 -8.5 53.5t-35 36.5t-82.5 18q-2 -20 -6.5 -35t-15.5 -24q-10 -11 -27.5 -19t-52.5 -12v-14l14 1t34 2t38.5 2t27.5 1q13 0 17 -4.5t4 -14.5v-332h-214v406q-1 4 -21 15t-55 11h-16v-336q-8 3 -25 1q-18 33 -44 73.5t-57.5 81t-67.5 74.5l-12 -11q24 -42 46 -93
t39 -101t26 -88l95 45v-78h-211v418q0 4 -11.5 11.5t-29.5 13.5t-37 6h-14v-477q-27 10 -54.5 19.5t-55.5 16.5l-9 -14q47 -24 94 -56.5t86.5 -68.5t66.5 -69h-230l-8 -29h323v-249l121 11q-1 10 -8 16.5t-24 9.5v212h95v-249l122 11q-1 10 -8 16.5t-25 9.5v212h164z
M566 572l13 -6q71 40 108.5 81t49 76t4.5 57.5t-25.5 27.5t-40.5 -14q-7 -35 -25 -75t-40.5 -78.5t-43.5 -68.5z" />
</svg>
