<?xml version="1.0" standalone="no"?>
<!DOCTYPE svg PUBLIC "-//W3C//DTD SVG 1.1//EN" "http://www.w3.org/Graphics/SVG/1.1/DTD/svg11.dtd" >
<svg xmlns="http://www.w3.org/2000/svg" xmlns:xlink="http://www.w3.org/1999/xlink" version="1.1" viewBox="-10 0 1010 1000">
   <path fill="currentColor"
d="M92 104q73 38 117 79.5t64.5 81t22 72t-10.5 52.5t-32.5 22.5t-44.5 -18.5q-5 -46 -25 -97t-47 -99.5t-55 -86.5zM366 42q68 39 108 81.5t57 83t16.5 73t-14 52t-34.5 21.5t-45 -20q-1 -47 -16 -98.5t-37 -100t-46 -86.5zM812 69l137 63q-4 8 -12.5 12t-27.5 3
q-35 60 -86 131t-115 139.5t-139 123.5l-11 -10q41 -49 79.5 -108.5t72 -122t60 -122t42.5 -109.5z" />
</svg>
