<?xml version="1.0" standalone="no"?>
<!DOCTYPE svg PUBLIC "-//W3C//DTD SVG 1.1//EN" "http://www.w3.org/Graphics/SVG/1.1/DTD/svg11.dtd" >
<svg xmlns="http://www.w3.org/2000/svg" xmlns:xlink="http://www.w3.org/1999/xlink" version="1.1" viewBox="-10 0 365 1000">
   <path fill="currentColor"
d="M92 79q41 0 41 52q0 19 -3.5 50t-7.5 63.5t-6 57.5l-10 97h-28l-11 -97q-2 -25 -6 -57.5t-7.5 -63.5t-3.5 -50q0 -52 42 -52zM264 79q41 0 41 52q0 19 -3.5 50t-7.5 63.5t-6 57.5l-10 97h-28l-11 -97q-2 -25 -6 -57.5t-7.5 -63.5t-3.5 -50q0 -52 42 -52z" />
</svg>
