<?xml version="1.0" standalone="no"?>
<!DOCTYPE svg PUBLIC "-//W3C//DTD SVG 1.1//EN" "http://www.w3.org/Graphics/SVG/1.1/DTD/svg11.dtd" >
<svg xmlns="http://www.w3.org/2000/svg" xmlns:xlink="http://www.w3.org/1999/xlink" version="1.1" viewBox="-10 0 1010 1000">
   <path fill="currentColor"
d="M126 161l18 -12q15 7 23.5 12t21.5 16q9 8 24 25t26.5 38.5t11.5 41.5q0 15 -10 34.5t-29 66.5q-10 27 -25 69t-26 92t-11 103q0 43 5.5 66.5t14.5 40.5q12 20 23 0q8 -12 20.5 -41t27.5 -64t28 -67t22 -51l24 12q-7 19 -18 49t-22.5 61.5t-21.5 58.5t-15 41
q-7 22 -12 38.5t-5 29.5q0 22 6.5 43.5t6.5 38.5q0 25 -24 25q-12 0 -22 -10t-20 -26q-12 -19 -25.5 -54.5t-23 -81.5t-9.5 -94q0 -95 18 -166t31 -116q10 -36 18 -63t9 -49q1 -26 -15.5 -50.5t-44.5 -56.5zM677 730v-5q-46 -12 -104 -12q-31 0 -62 9t-51 25.5t-20 41.5
q0 34 30.5 50t76.5 16q56 0 84 -14t37 -42t9 -69zM576 183l-2 -22q15 -5 34.5 -9t35.5 -4q19 0 39 7t34.5 18t14.5 22q0 10 -2.5 17.5t-6 19t-7.5 34.5q-4 18 -5.5 39.5t-2.5 46.5q27 -7 47.5 -14t32.5 -13q26 -11 37 -17.5t18 -6.5q13 1 30 8t17 21q0 21 -42 35
q-22 7 -59 17.5t-81 18.5q1 78 6.5 154.5t9.5 135.5q60 16 101 42.5t63 46.5q14 13 22.5 26.5t8.5 27.5q0 27 -21 27q-10 0 -19.5 -7.5t-20.5 -18.5q-28 -28 -59.5 -52t-71.5 -41q1 10 1 18v16q0 54 -37.5 90.5t-128.5 36.5q-66 0 -111.5 -28.5t-45.5 -80.5
q0 -41 25.5 -67.5t69 -39.5t96.5 -13q43 0 80 6q-1 -36 -3.5 -81.5t-5 -95t-4.5 -94.5q-29 4 -59 7t-59 3q-30 0 -54.5 -6.5t-48 -25t-51.5 -53.5l15 -15q29 22 62 37.5t79 15.5q31 0 60.5 -3t55.5 -7v-51.5v-52v-38.5q0 -24 -17 -28q-27 -7 -70 -9zM865 241q32 0 54 -22.5
t22 -53.5q0 -32 -22 -54t-54 -22q-31 0 -53.5 22t-22.5 54q0 31 22.5 53.5t53.5 22.5zM865 58q44 0 75.5 31.5t31.5 75.5t-31.5 75.5t-75.5 31.5t-75.5 -31.5t-31.5 -75.5t31.5 -75.5t75.5 -31.5z" />
</svg>
