<?xml version="1.0" standalone="no"?>
<!DOCTYPE svg PUBLIC "-//W3C//DTD SVG 1.1//EN" "http://www.w3.org/Graphics/SVG/1.1/DTD/svg11.dtd" >
<svg xmlns="http://www.w3.org/2000/svg" xmlns:xlink="http://www.w3.org/1999/xlink" version="1.1" viewBox="-10 0 1010 1000">
   <path fill="currentColor"
d="M469 487q17 10 37 27.5t36.5 39t25 42.5t2.5 39q-10 28 -19.5 25t-23.5 -40q-14 -36 -35 -66t-54 -58q-26 -23 -18 -28t49 19zM376 832q18 -2 51 -4.5t72 -4.5t77 -2.5t67 1.5l4.5 -31.5t3.5 -39.5q2 -38 3.5 -90t2.5 -105.5t1.5 -95.5t0.5 -58q0 -39 -2.5 -56t-13.5 -22
t-37 -8q-16 -2 -46.5 -1.5t-67.5 3t-72 8.5t-61 16q-1 7 -1 15t-2 19q-3 24 -4.5 73t-3 109t-2 118.5t-0.5 101.5v37t6 15t24 2zM717 306q5 5 5.5 12t-10.5 21q-5 6 -8.5 35t-5.5 69.5t-3 81t-2 67.5q0 21 -0.5 55.5t-1 75t-2 81t-3.5 73.5t-11 40.5t-29 -33.5q-4 -7 -5 -15
t-1 -17q-14 -1 -45 -1t-69.5 0.5t-76 3t-65.5 6.5t-36 11q-19 16 -25.5 14t-16.5 -25q-7 -18 -7.5 -26.5t3 -20t7.5 -36.5q6 -38 5 -106t-1 -174q0 -23 -0.5 -53.5t-2.5 -61t-7.5 -53.5t-15.5 -31q-15 -12 -12.5 -19t12.5 -5q14 1 26 7.5t24 12.5q5 2 8 4t6 5q29 -6 70 -9.5
t82.5 -5t72 -3t37.5 -4.5q23 -8 33.5 -11t16.5 -2t14 6q10 7 20.5 14.5t19.5 16.5z" />
</svg>
