<?xml version="1.0" standalone="no"?>
<!DOCTYPE svg PUBLIC "-//W3C//DTD SVG 1.1//EN" "http://www.w3.org/Graphics/SVG/1.1/DTD/svg11.dtd" >
<svg xmlns="http://www.w3.org/2000/svg" xmlns:xlink="http://www.w3.org/1999/xlink" version="1.1" viewBox="-10 0 1010 1000">
   <path fill="currentColor"
d="M707 833q3 14 -2.5 28.5t-17.5 14.5q-13 0 -18 -11t-24 -45q-18 -33 -56.5 -88.5t-86.5 -117.5q-52 63 -122 126.5t-158 116.5q-30 18 -39 18t-2.5 -10t21.5 -21q83 -58 152.5 -126.5t122.5 -135.5q-49 -62 -100.5 -120t-92.5 -95q-25 -21 -20 -30.5t30 5.5q19 11 52 42
t74 73.5t83 91.5q45 -62 74.5 -116.5t42 -94.5t5.5 -56q-10 -28 0 -31t42 26q26 22 26.5 35.5t-16.5 33.5q-3 3 -19.5 35.5t-48 84t-80.5 113.5q45 52 83.5 102.5t64.5 90t30 61.5z" />
</svg>
