<?xml version="1.0" standalone="no"?>
<!DOCTYPE svg PUBLIC "-//W3C//DTD SVG 1.1//EN" "http://www.w3.org/Graphics/SVG/1.1/DTD/svg11.dtd" >
<svg xmlns="http://www.w3.org/2000/svg" xmlns:xlink="http://www.w3.org/1999/xlink" version="1.1" viewBox="-10 0 1010 1000">
   <path fill="currentColor"
d="M833 138l43 -55l13.5 11t32.5 26.5t35 30.5q-4 16 -26 16h-536q-12 42 -30.5 96t-37.5 108t-35 99h453l38 -39l72 62q-4 5 -14 9t-27 5q-7 61 -19 125.5t-28 122.5t-35 101t-40 61q-25 20 -58.5 31t-77.5 10q0 -14 -6 -26.5t-22 -19.5q-11 -6 -37 -12.5t-58 -12t-63 -9.5
l1 -18q27 3 61.5 6l69 6t61.5 5t37 2q20 0 31.5 -3t21.5 -11q16 -12 31 -48.5t27.5 -88t23 -111t17.5 -117.5h-472v1h9l-31 30l-61 -55q19 -11 45 -18q17 -40 35.5 -93t35 -105.5t27.5 -92.5h-268l-9 -29h770z" />
</svg>
