<?xml version="1.0" standalone="no"?>
<!DOCTYPE svg PUBLIC "-//W3C//DTD SVG 1.1//EN" "http://www.w3.org/Graphics/SVG/1.1/DTD/svg11.dtd" >
<svg xmlns="http://www.w3.org/2000/svg" xmlns:xlink="http://www.w3.org/1999/xlink" version="1.1" viewBox="-10 0 1010 1000">
   <path fill="currentColor"
d="M819 160l48 -58l14.5 11.5t34.5 28t36 31.5q-3 16 -26 16h-494q-1 54 -5 108.5t-12 109.5h309l33 -38l70 58q-12 11 -41 15q-6 110 -18.5 206t-31.5 163t-44 92q-21 20 -51 30t-64 10q0 -13 -4.5 -24t-16.5 -18q-14 -8 -49.5 -15.5t-70.5 -12.5l1 -19q27 3 63 6.5t67 6
t43 2.5q17 0 26 -3t19 -10q19 -16 34 -77t26 -150.5t18 -192.5h-322q-16 94 -52.5 186t-106.5 177t-185 160l-15 -18q88 -67 146 -140t92 -150t50.5 -155t22.5 -155.5t7 -151.5h-312l-9 -29h770z" />
</svg>
