<?xml version="1.0" standalone="no"?>
<!DOCTYPE svg PUBLIC "-//W3C//DTD SVG 1.1//EN" "http://www.w3.org/Graphics/SVG/1.1/DTD/svg11.dtd" >
<svg xmlns="http://www.w3.org/2000/svg" xmlns:xlink="http://www.w3.org/1999/xlink" version="1.1" viewBox="-10 0 1010 1000">
   <path fill="currentColor"
d="M924 289h-288q-3 89 -14 167t-37.5 145.5t-77.5 125.5q90 65 205.5 107t254.5 64l-2 11q-19 1 -35 13.5t-24 33.5q-134 -28 -243 -75t-192 -117q-65 59 -166.5 107.5t-252.5 86.5l-10 -20q144 -41 239.5 -91.5t155.5 -111.5q-75 -73 -127.5 -168.5t-81.5 -217.5l19 -12
q31 115 87 204t136 156q63 -82 84.5 -183t25.5 -225h-516l-9 -30h526q1 -50 0.5 -103t-0.5 -110l94 10q-1 11 -9 18.5t-26 10.5q-1 46 -1 89.5t-2 84.5h179l48 -57l14.5 11.5t35 27.5t36.5 32q-4 16 -26 16z" />
</svg>
