<?xml version="1.0" standalone="no"?>
<!DOCTYPE svg PUBLIC "-//W3C//DTD SVG 1.1//EN" "http://www.w3.org/Graphics/SVG/1.1/DTD/svg11.dtd" >
<svg xmlns="http://www.w3.org/2000/svg" xmlns:xlink="http://www.w3.org/1999/xlink" version="1.1" viewBox="-10 0 1010 1000">
   <path fill="currentColor"
d="M806 114l46 -57l15 11.5t35 27.5t36 32q-3 16 -27 16h-388v180h227l43 -55l14 11t33 27t34 31q-4 16 -26 16h-325v184h288l33 -36l67 57q-8 11 -38 14q-4 88 -13.5 160t-24 120.5t-34.5 67.5q-18 17 -45 25.5t-57 8.5q0 -12 -4.5 -23t-15.5 -17q-12 -7 -43.5 -14
t-63.5 -11l1 -18q24 2 56 5t59.5 5t38.5 2q27 0 40 -11q13 -12 23 -54.5t18 -107.5t12 -144h-584l-24 28l-66 -40q5 -5 13 -10.5t16 -9.5v-300l91 10q-3 22 -37 28v265h240v-394h-398l-8 -30h743z" />
</svg>
