<?xml version="1.0" standalone="no"?>
<!DOCTYPE svg PUBLIC "-//W3C//DTD SVG 1.1//EN" "http://www.w3.org/Graphics/SVG/1.1/DTD/svg11.dtd" >
<svg xmlns="http://www.w3.org/2000/svg" xmlns:xlink="http://www.w3.org/1999/xlink" version="1.1" viewBox="-10 0 1010 1000">
   <path fill="currentColor"
d="M469 317l91 11q-1 10 -8.5 17.5t-27.5 9.5v582q0 6 -14.5 13t-29.5 7h-11v-640zM507 100q-45 74 -116.5 153t-159.5 150.5t-186 124.5l-8 -17q67 -44 132.5 -100t122.5 -118t101.5 -126t69.5 -122l100 26q-3 7 -11 11.5t-27 6.5q73 106 185.5 201.5t251.5 157.5l-2 14
q-19 4 -32.5 17t-19.5 30q-132 -79 -236.5 -184.5t-164.5 -224.5z" />
</svg>
