<?xml version="1.0" standalone="no"?>
<!DOCTYPE svg PUBLIC "-//W3C//DTD SVG 1.1//EN" "http://www.w3.org/Graphics/SVG/1.1/DTD/svg11.dtd" >
<svg xmlns="http://www.w3.org/2000/svg" xmlns:xlink="http://www.w3.org/1999/xlink" version="1.1" viewBox="-10 0 1010 1000">
   <path fill="currentColor"
d="M878 367l70 60q-10 11 -40 14q-6 115 -18 213.5t-30.5 166t-42.5 92.5q-22 21 -51.5 31t-64.5 10q0 -13 -4.5 -24.5t-15.5 -17.5q-13 -8 -48 -16t-69 -13v-18q27 2 62 5.5t65 6t42 2.5q17 0 26 -3t18 -10q19 -16 33.5 -77.5t25.5 -154t17 -199.5h-210l-31 31l-65 -56
q8 -5 20 -10t24 -8q13 -33 27 -74.5t27.5 -83.5t22.5 -76h-287q-2 79 -8.5 162.5t-24 167t-52 165t-92 157.5t-145.5 144l-16 -17q98 -88 153.5 -186t82 -199.5t34.5 -201.5t9 -192h-225l-9 -29h575l33 -35l71 62q-6 7 -17.5 10.5t-25.5 5.5q-9 31 -23 72t-28.5 83t-27.5 78
h199z" />
</svg>
