<?xml version="1.0" standalone="no"?>
<!DOCTYPE svg PUBLIC "-//W3C//DTD SVG 1.1//EN" "http://www.w3.org/Graphics/SVG/1.1/DTD/svg11.dtd" >
<svg xmlns="http://www.w3.org/2000/svg" xmlns:xlink="http://www.w3.org/1999/xlink" version="1.1" viewBox="-10 0 1010 1000">
   <path fill="currentColor"
d="M630 175l67 64q-6 7 -15.5 9t-26.5 4q-7 31 -16 62.5t-20 61.5q10 76 32 149.5t62.5 141.5t104.5 128t158 109l-3 10q-22 2 -35.5 10.5t-20.5 31.5q-82 -49 -137.5 -110.5t-91 -132t-55 -145.5t-29.5 -150q-45 118 -116.5 220.5t-179.5 183.5t-262 135l-10 -16
q163 -69 275 -173.5t181 -237.5t103 -287h-256q-105 225 -267 349l-13 -12q60 -59 114.5 -141.5t98.5 -183t71 -212.5l92 29q-2 9 -11.5 15t-26.5 5q-10 31 -21.5 61.5t-23.5 59.5h239z" />
</svg>
