<?xml version="1.0" standalone="no"?>
<!DOCTYPE svg PUBLIC "-//W3C//DTD SVG 1.1//EN" "http://www.w3.org/Graphics/SVG/1.1/DTD/svg11.dtd" >
<svg xmlns="http://www.w3.org/2000/svg" xmlns:xlink="http://www.w3.org/1999/xlink" version="1.1" viewBox="-10 0 1010 1000">
   <path fill="currentColor"
d="M920 675l2 185q18 5 24.5 11t6.5 15q0 12 -10 19t-36.5 11.5t-76.5 6t-130 1.5h-155q-71 0 -97 -17t-26 -64v-314l-363 38l-11 -27l374 -40v-292q-82 18 -167.5 32.5t-170.5 23.5l-5 -19q94 -15 192.5 -37.5t192 -49.5t173 -56.5t135.5 -57.5l71 57q-13 15 -49 1
q-64 24 -145.5 48t-172.5 46v19v279l330 -36l44 -68l17 10.5t41 25.5t43 29q-2 17 -24 20l-451 48v311q0 21 13 30.5t60 9.5h151q56 0 92.5 -1t53.5 -3q12 -2 17 -6t9 -12q6 -15 15 -64t19 -113h14z" />
</svg>
