<?xml version="1.0" standalone="no"?>
<!DOCTYPE svg PUBLIC "-//W3C//DTD SVG 1.1//EN" "http://www.w3.org/Graphics/SVG/1.1/DTD/svg11.dtd" >
<svg xmlns="http://www.w3.org/2000/svg" xmlns:xlink="http://www.w3.org/1999/xlink" version="1.1" viewBox="-10 0 1010 1000">
   <path fill="currentColor"
d="M423 44l94 44q-4 8 -14 13t-27 2q-80 148 -186 267.5t-219 194.5l-13 -12q64 -56 131 -135.5t127.5 -175.5t106.5 -198zM640 597l14 -8q96 65 152.5 124.5t82 107.5t26.5 79.5t-14.5 41.5t-39.5 -7q-15 -50 -52 -110q-110 14 -266.5 32.5t-343.5 38.5q-10 14 -23 17
l-31 -77l12 -3t19 -9q40 -38 86 -89.5t92 -110t88.5 -118.5t76.5 -115t56 -98l88 53q-4 7 -15 11t-27 0q-31 51 -78 112.5t-102.5 127t-115 128t-117.5 114.5q63 -3 155 -8t203 -12.5t231 -15.5q-35 -56 -77.5 -110.5t-79.5 -95.5z" />
</svg>
