<?xml version="1.0" standalone="no"?>
<!DOCTYPE svg PUBLIC "-//W3C//DTD SVG 1.1//EN" "http://www.w3.org/Graphics/SVG/1.1/DTD/svg11.dtd" >
<svg xmlns="http://www.w3.org/2000/svg" xmlns:xlink="http://www.w3.org/1999/xlink" version="1.1" viewBox="-10 0 1010 1000">
   <path fill="currentColor"
d="M834 224l44 -55l14 11t33 26.5t34 30.5q-3 16 -25 16h-444v185h269l42 -52l13 10.5t31.5 26t32.5 29.5q-3 16 -25 16h-363v182h306l42 -54l14 11t33 26.5t34 30.5q-4 16 -26 16h-403v257q0 3 -13 11t-33 8h-8v-703h-159q-49 86 -107.5 160t-120.5 128l-13 -12
q49 -57 98.5 -134.5t93 -168t75.5 -184.5l93 34q-4 8 -13 13.5t-26 4.5q-15 33 -30.5 66t-33.5 64h541z" />
</svg>
