<?xml version="1.0" standalone="no"?>
<!DOCTYPE svg PUBLIC "-//W3C//DTD SVG 1.1//EN" "http://www.w3.org/Graphics/SVG/1.1/DTD/svg11.dtd" >
<svg xmlns="http://www.w3.org/2000/svg" xmlns:xlink="http://www.w3.org/1999/xlink" version="1.1" viewBox="-10 0 1010 1000">
   <path fill="currentColor"
d="M910 645l-6 189q23 4 32 9.5t9 15.5q0 27 -65.5 37.5t-210.5 10.5h-263q-151 0 -225.5 -25t-86.5 -97q-7 -44 26.5 -98.5t107.5 -126.5t188.5 -168.5t268.5 -223.5h-559l-9 -30h594l32 -30l68 63q-8 5 -19.5 8t-35.5 4q-215 171 -349.5 288.5t-194.5 190.5t-54 112
q5 28 29.5 45.5t75.5 25t135 7.5h278q71 0 104 -3.5t44.5 -9t17.5 -12.5q17 -26 29 -71.5t25 -112.5z" />
</svg>
