<?xml version="1.0" standalone="no"?>
<!DOCTYPE svg PUBLIC "-//W3C//DTD SVG 1.1//EN" "http://www.w3.org/Graphics/SVG/1.1/DTD/svg11.dtd" >
<svg xmlns="http://www.w3.org/2000/svg" xmlns:xlink="http://www.w3.org/1999/xlink" version="1.1" viewBox="-10 0 1010 1000">
   <path fill="currentColor"
d="M908 741l3 107q21 6 28 11t7 15q0 14 -13.5 22.5t-49.5 12.5t-104 5.5t-176 1.5l-219 -1q-61 0 -97.5 -8t-52.5 -30t-16 -63v-420l-163 40l-16 -27l179 -44v-310l90 10q-1 10 -8.5 18t-26.5 10v258l476 -118l9 -2l36 -38l65 69q-5 5 -14.5 6.5t-24.5 3.5
q-13 64 -35.5 139t-51.5 148.5t-63 132.5l-15 -9q23 -59 43.5 -133.5t35.5 -149.5t23 -137l-484 119v426q0 21 8 34t32 19t70 6h224q80 0 136 -1.5t78 -3.5q15 -2 23 -5.5t13 -8.5q6 -11 16.5 -36.5t20.5 -68.5h14z" />
</svg>
