<?xml version="1.0" standalone="no"?>
<!DOCTYPE svg PUBLIC "-//W3C//DTD SVG 1.1//EN" "http://www.w3.org/Graphics/SVG/1.1/DTD/svg11.dtd" >
<svg xmlns="http://www.w3.org/2000/svg" xmlns:xlink="http://www.w3.org/1999/xlink" version="1.1" viewBox="-10 0 1010 1000">
   <path fill="currentColor"
d="M837 81l72 67q-11 9 -45 10q-38 27 -89 60.5t-107 66t-111 58.5l6 1q-2 10 -10 16.5t-25 8.5v495q0 23 -7 41.5t-30.5 31t-74.5 17.5q-4 -13 -10 -23.5t-17 -17.5q-15 -7 -42 -12.5t-71 -9.5v-17l21.5 1.5t52 3.5t57.5 3.5t37 1.5q17 0 23 -6t6 -19v-526l59 7
q43 -27 87.5 -60t85 -67t71.5 -62h-655l-8 -29h681z" />
</svg>
