<?xml version="1.0" standalone="no"?>
<!DOCTYPE svg PUBLIC "-//W3C//DTD SVG 1.1//EN" "http://www.w3.org/Graphics/SVG/1.1/DTD/svg11.dtd" >
<svg xmlns="http://www.w3.org/2000/svg" xmlns:xlink="http://www.w3.org/1999/xlink" version="1.1" viewBox="-10 0 1010 1000">
   <path fill="currentColor"
d="M503 862v-543l90 11q-1 10 -9 17t-26 9v511q0 24 -6.5 43t-30 31.5t-73.5 17.5q-3 -13 -9 -24t-19 -17q-13 -8 -39 -14.5t-68 -10.5v-17l21 1.5t50 3.5t55 3.5t35 1.5q17 0 23 -5.5t6 -18.5zM879 190l71 69q-4 5 -13.5 7t-24.5 4q-12 24 -29.5 55t-37 61.5t-37.5 54.5
l-14 -7q8 -23 17.5 -54t18.5 -63t15 -58h-575q-43 65 -92.5 121.5t-100.5 98.5l-15 -10q46 -50 92.5 -119.5t89 -150.5t74.5 -165l87 46q-4 7 -14 11t-26 1q-17 35 -35.5 69.5t-39.5 67.5h551z" />
</svg>
