<?xml version="1.0" standalone="no"?>
<!DOCTYPE svg PUBLIC "-//W3C//DTD SVG 1.1//EN" "http://www.w3.org/Graphics/SVG/1.1/DTD/svg11.dtd" >
<svg xmlns="http://www.w3.org/2000/svg" xmlns:xlink="http://www.w3.org/1999/xlink" version="1.1" viewBox="-10 0 1010 1000">
   <path fill="currentColor"
d="M828 171h-667l-8 -30h568l47 -58l14.5 11.5t35 28t37.5 32.5q-3 16 -27 16zM825 412l47 -59l15 11.5t36 28.5t38 33q-4 16 -28 16h-464l76 43q-4 7 -14 11.5t-25 1.5q-33 51 -84 115t-110.5 127t-118.5 113q64 -3 158 -9.5t208 -15t237 -18.5q-39 -61 -87.5 -121
t-91.5 -104l13 -9q103 69 164 131.5t89 112.5t30 83.5t-13.5 44t-39.5 -6.5q-7 -26 -20 -53.5t-30 -56.5q-114 16 -273 35t-348 39q-11 17 -22 20l-31 -77l10.5 -3t16.5 -7q38 -35 81 -85t84 -106.5t74.5 -110t54.5 -94.5h-406l-9 -30h783z" />
</svg>
