<?xml version="1.0" standalone="no"?>
<!DOCTYPE svg PUBLIC "-//W3C//DTD SVG 1.1//EN" "http://www.w3.org/Graphics/SVG/1.1/DTD/svg11.dtd" >
<svg xmlns="http://www.w3.org/2000/svg" xmlns:xlink="http://www.w3.org/1999/xlink" version="1.1" viewBox="-10 0 1010 1000">
   <path fill="currentColor"
d="M688 482h-264q-22 103 -45 203.5t-43 176.5h352v-380zM824 862l48 -61l15 12t36 29.5t38 33.5q-4 16 -27 16h-884l-8 -30h238q20 -77 43.5 -177t45.5 -203h-213l-9 -30h228q32 -149 54 -267h-316l-8 -30h661l48 -59l15 11.5t35 28.5t36 33q-3 16 -26 16h-390
q-22 119 -54 267h248l35 -36l73 57q-5 6 -17 11t-26 8v370h81z" />
</svg>
