<?xml version="1.0" standalone="no"?>
<!DOCTYPE svg PUBLIC "-//W3C//DTD SVG 1.1//EN" "http://www.w3.org/Graphics/SVG/1.1/DTD/svg11.dtd" >
<svg xmlns="http://www.w3.org/2000/svg" xmlns:xlink="http://www.w3.org/1999/xlink" version="1.1" viewBox="-10 0 1010 1000">
   <path fill="currentColor"
d="M824 879l48 -59l15 11.5t35.5 28.5t36.5 33q-3 16 -25 16h-881l-8 -30h588l65 -509h-369q-18 68 -38 138t-39 132t-34 108q-24 14 -63 1q15 -37 34 -92.5t39 -121t38.5 -133t34 -129.5t24.5 -109h-235l-9 -30h706l46 -58l15 11.5t36 28.5t37 32q-3 16 -26 16h-513
q-8 37 -19.5 82t-25.5 95h355l33 -37l64 58q-11 11 -36 12l-61 505h132zM352 637l9 -11q74 13 117.5 37t63 49.5t20.5 46.5t-12 30t-34 -1q-12 -28 -39 -57t-60.5 -54t-64.5 -40zM389 462l8 -12q70 8 111.5 26t60.5 39.5t20 40t-11.5 27t-32.5 0.5q-13 -21 -39.5 -44.5
t-57.5 -44t-59 -32.5z" />
</svg>
