<?xml version="1.0" standalone="no"?>
<!DOCTYPE svg PUBLIC "-//W3C//DTD SVG 1.1//EN" "http://www.w3.org/Graphics/SVG/1.1/DTD/svg11.dtd" >
<svg xmlns="http://www.w3.org/2000/svg" xmlns:xlink="http://www.w3.org/1999/xlink" version="1.1" viewBox="-10 0 1010 1000">
   <path fill="currentColor"
d="M223 804l-16 -16q94 -64 154.5 -135.5t94.5 -146.5t49.5 -151t19.5 -150t5 -142l88 9q-1 10 -8 17.5t-25 9.5q-1 20 -1.5 42t-2.5 45q14 108 48 208.5t103 186.5t184 152l-2 11q-22 2 -36.5 11t-21.5 32q-91 -61 -148.5 -141.5t-89 -173.5t-47.5 -190q-9 66 -29 134.5
t-58.5 136t-102 131t-158.5 120.5zM818 878l48 -61l15.5 11.5t37 28.5t38.5 33q-3 16 -27 16h-740l-26 34l-72 -49q14 -12 36 -20v-745l92 10q-3 22 -38 28v714h636z" />
</svg>
