<?xml version="1.0" standalone="no"?>
<!DOCTYPE svg PUBLIC "-//W3C//DTD SVG 1.1//EN" "http://www.w3.org/Graphics/SVG/1.1/DTD/svg11.dtd" >
<svg xmlns="http://www.w3.org/2000/svg" xmlns:xlink="http://www.w3.org/1999/xlink" version="1.1" viewBox="-10 0 1010 1000">
   <path fill="currentColor"
d="M198 167v219q0 64 -4 137.5t-17 149.5t-41.5 148t-78.5 134l-15 -10q47 -84 69 -177.5t28 -190.5t6 -191v-280l64 31h614l46 -57l14.5 11.5t34.5 28t37 31.5q-4 16 -27 16h-730zM513 227l93 10q-1 10 -9 17.5t-25 9.5q9 103 30 196t63.5 174t113 148t177.5 119l-2 11
q-22 1 -37.5 10t-21.5 33q-110 -63 -177 -148t-102 -187t-50 -216q-6 76 -24 151.5t-59 146.5t-114.5 135t-189.5 118l-14 -17q104 -56 169.5 -120.5t102 -134.5t52.5 -145t19.5 -153.5t4.5 -157.5z" />
</svg>
