<?xml version="1.0" standalone="no"?>
<!DOCTYPE svg PUBLIC "-//W3C//DTD SVG 1.1//EN" "http://www.w3.org/Graphics/SVG/1.1/DTD/svg11.dtd" >
<svg xmlns="http://www.w3.org/2000/svg" xmlns:xlink="http://www.w3.org/1999/xlink" version="1.1" viewBox="-10 0 1010 1000">
   <path fill="currentColor"
d="M723 559l41 -33l61 57q-10 10 -41 11q-22 59 -57 125t-80.5 128.5t-98.5 113.5l-15 -13q37 -49 72.5 -110t65 -126t47.5 -123h-563l-8 -30h576zM583 386l44 -55l13.5 11t32 27t34.5 31q-4 16 -26 16h-422l-8 -30h332zM472 36l78 47q-4 7 -12.5 10.5t-22.5 1.5
q47 73 117.5 135.5t155 108.5t172.5 71l-2 11q-37 3 -48 40q-128 -47 -237 -138t-174 -214q-85 136 -202 228t-242 140l-11 -16q79 -39 158 -101t149 -144t121 -180z" />
</svg>
