<?xml version="1.0" standalone="no"?>
<!DOCTYPE svg PUBLIC "-//W3C//DTD SVG 1.1//EN" "http://www.w3.org/Graphics/SVG/1.1/DTD/svg11.dtd" >
<svg xmlns="http://www.w3.org/2000/svg" xmlns:xlink="http://www.w3.org/1999/xlink" version="1.1" viewBox="-10 0 1010 1000">
   <path fill="currentColor"
d="M522 105q-34 64 -84.5 130.5t-112.5 129t-131.5 116.5t-140.5 93l-9 -15q63 -42 129.5 -103.5t126 -133t104 -143.5t64.5 -135l112 30q-4 14 -39 18q43 77 108 147t146 129.5t172 106.5l-3 13q-21 4 -36.5 17.5t-20.5 30.5q-84 -51 -159.5 -119t-133.5 -147.5t-92 -164.5
zM313 663q122 38 197 78.5t112.5 76.5t45 63t-7 38.5t-41.5 2.5q-24 -27 -62 -60.5t-82.5 -67.5t-89 -65t-82.5 -54zM414 396q81 31 128 65.5t67 65.5t19 53t-16.5 30t-37.5 -4q-15 -31 -44.5 -67.5t-63.5 -72t-63 -61.5z" />
</svg>
