<?xml version="1.0" standalone="no"?>
<!DOCTYPE svg PUBLIC "-//W3C//DTD SVG 1.1//EN" "http://www.w3.org/Graphics/SVG/1.1/DTD/svg11.dtd" >
<svg xmlns="http://www.w3.org/2000/svg" xmlns:xlink="http://www.w3.org/1999/xlink" version="1.1" viewBox="-10 0 1010 1000">
   <path fill="currentColor"
d="M603 695l11 -8q91 44 144.5 87t78 79.5t26 61.5t-12.5 33.5t-37 -4.5q-8 -18 -21 -38t-30 -41q-100 13 -244.5 30t-315.5 34q-7 12 -19 15l-31 -76l10 -2.5t16 -5.5q36 -21 75.5 -54t77 -70.5t68 -74t48.5 -63.5l83 49q-4 7 -14 11.5t-25 0.5q-30 31 -74 68.5t-95 75
t-101 68.5q59 -2 141.5 -6t180.5 -9.5t203 -11.5q-33 -41 -72 -80t-71 -69zM773 561l47 -58l15 11.5t35.5 28t36.5 32.5q-4 16 -27 16h-788l-9 -30h690zM617 382l45 -57l14.5 11.5t35 27.5t36.5 32q-3 16 -26 16h-471l-8 -30h374zM471 40l102 24q-5 16 -39 17
q45 60 112 115.5t149 103t171 84.5l-2 14q-39 6 -52 39q-82 -41 -158.5 -95.5t-138.5 -118t-100 -129.5q-35 51 -87 104t-114.5 103.5t-131 94t-136.5 75.5l-8 -15q63 -33 130 -82.5t128 -107t107.5 -116t67.5 -110.5z" />
</svg>
