<?xml version="1.0" standalone="no"?>
<!DOCTYPE svg PUBLIC "-//W3C//DTD SVG 1.1//EN" "http://www.w3.org/Graphics/SVG/1.1/DTD/svg11.dtd" >
<svg xmlns="http://www.w3.org/2000/svg" xmlns:xlink="http://www.w3.org/1999/xlink" version="1.1" viewBox="-10 0 1010 1000">
   <path fill="currentColor"
d="M304 277l-10 -15q58 -25 115 -61.5t104.5 -76.5t74.5 -74l79 40q-9 15 -43 9q-34 30 -85.5 64t-112 64t-122.5 50zM264 46l89 29q-3 8 -11.5 14t-25.5 5q-20 55 -43.5 109t-50.5 104l36 13q-4 13 -30 18v598q-1 3 -15 10.5t-29 7.5h-10v-564q-28 45 -59 85t-63 74
l-16 -10q44 -59 86 -138t78.5 -170t63.5 -185zM459 648l80 39q-4 8 -12 11t-25 -1q-23 34 -59 73t-79 77t-89 67l-11 -13q39 -34 76.5 -78.5t68.5 -90.5t50 -84zM762 423l13 -8q66 38 103 76t51 70.5t11 54.5t-17 28.5t-32 -7.5q-4 -20 -13 -40.5t-21 -42.5q-40 4 -89 10
t-105 12v302q0 22 -6.5 39.5t-25.5 29t-59 16.5q-1 -12 -5.5 -22t-13.5 -17q-11 -7 -31.5 -12t-52.5 -9v-15l15 1t36.5 2t40.5 2t26 1q14 0 18.5 -4t4.5 -14v-294q-52 5 -109.5 11t-118.5 12q-8 18 -22 25l-37 -72l11 -2t18 -6q62 -29 133 -72t135 -89q-46 7 -102 16
t-116 17q-7 16 -18 21l-38 -72l9.5 -2t14.5 -4q34 -17 71 -44t72 -58.5t64 -61.5t47 -52l73 44q-4 7 -13.5 11t-26.5 0q-27 26 -66.5 56t-84 59.5t-88.5 54.5q46 -2 109 -5.5t130 -7.5q90 -67 143 -120l70 53q-4 6 -14.5 9t-26.5 -2q-46 37 -115.5 83t-150 91.5t-159.5 83.5
q77 -3 193.5 -10.5t247.5 -16.5q-19 -30 -41 -58.5t-42 -50.5zM720 663l12 -7q78 38 123.5 77.5t65 74t19.5 58t-13.5 31.5t-33.5 -6q-11 -37 -40 -78.5t-64.5 -81t-68.5 -68.5z" />
</svg>
