<?xml version="1.0" standalone="no"?>
<!DOCTYPE svg PUBLIC "-//W3C//DTD SVG 1.1//EN" "http://www.w3.org/Graphics/SVG/1.1/DTD/svg11.dtd" >
<svg xmlns="http://www.w3.org/2000/svg" xmlns:xlink="http://www.w3.org/1999/xlink" version="1.1" viewBox="-10 0 1010 1000">
   <path fill="currentColor"
d="M828 159h-665l-8 -29h567l46 -59l14.5 11.5t34.5 28.5t37 32q-4 16 -26 16zM939 697l2 168q16 5 20.5 11t4.5 15q0 13 -13.5 20.5t-53.5 11t-120 3.5h-109q-57 0 -75 -14t-18 -49v-459h-179q-5 107 -23 192t-56.5 152t-105 118.5t-170.5 91.5l-6 -15q89 -46 146 -99.5
t89.5 -118t47 -144t17.5 -177.5h-280l-9 -29h770l49 -60l15 12t36 28.5t38 32.5q-4 16 -26 16h-299v19v428q0 14 7.5 19.5t38.5 5.5h101q36 0 61.5 -0.5t37.5 -1.5q8 -1 11.5 -4.5t6.5 -10.5q4 -10 9 -34.5t10.5 -58.5t10.5 -69h14z" />
</svg>
