<?xml version="1.0" standalone="no"?>
<!DOCTYPE svg PUBLIC "-//W3C//DTD SVG 1.1//EN" "http://www.w3.org/Graphics/SVG/1.1/DTD/svg11.dtd" >
<svg xmlns="http://www.w3.org/2000/svg" xmlns:xlink="http://www.w3.org/1999/xlink" version="1.1" viewBox="-10 0 1010 1000">
   <path fill="currentColor"
d="M937 745l2 133q14 5 19.5 10.5t5.5 14.5q0 13 -13.5 20.5t-54.5 11t-122 3.5h-115q-57 0 -74.5 -13t-17.5 -47v-324h-144q-14 112 -53.5 189t-116 128t-201.5 85l-7 -17q111 -40 177.5 -91.5t100 -123t44.5 -170.5h-148v40q-1 4 -12.5 11.5t-34.5 7.5h-6v-497l73 27
q50 -22 98 -49.5t76 -49.5l70 51q-11 12 -45 2q-39 19 -99.5 41t-119.5 36v145h138l41 -50l13 10t31 25t32 29q-4 15 -25 15h-230v176h564v-176h-222l-9 -29h231v-169h-234l-9 -29h233l33 -37l74 57q-12 14 -44 20v423q-1 4 -16.5 12.5t-29.5 8.5h-7v-51h-163v7v306
q0 13 8 17.5t39 4.5h107q36 0 64 -0.5t38 -1.5q9 -1 12.5 -3.5t6.5 -9.5q5 -13 13 -49.5t15 -79.5h14z" />
</svg>
