<?xml version="1.0" standalone="no"?>
<!DOCTYPE svg PUBLIC "-//W3C//DTD SVG 1.1//EN" "http://www.w3.org/Graphics/SVG/1.1/DTD/svg11.dtd" >
<svg xmlns="http://www.w3.org/2000/svg" xmlns:xlink="http://www.w3.org/1999/xlink" version="1.1" viewBox="-10 0 1010 1000">
   <path fill="currentColor"
d="M318 97l85 36q-4 7 -12.5 10.5t-26.5 1.5q-30 54 -77 114t-107.5 115.5t-132.5 96.5l-12 -13q63 -46 118.5 -107.5t98 -127.5t66.5 -126zM698 567l33 -36l67 57q-10 11 -39 14q-7 77 -20.5 143.5t-32.5 113t-42 65.5q-19 16 -47.5 24.5t-60.5 8.5q1 -11 -3.5 -22
t-16.5 -17q-13 -8 -45 -15t-64 -11l1 -18q24 2 57.5 5t63 5.5t40.5 2.5q17 0 26 -2.5t17 -9.5q16 -12 30 -51.5t25.5 -99t18.5 -128.5h-369l-33 31l-61 -57q21 -11 47 -17q17 -38 36 -84t30 -80h-121l-8 -29h410l41 -53l13.5 10.5t32 25.5t33.5 30q-4 16 -26 16h-318
q-14 38 -35 88t-38 90h358zM651 39l82 57q-8 10 -24 14t-38 6q29 86 104 163t190 121l-3 11q-17 2 -30.5 13.5t-18.5 26.5q-106 -56 -173.5 -141.5t-96.5 -197.5h-137l-8 -30h123z" />
</svg>
