<?xml version="1.0" standalone="no"?>
<!DOCTYPE svg PUBLIC "-//W3C//DTD SVG 1.1//EN" "http://www.w3.org/Graphics/SVG/1.1/DTD/svg11.dtd" >
<svg xmlns="http://www.w3.org/2000/svg" xmlns:xlink="http://www.w3.org/1999/xlink" version="1.1" viewBox="-10 0 1010 1000">
   <path fill="currentColor"
d="M817 189l42 -50l13.5 10t32.5 25t34 29q-4 16 -26 16h-473q-47 83 -103 153l13 6h394l29 -37l76 59q-4 5 -15.5 11t-26.5 9v449q0 23 -6 40t-26.5 28t-63.5 16q-3 -12 -8 -22t-16 -15q-12 -7 -33 -12.5t-56 -9.5v-16l16.5 1t40 3t44 3t29.5 1q15 0 20.5 -5t5.5 -16v-457
h-415v142q0 46 -3.5 99.5t-15.5 109t-37 107.5t-69 97l-15 -12q40 -60 58 -127.5t23 -137t5 -136.5v-116q-107 116 -226 186l-13 -15q90 -65 175.5 -163.5t152.5 -222.5h-299l-9 -30h323q38 -72 67 -149l88 36q-4 7 -13.5 12t-26.5 3q-11 25 -23 49.5t-24 48.5h360z" />
</svg>
