<?xml version="1.0" standalone="no"?>
<!DOCTYPE svg PUBLIC "-//W3C//DTD SVG 1.1//EN" "http://www.w3.org/Graphics/SVG/1.1/DTD/svg11.dtd" >
<svg xmlns="http://www.w3.org/2000/svg" xmlns:xlink="http://www.w3.org/1999/xlink" version="1.1" viewBox="-10 0 1010 1000">
   <path fill="currentColor"
d="M824 259l72 60q-6 6 -15 10t-26 6q-4 143 -14 262t-26 199t-39 107q-21 23 -50.5 34t-64.5 11q0 -13 -4.5 -24.5t-15.5 -18.5q-14 -8 -48 -16t-69 -13l2 -19q26 3 60 6.5t63.5 5.5t41.5 2q17 0 25 -3t17 -11q14 -13 25 -59t19 -117t14 -161t9 -192h-311
q-7 94 -28.5 181.5t-67.5 166.5t-126 149.5t-205 129.5l-12 -18q110 -60 181.5 -128.5t113 -145t61 -160.5t26.5 -175h-322l-9 -30h333q3 -60 3.5 -123.5t0.5 -128.5l95 11q-1 10 -9 17.5t-26 9.5q-1 55 -2 108.5t-5 105.5h299z" />
</svg>
