<?xml version="1.0" standalone="no"?>
<!DOCTYPE svg PUBLIC "-//W3C//DTD SVG 1.1//EN" "http://www.w3.org/Graphics/SVG/1.1/DTD/svg11.dtd" >
<svg xmlns="http://www.w3.org/2000/svg" xmlns:xlink="http://www.w3.org/1999/xlink" version="1.1" viewBox="-10 0 1010 1000">
   <path fill="currentColor"
d="M297 386l13 -8q97 49 153.5 97.5t81.5 90t26 70.5t-14.5 38.5t-39.5 -6.5q-12 -33 -36.5 -70.5t-56 -76t-64.5 -73.5t-63 -62zM875 199l71 60q-11 12 -42 15q-3 104 -9 206.5t-15.5 191t-23 150.5t-32.5 85q-42 51 -127 51q0 -13 -4.5 -25t-18.5 -18q-10 -6 -33 -12
t-52 -12t-57 -10l1 -19q33 3 75 7.5t77.5 7.5t48.5 3q19 0 27.5 -3t18.5 -11q13 -12 23 -51.5t17.5 -99.5t13.5 -133.5t10 -154t6 -160.5h-586q-46 81 -101.5 150t-114.5 119l-13 -11q49 -55 96.5 -130.5t89 -165t70.5 -183.5l95 34q-3 8 -12.5 13.5t-27.5 4.5
q-15 36 -31 71.5t-34 68.5h559z" />
</svg>
