<?xml version="1.0" standalone="no"?>
<!DOCTYPE svg PUBLIC "-//W3C//DTD SVG 1.1//EN" "http://www.w3.org/Graphics/SVG/1.1/DTD/svg11.dtd" >
<svg xmlns="http://www.w3.org/2000/svg" xmlns:xlink="http://www.w3.org/1999/xlink" version="1.1" viewBox="-10 0 1010 1000">
   <path fill="currentColor"
d="M663 737l44 -54l14 10.5t33 26.5t35 31q-4 16 -26 16h-524l-26 34l-71 -47q13 -13 36 -21v-379l90 11q-3 22 -37 28v344h432zM491 272l88 24q-3 9 -11.5 15t-25.5 6q-9 34 -20 66t-25 61q80 36 127.5 72t69.5 67t24.5 52.5t-9 29.5t-31.5 -3q-14 -31 -45 -66.5t-69.5 -70
t-75.5 -61.5q-77 158 -205 239l-13 -13q79 -67 137.5 -173t83.5 -245zM863 148l71 59q-5 6 -14.5 10.5t-26.5 6.5q-1 130 -4 244.5t-8.5 204.5t-15.5 150t-26 82q-19 25 -48 37.5t-65 12.5q0 -13 -4 -24t-16 -18q-13 -8 -47.5 -15.5t-69.5 -13.5l1 -19q27 3 61 6t63 5.5
t40 2.5q17 0 25 -2.5t15 -11.5q14 -14 22.5 -69.5t13 -143.5t7 -199t3.5 -236h-561q-51 79 -109.5 144t-120.5 111l-13 -11q48 -48 96.5 -115t91.5 -146.5t75 -163.5l91 39q-4 7 -13.5 12t-26.5 3q-25 52 -52 97h531z" />
</svg>
