<?xml version="1.0" standalone="no"?>
<!DOCTYPE svg PUBLIC "-//W3C//DTD SVG 1.1//EN" "http://www.w3.org/Graphics/SVG/1.1/DTD/svg11.dtd" >
<svg xmlns="http://www.w3.org/2000/svg" xmlns:xlink="http://www.w3.org/1999/xlink" version="1.1" viewBox="-10 0 1010 1000">
   <path fill="currentColor"
d="M826 878l44 -56l14 11t33.5 27.5t35.5 31.5q-4 16 -26 16h-754l-24 33l-65 -46q5 -5 12 -10.5t15 -9.5v-785l66 30h625l40 -51l13 10.5t31 25.5t32 29q-4 16 -25 16h-728v728h661zM694 214l85 43q-4 7 -14 12t-27 2q-31 58 -64.5 111t-71.5 102q82 70 122.5 122.5
t50 85.5t-3 43.5t-37.5 -4.5q-25 -43 -70 -95.5t-100 -107.5q-67 81 -143.5 144.5t-155.5 108.5l-12 -13q69 -49 140 -119.5t135 -155.5q-58 -56 -118.5 -109t-110.5 -94l14 -11q76 46 137 89t109 81q39 -54 73 -113.5t62 -121.5z" />
</svg>
