<?xml version="1.0" standalone="no"?>
<!DOCTYPE svg PUBLIC "-//W3C//DTD SVG 1.1//EN" "http://www.w3.org/Graphics/SVG/1.1/DTD/svg11.dtd" >
<svg xmlns="http://www.w3.org/2000/svg" xmlns:xlink="http://www.w3.org/1999/xlink" version="1.1" viewBox="-10 0 1010 1000">
   <path fill="currentColor"
d="M958 730l-17 160q26 48 12 59q-17 13 -41.5 -2t-46.5 -43q-42 -45 -66.5 -127t-36.5 -186.5t-15.5 -221t-3.5 -230.5h-319v334h185l43 -54l13.5 11t32 26.5t33.5 30.5q-4 16 -27 16h-280v433q0 3 -13 11t-33 8h-8v-452h-277l-8 -30h285v-334h-283l-9 -30h655l36 -38
l74 65q-5 5 -15.5 10t-27.5 7q-3 73 -2.5 155t5.5 165t16.5 156.5t30 130t45.5 85.5q8 8 11.5 6.5t7.5 -11.5q9 -29 16.5 -57t13.5 -55z" />
</svg>
