<?xml version="1.0" standalone="no"?>
<!DOCTYPE svg PUBLIC "-//W3C//DTD SVG 1.1//EN" "http://www.w3.org/Graphics/SVG/1.1/DTD/svg11.dtd" >
<svg xmlns="http://www.w3.org/2000/svg" xmlns:xlink="http://www.w3.org/1999/xlink" version="1.1" viewBox="-10 0 1010 1000">
   <path fill="currentColor"
d="M817 443l48 -61l15 12t35.5 29t37.5 33q-3 16 -26 16h-400v465q0 4 -13 11.5t-33 7.5h-9v-484h-412l-9 -29h421v-274q-83 10 -171 17.5t-174 10.5l-3 -21q87 -7 180.5 -19.5t182.5 -28.5t166.5 -34t132.5 -36l64 59q-14 12 -49 -2q-58 13 -127.5 24.5t-146.5 22.5v281
h290z" />
</svg>
