<?xml version="1.0" standalone="no"?>
<!DOCTYPE svg PUBLIC "-//W3C//DTD SVG 1.1//EN" "http://www.w3.org/Graphics/SVG/1.1/DTD/svg11.dtd" >
<svg xmlns="http://www.w3.org/2000/svg" xmlns:xlink="http://www.w3.org/1999/xlink" version="1.1" viewBox="-10 0 1010 1000">
   <path fill="currentColor"
d="M673 503l15 -7q95 87 151 161.5t80.5 132t25.5 94t-14.5 47.5t-39.5 -9q-16 -60 -51 -133q-128 19 -302.5 43.5t-383.5 50.5q-12 22 -27 27l-34 -84l13.5 -4t19.5 -12q35 -55 74.5 -127.5t80 -154.5t77 -165.5t65.5 -159.5t46 -136l93 50q-9 21 -41 16q-26 71 -67 159
t-91.5 182.5t-104.5 185t-107 165.5q70 -4 175 -13t234.5 -21t269.5 -25q-35 -69 -77.5 -139t-79.5 -124z" />
</svg>
