<?xml version="1.0" standalone="no"?>
<!DOCTYPE svg PUBLIC "-//W3C//DTD SVG 1.1//EN" "http://www.w3.org/Graphics/SVG/1.1/DTD/svg11.dtd" >
<svg xmlns="http://www.w3.org/2000/svg" xmlns:xlink="http://www.w3.org/1999/xlink" version="1.1" viewBox="-10 0 1010 1000">
   <path fill="currentColor"
d="M732 502h-338q29 72 73 130t102 105q53 -50 94 -109t69 -126zM772 436l65 61q-10 12 -43 13q-33 73 -79.5 137t-108.5 117q70 47 155.5 79.5t183.5 51.5l-2 11q-42 3 -56 47q-96 -26 -176 -64t-145 -92q-76 55 -173 96t-219 67l-6 -17q220 -58 365 -176
q-55 -53 -95 -118.5t-66 -146.5h-37q-37 123 -104.5 237t-179.5 197l-14 -11q80 -71 135 -163t89 -195.5t52 -209.5h-240l-9 -30h254q6 -36 10 -72t7 -71q-67 6 -128 9t-114 4l-1 -20q96 -10 213 -26.5t241 -40.5t238 -55l53 67q-15 11 -34 -4q-104 22 -222.5 38t-231.5 27
l87 10q-1 10 -10 16t-32 8q-4 26 -8 54t-9 56h424l46 -58l14.5 11.5t35 28t36.5 32.5q-4 16 -26 16h-535q-6 28 -13 57t-15 58h389z" />
</svg>
