<?xml version="1.0" standalone="no"?>
<!DOCTYPE svg PUBLIC "-//W3C//DTD SVG 1.1//EN" "http://www.w3.org/Graphics/SVG/1.1/DTD/svg11.dtd" >
<svg xmlns="http://www.w3.org/2000/svg" xmlns:xlink="http://www.w3.org/1999/xlink" version="1.1" viewBox="-10 0 1010 1000">
   <path fill="currentColor"
d="M752 558h-503v285h503v-285zM815 267l48 -61l15 12t36.5 29t38.5 33q-4 16 -27 16h-401v234h216l34 -41l82 63q-6 6 -19.5 12.5t-30.5 9.5v359q-1 4 -17 12t-30 8h-8v-80h-503v62q0 4 -14.5 11.5t-31.5 7.5h-9v-454l60 30h216v-234h-409l-9 -29h418v-221l91 11
q-1 10 -9.5 17t-26.5 10v183h290z" />
</svg>
