<?xml version="1.0" standalone="no"?>
<!DOCTYPE svg PUBLIC "-//W3C//DTD SVG 1.1//EN" "http://www.w3.org/Graphics/SVG/1.1/DTD/svg11.dtd" >
<svg xmlns="http://www.w3.org/2000/svg" xmlns:xlink="http://www.w3.org/1999/xlink" version="1.1" viewBox="-10 0 1010 1000">
   <path fill="currentColor"
d="M832 174l72 64q-7 7 -17.5 10t-27.5 4q-53 150 -124.5 263t-166.5 197t-218.5 143t-279.5 101l-9 -18q140 -47 253.5 -107.5t202.5 -142t157.5 -191.5t118.5 -257h-403q-19 35 -41.5 70.5t-48.5 70.5q82 32 130.5 68.5t70 69.5t22 57.5t-13 33.5t-35.5 -4
q-13 -34 -43 -72t-68 -73.5t-75 -62.5q-41 55 -90 105t-105 92l-12 -13q78 -72 142.5 -164t112 -190t73.5 -185l93 34q-4 9 -12 12.5t-28 1.5q-11 28 -25 58.5t-31 61.5h391z" />
</svg>
