<?xml version="1.0" standalone="no"?>
<!DOCTYPE svg PUBLIC "-//W3C//DTD SVG 1.1//EN" "http://www.w3.org/Graphics/SVG/1.1/DTD/svg11.dtd" >
<svg xmlns="http://www.w3.org/2000/svg" xmlns:xlink="http://www.w3.org/1999/xlink" version="1.1" viewBox="-10 0 1010 1000">
   <path fill="currentColor"
d="M931 366h-401q13 71 41.5 144t79 143t129 133.5t191.5 116.5l-2 10q-22 2 -38 11t-23 32q-107 -58 -179 -128.5t-116 -148.5t-68 -158t-35 -155q-10 86 -36 167.5t-76.5 156.5t-134 141.5t-209.5 123.5l-12 -18q111 -58 185.5 -123t120.5 -137t70 -150t34 -161h-391
l-8 -28h402q6 -70 7 -143t1 -149l95 11q-2 10 -9.5 17.5t-24.5 9.5q-1 65 -3 128.5t-8 125.5h302l49 -63l16 12.5t38 29.5t39 33q-3 16 -26 16z" />
</svg>
