<?xml version="1.0" standalone="no"?>
<!DOCTYPE svg PUBLIC "-//W3C//DTD SVG 1.1//EN" "http://www.w3.org/Graphics/SVG/1.1/DTD/svg11.dtd" >
<svg xmlns="http://www.w3.org/2000/svg" xmlns:xlink="http://www.w3.org/1999/xlink" version="1.1" viewBox="-10 0 1010 1000">
   <path fill="currentColor"
d="M926 451h-400q14 61 43 123t80 121t129 112t189 96l-2 12q-23 1 -38.5 9t-21.5 31q-106 -49 -178 -109t-116 -126.5t-68.5 -135t-36.5 -133.5h-3q-11 81 -38 153.5t-78 135.5t-133 117t-204 100l-13 -17q110 -47 184 -101t119.5 -115t70.5 -129.5t35 -143.5h-374l-9 -29
h386q7 -60 8.5 -124t2.5 -133h-327l-9 -30h637l45 -57l14.5 11.5t35 28t37.5 31.5q-4 16 -27 16h-346q-1 69 -3 133t-10 124h311l47 -59l15 11.5t35.5 28t37.5 32.5q-4 16 -27 16z" />
</svg>
