<?xml version="1.0" standalone="no"?>
<!DOCTYPE svg PUBLIC "-//W3C//DTD SVG 1.1//EN" "http://www.w3.org/Graphics/SVG/1.1/DTD/svg11.dtd" >
<svg xmlns="http://www.w3.org/2000/svg" xmlns:xlink="http://www.w3.org/1999/xlink" version="1.1" viewBox="-10 0 1010 1000">
   <path fill="currentColor"
d="M932 509h-398q22 65 69.5 135t134 136.5t223.5 120.5l-2 11q-22 2 -37.5 10t-21.5 31q-99 -45 -167.5 -100t-112.5 -114.5t-69.5 -118.5t-38.5 -111h-16q-19 97 -66.5 179t-137 148.5t-236.5 119.5l-12 -19q130 -53 210 -117t123.5 -141.5t62.5 -169.5h-383l-9 -29h398
q8 -49 11.5 -101t4.5 -109h-333l-8 -30h342q1 -46 0.5 -94t-0.5 -99l92 10q-2 10 -9.5 17t-24.5 10q-1 40 -1 79t-1 77h228l46 -57l14.5 11.5t34.5 27.5t37 32q-4 16 -27 16h-334q-1 56 -5 108.5t-12 101.5h325l46 -58l15 11.5t35 28t36 31.5q-3 16 -26 16z" />
</svg>
