<?xml version="1.0" standalone="no"?>
<!DOCTYPE svg PUBLIC "-//W3C//DTD SVG 1.1//EN" "http://www.w3.org/Graphics/SVG/1.1/DTD/svg11.dtd" >
<svg xmlns="http://www.w3.org/2000/svg" xmlns:xlink="http://www.w3.org/1999/xlink" version="1.1" viewBox="-10 0 1010 1000">
   <path fill="currentColor"
d="M757 529l40 -49l13 10t31 24.5t32 28.5q-4 16 -25 16h-486q-8 22 -20 50.5t-23 52.5h372l33 -34l69 56q-10 11 -40 14q-13 85 -40 148.5t-61 86.5q-19 13 -46 20t-56 7q0 -12 -3.5 -22t-14.5 -17t-38 -13t-56 -10l1 -18q22 2 51 4.5t55 4.5t36 2q27 0 41 -10
q20 -14 41 -65.5t34 -123.5h-382l-31 28l-60 -55q9 -5 22 -9.5t26 -7.5q10 -21 19 -45.5t16 -43.5h-179l-9 -30h638zM595 389l37 -46l11.5 9.5t27.5 23t29 27.5q-3 16 -25 16h-375l-8 -30h303zM930 220h-308q36 55 90 100.5t120.5 77.5t137.5 49v11q-39 6 -50 47
q-109 -37 -191.5 -108.5t-130.5 -176.5h-176q-79 106 -175 183t-199 124l-11 -15q82 -47 164 -121.5t151 -170.5h-292l-9 -30h321q25 -36 46 -74.5t40 -79.5l85 43q-4 7 -14 11.5t-27 2.5q-14 25 -29 49.5t-31 47.5h388l43 -51l14 10t33.5 25t34.5 30q-4 16 -25 16z" />
</svg>
