<?xml version="1.0" standalone="no"?>
<!DOCTYPE svg PUBLIC "-//W3C//DTD SVG 1.1//EN" "http://www.w3.org/Graphics/SVG/1.1/DTD/svg11.dtd" >
<svg xmlns="http://www.w3.org/2000/svg" xmlns:xlink="http://www.w3.org/1999/xlink" version="1.1" viewBox="-10 0 1010 1000">
   <path fill="currentColor"
d="M709 279l85 23q-3 8 -11.5 14.5t-24.5 5.5q-18 58 -42 111q69 24 109 51.5t57.5 54t17 45.5t-13 26.5t-32.5 -2.5q-12 -25 -36 -53.5t-53.5 -55.5t-58.5 -48q-46 89 -115 146q50 94 137 170.5t228 135.5l-1 10q-24 1 -40 10t-23 32q-132 -64 -211.5 -149t-121 -187.5
t-59.5 -217.5q-7 86 -31 167t-73 153t-133 131.5t-213 102.5l-9 -19q110 -44 184 -99.5t119 -120t68 -136.5t30.5 -150t7.5 -159v-36h-388l-9 -30h397v-158l90 10q-2 10 -9 17t-26 10v121h313l46 -57l14.5 11.5t35 28t36.5 31.5q-4 16 -27 16h-418v28q8 86 25 164.5
t51 148.5q44 -54 78 -130t50 -167zM238 277l85 22q-3 9 -11.5 15t-24.5 6q-8 29 -17.5 56.5t-21.5 52.5q56 21 87 46t43 48t9 39.5t-16 22t-30 -5.5q-11 -32 -41 -68t-60 -64q-60 121 -153 184l-13 -10q59 -58 102 -146t62 -198z" />
</svg>
