<?xml version="1.0" standalone="no"?>
<!DOCTYPE svg PUBLIC "-//W3C//DTD SVG 1.1//EN" "http://www.w3.org/Graphics/SVG/1.1/DTD/svg11.dtd" >
<svg xmlns="http://www.w3.org/2000/svg" xmlns:xlink="http://www.w3.org/1999/xlink" version="1.1" viewBox="-10 0 1010 1000">
   <path fill="currentColor"
d="M817 478l50 -61l15 12t36 29.5l39 32.5q-4 16 -27 16h-397v356q0 24 -7.5 43t-32 31t-76.5 17q-3 -13 -9.5 -23t-19.5 -16q-16 -8 -44 -14t-74 -10v-17l23 1.5t54.5 4t60 4t38.5 1.5q19 0 25 -6t6 -20v-352h-421l-9 -29h430v-163l46 6q56 -35 112.5 -80.5t96.5 -84.5
h-575l-9 -29h600l43 -41l72 67q-10 9 -44 10q-34 25 -78 54t-93.5 57t-98.5 50l19 2q-2 10 -10 16.5t-25 8.5v127h284z" />
</svg>
