<?xml version="1.0" standalone="no"?>
<!DOCTYPE svg PUBLIC "-//W3C//DTD SVG 1.1//EN" "http://www.w3.org/Graphics/SVG/1.1/DTD/svg11.dtd" >
<svg xmlns="http://www.w3.org/2000/svg" xmlns:xlink="http://www.w3.org/1999/xlink" version="1.1" viewBox="-10 0 1010 1000">
   <path fill="currentColor"
d="M475 49l90 11q-1 10 -9 17.5t-27 9.5v533q0 7 -15 16t-30 9h-9v-596zM661 196q97 55 155 107t85 94.5t30 71t-10 38t-35 -4.5q-13 -35 -39.5 -74.5t-60.5 -80t-69.5 -77.5t-67.5 -65zM284 192l89 35q-3 9 -11 12.5t-27 1.5q-25 58 -65 127t-92 136t-115 121l-12 -12
q53 -58 98.5 -132t80 -149.5t54.5 -139.5zM743 490l84 44q-5 8 -14.5 10t-29.5 -2q-65 106 -140 177.5t-161.5 117t-185.5 73t-213 45.5l-5 -20q107 -24 201.5 -56t177 -81t154 -123.5t132.5 -184.5z" />
</svg>
