<?xml version="1.0" standalone="no"?>
<!DOCTYPE svg PUBLIC "-//W3C//DTD SVG 1.1//EN" "http://www.w3.org/Graphics/SVG/1.1/DTD/svg11.dtd" >
<svg xmlns="http://www.w3.org/2000/svg" xmlns:xlink="http://www.w3.org/1999/xlink" version="1.1" viewBox="-10 0 1010 1000">
   <path fill="currentColor"
d="M668 55l73 51q-6 7 -14.5 7.5t-25.5 -3.5q-105 88 -237.5 154.5t-272.5 111.5l-8 -19q86 -36 172.5 -80.5t166.5 -100t146 -121.5zM736 283l77 52q-9 12 -41 5q-114 112 -257 184.5t-304 119.5l-9 -17q150 -56 288.5 -137.5t245.5 -206.5zM821 549l81 53q-7 7 -16 8.5
t-28 -3.5q-95 105 -205.5 171.5t-235.5 106t-265 64.5l-6 -19q132 -33 252.5 -79t227.5 -118t195 -184z" />
</svg>
