<?xml version="1.0" standalone="no"?>
<!DOCTYPE svg PUBLIC "-//W3C//DTD SVG 1.1//EN" "http://www.w3.org/Graphics/SVG/1.1/DTD/svg11.dtd" >
<svg xmlns="http://www.w3.org/2000/svg" xmlns:xlink="http://www.w3.org/1999/xlink" version="1.1" viewBox="-10 0 1010 1000">
   <path fill="currentColor"
d="M649 38l71 50q-6 7 -14.5 8.5t-25.5 -4.5q-52 49 -130.5 102t-171.5 100.5t-190 81.5l-9 -15q66 -30 133.5 -68.5t130.5 -81.5t116 -87.5t90 -85.5zM722 220l74 51q-7 7 -15.5 8.5t-25.5 -4.5q-79 90 -205 181l30 11q-4 13 -30 18v451q-1 4 -15.5 11t-28.5 7h-10v-461
q-77 51 -163 95.5t-176 78.5l-9 -15q86 -39 169.5 -89.5t159.5 -108t139 -117t106 -117.5z" />
</svg>
