<?xml version="1.0" standalone="no"?>
<!DOCTYPE svg PUBLIC "-//W3C//DTD SVG 1.1//EN" "http://www.w3.org/Graphics/SVG/1.1/DTD/svg11.dtd" >
<svg xmlns="http://www.w3.org/2000/svg" xmlns:xlink="http://www.w3.org/1999/xlink" version="1.1" viewBox="-10 0 1010 1000">
   <path fill="currentColor"
d="M276 44l89 10q-2 10 -9.5 18t-26.5 11v851q0 7 -14 14.5t-28 7.5h-11v-912zM176 242l19 2q9 56 2 102.5t-22 80t-31 51.5q-14 17 -36 23.5t-34 -6.5q-8 -12 -3.5 -27t17.5 -28q19 -17 37.5 -48t32.5 -70.5t18 -79.5zM378 215q48 40 71 79t28 71t-3 53t-23 25.5t-32 -12.5
q3 -34 -5 -72t-21.5 -74t-28.5 -64z" />
</svg>
