<?xml version="1.0" standalone="no"?>
<!DOCTYPE svg PUBLIC "-//W3C//DTD SVG 1.1//EN" "http://www.w3.org/Graphics/SVG/1.1/DTD/svg11.dtd" >
<svg xmlns="http://www.w3.org/2000/svg" xmlns:xlink="http://www.w3.org/1999/xlink" version="1.1" viewBox="-10 0 1010 1000">
   <path fill="currentColor"
d="M422 75l13 -8q62 40 95 81.5t43.5 77t4.5 60t-21.5 31.5t-33.5 -9q1 -39 -14 -81.5t-38.5 -82.5t-48.5 -69zM172 373h19q17 72 11.5 128.5t-22.5 95.5t-36 60q-16 20 -39 27.5t-35 -5.5q-9 -12 -4.5 -27t17.5 -28q24 -20 45 -58.5t33.5 -88.5t10.5 -104zM783 662l2 185
q17 5 23.5 10.5t6.5 15.5q0 11 -9.5 18.5t-35.5 12t-74.5 6.5t-126.5 2h-149q-70 0 -94 -17t-24 -61v-40q-110 79 -245 141l-12 -15q140 -72 257 -171v-524l87 10q-2 21 -34 27v439q137 -128 233 -280.5t151 -306.5l96 36q-4 9 -14 12.5t-31 -0.5q-63 156 -170 310t-265 281
v72q0 19 12.5 27t56.5 8h145q110 0 141 -3q19 -3 26 -17q5 -16 14 -65t19 -113h14zM755 388l14 -8q74 48 114.5 95.5t55.5 88.5t10.5 69t-20 36.5t-35.5 -9.5q-2 -45 -23.5 -94.5t-52.5 -96.5t-63 -81z" />
</svg>
