<?xml version="1.0" standalone="no"?>
<!DOCTYPE svg PUBLIC "-//W3C//DTD SVG 1.1//EN" "http://www.w3.org/Graphics/SVG/1.1/DTD/svg11.dtd" >
<svg xmlns="http://www.w3.org/2000/svg" xmlns:xlink="http://www.w3.org/1999/xlink" version="1.1" viewBox="-10 0 1010 1000">
   <path fill="currentColor"
d="M536 78l10 -11q73 19 116.5 44.5t63 51.5t20.5 46.5t-11.5 29t-32.5 -1.5q-12 -28 -40 -57.5t-61.5 -56.5t-64.5 -45zM935 753l-15 142q28 19 33 27t1 16q-5 16 -26 18.5t-51 -5t-64 -20.5q-89 -29 -158 -78t-121 -115q-92 69 -208 123t-254 87l-7 -17
q131 -39 241.5 -98.5t200.5 -133.5q-48 -73 -79 -162t-48 -189l-321 24l-12 -29l328 -24q-18 -131 -18 -276l92 11q-1 10 -8.5 17.5t-26.5 10.5q0 60 3.5 118.5t10.5 114.5l379 -29l42 -61l15 10.5t36 25.5t38 29q-3 16 -26 18l-480 36q14 90 42 171.5t72 149.5
q68 -63 120.5 -133.5t87.5 -145.5l86 43q-5 8 -14 11t-27 -1q-40 72 -95.5 139.5t-127.5 126.5q47 59 110.5 103.5t145.5 69.5q20 7 29.5 5t15.5 -15q10 -20 23 -53t21 -64z" />
</svg>
