<?xml version="1.0" standalone="no"?>
<!DOCTYPE svg PUBLIC "-//W3C//DTD SVG 1.1//EN" "http://www.w3.org/Graphics/SVG/1.1/DTD/svg11.dtd" >
<svg xmlns="http://www.w3.org/2000/svg" xmlns:xlink="http://www.w3.org/1999/xlink" version="1.1" viewBox="-10 0 1010 1000">
   <path fill="currentColor"
d="M509 458l5 16q-43 16 -94.5 35.5t-113.5 42.5v315q0 24 -5.5 42t-25.5 29.5t-62 16.5q-2 -13 -7 -23.5t-15 -17.5q-12 -8 -32.5 -13t-53.5 -9v-17l16 1t38 3t42 3t27 1q14 0 19.5 -5t5.5 -17v-290q-35 13 -74 26.5t-80 27.5q-8 19 -22 24l-37 -73q32 -6 87.5 -19.5
t125.5 -30.5v-238h-191l-8 -29h199v-214l89 10q-1 11 -9.5 18.5t-26.5 9.5v176h84l40 -51l12.5 10t30 25t31.5 29q-4 16 -25 16h-173v224q48 -13 99.5 -27t103.5 -27z" />
</svg>
