<?xml version="1.0" standalone="no"?>
<!DOCTYPE svg PUBLIC "-//W3C//DTD SVG 1.1//EN" "http://www.w3.org/Graphics/SVG/1.1/DTD/svg11.dtd" >
<svg xmlns="http://www.w3.org/2000/svg" xmlns:xlink="http://www.w3.org/1999/xlink" version="1.1" viewBox="-10 0 1010 1000">
   <path fill="currentColor"
d="M400 54l11 -8q67 25 105 54.5t53 57t13 47.5t-15.5 27t-32.5 -6q-8 -29 -30 -60.5t-49.5 -61t-54.5 -50.5zM709 290h-433q33 114 91 207.5t137 167.5q75 -80 126 -173.5t79 -201.5zM929 290h-149q-36 121 -94.5 223t-144.5 185q86 71 193 121.5t232 79.5l-3 11
q-21 1 -38 12.5t-25 32.5q-120 -36 -220 -90.5t-179 -129.5q-86 72 -198 127.5t-252 95.5l-8 -16q133 -44 239 -104.5t185 -136.5q-76 -80 -130 -182.5t-84 -228.5h-196l-9 -30h774l46 -58l15 11.5t35 28t36 32.5q-4 16 -25 16z" />
</svg>
