<?xml version="1.0" standalone="no"?>
<!DOCTYPE svg PUBLIC "-//W3C//DTD SVG 1.1//EN" "http://www.w3.org/Graphics/SVG/1.1/DTD/svg11.dtd" >
<svg xmlns="http://www.w3.org/2000/svg" xmlns:xlink="http://www.w3.org/1999/xlink" version="1.1" viewBox="-10 0 1010 1000">
   <path fill="currentColor"
d="M199 454h257q19 -77 24.5 -155t6.5 -154h-220q-8 42 -19.5 97t-24.5 110.5t-24 101.5zM905 484h-400q-26 88 -77.5 172t-141 161t-230.5 144l-13 -19q126 -68 207 -142.5t128 -154t71 -161.5h-250l-29 32l-67 -55q8 -5 19.5 -9.5t22.5 -8.5q12 -41 24.5 -95.5t23 -109
t16.5 -93.5h-101l-9 -29h659l45 -56l14.5 11t34 27t35.5 31q-4 16 -26 16h-315q-2 78 -8.5 155.5t-24.5 153.5h288l45 -56l14.5 11t34.5 27.5t36 31.5q-4 16 -26 16zM924 738l3 133q16 4 21 9.5t5 13.5q0 13 -15.5 21t-60 11.5t-133.5 3.5h-130q-61 0 -79 -13t-18 -48v-346
l84 10q-3 21 -31 25v300q0 14 8.5 19t42.5 5h123q44 0 75 -1t43 -2q10 -1 13.5 -3.5t6.5 -9.5q6 -12 14 -48.5t15 -79.5h13z" />
</svg>
