<?xml version="1.0" standalone="no"?>
<!DOCTYPE svg PUBLIC "-//W3C//DTD SVG 1.1//EN" "http://www.w3.org/Graphics/SVG/1.1/DTD/svg11.dtd" >
<svg xmlns="http://www.w3.org/2000/svg" xmlns:xlink="http://www.w3.org/1999/xlink" version="1.1" viewBox="-10 0 1010 1000">
   <path fill="currentColor"
d="M869 471h-316q46 77 113.5 147t145 124t153.5 85l-3 10q-16 1 -31.5 12.5t-22.5 31.5q-74 -41 -145.5 -102t-131.5 -139.5t-102 -168.5h-3v461q0 7 -14.5 15t-29.5 8h-11v-458q-70 118 -179 219t-245 172l-11 -17q80 -50 151.5 -114.5t130 -137.5t98.5 -148h-302l-8 -30
h365v-181h-408l-9 -30h417v-186l90 11q-2 10 -9.5 17t-25.5 10v148h291l45 -56l14.5 11t34.5 27t36 32q-4 16 -26 16h-395v181h236l48 -57l14.5 11.5t34 27.5t35.5 32q-3 16 -25 16z" />
</svg>
