<?xml version="1.0" standalone="no"?>
<!DOCTYPE svg PUBLIC "-//W3C//DTD SVG 1.1//EN" "http://www.w3.org/Graphics/SVG/1.1/DTD/svg11.dtd" >
<svg xmlns="http://www.w3.org/2000/svg" xmlns:xlink="http://www.w3.org/1999/xlink" version="1.1" viewBox="-10 0 1010 1000">
   <path fill="currentColor"
d="M905 293h-356q45 92 110.5 176.5t142 150.5t153.5 105l-2 10q-19 1 -34 13t-23 31q-74 -49 -143 -121.5t-127 -164.5t-99 -198v413h105l44 -57l14 11.5t33 27.5t35 32q-4 16 -26 16h-205v194q0 7 -14 15t-30 8h-10v-217h-216l-8 -30h224v-375q-65 145 -173 270t-251 214
l-13 -15q88 -64 162 -146.5t131.5 -175.5t95.5 -187h-343l-9 -30h400v-220l89 10q-1 11 -8.5 18.5t-26.5 10.5v181h269l48 -59l14.5 11.5t35 28.5t36.5 33q-4 16 -25 16z" />
</svg>
