<?xml version="1.0" standalone="no"?>
<!DOCTYPE svg PUBLIC "-//W3C//DTD SVG 1.1//EN" "http://www.w3.org/Graphics/SVG/1.1/DTD/svg11.dtd" >
<svg xmlns="http://www.w3.org/2000/svg" xmlns:xlink="http://www.w3.org/1999/xlink" version="1.1" viewBox="-10 0 1010 1000">
   <path fill="currentColor"
d="M605 83l9 -11q65 11 103 30t55.5 40.5t18 38.5t-11 24.5t-29.5 -1.5q-12 -22 -36 -45t-53 -43t-56 -33zM60 937l-14 -16q78 -51 121 -111t61.5 -127t22.5 -139.5t5 -148.5l88 8q-1 10 -8.5 17t-23.5 9q-3 71 -9.5 141t-29 136t-72.5 124.5t-141 106.5zM920 313h-401v619
q0 7 -14 15.5t-29 8.5h-11v-643h-396l-9 -30h405v-239l90 10q-2 10 -9.5 17.5t-26.5 10.5v201h299l45 -56l14 11.5t34 27.5t36 31q-4 16 -27 16zM932 819l4 1q14 4 20.5 8.5t6.5 14.5q0 11 -11.5 18t-41 10t-85.5 3h-71q-46 0 -59 -13t-13 -43v-423l84 11q-1 9 -8.5 16
t-22.5 9v373q0 12 5 16.5t25 4.5h63h37.5t24.5 -1q5 0 8 -0.5t6 -0.5q5 0 9.5 -1.5t8.5 -2.5h10z" />
</svg>
