<?xml version="1.0" standalone="no"?>
<!DOCTYPE svg PUBLIC "-//W3C//DTD SVG 1.1//EN" "http://www.w3.org/Graphics/SVG/1.1/DTD/svg11.dtd" >
<svg xmlns="http://www.w3.org/2000/svg" xmlns:xlink="http://www.w3.org/1999/xlink" version="1.1" viewBox="-10 0 1010 1000">
   <path fill="currentColor"
d="M827 261h-527q-87 171 -213 268l-13 -11q51 -53 97 -126.5t83 -162t59 -186.5l94 28q-3 9 -12 15t-26 5q-11 37 -25 72t-30 68h512l39 -38l70 68q-8 8 -39 10q-18 29 -45 67.5t-56.5 76.5t-54.5 66l-14 -9q16 -27 34.5 -64t36 -76t30.5 -71zM475 342l91 25
q-3 9 -11.5 15.5t-25.5 6.5q11 79 36.5 151.5t73.5 137t125.5 119t192.5 97.5l-2 12q-25 2 -40.5 11.5t-21.5 34.5q-97 -43 -164 -98t-109 -119t-66 -134t-36 -144q-10 71 -33.5 138.5t-72.5 131t-135.5 121t-221.5 108.5l-11 -20q111 -48 186 -100.5t122 -109.5t72.5 -119
t36 -128t14.5 -137z" />
</svg>
