<?xml version='1.0' encoding='ASCII' standalone='yes'?>
<svg xmlns="http://www.w3.org/2000/svg" xmlns:xlink="http://www.w3.org/1999/xlink" version="1.1" viewBox="0 0 1010 1000" height="1000" width="1010">
   <g><g transform="translate(1010, 0) scale(1)  scale(-1.000000 1.000000)"><path fill="currentColor" d="M824 878l48 -59l15 11.5t35.5 28t36.5 32.5q-3 16 -26 16h-880l-8 -29h156v-504l92 10q-2 10 -10.5 17.5t-26.5 10.5v466h223v-716h-388l-9 -29h707l47 -59l15 11.5t35.5 28.5t37.5 32q-4 16 -26 16h-363v317h207l46 -58l14.5 11.5t34.5 28t37 31.5q-4 16 -27 16h-312 v370h289z"/>
</g></g></svg>
