<?xml version="1.0" standalone="no"?>
<!DOCTYPE svg PUBLIC "-//W3C//DTD SVG 1.1//EN" "http://www.w3.org/Graphics/SVG/1.1/DTD/svg11.dtd" >
<svg xmlns="http://www.w3.org/2000/svg" xmlns:xlink="http://www.w3.org/1999/xlink" version="1.1" viewBox="-10 0 1010 1000">
   <path fill="currentColor"
d="M73 435l-6 -17q110 -31 216.5 -76t200.5 -97q-80 -33 -171 -64t-190 -56l7 -20q128 28 228.5 55.5t177.5 54.5q68 -43 122 -86t91 -85l85 46q-9 16 -48 8q-39 34 -87.5 69t-106.5 67q95 36 151.5 68.5t83 58t29.5 42.5t-9 23t-31 -1q-43 -35 -115.5 -76t-165.5 -82
q-100 52 -218 96t-244 72zM664 410l91 36q-4 8 -12.5 11.5t-28.5 1.5q-31 78 -79 148.5t-116 129.5q90 61 200 100.5t236 61.5l-2 11q-42 3 -56 46q-124 -27 -229 -73t-188 -112q-82 63 -189 110t-241 73l-6 -16q123 -32 223 -82.5t176 -116.5q-63 -58 -111 -130.5
t-79 -160.5l18 -12q32 83 84.5 151t121.5 121q66 -64 112.5 -139t74.5 -159z" />
</svg>
