<?xml version='1.0' encoding='ASCII' standalone='yes'?>
<svg xmlns="http://www.w3.org/2000/svg" xmlns:xlink="http://www.w3.org/1999/xlink" version="1.1" width="1010" viewBox="0 0 1010 1000" height="1000">
  <g>
    <g transform=" scale(0.500000 1.000000)"><path fill="currentColor" d="M743 101l98 21q-2 10 -11.5 14.5t-31.5 4.5q-31 161 -92.5 301.5t-171.5 252.5q89 71 198 122.5t238 83.5l-3 11q-48 -2 -68 42q-121 -35 -223.5 -89.5t-184.5 -129.5q-81 71 -187.5 126.5t-245.5 93.5l-9 -16q131 -42 233 -101t178 -132q-103 -104 -171 -241.5 t-100 -313.5l19 -13q35 166 108.5 297.5t182.5 229.5q103 -114 160.5 -256.5t83.5 -307.5z"/>
</g>
    <g transform="translate(505.0, 0) scale(1)  scale(0.500000 1.000000)"><path fill="currentColor" d="M743 101l98 21q-2 10 -11.5 14.5t-31.5 4.5q-31 161 -92.5 301.5t-171.5 252.5q89 71 198 122.5t238 83.5l-3 11q-48 -2 -68 42q-121 -35 -223.5 -89.5t-184.5 -129.5q-81 71 -187.5 126.5t-245.5 93.5l-9 -16q131 -42 233 -101t178 -132q-103 -104 -171 -241.5 t-100 -313.5l19 -13q35 166 108.5 297.5t182.5 229.5q103 -114 160.5 -256.5t83.5 -307.5z"/>
</g>
  </g>
</svg>
