<?xml version="1.0" standalone="no"?>
<!DOCTYPE svg PUBLIC "-//W3C//DTD SVG 1.1//EN" "http://www.w3.org/Graphics/SVG/1.1/DTD/svg11.dtd" >
<svg xmlns="http://www.w3.org/2000/svg" xmlns:xlink="http://www.w3.org/1999/xlink" version="1.1" viewBox="-10 0 1010 1000">
   <path fill="currentColor"
d="M818 879l49 -59l15 11.5t35.5 28t37.5 32.5q-4 16 -27 16h-870l-9 -29h416v-373h-304l-8 -29h312v-313h-349l-8 -30h655l48 -58l15 11.5t35.5 28t37.5 32.5q-4 16 -27 16h-352v313h207l46 -58l14.5 11.5t34.5 28t36 31.5q-4 16 -26 16h-312v373h298zM609 583l10 -8
q74 26 116 58.5t58.5 63.5t14 54t-18 30.5t-36.5 -6.5q-7 -33 -30.5 -68.5t-53.5 -68t-60 -55.5z" />
</svg>
