<?xml version="1.0" standalone="no"?>
<!DOCTYPE svg PUBLIC "-//W3C//DTD SVG 1.1//EN" "http://www.w3.org/Graphics/SVG/1.1/DTD/svg11.dtd" >
<svg xmlns="http://www.w3.org/2000/svg" xmlns:xlink="http://www.w3.org/1999/xlink" version="1.1" viewBox="-10 0 1010 1000">
   <path fill="currentColor"
d="M824 885l48 -59l15 11.5t35.5 28.5t36.5 33q-3 15 -26 15h-880l-8 -29h424v-288h-304l-8 -30h312v-252h-234q-40 69 -85.5 127t-95.5 102l-14 -11q45 -53 88 -125t80 -156t62 -173l91 30q-3 9 -12.5 15t-25.5 5q-32 83 -71 156h217v-240l91 11q-1 10 -9 17t-26 10v202
h241l48 -57l14 11t34.5 27.5t37.5 32.5q-4 16 -27 16h-348v252h204l47 -57l14.5 11.5t35 28t36.5 31.5q-3 16 -26 16h-311v288h299z" />
</svg>
