<?xml version="1.0" standalone="no"?>
<!DOCTYPE svg PUBLIC "-//W3C//DTD SVG 1.1//EN" "http://www.w3.org/Graphics/SVG/1.1/DTD/svg11.dtd" >
<svg xmlns="http://www.w3.org/2000/svg" xmlns:xlink="http://www.w3.org/1999/xlink" version="1.1" viewBox="-10 0 1010 1000">
   <path fill="currentColor"
d="M297 620l78 40q-5 7 -12.5 10t-24.5 -1q-28 38 -71.5 82t-96.5 85.5t-111 72.5l-11 -13q51 -36 99 -83.5t87.5 -98t62.5 -94.5zM647 385l10 -10q90 34 144.5 71.5t80 72t29 60.5t-9.5 36t-34 -2q-7 -22 -22 -44.5t-35 -44.5q-58 6 -129 13t-153 15v323q0 33 -14.5 53.5
t-69.5 26.5q-2 -23 -15 -35q-16 -12 -68 -18v-16l12 1t28 2t31 2t21 1q12 0 16 -4t4 -14v-317q-67 7 -139 13t-150 13q-12 15 -26 20l-31 -81l13.5 -1.5t22.5 -5.5q62 -23 131 -55.5t138 -70.5t131 -76q-70 12 -158.5 25.5t-186.5 24.5q-10 18 -24 21l-31 -80l10.5 -2
t17.5 -5q41 -19 86.5 -49.5t88.5 -65.5t78.5 -68.5t57.5 -58.5l78 53q-4 6 -13.5 9.5t-26.5 -0.5q-34 29 -85 64t-109 69.5t-115 62.5q68 -4 168.5 -11.5t210.5 -17.5q42 -28 77.5 -53t61.5 -47l70 65q-5 6 -17 8t-28 -5q-45 30 -108.5 65.5t-138 72.5t-154.5 72.5
t-158 64.5q66 -2 156 -5.5t197.5 -8.5t222.5 -11q-33 -34 -71 -65t-73 -52zM634 634l12 -10q95 41 152 84.5t83.5 83t29 67.5t-11 38.5t-35.5 -3.5q-10 -33 -35 -69t-58 -71t-68.5 -66t-68.5 -54z" />
</svg>
