<?xml version="1.0" standalone="no"?>
<!DOCTYPE svg PUBLIC "-//W3C//DTD SVG 1.1//EN" "http://www.w3.org/Graphics/SVG/1.1/DTD/svg11.dtd" >
<svg xmlns="http://www.w3.org/2000/svg" xmlns:xlink="http://www.w3.org/1999/xlink" version="1.1" viewBox="-10 0 1010 1000">
   <path fill="currentColor"
d="M291 713h401v-188h-401v188zM692 133h-401v161h401v-161zM291 324v171h401v-171h-401zM823 713l47 -59l15 11.5t35.5 28.5t37.5 33q-4 16 -27 16h-185v194q0 4 -13 11.5t-33 7.5h-8v-213h-642l-9 -30h196v-580h-155l-9 -30h732l47 -58l15 11.5t35.5 28t36.5 32.5
q-3 16 -25 16h-168v580h77z" />
</svg>
