<?xml version="1.0" standalone="no"?>
<!DOCTYPE svg PUBLIC "-//W3C//DTD SVG 1.1//EN" "http://www.w3.org/Graphics/SVG/1.1/DTD/svg11.dtd" >
<svg xmlns="http://www.w3.org/2000/svg" xmlns:xlink="http://www.w3.org/1999/xlink" version="1.1" viewBox="-10 0 1010 1000">
   <path fill="currentColor"
d="M843 158l74 59q-12 13 -43 20v687q-1 5 -17 13.5t-30 8.5h-8v-82h-640v70q-1 4 -12.5 11.5t-36.5 7.5h-6v-775l82 28q59 -28 122.5 -65t120.5 -78l66 59q-12 12 -36 2q-44 24 -96.5 46.5t-105 41t-98.5 30.5v265h175l42 -54l14 11t32.5 26.5t33.5 30.5q-4 16 -25 16h-272
v298h640v-298h-264l-9 -30h273v-281h-286l-9 -29h286z" />
</svg>
