<?xml version="1.0" standalone="no"?>
<!DOCTYPE svg PUBLIC "-//W3C//DTD SVG 1.1//EN" "http://www.w3.org/Graphics/SVG/1.1/DTD/svg11.dtd" >
<svg xmlns="http://www.w3.org/2000/svg" xmlns:xlink="http://www.w3.org/1999/xlink" version="1.1" viewBox="-10 0 1010 1000">
   <path fill="currentColor"
d="M102 61l10 -10q68 23 107 50.5t55 53.5t14.5 45t-14.5 26t-32 -4q-10 -27 -33.5 -57t-52 -57.5t-54.5 -46.5zM335 478l61 55q-8 10 -40 11q-17 58 -51.5 118.5t-86.5 107.5q3 2 9 8q45 47 99 70t125.5 30t166.5 7q89 0 169.5 -0.5t171.5 -4.5v14q-37 6 -42 41h-315
q-99 0 -168.5 -10.5t-121 -39t-97.5 -81.5q-10 -10 -17 -9t-14 9q-10 15 -27 37.5t-35 46.5t-32 43q6 12 -4 22l-51 -58q18 -14 41 -34.5t45.5 -41t41 -35t28.5 -17.5q39 -46 68.5 -107t42.5 -119h-127l-27 22l-47 -49q8 -4 19 -8t21 -7q18 -24 38.5 -54t41 -61.5
t36.5 -58.5h-196l-9 -30h210l33 -35l71 63q-8 8 -24 12t-36 4q-22 36 -55.5 84.5t-62.5 88.5h111z" />
</svg>
