<?xml version="1.0" standalone="no"?>
<!DOCTYPE svg PUBLIC "-//W3C//DTD SVG 1.1//EN" "http://www.w3.org/Graphics/SVG/1.1/DTD/svg11.dtd" >
<svg xmlns="http://www.w3.org/2000/svg" xmlns:xlink="http://www.w3.org/1999/xlink" version="1.1" viewBox="-10 0 1010 1000">
   <path fill="currentColor"
d="M69 954l-8 -16q61 -19 123 -47.5t115 -60t85 -58.5l73 47q-12 14 -45 5q-40 23 -96 48t-120 46.5t-127 35.5zM579 802l6 -18q110 17 179.5 38.5t107 44t50 41.5t7.5 31.5t-19.5 14.5t-31.5 -9q-43 -37 -118.5 -74.5t-180.5 -68.5zM735 262h-455v127h455v-127zM280 706
h455v-130h-455v130zM280 418v129h455v-129h-455zM819 109l46 -55l14 11t33.5 26.5t35.5 31.5q-3 15 -26 15h-389q-13 24 -27.5 49t-28.5 45h248l32 -37l74 58q-12 14 -43 20v471q-1 4 -16.5 13t-29.5 9h-7v-30h-455v16q0 4 -13.5 11.5t-30.5 7.5h-10v-567l59 28h158
q5 -20 11 -45.5t10 -48.5h-401l-9 -29h765z" />
</svg>
