<?xml version="1.0" standalone="no"?>
<!DOCTYPE svg PUBLIC "-//W3C//DTD SVG 1.1//EN" "http://www.w3.org/Graphics/SVG/1.1/DTD/svg11.dtd" >
<svg xmlns="http://www.w3.org/2000/svg" xmlns:xlink="http://www.w3.org/1999/xlink" version="1.1" viewBox="-10 0 1010 1000">
   <path fill="currentColor"
d="M802 75l80 44q-5 7 -12 10t-24 -1q-25 30 -63 70t-79 72l-13 -13q22 -26 43 -59t39 -66t29 -57zM114 84l12 -7q62 27 96 56.5t46 57t8 46.5t-18 24.5t-33 -7.5q-6 -28 -24.5 -59t-41.5 -60.5t-45 -50.5zM240 842l-13 -11q31 -40 60 -89.5t53 -99t38 -88.5l82 39
q-4 8 -12.5 11t-25.5 0q-19 34 -47.5 76t-62.5 84.5t-72 77.5zM648 335l6 -17q104 23 166.5 51t92 55t34.5 47.5t-6.5 29t-31.5 0.5q-20 -23 -58.5 -52t-90 -59t-112.5 -55zM471 489v-174h-178l74 43q-5 7 -13 9.5t-24 -1.5q-28 25 -67 51t-86 50l45 22h249zM825 285l45 -56
l14.5 11.5t35 27.5t36.5 31q-4 16 -26 16h-406v174h250l29 -35l76 57q-4 5 -15.5 11t-26.5 8v345q0 22 -6 38.5t-25 27t-60 14.5q-2 -11 -6.5 -21t-14.5 -14q-11 -6 -30.5 -11.5t-51.5 -8.5v-16l15 1t35.5 2.5t39.5 2.5t27 1q14 0 19 -5t5 -16v-351h-260v404q0 3 -12.5 10.5
t-32.5 7.5h-8v-422h-255v417q0 4 -13 12t-30 8h-9v-483q-57 29 -116 49l-10 -15q48 -24 96 -56.5t89.5 -68t66.5 -67.5h-236l-9 -30h338v-240l85 9q-1 10 -8 16.5t-24 9.5v205h127v-240l85 9q-1 10 -8.5 16.5t-24.5 9.5v205h210zM568 576l13 -8q70 46 110 87t56.5 74.5
t15.5 55t-13.5 27.5t-30.5 -7q-11 -34 -37 -75.5t-57 -82.5t-57 -71z" />
</svg>
