<?xml version="1.0" standalone="no"?>
<!DOCTYPE svg PUBLIC "-//W3C//DTD SVG 1.1//EN" "http://www.w3.org/Graphics/SVG/1.1/DTD/svg11.dtd" >
<svg xmlns="http://www.w3.org/2000/svg" xmlns:xlink="http://www.w3.org/1999/xlink" version="1.1" viewBox="-10 0 1010 1000">
   <path fill="currentColor"
d="M99 112q72 52 112 101.5t55.5 90.5t12.5 68.5t-17.5 35.5t-33.5 -8q-5 -44 -28 -95.5t-54 -100.5t-60 -85zM386 49q63 53 97 103.5t45 92t6 68.5t-20 35t-34 -9q-1 -46 -18 -97.5t-41.5 -100t-49.5 -85.5zM850 78l92 40q-4 8 -13 11.5t-28 0.5q-30 62 -77 136t-107 147
t-129 133l-14 -12q44 -48 85.5 -105.5t77.5 -119t65 -121t48 -110.5z" />
</svg>
