<?xml version="1.0" standalone="no"?>
<!DOCTYPE svg PUBLIC "-//W3C//DTD SVG 1.1//EN" "http://www.w3.org/Graphics/SVG/1.1/DTD/svg11.dtd" >
<svg xmlns="http://www.w3.org/2000/svg" xmlns:xlink="http://www.w3.org/1999/xlink" version="1.1" viewBox="-10 0 1010 1000">
   <path fill="currentColor"
d="M351 610q71 33 125 69q22 14 39 24q61 -78 105 -146q48 -78 102 -190h-365q-34 67 -76 128q-56 86 -129 154l-12 -20q82 -92 137 -182q48 -87 80 -164q25 -63 45 -162q94 18 94 35q0 13 -55 15q-31 95 -71 168h352l43 -39q37 32 62 63q5 6 5 12q0 5 -19 9q-33 2 -40 2
q-68 109 -139 198q-56 79 -106 127q20 13 34 26q31 21 46 37q11 16 18 28q6 13 6 26q-1 27 -19 28q-13 0 -22 -6q-10 -8 -46 -55q-37 -48 -82 -86q-45 -39 -124 -88z" />
</svg>
