<?xml version="1.0" standalone="no"?>
<!DOCTYPE svg PUBLIC "-//W3C//DTD SVG 1.1//EN" "http://www.w3.org/Graphics/SVG/1.1/DTD/svg11.dtd" >
<svg xmlns="http://www.w3.org/2000/svg" xmlns:xlink="http://www.w3.org/1999/xlink" version="1.1" viewBox="-10 0 1010 1000">
   <path fill="currentColor"
d="M218 210q29 0 55 18q30 25 31 46q0 7 -6 21q-10 34 -10 204q0 216 7 243q7 22 25 23l340 -19q26 0 27 -47l12 -446q0 -35 -10 -50q-11 -12 -29 -11q-53 0 -205 34q-91 20 -100 19q-20 0 -42 -18q-25 -19 -25 -31q0 -7 25 -13q181 -21 302 -43q81 -16 88 -16q22 0 65 39
q28 25 28 39q0 7 -13 42q-15 30 -14 80q0 98 5 248q7 173 7 209q0 27 -23 64q-15 26 -32 26q-15 0 -35 -28q-21 -26 -47 -26q-168 0 -297 18q-44 8 -55 8q-13 0 -39 -20q-27 -20 -27 -34q0 -16 2 -43q3 -55 2 -347q0 -78 -20 -142q-8 -22 -8 -31q0 -16 16 -16zM398 399
q24 0 107 69q73 66 73 99q0 21 -13 42q-11 16 -19 15q-17 0 -29 -24q-54 -104 -95 -159q-23 -37 -24 -38v-4z" />
</svg>
