<?xml version="1.0" standalone="no"?>
<!DOCTYPE svg PUBLIC "-//W3C//DTD SVG 1.1//EN" "http://www.w3.org/Graphics/SVG/1.1/DTD/svg11.dtd" >
<svg xmlns="http://www.w3.org/2000/svg" xmlns:xlink="http://www.w3.org/1999/xlink" version="1.1" viewBox="-10 0 1010 1000">
   <path fill="currentColor"
d="M609 110q23 0 56 25q38 36 38 61q0 8 -18 18q-20 17 -45 107q-45 131 -87 213q98 67 212 172q52 49 51 102q0 63 -24 63q-15 0 -76 -70q-114 -129 -200 -206q-73 104 -134 162q-74 69 -154 107q-47 18 -53 18h-4q0 -8 12 -15q129 -103 199 -196q44 -61 80 -124
q-113 -99 -231 -177l-9 -7q0 -4 8 -3q13 0 71 20q72 33 191 113q12 -24 23 -47q56 -125 78 -220q17 -62 8 -86q-8 -16 -8 -24q-1 -6 16 -6z" />
</svg>
