<svg xmlns="http://www.w3.org/2000/svg" xmlns:xlink="http://www.w3.org/1999/xlink" version="1.1" baseProfile="full" viewBox="0 0 200 200" width="200" height="200">
<g fill="black">
<path d="M 123.7 183.9 L 121.6 185.1 L 119.6 186.1 L 117.4 187.0 L 115.2 187.7 L 113.0 188.2 L 110.7 188.6 L 108.3 188.9 L 106.0 189.0 L 106.0 183.0 L 86.0 180.0 L 86.0 177.0 L 106.0 177.0 L 107.5 176.9 L 109.1 176.7 L 110.5 176.5 L 111.9 176.2 L 114.7 175.2 L 117.3 173.8 L 118.5 172.9 L 119.8 171.9 L 123.4 168.4 L 126.7 163.9 L 129.8 158.5 L 132.6 152.0 L 135.1 144.4 L 137.2 135.9 L 139.0 126.4 L 140.4 115.8 L 141.4 104.3 L 141.89440002441407 94.0 L 77.61739130020142 94.0 L 74.0 107.0 L 60.8 109.6 L 80.14413404464722 40.0 L 20.0 40.0 L 20.0 36.0 L 162.0 36.0 L 172.0 26.0 L 184.0 36.0 L 184.0 40.0 L 92.64347829818726 40.0 L 78.73043479919434 90.0 L 142.0 90.0 L 148.0 85.0 L 159.0 94.0 L 154.0 97.0 L 153.66745100021362 97.13856210708619 L 153.3 105.1 L 152.3 117.1 L 150.8 128.2 L 149.0 138.4 L 146.6 147.8 L 143.8 156.2 L 140.6 163.8 L 136.8 170.5 L 132.4 176.3 L 127.5 181.2 L 125.6 182.6 Z " />
</g>
</svg>
