<svg xmlns="http://www.w3.org/2000/svg" xmlns:xlink="http://www.w3.org/1999/xlink" version="1.1" baseProfile="full" viewBox="0 0 200 200" width="200" height="200">
<g fill="black">
<path d="M 137.7 175.7 L 121.8 168.4 L 107.4 159.8 L 94.5 149.8 L 94.06411485671997 149.36411485671997 L 90.7 153.9 L 80.0 164.2 L 67.6 172.8 L 53.4 179.6 L 37.6 184.6 L 20.1 187.8 L 19.8 186.1 L 36.5 181.0 L 51.3 174.7 L 64.1 167.2 L 75.1 158.5 L 84.2 148.5 L 87.73225803375244 143.03225803375244 L 83.2 138.5 L 73.5 126.0 L 65.4 112.3 L 59.0 97.3 L 54.4 81.2 L 56.1 80.6 L 62.8 95.7 L 70.5 109.3 L 79.3 121.7 L 89.3 132.8 L 92.30213222503662 135.42686567306518 L 97.2 124.6 L 101.1 110.5 L 103.4 95.0 L 104.0 78.0 L 104.0 62.0 L 20.0 62.0 L 20.0 58.0 L 104.0 58.0 L 104.0 14.0 L 116.0 16.0 L 119.0 18.0 L 116.0 19.8 L 116.0 58.0 L 158.0 58.0 L 168.0 48.0 L 180.0 58.0 L 180.0 62.0 L 116.0 62.0 L 116.0 78.0 L 114.7 96.2 L 111.6 113.0 L 106.5 128.2 L 99.6305890083313 141.8392653465271 L 100.5 142.6 L 113.0 151.2 L 126.7 158.5 L 141.8 164.7 L 158.3 169.7 L 176.2 173.5 L 185.5 175.2 L 173.7 186.4 L 155.0 181.8 Z " />
</g>
</svg>
