<svg xmlns="http://www.w3.org/2000/svg" xmlns:xlink="http://www.w3.org/1999/xlink" version="1.1" baseProfile="full" viewBox="0 0 200 200" width="200" height="200">
<g fill="black">
<path d="M 146.7 184.0 L 144.6 185.2 L 142.5 186.2 L 140.4 187.0 L 138.2 187.7 L 135.9 188.3 L 131.3 188.9 L 129.0 189.0 L 129.0 183.0 L 109.0 180.0 L 109.0 177.0 L 129.0 177.0 L 130.5 176.9 L 132.1 176.7 L 133.6 176.5 L 135.0 176.2 L 136.4 175.7 L 137.7 175.2 L 139.1 174.5 L 140.4 173.8 L 141.6 172.9 L 142.9 172.0 L 146.0 169.1 L 148.9 165.4 L 151.7 160.9 L 154.3 155.7 L 156.7 149.6 L 158.9 142.8 L 160.8 135.1 L 162.5 126.6 L 163.9 117.4 L 164.7140000343323 110.0 L 48.70847454071045 110.0 L 47.0 122.6 L 34.3 127.0 L 44.1 54.2 L 55.8 57.7 L 58.5 60.1 L 55.33701105117798 61.11454362869263 L 49.25084743499756 106.0 L 95.0 106.0 L 95.0 33.0 L 22.0 33.0 L 22.0 29.0 L 162.0 29.0 L 172.0 19.0 L 184.0 29.0 L 184.0 33.0 L 107.0 33.0 L 107.0 67.0 L 148.0 67.0 L 158.0 57.0 L 170.0 67.0 L 170.0 71.0 L 107.0 71.0 L 107.0 106.0 L 165.0 106.0 L 171.0 101.0 L 182.0 110.0 L 177.0 113.0 L 176.4024896621704 113.24896268844604 L 175.8 119.0 L 174.3 128.7 L 172.5 137.7 L 170.4 146.0 L 168.0 153.6 L 165.3 160.5 L 162.2 166.8 L 158.7 172.3 L 154.8 177.2 L 150.5 181.3 L 148.6 182.7 Z " />
</g>
</svg>
