<svg xmlns="http://www.w3.org/2000/svg" xmlns:xlink="http://www.w3.org/1999/xlink" version="1.1" baseProfile="full" viewBox="0 0 200 200" width="200" height="200">
<g fill="black">
<path d="M 43.6 135.9 L 50.0 134.63488368988038 L 50.0 41.0 L 62.0 43.0 L 65.0 45.0 L 62.0 46.8 L 62.0 132.21413040161133 L 70.3 130.5 L 79.8 128.6 L 89.7 126.5 L 99.8 124.4 L 110.3 122.3 L 121.1 120.1 L 132.2 118.1 L 137.0 117.26521739959716 L 137.0 12.0 L 149.0 14.0 L 152.0 16.0 L 149.0 17.8 L 149.0 182.0 L 137.0 188.0 L 137.0 120.35272731781006 L 133.2 121.7 L 122.4 125.3 L 111.9 128.7 L 101.7 131.8 L 91.7 134.8 L 82.1 137.6 L 72.7 140.3 L 63.6 142.8 L 54.8 145.3 L 50.1880859375 146.54792966842652 L 48.9 150.0 L 46.3 147.6 L 41.6 136.3 Z " />
</g>
</svg>
