<?xml version="1.0" standalone="no"?>
<!DOCTYPE svg PUBLIC "-//W3C//DTD SVG 1.1//EN" "http://www.w3.org/Graphics/SVG/1.1/DTD/svg11.dtd" >
<svg xmlns="http://www.w3.org/2000/svg" xmlns:xlink="http://www.w3.org/1999/xlink" version="1.1" viewBox="-10 0 1010 1000">
   <path fill="currentColor"
d="M718 85q44 7 79 19q11 3 11 13q0 7 -16 15q-17 9 -27 12q-16 139 -66 245q-61 133 -148 233q-12 13 -23 25q20 19 39 34q72 61 168 113q100 48 229 84v16q-41 5 -58 35q-127 -51 -222 -107q-90 -51 -159 -120q-15 -13 -27 -26q-73 72 -145 122q-114 81 -291 151l-16 -24
q194 -81 305 -166q65 -47 123 -107q-44 -50 -80 -109q-68 -101 -111 -217q-43 -104 -53 -205l20 -8q21 125 72 233q47 113 109 197q33 41 71 78q17 -19 32 -37q84 -103 139 -241q45 -115 45 -218v-40z" />
</svg>
