<svg xmlns="http://www.w3.org/2000/svg" xmlns:xlink="http://www.w3.org/1999/xlink" version="1.1" baseProfile="full" viewBox="0 0 200 200" width="200" height="200">
<g fill="black">
<path d="M 161.6 179.9 L 159.7 181.3 L 157.7 182.6 L 155.6 183.6 L 153.4 184.5 L 151.1 185.1 L 148.8 185.6 L 146.4 185.9 L 144.0 186.0 L 144.0 180.0 L 124.0 177.0 L 124.0 174.0 L 144.0 174.0 L 145.5 173.9 L 146.9 173.7 L 148.2 173.5 L 149.5 173.1 L 150.7 172.6 L 151.9 172.0 L 153.0 171.3 L 154.2 170.5 L 155.2 169.6 L 156.3 168.5 L 158.7 165.3 L 161.1 160.8 L 163.4 154.9 L 165.4 147.8 L 167.2 139.5 L 168.8 130.0 L 170.0 119.2 L 171.0 107.3 L 171.6 94.2 L 171.94125871658326 82.0 L 133.51618118286132 82.0 L 131.3 94.8 L 118.4 98.5 L 130.4270676612854 34.0 L 87.79523811340331 34.0 L 86.8 53.0 L 84.2 72.9 L 80.2 91.7 L 74.8 109.3 L 68.1 125.7 L 59.9 140.9 L 50.4 154.8 L 39.5 167.5 L 27.2 178.8 L 13.5 188.7 L 12.4 187.2 L 24.6 176.0 L 35.5 163.9 L 45.0 151.0 L 53.3 137.1 L 60.3 122.2 L 66.0 106.3 L 70.4 89.4 L 73.6 71.3 L 75.4 52.2 L 75.85049505233765 34.0 L 27.0 34.0 L 27.0 30.0 L 131.0 30.0 L 137.0 25.0 L 148.0 34.0 L 143.0 37.0 L 141.17584657669067 37.76006393432617 L 134.2087378501892 78.0 L 172.0 78.0 L 178.0 73.0 L 189.0 82.0 L 184.0 85.0 L 183.79550952911376 85.08520441055298 L 183.6 94.6 L 182.9 108.0 L 182.0 120.4 L 180.7 131.6 L 179.0 141.7 L 177.1 150.8 L 174.8 158.7 L 172.1 165.7 L 168.9 171.7 L 165.1 176.7 L 163.4 178.4 Z " />
</g>
</svg>
