<svg xmlns="http://www.w3.org/2000/svg" xmlns:xlink="http://www.w3.org/1999/xlink" version="1.1" baseProfile="full" viewBox="0 0 200 200" width="200" height="200">
<g fill="black">
<path d="M 159.2 170.0 L 151.0 162.3 L 143.4 153.8 L 136.6 144.8 L 130.4 135.1 L 124.9 124.8 L 120.2 113.9 L 116.3 102.3 L 115.0688814163208 97.16326370239258 L 112.2 102.5 L 101.7 118.6 L 90.0 133.4 L 77.1 146.9 L 63.1 159.0 L 48.0 169.7 L 31.7 179.0 L 14.3 186.8 L 13.6 185.1 L 29.8 175.7 L 44.9 165.3 L 58.9 153.9 L 71.7 141.5 L 83.4 128.0 L 94.0 113.4 L 103.5 97.6 L 111.8 80.6 L 119.1 62.5 L 123.9989637374878 47.0 L 73.11792449951172 47.0 L 71.5 50.5 L 66.2 60.7 L 60.3 70.4 L 53.8 79.6 L 46.9 88.4 L 39.4 96.7 L 31.3 104.5 L 22.6 111.6 L 21.3 110.3 L 28.5 101.8 L 35.3 93.2 L 41.7 84.4 L 47.6 75.4 L 53.0 66.0 L 57.9 56.3 L 62.4 46.3 L 66.4 36.0 L 69.9 25.3 L 72.6259635925293 15.304800033569336 L 72.6 15.3 L 72.83999996185302 14.519999980926514 L 72.9 14.3 L 72.90709047317505 14.30195598602295 L 73.4 12.7 L 84.5 17.5 L 86.8 20.2 L 83.26315793991088 21.210526275634766 L 80.7 28.9 L 76.4 39.9 L 74.96698112487793 43.0 L 125.0 43.0 L 131.0 38.0 L 142.0 47.0 L 137.0 50.0 L 135.2799605369568 50.716683101654056 L 129.7 66.5 L 121.5 85.2 L 116.94140281677247 93.67997102737426 L 120.2 100.9 L 125.6 111.4 L 131.3 121.3 L 137.4 130.6 L 144.0 139.1 L 151.1 147.0 L 158.6 154.3 L 166.7 160.9 L 175.2 166.9 L 184.3 172.2 L 188.8 174.9 L 177.6 183.7 L 168.1 177.2 Z " />
</g>
</svg>
