<svg xmlns="http://www.w3.org/2000/svg" xmlns:xlink="http://www.w3.org/1999/xlink" version="1.1" baseProfile="full" viewBox="0 0 200 200" width="200" height="200">
<g fill="black">
<path d="M 70.0 176.0 L 90.0 176.0 L 91.2 175.9 L 92.1 175.7 L 93.0 175.4 L 93.4 175.0 L 93.7 174.1 L 93.9 173.2 L 94.0 172.0 L 94.0 119.0 L 15.0 119.0 L 15.0 115.0 L 94.0 115.0 L 94.0 41.03986015319824 L 80.7 42.9 L 66.0 44.8 L 50.8 46.4 L 35.2 47.8 L 19.1 48.8 L 18.8 47.1 L 34.7 44.0 L 50.1 41.1 L 65.0 38.3 L 93.5 32.6 L 107.0 29.7 L 120.1 26.7 L 132.7 23.7 L 144.8 20.6 L 155.5235326766968 17.667068004608154 L 155.5 17.6 L 155.5664093017578 17.655341053009032 L 156.5 17.4 L 156.84065933227538 18.717216110229494 L 166.9 27.1 L 167.2 30.1 L 162.93550510406493 28.117910861968994 L 159.5 29.0 L 147.5 31.6 L 135.0 34.1 L 122.1 36.5 L 108.8 38.8 L 106.0 39.22608699798584 L 106.0 115.0 L 163.0 115.0 L 173.0 105.0 L 185.0 115.0 L 185.0 119.0 L 106.0 119.0 L 106.0 172.0 L 105.8 174.5 L 105.4 177.0 L 104.6 179.4 L 103.3 181.7 L 101.7 183.7 L 99.7 185.3 L 97.4 186.6 L 95.0 187.4 L 92.5 187.8 L 90.0 188.0 L 90.0 182.0 L 70.0 179.0 Z M 159.1 56.2 L 161.1 59.2 L 157.340740776062 59.718518543243405 L 156.8 60.8 L 154.3 65.5 L 151.7 70.3 L 145.9 80.1 L 142.7 85.1 L 139.4 90.2 L 135.8 95.3 L 131.9 100.4 L 127.7 105.4 L 126.2 104.5 L 128.6 98.4 L 131.1 92.6 L 133.6 87.0 L 136.0 81.5 L 138.3 76.2 L 140.5 71.0 L 142.6 66.0 L 144.6 61.1 L 146.4 56.2 L 147.67820472717284 52.525161552429196 L 147.6 52.5 L 147.970370388031 51.68518514633179 L 148.0 51.6 L 148.00764989852905 51.603170204162595 L 148.6 50.3 Z M 56.9 91.1 L 55.7 87.0 L 54.2 82.9 L 52.4 78.8 L 50.3 74.6 L 47.9 70.4 L 45.2 66.2 L 42.2 61.8 L 39.1 57.3 L 40.3 56.0 L 44.9 59.3 L 49.1 62.8 L 53.0 66.5 L 56.4 70.4 L 59.6 74.5 L 62.4 78.7 L 64.9 83.0 L 67.0 87.5 L 68.8 92.1 L 70.2 96.8 L 69.3 101.3 L 65.5 103.9 L 61.1 103.0 L 58.5 99.2 L 57.8 95.1 Z " />
</g>
</svg>
