<svg xmlns="http://www.w3.org/2000/svg" xmlns:xlink="http://www.w3.org/1999/xlink" version="1.1" baseProfile="full" viewBox="0 0 200 200" width="200" height="200">
<g fill="black">
<path d="M 117.0 118.0 L 137.0 118.0 L 138.2 117.9 L 139.1 117.7 L 140.0 117.4 L 140.4 117.0 L 140.7 116.1 L 140.9 115.2 L 141.0 114.0 L 141.0 55.7425196647644 L 74.0 74.734645652771 L 74.0 165.2 L 74.2 166.1 L 74.5 167.0 L 74.9 167.4 L 75.8 167.7 L 76.7 167.9 L 78.0 168.0 L 172.0 168.0 L 178.0 143.0 L 180.0 143.0 L 178.0 168.0 L 181.6 170.4 L 184.0 174.0 L 181.6 177.6 L 178.0 180.0 L 78.0 180.0 L 75.4 179.8 L 72.9 179.4 L 70.5 178.6 L 68.2 177.3 L 66.2 175.7 L 64.6 173.7 L 63.3 171.4 L 62.5 169.0 L 62.1 166.5 L 62.0 164.0 L 62.0 78.13622045516968 L 20.5 89.9 L 19.4 86.0 L 62.0 73.92440948486328 L 62.0 17.0 L 74.0 19.0 L 77.0 21.0 L 74.0 22.8 L 74.0 70.5228346824646 L 141.0 51.530708694458006 L 141.0 50.0 L 147.0 45.0 L 158.0 54.0 L 153.0 58.0 L 153.0 114.0 L 152.8 116.5 L 152.4 119.0 L 151.6 121.4 L 150.3 123.7 L 148.7 125.7 L 146.7 127.3 L 144.4 128.6 L 142.0 129.4 L 139.5 129.8 L 137.0 130.0 L 137.0 124.0 L 117.0 121.0 Z " />
</g>
</svg>
