<?xml version="1.0" standalone="no"?>
<!DOCTYPE svg PUBLIC "-//W3C//DTD SVG 1.1//EN" "http://www.w3.org/Graphics/SVG/1.1/DTD/svg11.dtd" >
<svg xmlns="http://www.w3.org/2000/svg" xmlns:xlink="http://www.w3.org/1999/xlink" version="1.1" viewBox="-10 0 1010 1000">
   <path fill="currentColor"
d="M246 39q45 13 83 33q6 6 6 10q0 8 -13 13q-22 6 -41 6q-20 62 -43 116l-6 14h576l51 -60q39 30 73 58q10 6 9 13q0 15 -16 15h-355v610q0 33 -14 50q-13 16 -35 26q-20 11 -33 10l-1 -12q-3 -15 -11 -21q-14 -12 -47 -20q-36 -11 -82 -14v-23q73 15 133 15q25 0 34 -6
q10 -6 9 -29v-586h-303q-17 39 -35 77q-25 52 -55 94q-26 42 -68 87l-16 -12q44 -51 73 -109q34 -62 64 -134q30 -73 50 -145q9 -37 13 -76z" />
</svg>
