<svg xmlns="http://www.w3.org/2000/svg" xmlns:xlink="http://www.w3.org/1999/xlink" version="1.1" baseProfile="full" viewBox="0 0 200 200" width="200" height="200">
<g fill="black">
<path d="M 178.0 32.0 L 178.0 36.0 L 79.72454872131348 36.0 L 73.34187726974487 70.0 L 136.0 70.0 L 142.0 65.0 L 153.0 74.0 L 148.0 77.0 L 146.51131601333617 77.62028503417969 L 136.2115385055542 175.0 L 160.0 175.0 L 170.0 165.0 L 182.0 175.0 L 182.0 179.0 L 18.0 179.0 L 18.0 175.0 L 124.12857141494752 175.0 L 135.6714285850525 74.0 L 72.59097471237183 74.0 L 59.3 144.8 L 46.4 148.5 L 67.42620086669922 36.0 L 22.0 36.0 L 22.0 32.0 L 156.0 32.0 L 166.0 22.0 Z M 98.8 145.1 L 96.7 142.3 L 94.4 139.7 L 91.9 137.1 L 89.1 134.6 L 86.1 132.2 L 82.9 129.8 L 79.4 127.3 L 75.6 125.1 L 76.2 123.4 L 80.6 124.5 L 84.9 125.6 L 89.0 127.0 L 92.9 128.7 L 96.6 130.7 L 100.2 132.9 L 103.5 135.4 L 106.6 138.1 L 109.6 141.0 L 112.3 144.1 L 113.1 148.6 L 110.6 152.4 L 106.1 153.3 L 102.3 150.8 L 100.7 147.9 Z M 105.0 110.2 L 103.0 107.8 L 100.7 105.5 L 98.2 103.3 L 95.4 101.1 L 92.4 99.0 L 89.1 96.9 L 85.6 94.9 L 81.7 93.1 L 82.2 91.3 L 86.5 92.0 L 90.7 92.7 L 94.8 93.7 L 98.6 95.0 L 102.3 96.6 L 105.8 98.4 L 109.2 100.4 L 112.3 102.7 L 115.2 105.2 L 118.0 107.9 L 119.0 112.4 L 116.8 116.4 L 112.3 117.4 L 108.4 115.2 L 106.8 112.6 Z " />
</g>
</svg>
