<svg xmlns="http://www.w3.org/2000/svg" xmlns:xlink="http://www.w3.org/1999/xlink" version="1.1" baseProfile="full" viewBox="0 0 200 200" width="200" height="200">
<g fill="black">
<path d="M 40.0 26.0 L 166.0 26.0 L 176.0 16.0 L 188.0 26.0 L 188.0 30.0 L 40.0 30.0 L 40.0 91.0 L 39.4 105.1 L 38.4 118.3 L 37.0 130.6 L 35.0 141.9 L 32.6 152.4 L 29.7 161.9 L 26.2 170.4 L 22.3 177.9 L 17.7 184.3 L 12.6 189.5 L 11.3 188.4 L 14.5 182.3 L 17.5 175.5 L 20.1 168.0 L 22.4 159.7 L 24.3 150.5 L 25.8 140.4 L 27.0 129.4 L 27.7 117.5 L 28.0 104.7 L 28.0 20.0 Z M 153.6 170.1 L 143.0 159.4 L 134.1 147.3 L 126.7 133.9 L 120.9 119.2 L 116.6 103.2 L 113.9 86.0 L 113.5049222946167 78.73056993484497 L 112.2 88.3 L 108.0 106.6 L 102.2 123.2 L 94.8 138.3 L 85.8 151.6 L 75.3 163.3 L 63.2 173.1 L 49.6 181.1 L 34.7 187.2 L 34.0 185.5 L 47.8 177.8 L 59.9 168.9 L 70.6 158.7 L 79.7 147.1 L 87.3 134.2 L 93.5 119.8 L 98.3 104.0 L 101.6 86.6 L 103.5 67.6 L 104.0 47.1 L 104.0 44.7 L 116.0 47.1 L 119.0 49.1 L 115.79845705032349 51.02092571258545 L 115.71282758712769 52.686807823181155 L 117.0 67.3 L 119.8 85.2 L 123.7 101.5 L 128.7 116.3 L 135.0 129.7 L 142.5 141.5 L 151.3 152.0 L 161.2 161.1 L 172.3 168.8 L 184.8 175.3 L 190.5 178.0 L 179.1 187.2 L 165.6 179.4 Z " />
</g>
</svg>
