<svg xmlns="http://www.w3.org/2000/svg" xmlns:xlink="http://www.w3.org/1999/xlink" version="1.1" baseProfile="full" viewBox="0 0 200 200" width="200" height="200">
<g fill="black">
<path d="M 153.0 116.0 L 148.0 119.0 L 145.6631579399109 119.97368421554566 L 144.1 123.1 L 140.2 129.8 L 136.0 136.6 L 131.3 143.4 L 126.2 150.2 L 120.6 156.9 L 114.6 163.7 L 108.1 170.4 L 101.1 177.1 L 93.6 183.6 L 92.3 182.3 L 98.3 174.5 L 104.1 166.9 L 109.5 159.5 L 114.6 152.3 L 119.2 145.2 L 123.5 138.3 L 127.4 131.4 L 130.8 124.7 L 133.8 118.1 L 134.63999996185302 116.0 L 47.0 116.0 L 47.0 112.0 L 136.0 112.0 L 136.36000003814698 111.7 L 136.4 111.6 L 136.4530466079712 111.62246112823486 L 142.0 107.0 Z M 157.5 86.3 L 148.9 80.1 L 140.6 73.2 L 132.7 65.8 L 125.0 57.8 L 117.7 49.1 L 110.8 39.9 L 104.2 29.9 L 102.25139455795288 26.399115657806398 L 99.9 30.2 L 92.2 41.3 L 84.0 51.8 L 75.3 61.5 L 66.1 70.6 L 56.5 79.0 L 46.4 86.7 L 35.8 93.6 L 24.7 99.7 L 13.2 104.9 L 12.4 103.3 L 22.8 96.4 L 32.8 89.2 L 42.4 81.5 L 51.5 73.3 L 60.2 64.6 L 68.4 55.3 L 76.1 45.5 L 83.4 35.1 L 90.3 24.2 L 96.20276794433593 13.501233005523682 L 96.2 13.5 L 97.2 11.6 L 107.2 18.4 L 108.9 21.6 L 105.14151992797852 21.727406120300294 L 104.11400756835937 23.388316535949706 L 107.6 27.5 L 115.4 36.2 L 123.1 44.3 L 131.0 51.9 L 138.9 58.9 L 147.1 65.3 L 155.3 71.1 L 163.7 76.3 L 172.3 80.9 L 181.0 84.9 L 186.9 87.6 L 175.5 96.9 L 166.3 91.9 Z M 138.0 84.0 L 138.0 88.0 L 62.0 88.0 L 62.0 84.0 L 116.0 84.0 L 126.0 74.0 Z " />
</g>
</svg>
