<svg xmlns="http://www.w3.org/2000/svg" xmlns:xlink="http://www.w3.org/1999/xlink" version="1.1" baseProfile="full" viewBox="0 0 200 200" width="200" height="200">
<g fill="black">
<path d="M 136.0 83.0 L 139.0 85.0 L 136.0 86.8 L 136.0 182.0 L 124.0 188.0 L 124.0 81.0 Z M 80.0 83.0 L 83.0 85.0 L 80.0 86.8 L 80.0 106.0 L 79.1 118.4 L 77.1 130.0 L 74.1 140.7 L 69.8 150.5 L 64.5 159.3 L 58.1 167.0 L 50.6 173.7 L 42.1 179.2 L 32.6 183.6 L 22.2 186.8 L 21.7 185.1 L 31.0 180.2 L 39.2 174.7 L 46.3 168.7 L 52.4 162.0 L 57.4 154.6 L 61.4 146.5 L 64.5 137.7 L 66.6 128.0 L 67.8 117.4 L 68.0 106.0 L 68.0 81.0 Z M 157.9 85.5 L 149.2 79.4 L 140.8 72.6 L 132.7 65.3 L 125.0 57.3 L 117.5 48.7 L 110.5 39.5 L 103.8 29.7 L 101.76434335708618 26.103673267364503 L 99.3 30.0 L 91.5 41.0 L 83.1 51.3 L 74.3 61.0 L 65.0 70.0 L 55.3 78.3 L 45.0 85.9 L 34.3 92.8 L 23.1 98.8 L 11.4 104.0 L 10.5 102.4 L 21.2 95.5 L 31.3 88.3 L 41.1 80.7 L 50.3 72.6 L 59.1 63.9 L 67.5 54.7 L 75.3 45.0 L 82.8 34.7 L 89.7 23.8 L 96.2 12.4 L 96.21588506698609 12.408925914764405 L 96.8 11.4 L 106.7 18.3 L 108.3 21.5 L 104.5952696800232 21.627749347686766 L 103.65422172546387 23.115622425079344 L 107.2 27.2 L 115.0 35.8 L 122.9 43.8 L 130.9 51.4 L 138.9 58.3 L 147.2 64.6 L 155.6 70.3 L 164.1 75.5 L 172.8 80.0 L 181.7 84.0 L 187.6 86.7 L 176.2 96.0 L 166.9 91.1 Z " />
</g>
</svg>
