<svg xmlns="http://www.w3.org/2000/svg" xmlns:xlink="http://www.w3.org/1999/xlink" version="1.1" baseProfile="full" viewBox="0 0 200 200" width="200" height="200">
<g fill="black">
<path d="M 156.1 174.4 L 153.2 169.4 L 150.1 164.5 L 148.85810871124266 162.693612575531 L 140.3 164.9 L 127.7 167.8 L 115.1 170.4 L 102.6 172.8 L 90.3 174.9 L 78.0 176.9 L 65.9 178.7 L 53.9 180.2 L 42.1 181.7 L 34.497276306152344 182.47976655960082 L 32.6 185.8 L 30.4 182.9 L 27.5 171.1 L 29.5 170.9 L 41.1 170.3 L 52.9 169.6 L 57.22916488647461 169.27258415222167 L 58.3 167.2 L 61.5 161.4 L 64.6 155.7 L 67.6 150.2 L 70.6 144.6 L 76.2 133.8 L 78.8 128.5 L 81.2 123.2 L 81.45384616851807 122.6 L 16.0 122.6 L 16.0 118.6 L 162.0 118.6 L 172.0 108.6 L 184.0 118.6 L 184.0 122.6 L 94.68888893127442 122.6 L 94.3 123.3 L 91.3 128.4 L 88.2 133.6 L 84.9 138.8 L 81.4 144.0 L 77.8 149.1 L 74.0 154.3 L 70.1 159.4 L 65.9 164.5 L 61.83706226348877 168.92408771514891 L 64.8 168.7 L 76.9 167.7 L 89.1 166.5 L 101.5 165.3 L 114.1 163.9 L 126.8 162.5 L 139.7 161.2 L 147.27471113204956 160.39048891067506 L 146.8 159.7 L 143.2 154.9 L 139.5 150.2 L 135.5 145.5 L 131.4 140.8 L 127.2 136.0 L 128.3 134.6 L 133.9 137.9 L 139.2 141.6 L 144.2 145.6 L 148.9 149.8 L 153.3 154.2 L 157.5 158.9 L 161.5 163.7 L 165.2 168.7 L 168.7 173.8 L 171.9 179.2 L 172.2 183.7 L 169.3 187.3 L 164.8 187.6 L 161.2 184.7 L 158.8 179.5 Z M 158.4 83.5 L 149.8 77.6 L 141.4 71.0 L 133.4 63.9 L 125.7 56.2 L 118.4 48.0 L 111.4 39.1 L 104.8 29.6 L 102.76853713989257 26.112655353546142 L 100.3 29.9 L 92.6 40.6 L 84.3 50.5 L 75.6 59.8 L 66.4 68.5 L 56.7 76.5 L 46.5 83.8 L 35.9 90.4 L 24.8 96.2 L 13.2 101.1 L 12.4 99.5 L 23.0 92.8 L 33.0 85.9 L 42.7 78.5 L 51.8 70.7 L 60.5 62.3 L 68.8 53.5 L 76.6 44.1 L 83.9 34.2 L 90.8 23.7 L 96.72704010009765 13.51289987564087 L 96.7 13.5 L 97.04262294769288 12.970491790771485 L 97.2 12.7 L 97.21285009384155 12.707413482666016 L 97.8 11.8 L 107.6 18.7 L 109.2 21.9 L 105.47239608764649 21.964269065856932 L 104.67796783447265 23.183117961883546 L 108.1 27.0 L 115.9 35.3 L 123.7 43.0 L 131.5 50.2 L 139.5 56.9 L 147.7 62.9 L 156.0 68.4 L 164.4 73.4 L 173.0 77.8 L 181.8 81.6 L 187.9 84.3 L 176.5 93.7 L 167.3 88.9 Z M 145.0 87.1 L 145.0 91.1 L 55.0 91.1 L 55.0 87.1 L 123.0 87.1 L 133.0 77.1 Z " />
</g>
</svg>
