<?xml version="1.0" standalone="no"?>
<!DOCTYPE svg PUBLIC "-//W3C//DTD SVG 1.1//EN" "http://www.w3.org/Graphics/SVG/1.1/DTD/svg11.dtd" >
<svg xmlns="http://www.w3.org/2000/svg" xmlns:xlink="http://www.w3.org/1999/xlink" version="1.1" viewBox="-10 0 1010 1000">
   <path fill="currentColor"
d="M269 35q49 17 84 35q7 6 6 12q0 8 -19 11q-21 4 -32 4q-32 88 -74 169q-18 33 -34 61q50 21 50 33q0 9 -32 22v478q0 31 5 46q3 13 3 23q0 29 -35 31q-21 0 -20 -14v-571q-11 16 -21 30q-47 61 -111 126l-16 -12q60 -67 100 -129q32 -53 64 -116q31 -65 53 -121
q18 -55 29 -118zM550 31q41 18 69 38q6 4 6 9t-10 9q-17 5 -30 6q-23 28 -49 54q-30 27 -63 50q-28 22 -70 47q-39 22 -83 45l-12 -11q56 -35 92 -67q38 -30 70 -62q33 -35 53 -65q19 -29 27 -53zM621 140q41 20 68 37q6 4 6 10q0 7 -10 10q-16 5 -29 6q-23 25 -50 51
q-28 26 -61 48q-28 22 -69 46q-23 15 -48 25q26 0 46 -1q42 -1 92 -4q42 -2 94 -4q40 -33 68 -61q32 -37 45 -68q45 20 76 40q7 4 6 10q0 6 -10 9q-18 5 -33 6q-37 37 -83 72q-48 36 -104 68q-48 30 -117 62q-45 22 -92 42q62 -2 114 -6q75 -4 165 -11q77 -7 176 -17
q-5 -8 -9 -14q-23 -35 -62 -79l12 -11q38 28 66 60q29 28 45 48q17 20 24 32q6 14 10 26q3 11 3 21q-1 32 -23 32q-6 0 -11 -5q-5 -7 -23 -48q-11 -22 -20 -42q-91 15 -161 24q-23 4 -47 6v315q0 33 -14 50q-12 17 -34 25q-19 10 -34 10l-2 -16q-2 -10 -7 -16
q-8 -12 -31 -21q-25 -11 -57 -13v-23q49 15 89 15q26 0 34 -6q9 -6 9 -29v-284q-34 5 -66 7q-69 9 -148 15q-11 36 -16 36q-9 0 -47 -79q10 0 17 -1q89 -42 149 -79q60 -36 107 -74q-17 3 -32 6q-42 7 -80 11q-36 5 -75 8q-10 36 -16 36q-7 0 -46 -78h12q52 -32 86 -59
q38 -30 68 -63q33 -33 53 -60q19 -29 27 -53zM460 644q41 20 69 37q6 4 6 11q0 6 -10 8q-17 5 -29 7q-18 27 -37 54q-21 28 -44 51q-21 23 -51 49q-28 23 -60 45l-12 -12q38 -34 64 -66t48 -65q22 -35 38 -64q13 -30 18 -55zM785 653q44 32 78 67q34 32 53 57q20 21 29 37
q7 15 11 27t4 26q-1 31 -23 32q-7 0 -13 -7q-7 -7 -28 -55q-22 -47 -49 -85q-26 -39 -74 -88z" />
</svg>
