<?xml version="1.0" standalone="no"?>
<!DOCTYPE svg PUBLIC "-//W3C//DTD SVG 1.1//EN" "http://www.w3.org/Graphics/SVG/1.1/DTD/svg11.dtd" >
<svg xmlns="http://www.w3.org/2000/svg" xmlns:xlink="http://www.w3.org/1999/xlink" version="1.1" viewBox="-10 0 1010 1000">
   <path fill="currentColor"
d="M437 101q-35 15 -80 26q-39 11 -79 21q-34 8 -66 13l-2 6v141h133l43 -47q35 25 66 48q8 6 8 12q0 15 -11 14h-239v172h571v-179h-117q-78 0 -94 4l-16 -40q38 8 110 8h117v-160h-125q-78 0 -94 4l-16 -38q38 7 110 7h117l31 -42q35 21 51 41q8 8 8 13q0 9 -35 31v258
q0 72 2 95q2 28 2 45q0 15 -11 22q-14 6 -21 6q-19 0 -19 -11v-36h-172v304q0 14 10 24q6 9 28 12q25 3 102 3q60 0 110 -3q20 -2 30 -11q11 -8 15 -26q12 -26 21 -124l16 4v106q0 16 6 26q8 13 21 18q8 5 8 14q0 3 -5 10q-8 10 -31 15q-25 8 -73 10q-54 4 -96 4
q-77 0 -113 -4q-35 -1 -55 -8q-21 -6 -32 -20q-10 -13 -9 -22v-332h-156q-1 95 -14 150q-16 59 -48 99q-33 45 -74 77q-51 34 -101 58q-49 22 -119 41l-11 -14q60 -21 105 -41q40 -21 75 -43q33 -26 65 -59q26 -26 45 -64q15 -36 22 -84q8 -43 8 -120h-149v36q0 12 -19 11
q-9 0 -22 -6q-9 -8 -9 -22q0 -17 2 -45q5 -22 5 -95v-250q0 -39 -7 -67l58 43v1q28 -10 49 -18q33 -14 62 -29q28 -15 49 -29q23 -16 36 -30q74 46 74 58q0 13 -20 13q-10 0 -31 -5z" />
</svg>
