<svg xmlns="http://www.w3.org/2000/svg" xmlns:xlink="http://www.w3.org/1999/xlink" version="1.1" baseProfile="full" viewBox="0 0 200 200" width="200" height="200">
<g fill="black">
<path d="M 137.0 172.0 L 157.0 172.0 L 158.2 171.9 L 159.1 171.7 L 160.0 171.4 L 160.4 171.0 L 160.7 170.1 L 160.9 169.2 L 161.0 168.0 L 161.0 108.0 L 39.0 108.0 L 39.0 179.0 L 27.0 185.0 L 27.0 24.0 L 39.0 30.0 L 161.0 30.0 L 167.0 25.0 L 178.0 34.0 L 173.0 38.0 L 173.0 168.0 L 172.8 170.5 L 172.4 173.0 L 171.6 175.4 L 170.3 177.7 L 168.7 179.7 L 166.7 181.3 L 164.4 182.6 L 162.0 183.4 L 159.5 183.8 L 157.0 184.0 L 157.0 178.0 L 137.0 175.0 Z M 39.0 34.0 L 39.0 104.0 L 94.0 104.0 L 94.0 34.0 Z M 106.0 34.0 L 106.0 104.0 L 161.0 104.0 L 161.0 34.0 Z " />
</g>
</svg>
