<svg xmlns="http://www.w3.org/2000/svg" xmlns:xlink="http://www.w3.org/1999/xlink" version="1.1" baseProfile="full" viewBox="0 0 200 200" width="200" height="200">
<g fill="black">
<path d="M 158.6 182.1 L 156.7 183.5 L 154.7 184.7 L 152.5 185.7 L 150.3 186.5 L 148.1 187.1 L 145.7 187.6 L 143.4 187.9 L 141.0 188.0 L 141.0 182.0 L 121.0 179.0 L 121.0 176.0 L 141.0 176.0 L 142.5 175.9 L 145.3 175.5 L 146.6 175.1 L 149.0 174.1 L 150.2 173.4 L 151.3 172.6 L 152.5 171.6 L 153.6 170.6 L 156.3 166.8 L 159.1 161.0 L 161.7 153.1 L 164.0 143.3 L 166.0 131.6 L 167.6 117.9 L 168.8 102.5 L 169.6 85.1 L 169.9 66.0 L 169.99047622680663 47.0 L 54.762025356292725 47.0 L 52.8 50.1 L 47.4 57.8 L 41.5 65.2 L 35.2 72.3 L 28.5 79.2 L 21.3 85.6 L 13.6 91.6 L 12.3 90.3 L 18.6 82.9 L 24.6 75.5 L 30.2 68.1 L 35.5 60.7 L 40.4 53.1 L 44.9 45.3 L 49.0 37.4 L 52.7 29.4 L 56.0 21.2 L 58.63912305831909 13.810455322265625 L 58.6 13.8 L 59.5 11.4 L 70.2 16.9 L 72.4 19.8 L 68.62903652191162 20.593887042999267 L 66.5 25.6 L 62.4 34.0 L 57.8 42.2 L 57.29367084503174 43.0 L 170.0 43.0 L 176.0 38.0 L 187.0 47.0 L 182.0 50.0 L 181.9 50.04166669845581 L 181.9 66.1 L 181.5 85.5 L 180.7 103.2 L 179.5 119.1 L 177.9 133.2 L 175.8 145.6 L 173.3 156.4 L 170.3 165.4 L 166.7 172.9 L 162.2 178.9 L 160.5 180.6 Z M 50.6 75.2 L 53.6 77.2 L 50.6 79.0 L 50.6 154.4 L 132.7 154.4 L 142.7 144.4 L 154.7 154.4 L 154.7 158.4 L 50.6 158.4 L 50.6 170.4 L 38.6 176.4 L 38.6 73.2 Z M 130.3 124.3 L 127.7 120.8 L 124.7 117.3 L 121.4 113.7 L 117.6 110.2 L 113.4 106.6 L 108.9 103.0 L 104.0 99.2 L 101.13736562728882 97.10807495117187 L 96.1 105.8 L 90.2 114.6 L 83.6 123.4 L 76.2 132.1 L 68.1 140.7 L 59.1 149.1 L 57.8 147.9 L 65.2 138.2 L 72.0 128.7 L 78.3 119.5 L 83.8 110.5 L 88.7 101.6 L 92.9 92.9 L 96.4 84.3 L 99.2 75.9 L 101.3 67.6 L 102.52673692703247 60.50245084762573 L 102.5 60.5 L 102.66499996185303 59.70249996185303 L 102.7 59.5 L 102.70665159225464 59.50118379592895 L 103.1 57.6 L 114.5 61.6 L 117.1 64.1 L 113.53977899551391 65.48453035354615 L 112.3 70.5 L 109.3 79.3 L 105.6 88.2 L 102.34285717010498 94.71428575515748 L 105.9 95.9 L 111.7 98.4 L 117.1 101.2 L 122.1 104.1 L 126.8 107.2 L 131.1 110.5 L 135.1 113.9 L 138.7 117.5 L 141.9 121.3 L 144.8 125.2 L 145.3 129.8 L 142.6 133.4 L 138.1 134.0 L 134.4 131.3 L 132.6 127.8 Z " />
</g>
</svg>
