<?xml version="1.0" standalone="no"?>
<!DOCTYPE svg PUBLIC "-//W3C//DTD SVG 1.1//EN" "http://www.w3.org/Graphics/SVG/1.1/DTD/svg11.dtd" >
<svg xmlns="http://www.w3.org/2000/svg" xmlns:xlink="http://www.w3.org/1999/xlink" version="1.1" viewBox="-10 0 1010 1000">
   <path fill="currentColor"
d="M39 121q42 11 113 11h676l47 -54q39 27 73 54q9 5 9 12q0 17 -16 16h-762v601q0 42 9 51q10 13 41 18q52 7 131 12q103 5 219 5q79 0 184 -5q62 -2 100 -9q24 -5 35 -5q18 0 30 7q14 10 13 25q0 7 -6 10q-8 4 -37 7q-46 5 -138 8q-106 5 -169 5q-122 0 -244 -8
q-114 -6 -150 -16q-26 -5 -40 -17q-15 -11 -21 -29q-4 -17 -4 -63v-597q-53 1 -74 4zM742 207q43 19 71 38q11 7 11 12q0 6 -16 10q-21 7 -39 7q-66 121 -117 188q-21 26 -38 46q60 47 102 84q79 66 110 106q17 21 17 41q0 30 -23 30q-14 0 -33 -19q-13 -30 -84 -105
q-48 -53 -114 -109q-28 30 -54 54q-63 62 -142 112q-84 51 -159 76l-8 -17q102 -46 151 -78q59 -39 102 -82q38 -33 82 -88l-42 -32q-110 -95 -254 -192l16 -15q109 68 233 159q38 27 70 53q2 -4 4 -7q57 -72 93 -143q32 -52 61 -129z" />
</svg>
