<svg xmlns="http://www.w3.org/2000/svg" xmlns:xlink="http://www.w3.org/1999/xlink" version="1.1" baseProfile="full" viewBox="0 0 200 200" width="200" height="200">
<g fill="black">
<path d="M 43.5 31.2 L 156.2 31.2 L 166.2 21.2 L 178.2 31.2 L 178.2 35.2 L 43.5 35.2 L 43.5 94.3 L 42.9 107.2 L 41.8 119.3 L 40.2 130.6 L 38.0 141.1 L 35.3 150.8 L 32.1 159.7 L 28.3 167.7 L 23.9 174.8 L 18.9 181.0 L 13.3 186.0 L 12.0 184.8 L 15.8 178.7 L 19.2 172.1 L 22.3 164.9 L 24.9 157.1 L 27.2 148.6 L 28.9 139.3 L 30.2 129.2 L 31.1 118.4 L 31.5 106.7 L 31.5 25.2 Z M 38.0 172.0 L 100.0 172.0 L 100.0 106.0 L 55.0 106.0 L 55.0 102.0 L 100.0 102.0 L 100.0 49.0 L 112.0 51.0 L 115.0 53.0 L 112.0 54.8 L 112.0 102.0 L 147.0 102.0 L 157.0 92.0 L 169.0 102.0 L 169.0 106.0 L 112.0 106.0 L 112.0 172.0 L 162.0 172.0 L 172.0 162.0 L 184.0 172.0 L 184.0 176.0 L 38.0 176.0 Z M 152.5 143.5 L 151.5 140.8 L 150.2 137.9 L 148.6 134.8 L 146.6 131.6 L 144.2 128.2 L 141.6 124.7 L 138.6 121.0 L 135.2 117.3 L 136.3 115.9 L 140.6 118.7 L 144.7 121.4 L 148.5 124.2 L 151.8 127.0 L 154.9 129.9 L 157.6 132.9 L 160.0 136.0 L 162.0 139.1 L 163.8 142.3 L 165.1 145.7 L 164.3 150.2 L 160.6 152.9 L 156.1 152.1 L 153.4 148.4 L 153.1 146.1 Z " />
</g>
</svg>
