<svg xmlns="http://www.w3.org/2000/svg" xmlns:xlink="http://www.w3.org/1999/xlink" version="1.1" baseProfile="full" viewBox="0 0 200 200" width="200" height="200">
<g fill="black">
<path d="M 106.0 17.0 L 109.0 19.0 L 106.0 20.8 L 106.0 58.0 L 164.0 58.0 L 174.0 48.0 L 186.0 58.0 L 186.0 62.0 L 106.0 62.0 L 106.0 107.0 L 146.0 107.0 L 152.0 102.0 L 163.0 111.0 L 158.0 115.0 L 158.0 177.0 L 146.0 183.0 L 146.0 171.0 L 54.0 171.0 L 54.0 183.0 L 42.0 189.0 L 42.0 101.0 L 54.0 107.0 L 94.0 107.0 L 94.0 62.0 L 14.0 62.0 L 14.0 58.0 L 94.0 58.0 L 94.0 15.0 Z M 54.0 167.0 L 146.0 167.0 L 146.0 111.0 L 54.0 111.0 Z " />
</g>
</svg>
