<?xml version="1.0" standalone="no"?>
<!DOCTYPE svg PUBLIC "-//W3C//DTD SVG 1.1//EN" "http://www.w3.org/Graphics/SVG/1.1/DTD/svg11.dtd" >
<svg xmlns="http://www.w3.org/2000/svg" xmlns:xlink="http://www.w3.org/1999/xlink" version="1.1" viewBox="-10 0 1010 1000">
   <path fill="currentColor"
d="M484 35q56 6 92 21q13 5 13 15q0 9 -13 11q-19 9 -41 11v485q0 21 2 30q2 18 2 28q0 31 -32 31q-22 0 -23 -14q0 -21 2 -54q2 -34 2 -60v-426q0 -54 -4 -78zM269 183q49 18 84 34q7 7 6 14q0 9 -19 11q-21 4 -32 4q-30 71 -71 138q-38 64 -80 114q-45 50 -107 103
l-15 -12q56 -57 95 -107q31 -45 61 -99q28 -54 50 -102q18 -43 28 -98zM714 199q65 29 113 64q52 35 80 62q29 25 41 43q12 13 16 27t4 22q0 20 -15 20q-9 0 -16 -5q-10 -5 -30 -30q-26 -37 -58 -69q-29 -33 -67 -64q-38 -29 -83 -59zM789 414q42 13 77 40q12 8 12 18
q0 11 -58 13q-62 93 -112 155q-52 63 -111 108q-63 48 -140 89q-82 43 -170 71q-91 30 -217 52l-12 -23q151 -28 239 -65q92 -33 172 -82q85 -54 148 -119q60 -61 100 -123q49 -67 72 -134z" />
</svg>
