<svg xmlns="http://www.w3.org/2000/svg" xmlns:xlink="http://www.w3.org/1999/xlink" version="1.1" baseProfile="full" viewBox="0 0 200 200" width="200" height="200">
<g fill="black">
<path d="M 59.0 30.0 L 144.0 30.0 L 150.0 25.0 L 161.0 34.0 L 156.0 38.0 L 156.0 95.0 L 144.0 101.0 L 144.0 89.0 L 106.60387592315674 89.0 L 111.1 100.6 L 116.5 112.5 L 122.5 123.4 L 129.0 133.3 L 136.1 142.3 L 143.9 150.2 L 152.3 157.2 L 161.3 163.3 L 171.0 168.5 L 181.4 172.8 L 188.0 175.4 L 176.5 185.1 L 165.3 179.7 L 154.9 173.2 L 145.3 165.8 L 136.6 157.4 L 128.9 148.1 L 122.0 137.9 L 116.1 126.8 L 111.1 114.8 L 107.2 101.9 L 104.48913040161133 89.0 L 59.0 89.0 L 59.0 92.0 L 58.3 104.4 L 56.8 116.2 L 54.6 127.5 L 51.7 138.0 L 47.9 148.0 L 43.4 157.2 L 38.1 165.8 L 32.0 173.6 L 25.2 180.5 L 17.5 186.6 L 16.4 185.3 L 22.4 178.0 L 27.8 170.3 L 32.5 162.3 L 36.6 153.9 L 40.0 144.9 L 42.7 135.5 L 44.8 125.4 L 46.2 114.9 L 46.9 103.7 L 47.0 92.0 L 47.0 24.0 Z M 59.0 34.0 L 59.0 85.0 L 144.0 85.0 L 144.0 34.0 Z " />
</g>
</svg>
