<svg xmlns="http://www.w3.org/2000/svg" xmlns:xlink="http://www.w3.org/1999/xlink" version="1.1" baseProfile="full" viewBox="0 0 200 200" width="200" height="200">
<g fill="black">
<path d="M 45.0 23.0 L 161.0 23.0 L 167.0 18.0 L 178.0 27.0 L 173.0 31.0 L 173.0 72.0 L 161.0 78.0 L 161.0 66.0 L 45.0 66.0 L 45.0 87.0 L 44.57480316162109 96.0 L 107.0 96.0 L 107.0 66.0 L 119.0 68.0 L 122.0 70.0 L 119.0 71.8 L 119.0 96.0 L 162.0 96.0 L 172.0 86.0 L 184.0 96.0 L 184.0 100.0 L 119.0 100.0 L 119.0 131.4 L 152.2 131.4 L 158.2 126.4 L 169.2 135.4 L 164.2 139.4 L 164.2 180.6 L 152.2 186.6 L 152.2 178.6 L 73.7 178.6 L 73.7 181.6 L 61.7 187.6 L 61.7 125.4 L 73.7 131.4 L 107.0 131.4 L 107.0 100.0 L 44.37272729873657 100.0 L 43.3 111.8 L 41.7 123.3 L 39.5 134.2 L 36.8 144.5 L 33.6 154.1 L 29.7 163.1 L 25.4 171.4 L 20.3 178.8 L 14.7 185.5 L 13.2 184.4 L 17.1 176.9 L 20.6 169.0 L 23.7 160.6 L 26.3 151.8 L 28.6 142.4 L 30.4 132.5 L 31.7 122.0 L 32.6 110.9 L 33.0 99.2 L 33.0 17.0 Z M 73.7 135.4 L 73.7 174.6 L 152.2 174.6 L 152.2 135.4 Z M 45.0 27.0 L 45.0 62.0 L 161.0 62.0 L 161.0 27.0 Z " />
</g>
</svg>
