<?xml version="1.0" standalone="no"?>
<!DOCTYPE svg PUBLIC "-//W3C//DTD SVG 1.1//EN" "http://www.w3.org/Graphics/SVG/1.1/DTD/svg11.dtd" >
<svg xmlns="http://www.w3.org/2000/svg" xmlns:xlink="http://www.w3.org/1999/xlink" version="1.1" viewBox="-10 0 1010 1000">
   <path fill="currentColor"
d="M468 39q57 6 93 21q14 6 13 14q0 9 -13 12q-19 9 -42 11v188h268q2 -31 2 -54v-64q0 -52 -4 -78q55 7 92 22q13 6 13 14t-13 12q-18 10 -42 12v120q0 22 2 30q2 18 2 29q0 31 -31 32q-22 0 -23 -17q0 -14 1 -31h-590q-7 5 -17 5q-22 0 -23 -17q0 -21 2 -53q2 -34 2 -60
v-23q0 -53 -4 -79q55 7 92 22q13 6 13 14t-13 12q-18 9 -41 11v82q0 23 1 30q2 18 2 29h262v-168q0 -53 -4 -78zM35 421q42 12 113 12h680l50 -58q39 29 74 57q8 5 8 14q0 15 -15 14h-542q-27 56 -60 101q-18 26 -37 49l29 15h450l31 -43q34 21 51 41q8 7 8 13q0 9 -40 31
v187q14 12 26 21q6 3 6 7q0 17 -8 17h-535v26q0 9 -12 15q-15 6 -23 6q-12 0 -12 -13v-290q-9 10 -17 17q-40 42 -92 84q-51 39 -126 84l-11 -16q72 -49 124 -95q50 -43 91 -94q38 -43 66 -92q23 -39 37 -71h-201q-69 1 -94 4zM324 871h468v-218h-468v218z" />
</svg>
