<svg xmlns="http://www.w3.org/2000/svg" xmlns:xlink="http://www.w3.org/1999/xlink" version="1.1" baseProfile="full" viewBox="0 0 200 200" width="200" height="200">
<g fill="black">
<path d="M 122.2 112.6 L 122.2 63.0 L 78.7 63.0 L 78.7 101.0 L 77.84426231384278 112.6 Z M 69.4 45.4 L 67.6 41.7 L 65.4 38.0 L 62.8 34.5 L 60.0 31.0 L 56.8 27.5 L 53.3 24.1 L 49.5 20.7 L 45.4 17.2 L 46.3 15.6 L 51.4 17.6 L 56.3 19.9 L 60.9 22.6 L 65.1 25.6 L 69.0 28.8 L 72.5 32.3 L 75.8 36.1 L 78.7 40.1 L 81.3 44.4 L 83.5 48.8 L 83.3 53.4 L 80.0 56.6 L 75.4 56.3 L 72.3 53.0 L 71.0 49.2 Z M 21.2 63.0 L 21.2 59.0 L 116.56999998092651 59.0 L 119.0 54.5 L 121.8 49.6 L 124.7 44.8 L 127.6 40.1 L 130.4 35.5 L 135.8 26.3 L 138.4 21.7 L 140.9 17.2 L 142.8241379737854 13.512068939208984 L 142.8 13.5 L 143.0692307472229 13.042307662963868 L 143.3 12.6 L 143.32162952423096 12.613229751586914 L 143.8 11.8 L 153.6 18.9 L 155.1 22.1 L 151.2930233001709 22.1 L 150.5 23.2 L 147.4 27.6 L 144.1 31.9 L 140.7 36.2 L 137.3 40.4 L 133.7 44.6 L 130.0 48.8 L 126.1 52.9 L 122.0 56.8 L 119.45263156890869 59.0 L 156.7 59.0 L 166.7 49.0 L 178.7 59.0 L 178.7 63.0 L 134.2 63.0 L 134.2 112.6 L 163.8 112.6 L 173.8 102.6 L 185.8 112.6 L 185.8 116.6 L 134.2 116.6 L 134.2 181.2 L 122.2 187.2 L 122.2 116.6 L 77.14956521987915 116.6 L 75.6 124.7 L 72.1 135.5 L 67.5 145.5 L 61.5 154.7 L 54.4 163.1 L 46.1 170.6 L 36.7 177.1 L 26.1 182.7 L 14.5 187.4 L 13.7 185.7 L 24.3 179.4 L 33.7 172.7 L 41.8 165.6 L 48.8 158.0 L 54.5 150.0 L 59.2 141.3 L 62.7 132.2 L 65.1 122.4 L 65.825 116.6 L 14.1 116.6 L 14.1 112.6 L 66.325 112.6 L 66.4 112.0 L 66.7 101.0 L 66.7 63.0 Z " />
</g>
</svg>
