<?xml version="1.0" standalone="no"?>
<!DOCTYPE svg PUBLIC "-//W3C//DTD SVG 1.1//EN" "http://www.w3.org/Graphics/SVG/1.1/DTD/svg11.dtd" >
<svg xmlns="http://www.w3.org/2000/svg" xmlns:xlink="http://www.w3.org/1999/xlink" version="1.1" viewBox="-10 0 1010 1000">
   <path fill="currentColor"
d="M718 39q37 13 57 29q10 7 10 14t-43 7q-56 55 -102 93q-47 36 -94 64q-53 30 -102 53q-51 25 -110 43q-64 21 -135 36l-12 -15q88 -21 141 -43q58 -22 116 -56q58 -27 117 -70q59 -41 93 -80q40 -35 64 -75zM785 239q37 13 57 28q9 7 9 14q0 8 -43 8q-66 67 -123 116
q-52 41 -102 73q34 18 34 25q0 10 -32 25v332q0 31 5 46q3 13 3 23q0 29 -35 31q-19 0 -19 -14v-441q-47 26 -90 47q-62 31 -133 55q-77 25 -164 46l-12 -17q106 -24 171 -53q71 -28 141 -68q70 -34 141 -88q71 -50 114 -96q47 -42 78 -92z" />
</svg>
