<?xml version="1.0" standalone="no"?>
<!DOCTYPE svg PUBLIC "-//W3C//DTD SVG 1.1//EN" "http://www.w3.org/Graphics/SVG/1.1/DTD/svg11.dtd" >
<svg xmlns="http://www.w3.org/2000/svg" xmlns:xlink="http://www.w3.org/1999/xlink" version="1.1" viewBox="-10 0 1010 1000">
   <path fill="currentColor"
d="M375 250h15v52q0 38 -5 73q-5 33 -14 56q-6 20 -17 31q-10 13 -19 17q-8 6 -15 6q-28 0 -28 -21q0 -9 12 -23q29 -35 41 -61q13 -22 20 -53q8 -29 10 -77zM468 46q57 7 93 22q14 6 13 14q0 8 -13 12q-19 9 -42 12v765q0 21 2 30q2 17 2 28q0 31 -31 31q-24 0 -24 -14
q0 -21 2 -54q2 -34 2 -60v-707q0 -53 -4 -79zM582 231q21 22 38 47q19 21 30 43q13 21 17 37q4 15 4 28q0 17 -5 25q-7 10 -18 10q-7 0 -9 -5q-5 -5 -8 -26q-4 -25 -13 -52q-9 -24 -20 -47q-10 -23 -28 -49z" />
</svg>
