<svg xmlns="http://www.w3.org/2000/svg" xmlns:xlink="http://www.w3.org/1999/xlink" version="1.1" baseProfile="full" viewBox="0 0 200 200" width="200" height="200">
<g fill="black">
<path d="M 73.4 178.8 L 70.9 178.4 L 68.5 177.6 L 66.2 176.3 L 64.2 174.7 L 62.6 172.7 L 61.3 170.4 L 60.5 168.0 L 60.1 165.5 L 60.02837800979614 163.70945138931273 L 49.7 170.7 L 32.4 180.1 L 14.3 187.8 L 13.6 186.1 L 30.6 176.8 L 46.7 166.2 L 60.0 156.02941179275513 L 60.0 59.0 L 72.0 61.0 L 75.0 63.0 L 72.0 64.8 L 72.0 145.4027777671814 L 76.4 141.4 L 90.0 127.1 L 102.7 111.3 L 114.5 94.2 L 125.5 75.8 L 135.7 55.9 L 144.60617485046387 35.50198669433594 L 144.6 35.5 L 144.77857141494752 35.10714282989502 L 145.0 34.6 L 145.00764989852905 34.603170204162595 L 145.6 33.3 L 156.1 39.2 L 158.1 42.2 L 154.45344095230104 42.70297365188598 L 145.9 60.9 L 134.8 81.1 L 122.9 99.8 L 110.0 117.1 L 96.2 132.8 L 81.6 147.0 L 72.0 154.8038709640503 L 72.0 164.2 L 72.2 165.1 L 72.5 166.0 L 72.9 166.4 L 73.8 166.7 L 74.7 166.9 L 76.0 167.0 L 145.0 167.0 L 151.0 142.0 L 153.0 142.0 L 151.0 167.0 L 154.6 169.4 L 157.0 173.0 L 154.6 176.6 L 151.0 179.0 L 76.0 179.0 Z M 14.6 144.9 L 13.3 140.5 L 15.4 136.4 L 19.1 133.3 L 22.3 129.7 L 25.1 125.6 L 27.5 120.9 L 29.4 115.5 L 30.9 109.6 L 31.9 102.9 L 32.4 95.6 L 32.5 87.7 L 32.2 79.1 L 34.0 78.8 L 36.3 87.3 L 37.8 95.4 L 38.4 103.1 L 38.4 110.4 L 37.7 117.4 L 36.3 123.9 L 34.1 130.1 L 31.2 135.8 L 27.5 141.0 L 23.1 145.6 L 18.7 146.9 Z M 173.4 128.1 L 172.1 123.0 L 170.4 118.0 L 168.2 113.0 L 165.5 108.1 L 162.3 103.2 L 158.7 98.3 L 154.7 93.3 L 150.2 88.3 L 151.3 86.9 L 157.2 90.5 L 162.6 94.6 L 167.4 99.0 L 171.7 103.7 L 175.5 108.7 L 178.8 114.0 L 181.5 119.5 L 183.8 125.2 L 185.5 131.2 L 186.6 137.4 L 185.2 141.8 L 181.2 143.9 L 176.9 142.5 L 174.7 138.5 L 174.3 133.3 Z M 100.2 49.4 L 97.5 45.7 L 94.4 42.0 L 90.7 38.5 L 86.6 35.0 L 82.1 31.5 L 77.0 28.1 L 71.5 24.7 L 65.6 21.1 L 66.2 19.5 L 73.0 21.2 L 79.4 23.3 L 85.4 25.8 L 90.9 28.7 L 96.0 31.8 L 100.6 35.2 L 104.9 38.8 L 108.7 42.8 L 112.1 47.1 L 115.0 51.6 L 115.2 56.1 L 112.3 59.6 L 107.7 59.9 L 104.2 57.0 L 102.4 53.1 Z " />
</g>
</svg>
