<?xml version="1.0" standalone="no"?>
<!DOCTYPE svg PUBLIC "-//W3C//DTD SVG 1.1//EN" "http://www.w3.org/Graphics/SVG/1.1/DTD/svg11.dtd" >
<svg xmlns="http://www.w3.org/2000/svg" xmlns:xlink="http://www.w3.org/1999/xlink" version="1.1" viewBox="-10 0 1010 1000">
   <path fill="currentColor"
d="M831 261l40 -62l83 54q6 5 6 12q0 10 -11 13l-485 40q8 94 24 145q22 91 59 163q6 13 13 25q71 -70 118 -137q44 -53 83 -132q44 21 72 38q10 8 10 13q0 6 -16 11q-21 6 -38 5q-91 123 -160 192q-23 23 -47 42q28 39 64 70q63 55 134 97q51 25 63 25q11 0 16 -9
q13 -20 62 -187l16 8q-38 173 -39 191q0 21 12 31q15 15 15 28q0 21 -27 20q-23 0 -73 -22q-58 -22 -122 -72q-65 -43 -114 -97q-24 -22 -45 -51q-37 31 -73 55q-86 63 -194 114q-113 52 -215 76l-8 -14q139 -47 207 -80q80 -40 141 -84q56 -37 122 -98q-13 -21 -23 -43
q-34 -71 -57 -183q-17 -67 -22 -137l-298 24l-74 11l-27 -35l114 -9l283 -21q-3 -40 -3 -81q0 -114 -7 -171q90 20 90 35q0 10 -43 27q0 108 5 187zM597 62q71 26 112 53q38 21 55 43q14 14 13 29q0 31 -20 31q-10 0 -20 -4q-10 -5 -19 -20q-24 -39 -52 -63q-30 -25 -81 -53
z" />
</svg>
