<?xml version="1.0" standalone="no"?>
<!DOCTYPE svg PUBLIC "-//W3C//DTD SVG 1.1//EN" "http://www.w3.org/Graphics/SVG/1.1/DTD/svg11.dtd" >
<svg xmlns="http://www.w3.org/2000/svg" xmlns:xlink="http://www.w3.org/1999/xlink" version="1.1" viewBox="-10 0 1010 1000">
   <path fill="currentColor"
d="M261 253q43 12 114 12h109v-144q0 -57 -4 -79q54 7 95 26q10 4 10 10q0 9 -13 14q-21 6 -41 9v164h101l47 -55q37 28 70 55q8 5 8 13q0 15 -15 14h-211v230q15 -6 30 -11q80 -25 185 -69l4 18q-91 47 -161 74q-30 13 -58 24v309q0 33 -16 50q-15 16 -39 26q-21 11 -39 10
l-2 -13q-2 -14 -9 -20q-11 -12 -41 -20q-32 -11 -73 -14v-23q65 15 117 15q33 0 43 -6q13 -6 12 -29v-268l-39 13q-63 24 -133 40q-10 36 -16 36q-7 0 -46 -79q90 -12 162 -31q35 -8 72 -18v-244h-109q-69 1 -94 4z" />
</svg>
