<svg xmlns="http://www.w3.org/2000/svg" xmlns:xlink="http://www.w3.org/1999/xlink" version="1.1" baseProfile="full" viewBox="0 0 200 200" width="200" height="200">
<g fill="black">
<path d="M 148.9 175.8 L 135.7 170.3 L 123.2 163.6 L 111.4 155.5 L 100.95354852676391 146.5593433380127 L 93.8 152.7 L 81.4 161.3 L 68.1 168.6 L 53.7 174.7 L 38.4 179.4 L 22.2 182.8 L 21.7 181.1 L 37.3 175.8 L 51.7 169.7 L 65.0 162.8 L 77.2 154.9 L 88.4 146.1 L 94.63452053070068 140.17109327316285 L 89.9 135.3 L 80.3 123.3 L 71.5 110.0 L 63.7 95.3 L 65.2 94.4 L 75.0 107.6 L 84.9 119.6 L 95.1 130.3 L 100.05009450912476 134.69494380950928 L 107.7 125.7 L 115.8 114.0 L 122.9 101.3 L 129.0 87.6 L 129.00764989852905 87.6031702041626 L 129.6 86.3 L 140.1 92.2 L 142.1 95.2 L 138.3669578552246 95.71490240097046 L 133.0 106.6 L 124.7 119.9 L 115.5 132.0 L 107.17098035812378 140.80954008102418 L 116.8 147.9 L 128.2 154.7 L 140.1 160.2 L 152.5 164.5 L 165.3 167.6 L 178.7 169.4 L 189.1 170.6 L 177.2 182.5 L 162.7 179.8 Z M 139.7 78.5 L 131.2 71.8 L 121.9 65.2 L 111.8 58.7 L 106.48006801605224 55.547447776794435 L 99.9 60.6 L 88.4 68.4 L 76.6 75.4 L 64.5 81.6 L 52.0 86.9 L 39.3 91.4 L 26.2 94.8 L 25.7 93.1 L 37.9 87.8 L 49.8 82.1 L 61.4 75.8 L 72.7 68.9 L 83.7 61.4 L 94.3 53.2 L 97.55948581695557 50.41519660949707 L 89.5 46.0 L 77.2 39.7 L 64.2 33.5 L 50.6 27.1 L 51.2 25.5 L 65.6 29.9 L 79.3 34.8 L 92.3 40.1 L 103.64605207443238 45.21502351760864 L 104.6 44.4 L 114.6 34.9 L 124.3 24.7 L 133.7 13.8 L 133.70927152633666 13.807947063446045 L 134.1 13.3 L 142.8 21.6 L 143.8 25.1 L 140.12766485214235 24.455730724334718 L 132.6 32.5 L 122.0 42.6 L 113.40383596420288 50.01320562362671 L 116.0 51.3 L 126.8 57.3 L 136.9 63.5 L 146.3 70.0 L 155.0 76.6 L 163.0 83.6 L 164.7 87.8 L 163.1 92.0 L 158.9 93.8 L 154.6 92.2 L 147.5 85.3 Z " />
</g>
</svg>
