<svg xmlns="http://www.w3.org/2000/svg" xmlns:xlink="http://www.w3.org/1999/xlink" version="1.1" baseProfile="full" viewBox="0 0 200 200" width="200" height="200">
<g fill="black">
<path d="M 39.0 26.0 L 161.0 26.0 L 167.0 21.0 L 178.0 30.0 L 173.0 34.0 L 173.0 127.0 L 161.0 133.0 L 161.0 121.0 L 106.0 121.0 L 106.0 183.0 L 94.0 189.0 L 94.0 121.0 L 39.0 121.0 L 39.0 133.0 L 27.0 139.0 L 27.0 20.0 Z M 39.0 75.0 L 39.0 117.0 L 94.0 117.0 L 94.0 75.0 Z M 106.0 75.0 L 106.0 117.0 L 161.0 117.0 L 161.0 75.0 Z M 39.0 30.0 L 39.0 71.0 L 94.0 71.0 L 94.0 30.0 Z M 106.0 30.0 L 106.0 71.0 L 161.0 71.0 L 161.0 30.0 Z " />
</g>
</svg>
