<svg xmlns="http://www.w3.org/2000/svg" xmlns:xlink="http://www.w3.org/1999/xlink" version="1.1" baseProfile="full" viewBox="0 0 200 200" width="200" height="200">
<g fill="black">
<path d="M 106.0 17.0 L 109.0 19.0 L 106.0 20.8 L 106.0 59.0 L 160.0 59.0 L 166.0 54.0 L 177.0 63.0 L 172.0 67.0 L 172.0 174.0 L 160.0 180.0 L 160.0 168.0 L 40.0 168.0 L 40.0 180.0 L 28.0 186.0 L 28.0 53.0 L 40.0 59.0 L 94.0 59.0 L 94.0 15.0 Z M 40.0 164.0 L 160.0 164.0 L 160.0 117.0 L 40.0 117.0 Z M 40.0 63.0 L 40.0 113.0 L 94.0 113.0 L 94.0 63.0 Z M 106.0 63.0 L 106.0 113.0 L 160.0 113.0 L 160.0 63.0 Z " />
</g>
</svg>
