<?xml version="1.0" standalone="no"?>
<!DOCTYPE svg PUBLIC "-//W3C//DTD SVG 1.1//EN" "http://www.w3.org/Graphics/SVG/1.1/DTD/svg11.dtd" >
<svg xmlns="http://www.w3.org/2000/svg" xmlns:xlink="http://www.w3.org/1999/xlink" version="1.1" viewBox="-10 0 1010 1000">
   <path fill="currentColor"
d="M457 31q45 20 75 41q7 4 7 10q0 5 -11 9q-19 5 -32 6q-25 33 -55 65q-31 34 -67 62q-32 27 -77 57q-30 20 -63 39q83 0 164 -5q75 -5 141 -11q38 -32 65 -61q37 -43 52 -79q45 20 75 40q7 4 7 10t-10 10q-19 5 -33 7q-43 43 -93 84q-55 43 -117 79q-55 36 -131 74
q-60 30 -125 59q27 1 60 1q124 0 246 -8q130 -8 228 -18q-9 -11 -18 -20q-31 -35 -85 -79l11 -13q51 30 89 61q39 27 61 49q21 20 32 34q9 13 13 25q5 11 5 23q-1 31 -24 31q-8 0 -14 -5q-8 -7 -33 -50q-10 -17 -21 -32q-81 14 -223 28q-3 0 -6 1v316q0 33 -14 50
q-12 16 -34 26q-19 11 -34 10l-1 -12q-3 -15 -11 -21q-13 -12 -44 -20q-36 -11 -80 -14v-23q71 15 128 15q26 0 34 -6q9 -6 9 -29v-287q-128 15 -261 18q-7 27 -12 28q-13 0 -47 -82q6 1 10 1q102 -50 173 -95q73 -45 134 -94l8 -6q-40 7 -80 12q-82 15 -175 25
q-13 31 -19 32q-3 0 -7 -7q-20 -32 -36 -71h10q56 -40 94 -75q40 -37 75 -76q35 -41 58 -75q20 -36 29 -64zM300 632q44 17 76 32q6 5 6 11q0 9 -16 12q-19 5 -27 5q-34 41 -77 78q-41 37 -88 65q-48 29 -116 59l-16 -8q62 -36 105 -67q33 -27 67 -62q33 -34 56 -63
q19 -28 30 -62zM664 640q66 35 116 71q51 33 80 58q27 22 42 38q11 17 17 29q6 13 6 27q-1 26 -19 27q-12 0 -20 -6q-10 -7 -44 -55q-34 -49 -75 -87q-42 -40 -115 -89z" />
</svg>
