<?xml version="1.0" standalone="no"?>
<!DOCTYPE svg PUBLIC "-//W3C//DTD SVG 1.1//EN" "http://www.w3.org/Graphics/SVG/1.1/DTD/svg11.dtd" >
<svg xmlns="http://www.w3.org/2000/svg" xmlns:xlink="http://www.w3.org/1999/xlink" version="1.1" viewBox="-10 0 1010 1000">
   <path fill="currentColor"
d="M242 125v144h445v-144h-445zM242 296v153h445v-153h-445zM242 476v387q26 -6 49 -11q42 -9 91 -26q49 -16 114 -41l4 19q-52 31 -91 48q-42 21 -81 35q-36 17 -75 27q-10 35 -15 35q-8 0 -47 -78q4 -1 8 -1v-749q0 -38 -8 -67l59 43h429l31 -43q36 22 52 42q7 7 7 14
q0 9 -35 30v199q0 73 2 96q2 28 2 46q0 14 -10 21q-14 5 -21 5q-21 0 -20 -11v-20h-445zM816 574q-38 26 -85 51q-41 23 -85 41q-37 16 -72 30q21 24 44 43q39 35 106 75q63 37 126 57q56 21 114 32v11q-59 0 -70 35q-86 -30 -140 -66q-74 -39 -128 -90q-64 -53 -107 -116
q-46 -64 -82 -146l23 -7q40 79 75 127q13 17 26 30q43 -20 74 -38q36 -21 67 -45q30 -21 52 -45q25 -22 38 -46q75 46 75 60q0 12 -20 11q-11 0 -31 -4z" />
</svg>
