<?xml version="1.0" standalone="no"?>
<!DOCTYPE svg PUBLIC "-//W3C//DTD SVG 1.1//EN" "http://www.w3.org/Graphics/SVG/1.1/DTD/svg11.dtd" >
<svg xmlns="http://www.w3.org/2000/svg" xmlns:xlink="http://www.w3.org/1999/xlink" version="1.1" viewBox="-10 0 1010 1000">
   <path fill="currentColor"
d="M152 50q24 19 45 37q21 17 35 33q15 16 20 29q5 12 5 22q0 18 -5 28q-7 11 -18 11q-8 0 -12 -4q-5 -4 -9 -21q-5 -21 -17 -43q-12 -21 -24 -39q-13 -19 -36 -41zM242 285q26 22 45 43q5 6 5 11q0 12 -16 19t-30 9q-27 76 -66 157h77l28 -35q25 18 44 36q6 6 6 10
q-2 6 -11 12q-9 7 -20 11q-5 40 -16 76q-10 30 -24 61q-15 31 -33 54q-16 21 -36 40h15q0 8 14 17q39 23 88 34q48 13 110 21q66 7 212 6q151 0 330 -16v16q-35 5 -47 47q-102 3 -232 3q-125 0 -199 -6q-66 -7 -120 -20q-60 -12 -105 -34q-51 -22 -74 -49q-33 55 -70 98
q0 39 -8 40q-14 0 -59 -64q29 -14 57 -39q31 -24 57 -54h3q21 -23 36 -47t26 -52q12 -27 21 -69q10 -38 11 -71h-94q-10 12 -27 12q-22 0 -23 -12q0 -3 2 -9q6 -9 11 -18q48 -98 77 -180h-47q-78 0 -94 4l-16 -39q38 9 110 9h47z" />
</svg>
