<?xml version="1.0" standalone="no"?>
<!DOCTYPE svg PUBLIC "-//W3C//DTD SVG 1.1//EN" "http://www.w3.org/Graphics/SVG/1.1/DTD/svg11.dtd" >
<svg xmlns="http://www.w3.org/2000/svg" xmlns:xlink="http://www.w3.org/1999/xlink" version="1.1" viewBox="-10 0 1010 1000">
   <path fill="currentColor"
d="M371 39q55 6 92 21q13 6 13 14q0 9 -13 12q-18 9 -42 11v149h141v-129q0 -53 -4 -78q57 6 92 21q14 6 14 14q0 9 -14 12q-19 9 -41 11v149h234l47 -50q35 25 66 50q8 5 8 11q0 17 -11 17h-430v172h273l32 -43q35 21 51 41q7 8 7 13q0 10 -39 32v371q0 32 -14 49
q-11 16 -32 26q-18 11 -32 11l-2 -15q-2 -12 -9 -18q-11 -13 -41 -22q-32 -10 -73 -13v-22q65 16 117 15q26 0 34 -7q9 -6 9 -29v-363h-281v379q0 23 2 30q2 18 2 29q0 31 -31 32q-24 0 -24 -17q0 -21 2 -53q2 -34 2 -60v-340h-277v457q0 10 -12 15q-15 6 -23 5
q-12 0 -12 -12v-502q-11 5 -19 9q-40 17 -87 32l-11 -12q57 -27 97 -52q39 -24 72 -49q35 -28 57 -51q19 -21 26 -38h-151q-68 1 -94 4l-19 -43q42 12 113 11h239v-129q0 -53 -4 -78zM476 446v-172h-179q36 17 60 32q6 4 6 11q0 6 -10 8q-16 5 -29 7q-24 20 -53 39
q-30 20 -64 37q-16 9 -34 17l37 21h266zM167 82q36 18 63 37q26 17 43 31q15 12 23 19q5 8 9 16q3 7 3 14q-1 31 -23 32q-6 0 -11 -4q-5 -5 -22 -32q-17 -28 -38 -50t-58 -52zM796 58q44 17 77 31q5 6 5 12q0 10 -16 12q-19 4 -27 4q-16 20 -36 39q-20 18 -42 33t-54 29
l-16 -8q26 -21 44 -40q15 -17 29 -37t23 -38q8 -16 13 -37zM656 292q64 14 131 34q65 21 99 38q33 16 45 27q13 13 21 23q5 9 5 19q0 21 -16 20q-8 0 -19 -6t-27 -19q-26 -20 -50 -33q-29 -16 -72 -33q-46 -23 -125 -54zM343 539q49 17 84 34q6 6 6 12q0 9 -19 12
q-22 4 -32 4q-17 47 -39 89q-21 41 -46 72q-24 32 -59 66l-16 -11q29 -39 49 -75q16 -30 32 -67t26 -69q9 -31 14 -67zM597 550q43 33 75 69q33 32 51 55q19 22 27 37q7 15 11 29q4 11 4 25q-1 31 -23 31q-7 0 -13 -5q-6 -8 -26 -54q-21 -48 -47 -86q-26 -39 -71 -89z" />
</svg>
