<svg xmlns="http://www.w3.org/2000/svg" xmlns:xlink="http://www.w3.org/1999/xlink" version="1.1" baseProfile="full" viewBox="0 0 200 200" width="200" height="200">
<g fill="black">
<path d="M 160.5 20.9 L 162.1 24.2 L 158.17058820724486 24.2 L 158.1 24.3 L 155.4 27.9 L 152.6 31.5 L 149.7 35.2 L 146.6 39.1 L 143.2 43.0 L 139.7 47.1 L 136.0 51.2 L 132.0 55.3 L 127.7 59.5 L 126.2 58.4 L 128.9 53.1 L 131.7 48.0 L 134.4 43.3 L 137.0 38.7 L 139.6 34.2 L 142.0 30.0 L 144.3 25.9 L 146.4 22.0 L 148.4 18.3 L 149.86141862869263 15.530996322631836 L 149.8 15.5 L 150.8 13.8 Z M 50.1 43.2 L 48.7 40.1 L 47.1 37.2 L 45.2 34.3 L 43.1 31.4 L 40.8 28.6 L 38.3 25.7 L 35.5 22.9 L 32.4 20.2 L 33.3 18.7 L 37.2 20.4 L 41.0 22.1 L 44.6 24.1 L 47.9 26.4 L 51.1 29.0 L 54.0 31.7 L 56.7 34.7 L 59.2 37.9 L 61.4 41.3 L 63.4 44.9 L 63.3 49.5 L 60.1 52.7 L 55.5 52.6 L 52.3 49.4 L 51.3 46.2 Z M 94.1 38.2 L 92.7 34.9 L 91.1 31.7 L 89.3 28.6 L 87.4 25.6 L 85.2 22.7 L 82.8 19.8 L 80.3 16.9 L 77.3 14.2 L 78.3 12.7 L 82.0 14.4 L 85.7 16.2 L 89.2 18.4 L 92.4 20.9 L 95.5 23.6 L 98.3 26.6 L 101.0 29.9 L 103.4 33.4 L 105.6 37.1 L 107.6 41.1 L 107.3 45.6 L 104.0 48.8 L 99.4 48.5 L 96.3 45.2 L 95.3 41.6 Z " />
</g>
</svg>
