<svg xmlns="http://www.w3.org/2000/svg" xmlns:xlink="http://www.w3.org/1999/xlink" version="1.1" baseProfile="full" viewBox="0 0 200 200" width="200" height="200">
<g fill="black">
<path d="M 72.0 174.0 L 92.0 174.0 L 93.2 173.9 L 94.1 173.7 L 95.0 173.4 L 95.4 173.0 L 95.7 172.1 L 95.9 171.2 L 96.0 170.0 L 96.0 38.0 L 18.0 38.0 L 18.0 34.0 L 160.0 34.0 L 170.0 24.0 L 182.0 34.0 L 182.0 38.0 L 108.0 38.0 L 108.0 170.0 L 107.8 172.5 L 107.4 175.0 L 106.6 177.4 L 105.3 179.7 L 103.7 181.7 L 101.7 183.3 L 99.4 184.6 L 97.0 185.4 L 94.5 185.8 L 92.0 186.0 L 92.0 180.0 L 72.0 177.0 Z " />
</g>
</svg>
