<svg xmlns="http://www.w3.org/2000/svg" xmlns:xlink="http://www.w3.org/1999/xlink" version="1.1" baseProfile="full" viewBox="0 0 200 200" width="200" height="200">
<g fill="black">
<path d="M 145.6 179.5 L 143.7 181.0 L 141.7 182.3 L 139.6 183.5 L 137.4 184.4 L 135.1 185.1 L 132.8 185.6 L 130.4 185.9 L 128.0 186.0 L 128.0 180.0 L 108.0 177.0 L 108.0 174.0 L 128.0 174.0 L 129.4 173.9 L 130.8 173.7 L 132.1 173.4 L 133.3 173.1 L 134.5 172.6 L 135.6 172.0 L 136.7 171.3 L 137.7 170.5 L 138.7 169.5 L 139.7 168.4 L 141.4 165.8 L 143.2 161.8 L 144.9 156.5 L 146.3 150.0 L 147.6 142.2 L 148.6 133.3 L 149.3 123.2 L 149.8 111.9 L 150.0 99.6 L 150.0 88.0 L 91.48051280975342 88.0 L 88.9 101.6 L 83.8 119.4 L 77.3 135.4 L 69.4 149.7 L 60.2 162.2 L 49.5 172.7 L 37.6 181.3 L 24.3 187.8 L 23.6 186.1 L 35.4 178.1 L 45.9 168.8 L 55.0 158.0 L 62.9 145.8 L 69.6 132.0 L 75.0 116.5 L 79.1 99.4 L 82.0 80.6 L 83.6 60.2 L 83.96396398544312 40.0 L 19.0 40.0 L 19.0 36.0 L 163.0 36.0 L 173.0 26.0 L 185.0 36.0 L 185.0 40.0 L 95.91228065490722 40.0 L 95.0 60.8 L 92.6 82.1 L 92.2394871711731 84.0 L 150.0 84.0 L 156.0 79.0 L 167.0 88.0 L 162.0 91.0 L 161.93741664886474 91.02607641220092 L 162.0 99.6 L 161.8 112.3 L 161.3 123.9 L 160.5 134.4 L 159.5 143.8 L 158.1 152.2 L 156.5 159.6 L 154.4 166.0 L 152.0 171.5 L 148.9 176.1 L 147.3 177.9 Z " />
</g>
</svg>
