<svg xmlns="http://www.w3.org/2000/svg" xmlns:xlink="http://www.w3.org/1999/xlink" version="1.1" baseProfile="full" viewBox="0 0 200 200" width="200" height="200">
<g fill="black">
<path d="M 20.0 42.0 L 20.0 38.0 L 158.0 38.0 L 168.0 28.0 L 180.0 38.0 L 180.0 42.0 L 140.0 42.0 L 140.0 183.0 L 128.0 189.0 L 128.0 42.0 L 73.0 42.0 L 73.0 95.0 L 72.1 107.3 L 70.1 118.9 L 67.0 129.7 L 62.7 139.8 L 57.3 148.9 L 50.8 157.2 L 43.2 164.6 L 34.6 171.0 L 25.0 176.4 L 14.3 180.8 L 13.6 179.1 L 23.1 173.1 L 31.4 166.7 L 38.7 159.8 L 44.9 152.4 L 50.1 144.5 L 54.2 135.9 L 57.4 126.7 L 59.6 116.8 L 60.8 106.3 L 61.0 95.0 L 61.0 42.0 Z " />
</g>
</svg>
