<svg xmlns="http://www.w3.org/2000/svg" xmlns:xlink="http://www.w3.org/1999/xlink" version="1.1" baseProfile="full" viewBox="0 0 200 200" width="200" height="200">
<g fill="black">
<path d="M 99.4 183.8 L 96.9 183.4 L 94.5 182.6 L 92.2 181.3 L 90.2 179.7 L 88.6 177.7 L 87.3 175.4 L 86.5 173.0 L 86.1 170.5 L 86.0 168.0 L 86.0 102.0 L 18.0 102.0 L 18.0 98.0 L 86.0 98.0 L 86.0 41.926760578155516 L 72.7 43.8 L 57.7 45.7 L 41.8 47.4 L 25.1 48.8 L 24.8 47.1 L 41.2 43.7 L 56.8 40.4 L 71.6 37.4 L 85.5 34.3 L 98.6 31.4 L 110.9 28.4 L 122.2 25.4 L 132.8 22.5 L 142.4 19.5 L 150.21473836898804 16.835884666442873 L 150.2 16.8 L 150.2342978477478 16.82921667098999 L 151.2 16.5 L 151.69169960021972 18.070707035064697 L 161.0 26.0 L 161.3 29.1 L 157.1583282470703 27.239248943328857 L 154.8 28.0 L 145.5 30.4 L 135.4 32.9 L 124.6 35.2 L 112.8 37.5 L 100.3 39.7 L 98.0 40.06044778823853 L 98.0 98.0 L 156.0 98.0 L 166.0 88.0 L 178.0 98.0 L 178.0 102.0 L 98.0 102.0 L 98.0 169.2 L 98.2 170.1 L 98.5 171.0 L 98.9 171.4 L 99.8 171.7 L 100.7 171.9 L 102.0 172.0 L 166.0 172.0 L 172.0 147.0 L 174.0 147.0 L 172.0 172.0 L 175.6 174.4 L 178.0 178.0 L 175.6 181.6 L 172.0 184.0 L 102.0 184.0 Z " />
</g>
</svg>
