<svg xmlns="http://www.w3.org/2000/svg" xmlns:xlink="http://www.w3.org/1999/xlink" version="1.1" baseProfile="full" viewBox="0 0 200 200" width="200" height="200">
<g fill="black">
<path d="M 157.2 168.7 L 153.2 163.1 L 149.0 157.5 L 147.3227952003479 155.32725744247438 L 139.9 157.0 L 126.1 159.9 L 112.7 162.5 L 99.8 165.0 L 87.3 167.4 L 75.3 169.6 L 63.8 171.8 L 52.7 173.8 L 42.0 175.8 L 35.86643705368042 176.95383853912352 L 34.3 180.4 L 31.9 177.7 L 28.0 166.2 L 30.0 165.9 L 40.3 164.6 L 51.0 163.2 L 57.06702127456665 162.4416223526001 L 61.5 156.1 L 68.5 146.1 L 75.3 136.1 L 81.9 126.2 L 88.1 116.3 L 93.9 106.5 L 99.5 96.7 L 104.7 86.8 L 109.6 77.0 L 114.1 67.3 L 114.12332611083984 67.31101512908936 L 114.7 66.1 L 124.9 72.4 L 126.8 75.5 L 123.06898708343506 75.88596687316894 L 119.7 82.3 L 114.1 92.0 L 108.1 101.8 L 101.8 111.4 L 95.1 121.0 L 88.1 130.6 L 80.6 140.0 L 72.8 149.4 L 64.4 158.5 L 61.03037977218628 161.9462025642395 L 62.2 161.8 L 73.9 160.4 L 86.1 159.0 L 98.7 157.5 L 111.7 156.0 L 125.3 154.6 L 139.3 153.2 L 145.3277174949646 152.7427248954773 L 144.6 151.8 L 139.9 146.1 L 135.0 140.4 L 129.8 134.5 L 124.5 128.5 L 119.1 122.3 L 120.3 120.9 L 127.1 125.7 L 133.5 130.6 L 139.6 135.7 L 145.4 140.9 L 150.9 146.1 L 156.1 151.5 L 161.0 156.8 L 165.7 162.2 L 170.1 167.6 L 174.3 173.1 L 175.1 177.6 L 172.6 181.4 L 168.1 182.3 L 164.3 179.8 L 160.9 174.3 Z M 94.3 30.9 L 96.4 33.8 L 92.67935037612915 34.58329467773437 L 89.9 40.9 L 84.9 50.6 L 79.2 60.0 L 72.8 69.2 L 65.7 78.1 L 57.9 86.7 L 49.4 95.0 L 40.2 102.9 L 30.2 110.5 L 19.5 117.7 L 18.4 116.2 L 27.8 107.6 L 36.6 99.0 L 44.7 90.3 L 52.2 81.6 L 59.0 72.8 L 65.2 63.9 L 70.6 54.8 L 75.4 45.6 L 79.5 36.3 L 82.65906648635864 27.815650081634523 L 82.6 27.8 L 83.5 25.4 Z " />
</g>
</svg>
