<svg xmlns="http://www.w3.org/2000/svg" xmlns:xlink="http://www.w3.org/1999/xlink" version="1.1" baseProfile="full" viewBox="0 0 200 200" width="200" height="200">
<g fill="black">
<path d="M 72.7 16.1 L 75.2 18.6 L 71.68929195404053 19.90026226043701 L 70.2 25.5 L 67.2 34.7 L 63.6 43.8 L 61.61797752380371 48.0 L 159.0 48.0 L 169.0 38.0 L 181.0 48.0 L 181.0 52.0 L 98.0 52.0 L 98.0 89.0 L 142.0 89.0 L 152.0 79.0 L 164.0 89.0 L 164.0 93.0 L 98.0 93.0 L 98.0 134.0 L 150.0 134.0 L 160.0 124.0 L 172.0 134.0 L 172.0 138.0 L 98.0 138.0 L 98.0 182.0 L 86.0 188.0 L 86.0 52.0 L 59.7303370475769 52.0 L 59.4 52.7 L 54.6 61.4 L 49.3 70.0 L 43.3 78.3 L 36.8 86.3 L 29.5 94.1 L 21.6 101.6 L 20.3 100.3 L 26.6 91.7 L 32.5 83.1 L 37.9 74.6 L 42.8 66.0 L 47.2 57.5 L 51.0 48.8 L 51.0 48.0 L 51.3069766998291 48.0 L 54.3 40.2 L 57.0 31.5 L 59.2 22.7 L 60.70880651473999 14.800954055786132 L 60.7 14.8 L 61.2 11.9 Z " />
</g>
</svg>
