<svg xmlns="http://www.w3.org/2000/svg" xmlns:xlink="http://www.w3.org/1999/xlink" version="1.1" baseProfile="full" viewBox="0 0 200 200" width="200" height="200">
<g fill="black">
<path d="M 159.4 164.8 L 156.3 158.0 L 153.44983711242676 152.4625407218933 L 144.9 154.6 L 130.1 158.0 L 115.6 161.1 L 101.5 164.1 L 87.9 166.8 L 74.7 169.5 L 61.8 172.0 L 49.4 174.3 L 37.4 176.6 L 29.855603408813476 177.97767238616944 L 28.3 181.4 L 25.9 178.7 L 22.0 167.2 L 24.0 166.9 L 35.7 165.4 L 47.7 163.8 L 53.88495740890503 162.95884580612181 L 57.2 155.5 L 61.1 146.6 L 65.0 138.0 L 68.8 129.5 L 72.4 121.1 L 75.8 112.9 L 78.9 104.7 L 81.9 96.7 L 84.7 88.8 L 85.94482755661011 85.0 L 18.0 85.0 L 18.0 81.0 L 162.0 81.0 L 172.0 71.0 L 184.0 81.0 L 184.0 85.0 L 98.6 85.0 L 95.4 92.8 L 91.9 100.7 L 88.2 108.7 L 84.2 116.7 L 80.0 124.8 L 75.6 132.9 L 70.9 141.0 L 65.9 149.2 L 60.5 157.3 L 56.72451038360596 162.57266654968262 L 60.2 162.1 L 73.1 160.3 L 86.5 158.5 L 100.3 156.6 L 114.5 154.6 L 129.1 152.7 L 144.2 150.8 L 152.088054561615 149.9404043197632 L 148.9 144.3 L 144.5 137.3 L 139.7 130.3 L 134.5 123.1 L 128.9 115.8 L 123.0 108.3 L 124.3 107.0 L 131.7 113.2 L 138.5 119.6 L 144.8 126.2 L 150.6 132.8 L 155.9 139.5 L 160.8 146.3 L 165.2 153.2 L 169.1 160.1 L 172.6 167.1 L 175.6 174.1 L 175.3 178.7 L 171.9 181.8 L 167.4 181.5 L 164.3 178.1 L 162.1 171.5 Z M 166.0 30.0 L 166.0 34.0 L 32.0 34.0 L 32.0 30.0 L 144.0 30.0 L 154.0 20.0 Z " />
</g>
</svg>
