<svg xmlns="http://www.w3.org/2000/svg" xmlns:xlink="http://www.w3.org/1999/xlink" version="1.1" baseProfile="full" viewBox="0 0 200 200" width="200" height="200">
<g fill="black">
<path d="M 123.6 172.6 L 118.9 167.6 L 113.3 162.5 L 106.7 157.4 L 99.3 152.3 L 90.9 147.2 L 81.6 141.9 L 71.5 136.6 L 60.6 131.1 L 61.2 129.5 L 73.0 133.1 L 83.9 137.1 L 93.9 141.3 L 103.1 145.7 L 111.4 150.3 L 118.9 155.1 L 125.5 160.1 L 131.4 165.3 L 136.4 170.7 L 140.6 176.3 L 141.2 180.9 L 138.5 184.5 L 133.9 185.1 L 130.3 182.4 L 127.4 177.6 Z M 115.2 112.6 L 112.9 110.0 L 110.0 107.4 L 106.5 104.8 L 102.4 102.1 L 97.8 99.5 L 92.6 96.8 L 86.9 94.0 L 80.7 91.1 L 81.2 89.4 L 88.0 90.4 L 94.4 91.8 L 100.3 93.5 L 105.7 95.4 L 110.6 97.5 L 115.1 99.7 L 119.2 102.2 L 122.8 105.0 L 125.9 108.0 L 128.6 111.3 L 129.2 115.9 L 126.5 119.5 L 121.9 120.1 L 118.3 117.4 L 117.0 115.1 Z M 158.0 85.2 L 149.3 79.2 L 140.9 72.7 L 132.8 65.7 L 125.0 58.0 L 117.6 49.8 L 110.5 40.9 L 103.9 31.4 L 101.80361757278442 27.89457368850708 L 99.2 31.8 L 91.4 42.4 L 83.1 52.3 L 74.3 61.6 L 65.0 70.2 L 55.2 78.2 L 45.0 85.4 L 34.2 92.0 L 23.0 97.7 L 11.3 102.6 L 10.6 101.0 L 21.2 94.4 L 31.4 87.4 L 41.1 80.1 L 50.4 72.3 L 59.2 64.0 L 67.5 55.2 L 75.4 45.8 L 82.8 36.0 L 89.8 25.5 L 95.8177433013916 15.408707332611083 L 95.8 15.4 L 96.8 13.7 L 106.6 20.7 L 108.2 23.9 L 104.46666669845581 23.9 L 103.70170316696166 25.04744529724121 L 107.2 28.9 L 115.0 37.1 L 122.8 44.8 L 130.8 51.9 L 138.9 58.6 L 147.1 64.6 L 155.5 70.1 L 164.0 75.0 L 172.7 79.3 L 181.6 83.1 L 187.7 85.8 L 176.3 95.3 L 167.0 90.5 Z " />
</g>
</svg>
