<svg xmlns="http://www.w3.org/2000/svg" xmlns:xlink="http://www.w3.org/1999/xlink" version="1.1" baseProfile="full" viewBox="0 0 200 200" width="200" height="200">
<g fill="black">
<path d="M 120.5 184.9 L 118.4 185.7 L 116.2 186.4 L 114.0 187.0 L 111.8 187.4 L 109.5 187.7 L 107.3 187.9 L 105.0 188.0 L 105.0 182.0 L 85.0 179.0 L 85.0 176.0 L 105.0 176.0 L 108.2 175.8 L 109.8 175.6 L 111.4 175.3 L 112.9 174.9 L 114.4 174.4 L 117.4 173.2 L 118.8 172.4 L 120.3 171.6 L 123.4 169.3 L 126.3 166.3 L 129.0 162.6 L 131.5 158.2 L 133.7 153.0 L 135.6 147.1 L 137.2 140.4 L 138.5 132.9 L 139.4 124.7 L 139.84666662216188 118.0 L 78.57949180603028 118.0 L 74.3 131.1 L 61.1 133.1 L 78.95201396942139 78.0 L 55.0 78.0 L 55.0 74.0 L 125.0 74.0 L 135.0 64.0 L 147.0 74.0 L 147.0 78.0 L 91.64664249420166 78.0 L 79.88620691299438 114.0 L 140.0 114.0 L 146.0 109.0 L 157.0 118.0 L 152.0 121.0 L 151.58594598770142 121.17252254486084 L 151.3 125.7 L 150.4 134.6 L 149.0 142.8 L 147.2 150.3 L 145.0 157.2 L 142.3 163.5 L 139.1 169.1 L 135.5 174.1 L 131.3 178.3 L 126.6 181.8 L 122.6 184.0 Z M 73.2 38.1 L 75.4 41.0 L 71.57838373184204 41.72478933334351 L 69.8 45.7 L 65.7 53.0 L 61.1 60.1 L 55.8 66.8 L 50.1 73.3 L 43.7 79.4 L 36.8 85.3 L 29.3 90.7 L 21.2 95.8 L 12.4 100.5 L 11.5 98.9 L 19.0 92.7 L 26.0 86.5 L 32.4 80.3 L 38.3 74.1 L 43.7 67.7 L 48.4 61.2 L 52.7 54.6 L 56.3 47.8 L 59.4 41.0 L 61.65960683822632 34.916443252563475 L 61.6 34.9 L 62.5 32.6 Z M 162.6 85.8 L 155.8 80.0 L 149.7 73.7 L 144.2 67.1 L 139.4 60.0 L 135.2 52.5 L 131.8 44.7 L 129.1 36.4 L 127.5581395149231 28.6 L 74.0 28.6 L 74.0 24.6 L 114.0 24.6 L 124.0 14.6 L 136.0 24.6 L 136.0 28.6 L 129.80909090042115 28.6 L 133.0 34.9 L 137.1 42.1 L 141.4 48.9 L 146.2 55.2 L 151.3 61.1 L 156.9 66.5 L 163.0 71.6 L 169.5 76.2 L 176.5 80.5 L 184.0 84.4 L 189.2 87.0 L 177.9 96.0 L 169.9 91.1 Z " />
</g>
</svg>
