<svg xmlns="http://www.w3.org/2000/svg" xmlns:xlink="http://www.w3.org/1999/xlink" version="1.1" baseProfile="full" viewBox="0 0 200 200" width="200" height="200">
<g fill="black">
<path d="M 76.0 44.0 L 79.0 46.0 L 76.0 47.8 L 76.0 98.0 L 104.0 98.0 L 114.0 88.0 L 126.0 98.0 L 126.0 102.0 L 76.0 102.0 L 76.0 180.0 L 64.0 186.0 L 64.0 102.0 L 22.0 102.0 L 22.0 98.0 L 64.0 98.0 L 64.0 42.0 Z M 157.9 175.5 L 150.4 166.7 L 144.4 155.1 L 139.7 141.0 L 136.0 124.2 L 133.5 104.8 L 132.0 82.5 L 131.5 57.5 L 131.95863313674926 32.0 L 22.0 32.0 L 22.0 28.0 L 132.0 28.0 L 138.0 23.0 L 149.0 32.0 L 144.0 35.0 L 143.8286240577698 35.07140665054321 L 143.5 57.5 L 143.9 82.0 L 145.4 103.6 L 147.9 122.2 L 151.2 137.9 L 155.5 150.5 L 160.5 160.1 L 166.0 166.6 L 171.8 170.4 L 172.55699892044066 170.58633813858032 L 178.0 147.0 L 180.0 147.0 L 178.0810685157776 171.94610919952393 L 178.3 172.0 L 182.4 174.0 L 183.9 178.3 L 181.9 182.4 L 177.6 183.9 L 167.1 181.4 Z " />
</g>
</svg>
