<svg xmlns="http://www.w3.org/2000/svg" xmlns:xlink="http://www.w3.org/1999/xlink" version="1.1" baseProfile="full" viewBox="0 0 200 200" width="200" height="200">
<g fill="black">
<path d="M 152.6262420654297 18.591607189178468 L 161.2 26.0 L 161.4 29.1 L 157.45094194412232 27.424642086029053 L 156.2 27.9 L 144.8 31.7 L 133.1 35.3 L 120.9 38.6 L 108.3 41.6 L 106.0 42.0916030883789 L 106.0 93.0 L 164.0 93.0 L 174.0 83.0 L 186.0 93.0 L 186.0 97.0 L 106.0 97.0 L 106.0 182.0 L 94.0 188.0 L 94.0 97.0 L 14.0 97.0 L 14.0 93.0 L 94.0 93.0 L 94.0 44.63111114501953 L 81.7 47.0 L 67.7 49.2 L 53.3 51.2 L 38.4 52.7 L 23.1 53.8 L 22.8 52.1 L 37.8 49.0 L 52.4 45.9 L 66.5 42.8 L 80.1 39.5 L 93.3 36.2 L 105.9 32.6 L 118.1 28.9 L 129.9 25.0 L 141.1 21.0 L 151.9 16.7 Z " />
</g>
</svg>
