<svg xmlns="http://www.w3.org/2000/svg" xmlns:xlink="http://www.w3.org/1999/xlink" version="1.1" baseProfile="full" viewBox="0 0 200 200" width="200" height="200">
<g fill="black">
<path d="M 150.7 178.0 L 139.0 171.8 L 128.2 164.7 L 118.3 156.5 L 116.15782604217529 154.33428573608398 L 108.7 160.1 L 95.5 168.2 L 81.1 175.1 L 65.4 180.9 L 48.4 185.5 L 30.1 188.8 L 29.8 187.1 L 47.4 181.8 L 63.6 175.9 L 78.3 169.2 L 91.7 161.6 L 103.7 153.3 L 109.85272569656372 147.95989847183228 L 109.2 147.3 L 101.1 137.2 L 93.8 126.2 L 87.6 114.2 L 83.2061538696289 103.0 L 78.25333337783813 103.0 L 70.6 117.0 L 61.4 131.4 L 50.9 145.0 L 39.3 158.0 L 26.5 170.2 L 12.5 181.6 L 11.4 180.3 L 23.9 167.5 L 35.3 154.4 L 45.7 141.0 L 55.0 127.2 L 63.3 112.9 L 70.4 98.1 L 76.4 82.9 L 79.21645565032959 74.0 L 16.0 74.0 L 16.0 70.0 L 80.4822784423828 70.0 L 81.4 67.1 L 85.2 50.8 L 87.15368719100952 39.147651481628415 L 81.5 39.8 L 68.4 41.1 L 55.1 42.0 L 41.6 42.5 L 28.0 42.6 L 27.8 40.8 L 41.3 38.7 L 54.5 36.7 L 67.6 34.6 L 80.4 32.3 L 93.1 29.9 L 105.6 27.3 L 118.0 24.5 L 130.1 21.4 L 142.1 18.2 L 153.9 14.7 L 154.30897436141967 16.182532024383544 L 164.1 24.4 L 164.4 27.4 L 160.1328782081604 25.47679023742676 L 157.1 26.3 L 144.9 29.2 L 132.5 31.9 L 120.0 34.3 L 107.3 36.4 L 99.53960218429566 37.55193405151367 L 96.3 53.3 L 91.75443782806397 70.0 L 164.0 70.0 L 174.0 60.0 L 186.0 70.0 L 186.0 74.0 L 90.3160493850708 74.0 L 85.8 86.4 L 80.14615383148194 99.0 L 143.0 99.0 L 149.0 94.0 L 160.0 103.0 L 155.0 106.0 L 152.7698546409607 106.92922725677491 L 148.1 116.7 L 140.3 129.2 L 131.1 140.6 L 123.1483359336853 148.4002038002014 L 124.3 149.4 L 134.0 156.2 L 144.4 162.2 L 155.4 167.2 L 167.1 171.3 L 179.5 174.5 L 188.1 176.6 L 176.4 187.4 L 163.1 183.2 Z M 85.71709403991699 103.0 L 91.3 112.2 L 98.8 122.9 L 106.7 132.7 L 115.2 141.5 L 116.02949657440186 142.2201124191284 L 123.5 134.1 L 131.4 123.2 L 138.0 111.4 L 141.5333333015442 103.0 Z " />
</g>
</svg>
