<svg xmlns="http://www.w3.org/2000/svg" xmlns:xlink="http://www.w3.org/1999/xlink" version="1.1" baseProfile="full" viewBox="0 0 200 200" width="200" height="200">
<g fill="black">
<path d="M 155.4 178.2 L 146.4 172.3 L 138.0 165.3 L 130.2 157.4 L 123.0 148.7 L 116.4 138.9 L 110.3 128.3 L 105.0 116.8 L 104.01802577972413 114.05047206878662 L 102.8 120.1 L 98.0 133.8 L 91.5 146.1 L 83.2 156.9 L 73.2 166.4 L 61.5 174.3 L 48.3 180.7 L 33.5 185.5 L 17.1 188.8 L 16.8 187.1 L 32.3 181.9 L 46.1 175.8 L 58.0 168.7 L 68.2 160.6 L 76.7 151.5 L 83.5 141.3 L 88.7 130.0 L 92.4 117.5 L 94.5 103.9 L 95.0 89.0 L 95.0 55.0 L 22.0 55.0 L 22.0 51.0 L 95.0 51.0 L 95.0 14.0 L 107.0 16.0 L 110.0 18.0 L 107.0 19.8 L 107.0 51.0 L 157.0 51.0 L 167.0 41.0 L 179.0 51.0 L 179.0 55.0 L 107.0 55.0 L 107.0 89.0 L 105.8 105.2 L 105.12503395080566 108.55233135223389 L 108.8 114.9 L 115.4 125.3 L 122.3 134.8 L 129.4 143.3 L 136.9 150.9 L 144.6 157.5 L 152.7 163.2 L 161.1 167.9 L 169.8 171.7 L 178.9 174.6 L 186.7 177.0 L 175.0 187.3 L 164.9 183.2 Z M 70.8 108.6 L 69.3 105.9 L 67.6 103.2 L 65.7 100.4 L 63.6 97.6 L 61.4 94.8 L 58.9 92.0 L 56.3 89.0 L 56.23545370101929 88.94190835952759 L 54.8 92.6 L 51.2 100.1 L 47.1 107.2 L 42.6 114.0 L 37.6 120.4 L 32.1 126.3 L 26.1 131.7 L 19.6 136.6 L 18.3 135.3 L 23.4 129.1 L 28.0 122.8 L 32.3 116.4 L 36.2 109.9 L 39.7 103.2 L 42.7 96.2 L 45.4 89.0 L 47.6 81.5 L 49.5 73.8 L 50.724569988250735 66.80245704650879 L 50.7 66.8 L 51.2 63.9 L 62.7 68.0 L 65.2 70.5 L 61.71362981796265 71.85581064224243 L 60.5 76.6 L 57.9 84.7 L 57.28997411727905 86.2545820236206 L 58.0 86.6 L 61.6 88.4 L 65.1 90.5 L 68.3 92.6 L 71.4 95.0 L 74.3 97.4 L 76.9 100.0 L 79.4 102.7 L 81.7 105.5 L 83.8 108.5 L 84.2 113.0 L 81.4 116.6 L 76.8 117.0 L 73.2 114.1 L 72.1 111.4 Z M 166.4 120.8 L 164.4 117.3 L 162.0 113.7 L 159.3 110.1 L 156.2 106.3 L 152.7 102.5 L 148.9 98.6 L 144.7 94.5 L 142.17921524047853 92.09379634857177 L 140.8 95.0 L 137.6 100.4 L 134.2 105.5 L 130.5 110.1 L 126.5 114.2 L 122.2 117.7 L 117.5 120.6 L 116.4 119.3 L 119.5 115.0 L 122.4 110.7 L 125.2 106.2 L 127.8 101.5 L 130.2 96.4 L 132.3 91.1 L 134.3 85.5 L 136.0 79.6 L 137.6 73.3 L 138.70581836700438 67.60078229904175 L 138.7 67.6 L 138.76315793991088 67.30526313781738 L 138.9 66.6 L 138.91363639831542 66.60303030014038 L 139.3 64.8 L 150.6 69.2 L 153.1 71.8 L 149.44077081680297 73.06409740447998 L 148.5 76.2 L 146.2 82.9 L 143.6 89.1 L 143.2875862121582 89.75830049514771 L 146.9 91.5 L 152.2 94.4 L 157.0 97.6 L 161.4 100.8 L 165.4 104.2 L 169.1 107.7 L 172.5 111.3 L 175.4 115.1 L 178.0 118.9 L 180.3 122.8 L 180.3 127.4 L 177.1 130.7 L 172.6 130.7 L 169.3 127.6 L 168.0 124.2 Z " />
</g>
</svg>
