<svg xmlns="http://www.w3.org/2000/svg" xmlns:xlink="http://www.w3.org/1999/xlink" version="1.1" baseProfile="full" viewBox="0 0 200 200" width="200" height="200">
<g fill="black">
<path d="M 158.1 139.0 L 149.8 130.7 L 142.0 122.0 L 134.7 112.9 L 127.9 103.4 L 121.6 93.5 L 115.9 83.2 L 110.9 72.5 L 106.90442476272582 62.0 L 106.0 62.0 L 106.0 140.0 L 124.0 140.0 L 134.0 130.0 L 146.0 140.0 L 146.0 144.0 L 106.0 144.0 L 106.0 183.0 L 94.0 189.0 L 94.0 144.0 L 54.0 144.0 L 54.0 140.0 L 94.0 140.0 L 94.0 71.88644065856934 L 92.6 74.9 L 86.2 86.9 L 79.2 98.4 L 71.6 109.2 L 63.5 119.3 L 54.8 128.9 L 45.6 137.7 L 35.8 145.8 L 25.4 153.2 L 14.4 159.7 L 13.5 158.2 L 23.1 150.1 L 32.3 141.8 L 41.0 133.0 L 49.2 123.8 L 56.9 114.1 L 64.0 103.8 L 70.6 93.1 L 76.7 81.8 L 82.3 70.0 L 85.58000001907348 62.0 L 18.0 62.0 L 18.0 58.0 L 94.0 58.0 L 94.0 14.0 L 106.0 16.0 L 109.0 18.0 L 106.0 19.8 L 106.0 58.0 L 160.0 58.0 L 170.0 48.0 L 182.0 58.0 L 182.0 62.0 L 109.14499998092651 62.0 L 114.5 70.5 L 121.0 80.2 L 127.7 89.5 L 134.6 98.4 L 141.9 107.0 L 149.6 115.1 L 157.6 122.8 L 165.9 130.1 L 174.7 137.1 L 183.8 143.6 L 187.0 145.9 L 176.1 154.3 L 166.8 146.8 Z " />
</g>
</svg>
