<svg xmlns="http://www.w3.org/2000/svg" xmlns:xlink="http://www.w3.org/1999/xlink" version="1.1" baseProfile="full" viewBox="0 0 200 200" width="200" height="200">
<g fill="black">
<path d="M 148.0 171.0 L 137.6 162.5 L 128.6 152.9 L 120.9 142.3 L 114.5 130.8 L 109.5 118.4 L 105.9 105.2 L 103.7 91.0 L 103.66194896697998 90.04872388839722 L 100.3 102.6 L 94.5 118.1 L 87.2 132.3 L 78.6 145.0 L 68.6 156.2 L 57.2 166.0 L 44.5 174.2 L 30.5 180.8 L 15.2 185.8 L 14.7 184.1 L 28.9 177.4 L 41.7 169.6 L 53.0 160.9 L 63.1 151.0 L 71.8 139.9 L 79.1 127.7 L 85.2 114.3 L 90.1 99.6 L 93.6 83.6 L 95.88814430236816 66.3891752243042 L 96.1 64.2 L 107.8 67.6 L 110.6 69.9 L 107.16444091796875 71.45572481155395 L 105.75521469116211 80.00503063201904 L 107.9 90.3 L 111.6 103.6 L 116.3 115.8 L 121.9 127.0 L 128.6 137.1 L 136.2 146.1 L 144.9 154.2 L 154.7 161.3 L 165.5 167.6 L 177.5 172.9 L 183.9 175.5 L 172.4 185.0 L 159.6 178.6 Z M 80.4 17.6 L 82.8 20.3 L 79.1705512046814 21.255118083953857 L 76.7 28.6 L 72.4 39.2 L 67.7 49.6 L 65.38888893127441 54.0 L 162.0 54.0 L 162.45348834991455 53.62209300994873 L 162.5 53.5 L 162.5649582862854 53.529201412200926 L 168.0 49.0 L 179.0 58.0 L 174.0 61.0 L 170.79359998703003 62.335999965667725 L 169.5 64.1 L 166.9 67.4 L 163.9 71.2 L 160.3 75.3 L 156.3 79.8 L 151.8 84.7 L 146.7 90.0 L 141.0 95.6 L 134.6 101.5 L 133.3 100.4 L 142.5 86.6 L 146.6 80.6 L 150.3 75.1 L 153.6 70.1 L 156.3 65.7 L 158.6 61.8 L 160.4 58.4 L 160.58571424484253 58.0 L 63.287878799438474 58.0 L 62.5 59.5 L 56.8 69.1 L 50.6 78.3 L 43.9 87.0 L 36.7 95.4 L 28.9 103.3 L 20.6 110.6 L 19.3 109.3 L 26.1 100.7 L 32.5 92.0 L 38.6 83.2 L 44.2 74.1 L 49.5 64.8 L 54.2 55.2 L 58.6 45.4 L 62.5 35.3 L 65.9 24.9 L 68.64281826019287 15.208708763122559 L 68.6 15.2 L 69.4 12.6 Z " />
</g>
</svg>
