<svg xmlns="http://www.w3.org/2000/svg" xmlns:xlink="http://www.w3.org/1999/xlink" version="1.1" baseProfile="full" viewBox="0 0 200 200" width="200" height="200">
<g fill="black">
<path d="M 145.6 173.5 L 132.0 165.9 L 119.8 157.0 L 108.9 146.7 L 106.74184484481812 144.0367446899414 L 101.3 150.3 L 89.1 161.1 L 75.6 170.4 L 60.5 178.1 L 44.1 184.3 L 26.2 188.8 L 25.7 187.1 L 42.7 180.7 L 58.2 173.3 L 72.0 164.8 L 84.3 155.3 L 95.1 144.5 L 100.99266681671142 136.94201431274413 L 99.5 135.1 L 91.4 122.2 L 84.8 108.1 L 79.8 92.7 L 79.21684675216675 89.93418731689454 L 77.1 96.5 L 69.8 113.7 L 61.2 129.7 L 51.3 144.4 L 40.0 157.9 L 27.4 170.0 L 13.5 180.7 L 12.4 179.2 L 24.8 167.2 L 36.0 154.4 L 45.9 140.6 L 54.6 125.9 L 62.1 110.2 L 68.3 93.5 L 73.3 75.6 L 76.04893617630005 62.0 L 18.0 62.0 L 18.0 58.0 L 76.85744676589965 58.0 L 77.1 56.8 L 79.6 36.8 L 80.9 15.7 L 80.93026485443116 15.701261043548584 L 81.0 13.4 L 92.9 16.2 L 95.8 18.4 L 92.53981847763062 20.125978469848633 L 90.9 38.0 L 87.71159420013427 58.0 L 160.0 58.0 L 170.0 48.0 L 182.0 58.0 L 182.0 62.0 L 86.82153844833374 62.0 L 83.0 78.2 L 81.09703760147094 84.10240888595581 L 83.7 91.4 L 90.2 105.7 L 97.7 118.6 L 105.99360675811768 129.85560913085936 L 112.1 119.6 L 118.5 105.3 L 123.4 89.7 L 126.73999996185303 73.66800003051758 L 127.2 71.0 L 138.7 75.0 L 141.3 77.5 L 137.73977899551392 78.88453035354614 L 134.3 92.8 L 128.4 109.3 L 120.9 124.4 L 112.62137870788574 137.0019013404846 L 115.6 140.2 L 126.1 149.0 L 137.7 156.5 L 150.4 162.7 L 164.3 167.7 L 179.4 171.5 L 188.3 173.5 L 176.5 184.4 L 160.4 179.6 Z M 139.2 39.1 L 137.8 36.7 L 136.1 34.3 L 134.1 31.8 L 131.6 29.3 L 128.8 26.8 L 125.7 24.2 L 122.2 21.6 L 118.3 19.1 L 119.0 17.5 L 123.5 18.9 L 127.8 20.3 L 131.9 21.9 L 135.6 23.7 L 139.1 25.7 L 142.2 28.0 L 145.1 30.4 L 147.7 33.1 L 150.0 35.9 L 151.9 39.1 L 151.9 43.6 L 148.7 46.9 L 144.2 46.9 L 140.9 43.7 L 140.2 41.4 Z " />
</g>
</svg>
