<svg xmlns="http://www.w3.org/2000/svg" xmlns:xlink="http://www.w3.org/1999/xlink" version="1.1" baseProfile="full" viewBox="0 0 200 200" width="200" height="200">
<g fill="black">
<path d="M 19.0 28.0 L 162.0 28.0 L 172.0 18.0 L 184.0 28.0 L 184.0 32.0 L 106.61351346969604 32.0 L 105.1 35.5 L 103.4 39.3 L 101.7 43.0 L 99.9 46.7 L 98.0 50.4 L 96.0 54.1 L 91.6 61.3 L 88.37714281082154 66.0 L 149.0 66.0 L 155.0 61.0 L 166.0 70.0 L 161.0 74.0 L 161.0 178.0 L 149.0 184.0 L 149.0 174.0 L 58.0 174.0 L 58.0 181.0 L 46.0 187.0 L 46.0 60.0 L 58.0 66.0 L 85.56829271316528 66.0 L 86.3 63.5 L 87.2 59.4 L 89.4 51.4 L 90.4 47.5 L 91.5 43.6 L 92.5 39.7 L 93.4 35.8 L 94.4 32.0 L 19.0 32.0 Z M 58.0 120.0 L 58.0 170.0 L 149.0 170.0 L 149.0 120.0 Z M 58.0 70.0 L 58.0 116.0 L 149.0 116.0 L 149.0 70.0 Z " />
</g>
</svg>
