<svg xmlns="http://www.w3.org/2000/svg" xmlns:xlink="http://www.w3.org/1999/xlink" version="1.1" baseProfile="full" viewBox="0 0 200 200" width="200" height="200">
<g fill="black">
<path d="M 32.0 23.0 L 35.0 25.0 L 32.0 26.8 L 32.0 168.0 L 164.0 168.0 L 174.0 158.0 L 186.0 168.0 L 186.0 172.0 L 32.0 172.0 L 32.0 184.0 L 20.0 190.0 L 20.0 21.0 Z M 136.4 138.7 L 127.6 128.5 L 120.2 117.0 L 114.1 104.3 L 109.4 90.4 L 105.9 75.3 L 103.88122301101684 59.726577854156496 L 103.7 61.2 L 100.2 78.4 L 95.3 94.2 L 89.0 108.5 L 81.5 121.1 L 72.6 132.2 L 62.4 141.5 L 50.9 149.1 L 38.3 154.9 L 37.6 153.3 L 48.9 145.9 L 58.9 137.5 L 67.6 127.9 L 75.1 117.0 L 81.4 104.8 L 86.5 91.2 L 90.4 76.2 L 93.1 59.7 L 94.6 41.7 L 95.0 22.2 L 95.0 19.8 L 107.0 22.2 L 110.0 24.2 L 106.80710659027099 26.11573600769043 L 106.46711301803589 33.01760540008545 L 107.2 41.4 L 109.6 58.3 L 113.0 73.8 L 117.3 87.9 L 122.6 100.5 L 129.0 111.7 L 136.3 121.6 L 144.5 130.1 L 153.8 137.4 L 164.1 143.4 L 169.1 146.1 L 157.8 155.1 L 146.5 147.5 Z " />
</g>
</svg>
