<svg xmlns="http://www.w3.org/2000/svg" xmlns:xlink="http://www.w3.org/1999/xlink" version="1.1" baseProfile="full" viewBox="0 0 200 200" width="200" height="200">
<g fill="black">
<path d="M 152.2 169.6 L 142.7 161.9 L 134.1 153.5 L 126.6 144.4 L 120.1 134.6 L 114.7 124.1 L 110.3 113.1 L 107.2 101.4 L 105.43902435302735 90.0 L 104.21612901687622 90.0 L 101.7 103.0 L 96.9 117.5 L 90.3 130.8 L 81.8 143.0 L 71.7 154.0 L 59.8 163.8 L 46.3 172.4 L 31.1 179.8 L 14.3 185.8 L 13.6 184.1 L 29.5 176.3 L 43.5 167.9 L 55.8 158.7 L 66.3 148.7 L 75.1 137.9 L 82.1 126.3 L 87.5 113.8 L 91.3 100.5 L 92.84195804595947 90.0 L 26.0 90.0 L 26.0 86.0 L 93.40789470672607 86.0 L 94.0 71.0 L 94.0 34.0 L 18.0 34.0 L 18.0 30.0 L 160.0 30.0 L 170.0 20.0 L 182.0 30.0 L 182.0 34.0 L 106.0 34.0 L 106.0 71.0 L 104.81818180084228 86.0 L 152.0 86.0 L 162.0 76.0 L 174.0 86.0 L 174.0 90.0 L 107.47478256225585 90.0 L 111.2 100.2 L 115.8 110.9 L 121.1 120.8 L 127.1 130.0 L 133.9 138.5 L 141.4 146.3 L 149.8 153.5 L 158.9 159.9 L 168.9 165.8 L 179.7 171.0 L 185.5 173.7 L 174.2 182.9 L 162.7 176.7 Z " />
</g>
</svg>
