<svg xmlns="http://www.w3.org/2000/svg" xmlns:xlink="http://www.w3.org/1999/xlink" version="1.1" baseProfile="full" viewBox="0 0 200 200" width="200" height="200">
<g fill="black">
<path d="M 151.7 170.8 L 142.7 164.0 L 134.6 156.5 L 127.3 148.6 L 120.9 140.1 L 115.5 131.1 L 111.0 121.6 L 107.6 111.6 L 105.5692307472229 102.0 L 104.1 102.0 L 101.7 112.8 L 96.9 125.4 L 90.3 137.0 L 81.9 147.7 L 71.9 157.4 L 60.2 166.0 L 46.9 173.7 L 31.9 180.3 L 15.2 185.8 L 14.7 184.1 L 30.3 176.8 L 44.2 169.0 L 56.4 160.7 L 66.8 151.7 L 75.5 142.2 L 82.4 132.1 L 87.7 121.3 L 91.4 109.9 L 92.77107439041137 102.0 L 18.0 102.0 L 18.0 98.0 L 93.46528921127319 98.0 L 93.5 97.8 L 94.0 85.0 L 94.0 54.0 L 28.0 54.0 L 28.0 50.0 L 94.0 50.0 L 94.0 14.0 L 106.0 16.0 L 109.0 18.0 L 106.0 19.8 L 106.0 50.0 L 150.0 50.0 L 160.0 40.0 L 172.0 50.0 L 172.0 54.0 L 106.0 54.0 L 106.0 85.0 L 104.81818180084228 98.0 L 160.0 98.0 L 170.0 88.0 L 182.0 98.0 L 182.0 102.0 L 107.70851068496704 102.0 L 111.5 110.1 L 116.3 119.0 L 121.7 127.3 L 127.6 135.1 L 134.2 142.3 L 141.5 149.0 L 149.5 155.2 L 158.2 161.0 L 167.6 166.2 L 177.7 171.0 L 183.5 173.7 L 172.2 182.9 L 161.5 177.2 Z " />
</g>
</svg>
