<svg xmlns="http://www.w3.org/2000/svg" xmlns:xlink="http://www.w3.org/1999/xlink" version="1.1" baseProfile="full" viewBox="0 0 200 200" width="200" height="200">
<g fill="black">
<path d="M 156.1 177.2 L 147.4 171.9 L 139.2 165.9 L 131.7 159.1 L 124.7 151.6 L 118.4 143.4 L 112.7 134.4 L 107.7 124.7 L 103.91238098144531 115.0 L 101.99328355789184 115.0 L 101.6 116.7 L 96.7 129.2 L 89.9 140.8 L 81.4 151.3 L 71.1 160.7 L 59.1 169.1 L 45.5 176.4 L 30.2 182.7 L 13.2 187.8 L 12.7 186.1 L 28.8 179.2 L 43.0 171.7 L 55.5 163.6 L 66.2 155.0 L 75.0 145.6 L 82.1 135.7 L 87.6 125.1 L 90.90707960128785 115.0 L 14.0 115.0 L 14.0 111.0 L 41.0 111.0 L 41.0 49.0 L 53.0 55.0 L 94.0 55.0 L 94.0 17.0 L 106.0 19.0 L 109.0 21.0 L 106.0 22.8 L 106.0 55.0 L 147.0 55.0 L 153.0 50.0 L 164.0 59.0 L 159.0 63.0 L 159.0 111.0 L 164.0 111.0 L 174.0 101.0 L 186.0 111.0 L 186.0 115.0 L 106.19456520080567 115.0 L 111.3 122.7 L 117.6 131.2 L 124.1 138.9 L 130.8 145.9 L 137.9 152.2 L 145.4 157.7 L 153.1 162.5 L 161.3 166.6 L 169.8 169.9 L 178.8 172.6 L 186.8 174.9 L 175.1 185.3 L 165.3 181.6 Z M 102.91865673065186 111.0 L 147.0 111.0 L 147.0 59.0 L 106.0 59.0 L 106.0 89.0 L 104.7 103.3 Z M 53.0 59.0 L 53.0 111.0 L 91.78999996185303 111.0 L 93.4 101.8 L 94.0 89.0 L 94.0 59.0 Z " />
</g>
</svg>
