<svg xmlns="http://www.w3.org/2000/svg" xmlns:xlink="http://www.w3.org/1999/xlink" version="1.1" baseProfile="full" viewBox="0 0 200 200" width="200" height="200">
<g fill="black">
<path d="M 121.5 184.7 L 119.4 185.5 L 117.3 186.2 L 115.1 186.9 L 113.0 187.4 L 110.7 187.8 L 108.5 188.0 L 106.2 188.2 L 104.0 188.3 L 104.0 182.3 L 84.0 179.3 L 84.0 176.3 L 104.0 176.3 L 105.6 176.2 L 107.3 176.1 L 108.9 175.9 L 110.5 175.6 L 113.7 174.8 L 115.2 174.3 L 116.8 173.6 L 119.8 172.2 L 123.0 170.2 L 125.9 167.9 L 128.5 165.4 L 130.9 162.6 L 133.0 159.4 L 134.9 156.0 L 136.6 152.2 L 138.0 148.1 L 139.1 143.6 L 139.475 141.6 L 65.7 141.6 L 61.3 150.4 L 47.9 150.4 L 65.20543479919434 115.6 L 18.0 115.6 L 18.0 111.6 L 160.0 111.6 L 170.0 101.6 L 182.0 111.6 L 182.0 115.6 L 78.7 115.6 L 67.7 137.6 L 140.0 137.6 L 146.0 132.6 L 157.0 141.6 L 152.0 144.6 L 151.11608829498292 144.96829652786255 L 150.9 146.2 L 149.5 151.5 L 147.8 156.6 L 145.7 161.3 L 143.2 165.7 L 140.4 169.8 L 137.2 173.6 L 133.7 177.0 L 129.8 180.0 L 125.6 182.6 L 123.6 183.7 Z M 160.1 92.1 L 152.9 87.1 L 146.0 81.8 L 139.3 76.2 L 133.0 70.3 L 127.1 64.2 L 121.4 57.7 L 116.3 50.9 L 112.05068492889404 44.3 L 91.32105264663696 44.3 L 89.3 47.3 L 81.9 56.5 L 73.5 65.2 L 64.1 73.5 L 53.6 81.4 L 42.2 88.8 L 29.6 95.8 L 16.1 102.2 L 15.3 100.6 L 27.7 92.5 L 39.2 84.4 L 49.6 76.2 L 59.1 67.8 L 67.4 59.3 L 74.8 50.5 L 79.18876399993897 44.3 L 19.6 44.3 L 19.6 40.3 L 81.85714282989503 40.3 L 86.4 32.5 L 90.6 23.3 L 93.9 13.8 L 93.91811828613281 13.805880451202393 L 94.4 12.3 L 105.3 17.5 L 107.6 20.3 L 103.79146070480347 21.23543071746826 L 101.1 27.9 L 95.7 37.8 L 94.01578950881958 40.3 L 158.3 40.3 L 168.3 30.3 L 180.3 40.3 L 180.3 44.3 L 115.05714282989501 44.3 L 119.4 48.1 L 125.7 53.6 L 132.0 58.9 L 138.5 64.0 L 145.2 68.9 L 152.0 73.5 L 159.0 77.9 L 166.2 82.0 L 173.7 85.9 L 181.3 89.6 L 186.7 92.3 L 175.4 101.4 L 167.6 96.9 Z M 140.0 85.6 L 140.0 89.6 L 60.0 89.6 L 60.0 85.6 L 118.0 85.6 L 128.0 75.6 Z " />
</g>
</svg>
