<svg xmlns="http://www.w3.org/2000/svg" xmlns:xlink="http://www.w3.org/1999/xlink" version="1.1" baseProfile="full" viewBox="0 0 200 200" width="200" height="200">
<g fill="black">
<path d="M 155.0 154.3 L 145.3 139.2 L 137.68393516540527 125.20769491195679 L 134.0 131.8 L 123.4 147.7 L 111.9 162.5 L 99.3 176.2 L 85.6 188.6 L 84.3 187.3 L 96.5 173.6 L 107.7 159.2 L 118.0 144.0 L 127.4 128.0 L 133.30372495651244 116.1222677230835 L 129.0 106.9 L 122.3 89.7 L 116.6 71.8 L 112.0 53.2 L 108.5 34.0 L 106.2 14.1 L 108.0 13.8 L 112.6 33.2 L 117.7 51.8 L 123.5 69.6 L 130.1 86.7 L 137.5 103.0 L 138.47028579711915 104.8459095954895 L 143.4 93.3 L 149.9 74.6 L 155.5 55.0 L 160.2 34.5 L 163.7275513648987 14.002066326141357 L 163.7 14.0 L 164.2 11.0 L 175.7 14.9 L 178.4 17.3 L 174.94347829818724 18.682608699798585 L 171.3 36.9 L 165.9 57.8 L 159.4 77.8 L 152.0 96.8 L 143.59586009979247 114.59700212478637 L 145.7 118.6 L 154.7 133.4 L 164.6 147.5 L 175.2 160.8 L 186.8 173.4 L 187.8 174.6 L 177.1 182.5 L 165.6 168.8 Z M 71.7 132.5 L 66.4 116.7 L 62.55867757797241 106.38908185958863 L 60.8 110.6 L 52.9 126.5 L 44.2 141.4 L 34.5 155.0 L 24.0 167.4 L 12.6 178.6 L 11.3 177.3 L 21.1 165.0 L 30.2 151.9 L 38.5 138.0 L 46.1 123.1 L 53.0 107.3 L 57.78203296661377 94.12981090545654 L 54.8 86.7 L 48.5 72.5 L 41.9 58.8 L 35.1 45.5 L 28.1 32.7 L 20.8 20.3 L 22.3 19.2 L 31.2 30.6 L 39.7 42.8 L 47.7 55.6 L 55.3 69.1 L 61.75638771057129 81.74375915527344 L 64.5 72.7 L 69.0 53.8 L 72.8 34.0 L 75.75123500823975 14.10296401977539 L 75.7 14.1 L 76.1 11.1 L 87.8 14.8 L 90.5 17.1 L 87.13389158248901 18.53371286392212 L 84.0 36.1 L 79.5 56.3 L 74.1 75.5 L 67.9 93.6 L 67.62048006057739 94.26927309036255 L 69.3 97.9 L 75.8 113.1 L 81.8 129.0 L 87.6 145.4 L 92.9 162.4 L 92.3 167.0 L 88.8 169.8 L 84.2 169.2 L 81.4 165.7 L 76.7 148.8 Z " />
</g>
</svg>
