<?xml version="1.0" encoding="UTF-8" standalone="no"?>
<svg
   xmlns:dc="http://purl.org/dc/elements/1.1/"
   xmlns:cc="http://creativecommons.org/ns#"
   xmlns:rdf="http://www.w3.org/1999/02/22-rdf-syntax-ns#"
   xmlns:svg="http://www.w3.org/2000/svg"
   xmlns="http://www.w3.org/2000/svg"
   xmlns:sodipodi="http://sodipodi.sourceforge.net/DTD/sodipodi-0.dtd"
   xmlns:inkscape="http://www.inkscape.org/namespaces/inkscape"
   version="1.1"
   viewBox="-10 0 1010 1000"
   id="svg12"
   sodipodi:docname="五 copy.svg"
   inkscape:version="1.0.1 (c497b03c, 2020-09-10)">
  <metadata
     id="metadata18">
    <rdf:RDF>
      <cc:Work
         rdf:about="">
        <dc:format>image/svg+xml</dc:format>
        <dc:type
           rdf:resource="http://purl.org/dc/dcmitype/StillImage" />
      </cc:Work>
    </rdf:RDF>
  </metadata>
  <defs
     id="defs16" />
  <sodipodi:namedview
     pagecolor="#ffffff"
     bordercolor="#666666"
     borderopacity="1"
     objecttolerance="10"
     gridtolerance="10"
     guidetolerance="10"
     inkscape:pageopacity="0"
     inkscape:pageshadow="2"
     inkscape:window-width="1149"
     inkscape:window-height="910"
     id="namedview14"
     showgrid="false"
     inkscape:zoom="0.66588482"
     inkscape:cx="504.31992"
     inkscape:cy="489.40362"
     inkscape:window-x="0"
     inkscape:window-y="31"
     inkscape:window-maximized="0"
     inkscape:current-layer="svg12" />
  <path
     id="path34"
     d="M 792 815 L 289 815 L 70 815 L 70 907 L 953 907 L 953 815 L 792 815 z "
     transform="translate(-10)" />
  <path
     id="path32"
     d="M 131 135 L 131 226 L 405 226 L 509 226 L 885 226 L 885 135 L 131 135 z "
     transform="translate(-10)" />
  <path
     d="m 811.59353,734.11114 -74,68 q -36,-44 -89.5,-99 -53.5,-55 -116.5,-114 -62,63 -128,116.5 -66,53.5 -134,96.5 -12,-14 -34.5,-36 -22.5,-22 -38.5,-34 71,-40 139,-91.5 68,-51.5 130,-111.5 -59,-53 -118.5,-104.5 -59.5,-51.5 -115.5,-95.5 l 66,-55 q 53,41 112.5,90 59.5,49 117.5,100 48,-53 89.5,-109 41.5,-56 75.5,-115 l 87,35 q -39,66 -85.5,128 -46.5,62 -98.5,120 65,57 121,111.5 56,54.5 95,99.5 z"
     id="path44" />
</svg>
