<?xml version="1.0" standalone="no"?>
<!DOCTYPE svg PUBLIC "-//W3C//DTD SVG 1.1//EN" "http://www.w3.org/Graphics/SVG/1.1/DTD/svg11.dtd" >
<svg xmlns="http://www.w3.org/2000/svg" xmlns:xlink="http://www.w3.org/1999/xlink" version="1.1" viewBox="-10 0 1010 1000">
   <path fill="currentColor"
d="M781 280l71 39q-22 63 -55.5 131.5t-73.5 135.5t-82 124q40 26 74 52.5t58 51.5l-66 89q-28 -31 -71 -65t-94.5 -68.5t-106.5 -66t-107 -55.5l59 -78q40 18 83 40t85 47q47 -62 88.5 -136.5t69.5 -141.5h-315q-44 86 -98 164.5t-117 139.5q-16 -13 -42.5 -28.5
t-46.5 -25.5q56 -51 104 -116t87.5 -137t70 -146t50.5 -143l104 24q-14 42 -30.5 85.5t-36.5 87.5h320z" />
</svg>
