<?xml version="1.0" standalone="no"?>
<!DOCTYPE svg PUBLIC "-//W3C//DTD SVG 1.1//EN" "http://www.w3.org/Graphics/SVG/1.1/DTD/svg11.dtd" >
<svg xmlns="http://www.w3.org/2000/svg" xmlns:xlink="http://www.w3.org/1999/xlink" version="1.1" viewBox="-10 0 1010 1000">
   <path fill="currentColor"
d="M433 767q0 34 30.5 51.5t78.5 17.5q56 0 76.5 -26.5t20.5 -74.5v-13v-14q-47 -14 -93 -14q-50 0 -81.5 20t-31.5 53zM733 115q-3 15 -4.5 31t-2.5 31q-1 19 -1.5 49t-1.5 65q44 -4 86 -10t80 -13v97q-39 6 -80.5 11t-85.5 8q2 75 5.5 142.5t6.5 124.5q62 25 110.5 60
t85.5 69l-54 84q-35 -33 -69 -60.5t-69 -49.5v2v2q0 46 -17 85t-56.5 62.5t-109.5 23.5q-102 0 -158.5 -40t-56.5 -112q0 -69 56.5 -114.5t156.5 -45.5q22 0 42 1.5t39 5.5q-2 -53 -4.5 -115t-4.5 -120q-21 1 -42.5 1.5t-42.5 0.5q-43 0 -85 -2t-86 -5v-94q86 9 171 9
q21 0 42.5 -0.5t42.5 -1.5q0 -38 -0.5 -68.5t-0.5 -49.5q0 -13 -1.5 -31.5t-3.5 -32.5h113zM242 124q-5 13 -11.5 38t-9.5 39q-7 30 -15 80t-15.5 108t-12.5 113t-5 95q0 27 1.5 53t5.5 54q11 -31 25.5 -65.5t26.5 -62.5l50 39q-13 38 -28 81.5t-27 82.5t-17 65
q-2 10 -3.5 23.5t-1.5 22.5q1 7 1 17.5t1 20.5l-88 6q-15 -53 -27 -134.5t-12 -183.5q0 -56 5 -116.5t12.5 -118.5t15 -106t11.5 -78q6 -40 8 -83zM819 137q0 23 15.5 38.5t38.5 15.5t39.5 -15.5t16.5 -38.5q0 -24 -16.5 -40t-39.5 -16t-38.5 16.5t-15.5 39.5zM768 137
q0 -44 30.5 -75t74.5 -31t75.5 31t31.5 75t-31.5 75t-75.5 31t-74.5 -31t-30.5 -75z" />
</svg>
