<?xml version="1.0" standalone="no"?>
<!DOCTYPE svg PUBLIC "-//W3C//DTD SVG 1.1//EN" "http://www.w3.org/Graphics/SVG/1.1/DTD/svg11.dtd" >
<svg xmlns="http://www.w3.org/2000/svg" xmlns:xlink="http://www.w3.org/1999/xlink" version="1.1" viewBox="-10 0 1010 1000">
   <path fill="currentColor"
d="M354 366l81 -41q37 46 75.5 99t72 102.5t54.5 88.5l-85 49q-20 -39 -53.5 -91t-71.5 -106.5t-73 -100.5zM254 788l489 -11v-570h-489v581zM175 111h672v818h-104v-60q-143 5 -239.5 8t-157.5 4.5t-95.5 3t-52.5 4t-30 6.5q-6 -12 -16.5 -29.5t-22 -34t-20.5 -26.5
q15 -10 30.5 -34t15.5 -57v-599h20v-4z" />
</svg>
