<?xml version="1.0" standalone="no"?>
<!DOCTYPE svg PUBLIC "-//W3C//DTD SVG 1.1//EN" "http://www.w3.org/Graphics/SVG/1.1/DTD/svg11.dtd" >
<svg xmlns="http://www.w3.org/2000/svg" xmlns:xlink="http://www.w3.org/1999/xlink" version="1.1" viewBox="-10 0 1010 1000">
   <path fill="currentColor"
d="M893 828l-84 82q-44 -68 -112.5 -150.5t-150.5 -170.5q-162 195 -367 324q-7 -11 -20 -26.5t-27 -31t-25 -24.5q104 -59 197 -138.5t173 -175.5q-73 -76 -150 -149.5t-149 -137.5l71 -65q69 60 144.5 129t148.5 141q57 -79 106 -165.5t89 -180.5l97 31
q-46 105 -101.5 201.5t-119.5 183.5q86 87 159 170t121 153z" />
</svg>
