<?xml version="1.0" standalone="no"?>
<!DOCTYPE svg PUBLIC "-//W3C//DTD SVG 1.1//EN" "http://www.w3.org/Graphics/SVG/1.1/DTD/svg11.dtd" >
<svg xmlns="http://www.w3.org/2000/svg" xmlns:xlink="http://www.w3.org/1999/xlink" version="1.1" viewBox="-10 0 1010 1000">
   <path fill="currentColor"
d="M947 191h-556q-13 65 -30.5 136t-32.5 133h517l-1 16t-3 27q-15 132 -30.5 217t-33.5 132.5t-41 69.5q-20 20 -43.5 28t-55.5 10q-28 2 -74.5 1.5t-97.5 -3.5q-1 -20 -10 -46.5t-23 -45.5q53 5 101.5 6.5t69.5 1.5q17 0 29.5 -2.5t22.5 -10.5q24 -20 44.5 -95t36.5 -222
h-536q15 -45 31 -104.5t31 -124.5t27 -124h-233v-85h891v85z" />
</svg>
