<?xml version="1.0" standalone="no"?>
<!DOCTYPE svg PUBLIC "-//W3C//DTD SVG 1.1//EN" "http://www.w3.org/Graphics/SVG/1.1/DTD/svg11.dtd" >
<svg xmlns="http://www.w3.org/2000/svg" xmlns:xlink="http://www.w3.org/1999/xlink" version="1.1" viewBox="-10 0 1010 1000">
   <path fill="currentColor"
d="M935 204h-520q-1 46 -3 92t-7 93h444v16.5t-1 26.5q-8 157 -17.5 254t-22.5 149t-33 74q-19 22 -40.5 30t-53.5 11q-28 3 -75.5 2.5t-98.5 -3.5q-1 -20 -10 -46t-22 -45q53 4 101 5t68 1q17 1 27.5 -1.5t19.5 -10.5q15 -13 25 -54.5t18 -119.5t14 -199h-355
q-14 96 -46.5 185.5t-91.5 165t-155 130.5q-10 -19 -29.5 -40t-37.5 -35q80 -43 132 -102t82 -128.5t44.5 -145t20 -153t7.5 -152.5h-253v-91h869v91z" />
</svg>
