<?xml version="1.0" standalone="no"?>
<!DOCTYPE svg PUBLIC "-//W3C//DTD SVG 1.1//EN" "http://www.w3.org/Graphics/SVG/1.1/DTD/svg11.dtd" >
<svg xmlns="http://www.w3.org/2000/svg" xmlns:xlink="http://www.w3.org/1999/xlink" version="1.1" viewBox="-10 0 1010 1000">
   <path fill="currentColor"
d="M936 319h-283q-7 127 -33 232t-92 186q156 104 421 132q-15 16 -31 43t-25 47q-275 -37 -434 -152q-58 46 -141.5 82t-198.5 62q-7 -19 -23 -42.5t-30 -39.5q109 -23 187 -54.5t131 -72.5q-67 -68 -113.5 -158t-79.5 -204l89 -21q26 99 68.5 177.5t103.5 138.5
q54 -68 75 -156.5t26 -199.5h-487v-91h490q1 -41 1 -83.5v-88.5h101v88t-2 84h280v91z" />
</svg>
