<?xml version="1.0" standalone="no"?>
<!DOCTYPE svg PUBLIC "-//W3C//DTD SVG 1.1//EN" "http://www.w3.org/Graphics/SVG/1.1/DTD/svg11.dtd" >
<svg xmlns="http://www.w3.org/2000/svg" xmlns:xlink="http://www.w3.org/1999/xlink" version="1.1" viewBox="-10 0 1010 1000">
   <path fill="currentColor"
d="M932 198h-388v133h330v87h-330v137h378l-1.5 15.5t-3.5 25.5q-11 100 -23.5 165.5t-27.5 104t-36 57.5q-22 20 -48 27t-64 9q-31 1 -83.5 0.5t-111.5 -3.5q-1 -20 -11.5 -46t-25.5 -45q42 4 84 6t75.5 2.5t50.5 0.5q20 0 33 -1.5t23 -8.5q20 -15 35.5 -68t27.5 -152h-676
v-347h93v258h213v-357h-374v-89h861v89z" />
</svg>
