<?xml version="1.0" standalone="no"?>
<!DOCTYPE svg PUBLIC "-//W3C//DTD SVG 1.1//EN" "http://www.w3.org/Graphics/SVG/1.1/DTD/svg11.dtd" >
<svg xmlns="http://www.w3.org/2000/svg" xmlns:xlink="http://www.w3.org/1999/xlink" version="1.1" viewBox="-10 0 1010 1000">
   <path fill="currentColor"
d="M662 453h237l-0.5 16.5t-1.5 26.5q-6 129 -13.5 210t-19 125t-29.5 63q-19 22 -43 30t-56 10q-28 3 -76.5 2.5t-100.5 -2.5q-2 -22 -13 -49.5t-26 -48.5q56 4 106.5 5.5t72.5 1.5q17 0 27.5 -2t19.5 -10q18 -15 29 -82.5t18 -205.5h-268q17 -46 34.5 -103.5t34.5 -120.5
t31 -124h-281v33q0 58 -4 129t-17 149t-39 157.5t-70 155.5t-110 143q-13 -17 -35 -40.5t-40 -36.5q77 -75 121 -162.5t65 -176.5t27 -171t6 -148v-32h-153v-91h655q-20 83 -43 176t-45 173z" />
</svg>
