<?xml version="1.0" standalone="no"?>
<!DOCTYPE svg PUBLIC "-//W3C//DTD SVG 1.1//EN" "http://www.w3.org/Graphics/SVG/1.1/DTD/svg11.dtd" >
<svg xmlns="http://www.w3.org/2000/svg" xmlns:xlink="http://www.w3.org/1999/xlink" version="1.1" viewBox="-10 0 1010 1000">
   <path fill="currentColor"
d="M629 192l67 31q-18 71 -41.5 136t-52.5 123q35 86 88.5 162.5t123.5 135.5t153 94q-17 14 -37 38.5t-31 44.5q-115 -56 -203.5 -153t-148.5 -222q-84 133 -194.5 228t-235.5 151q-10 -18 -32.5 -44t-39.5 -39q120 -50 223.5 -131.5t181.5 -195.5t122 -260h-237
q-46 86 -101 159.5t-117 128.5q-8 -10 -23 -23t-31.5 -26t-28.5 -20q100 -79 176 -202.5t119 -266.5l101 24q-11 34 -23.5 67t-26.5 65h231z" />
</svg>
