<?xml version="1.0" standalone="no"?>
<!DOCTYPE svg PUBLIC "-//W3C//DTD SVG 1.1//EN" "http://www.w3.org/Graphics/SVG/1.1/DTD/svg11.dtd" >
<svg xmlns="http://www.w3.org/2000/svg" xmlns:xlink="http://www.w3.org/1999/xlink" version="1.1" viewBox="-10 0 1010 1000">
   <path fill="currentColor"
d="M434 50l96 35q-49 78 -113.5 158.5t-137 153.5t-147.5 129q-13 -14 -34.5 -34.5t-38.5 -32.5q73 -52 144.5 -121t131.5 -144.5t99 -143.5zM949 897l-89 49q-20 -45 -52 -101q-167 14 -279.5 23t-183 15t-110 9.5t-59.5 7t-33 8.5q-5 -15 -16.5 -44.5t-22.5 -49.5
q25 -6 57.5 -30.5t78.5 -64.5q26 -21 73 -68t106 -112t121.5 -142.5t118.5 -159.5l97 47q-110 152 -228 280t-234 229l462 -34q-59 -96 -123 -177l85 -41q45 55 89.5 119t82 126t59.5 111z" />
</svg>
