<?xml version="1.0" standalone="no"?>
<!DOCTYPE svg PUBLIC "-//W3C//DTD SVG 1.1//EN" "http://www.w3.org/Graphics/SVG/1.1/DTD/svg11.dtd" >
<svg xmlns="http://www.w3.org/2000/svg" xmlns:xlink="http://www.w3.org/1999/xlink" version="1.1" viewBox="-10 0 1010 1000">
   <path fill="currentColor"
d="M315 821h435q35 0 54.5 -15.5t29 -60.5t12.5 -131q20 11 46.5 20.5t48.5 14.5q-6 82 -19 134.5t-36 81.5t-59 40.5t-87 11.5h-415q-119 0 -176.5 -41.5t-57.5 -113.5q0 -20 4.5 -41t20 -48.5t48 -65.5t88 -92t139.5 -128t204 -172h-495v-96h630l22 -5l67 47q-4 4 -8 7.5
t-10 6.5q-144 114 -245.5 197.5t-168.5 143t-106.5 100t-58.5 66.5t-24.5 42.5t-5.5 29.5q0 35 33 51t90 16z" />
</svg>
