<?xml version="1.0" standalone="no"?>
<!DOCTYPE svg PUBLIC "-//W3C//DTD SVG 1.1//EN" "http://www.w3.org/Graphics/SVG/1.1/DTD/svg11.dtd" >
<svg xmlns="http://www.w3.org/2000/svg" xmlns:xlink="http://www.w3.org/1999/xlink" version="1.1" viewBox="-10 0 1010 1000">
   <path fill="currentColor"
d="M433 841h307q41 0 62.5 -13t31.5 -48t15 -101q17 11 42.5 21.5t45.5 14.5q-8 78 -26 124t-56.5 66t-110.5 20h-311q-76 0 -119 -14t-60.5 -51t-17.5 -105v-278l-178 56l-25 -85l203 -63v-307h91v279l408 -128l24 -18l70 22l-4 16q-3 69 -8.5 148t-13 154.5t-18.5 133.5
l-77 -21q7 -43 12 -100t8.5 -119.5t5.5 -123.5l-407 128v308q0 35 8 53t30.5 24.5t67.5 6.5z" />
</svg>
