<?xml version="1.0" standalone="no"?>
<!DOCTYPE svg PUBLIC "-//W3C//DTD SVG 1.1//EN" "http://www.w3.org/Graphics/SVG/1.1/DTD/svg11.dtd" >
<svg xmlns="http://www.w3.org/2000/svg" xmlns:xlink="http://www.w3.org/1999/xlink" version="1.1" viewBox="-10 0 1010 1000">
   <path fill="currentColor"
d="M864 195l71 26q-27 70 -63.5 140.5t-73.5 118.5l-81 -34q21 -29 43.5 -70.5t40.5 -84.5h-235v539q0 43 -11 65.5t-40 33.5q-28 12 -74 14.5t-112 2.5q-4 -20 -13.5 -48.5t-19.5 -47.5q48 1 91.5 1.5t58.5 -0.5q13 0 18.5 -4.5t5.5 -17.5v-538h-196q-69 115 -145 194
q-14 -13 -41 -31.5t-44 -28.5q50 -46 95.5 -107.5t83.5 -133t64 -145.5l97 27q-13 34 -28 67.5t-32 66.5h522z" />
</svg>
