<?xml version="1.0" standalone="no"?>
<!DOCTYPE svg PUBLIC "-//W3C//DTD SVG 1.1//EN" "http://www.w3.org/Graphics/SVG/1.1/DTD/svg11.dtd" >
<svg xmlns="http://www.w3.org/2000/svg" xmlns:xlink="http://www.w3.org/1999/xlink" version="1.1" viewBox="-10 0 1010 1000">
   <path fill="currentColor"
d="M716 830h233v85h-897v-85h567q11 -64 22 -142t21.5 -161.5t18.5 -161.5h-313l-10 47q42 13 89.5 31.5t91.5 38t73 37.5l-48 71q-24 -16 -61 -34.5t-79.5 -37t-83.5 -34.5q-6 25 -11.5 48.5t-10.5 46.5q41 15 88 35.5t90.5 41.5t71.5 39l-45 70q-24 -17 -61.5 -36.5
t-80 -39.5t-82.5 -36q-9 34 -17 65.5t-16 58.5l-93 -16q16 -54 34 -123t36 -145.5t34.5 -154.5t29.5 -150h-224v-86h838v86h-514q-10 46 -21 96h399q-6 65 -14.5 137.5t-18 145.5t-18.5 140.5t-18 122.5z" />
</svg>
