<?xml version="1.0" standalone="no"?>
<!DOCTYPE svg PUBLIC "-//W3C//DTD SVG 1.1//EN" "http://www.w3.org/Graphics/SVG/1.1/DTD/svg11.dtd" >
<svg xmlns="http://www.w3.org/2000/svg" xmlns:xlink="http://www.w3.org/1999/xlink" version="1.1" viewBox="-10 0 1010 1000">
   <path fill="currentColor"
d="M517 60l92 5q-3 36 -6 70.5t-8 66.5q28 109 75.5 204t116.5 167.5t159 114.5q-15 13 -33.5 36t-29.5 40q-112 -59 -190 -158.5t-129 -231.5q-33 132 -93.5 229t-159.5 165q-7 -8 -21.5 -20t-30 -23.5t-26.5 -18.5q101 -58 159 -149t86.5 -215.5t38.5 -281.5zM205 116v707
h740v87h-833v-794h93z" />
</svg>
