<?xml version="1.0" standalone="no"?>
<!DOCTYPE svg PUBLIC "-//W3C//DTD SVG 1.1//EN" "http://www.w3.org/Graphics/SVG/1.1/DTD/svg11.dtd" >
<svg xmlns="http://www.w3.org/2000/svg" xmlns:xlink="http://www.w3.org/1999/xlink" version="1.1" viewBox="-10 0 1010 1000">
   <path fill="currentColor"
d="M938 186h-718v210q0 61 -4 134t-14.5 149t-31.5 147.5t-55 130.5q-13 -11 -38.5 -26t-42.5 -22q32 -56 50.5 -121t27.5 -133.5t12 -135t3 -123.5v-300h811v90zM540 218h98q-3 52 -7.5 107.5t-12.5 111.5q30 97 78 182.5t114 150.5t149 103q-15 14 -33 36.5t-28 40.5
q-106 -54 -183 -148t-130 -215q-22 72 -59.5 139.5t-95.5 125t-142 101.5q-10 -17 -29 -38t-36 -34q88 -43 145 -101.5t90.5 -127.5t50 -143.5t22.5 -148.5t9 -142z" />
</svg>
