<?xml version="1.0" standalone="no"?>
<!DOCTYPE svg PUBLIC "-//W3C//DTD SVG 1.1//EN" "http://www.w3.org/Graphics/SVG/1.1/DTD/svg11.dtd" >
<svg xmlns="http://www.w3.org/2000/svg" xmlns:xlink="http://www.w3.org/1999/xlink" version="1.1" viewBox="-10 0 1010 1000">
   <path fill="currentColor"
d="M777 520l17 -5l73 34q-42 59 -97 130.5t-113 145t-111 138.5l-96 -45q41 -47 84.5 -100t85.5 -105.5t77 -98.5h-535v-94h615zM336 350h345v88h-345v-88zM489 32l91 44q-4 7 -9.5 13.5t-10.5 14.5q50 54 118 108t143 99.5t144 75.5q-18 15 -39.5 40t-33.5 45
q-63 -33 -132 -80.5t-134.5 -103.5t-120.5 -115q-81 95 -184 173.5t-213 133.5q-11 -20 -31.5 -44t-40.5 -40q89 -39 174 -95t157.5 -124.5t121.5 -144.5z" />
</svg>
