<?xml version="1.0" standalone="no"?>
<!DOCTYPE svg PUBLIC "-//W3C//DTD SVG 1.1//EN" "http://www.w3.org/Graphics/SVG/1.1/DTD/svg11.dtd" >
<svg xmlns="http://www.w3.org/2000/svg" xmlns:xlink="http://www.w3.org/1999/xlink" version="1.1" viewBox="-10 0 1010 1000">
   <path fill="currentColor"
d="M271 559v-119h97v121q0 49 -7 102.5t-29 106t-66 101.5t-118 90q-12 -17 -35 -37.5t-42 -32.5q68 -36 108 -76.5t59.5 -84t26 -87t6.5 -84.5zM642 961v-522h98v522h-98zM497 32l75 53q-4 7 -8 13t-9 12q45 58 112 110t147 92t163 63q-16 16 -35.5 41.5t-30.5 45.5
q-119 -39 -226.5 -113.5t-184.5 -167.5q-53 62 -120.5 118t-142 101t-151.5 76q-9 -20 -24.5 -46t-32.5 -43q94 -30 184 -85t164.5 -125t119.5 -145z" />
</svg>
