<?xml version="1.0" standalone="no"?>
<!DOCTYPE svg PUBLIC "-//W3C//DTD SVG 1.1//EN" "http://www.w3.org/Graphics/SVG/1.1/DTD/svg11.dtd" >
<svg xmlns="http://www.w3.org/2000/svg" xmlns:xlink="http://www.w3.org/1999/xlink" version="1.1" viewBox="-10 0 1010 1000">
   <path fill="currentColor"
d="M234 745l48 -71q55 15 117.5 35t124 43.5t115.5 47.5t93 46l-52 81q-37 -22 -90 -47t-113.5 -49.5t-123 -47t-119.5 -38.5zM352 472l55 -61q47 22 99.5 51.5t99.5 59.5t77 56l-60 70q-28 -26 -74 -58t-97.5 -63t-99.5 -55zM478 41l81 35q-4 7 -7 13t-7 12
q85 118 190 194.5t230 132.5q-16 14 -32 34t-26 40q-120 -62 -220 -139.5t-188 -192.5q-77 106 -180 192.5t-219 145.5q-10 -18 -27.5 -38.5t-34.5 -35.5q90 -41 173 -101t152 -134t115 -158z" />
</svg>
