<?xml version="1.0" standalone="no"?>
<!DOCTYPE svg PUBLIC "-//W3C//DTD SVG 1.1//EN" "http://www.w3.org/Graphics/SVG/1.1/DTD/svg11.dtd" >
<svg xmlns="http://www.w3.org/2000/svg" xmlns:xlink="http://www.w3.org/1999/xlink" version="1.1" viewBox="-10 0 1010 1000">
   <path fill="currentColor"
d="M94 626v-91h819v91h-427q-41 53 -87.5 104t-95.5 95l407 -28q-50 -58 -103 -106l79 -41q44 38 87 84t79.5 91t58.5 82l-84 51q-10 -17 -23 -37.5t-30 -42.5q-153 12 -256 20.5t-167.5 14t-101 9.5t-55.5 8t-32 9q-4 -16 -13.5 -46t-18.5 -49q17 -4 35.5 -17t40.5 -34
q13 -11 37 -35.5t54.5 -58.5t60.5 -73h-264zM304 344h407q-60 -38 -114 -81t-95 -83q-43 46 -92.5 86.5t-105.5 77.5zM501 39l86 39q-7 10 -15 20.5t-16 21.5q47 44 113 89.5t141.5 85t152.5 65.5q-15 14 -34.5 38.5t-30.5 42.5q-41 -16 -82 -37t-80 -44v70h-468v-62
q-38 22 -78 43.5t-82 40.5q-10 -17 -30 -42.5t-36 -38.5q96 -39 183.5 -91.5t158.5 -114t117 -126.5z" />
</svg>
