<?xml version="1.0" standalone="no"?>
<!DOCTYPE svg PUBLIC "-//W3C//DTD SVG 1.1//EN" "http://www.w3.org/Graphics/SVG/1.1/DTD/svg11.dtd" >
<svg xmlns="http://www.w3.org/2000/svg" xmlns:xlink="http://www.w3.org/1999/xlink" version="1.1" viewBox="-10 0 1010 1000">
   <path fill="currentColor"
d="M244 46l86 26q-16 49 -37 97.5t-44 96.5v692h-90v-536q-40 60 -81 107q-4 -11 -13.5 -29t-19 -36.5t-17.5 -29.5q44 -48 84 -110t74 -133.5t58 -144.5zM413 661l86 26q-29 57 -70.5 116.5t-82.5 102.5q-13 -11 -34 -25t-36 -23q41 -39 78.5 -94t58.5 -103zM845 608
l-180 17v238q0 31 -8 50t-31 28q-23 10 -56.5 12t-80.5 2q-3 -18 -11 -41t-16 -40q29 1 57 1.5t35 0.5q10 -1 13.5 -3.5t3.5 -10.5v-230q-65 6 -105.5 10t-64 7.5t-36.5 6.5t-22 7q-3 -13 -10.5 -37t-14.5 -41q22 -3 50.5 -17t67.5 -38q20 -12 58.5 -38t86.5 -61
q-63 4 -102.5 7t-62 5.5t-34 5.5t-18.5 6q-3 -13 -11 -37.5t-15 -40.5q16 -2 34 -11t40 -24q14 -9 45.5 -32t70.5 -55t73 -68q-58 18 -119.5 34t-119.5 30q-4 -15 -12.5 -36.5t-16.5 -34.5q78 -20 158 -44.5t151 -52.5t122 -56l65 72q-44 22 -96 42t-108 39l64 33
q-44 41 -92 79.5t-97 70.5l180 -9q63 -51 123 -111l65 51q-83 76 -172 142.5t-178 121.5l273 -21q-15 -19 -31 -38t-31 -36l68 -42q29 29 59 64t56 68.5t42 60.5l-74 48q-7 -12 -15.5 -26t-19.5 -28zM734 687l74 -36q27 29 55 64.5t51 70t35 62.5l-78 41q-13 -28 -35 -63
t-48.5 -71.5t-53.5 -67.5z" />
</svg>
