<?xml version="1.0" standalone="no"?>
<!DOCTYPE svg PUBLIC "-//W3C//DTD SVG 1.1//EN" "http://www.w3.org/Graphics/SVG/1.1/DTD/svg11.dtd" >
<svg xmlns="http://www.w3.org/2000/svg" xmlns:xlink="http://www.w3.org/1999/xlink" version="1.1" viewBox="-10 0 1010 1000">
   <path fill="currentColor"
d="M586 67l85 -25q28 72 73.5 140t103 123.5t120.5 90.5q-17 14 -37 37t-31 41q-38 -24 -73.5 -54.5t-67.5 -66.5v69h-331q-10 35 -22 72t-24 71h414l-1 15t-3 25q-11 94 -23 156t-26.5 98t-34.5 54q-21 19 -44 25.5t-58 8.5q-28 1 -78.5 1t-106.5 -4q-1 -20 -11 -45
t-25 -44q39 3 77.5 5t69.5 2.5t47 0.5q19 0 31 -1.5t21 -8.5q20 -14 34.5 -63.5t26.5 -141.5h-438q19 -45 40.5 -106.5t38.5 -119.5h-96v-64q-61 70 -124 121q-13 -14 -38.5 -33.5t-42.5 -30.5q90 -62 165 -158t119 -208l95 27q-29 70 -69 136.5t-87 123.5h489
q-49 -58 -89 -127t-69 -142z" />
</svg>
