<?xml version="1.0" standalone="no"?>
<!DOCTYPE svg PUBLIC "-//W3C//DTD SVG 1.1//EN" "http://www.w3.org/Graphics/SVG/1.1/DTD/svg11.dtd" >
<svg xmlns="http://www.w3.org/2000/svg" xmlns:xlink="http://www.w3.org/1999/xlink" version="1.1" viewBox="-10 0 1010 1000">
   <path fill="currentColor"
d="M497 253h410l-0.5 18t-1.5 28q-8 152 -16.5 258.5t-18 176t-21.5 110t-29 59.5q-20 24 -41.5 33.5t-50.5 12.5q-27 3 -71 2.5t-88 -2.5q-1 -20 -10 -47.5t-23 -48.5q50 4 91.5 5t60.5 1q17 0 27 -3t19 -12q17 -16 30 -70.5t23.5 -158.5t18.5 -267h-313q-6 77 -24.5 159
t-58.5 163t-108.5 156t-175.5 138q-11 -17 -33 -39.5t-39 -35.5q98 -56 161.5 -122t100.5 -137t54.5 -143t23.5 -139h-310v-95h315v-25v-185h98v185v25z" />
</svg>
