<?xml version="1.0" standalone="no"?>
<!DOCTYPE svg PUBLIC "-//W3C//DTD SVG 1.1//EN" "http://www.w3.org/Graphics/SVG/1.1/DTD/svg11.dtd" >
<svg xmlns="http://www.w3.org/2000/svg" xmlns:xlink="http://www.w3.org/1999/xlink" version="1.1" viewBox="-10 0 1010 1000">
   <path fill="currentColor"
d="M269 455l81 -45q41 40 80.5 87.5t72 94.5t49.5 87l-88 51q-15 -39 -46 -87t-69.5 -97.5t-79.5 -90.5zM334 191h583v18t-1 28q-7 169 -14 287.5t-15.5 195.5t-20 120.5t-28.5 63.5q-20 25 -41.5 35t-52.5 14q-29 4 -75.5 3.5t-94.5 -3.5q-1 -20 -10 -47.5t-23 -47.5
q54 5 100 6t66 1q17 0 27.5 -3.5t19.5 -13.5q18 -17 30.5 -78.5t21 -180.5t15.5 -307h-529q-37 71 -79 134t-88 110q-8 -8 -23.5 -19.5t-32 -23t-28.5 -17.5q80 -75 143 -187.5t100 -237.5l97 24q-10 32 -21.5 63.5t-25.5 62.5z" />
</svg>
