<?xml version="1.0" standalone="no"?>
<!DOCTYPE svg PUBLIC "-//W3C//DTD SVG 1.1//EN" "http://www.w3.org/Graphics/SVG/1.1/DTD/svg11.dtd" >
<svg xmlns="http://www.w3.org/2000/svg" xmlns:xlink="http://www.w3.org/1999/xlink" version="1.1" viewBox="-10 0 1010 1000">
   <path fill="currentColor"
d="M322 175h595v9.5t-0.5 20.5t-0.5 17q-4 180 -9.5 303t-12 201t-16 121t-23.5 62q-17 25 -36 34t-45 13q-24 3 -61.5 3t-76.5 -2q-1 -18 -8 -42.5t-18 -42.5q41 4 74 4.5t49 0.5q26 0 39 -18q11 -12 19 -50t14 -107.5t10.5 -177.5t8.5 -261h-550q-39 65 -83 122h59v329
h490v85h-490v69h-90v-446l-24 26t-25 24q-13 -12 -37 -32.5t-40 -31.5q77 -64 140.5 -161t100.5 -206l94 24q-10 28 -22 55.5t-25 54.5zM460 306l87 15q-14 67 -36 125q35 29 72.5 62t70.5 65t53 58l-69 60q-25 -33 -69.5 -78.5t-91.5 -87.5q-56 108 -140 177
q-10 -12 -33 -29.5t-38 -27.5q76 -55 124 -142.5t70 -196.5z" />
</svg>
