<?xml version="1.0" standalone="no"?>
<!DOCTYPE svg PUBLIC "-//W3C//DTD SVG 1.1//EN" "http://www.w3.org/Graphics/SVG/1.1/DTD/svg11.dtd" >
<svg xmlns="http://www.w3.org/2000/svg" xmlns:xlink="http://www.w3.org/1999/xlink" version="1.1" viewBox="-10 0 1010 1000">
   <path fill="currentColor"
d="M186 841h763v89h-854v-840h829v89h-738v662zM842 714l-74 68q-36 -44 -89.5 -99t-116.5 -114q-62 63 -128 116.5t-134 96.5q-12 -14 -34.5 -36t-38.5 -34q71 -40 139 -91.5t130 -111.5q-59 -53 -118.5 -104.5t-115.5 -95.5l66 -55q53 41 112.5 90t117.5 100
q48 -53 89.5 -109t75.5 -115l87 35q-39 66 -85.5 128t-98.5 120q65 57 121 111.5t95 99.5z" />
</svg>
