<?xml version="1.0" standalone="no"?>
<!DOCTYPE svg PUBLIC "-//W3C//DTD SVG 1.1//EN" "http://www.w3.org/Graphics/SVG/1.1/DTD/svg11.dtd" >
<svg xmlns="http://www.w3.org/2000/svg" xmlns:xlink="http://www.w3.org/1999/xlink" version="1.1" viewBox="-10 0 1010 1000">
   <path fill="currentColor"
d="M931 872l-94 46q-7 -24 -17 -53.5t-22 -60.5q-169 13 -282.5 21.5t-185.5 14.5t-113 10.5t-62.5 9t-35.5 10.5q-3 -11 -10.5 -30.5t-16 -39.5t-16.5 -34q23 -8 45.5 -38t55.5 -81q17 -24 49.5 -82t71.5 -138t77.5 -172t67.5 -185l109 41q-43 117 -96.5 231t-112 217
t-117.5 190l537 -34q-24 -59 -49.5 -119t-51.5 -112l86 -37q24 51 50.5 108.5t52 115t46.5 109t34 92.5z" />
</svg>
