<?xml version="1.0" standalone="no"?>
<!DOCTYPE svg PUBLIC "-//W3C//DTD SVG 1.1//EN" "http://www.w3.org/Graphics/SVG/1.1/DTD/svg11.dtd" >
<svg xmlns="http://www.w3.org/2000/svg" xmlns:xlink="http://www.w3.org/1999/xlink" version="1.1" viewBox="-10 0 1010 1000">
   <path fill="currentColor"
d="M708 556h-307q32 48 74 90.5t92 79.5q44 -36 79.5 -78t61.5 -92zM942 372h-525q-7 25 -15 49.5t-18 50.5h371l15 -4l58 31q-31 85 -78.5 153t-107.5 121q134 78 300 111q-15 14 -31 37t-26 42q-88 -21 -167 -55t-149 -80q-70 48 -151 81.5t-168 55.5q-7 -16 -24 -39.5
t-31 -36.5q83 -17 160 -45.5t142 -67.5q-49 -41 -91 -87t-75 -98q-40 74 -96 142.5t-135 121.5q-9 -17 -25 -36.5t-32 -33.5q82 -51 137 -120t90 -145.5t55 -147.5h-264v-84h285q7 -29 11.5 -53.5t8.5 -43.5q-61 4 -121.5 7t-119.5 4q-1 -17 -7.5 -40.5t-13.5 -38.5
q93 -4 191 -10t192.5 -15t177.5 -20.5t147 -26.5l55 79q-84 18 -188.5 31.5t-216.5 21.5q-4 22 -10 48.5t-13 56.5h503v84z" />
</svg>
