<?xml version="1.0" standalone="no"?>
<!DOCTYPE svg PUBLIC "-//W3C//DTD SVG 1.1//EN" "http://www.w3.org/Graphics/SVG/1.1/DTD/svg11.dtd" >
<svg xmlns="http://www.w3.org/2000/svg" xmlns:xlink="http://www.w3.org/1999/xlink" version="1.1" viewBox="-10 0 1010 1000">
   <path fill="currentColor"
d="M767 291h-354q-20 27 -40.5 53t-41.5 49q47 27 95 59.5t92 66t77 64.5q56 -61 99 -134t73 -158zM823 194l70 32q-41 156 -113 277t-169 210t-214 149.5t-247 97.5q-8 -20 -24 -47.5t-31 -43.5q120 -29 229 -83t200 -133q-32 -31 -74.5 -65t-89.5 -68t-93 -62
q-27 25 -56 47.5t-58 42.5q-8 -10 -23 -23.5t-31 -27t-28 -21.5q120 -71 215.5 -185t150.5 -251l100 29q-28 66 -65 131h334z" />
</svg>
