<?xml version="1.0" standalone="no"?>
<!DOCTYPE svg PUBLIC "-//W3C//DTD SVG 1.1//EN" "http://www.w3.org/Graphics/SVG/1.1/DTD/svg11.dtd" >
<svg xmlns="http://www.w3.org/2000/svg" xmlns:xlink="http://www.w3.org/1999/xlink" version="1.1" viewBox="-10 0 1010 1000">
   <path fill="currentColor"
d="M932 510h-366q53 131 152.5 224.5t247.5 134.5q-16 15 -34.5 40.5t-28.5 45.5q-144 -48 -242 -141.5t-159 -228.5q-25 70 -73 137.5t-127.5 127t-199.5 106.5q-9 -17 -27 -41.5t-34 -37.5q122 -47 199 -107t119.5 -126.5t61.5 -133.5h-351v-95h369q3 -26 4 -50.5t1 -46.5
v-109h-338v-96h785v96h-350v110q0 22 -1 46.5t-3 49.5h395v95z" />
</svg>
