<?xml version="1.0" standalone="no"?>
<!DOCTYPE svg PUBLIC "-//W3C//DTD SVG 1.1//EN" "http://www.w3.org/Graphics/SVG/1.1/DTD/svg11.dtd" >
<svg xmlns="http://www.w3.org/2000/svg" xmlns:xlink="http://www.w3.org/1999/xlink" version="1.1" viewBox="-10 0 1010 1000">
   <path fill="currentColor"
d="M935 559h-374q53 120 152.5 198.5t252.5 110.5q-15 15 -33 41t-27 46q-148 -38 -246.5 -116.5t-159.5 -199.5q-27 65 -76 124.5t-128.5 109.5t-196.5 88q-7 -18 -25 -44.5t-32 -40.5q119 -37 195 -87t119.5 -108.5t64.5 -121.5h-355v-95h375q4 -27 5 -54.5t1 -54.5v-77
h-314v-95h314v-142h99v142h333v95h-333v77q0 27 -1 54.5t-4 54.5h394v95z" />
</svg>
