<?xml version="1.0" standalone="no"?>
<!DOCTYPE svg PUBLIC "-//W3C//DTD SVG 1.1//EN" "http://www.w3.org/Graphics/SVG/1.1/DTD/svg11.dtd" >
<svg xmlns="http://www.w3.org/2000/svg" xmlns:xlink="http://www.w3.org/1999/xlink" version="1.1" viewBox="-10 0 1010 1000">
   <path fill="currentColor"
d="M135 594v-78h725v78h-485q-13 42 -27 81h442l-1.5 14.5t-4.5 24.5q-16 94 -35 143.5t-43 70.5q-19 14 -39 19.5t-50 7.5q-25 1 -68.5 0.5t-93.5 -3.5q-1 -18 -9 -41.5t-19 -41.5q48 4 94.5 5.5t65.5 1.5q17 0 27 -1.5t19 -6.5q14 -11 26.5 -38.5t23.5 -79.5h-363v1h-100
q14 -32 30 -74t29 -83h-144zM594 244h-177q-20 29 -43.5 58t-50.5 56h358q-53 -54 -87 -114zM938 244h-245q50 64 122 115t155 79q-10 16 -21.5 43.5t-16.5 47.5q-67 -28 -126.5 -67.5t-109.5 -88.5v60h-391v-58q-44 41 -96.5 77.5t-116.5 67.5q-7 -17 -24 -39.5t-31 -35.5
q88 -40 154 -91.5t113 -109.5h-241v-83h298q18 -29 30.5 -59.5t22.5 -60.5l96 16q-9 26 -20 52t-24 52h472v83z" />
</svg>
