<?xml version="1.0" standalone="no"?>
<!DOCTYPE svg PUBLIC "-//W3C//DTD SVG 1.1//EN" "http://www.w3.org/Graphics/SVG/1.1/DTD/svg11.dtd" >
<svg xmlns="http://www.w3.org/2000/svg" xmlns:xlink="http://www.w3.org/1999/xlink" version="1.1" viewBox="-10 0 1010 1000">
   <path fill="currentColor"
d="M232 284l88 17q-15 62 -38 121q35 29 71 61.5t56 55.5l-53 67q-17 -22 -47 -51.5t-61 -57.5q-53 103 -128 169q-11 -11 -32.5 -30.5t-36.5 -29.5q68 -53 113.5 -137t67.5 -185zM938 581l-59 66q-25 -29 -66 -69t-84 -77q-36 73 -89 123q-10 -8 -27 -18t-33 -19
q24 51 70.5 104.5t121.5 101t184 80.5q-16 16 -32.5 41.5t-27.5 45.5q-99 -32 -170 -79t-118.5 -99.5t-74 -100t-37.5 -80.5q-9 33 -35 80.5t-72.5 99.5t-116.5 99t-168 79q-10 -15 -28 -39t-34 -39q97 -29 166 -71.5t115.5 -90.5t73 -96.5t38 -92t11.5 -74.5v-191h-386v-89
h386v-131h100v131h397v89h-397v191q0 23 6.5 52t19.5 62q53 -50 86.5 -123.5t48.5 -160.5l88 12q-12 67 -33 126q32 25 65 53.5t62.5 55.5t48.5 48z" />
</svg>
