<?xml version="1.0" standalone="no"?>
<!DOCTYPE svg PUBLIC "-//W3C//DTD SVG 1.1//EN" "http://www.w3.org/Graphics/SVG/1.1/DTD/svg11.dtd" >
<svg xmlns="http://www.w3.org/2000/svg" xmlns:xlink="http://www.w3.org/1999/xlink" version="1.1" viewBox="-10 0 1010 1000">
   <path fill="currentColor"
d="M950 477v93h-397v273q0 43 -12 65.5t-44 33.5q-31 11 -81 14t-120 3q-4 -20 -16 -48.5t-24 -47.5q57 2 107 2.5t66 -0.5t21.5 -6t5.5 -18v-271h-403v-93h403v-141q56 -26 116.5 -64t109.5 -77h-530v-91h632l21 -5l70 54q-42 41 -95.5 83t-111.5 80.5t-115 68.5v92h397z
" />
</svg>
