<?xml version="1.0" standalone="no"?>
<!DOCTYPE svg PUBLIC "-//W3C//DTD SVG 1.1//EN" "http://www.w3.org/Graphics/SVG/1.1/DTD/svg11.dtd" >
<svg xmlns="http://www.w3.org/2000/svg" xmlns:xlink="http://www.w3.org/1999/xlink" version="1.1" viewBox="-10 0 1010 1000">
   <path fill="currentColor"
d="M453 41h94v494q0 40 -10 62t-38 33q-28 12 -71 15t-105 3q-4 -21 -13.5 -48.5t-20.5 -46.5q47 1 87 1h53q14 -1 19 -5t5 -16v-492zM667 198l86 -44q42 50 83.5 108t76 115t52.5 104l-95 51q-16 -46 -48 -104t-72.5 -118t-82.5 -112zM724 460l97 29q-47 145 -132 239.5
t-214.5 149.5t-310.5 84q-7 -22 -21.5 -48t-28.5 -45q171 -21 291.5 -67.5t198.5 -129.5t120 -212zM230 166l103 24q-24 61 -56.5 125.5t-71.5 123.5t-83 104q-16 -14 -40.5 -30t-43.5 -25q43 -41 80.5 -96t66 -114t45.5 -112z" />
</svg>
