<?xml version="1.0" standalone="no"?>
<!DOCTYPE svg PUBLIC "-//W3C//DTD SVG 1.1//EN" "http://www.w3.org/Graphics/SVG/1.1/DTD/svg11.dtd" >
<svg xmlns="http://www.w3.org/2000/svg" xmlns:xlink="http://www.w3.org/1999/xlink" version="1.1" viewBox="-10 0 1010 1000">
   <path fill="currentColor"
d="M237 447h298v-98h-297v32v32.5t-1 33.5zM789 174h-551v93h551v-93zM774 845v-131h-383v131h383zM937 531h-309v101h238v325h-92v-31h-383v32h-89v-326h233v-101h-302q-5 73 -17.5 150t-36.5 149t-63 131q-13 -11 -39 -26.5t-44 -22.5q39 -57 61 -124.5t33 -138.5
t14 -139.5t3 -128.5v-289h739v257h-255v98h309v84z" />
</svg>
