<?xml version="1.0" standalone="no"?>
<!DOCTYPE svg PUBLIC "-//W3C//DTD SVG 1.1//EN" "http://www.w3.org/Graphics/SVG/1.1/DTD/svg11.dtd" >
<svg xmlns="http://www.w3.org/2000/svg" xmlns:xlink="http://www.w3.org/1999/xlink" version="1.1" viewBox="-10 0 1010 1000">
   <path fill="currentColor"
d="M657 58l87 57q-69 50 -157 95.5t-180.5 82.5t-176.5 64q-10 -20 -29 -45.5t-38 -44.5q61 -16 129 -38.5t135 -50t126.5 -58t103.5 -62.5zM694 310l91 52q-66 61 -152.5 114t-181.5 95t-188 72q-11 -20 -29.5 -46t-37.5 -45q89 -24 182.5 -60.5t176.5 -82.5t139 -99z
M784 560l92 53q-76 87 -181.5 154t-229.5 114.5t-258 78.5q-10 -22 -26 -49.5t-34 -46.5q129 -25 250 -66.5t221.5 -100.5t165.5 -137z" />
</svg>
