<?xml version="1.0" standalone="no"?>
<!DOCTYPE svg PUBLIC "-//W3C//DTD SVG 1.1//EN" "http://www.w3.org/Graphics/SVG/1.1/DTD/svg11.dtd" >
<svg xmlns="http://www.w3.org/2000/svg" xmlns:xlink="http://www.w3.org/1999/xlink" version="1.1" viewBox="-10 0 1010 1000">
   <path fill="currentColor"
d="M576 65l97 42q-49 52 -113.5 104t-134.5 97.5t-138 79.5q-13 -15 -34.5 -36.5t-37.5 -34.5q66 -30 134.5 -72t128.5 -89t98 -91zM649 293l92 45q-40 48 -87.5 94.5t-100.5 89.5v437h-101v-362q-46 32 -91.5 60.5t-90.5 51.5q-7 -11 -20 -27t-27 -32t-25 -25
q84 -38 167.5 -90t157 -114t126.5 -128z" />
</svg>
