<?xml version="1.0" standalone="no"?>
<!DOCTYPE svg PUBLIC "-//W3C//DTD SVG 1.1//EN" "http://www.w3.org/Graphics/SVG/1.1/DTD/svg11.dtd" >
<svg xmlns="http://www.w3.org/2000/svg" xmlns:xlink="http://www.w3.org/1999/xlink" version="1.1" viewBox="-10 0 1010 1000">
   <path fill="currentColor"
d="M613 219l-62 76q-28 -25 -70 -58t-87.5 -66.5t-85.5 -61.5l61 -66q41 27 86.5 59.5t87.5 63t70 53.5zM142 327l89 22q-10 57 -25.5 119.5t-36 120.5t-46.5 101l-91 -35q27 -43 48.5 -97.5t37.5 -114.5t24 -116zM464 857h173q28 0 42 -14t20 -53t10 -114q17 12 44 23.5
t47 16.5q-7 89 -21.5 140t-46 72t-88.5 21h-190q-59 0 -92.5 -13t-47 -45.5t-13.5 -91.5v-14q-49 34 -100 64t-106 56q-10 -17 -28 -38.5t-33 -34.5q144 -66 267 -159v-399h98v319q124 -110 219.5 -237t158.5 -257l94 39q-83 157 -201.5 305t-270.5 270v87q0 36 12 46.5
t53 10.5zM727 414l84 -39q33 48 63.5 103t55.5 108.5t38 96.5l-90 45q-11 -44 -35 -98.5t-54 -111t-62 -104.5z" />
</svg>
