<?xml version="1.0" standalone="no"?>
<!DOCTYPE svg PUBLIC "-//W3C//DTD SVG 1.1//EN" "http://www.w3.org/Graphics/SVG/1.1/DTD/svg11.dtd" >
<svg xmlns="http://www.w3.org/2000/svg" xmlns:xlink="http://www.w3.org/1999/xlink" version="1.1" viewBox="-10 0 1010 1000">
   <path fill="currentColor"
d="M819 168l-64 71q-22 -19 -56.5 -42t-72.5 -46t-71 -40l62 -62q33 16 71 37t73 42.5t58 39.5zM781 377l93 43q-55 87 -125.5 160.5t-153.5 135.5q41 66 91 103t107 37q21 0 34 -16t21.5 -55t13.5 -107q18 16 43.5 30.5t46.5 20.5q-11 91 -29.5 140t-49.5 68t-81 19
q-88 0 -158.5 -48.5t-123.5 -132.5q-84 52 -176 95t-189 76q-6 -11 -17.5 -27.5t-23.5 -33.5t-22 -27q104 -30 200.5 -72.5t181.5 -96.5q-32 -68 -55 -148t-39 -167l-303 25l-9 -92l299 -24q-7 -59 -11 -118t-5 -120h105q0 59 3.5 116.5t10.5 113.5l475 -39l8 89l-471 40
q14 74 33.5 141t44.5 123q70 -54 128 -117t103 -135z" />
</svg>
