<?xml version="1.0" standalone="no"?>
<!DOCTYPE svg PUBLIC "-//W3C//DTD SVG 1.1//EN" "http://www.w3.org/Graphics/SVG/1.1/DTD/svg11.dtd" >
<svg xmlns="http://www.w3.org/2000/svg" xmlns:xlink="http://www.w3.org/1999/xlink" version="1.1" viewBox="-10 0 1010 1000">
   <path fill="currentColor"
d="M497 462l10 89q-41 11 -83 22t-83 21v238q0 40 -10 62.5t-35 33.5q-25 12 -65 15t-99 3q-4 -20 -12.5 -47t-18.5 -46q38 1 73 1h46q12 -1 17 -5t5 -17v-213q-40 10 -76.5 19t-69.5 18l-25 -98q36 -8 79 -17t92 -19v-201h-159v-92h159v-196h99v196h157v92h-157v178
q38 -9 77.5 -18t78.5 -19z" />
</svg>
