<?xml version="1.0" standalone="no"?>
<!DOCTYPE svg PUBLIC "-//W3C//DTD SVG 1.1//EN" "http://www.w3.org/Graphics/SVG/1.1/DTD/svg11.dtd" >
<svg xmlns="http://www.w3.org/2000/svg" xmlns:xlink="http://www.w3.org/1999/xlink" version="1.1" viewBox="-10 0 1010 1000">
   <path fill="currentColor"
d="M230 429h223q8 -55 10.5 -114.5t3.5 -123.5h-185q-11 56 -25 119t-27 119zM664 858h151q23 0 34.5 -11t16.5 -43.5t8 -96.5q16 12 42 22.5t45 15.5q-6 79 -19 122.5t-41 61t-78 17.5h-170q-56 0 -87 -11.5t-43 -40t-12 -78.5v-219q-27 81 -76.5 149t-131 122t-203.5 92
q-7 -19 -24 -42t-32 -38q126 -36 205.5 -89t123.5 -122t65 -152h-332q13 -42 27 -97.5t26.5 -115.5t22.5 -113h-84v-87h795v87h-332q-1 63 -4 122.5t-10 115.5h388v88h-327v299q0 26 10.5 34t45.5 8z" />
</svg>
