<?xml version="1.0" standalone="no"?>
<!DOCTYPE svg PUBLIC "-//W3C//DTD SVG 1.1//EN" "http://www.w3.org/Graphics/SVG/1.1/DTD/svg11.dtd" >
<svg xmlns="http://www.w3.org/2000/svg" xmlns:xlink="http://www.w3.org/1999/xlink" version="1.1" viewBox="-10 0 1010 1000">
   <path fill="currentColor"
d="M889 540h-286q45 57 104 111t125.5 98t132.5 73q-16 15 -36.5 39t-32.5 44q-94 -49 -185.5 -129t-162.5 -174v356h-98v-350q-46 62 -103 118.5t-118.5 103t-123.5 78.5q-13 -18 -32.5 -42t-36.5 -39q67 -30 133.5 -74.5t126.5 -99t104 -113.5h-284v-91h334v-155h-383v-93
h383v-160h98v160h390v93h-390v155h341v91z" />
</svg>
