<?xml version="1.0" standalone="no"?>
<!DOCTYPE svg PUBLIC "-//W3C//DTD SVG 1.1//EN" "http://www.w3.org/Graphics/SVG/1.1/DTD/svg11.dtd" >
<svg xmlns="http://www.w3.org/2000/svg" xmlns:xlink="http://www.w3.org/1999/xlink" version="1.1" viewBox="-10 0 1010 1000">
   <path fill="currentColor"
d="M801 290h-520q-31 66 -66 124t-74 102q-9 -8 -25 -19.5t-32.5 -22.5t-29.5 -17q49 -49 89 -116.5t71.5 -147t52.5 -162.5l100 21q-10 37 -22 74t-25 72h521l17 -5l73 26q-27 82 -63.5 164.5t-74.5 141.5l-83 -36q24 -38 48 -91t43 -108zM543 344v66q0 32 -3 67
q47 154 147.5 256.5t272.5 140.5q-15 16 -32.5 40.5t-27.5 44.5q-146 -39 -240.5 -124t-151.5 -212q-24 61 -71.5 122t-128.5 115.5t-205 98.5q-8 -16 -26.5 -38.5t-34.5 -35.5q112 -39 186.5 -86.5t118.5 -99t65.5 -103t28 -100t6.5 -88.5v-64h96z" />
</svg>
