<?xml version="1.0" standalone="no"?>
<!DOCTYPE svg PUBLIC "-//W3C//DTD SVG 1.1//EN" "http://www.w3.org/Graphics/SVG/1.1/DTD/svg11.dtd" >
<svg xmlns="http://www.w3.org/2000/svg" xmlns:xlink="http://www.w3.org/1999/xlink" version="1.1" viewBox="-10 0 1010 1000">
   <path fill="currentColor"
d="M403 430v361l64 -12t63 -12l7 94q-84 15 -169.5 30.5t-164 30t-142.5 27.5l-15 -98l77 -12v-595h90v579l95 -15v-767h95v300h129v89h-129zM717 841h116q19 0 28 -14.5t13.5 -51.5t6.5 -105q17 13 43 25t45 17q-5 80 -17.5 128.5t-38 70t-72.5 21.5h-139
q-49 0 -76.5 -13.5t-38.5 -47.5t-11 -94v-736h97v350q55 -32 105.5 -67.5t85.5 -67.5l76 76q-58 41 -128 80.5t-139 72.5v294q0 40 8 51t36 11z" />
</svg>
