<?xml version="1.0" standalone="no"?>
<!DOCTYPE svg PUBLIC "-//W3C//DTD SVG 1.1//EN" "http://www.w3.org/Graphics/SVG/1.1/DTD/svg11.dtd" >
<svg xmlns="http://www.w3.org/2000/svg" xmlns:xlink="http://www.w3.org/1999/xlink" version="1.1" viewBox="-10 0 1010 1000">
   <path fill="currentColor"
d="M235 802l245 -59q0 21 3 46.5t6 40.5q-106 28 -170.5 45.5t-100.5 28t-52.5 17.5t-26.5 13q-6 -17 -19.5 -41t-24.5 -37q14 -9 29 -28.5t15 -53.5v-732h96v300h239v91h-239v369zM685 849h134q22 0 32.5 -14.5t15.5 -52.5t8 -108q17 13 42.5 24.5t44.5 16.5
q-6 82 -18.5 131t-39.5 71t-77 22h-154q-52 0 -81.5 -13.5t-41 -48t-11.5 -95.5v-741h96v301h258v91h-258v351q0 42 9 53.5t41 11.5z" />
</svg>
