<?xml version="1.0" standalone="no"?>
<!DOCTYPE svg PUBLIC "-//W3C//DTD SVG 1.1//EN" "http://www.w3.org/Graphics/SVG/1.1/DTD/svg11.dtd" >
<svg xmlns="http://www.w3.org/2000/svg" xmlns:xlink="http://www.w3.org/1999/xlink" version="1.1" viewBox="-10 0 1010 1000">
   <path fill="currentColor"
d="M888 367l-68 76q-57 -35 -133.5 -73t-164.5 -75q-93 44 -196 79t-208 59q-7 -18 -22.5 -43t-26.5 -39q86 -18 171.5 -44t164.5 -58q-143 -55 -281 -90l69 -69q78 20 161 48t165 60q69 -35 127 -74t98 -82l91 50q-43 41 -96 78.5t-112 70.5q153 66 261 126zM695 412l96 35
q-41 80 -94.5 147.5t-117.5 121.5q81 54 178 92t206 60q-16 16 -34 43t-29 47q-233 -52 -402 -180q-86 58 -187 101t-214 74q-9 -17 -27 -44t-32 -43q110 -25 206 -62t178 -88q-61 -56 -111.5 -123t-90.5 -143l85 -32q72 139 195 241q124 -98 195 -247z" />
</svg>
