<?xml version="1.0" standalone="no"?>
<!DOCTYPE svg PUBLIC "-//W3C//DTD SVG 1.1//EN" "http://www.w3.org/Graphics/SVG/1.1/DTD/svg11.dtd" >
<svg xmlns="http://www.w3.org/2000/svg" xmlns:xlink="http://www.w3.org/1999/xlink" version="1.1" viewBox="-10 0 1010 1000">
   <path fill="currentColor"
d="M254 655l93 32q-28 43 -65 87t-76 83t-75 69q-15 -13 -40.5 -30.5t-42.5 -27.5q56 -39 112.5 -97t93.5 -116zM807 569l-242 18v261q0 37 -10 59t-39 33q-28 11 -68.5 13.5t-94.5 2.5q-4 -20 -14.5 -48.5t-21.5 -47.5q41 2 78.5 2.5t49.5 -0.5q13 0 17 -3.5t4 -12.5v-252
q-94 7 -153.5 11.5t-93 8t-51.5 7t-30 7.5q-3 -14 -13.5 -44t-19.5 -50q29 -5 61.5 -20t79.5 -42q23 -11 66 -37.5t95 -62.5q-70 4 -113.5 7.5t-68 6.5t-37.5 6t-21 6q-4 -15 -13 -44.5t-18 -48.5q17 -3 35 -15t40 -31q17 -13 51.5 -45t75 -76.5t73.5 -92.5l93 46
q-47 58 -101 111.5t-109 97.5l231 -13q41 -31 81 -64.5t77 -67.5l85 63q-102 89 -211.5 164t-218.5 135l407 -24q-19 -23 -40 -46t-40 -42l77 -42q36 35 74.5 77.5t72.5 83.5t54 75l-84 47q-10 -17 -22.5 -36t-29.5 -41zM641 698l79 -45q39 32 82 71t81 78t62 71l-83 52
q-22 -31 -59 -71t-79.5 -81t-82.5 -75z" />
</svg>
