<?xml version="1.0" standalone="no"?>
<!DOCTYPE svg PUBLIC "-//W3C//DTD SVG 1.1//EN" "http://www.w3.org/Graphics/SVG/1.1/DTD/svg11.dtd" >
<svg xmlns="http://www.w3.org/2000/svg" xmlns:xlink="http://www.w3.org/1999/xlink" version="1.1" viewBox="-10 0 1010 1000">
   <path fill="currentColor"
d="M280 194l-75 48q-12 -21 -32 -49t-42.5 -57.5t-43.5 -53.5l72 -40q32 37 66.5 79t54.5 73zM252 513l49 17q-7 58 -20 110t-30 97q32 51 81.5 76.5t117 33.5t153.5 8q52 0 116.5 -2t129 -5.5t117.5 -8.5q-10 16 -18.5 45t-13.5 49q-73 4 -161 6t-171 2q-94 0 -166.5 -9.5
t-126.5 -36t-94 -77.5q-25 47 -55.5 84t-65.5 64q-10 -15 -30.5 -36.5t-35.5 -31.5q65 -45 109.5 -123.5t65.5 -186.5h-75q-16 0 -33.5 4.5t-23.5 10.5q-4 -17 -15 -44t-18 -40q11 -3 23 -9.5t25 -21.5q9 -10 25 -33t35.5 -52.5t37.5 -57.5h-134v-78h187l15 -6l64 25
q-18 29 -44 69.5t-54 83t-54 76.5h73z" />
</svg>
