<?xml version="1.0" standalone="no"?>
<!DOCTYPE svg PUBLIC "-//W3C//DTD SVG 1.1//EN" "http://www.w3.org/Graphics/SVG/1.1/DTD/svg11.dtd" >
<svg xmlns="http://www.w3.org/2000/svg" xmlns:xlink="http://www.w3.org/1999/xlink" version="1.1" viewBox="-10 0 1010 1000">
   <path fill="currentColor"
d="M773 52l84 22q-19 37 -39.5 72t-39.5 60l-77 -21q18 -27 38.5 -65.5t33.5 -67.5zM353 562l75 18q-22 68 -53.5 136t-62.5 115q-13 -8 -34.5 -17.5t-35.5 -15.5q34 -45 63 -109t48 -127zM658 428l-41 -26q24 -21 53.5 -52.5t50.5 -58.5h-179v137h116zM330 428h123v-137
h-181q29 25 56.5 54.5t43.5 51.5zM945 210v81h-193l49 29q-24 29 -52 57t-54 51h168v426q0 34 -9 52.5t-32 29.5q-25 10 -62 12.5t-90 2.5q-4 -18 -12.5 -41.5t-18.5 -39.5q39 1 71.5 1h43.5q11 -1 15 -5t4 -14v-346h-231v439h-89v-439h-227v453h-89v-531h158
q-17 -24 -42.5 -52.5t-49.5 -50.5l51 -34h-200v-81h166q-12 -28 -33 -62t-41 -61l74 -34q24 29 47.5 64.5t33.5 63.5l-56 29h113v-169h85v169h111v-169h86v169h305zM746 776l-73 27q-10 -30 -28.5 -68.5t-39.5 -79.5t-41 -75l68 -25q22 35 43.5 75t40.5 78t30 68z" />
</svg>
