<?xml version="1.0" standalone="no"?>
<!DOCTYPE svg PUBLIC "-//W3C//DTD SVG 1.1//EN" "http://www.w3.org/Graphics/SVG/1.1/DTD/svg11.dtd" >
<svg xmlns="http://www.w3.org/2000/svg" xmlns:xlink="http://www.w3.org/1999/xlink" version="1.1" viewBox="-10 0 1010 1000">
   <path fill="currentColor"
d="M816 82l105 35q-33 60 -73 121t-80.5 115.5t-77.5 96.5l-93 -38q37 -42 77.5 -98.5t78 -117t63.5 -114.5zM74 159l85 -36q28 37 54.5 80t48 84.5t31.5 75.5l-92 42q-9 -34 -29 -76.5t-45.5 -87t-52.5 -82.5zM353 95l88 -31q23 39 44.5 83t38 86.5t24.5 75.5l-96 36
q-6 -33 -21.5 -76.5t-35.5 -89t-42 -84.5z" />
</svg>
