<?xml version="1.0" standalone="no"?>
<!DOCTYPE svg PUBLIC "-//W3C//DTD SVG 1.1//EN" "http://www.w3.org/Graphics/SVG/1.1/DTD/svg11.dtd" >
<svg xmlns="http://www.w3.org/2000/svg" xmlns:xlink="http://www.w3.org/1999/xlink" version="1.1" viewBox="-10 0 397 1000">
   <path fill="currentColor"
d="M100 73q53 0 53 65q0 21 -4.5 57t-10 71.5t-8.5 55.5l-14 85h-33l-14 -85q-2 -15 -5.5 -39.5t-7.5 -52t-7 -52.5t-3 -40q0 -65 54 -65zM287 73q54 0 54 65q0 21 -4.5 57t-10 71.5t-8.5 55.5l-15 85h-33l-14 -85q-2 -15 -5.5 -39.5t-7.5 -52t-7 -52.5t-3 -40q0 -65 54 -65
z" />
</svg>
