<?xml version="1.0" standalone="no"?>
<!DOCTYPE svg PUBLIC "-//W3C//DTD SVG 1.1//EN" "http://www.w3.org/Graphics/SVG/1.1/DTD/svg11.dtd" >
<svg xmlns="http://www.w3.org/2000/svg" xmlns:xlink="http://www.w3.org/1999/xlink" version="1.1" viewBox="-10 0 1010 1000">
   <path fill="currentColor"
d="M459 405h17q13 0 38 -1.5t54 -3.5t53.5 -4.5t36.5 -4.5q22 -3 32 -14t23 -11q11 0 27.5 10.5t33 26t28 31t11.5 26.5t-10 18.5t-23.5 14t-22.5 16.5q-35 39 -82 91.5t-104 108.5q24 19 43 36t32 31q17 18 32 41.5t15 43.5t-9.5 34.5t-30.5 14.5t-31.5 -13t-24.5 -37
q-47 -77 -108 -132t-136 -110l14 -19q50 19 92 40.5t76 44.5q52 -63 93 -124t62 -104q8 -17 -11 -17q-17 0 -51 3.5t-67.5 7t-52.5 6.5q-16 3 -25 6t-18 3q-6 0 -14.5 -6t-19.5 -16q-13 18 -27 35t-28 33q-48 56 -108.5 117.5t-129.5 109.5l-19 -19q114 -116 205 -242
q26 -35 51.5 -76.5t46.5 -80.5t32 -68q5 -11 3.5 -19t-12.5 -18q-11 -11 -26.5 -19t-32.5 -15l8 -20q32 1 56.5 5t48.5 17q15 7 30.5 19.5t26.5 26t11 24.5q0 17 -13.5 25t-27.5 30q-13 19 -30 44.5t-37 52.5z" />
</svg>
