<?xml version="1.0" standalone="no"?>
<!DOCTYPE svg PUBLIC "-//W3C//DTD SVG 1.1//EN" "http://www.w3.org/Graphics/SVG/1.1/DTD/svg11.dtd" >
<svg xmlns="http://www.w3.org/2000/svg" xmlns:xlink="http://www.w3.org/1999/xlink" version="1.1" viewBox="-10 0 1010 1000">
   <path fill="currentColor"
d="M753 118l13 -15q74 33 108 70q17 17 23.5 32t5.5 29q-1 15 -9.5 22t-20.5 6t-20 -15.5t-22 -34.5q-13 -21 -30.5 -44.5t-47.5 -49.5zM290 526l24 11q-7 20 -17 48t-21 58t-20 54.5t-14 38.5q-7 25 -10.5 42t-3.5 29q0 24 7.5 47.5t7.5 43.5q0 17 -9 27.5t-26 10.5
q-15 0 -28 -11.5t-25 -29.5q-22 -32 -40.5 -95.5t-18.5 -142.5q0 -56 8 -108t19.5 -95.5t19.5 -73.5q10 -36 17 -65t8 -56q0 -29 -16 -56.5t-41 -55.5l15 -12q19 7 31.5 13t27.5 18q12 8 29 26.5t30 42t13 47.5q0 17 -10.5 36.5t-28.5 61.5q-13 29 -29 71.5t-27.5 92
t-11.5 101.5q0 34 4.5 56t11.5 36q10 22 24 0q8 -13 21 -40t28 -59.5t28.5 -62.5t22.5 -49zM661 731v-4q-46 -12 -104 -12q-30 0 -58.5 8t-47 24t-18.5 39q0 32 29.5 46.5t71.5 14.5q54 0 81 -13t36.5 -39t9.5 -64zM712 406v10q0 75 5 143t9 122q61 16 102 42t64 49
q32 29 32 58q0 38 -31 38q-13 0 -24.5 -9t-28.5 -25q-25 -25 -52 -45t-57 -35q1 6 1 12v11q0 61 -41 98t-136 37q-44 0 -81.5 -14t-59.5 -41t-22 -65q0 -44 27.5 -72.5t73.5 -42t101 -13.5q17 0 33.5 1t31.5 3q-2 -53 -5.5 -121.5t-4.5 -129.5q-27 4 -54.5 6t-53.5 2
q-31 0 -57 -6.5t-50.5 -28t-51.5 -64.5l14 -13q32 23 65.5 36.5t72.5 13.5q32 0 60.5 -3t54.5 -8v-71v-53q0 -21 -4.5 -27.5t-15.5 -10.5q-29 -9 -71 -12l-2 -19q17 -8 38.5 -16.5t39.5 -8.5q25 0 49 8.5t40 21t16 24.5q0 16 -5.5 27.5t-10.5 42.5q-3 15 -5 35.5t-4 43.5
q14 -5 25 -8.5t20 -7.5q38 -14 54 -22t23 -8q18 0 38.5 9.5t20.5 26.5t-12 25.5t-39 19.5q-19 7 -54 16.5t-78 17.5zM830 57l12 -15q74 27 112 58q34 34 32 61q-2 30 -29 28q-12 0 -20.5 -14t-22.5 -33q-14 -20 -33 -40.5t-51 -44.5z" />
</svg>
