<?xml version="1.0" standalone="no"?>
<!DOCTYPE svg PUBLIC "-//W3C//DTD SVG 1.1//EN" "http://www.w3.org/Graphics/SVG/1.1/DTD/svg11.dtd" >
<svg xmlns="http://www.w3.org/2000/svg" xmlns:xlink="http://www.w3.org/1999/xlink" version="1.1" viewBox="-10 0 1010 1000">
   <path fill="currentColor"
d="M472 484q26 15 53.5 41.5t43 57.5t4.5 60q-21 60 -50 -19q-14 -38 -37.5 -70t-51.5 -57q-28 -26 -18 -32.5t56 19.5zM381 828q19 -2 50.5 -4.5t69 -4.5t74 -3t65.5 1q2 -14 4 -29.5t3 -34.5q2 -37 3.5 -89t2.5 -105.5t1.5 -95.5t0.5 -58q-1 -37 -3.5 -53t-13 -21
t-36.5 -8q-15 -2 -44 -2t-64.5 3t-70 9t-60.5 15q-1 6 -1.5 14t-1.5 16q-3 25 -4.5 73.5t-3 107.5t-2 116.5t-0.5 100.5q0 25 0.5 36.5t7 14t23.5 1.5zM723 304q8 8 8 15t-12 22q-6 7 -9.5 37.5t-5.5 71t-2.5 79.5t-1.5 65q0 21 -0.5 56.5t-1 77.5t-1.5 83t-3 74
q-2 37 -17 41.5t-36 -38.5q-5 -10 -5 -28h-47t-68 0.5t-72.5 2.5t-61.5 6t-35 11q-25 19 -33 17t-22 -31q-7 -17 -7.5 -26.5t3 -23t8.5 -40.5q7 -38 6 -107t-2 -175q0 -23 -0.5 -53t-3 -59t-8 -51t-14.5 -30q-17 -15 -14.5 -23.5t15.5 -6.5q15 1 30 7.5t31 14.5q3 1 6 2.5
t5 3.5q29 -5 70 -8t81.5 -5t70.5 -3.5t37 -4.5q23 -9 34.5 -12t18.5 -2t16 7q11 7 22 15t21 18z" />
</svg>
