<?xml version="1.0" standalone="no"?>
<!DOCTYPE svg PUBLIC "-//W3C//DTD SVG 1.1//EN" "http://www.w3.org/Graphics/SVG/1.1/DTD/svg11.dtd" >
<svg xmlns="http://www.w3.org/2000/svg" xmlns:xlink="http://www.w3.org/1999/xlink" version="1.1" viewBox="-10 0 1010 1000">
   <path fill="currentColor"
d="M717 831q2 25 -5.5 39t-21.5 14q-19 0 -26.5 -14t-24.5 -48t-52.5 -86.5t-79.5 -111.5q-56 68 -129 133.5t-164 110.5q-30 15 -39.5 13.5t-2.5 -12.5t25 -24q81 -56 151 -125.5t124 -139.5q-49 -62 -99 -118.5t-94 -93.5q-26 -23 -18.5 -36t35.5 5q24 15 58 45t73 69.5
t78 83.5q41 -58 68.5 -109t39.5 -89.5t5 -56.5q-11 -35 2 -40t53 28q32 25 34 42t-18 36q-3 3 -20.5 36t-49 84.5t-76.5 111.5q45 52 83.5 102t63 89.5t27.5 61.5z" />
</svg>
