<?xml version="1.0" standalone="no"?>
<!DOCTYPE svg PUBLIC "-//W3C//DTD SVG 1.1//EN" "http://www.w3.org/Graphics/SVG/1.1/DTD/svg11.dtd" >
<svg xmlns="http://www.w3.org/2000/svg" xmlns:xlink="http://www.w3.org/1999/xlink" version="1.1" viewBox="-10 0 1010 1000">
   <path fill="currentColor"
d="M820 135l52 -67l16 13t38.5 31.5t40.5 35.5q-4 16 -27 16h-529q-11 39 -28.5 90.5t-36 104t-34.5 95.5h421l51 -50l90 76q-11 14 -43 17q-8 69 -20.5 136t-28.5 124.5t-36 99.5t-43 60q-28 22 -64 33t-89 11q1 -20 -5.5 -36.5t-23.5 -26.5q-11 -8 -36.5 -16t-57 -15
t-62.5 -11l1 -16q27 3 61.5 6t68 5.5t60 4t37.5 1.5q32 0 50 -13q16 -12 30.5 -47t27.5 -85t23.5 -109t17.5 -120h-440v1h8l-36 40l-85 -62q8 -6 19 -11.5t23 -9.5q16 -39 33.5 -90t33 -101t24.5 -86h-259l-9 -29h766z" />
</svg>
