<?xml version="1.0" standalone="no"?>
<!DOCTYPE svg PUBLIC "-//W3C//DTD SVG 1.1//EN" "http://www.w3.org/Graphics/SVG/1.1/DTD/svg11.dtd" >
<svg xmlns="http://www.w3.org/2000/svg" xmlns:xlink="http://www.w3.org/1999/xlink" version="1.1" viewBox="-10 0 1010 1000">
   <path fill="currentColor"
d="M800 155l55 -70l17.5 13.5t41.5 32.5t43 37q-3 16 -26 16h-482q-1 54 -4.5 108t-11.5 108h274l45 -48l86 73q-5 5 -15 9.5t-27 6.5q-7 118 -20.5 213.5t-33 160.5t-46.5 90q-25 21 -56.5 31.5t-73.5 10.5q0 -18 -4.5 -33t-17.5 -25q-14 -11 -49 -20t-70 -15l1 -17
q27 3 61.5 6t65 5.5t43.5 2.5q16 0 25 -3t19 -10q18 -16 33 -73t26 -144t17 -191h-287q-16 98 -55 192.5t-114.5 180.5t-201.5 160l-13 -16q89 -68 146 -142t90.5 -151.5t49 -156.5t20.5 -158t6 -155h-303l-9 -29h755z" />
</svg>
