<?xml version="1.0" standalone="no"?>
<!DOCTYPE svg PUBLIC "-//W3C//DTD SVG 1.1//EN" "http://www.w3.org/Graphics/SVG/1.1/DTD/svg11.dtd" >
<svg xmlns="http://www.w3.org/2000/svg" xmlns:xlink="http://www.w3.org/1999/xlink" version="1.1" viewBox="-10 0 1010 1000">
   <path fill="currentColor"
d="M929 288h-278q-3 89 -14 167t-37 145.5t-76 125.5q91 58 203.5 94.5t242.5 56.5l-2 11q-62 10 -81 71q-127 -26 -230 -71t-184 -112q-67 57 -171.5 103.5t-256.5 82.5l-9 -19q142 -43 236.5 -95t153.5 -114q-71 -71 -121 -166.5t-79 -219.5l17 -10q32 112 88.5 198
t135.5 149q58 -81 77.5 -180t22.5 -217h-509l-9 -29h519q1 -50 0.5 -105t-0.5 -114l123 12q-1 11 -9 19t-27 10q-1 46 -1 91t-2 87h145l57 -71l17.5 13.5t41.5 33t44 37.5q-4 16 -28 16z" />
</svg>
