<?xml version="1.0" standalone="no"?>
<!DOCTYPE svg PUBLIC "-//W3C//DTD SVG 1.1//EN" "http://www.w3.org/Graphics/SVG/1.1/DTD/svg11.dtd" >
<svg xmlns="http://www.w3.org/2000/svg" xmlns:xlink="http://www.w3.org/1999/xlink" version="1.1" viewBox="-10 0 1010 1000">
   <path fill="currentColor"
d="M917 144h-381v183h197l52 -70l16.5 13.5t39.5 32.5t41 37q-4 16 -27 16h-319v182h255l45 -45l84 70q-10 12 -39 15q-7 137 -25.5 228.5t-51.5 119.5q-41 35 -118 35q0 -17 -4 -32t-16 -23q-13 -11 -45.5 -19.5t-66.5 -13.5l1 -16q25 2 57.5 4.5t60.5 4.5t40 2
q25 0 37 -10q18 -17 30.5 -96.5t19.5 -194.5h-549l-28 36l-90 -48q5 -6 13.5 -12.5t16.5 -12.5v-297l115 12q-1 10 -9 16.5t-25 9.5v267h211v-394h-390l-9 -29h731l55 -68l17.5 13t41.5 32t42 36q-3 16 -26 16z" />
</svg>
