<?xml version="1.0" standalone="no"?>
<!DOCTYPE svg PUBLIC "-//W3C//DTD SVG 1.1//EN" "http://www.w3.org/Graphics/SVG/1.1/DTD/svg11.dtd" >
<svg xmlns="http://www.w3.org/2000/svg" xmlns:xlink="http://www.w3.org/1999/xlink" version="1.1" viewBox="-10 0 1010 1000">
   <path fill="currentColor"
d="M454 323l122 12q-1 10 -9 17.5t-28 10.5v573q0 7 -22.5 17t-46.5 10h-16v-640zM511 106q-43 76 -114 157t-162 153t-196 122l-7 -14q67 -45 130 -103t117 -123t95 -131.5t64 -127.5l133 35q-3 9 -12 14t-31 7q48 69 115 132t150 114.5t175 87.5l-2 15q-27 9 -43.5 29.5
t-24.5 45.5q-130 -74 -229.5 -180t-157.5 -233z" />
</svg>
