<?xml version="1.0" standalone="no"?>
<!DOCTYPE svg PUBLIC "-//W3C//DTD SVG 1.1//EN" "http://www.w3.org/Graphics/SVG/1.1/DTD/svg11.dtd" >
<svg xmlns="http://www.w3.org/2000/svg" xmlns:xlink="http://www.w3.org/1999/xlink" version="1.1" viewBox="-10 0 1010 1000">
   <path fill="currentColor"
d="M732 89l128 27q-3 10 -12 15.5t-30 5.5q-33 159 -94 300.5t-172 255.5q89 64 195 110t227 75l-3 11q-68 5 -94 66q-114 -35 -210 -86.5t-175 -121.5q-82 69 -191 123t-250 90l-8 -15q131 -44 231 -104t175 -134q-100 -104 -165 -244t-94 -324l17 -10q35 169 109.5 298.5
t184.5 223.5q98 -116 152 -259t79 -303z" />
</svg>
