<?xml version="1.0" standalone="no"?>
<!DOCTYPE svg PUBLIC "-//W3C//DTD SVG 1.1//EN" "http://www.w3.org/Graphics/SVG/1.1/DTD/svg11.dtd" >
<svg xmlns="http://www.w3.org/2000/svg" xmlns:xlink="http://www.w3.org/1999/xlink" version="1.1" viewBox="-10 0 1010 1000">
   <path fill="currentColor"
d="M867 357l87 74q-6 6 -15.5 10t-26.5 6q-6 122 -18.5 219.5t-31 162t-45.5 88.5q-46 43 -130 43q1 -19 -4 -34.5t-17 -23.5q-14 -11 -47.5 -20.5t-69.5 -16.5l1 -15q27 2 61 5t63 5t41 2q27 0 43 -13q17 -15 31 -72.5t24 -146t16 -195.5h-174l-37 40l-85 -62
q18 -13 43 -21q13 -33 27 -76t27.5 -85.5t21.5 -75.5h-257q-2 86 -8.5 172.5t-24.5 171.5t-54.5 165.5t-99 155t-157.5 139.5l-14 -16q98 -88 152.5 -185t79.5 -199t31 -204t7 -200h-216l-9 -29h565l43 -44l87 80q-5 7 -17 10.5t-27 4.5q-9 30 -22.5 71t-27.5 82.5t-26 75.5
h163z" />
</svg>
