<?xml version="1.0" standalone="no"?>
<!DOCTYPE svg PUBLIC "-//W3C//DTD SVG 1.1//EN" "http://www.w3.org/Graphics/SVG/1.1/DTD/svg11.dtd" >
<svg xmlns="http://www.w3.org/2000/svg" xmlns:xlink="http://www.w3.org/1999/xlink" version="1.1" viewBox="-10 0 1010 1000">
   <path fill="currentColor"
d="M622 161l87 81q-6 7 -15 10t-28 5q-8 34 -17 67t-20 65q14 97 50.5 187.5t109 166.5t190.5 133l-2 11q-31 4 -49.5 21.5t-26.5 53.5q-74 -47 -124.5 -107.5t-83.5 -130.5t-51.5 -145.5t-27.5 -150.5q-44 119 -116.5 221.5t-184 182t-273.5 131.5l-9 -14
q160 -71 270 -177.5t177 -241t98 -289.5h-222q-111 234 -290 356l-12 -9q59 -62 111.5 -147.5t94 -187.5t65.5 -215l126 35q-3 9 -12.5 15t-26.5 6q-10 31 -21 60t-23 58h205z" />
</svg>
