<?xml version="1.0" standalone="no"?>
<!DOCTYPE svg PUBLIC "-//W3C//DTD SVG 1.1//EN" "http://www.w3.org/Graphics/SVG/1.1/DTD/svg11.dtd" >
<svg xmlns="http://www.w3.org/2000/svg" xmlns:xlink="http://www.w3.org/1999/xlink" version="1.1" viewBox="-10 0 1010 1000">
   <path fill="currentColor"
d="M916 667l3 172q23 7 30.5 15.5t7.5 20.5q0 16 -10.5 26t-38 16t-78.5 8.5t-132 2.5h-146q-53 0 -83.5 -8t-43.5 -28.5t-13 -59.5v-304l-357 38l-10 -27l367 -40v-283q-81 16 -165 29t-167 21l-4 -18q92 -16 189.5 -40t189.5 -52.5t170.5 -58.5t133.5 -59l92 76
q-14 17 -56 1q-61 22 -138 43t-163 41v22v269l290 -31l53 -82l20 12.5t48 29.5t50 33q-2 17 -24 20l-437 47v296q0 20 12.5 29t54.5 9h141q47 0 80 -1t49 -3q12 -1 18 -5t11 -12q8 -15 19.5 -60t24.5 -105h12z" />
</svg>
