<?xml version="1.0" standalone="no"?>
<!DOCTYPE svg PUBLIC "-//W3C//DTD SVG 1.1//EN" "http://www.w3.org/Graphics/SVG/1.1/DTD/svg11.dtd" >
<svg xmlns="http://www.w3.org/2000/svg" xmlns:xlink="http://www.w3.org/1999/xlink" version="1.1" viewBox="-10 0 1010 1000">
   <path fill="currentColor"
d="M408 35l125 57q-4 9 -14.5 14t-27.5 2q-84 155 -194.5 272.5t-233.5 191.5l-12 -11q64 -58 130 -140.5t125 -181.5t102 -204zM636 593l12 -8q107 59 168 119t85.5 112t21 87t-25.5 46t-53 -12q-7 -29 -21 -59.5t-31 -62.5q-105 18 -254.5 40.5t-331.5 47.5q-12 16 -27 21
l-37 -109l15.5 -4t23.5 -11q38 -33 82 -81.5t89.5 -106t87 -117.5t75 -115.5t53.5 -100.5l118 67q-4 7 -14.5 12t-27.5 1q-32 50 -80 109.5t-105.5 122t-119 121t-120.5 106.5q62 -2 150 -6t192.5 -9.5t216.5 -11.5q-31 -53 -69 -105.5t-73 -92.5z" />
</svg>
