<?xml version="1.0" standalone="no"?>
<!DOCTYPE svg PUBLIC "-//W3C//DTD SVG 1.1//EN" "http://www.w3.org/Graphics/SVG/1.1/DTD/svg11.dtd" >
<svg xmlns="http://www.w3.org/2000/svg" xmlns:xlink="http://www.w3.org/1999/xlink" version="1.1" viewBox="-10 0 1010 1000">
   <path fill="currentColor"
d="M811 225l52 -68l17 13t40 32t41 36q-4 16 -27 16h-432v184h233l49 -63l15.5 12.5t37.5 30t39 34.5q-4 16 -27 16h-347v184h268l53 -67l16.5 13t39.5 31.5t41 36.5q-4 16 -27 16h-391v254q0 4 -18 14.5t-50 10.5h-14v-707h-131q-107 182 -245 291l-13 -10
q48 -59 95.5 -138.5t89.5 -172t71 -188.5l121 43q-4 9 -13 14.5t-26 4.5q-14 33 -30 64.5t-33 62.5h505z" />
</svg>
