<?xml version="1.0" standalone="no"?>
<!DOCTYPE svg PUBLIC "-//W3C//DTD SVG 1.1//EN" "http://www.w3.org/Graphics/SVG/1.1/DTD/svg11.dtd" >
<svg xmlns="http://www.w3.org/2000/svg" xmlns:xlink="http://www.w3.org/1999/xlink" version="1.1" viewBox="-10 0 1010 1000">
   <path fill="currentColor"
d="M801 524l60 -74l18.5 14.5t44 34.5t46.5 39q-4 16 -28 16h-400v292q0 31 -9 55.5t-37 40t-87 20.5q-2 -41 -26 -60q-15 -10 -39 -18t-67 -13v-15l20 1.5t48 3t53 3t34 1.5q16 0 21.5 -5.5t5.5 -17.5v-288h-416l-8 -30h424v-361q-90 9 -184 14.5t-184 5.5l-2 -19
q91 -7 188 -20.5t190 -31.5t173.5 -38t137.5 -40l85 81q-17 15 -57 -2q-114 24 -264 41v370h259zM145 234l12 -6q77 40 118 83t54 81.5t5.5 65.5t-27.5 34t-45 -13q-6 -40 -24.5 -84t-43.5 -86.5t-49 -74.5zM644 497l-14 -9q21 -33 44 -78.5t45.5 -97t40.5 -101.5l114 49
q-4 7 -13.5 12t-25.5 4q-41 63 -91.5 121.5t-99.5 99.5z" />
</svg>
