<?xml version="1.0" standalone="no"?>
<!DOCTYPE svg PUBLIC "-//W3C//DTD SVG 1.1//EN" "http://www.w3.org/Graphics/SVG/1.1/DTD/svg11.dtd" >
<svg xmlns="http://www.w3.org/2000/svg" xmlns:xlink="http://www.w3.org/1999/xlink" version="1.1" viewBox="-10 0 1010 1000">
   <path fill="currentColor"
d="M908 627l-5 186q29 9 39 15t10 20q0 37 -69.5 50.5t-226.5 13.5h-244q-159 0 -236 -31t-88 -106q-6 -45 26.5 -98.5t104.5 -123.5t184.5 -164t265.5 -220h-548l-9 -30h582l43 -42l89 84q-9 6 -22.5 9.5t-38.5 5.5q-213 166 -344 278t-189 181t-52 106q8 40 59 55.5
t163 15.5h264q68 0 101 -2.5t45.5 -8t18.5 -12.5q19 -25 33.5 -70.5t30.5 -113.5z" />
</svg>
