<?xml version="1.0" standalone="no"?>
<!DOCTYPE svg PUBLIC "-//W3C//DTD SVG 1.1//EN" "http://www.w3.org/Graphics/SVG/1.1/DTD/svg11.dtd" >
<svg xmlns="http://www.w3.org/2000/svg" xmlns:xlink="http://www.w3.org/1999/xlink" version="1.1" viewBox="-10 0 1010 1000">
   <path fill="currentColor"
d="M904 722l3 107q28 8 38.5 16t10.5 22q0 18 -14 29.5t-51.5 17.5t-106 8.5t-176.5 2.5l-200 -1q-68 0 -109.5 -9t-60 -34t-18.5 -73v-410l-165 43l-17 -27l182 -47v-312l121 13q-1 10 -9.5 18t-27.5 10v250l444 -115l49 -50l83 88q-9 10 -39 13q-15 61 -40 134t-57 144
t-69 127l-13 -9q20 -61 37 -134.5t29.5 -147.5t18.5 -135l-443 115v416q0 31 20.5 43.5t82.5 12.5h208q138 0 186 -5q30 -3 42 -14q8 -11 21 -37t28 -70h12z" />
</svg>
