<?xml version="1.0" standalone="no"?>
<!DOCTYPE svg PUBLIC "-//W3C//DTD SVG 1.1//EN" "http://www.w3.org/Graphics/SVG/1.1/DTD/svg11.dtd" >
<svg xmlns="http://www.w3.org/2000/svg" xmlns:xlink="http://www.w3.org/1999/xlink" version="1.1" viewBox="-10 0 1010 1000">
   <path fill="currentColor"
d="M827 72l90 81q-7 6 -17.5 8t-27.5 3q-39 27 -89 59t-104 62.5t-108 55.5l6 1q-2 10 -9.5 17t-24.5 9v478q0 32 -9 55.5t-39 37.5t-92 20q-3 -20 -9.5 -34t-21.5 -24q-15 -11 -42 -18.5t-74 -13.5v-15l23 1.5t54.5 3.5t60 3.5t38.5 1.5q27 0 27 -23v-511l80 8
q39 -28 78.5 -60.5t75.5 -65.5t63 -60h-638l-9 -28h662z" />
</svg>
