<?xml version="1.0" standalone="no"?>
<!DOCTYPE svg PUBLIC "-//W3C//DTD SVG 1.1//EN" "http://www.w3.org/Graphics/SVG/1.1/DTD/svg11.dtd" >
<svg xmlns="http://www.w3.org/2000/svg" xmlns:xlink="http://www.w3.org/1999/xlink" version="1.1" viewBox="-10 0 1010 1000">
   <path fill="currentColor"
d="M833 167h-679l-8 -30h554l56 -71l17.5 13.5t42.5 33.5t45 38q-4 16 -28 16zM800 410l58 -73l18 14t43 34t45 38q-4 16 -28 16h-473l100 54q-4 7 -14 12t-25 2q-25 36 -62.5 79t-81 87.5t-90 86t-91.5 75.5q64 -2 154.5 -6.5t199.5 -10.5t226 -13q-37 -62 -82 -120.5
t-87 -104.5l13 -7q96 52 157 104.5t93.5 100.5t42 86.5t1.5 63t-28.5 29.5t-46.5 -14q-7 -27 -20 -56t-30 -60q-109 19 -262 41t-338 47q-12 16 -27 21l-37 -107l13.5 -3.5t20.5 -9.5q36 -29 77 -75.5t80.5 -100.5t72 -106.5t51.5 -94.5h-396l-8 -29h761z" />
</svg>
