<?xml version="1.0" standalone="no"?>
<!DOCTYPE svg PUBLIC "-//W3C//DTD SVG 1.1//EN" "http://www.w3.org/Graphics/SVG/1.1/DTD/svg11.dtd" >
<svg xmlns="http://www.w3.org/2000/svg" xmlns:xlink="http://www.w3.org/1999/xlink" version="1.1" viewBox="-10 0 1010 1000">
   <path fill="currentColor"
d="M668 485h-231q-23 105 -46 206t-43 178h320v-384zM811 869l55 -76l17.5 14.5t41.5 35.5t42 39q-4 16 -27 16h-895l-9 -29h228q20 -77 44 -178.5t46 -205.5h-202l-9 -30h217q16 -73 30 -141.5t24 -126.5h-307l-8 -29h650l56 -73l17.5 14t41.5 34t43 38q-4 16 -28 16h-381
q-11 58 -25 126.5t-30 141.5h215l44 -46l89 69q-12 13 -42 21v370h62z" />
</svg>
