<?xml version="1.0" standalone="no"?>
<!DOCTYPE svg PUBLIC "-//W3C//DTD SVG 1.1//EN" "http://www.w3.org/Graphics/SVG/1.1/DTD/svg11.dtd" >
<svg xmlns="http://www.w3.org/2000/svg" xmlns:xlink="http://www.w3.org/1999/xlink" version="1.1" viewBox="-10 0 1010 1000">
   <path fill="currentColor"
d="M802 884l57 -72l18 13.5t43 33.5t44 38q-4 16 -26 16h-890l-8 -29h578l62 -513h-335q-18 69 -38 138.5t-38.5 131.5t-33.5 107q-14 8 -39 8.5t-52 -8.5q16 -38 34.5 -94t38.5 -121t38.5 -132.5t33.5 -128.5t24 -108h-227l-9 -30h688l57 -71l17.5 14t42.5 33.5t45 37.5
q-4 16 -28 16h-502q-8 37 -19 82.5t-25 95.5h320l42 -48l86 74q-11 11 -38 14l-59 502h98zM352 634l8 -9q79 10 124.5 33.5t63 51.5t14 51t-22 32.5t-44.5 -4.5q-10 -29 -33.5 -58.5t-52.5 -54.5t-57 -42zM389 455l8 -10q75 4 118.5 22.5t60.5 42.5t14.5 45t-20 30.5
t-42.5 -2.5q-12 -23 -35 -47.5t-50.5 -45.5t-53.5 -35z" />
</svg>
