<?xml version="1.0" standalone="no"?>
<!DOCTYPE svg PUBLIC "-//W3C//DTD SVG 1.1//EN" "http://www.w3.org/Graphics/SVG/1.1/DTD/svg11.dtd" >
<svg xmlns="http://www.w3.org/2000/svg" xmlns:xlink="http://www.w3.org/1999/xlink" version="1.1" viewBox="-10 0 1010 1000">
   <path fill="currentColor"
d="M226 802l-14 -16q88 -64 144.5 -134t87.5 -144.5t45 -150.5t17 -151.5t3 -148.5l118 11q-2 10 -9.5 17.5t-25.5 9.5q-1 26 -2 53t-3 54q15 102 51 195t105.5 171t181.5 136l-2 12q-31 5 -50 21t-25 50q-86 -57 -140.5 -135.5t-84.5 -169.5t-45 -187q-9 67 -29.5 134.5
t-60 133t-103 126t-159.5 113.5zM803 878l56 -71l18 13.5t42 33t43 37.5q-3 16 -27 16h-733l-31 42l-94 -55q13 -13 37 -25v-748l118 12q-1 11 -9.5 18.5t-28.5 10.5v716h609z" />
</svg>
