<?xml version="1.0" standalone="no"?>
<!DOCTYPE svg PUBLIC "-//W3C//DTD SVG 1.1//EN" "http://www.w3.org/Graphics/SVG/1.1/DTD/svg11.dtd" >
<svg xmlns="http://www.w3.org/2000/svg" xmlns:xlink="http://www.w3.org/1999/xlink" version="1.1" viewBox="-10 0 1010 1000">
   <path fill="currentColor"
d="M211 162v215q0 66 -4 141.5t-19 154t-48 152.5t-90 136l-14 -10q45 -86 65.5 -183t26 -197t5.5 -194v-286l92 42h580l53 -68l17.5 13.5t41 32t42.5 35.5q-4 16 -27 16h-721zM496 222l120 10q-1 10 -9 18t-26 10q8 105 30 197t65 169.5t113 140.5t175 110l-2 12
q-30 4 -50 21.5t-28 50.5q-104 -60 -167 -144.5t-95.5 -188.5t-46.5 -222q-6 80 -24 156.5t-60 148t-117.5 134.5t-195.5 116l-12 -16q100 -58 162.5 -122.5t97 -135t49 -146.5t17.5 -156t4 -163z" />
</svg>
