<?xml version="1.0" standalone="no"?>
<!DOCTYPE svg PUBLIC "-//W3C//DTD SVG 1.1//EN" "http://www.w3.org/Graphics/SVG/1.1/DTD/svg11.dtd" >
<svg xmlns="http://www.w3.org/2000/svg" xmlns:xlink="http://www.w3.org/1999/xlink" version="1.1" viewBox="-10 0 1010 1000">
   <path fill="currentColor"
d="M600 387l118 12q-1 10 -9 17.5t-28 10.5v509q0 7 -21 16.5t-44 9.5h-16v-575zM307 388l113 11q-1 10 -8 17.5t-25 9.5v109q-1 59 -13 120t-44.5 118t-95.5 105.5t-167 82.5l-8 -14q81 -39 130 -87.5t74.5 -102.5t34.5 -111t9 -112v-146zM527 106q-44 82 -119.5 162
t-170.5 146.5t-200 109.5l-8 -14q69 -38 136 -93.5t125 -120.5t99 -131t59 -126l140 34q-4 16 -42 20q42 71 109 128.5t149.5 101.5t170.5 75l-1 15q-29 7 -48 28t-25 45q-127 -62 -226.5 -158.5t-147.5 -221.5z" />
</svg>
