<?xml version="1.0" standalone="no"?>
<!DOCTYPE svg PUBLIC "-//W3C//DTD SVG 1.1//EN" "http://www.w3.org/Graphics/SVG/1.1/DTD/svg11.dtd" >
<svg xmlns="http://www.w3.org/2000/svg" xmlns:xlink="http://www.w3.org/1999/xlink" version="1.1" viewBox="-10 0 1010 1000">
   <path fill="currentColor"
d="M526 104q-34 68 -85.5 137t-115 133t-135 118t-145.5 93l-9 -13q64 -45 129 -109.5t122.5 -139t99.5 -149t60 -139.5l141 37q-4 16 -43 19q42 80 107.5 148t146 123t167.5 96l-2 15q-29 5 -48.5 26.5t-26.5 46.5q-81 -52 -152.5 -119.5t-125.5 -149t-85 -173.5zM291 648
q114 24 191 56t122.5 65t65 63.5t17.5 53t-19.5 32t-46.5 1.5q-27 -30 -68 -65.5t-88 -71t-94.5 -67.5t-88.5 -56zM415 382q87 25 135.5 58.5t65.5 66.5t11.5 57.5t-26.5 32.5t-49 -9q-13 -32 -38 -68t-54 -70t-55 -60z" />
</svg>
