<?xml version="1.0" standalone="no"?>
<!DOCTYPE svg PUBLIC "-//W3C//DTD SVG 1.1//EN" "http://www.w3.org/Graphics/SVG/1.1/DTD/svg11.dtd" >
<svg xmlns="http://www.w3.org/2000/svg" xmlns:xlink="http://www.w3.org/1999/xlink" version="1.1" viewBox="-10 0 1010 1000">
   <path fill="currentColor"
d="M761 559l55 -68l17.5 13t41.5 32t43 37q-3 16 -27 16h-453l107 61q-4 7 -14 11.5t-26 0.5q-30 29 -75.5 63.5t-97 68t-102.5 60.5q58 -1 137 -3.5t172.5 -6.5t193.5 -8q-31 -41 -66.5 -79.5t-66.5 -67.5l10 -8q100 39 158 82.5t82 83t22.5 68.5t-20.5 38.5t-48 -7.5
q-9 -20 -23 -42.5t-31 -45.5q-98 16 -237.5 35.5t-306.5 39.5q-10 14 -21 19l-40 -101l12 -2.5t19 -6.5q35 -19 73 -50.5t74 -68t65.5 -72t46.5 -62.5h-346l-8 -30h680zM602 385l51 -64l16 12.5t38.5 30t40.5 34.5q-3 16 -27 16h-467l-8 -29h356zM453 35l130 30
q-4 18 -42 19q45 60 113.5 112t150 93.5t165.5 72.5l-1 15q-26 5 -44 24t-23 41q-80 -40 -153.5 -93t-132 -117t-94.5 -135q-36 53 -89 107.5t-117.5 105.5t-134.5 94t-141 74l-7 -15q63 -35 128.5 -86.5t124.5 -111t103 -119t64 -111.5z" />
</svg>
