<?xml version="1.0" standalone="no"?>
<!DOCTYPE svg PUBLIC "-//W3C//DTD SVG 1.1//EN" "http://www.w3.org/Graphics/SVG/1.1/DTD/svg11.dtd" >
<svg xmlns="http://www.w3.org/2000/svg" xmlns:xlink="http://www.w3.org/1999/xlink" version="1.1" viewBox="-10 0 1010 1000">
   <path fill="currentColor"
d="M303 271l-8 -14q56 -26 112.5 -63t104 -77t75.5 -74l100 55q-11 16 -48 9q-37 29 -91.5 60t-117.5 58t-127 46zM229 307l44 16q-5 14 -30 18v594q-1 4 -21.5 14.5t-43.5 10.5h-15v-549q-56 80 -122 141l-14 -10q43 -61 84 -141.5t76 -173t58 -187.5l119 37q-3 8 -12.5 14
t-26.5 5q-21 56 -44.5 109t-51.5 102zM452 644l100 50q-4 8 -12 11.5t-25 -0.5q-24 34 -60.5 72.5t-80 74.5t-90.5 65l-11 -12q37 -36 71.5 -82t62.5 -93t45 -86zM763 423l12 -7q72 35 110 73t50 71.5t5.5 56.5t-25 29t-41.5 -12q-3 -18 -10 -37.5t-16 -38.5q-36 5 -79 11.5
t-91 13.5v282q0 28 -7.5 49t-31.5 34t-73 18q-1 -17 -5 -30.5t-12 -20.5q-10 -8 -29 -15t-51 -11v-15l14 1t33.5 2.5t37 2.5t24.5 1q14 0 18 -4.5t4 -13.5v-270q-49 7 -102 13.5t-110 13.5q-9 20 -22 24l-45 -89l13 -2t21 -6q59 -26 126 -66.5t129 -86.5q-43 10 -95 20
t-108 21q-4 8 -9.5 13t-10.5 8l-43 -90l10.5 -2t16.5 -5q33 -15 69.5 -41.5t71 -57t63 -60.5t45.5 -52l95 55q-4 7 -13.5 11t-25.5 1q-28 23 -68.5 50.5t-86.5 54.5t-92 49q44 -2 103 -4t123 -5q43 -32 78 -63t58 -56l90 64q-4 7 -15 10t-28 -2q-45 35 -114.5 78.5
t-149.5 86.5t-158 78q77 -2 187 -7.5t234 -12.5q-16 -32 -35.5 -61t-38.5 -52zM722 660l10 -7q84 35 130.5 74.5t63.5 76t12.5 62t-23.5 33t-44 -10.5q-9 -38 -34 -79.5t-55.5 -80.5t-59.5 -68z" />
</svg>
