<?xml version="1.0" standalone="no"?>
<!DOCTYPE svg PUBLIC "-//W3C//DTD SVG 1.1//EN" "http://www.w3.org/Graphics/SVG/1.1/DTD/svg11.dtd" >
<svg xmlns="http://www.w3.org/2000/svg" xmlns:xlink="http://www.w3.org/1999/xlink" version="1.1" viewBox="-10 0 1010 1000">
   <path fill="currentColor"
d="M837 158h-680l-7 -28h558l55 -70l17.5 13.5t41 32.5t42.5 36q-4 16 -27 16zM939 679l3 166q19 7 24.5 15.5t5.5 21.5q0 18 -15 29t-57 16t-122 5h-104q-64 0 -85 -17t-21 -64v-446h-157q-6 105 -24.5 191t-59 154.5t-111 121t-178.5 91.5l-7 -14q87 -47 142 -103
t86.5 -123t44.5 -146t16 -172h-267l-9 -29h755l57 -71l18 13.5t42.5 33t43.5 37.5q-4 16 -27 16h-284v22v404q0 13 7 18.5t35 5.5h91q31 0 52.5 -0.5t32.5 -1.5q16 0 21 -15q8 -14 18 -59.5t20 -99.5h13z" />
</svg>
