<?xml version="1.0" standalone="no"?>
<!DOCTYPE svg PUBLIC "-//W3C//DTD SVG 1.1//EN" "http://www.w3.org/Graphics/SVG/1.1/DTD/svg11.dtd" >
<svg xmlns="http://www.w3.org/2000/svg" xmlns:xlink="http://www.w3.org/1999/xlink" version="1.1" viewBox="-10 0 1010 1000">
   <path fill="currentColor"
d="M935 724l2 133q18 7 24.5 15t6.5 20q0 17 -15 28t-58 16t-126 5h-110q-43 0 -65.5 -6.5t-31 -23t-8.5 -46.5v-315h-113q-14 112 -56.5 192t-124 133.5t-213.5 86.5l-6 -15q110 -43 175 -98t97 -128.5t41 -170.5h-115v37q-1 4 -18.5 15t-50.5 11l-10 1v-509l91 31
q43 -23 84.5 -51t66.5 -49l89 70q-14 14 -51 3q-37 15 -91.5 31.5t-109.5 27.5v152h106l45 -59l14.5 11.5t34 28.5t34.5 32q-4 16 -25 16h-209v172h521v-172h-202l-8 -29h210v-168h-214l-9 -28h213l42 -48l91 70q-5 6 -16.5 12t-25.5 9v413q0 3 -11.5 9t-27.5 11t-30 5h-12
v-55h-126v9v288q0 12 6.5 16.5t34.5 4.5h99q32 0 56 -0.5t34 -1.5t14.5 -3.5t8.5 -9.5q6 -13 15.5 -49t19.5 -80h13z" />
</svg>
