<?xml version="1.0" standalone="no"?>
<!DOCTYPE svg PUBLIC "-//W3C//DTD SVG 1.1//EN" "http://www.w3.org/Graphics/SVG/1.1/DTD/svg11.dtd" >
<svg xmlns="http://www.w3.org/2000/svg" xmlns:xlink="http://www.w3.org/1999/xlink" version="1.1" viewBox="-10 0 1010 1000">
   <path fill="currentColor"
d="M308 91l112 49q-4 7 -12.5 11t-26.5 1q-32 56 -81.5 117t-114 116t-141.5 95l-10 -13q63 -48 116.5 -112.5t94 -133.5t63.5 -130zM687 566l45 -45l83 70q-5 5 -15 9t-26 6q-11 121 -35.5 207t-62.5 114q-43 34 -121 34q0 -17 -4.5 -31.5t-16.5 -22.5q-13 -11 -46 -19.5
t-67 -13.5l1 -16q25 2 59 5t63.5 5t41.5 2q27 0 40 -11q15 -11 28 -48t23.5 -93t17.5 -123h-336l-41 42l-80 -65q18 -11 47 -20q17 -37 36.5 -83.5t29.5 -79.5h-105l-8 -29h373l50 -61l15.5 12t37 29t38.5 33q-4 16 -25 16h-289q-15 37 -36 87.5t-39 89.5h324zM657 35l88 61
q-7 10 -26 15t-44 7q32 84 109 157t187 113l-2 12q-24 6 -42.5 24.5t-25.5 41.5q-99 -60 -162.5 -149.5t-91.5 -203.5h-136l-9 -29h123z" />
</svg>
