<?xml version="1.0" standalone="no"?>
<!DOCTYPE svg PUBLIC "-//W3C//DTD SVG 1.1//EN" "http://www.w3.org/Graphics/SVG/1.1/DTD/svg11.dtd" >
<svg xmlns="http://www.w3.org/2000/svg" xmlns:xlink="http://www.w3.org/1999/xlink" version="1.1" viewBox="-10 0 1010 1000">
   <path fill="currentColor"
d="M801 192l52 -63l16 12t38.5 29.5t40.5 34.5q-3 16 -27 16h-470q-47 83 -102 149l23 9h352l39 -46l92 70q-4 5 -15.5 11t-26.5 9v432q0 29 -8 50t-33.5 34.5t-78.5 18.5q-3 -18 -8 -32t-16 -22q-13 -9 -33.5 -16t-58.5 -12v-15l17 1t40.5 2.5t45 2.5t30.5 1q24 0 24 -20
v-440h-376v151q0 47 -4.5 100t-19 107.5t-45 105t-83.5 93.5l-13 -11q39 -59 57 -124.5t22.5 -134.5t4.5 -136v-108q-52 52 -109 93.5t-117 73.5l-11 -13q87 -65 170 -163.5t147 -220.5h-289l-8 -29h311q19 -38 35 -77.5t29 -79.5l119 41q-4 8 -13.5 13.5t-26.5 4.5
q-11 25 -23 49.5t-24 48.5h334z" />
</svg>
