<?xml version="1.0" standalone="no"?>
<!DOCTYPE svg PUBLIC "-//W3C//DTD SVG 1.1//EN" "http://www.w3.org/Graphics/SVG/1.1/DTD/svg11.dtd" >
<svg xmlns="http://www.w3.org/2000/svg" xmlns:xlink="http://www.w3.org/1999/xlink" version="1.1" viewBox="-10 0 1010 1000">
   <path fill="currentColor"
d="M819 244l88 76q-11 11 -44 17q-4 150 -14 268.5t-27 195.5t-43 105q-44 47 -133 47q1 -19 -4 -34.5t-18 -25.5q-15 -11 -49.5 -21t-72.5 -16l1 -17q28 3 63 6t65 5t43 2q16 0 24.5 -3t16.5 -10q19 -17 32 -87.5t21.5 -181t12.5 -245.5h-282q-7 96 -29 185t-69.5 169.5
t-131 151.5t-213.5 130l-11 -17q107 -62 175.5 -132.5t108.5 -148t59 -162.5t25 -176h-312l-9 -30h322q4 -61 4 -125v-130l125 13q-2 11 -9.5 18.5t-26.5 9.5q-1 55 -2 108.5t-4 105.5h270z" />
</svg>
