<?xml version="1.0" standalone="no"?>
<!DOCTYPE svg PUBLIC "-//W3C//DTD SVG 1.1//EN" "http://www.w3.org/Graphics/SVG/1.1/DTD/svg11.dtd" >
<svg xmlns="http://www.w3.org/2000/svg" xmlns:xlink="http://www.w3.org/1999/xlink" version="1.1" viewBox="-10 0 1010 1000">
   <path fill="currentColor"
d="M294 384l12 -7q88 36 143.5 76t85 79t36.5 71.5t-1.5 53.5t-29 25.5t-46.5 -13.5q-14 -47 -47 -98.5t-74 -100t-79 -86.5zM869 185l87 75q-11 14 -44 17q-4 112 -11 216t-17.5 189.5t-25.5 145t-36 82.5q-26 27 -60.5 40t-84.5 13q1 -20 -5 -36t-20 -25
q-17 -12 -58.5 -23t-85.5 -18l2 -17q34 3 75.5 7t76.5 7t49 3q18 0 27 -3.5t19 -11.5q17 -14 29 -67.5t21 -134.5t15 -179t10 -201h-548q-102 173 -240 276l-12 -10q48 -57 94.5 -135t86 -169t66.5 -187l125 44q-4 7 -13.5 12.5t-26.5 4.5q-14 36 -30.5 69.5t-34.5 65.5h523
z" />
</svg>
