<?xml version="1.0" standalone="no"?>
<!DOCTYPE svg PUBLIC "-//W3C//DTD SVG 1.1//EN" "http://www.w3.org/Graphics/SVG/1.1/DTD/svg11.dtd" >
<svg xmlns="http://www.w3.org/2000/svg" xmlns:xlink="http://www.w3.org/1999/xlink" version="1.1" viewBox="-10 0 1010 1000">
   <path fill="currentColor"
d="M858 133l86 74q-6 6 -16.5 10.5t-27.5 7.5q-2 185 -7 328.5t-17 234.5t-36 122q-22 27 -54.5 38.5t-76.5 11.5q0 -17 -5 -31t-18 -22q-15 -11 -49 -20t-72 -16l1 -17q28 3 62.5 6t64 5.5t42.5 2.5q17 0 24.5 -3t14.5 -12q14 -14 23 -67.5t14.5 -139t8.5 -196t4 -238.5
h-531q-26 38 -54.5 73.5t-57.5 66.5l105 12q-4 22 -38 28v340h386l53 -64l16.5 12.5t38.5 30.5t40 35q-4 16 -26 16h-501l-30 40l-92 -53q14 -14 38 -26v-361q-31 31 -62.5 58t-64.5 49l-12 -10q46 -49 92 -117t87 -147.5t71 -163.5l118 48q-4 9 -13.5 14t-26.5 3l-24 44
t-26 43h502zM477 260l114 30q-7 21 -38 22q-10 34 -21.5 66t-24.5 61q81 30 127.5 64t65.5 66.5t17.5 55.5t-18 31.5t-40.5 -5.5q-13 -31 -39 -64.5t-58.5 -66.5t-64.5 -60q-79 154 -208 233l-12 -12q72 -70 125 -177.5t75 -243.5z" />
</svg>
