<?xml version="1.0" standalone="no"?>
<!DOCTYPE svg PUBLIC "-//W3C//DTD SVG 1.1//EN" "http://www.w3.org/Graphics/SVG/1.1/DTD/svg11.dtd" >
<svg xmlns="http://www.w3.org/2000/svg" xmlns:xlink="http://www.w3.org/1999/xlink" version="1.1" viewBox="-10 0 1010 1000">
   <path fill="currentColor"
d="M808 879l53 -71l17 13.5t40 33t41 37.5q-4 16 -27 16h-741l-28 45l-88 -56q9 -12 28 -24v-791l93 38h590l47 -62l15.5 12t36.5 29.5t38 34.5q-4 16 -27 16h-713v729h625zM684 206l115 55q-4 8 -15 13t-28 2q-28 57 -61 108t-69 98q80 69 117 124t41.5 91t-14.5 47t-51 -7
q-24 -43 -62.5 -91.5t-84.5 -98.5q-68 76 -145 135t-160 102l-12 -12q68 -50 137.5 -120.5t131.5 -155.5q-58 -59 -117 -113t-109 -97l13 -10q79 41 142 80.5t112 77.5q35 -53 64.5 -110t54.5 -118z" />
</svg>
