<?xml version="1.0" standalone="no"?>
<!DOCTYPE svg PUBLIC "-//W3C//DTD SVG 1.1//EN" "http://www.w3.org/Graphics/SVG/1.1/DTD/svg11.dtd" >
<svg xmlns="http://www.w3.org/2000/svg" xmlns:xlink="http://www.w3.org/1999/xlink" version="1.1" viewBox="-10 0 1010 1000">
   <path fill="currentColor"
d="M961 699l-15 170q30 69 8 85q-26 16 -55 -2t-51 -49q-40 -47 -63.5 -129.5t-34.5 -186.5t-14 -219t-2 -228h-299v335h148l52 -71l16.5 14t39 33.5t40.5 37.5q-4 16 -28 16h-268v430q-1 4 -18.5 14.5t-48.5 10.5h-14v-455h-266l-8 -30h274v-335h-268l-9 -30h646l46 -50
l92 78q-5 6 -16 11t-28 7q-4 67 -4 145t4 156.5t14 149.5t26.5 125.5t40.5 81.5q12 15 19 -4q10 -28 17.5 -56.5t14.5 -56.5z" />
</svg>
