<?xml version="1.0" standalone="no"?>
<!DOCTYPE svg PUBLIC "-//W3C//DTD SVG 1.1//EN" "http://www.w3.org/Graphics/SVG/1.1/DTD/svg11.dtd" >
<svg xmlns="http://www.w3.org/2000/svg" xmlns:xlink="http://www.w3.org/1999/xlink" version="1.1" viewBox="-10 0 1010 1000">
   <path fill="currentColor"
d="M797 444l59 -76l18 14.5t43 35t45 39.5q-3 16 -27 16h-392v462q-1 4 -20.5 15t-50.5 11h-15v-488h-403l-9 -29h412v-261q-82 9 -168.5 14t-169.5 6l-3 -18q87 -8 179 -22.5t180 -33.5t163.5 -39.5t129.5 -40.5l88 82q-7 6 -22 6t-36 -8q-54 12 -119 23t-136 21v271h254z
" />
</svg>
