<?xml version="1.0" standalone="no"?>
<!DOCTYPE svg PUBLIC "-//W3C//DTD SVG 1.1//EN" "http://www.w3.org/Graphics/SVG/1.1/DTD/svg11.dtd" >
<svg xmlns="http://www.w3.org/2000/svg" xmlns:xlink="http://www.w3.org/1999/xlink" version="1.1" viewBox="-10 0 1010 1000">
   <path fill="currentColor"
d="M228 157v222q0 67 -5 142.5t-22 153.5t-53.5 150.5t-99.5 133.5l-14 -10q51 -84 75 -179.5t31 -195t7 -195.5v-294l95 43h567l52 -66l16 13t38.5 31t39.5 35q-3 16 -26 16h-701zM820 869l51 -69l16.5 13t39 32t39.5 37q-3 16 -25 16h-755l-9 -29h343v-363h-236l-7 -30
h243v-266l116 12q-1 10 -8.5 17.5t-27.5 10.5v226h158l50 -65l15.5 13t36.5 31t38 35q-4 16 -26 16h-272v363h220zM660 578l10 -8q78 22 120.5 53.5t57 63.5t9 55.5t-24.5 31.5t-44 -9q-8 -32 -29 -66.5t-47 -66t-52 -54.5z" />
</svg>
