<?xml version="1.0" standalone="no"?>
<!DOCTYPE svg PUBLIC "-//W3C//DTD SVG 1.1//EN" "http://www.w3.org/Graphics/SVG/1.1/DTD/svg11.dtd" >
<svg xmlns="http://www.w3.org/2000/svg" xmlns:xlink="http://www.w3.org/1999/xlink" version="1.1" viewBox="-10 0 1010 1000">
   <path fill="currentColor"
d="M661 494l14 -6q107 81 167.5 156.5t84 137.5t19.5 102.5t-27 51t-56 -16.5q-15 -66 -49 -141q-118 23 -285 52t-372 60q-12 23 -29 29l-49 -114l16.5 -5t24.5 -14q32 -48 70.5 -116.5t78 -148.5t76 -163t65.5 -160t45 -139l129 61q-4 9 -15.5 14.5t-28.5 3.5
q-28 71 -72 157.5t-97 177t-110 176t-111 154.5q69 -4 171 -10.5t226 -16.5t257 -21q-31 -69 -69.5 -137t-73.5 -124z" />
</svg>
