<?xml version="1.0" standalone="no"?>
<!DOCTYPE svg PUBLIC "-//W3C//DTD SVG 1.1//EN" "http://www.w3.org/Graphics/SVG/1.1/DTD/svg11.dtd" >
<svg xmlns="http://www.w3.org/2000/svg" xmlns:xlink="http://www.w3.org/1999/xlink" version="1.1" viewBox="-10 0 1010 1000">
   <path fill="currentColor"
d="M718 503h-309q27 67 68.5 121t96.5 97q47 -47 83 -102t61 -116zM771 426l82 78q-9 11 -43 14q-33 70 -77.5 131t-102.5 111q68 43 150 71.5t173 45.5l-2 11q-55 9 -74 70q-91 -26 -167 -64t-137 -91q-79 56 -182 96t-233 63l-6 -14q115 -31 210 -77.5t168 -110.5
q-94 -100 -142 -257h-29q-26 84 -67 164t-101 150t-145 124l-12 -11q83 -72 138.5 -165t89 -197t50.5 -210h-247l-9 -29h260q5 -35 8.5 -68.5t6.5 -67.5q-68 4 -130.5 6t-115.5 1l-1 -17q96 -11 213 -30.5t242 -46.5t242 -60l69 91q-16 11 -39 -4q-105 20 -222.5 35
t-229.5 23l100 14q-2 10 -9.5 16t-30.5 8q-4 25 -7.5 49.5t-8.5 50.5h382l56 -70l17.5 13.5t42 32.5t43.5 37q-4 16 -28 16h-519q-5 28 -12 57t-15 58h348z" />
</svg>
