<?xml version="1.0" standalone="no"?>
<!DOCTYPE svg PUBLIC "-//W3C//DTD SVG 1.1//EN" "http://www.w3.org/Graphics/SVG/1.1/DTD/svg11.dtd" >
<svg xmlns="http://www.w3.org/2000/svg" xmlns:xlink="http://www.w3.org/1999/xlink" version="1.1" viewBox="-10 0 1010 1000">
   <path fill="currentColor"
d="M736 560h-470v285h470v-285zM795 267l58 -74l18 14t43 34.5t44 38.5q-4 16 -27 16h-390v235h183l44 -50l99 75q-5 7 -18 13.5t-30 9.5v353q0 3 -12 8.5t-28.5 10.5t-30.5 5h-12v-81h-470v57q0 7 -22 17.5t-48 10.5h-13v-466l89 37h184v-235h-399l-7 -29h406v-227l121 12
q-2 10 -10 17.5t-26 10.5v187h254z" />
</svg>
