<?xml version="1.0" standalone="no"?>
<!DOCTYPE svg PUBLIC "-//W3C//DTD SVG 1.1//EN" "http://www.w3.org/Graphics/SVG/1.1/DTD/svg11.dtd" >
<svg xmlns="http://www.w3.org/2000/svg" xmlns:xlink="http://www.w3.org/1999/xlink" version="1.1" viewBox="-10 0 1010 1000">
   <path fill="currentColor"
d="M66 434h391v-198h-305l-8 -28h313v-166l119 12q-1 10 -9.5 17.5t-26.5 10.5v126h192l50 -66l16 13t38.5 31t39.5 35q-4 15 -27 15h-309v198h250l52 -66l16.5 13t39 31t40.5 35q-4 16 -27 16h-837zM808 905l54 -69l17 13t40 32t41 37q-1 7 -8.5 11t-17.5 4h-885l-9 -28
h417v-222h-327l-9 -29h336v-166l119 11q-1 10 -9.5 17.5t-26.5 11.5v126h212l53 -65l16.5 12.5t38.5 30.5t40 35q-4 16 -26 16h-334v222h268z" />
</svg>
