<?xml version="1.0" standalone="no"?>
<!DOCTYPE svg PUBLIC "-//W3C//DTD SVG 1.1//EN" "http://www.w3.org/Graphics/SVG/1.1/DTD/svg11.dtd" >
<svg xmlns="http://www.w3.org/2000/svg" xmlns:xlink="http://www.w3.org/1999/xlink" version="1.1" viewBox="-10 0 1010 1000">
   <path fill="currentColor"
d="M792 474l58 -76l18 14.5t43 35t45 39.5q-4 16 -28 16h-385v366h222l53 -71l17 13.5t39.5 33t40.5 37.5q-2 8 -9.5 12t-16.5 4h-767l-9 -29h343v-366h-403l-9 -29h412v-324h-302l-8 -29h573l53 -71l17 13.5t39.5 33t40.5 37.5q-4 16 -27 16h-299v324h249z" />
</svg>
