<?xml version="1.0" standalone="no"?>
<!DOCTYPE svg PUBLIC "-//W3C//DTD SVG 1.1//EN" "http://www.w3.org/Graphics/SVG/1.1/DTD/svg11.dtd" >
<svg xmlns="http://www.w3.org/2000/svg" xmlns:xlink="http://www.w3.org/1999/xlink" version="1.1" viewBox="-10 0 1010 1000">
   <path fill="currentColor"
d="M819 165l91 81q-12 14 -47 15q-52 147 -123 260.5t-167 197.5t-222 143.5t-288 98.5l-7 -17q139 -50 250 -112.5t198.5 -145.5t153 -192t112.5 -251h-366q-38 69 -93 139q84 28 131.5 64t66 70.5t15 60t-23 34.5t-46.5 -7q-12 -33 -37.5 -69t-57.5 -70.5t-65 -62.5
q-44 55 -97 105t-115 90l-11 -11q60 -55 111 -122.5t92.5 -140.5t72.5 -146t50 -139l120 44q-4 9 -12 13t-27 3q-12 28 -26 57t-31 59h350z" />
</svg>
