<?xml version="1.0" standalone="no"?>
<!DOCTYPE svg PUBLIC "-//W3C//DTD SVG 1.1//EN" "http://www.w3.org/Graphics/SVG/1.1/DTD/svg11.dtd" >
<svg xmlns="http://www.w3.org/2000/svg" xmlns:xlink="http://www.w3.org/1999/xlink" version="1.1" viewBox="-10 0 1010 1000">
   <path fill="currentColor"
d="M935 364h-398q13 70 42 141t79.5 138t128 127t186.5 108l-1 12q-32 4 -52.5 20.5t-28.5 51.5q-99 -56 -166 -126.5t-108.5 -149t-64 -158.5t-33.5 -155q-11 88 -37.5 170t-78.5 156.5t-138 140t-216 121.5l-12 -16q108 -60 180.5 -126.5t117 -139.5t67.5 -152t32 -163
h-379l-7 -29h389q6 -70 6.5 -144t0.5 -150l124 13q-2 11 -9.5 18.5t-24.5 9.5q-1 65 -3 128t-8 125h270l59 -74l19 14.5t44.5 34.5t45.5 38q-1 8 -8.5 12t-17.5 4z" />
</svg>
