<?xml version="1.0" standalone="no"?>
<!DOCTYPE svg PUBLIC "-//W3C//DTD SVG 1.1//EN" "http://www.w3.org/Graphics/SVG/1.1/DTD/svg11.dtd" >
<svg xmlns="http://www.w3.org/2000/svg" xmlns:xlink="http://www.w3.org/1999/xlink" version="1.1" viewBox="-10 0 1010 1000">
   <path fill="currentColor"
d="M931 455h-398q19 79 66.5 157.5t137.5 147.5t234 122l-2 12q-32 4 -52 18.5t-26 49.5q-99 -47 -166 -106.5t-109 -125.5t-65.5 -134.5t-35.5 -133.5q-12 82 -40 154t-80.5 134t-138 115.5t-211.5 97.5l-11 -17q107 -48 178.5 -102.5t116 -116t68 -129.5t33.5 -143h-361
l-9 -29h373q6 -60 7 -124.5t2 -134.5h-313l-9 -29h620l55 -69l17.5 13.5t41.5 32.5t43 36q-4 16 -27 16h-337q-1 70 -3.5 134.5t-9.5 124.5h277l58 -70l17.5 13.5t42 32.5t44.5 37q-4 16 -28 16z" />
</svg>
