<?xml version="1.0" standalone="no"?>
<!DOCTYPE svg PUBLIC "-//W3C//DTD SVG 1.1//EN" "http://www.w3.org/Graphics/SVG/1.1/DTD/svg11.dtd" >
<svg xmlns="http://www.w3.org/2000/svg" xmlns:xlink="http://www.w3.org/1999/xlink" version="1.1" viewBox="-10 0 1010 1000">
   <path fill="currentColor"
d="M934 510h-393q21 65 69.5 131.5t135.5 126t221 105.5l-1 12q-31 4 -51.5 19.5t-26.5 50.5q-94 -42 -158.5 -96t-106.5 -113t-66 -119.5t-36 -116.5h-11q-15 75 -45 141t-83 122t-134.5 103t-198.5 85l-10 -17q127 -54 205.5 -119.5t120.5 -144t60 -170.5h-370l-7 -30h382
q8 -49 11.5 -101t4.5 -109h-322l-8 -29h330q1 -47 0.5 -96t-0.5 -101l123 12q-2 11 -10 18.5t-25 10.5q-1 40 -1 79t-1 77h198l55 -69l17 13.5t41 32.5t44 36q-4 16 -27 16h-328q-1 56 -5 108.5t-12 101.5h287l55 -69l18 13.5t42.5 32.5t43.5 37q-4 16 -27 16z" />
</svg>
