<?xml version="1.0" standalone="no"?>
<!DOCTYPE svg PUBLIC "-//W3C//DTD SVG 1.1//EN" "http://www.w3.org/Graphics/SVG/1.1/DTD/svg11.dtd" >
<svg xmlns="http://www.w3.org/2000/svg" xmlns:xlink="http://www.w3.org/1999/xlink" version="1.1" viewBox="-10 0 1010 1000">
   <path fill="currentColor"
d="M563 635l11 -9q130 54 208 107.5t114 99.5t40.5 77.5t-13.5 42.5t-48 -5q-22 -35 -58 -76.5t-80 -84t-89.5 -82t-84.5 -70.5zM731 258h-191q-1 82 -6 154t-19 136h216v-290zM254 548h179q14 -64 19 -136t5 -154h-203v290zM834 548l50 -79l16 15.5t37 36.5t36 40
q-3 16 -25 16h-440q-23 89 -74 160.5t-143 127.5t-239 99l-10 -17q120 -45 197 -100t121.5 -122.5t66.5 -147.5h-383l-8 -29h139v-357l92 37h191q0 -44 -0.5 -90.5t-0.5 -95.5l121 12q-1 11 -9.5 18.5t-26.5 9.5q-1 38 -1 74.5v71.5h180l44 -46l89 69q-12 14 -42 20v277h22z
" />
</svg>
