<?xml version="1.0" standalone="no"?>
<!DOCTYPE svg PUBLIC "-//W3C//DTD SVG 1.1//EN" "http://www.w3.org/Graphics/SVG/1.1/DTD/svg11.dtd" >
<svg xmlns="http://www.w3.org/2000/svg" xmlns:xlink="http://www.w3.org/1999/xlink" version="1.1" viewBox="-10 0 1010 1000">
   <path fill="currentColor"
d="M736 531l47 -57l14.5 11t35 27.5t37.5 31.5q-4 16 -27 16h-462q-9 22 -20 49.5t-22 51.5h331l45 -43l84 69q-11 12 -41 15q-13 89 -38 150.5t-60 84.5q-20 14 -49.5 20t-65.5 6q0 -16 -4 -28.5t-15 -20.5q-13 -10 -39.5 -17.5t-57.5 -12.5l1 -15q22 2 51 4t54.5 3.5
t36.5 1.5q14 0 22.5 -1.5t16.5 -7.5q18 -13 36 -61t29 -117h-342l-37 37l-81 -61q17 -13 46 -21q8 -21 17.5 -44.5t16.5 -41.5h-173l-9 -29h622zM578 393l43 -55l13.5 11t32 27t33.5 31q-3 16 -25 16h-368l-8 -30h279zM929 218h-308q37 52 92.5 93.5t122.5 69.5t138 42
l-1 11q-25 6 -42.5 25t-24.5 50q-217 -78 -307 -291h-156q-81 114 -184 190t-216 121l-11 -14q84 -48 165 -123.5t147 -173.5h-287l-9 -29h314q23 -37 43.5 -76.5t36.5 -81.5l116 49q-4 8 -13.5 13t-27.5 2q-13 25 -26.5 48t-28.5 46h344l53 -65l17 12.5t40 30.5t41 35
q-4 16 -28 16z" />
</svg>
