<?xml version="1.0" standalone="no"?>
<!DOCTYPE svg PUBLIC "-//W3C//DTD SVG 1.1//EN" "http://www.w3.org/Graphics/SVG/1.1/DTD/svg11.dtd" >
<svg xmlns="http://www.w3.org/2000/svg" xmlns:xlink="http://www.w3.org/1999/xlink" version="1.1" viewBox="-10 0 1010 1000">
   <path fill="currentColor"
d="M694 273l112 28q-3 9 -11.5 15t-25.5 6q-8 29 -19 56t-23 51q73 20 113 47.5t55 56t10.5 49.5t-22.5 29t-43 -6q-15 -39 -50.5 -81t-73.5 -74q-48 85 -117 138q50 93 136.5 166.5t225.5 126.5l-1 11q-31 4 -51.5 20t-27.5 49q-127 -61 -202.5 -145.5t-114 -189
t-54.5 -223.5q-8 87 -32.5 169.5t-75.5 156t-137.5 132.5t-218.5 100l-8 -16q107 -46 178.5 -103t114.5 -122.5t65 -138t29.5 -150t7.5 -157.5v-39h-375l-8 -28h383v-166l117 12q-1 10 -8.5 17.5t-26.5 10.5v126h279l55 -71l17.5 13.5t42 33t43.5 37.5q-4 15 -27 15h-410v30
q8 84 25 159t48 141q38 -56 66 -131t40 -161zM222 273l111 28q-3 10 -11.5 16t-25.5 6q-16 57 -39 105q58 19 88 43.5t38 49t0.5 41.5t-25.5 21.5t-39 -10.5q-7 -29 -28.5 -62t-45.5 -59q-63 121 -167 184l-13 -10q58 -61 99.5 -151t57.5 -202z" />
</svg>
