<?xml version="1.0" standalone="no"?>
<!DOCTYPE svg PUBLIC "-//W3C//DTD SVG 1.1//EN" "http://www.w3.org/Graphics/SVG/1.1/DTD/svg11.dtd" >
<svg xmlns="http://www.w3.org/2000/svg" xmlns:xlink="http://www.w3.org/1999/xlink" version="1.1" viewBox="-10 0 1010 1000">
   <path fill="currentColor"
d="M794 480l58 -73l18.5 14t43.5 34t45 38q-1 8 -8.5 12t-17.5 4h-387v338q0 31 -9 54.5t-39 38t-93 20.5q-4 -20 -11 -34t-21 -24q-16 -11 -43.5 -18.5t-75.5 -13.5v-16l15.5 1t39.5 2.5t49.5 3.5t46 3t29.5 1q16 0 22 -5.5t6 -18.5v-332h-409l-9 -29h418v-167l68 7
q50 -35 100.5 -80.5t85.5 -83.5h-562l-8 -29h584l54 -51l90 80q-12 11 -43 12q-53 37 -125 80t-146 75l20 2q-3 21 -34 25v130h248z" />
</svg>
