<?xml version="1.0" standalone="no"?>
<!DOCTYPE svg PUBLIC "-//W3C//DTD SVG 1.1//EN" "http://www.w3.org/Graphics/SVG/1.1/DTD/svg11.dtd" >
<svg xmlns="http://www.w3.org/2000/svg" xmlns:xlink="http://www.w3.org/1999/xlink" version="1.1" viewBox="-10 0 1010 1000">
   <path fill="currentColor"
d="M462 42l119 12q-1 10 -9 17.5t-28 10.5v530q0 6 -11 15.5t-27 16.5t-31 7h-13v-609zM663 193q105 48 165.5 98.5t86 95.5t24.5 76.5t-20.5 42t-48.5 -8.5q-12 -35 -36.5 -74.5t-55.5 -79.5t-63.5 -76.5t-62.5 -64.5zM263 185l117 46q-4 8 -12 12t-27 3
q-27 60 -68.5 129.5t-96 135.5t-122.5 118l-11 -9q52 -61 95 -137t75 -154.5t50 -143.5zM730 481l111 57q-5 8 -15 11t-30 -1q-67 108 -144 181t-165.5 118.5t-190 72t-218.5 41.5l-5 -18q106 -25 200.5 -58.5t177 -85t152.5 -129t127 -189.5z" />
</svg>
