<?xml version="1.0" standalone="no"?>
<!DOCTYPE svg PUBLIC "-//W3C//DTD SVG 1.1//EN" "http://www.w3.org/Graphics/SVG/1.1/DTD/svg11.dtd" >
<svg xmlns="http://www.w3.org/2000/svg" xmlns:xlink="http://www.w3.org/1999/xlink" version="1.1" viewBox="-10 0 1010 1000">
   <path fill="currentColor"
d="M283 147v208v27.5t-1 29.5h454v-265h-453zM736 441h-235q20 81 69.5 160.5t142 149.5t240.5 123l-2 12q-33 4 -53 19t-27 50q-103 -48 -172.5 -109t-113 -129t-68 -138.5t-36.5 -137.5h-200q-3 66 -14.5 134.5t-36.5 136.5t-69.5 130.5t-113.5 115.5l-13 -10
q73 -87 109 -185t48 -201.5t12 -205.5v-276l94 38h429l42 -46l90 69q-5 6 -16 12t-26 9v317q0 3 -11.5 8.5t-27 10t-28.5 4.5h-13v-61z" />
</svg>
