<?xml version="1.0" standalone="no"?>
<!DOCTYPE svg PUBLIC "-//W3C//DTD SVG 1.1//EN" "http://www.w3.org/Graphics/SVG/1.1/DTD/svg11.dtd" >
<svg xmlns="http://www.w3.org/2000/svg" xmlns:xlink="http://www.w3.org/1999/xlink" version="1.1" viewBox="-10 0 1010 1000">
   <path fill="currentColor"
d="M218 370l-93 -52q14 -14 38 -26v-206l116 13q-1 11 -9.5 18t-27.5 10v174h224v-262l117 11q-1 10 -9.5 17.5t-27.5 9.5v224h221v-218l118 11q-2 11 -10 18t-28 10v231q0 5 -21 13t-44 8h-15v-44h-518zM755 644h-421v210h421v-210zM817 448l52 -66l16.5 13t39 31.5
t40.5 35.5q-4 16 -27 16h-505q-21 34 -46.5 67.5t-54.5 63.5l15 6h398l43 -46l92 69q-4 6 -15 12t-27 9v275q0 3 -12 8.5t-27.5 10t-29.5 4.5h-14v-74h-421v56q0 5 -18 15.5t-48 10.5h-14v-283q-99 80 -213 132l-8 -12q62 -41 118 -94t100.5 -112.5t71.5 -117.5h-270l-8 -30
h772z" />
</svg>
