<?xml version="1.0" standalone="no"?>
<!DOCTYPE svg PUBLIC "-//W3C//DTD SVG 1.1//EN" "http://www.w3.org/Graphics/SVG/1.1/DTD/svg11.dtd" >
<svg xmlns="http://www.w3.org/2000/svg" xmlns:xlink="http://www.w3.org/1999/xlink" version="1.1" viewBox="-10 0 1010 1000">
   <path fill="currentColor"
d="M645 46l101 73q-7 7 -16 8t-26 -3q-114 84 -246 145.5t-273 100.5l-8 -17q128 -53 249 -129.5t219 -177.5zM707 281l106 69q-10 14 -42 7q-119 109 -260.5 176t-300.5 107l-8 -15q145 -56 273.5 -138t231.5 -206zM794 547l109 70q-11 14 -46 7q-99 105 -210 170
t-235.5 102t-265.5 58l-5 -18q129 -33 246 -80t219.5 -121t187.5 -188z" />
</svg>
