<?xml version="1.0" standalone="no"?>
<!DOCTYPE svg PUBLIC "-//W3C//DTD SVG 1.1//EN" "http://www.w3.org/Graphics/SVG/1.1/DTD/svg11.dtd" >
<svg xmlns="http://www.w3.org/2000/svg" xmlns:xlink="http://www.w3.org/1999/xlink" version="1.1" viewBox="-10 0 1010 1000">
   <path fill="currentColor"
d="M633 32l97 68q-6 7 -14.5 9t-24.5 -4q-55 50 -136 102t-177 97.5t-198 75.5l-9 -13q68 -31 135 -71t128.5 -85t112.5 -91t86 -88zM711 220l97 70q-5 7 -14.5 9t-26.5 -5q-40 43 -92.5 87t-114.5 86l34 13q-5 15 -31 19v440q-1 4 -22.5 12.5t-43.5 8.5h-15v-442
q-76 44 -160 83.5t-173 67.5l-7 -14q86 -40 169.5 -91.5t158.5 -109.5t137 -117.5t104 -116.5z" />
</svg>
