<?xml version="1.0" standalone="no"?>
<!DOCTYPE svg PUBLIC "-//W3C//DTD SVG 1.1//EN" "http://www.w3.org/Graphics/SVG/1.1/DTD/svg11.dtd" >
<svg xmlns="http://www.w3.org/2000/svg" xmlns:xlink="http://www.w3.org/1999/xlink" version="1.1" viewBox="-10 0 1010 1000">
   <path fill="currentColor"
d="M418 68l12 -7q72 36 108.5 77t46 78.5t0 63.5t-30.5 33t-45 -15q0 -39 -13.5 -81t-34 -81t-43.5 -68zM172 369h17q24 74 23.5 132.5t-16 100t-36.5 65.5q-20 23 -48 28t-42 -14q-13 -18 -6.5 -37t23.5 -34q22 -19 42.5 -56t32.5 -85t10 -100zM778 654l3 171q21 7 29 15
t8 21q0 20 -19.5 32t-73.5 17.5t-158 5.5h-139q-77 0 -105.5 -19t-28.5 -74v-19q-107 73 -242 129l-10 -14q70 -36 133 -79t119 -91v-526l115 12q-2 21 -34 27v411q126 -128 212 -275t135 -293l121 45q-4 10 -13.5 13.5t-29.5 1.5q-40 102 -100 204t-140.5 197.5
t-184.5 178.5v58q0 19 11.5 27t51.5 8h134q93 0 123 -3q21 -1 28 -17q8 -16 19 -60.5t24 -103.5h12zM753 388l13 -7q69 37 109.5 77.5t59 79t19.5 70t-11 50.5t-31.5 21t-41.5 -18q-1 -45 -18.5 -94.5t-43.5 -96t-55 -82.5z" />
</svg>
