<?xml version="1.0" standalone="no"?>
<!DOCTYPE svg PUBLIC "-//W3C//DTD SVG 1.1//EN" "http://www.w3.org/Graphics/SVG/1.1/DTD/svg11.dtd" >
<svg xmlns="http://www.w3.org/2000/svg" xmlns:xlink="http://www.w3.org/1999/xlink" version="1.1" viewBox="-10 0 1010 1000">
   <path fill="currentColor"
d="M535 70l9 -9q81 11 127.5 36t65.5 53t16.5 51.5t-20.5 33.5t-45 -3q-11 -29 -36.5 -59t-56.5 -57t-60 -46zM940 720l-20 153q33 27 38.5 39.5t-0.5 23.5q-10 21 -37 24.5t-61.5 -5.5t-70.5 -24q-81 -32 -144 -77.5t-110 -102.5q-94 65 -210.5 116.5t-256.5 81.5l-6 -15
q129 -41 238.5 -100.5t196.5 -132.5q-49 -74 -80.5 -163.5t-47.5 -189.5l-316 24l-11 -28l323 -24q-10 -67 -14 -137.5t-4 -143.5l120 12q-1 10 -8.5 18t-26.5 11q0 60 3 118.5t11 115.5l343 -26l50 -75l18.5 12.5t44 30t45.5 33.5q-3 16 -27 18l-470 35q14 85 39.5 161.5
t68.5 141.5q63 -62 111.5 -130t82.5 -140l108 57q-5 8 -14 11t-28 -1q-39 69 -93.5 134.5t-125.5 124.5q43 49 98.5 86.5t125.5 63.5q19 7 28.5 6t17.5 -14q11 -21 28.5 -56.5t29.5 -68.5z" />
</svg>
