<?xml version="1.0" standalone="no"?>
<!DOCTYPE svg PUBLIC "-//W3C//DTD SVG 1.1//EN" "http://www.w3.org/Graphics/SVG/1.1/DTD/svg11.dtd" >
<svg xmlns="http://www.w3.org/2000/svg" xmlns:xlink="http://www.w3.org/1999/xlink" version="1.1" viewBox="-10 0 1010 1000">
   <path fill="currentColor"
d="M516 440l4 15q-40 19 -89.5 40.5t-109.5 47.5v309q0 30 -7.5 52.5t-32 36.5t-77.5 19q-2 -19 -6.5 -34t-14.5 -24q-12 -10 -32.5 -17t-55.5 -12v-16l16 1t38.5 3t42.5 3t28 1q23 0 23 -21v-268q-32 13 -65.5 27t-71.5 28q-7 20 -22 25l-48 -98q32 -6 86 -18.5t121 -28.5
v-222h-182l-8 -29h190v-220l115 12q-1 10 -9.5 17.5t-27.5 10.5v180h58l50 -65l15 12.5t35.5 30.5t37.5 35q-4 16 -27 16h-169v202q47 -12 96.5 -25t98.5 -26z" />
</svg>
