<?xml version="1.0" standalone="no"?>
<!DOCTYPE svg PUBLIC "-//W3C//DTD SVG 1.1//EN" "http://www.w3.org/Graphics/SVG/1.1/DTD/svg11.dtd" >
<svg xmlns="http://www.w3.org/2000/svg" xmlns:xlink="http://www.w3.org/1999/xlink" version="1.1" viewBox="-10 0 1010 1000">
   <path fill="currentColor"
d="M393 48l9 -8q78 19 120.5 48.5t57.5 60.5t8.5 54.5t-26.5 31t-46 -9.5q-7 -31 -27 -63.5t-45.5 -62t-50.5 -51.5zM688 289h-415q33 115 92.5 206.5t138.5 162.5q71 -80 116 -172t68 -197zM930 289h-142q-31 122 -86.5 226t-141.5 188q86 63 189.5 106.5t219.5 70.5l-3 11
q-63 6 -88 69q-112 -34 -205.5 -85.5t-169.5 -121.5q-86 70 -199.5 122t-258.5 87l-7 -15q133 -44 237 -104.5t182 -134.5q-73 -80 -124.5 -184.5t-80.5 -234.5h-199l-8 -30h753l57 -73l17.5 14t41.5 34t43 39q-4 16 -27 16z" />
</svg>
