<?xml version="1.0" standalone="no"?>
<!DOCTYPE svg PUBLIC "-//W3C//DTD SVG 1.1//EN" "http://www.w3.org/Graphics/SVG/1.1/DTD/svg11.dtd" >
<svg xmlns="http://www.w3.org/2000/svg" xmlns:xlink="http://www.w3.org/1999/xlink" version="1.1" viewBox="-10 0 1010 1000">
   <path fill="currentColor"
d="M226 450h222q18 -77 22.5 -154.5t5.5 -155.5h-188q-7 41 -17.5 96.5t-22 112t-22.5 101.5zM914 479h-390q-25 92 -79 178.5t-149.5 163.5t-246.5 144l-12 -17q127 -70 208.5 -146t127.5 -157.5t68 -165.5h-213l-36 41l-86 -59q8 -6 17.5 -12t20.5 -10q11 -42 22.5 -97
t21.5 -109.5t15 -92.5h-99l-8 -29h639l54 -65l17 12.5t41 30.5t43 35q-4 16 -28 16h-298q-2 79 -8.5 157t-24.5 153h250l57 -69l17.5 13t41.5 32t44 37q-4 16 -27 16zM924 719l3 131q20 6 26 14t6 19q0 18 -16.5 29t-61.5 16t-131 5h-118q-44 0 -67.5 -7t-32 -23.5
t-8.5 -46.5v-339l110 11q-3 20 -32 26v284q0 13 7.5 17.5t38.5 4.5h107q36 0 62.5 -0.5t36.5 -1.5q16 -1 23 -13q7 -13 16 -47.5t19 -78.5h12z" />
</svg>
