<?xml version="1.0" standalone="no"?>
<!DOCTYPE svg PUBLIC "-//W3C//DTD SVG 1.1//EN" "http://www.w3.org/Graphics/SVG/1.1/DTD/svg11.dtd" >
<svg xmlns="http://www.w3.org/2000/svg" xmlns:xlink="http://www.w3.org/1999/xlink" version="1.1" viewBox="-10 0 1010 1000">
   <path fill="currentColor"
d="M876 467h-313q44 77 110 143.5t143 117.5t153 80l-3 11q-23 4 -42.5 21.5t-28.5 46.5q-112 -62 -205.5 -170t-148.5 -250h-3v463q0 7 -21.5 19t-44.5 12h-16v-423q-70 109 -175.5 200.5t-237.5 155.5l-11 -15q79 -52 148 -118.5t124.5 -142t92.5 -151.5h-288l-9 -29h356
v-180h-399l-8 -28h407v-192l118 13q-2 10 -9.5 17.5t-26.5 10.5v151h257l55 -70l17.5 13.5t41.5 32.5t43 36q-4 16 -27 16h-387v180h208l55 -69l17.5 13.5t41.5 32.5t43 36q-4 16 -27 16z" />
</svg>
