<?xml version="1.0" standalone="no"?>
<!DOCTYPE svg PUBLIC "-//W3C//DTD SVG 1.1//EN" "http://www.w3.org/Graphics/SVG/1.1/DTD/svg11.dtd" >
<svg xmlns="http://www.w3.org/2000/svg" xmlns:xlink="http://www.w3.org/1999/xlink" version="1.1" viewBox="-10 0 1010 1000">
   <path fill="currentColor"
d="M606 77l9 -10q70 8 109 28.5t54 44t11.5 42.5t-20 27t-39.5 -5q-9 -23 -29.5 -47t-45.5 -45t-49 -35zM55 933l-13 -14q75 -53 115.5 -113.5t58 -127.5t21 -140t4.5 -150l113 11q-1 10 -8.5 17t-23.5 9q-3 73 -10 144t-31 136.5t-77 123t-149 104.5zM922 308h-390v621
q0 8 -21 20t-44 12h-15v-653h-383l-9 -29h392v-241l116 13q-1 10 -8.5 17.5t-27.5 10.5v200h270l52 -64l16 12.5t38.5 30t40.5 34.5q-3 16 -27 16zM931 794l5 1q32 13 32 33q0 24 -30.5 35.5t-115.5 11.5h-68q-52 0 -67.5 -16.5t-15.5 -56.5v-414l110 12q-2 21 -31 25v356
q0 11 4.5 15.5t21.5 4.5h54h31t21 -1q10 0 18 -2q5 0 11 -1.5t11 -2.5h9z" />
</svg>
