<?xml version="1.0" standalone="no"?>
<!DOCTYPE svg PUBLIC "-//W3C//DTD SVG 1.1//EN" "http://www.w3.org/Graphics/SVG/1.1/DTD/svg11.dtd" >
<svg xmlns="http://www.w3.org/2000/svg" xmlns:xlink="http://www.w3.org/1999/xlink" version="1.1" viewBox="-10 0 1010 1000">
   <path fill="currentColor"
d="M809 261h-499q-91 177 -231 277l-14 -11q50 -56 94.5 -132.5t80 -167.5t56.5 -190l124 37q-3 8 -12.5 14t-25.5 5q-13 37 -27 71.5t-30 67.5h482l50 -50l87 85q-10 10 -39 11q-20 30 -49.5 68t-62 74.5t-61.5 64.5l-12 -8q14 -29 30.5 -67t32 -77.5t26.5 -71.5zM458 329
l123 31q-4 10 -13 16.5t-26 5.5q11 80 36.5 151.5t73.5 133.5t124 112.5t187 89.5l-1 12q-34 5 -54.5 22.5t-28.5 55.5q-90 -42 -152 -97.5t-101 -121t-61 -138.5t-33 -150q-11 73 -35 143t-75 135.5t-141 123.5t-233 108l-10 -18q109 -51 183 -106.5t119.5 -115t70 -123
t34.5 -131t13 -139.5z" />
</svg>
