<?xml version="1.0" standalone="no"?>
<!DOCTYPE svg PUBLIC "-//W3C//DTD SVG 1.1//EN" "http://www.w3.org/Graphics/SVG/1.1/DTD/svg11.dtd" >
<svg xmlns="http://www.w3.org/2000/svg" xmlns:xlink="http://www.w3.org/1999/xlink" version="1.1" viewBox="-10 0 1010 1000">
   <path fill="currentColor"
d="M800 882l57 -72l18.5 13.5t43.5 33.5t44 38q-4 16 -26 16h-889l-8 -29h151v-512l121 12q-2 10 -10 17.5t-27 10.5v472h193v-721h-378l-8 -28h682l58 -72l18 14t42.5 33.5t44.5 36.5q-4 16 -27 16h-347v320h172l55 -70l17.5 13.5t41.5 32.5t43 37q-4 16 -28 16h-301v372
h247z" />
</svg>
