<?xml version="1.0" standalone="no"?>
<!DOCTYPE svg PUBLIC "-//W3C//DTD SVG 1.1//EN" "http://www.w3.org/Graphics/SVG/1.1/DTD/svg11.dtd" >
<svg xmlns="http://www.w3.org/2000/svg" xmlns:xlink="http://www.w3.org/1999/xlink" version="1.1" viewBox="-10 0 1010 1000">
   <path fill="currentColor"
d="M484 742l5 15q-50 28 -133.5 74t-181.5 96q-8 18 -19 24l-61 -82q26 -18 33.5 -27.5t7.5 -25.5v-765l120 13q-2 12 -11.5 19.5t-29.5 11.5v303h123l54 -74l16.5 14.5t39.5 35t40 38.5q-4 16 -26 16h-247v405q55 -17 125.5 -41t144.5 -50zM924 676l4 165q20 8 27 16t7 20
q0 18 -17.5 29.5t-62 17t-127.5 5.5h-108q-67 0 -91.5 -19.5t-24.5 -71.5v-785l115 13q-1 10 -8.5 17.5t-27.5 10.5v303h150l53 -75l17 14.5t39.5 35t40.5 38.5q-4 16 -27 16h-273v390q0 19 10 27.5t41 8.5h98q32 0 56 -1t35 -2q16 -1 23 -14q7 -14 17.5 -60t20.5 -99h13z
" />
</svg>
