<?xml version="1.0" standalone="no"?>
<!DOCTYPE svg PUBLIC "-//W3C//DTD SVG 1.1//EN" "http://www.w3.org/Graphics/SVG/1.1/DTD/svg11.dtd" >
<svg xmlns="http://www.w3.org/2000/svg" xmlns:xlink="http://www.w3.org/1999/xlink" version="1.1" viewBox="-10 0 1010 1000">
   <path fill="currentColor"
d="M62 443l-5 -16q112 -33 219.5 -80t199.5 -102q-78 -34 -167.5 -65t-186.5 -56l5 -17q132 21 235.5 44.5t182.5 49.5q60 -40 109 -81.5t82 -81.5l112 62q-10 18 -52 9q-70 62 -169 121q91 35 143.5 68.5t74.5 61.5t20.5 47t-18.5 25.5t-41 -3.5q-42 -34 -108.5 -74
t-153.5 -80q-104 54 -226.5 97.5t-255.5 70.5zM656 413l119 50q-4 8 -12.5 12t-28.5 2q-31 73 -79.5 140t-113.5 125q90 51 197.5 84.5t223.5 50.5l-1 12q-60 9 -77 72q-118 -26 -218 -69t-181 -106q-84 61 -194 105.5t-248 67.5l-6 -14q123 -34 222 -85t175 -117
q-60 -57 -106 -128.5t-76 -159.5l15 -11q33 80 87.5 143.5t124.5 113.5q62 -62 106 -135t71 -153z" />
</svg>
