<?xml version="1.0" standalone="no"?>
<!DOCTYPE svg PUBLIC "-//W3C//DTD SVG 1.1//EN" "http://www.w3.org/Graphics/SVG/1.1/DTD/svg11.dtd" >
<svg xmlns="http://www.w3.org/2000/svg" xmlns:xlink="http://www.w3.org/1999/xlink" version="1.1" viewBox="-10 0 1010 1000">
   <path fill="currentColor"
d="M796 883l58 -72l18 13.5t43 33.5t44 38q-4 16 -27 16h-877l-9 -29h403v-377h-294l-7 -30h301v-313h-336l-9 -30h642l57 -71l17.5 14t42.5 33.5t45 37.5q-4 16 -28 16h-345v313h175l55 -69l17.5 13.5t41 32.5t42.5 37q-4 16 -26 16h-305v377h261zM612 574l9 -8
q83 22 127.5 55.5t59.5 67t8 59t-28 33.5t-48 -11q-6 -34 -26.5 -70t-47.5 -69t-54 -57z" />
</svg>
