<?xml version="1.0" standalone="no"?>
<!DOCTYPE svg PUBLIC "-//W3C//DTD SVG 1.1//EN" "http://www.w3.org/Graphics/SVG/1.1/DTD/svg11.dtd" >
<svg xmlns="http://www.w3.org/2000/svg" xmlns:xlink="http://www.w3.org/1999/xlink" version="1.1" viewBox="-10 0 1010 1000">
   <path fill="currentColor"
d="M800 888l57 -72l18.5 13.5t43.5 33.5t44 38q-4 16 -26 16h-889l-8 -29h414v-294h-293l-7 -29h300v-253h-211q-87 147 -197 234l-14 -9q43 -55 83 -128.5t74 -159.5t56 -175l122 38q-3 9 -12 15t-26 5q-15 40 -32.5 77.5t-36.5 72.5h194v-241l122 13q-2 10 -9.5 17.5
t-26.5 10.5v200h207l56 -68l17 13t41 31.5t45 37.5q-4 16 -28 16h-338v253h171l56 -70l18 13.5t42.5 33t43.5 36.5q-4 16 -26 16h-305v294h260z" />
</svg>
