<?xml version="1.0" standalone="no"?>
<!DOCTYPE svg PUBLIC "-//W3C//DTD SVG 1.1//EN" "http://www.w3.org/Graphics/SVG/1.1/DTD/svg11.dtd" >
<svg xmlns="http://www.w3.org/2000/svg" xmlns:xlink="http://www.w3.org/1999/xlink" version="1.1" viewBox="-10 0 1010 1000">
   <path fill="currentColor"
d="M927 422h-365q45 82 111.5 154t144.5 126.5t156 85.5l-3 11q-25 4 -45.5 22.5t-30.5 49.5q-114 -67 -206.5 -181.5t-148.5 -267.5h-2v513q0 4 -18 14.5t-50 10.5h-14v-460q-70 117 -175 216t-239 170l-11 -13q80 -57 149 -131t124.5 -156t92.5 -164h-340l-7 -29h406v-209
q-85 10 -173.5 16.5t-174.5 8.5l-3 -18q89 -10 183 -26t184 -36t167.5 -42.5t132.5 -44.5l90 85q-7 6 -21.5 6t-35.5 -8q-56 13 -124 25t-143 23v220h257l56 -69l17.5 13t41.5 32t43 37q-4 16 -26 16z" />
</svg>
