<?xml version="1.0" standalone="no"?>
<!DOCTYPE svg PUBLIC "-//W3C//DTD SVG 1.1//EN" "http://www.w3.org/Graphics/SVG/1.1/DTD/svg11.dtd" >
<svg xmlns="http://www.w3.org/2000/svg" xmlns:xlink="http://www.w3.org/1999/xlink" version="1.1" viewBox="-10 0 1010 1000">
   <path fill="currentColor"
d="M282 618l102 54q-4 7 -12.5 10.5t-25.5 -0.5q-30 40 -76 83.5t-102 83t-118 69.5l-11 -12q51 -39 97.5 -88.5t84.5 -101.5t61 -98zM655 382l10 -9q98 28 154 65.5t80 75t22.5 65.5t-20 39t-46.5 -5q-7 -23 -21.5 -46t-32.5 -46q-53 7 -118 15.5t-139 16.5v306
q0 29 -7.5 50.5t-31.5 34.5t-73 17q-1 -17 -4.5 -30.5t-12.5 -21.5q-8 -9 -24 -15.5t-46 -10.5v-14l12 1t29 2t32.5 2t21.5 1q12 0 16 -4.5t4 -13.5v-294q-63 7 -131 14.5t-142 15.5q-12 16 -26 21l-40 -103l16 -2t27 -6q59 -20 124.5 -50.5t132.5 -66.5t127 -74
q-67 13 -152 27.5t-180 28.5q-4 7 -10.5 12t-12.5 7l-38 -96l11.5 -2t19.5 -6q41 -17 86 -46.5t88 -64.5t78.5 -68.5t56.5 -59.5l102 71q-4 6 -14 9.5t-26 -0.5q-34 27 -86.5 58.5t-112.5 62t-119 54.5q66 -2 161.5 -7.5t198.5 -12.5q44 -29 80.5 -56t61.5 -50l92 85
q-5 6 -17 8t-28 -5q-43 28 -106.5 61t-139.5 68t-157 67.5t-158 59.5q65 -1 152.5 -4t190.5 -7t213 -8q-29 -34 -63 -64t-65 -52zM631 633l10 -9q87 30 142 66t85 72t38.5 67.5t1.5 52t-25.5 26t-43.5 -10.5q-13 -45 -47 -94t-77 -93.5t-84 -76.5z" />
</svg>
