<?xml version="1.0" standalone="no"?>
<!DOCTYPE svg PUBLIC "-//W3C//DTD SVG 1.1//EN" "http://www.w3.org/Graphics/SVG/1.1/DTD/svg11.dtd" >
<svg xmlns="http://www.w3.org/2000/svg" xmlns:xlink="http://www.w3.org/1999/xlink" version="1.1" viewBox="-10 0 1010 1000">
   <path fill="currentColor"
d="M102 53l9 -8q75 18 116.5 45.5t56.5 56t10.5 50.5t-23 29.5t-42.5 -7.5q-9 -28 -30 -59t-47 -59t-50 -48zM335 468l76 64q-6 7 -14.5 9t-25.5 4q-20 57 -59.5 115.5t-94.5 103.5q2 1 5 3.5t6 4.5q43 41 97.5 61.5t128.5 27t175 6.5q88 0 166.5 -1t169.5 -5v13
q-25 5 -39.5 23t-18.5 42h-304q-103 0 -172.5 -12t-120 -42t-95.5 -83q-19 -21 -33 1q-9 15 -23.5 37t-30 46.5t-28.5 46.5q4 12 -6 21l-62 -81q24 -16 54 -40t57 -44.5t42 -26.5q38 -46 66.5 -106t42.5 -117h-106l-31 27l-62 -55q18 -11 40 -17q17 -24 36.5 -53.5t38 -60.5
t32.5 -56h-185l-9 -29h199l40 -41l81 73q-7 8 -23 12t-36 4q-13 22 -32 51.5t-39 60t-38 55.5h91z" />
</svg>
