<?xml version="1.0" standalone="no"?>
<!DOCTYPE svg PUBLIC "-//W3C//DTD SVG 1.1//EN" "http://www.w3.org/Graphics/SVG/1.1/DTD/svg11.dtd" >
<svg xmlns="http://www.w3.org/2000/svg" xmlns:xlink="http://www.w3.org/1999/xlink" version="1.1" viewBox="-10 0 1010 1000">
   <path fill="currentColor"
d="M794 65l99 57q-4 7 -12 10t-25 0q-28 30 -69 69.5t-85 69.5l-12 -12q20 -28 40 -63.5t37 -70t27 -60.5zM105 78l9 -7q72 23 110 54t49.5 61t4.5 52t-26.5 28t-43.5 -11q-6 -30 -22.5 -62t-38 -62.5t-42.5 -52.5zM653 333l6 -15q108 16 171.5 42t92.5 54.5t31 52t-13.5 34
t-39.5 0.5q-18 -23 -54.5 -52t-85.5 -59.5t-108 -56.5zM459 487v-172h-165l84 52q-4 7 -12.5 9t-25.5 -2q-56 47 -149 92l48 21h220zM809 286l53 -65l17 12.5t40 30.5t42 35q-3 16 -27 16h-397v172h221l39 -44l92 68q-4 6 -15.5 12t-26.5 8v333q0 27 -7.5 47.5t-32 33
t-74.5 16.5q-2 -17 -6.5 -30t-14.5 -21q-11 -8 -29.5 -15t-51.5 -11v-15l14.5 1t34.5 2t38.5 2t27.5 1q14 0 18 -5t4 -15v-338h-231v405q0 4 -17.5 13t-47.5 9h-13v-341q-9 9 -34 6q-18 33 -45 74.5t-59.5 82.5t-68.5 75l-13 -11q27 -41 51.5 -91.5t44 -100t30.5 -87.5
l94 44v-78h-227v417q0 6 -20.5 16.5t-44.5 10.5h-13v-478q-28 11 -55.5 21t-56.5 18l-9 -14q48 -24 95 -56.5t87.5 -68.5t66.5 -68h-232l-9 -29h328v-246l108 10q-1 10 -8.5 16.5t-24.5 9.5v210h109v-246l109 10q-1 10 -8.5 16.5t-24.5 9.5v210h180zM568 573l13 -6
q71 42 109 83t51.5 75.5t8.5 56.5t-21 27.5t-37 -11.5q-9 -35 -30 -75.5t-46.5 -80t-47.5 -69.5z" />
</svg>
