<?xml version="1.0" standalone="no"?>
<!DOCTYPE svg PUBLIC "-//W3C//DTD SVG 1.1//EN" "http://www.w3.org/Graphics/SVG/1.1/DTD/svg11.dtd" >
<svg xmlns="http://www.w3.org/2000/svg" xmlns:xlink="http://www.w3.org/1999/xlink" version="1.1" viewBox="-10 0 1010 1000">
   <path fill="currentColor"
d="M95 107q82 48 126 98t58.5 93.5t8 73t-26.5 38t-46 -13.5q-5 -46 -25.5 -97t-49 -99.5t-57.5 -85.5zM374 44q75 49 113.5 100.5t49.5 95.5t2.5 73.5t-30 36.5t-46.5 -16q-1 -47 -16 -98t-38 -99.5t-48 -86.5zM826 72l120 55q-4 7 -12 11t-28 2q-33 61 -82.5 133.5
t-112 142.5t-136.5 126l-11 -11q42 -48 81.5 -106.5t74 -120.5t61.5 -121.5t45 -110.5z" />
</svg>
