<?xml version="1.0" standalone="no"?>
<!DOCTYPE svg PUBLIC "-//W3C//DTD SVG 1.1//EN" "http://www.w3.org/Graphics/SVG/1.1/DTD/svg11.dtd" >
<svg xmlns="http://www.w3.org/2000/svg" xmlns:xlink="http://www.w3.org/1999/xlink" version="1.1" viewBox="-10 0 1010 1000">
   <path fill="currentColor"
d="M787 312l21 12q-26 69 -64 142.5t-82 142t-87 122.5q50 35 92.5 70t70.5 67l-23 23q-38 -43 -101 -93t-137 -97.5t-147 -83.5l21 -21q100 50 199 118q41 -49 81.5 -112t75.5 -130.5t59 -127.5h-389q-46 90 -103.5 173.5t-125.5 150.5q-4 -5 -11.5 -11t-13.5 -10
q75 -71 136 -162t107 -190.5t76 -194.5l33 9q-17 50 -38 102t-46 103h389z" />
</svg>
