<?xml version="1.0" standalone="no"?>
<!DOCTYPE svg PUBLIC "-//W3C//DTD SVG 1.1//EN" "http://www.w3.org/Graphics/SVG/1.1/DTD/svg11.dtd" >
<svg xmlns="http://www.w3.org/2000/svg" xmlns:xlink="http://www.w3.org/1999/xlink" version="1.1" viewBox="-10 0 1010 1000">
   <path fill="currentColor"
d="M399 780q0 46 41 72.5t109 26.5q54 0 83 -16.5t40.5 -45t11.5 -65.5v-24t-1 -29q-58 -20 -125 -20q-70 0 -114.5 28.5t-44.5 72.5zM706 132q-2 16 -3.5 29t-2.5 27q-1 25 -1.5 64t-0.5 74q51 -4 99 -9.5t91 -13.5v30q-46 8 -93.5 13.5t-96.5 8.5q0 48 2 104t5 112.5
t5 108.5q59 22 109.5 56.5t93.5 72.5l-19 28q-43 -40 -87.5 -73t-95.5 -54q1 14 1 28v27q0 22 -6 46.5t-22 46.5t-45.5 35.5t-76.5 13.5q-97 0 -143.5 -34.5t-46.5 -90.5q0 -33 21 -62.5t63 -48t105 -18.5q62 0 121 17q-2 -46 -5 -102t-5 -111.5t-2 -99.5q-61 3 -122 3
q-42 0 -79.5 -2t-81.5 -5v-31q42 4 81.5 6t82.5 2q61 0 119 -3v-76t1 -62v-29.5t-2 -27.5h37zM207 135q-3 10 -6 20.5t-5 24.5q-12 59 -24 133t-20 149t-8 137q0 58 4 106.5t12 107.5q9 -28 21.5 -63.5t25.5 -70t23 -58.5l20 15q-10 28 -25 67.5t-28 76.5t-18 59t-3 44
q1 7 2 15t2 13l-28 3q-14 -56 -25 -134.5t-11 -179.5q0 -54 6 -114t14.5 -118.5t16.5 -108.5t13 -83q2 -14 3 -25t1 -20zM794 160q0 29 20.5 49.5t50.5 20.5q29 0 50 -20.5t21 -49.5q0 -30 -21 -51t-50 -21q-30 0 -50.5 21t-20.5 51zM764 160q0 -43 29 -72.5t72 -29.5
q42 0 72 29.5t30 72.5q0 42 -30 71.5t-72 29.5q-43 0 -72 -29.5t-29 -71.5z" />
</svg>
