<?xml version="1.0" standalone="no"?>
<!DOCTYPE svg PUBLIC "-//W3C//DTD SVG 1.1//EN" "http://www.w3.org/Graphics/SVG/1.1/DTD/svg11.dtd" >
<svg xmlns="http://www.w3.org/2000/svg" xmlns:xlink="http://www.w3.org/1999/xlink" version="1.1" viewBox="-10 0 1010 1000">
   <path fill="currentColor"
d="M941 164h-579q-12 51 -26.5 109t-28.5 113.5t-27 99.5h547l-0.5 7.5t-1.5 11.5q-17 139 -33 226.5t-33.5 135t-40.5 67.5q-14 12 -29.5 16t-39.5 4q-24 1 -71 -1t-100 -6q-2 -14 -10 -29q57 6 106.5 7.5t68.5 1.5t30.5 -2t20.5 -9q20 -17 37 -61.5t32.5 -127t30.5 -212.5
h-556q15 -44 31.5 -105t32.5 -125.5t29 -120.5h-268v-29h878v29z" />
</svg>
