<?xml version="1.0" standalone="no"?>
<!DOCTYPE svg PUBLIC "-//W3C//DTD SVG 1.1//EN" "http://www.w3.org/Graphics/SVG/1.1/DTD/svg11.dtd" >
<svg xmlns="http://www.w3.org/2000/svg" xmlns:xlink="http://www.w3.org/1999/xlink" version="1.1" viewBox="-10 0 1010 1000">
   <path fill="currentColor"
d="M935 161h-533q-1 58 -4 121t-11 126h446v20q-7 127 -14.5 215t-16 145.5t-19.5 89.5t-25 46q-13 13 -27.5 18t-39.5 6t-74.5 -1t-102.5 -6q-1 -8 -3 -15.5t-7 -14.5q60 6 111.5 7t69.5 1q36 1 47 -11q17 -15 29.5 -64.5t22.5 -147.5t19 -259h-420q-14 104 -47.5 202.5
t-97 180t-168.5 136.5q-4 -5 -10.5 -10t-11.5 -9q90 -45 148.5 -112t93 -148t51.5 -169t23 -176.5t8 -170.5h-307v-29h870v29z" />
</svg>
