<?xml version="1.0" standalone="no"?>
<!DOCTYPE svg PUBLIC "-//W3C//DTD SVG 1.1//EN" "http://www.w3.org/Graphics/SVG/1.1/DTD/svg11.dtd" >
<svg xmlns="http://www.w3.org/2000/svg" xmlns:xlink="http://www.w3.org/1999/xlink" version="1.1" viewBox="-10 0 1010 1000">
   <path fill="currentColor"
d="M931 288h-308q-4 146 -29.5 262.5t-99.5 202.5q83 68 196 111t261 62q-4 5 -9.5 12.5t-8.5 14.5q-296 -42 -458 -179q-59 60 -150.5 103.5t-226.5 70.5q-2 -6 -7 -13.5t-9 -12.5q133 -26 223 -68.5t146 -99.5q-78 -72 -129.5 -171t-83.5 -226l27 -8q29 122 79.5 217.5
t126.5 165.5q70 -82 94 -192.5t28 -251.5h-522v-29h523q2 -47 2 -95.5v-100.5h30v100.5t-2 95.5h307v29z" />
</svg>
