<?xml version="1.0" standalone="no"?>
<!DOCTYPE svg PUBLIC "-//W3C//DTD SVG 1.1//EN" "http://www.w3.org/Graphics/SVG/1.1/DTD/svg11.dtd" >
<svg xmlns="http://www.w3.org/2000/svg" xmlns:xlink="http://www.w3.org/1999/xlink" version="1.1" viewBox="-10 0 1010 1000">
   <path fill="currentColor"
d="M927 158h-414v196h352v29h-352v200h404l-0.5 7t-1.5 11q-13 108 -26 176t-27 105t-33 54q-13 10 -27.5 13.5t-37.5 4.5q-23 0 -70 -1.5t-101 -5.5q-1 -6 -3 -14t-6 -15q57 6 106.5 7.5t67.5 1.5q19 0 30 -1.5t18 -8.5q16 -13 29 -47t25 -96.5t23 -161.5h-728v-313h29v284
h299v-425h-404v-29h848v29z" />
</svg>
