<?xml version="1.0" standalone="no"?>
<!DOCTYPE svg PUBLIC "-//W3C//DTD SVG 1.1//EN" "http://www.w3.org/Graphics/SVG/1.1/DTD/svg11.dtd" >
<svg xmlns="http://www.w3.org/2000/svg" xmlns:xlink="http://www.w3.org/1999/xlink" version="1.1" viewBox="-10 0 1010 1000">
   <path fill="currentColor"
d="M775 119l33 9q-49 184 -118.5 321.5t-170.5 240.5q87 83 197.5 142.5t249.5 93.5q-5 4 -10.5 12t-10.5 14q-139 -35 -250 -95.5t-198 -145.5q-82 78 -188.5 137t-241.5 104q-8 -16 -21 -29q135 -42 241 -99.5t188 -134.5q-103 -107 -174 -248.5t-118 -313.5l30 -7
q44 167 113.5 305t170.5 242q99 -100 166 -235t112 -313z" />
</svg>
