<?xml version="1.0" standalone="no"?>
<!DOCTYPE svg PUBLIC "-//W3C//DTD SVG 1.1//EN" "http://www.w3.org/Graphics/SVG/1.1/DTD/svg11.dtd" >
<svg xmlns="http://www.w3.org/2000/svg" xmlns:xlink="http://www.w3.org/1999/xlink" version="1.1" viewBox="-10 0 1010 1000">
   <path fill="currentColor"
d="M608 483h267v7.5t-1 11.5q-7 137 -15.5 220t-19.5 125t-27 58q-12 13 -26.5 17t-37.5 5q-25 1 -73 -1t-101 -6q-1 -7 -3.5 -14.5t-7.5 -14.5q59 5 109.5 6.5t68.5 1.5t28 -2t17 -9q14 -13 24 -52t18.5 -117t16.5 -206h-281q16 -45 34 -106t35.5 -126.5t30.5 -123.5h-344
v24q0 79 -6.5 172.5t-31 194.5t-77 203.5t-143.5 199.5q-9 -9 -25 -18q90 -95 141.5 -195.5t75.5 -199t30.5 -189.5t6.5 -167v-25h-179v-29h595q-14 55 -31.5 119t-35 125.5t-32.5 110.5z" />
</svg>
