<?xml version="1.0" standalone="no"?>
<!DOCTYPE svg PUBLIC "-//W3C//DTD SVG 1.1//EN" "http://www.w3.org/Graphics/SVG/1.1/DTD/svg11.dtd" >
<svg xmlns="http://www.w3.org/2000/svg" xmlns:xlink="http://www.w3.org/1999/xlink" version="1.1" viewBox="-10 0 1010 1000">
   <path fill="currentColor"
d="M633 221l18 10q-16 67 -38 128.5t-49 116.5q36 99 94.5 188.5t134.5 157.5t162 104q-5 4 -11.5 11.5t-10.5 13.5q-83 -39 -156.5 -105t-132 -152.5t-96.5 -184.5q-86 162 -209.5 272t-260.5 175q-4 -6 -10 -13.5t-12 -11.5q124 -56 235 -148.5t195.5 -225t127.5 -305.5
h-309q-49 93 -108 172.5t-128 140.5q-3 -4 -11 -10t-14 -10q103 -87 183.5 -216.5t130.5 -277.5l30 6q-16 43 -32.5 84.5t-36.5 81.5h307z" />
</svg>
