<?xml version="1.0" standalone="no"?>
<!DOCTYPE svg PUBLIC "-//W3C//DTD SVG 1.1//EN" "http://www.w3.org/Graphics/SVG/1.1/DTD/svg11.dtd" >
<svg xmlns="http://www.w3.org/2000/svg" xmlns:xlink="http://www.w3.org/1999/xlink" version="1.1" viewBox="-10 0 1010 1000">
   <path fill="currentColor"
d="M465 67l29 12q-48 74 -113 151.5t-138 148.5t-146 128q-4 -5 -10 -11.5t-11 -10.5q72 -54 145 -124t136.5 -146t107.5 -148zM930 926l-25 17q-14 -26 -34 -55.5t-43 -62.5q-159 14 -272 24t-188.5 16.5t-122 11t-71 7.5t-36 5.5t-18.5 4.5q-1 -6 -5 -16t-8 -16
q18 -4 53 -32t78 -69q23 -20 70 -67t107.5 -112.5t125 -141.5t123.5 -154l30 13q-125 160 -256.5 304.5t-260.5 250.5l631 -55q-40 -55 -85 -110.5t-89 -102.5l24 -13q52 54 104.5 118.5t97 126t70.5 108.5z" />
</svg>
