<?xml version="1.0" standalone="no"?>
<!DOCTYPE svg PUBLIC "-//W3C//DTD SVG 1.1//EN" "http://www.w3.org/Graphics/SVG/1.1/DTD/svg11.dtd" >
<svg xmlns="http://www.w3.org/2000/svg" xmlns:xlink="http://www.w3.org/1999/xlink" version="1.1" viewBox="-10 0 1010 1000">
   <path fill="currentColor"
d="M261 885h530q40 0 60 -17t28 -61t11 -125q6 4 15 6.5t16 4.5q-5 90 -16 138t-37 65.5t-75 17.5h-524q-86 0 -129 -26t-43 -74q0 -16 5 -35t24 -48t58.5 -73.5t107.5 -110t172 -158.5t252 -219h-621v-29h661l7 -3l21 13q-2 4 -9 7q-153 131 -261.5 227t-179.5 164
t-113 113t-62 73.5t-26 46.5t-6 31q0 37 39 54.5t95 17.5z" />
</svg>
