<?xml version="1.0" standalone="no"?>
<!DOCTYPE svg PUBLIC "-//W3C//DTD SVG 1.1//EN" "http://www.w3.org/Graphics/SVG/1.1/DTD/svg11.dtd" >
<svg xmlns="http://www.w3.org/2000/svg" xmlns:xlink="http://www.w3.org/1999/xlink" version="1.1" viewBox="-10 0 1010 1000">
   <path fill="currentColor"
d="M888 232l19 9q-26 58 -59.5 120t-66.5 103l-25 -12q29 -35 58 -87t51 -102h-334v622q0 23 -8 33t-26 15q-17 4 -56 4.5t-106 0.5q-1 -6 -4.5 -14t-7.5 -15q57 1 99.5 1t56.5 -1q13 -1 18 -5.5t5 -17.5v-623h-255q-36 60 -76 113.5t-82 96.5q-12 -10 -28 -18
q80 -74 147 -181t112 -224l29 8q-18 45 -39.5 89.5t-44.5 86.5h616z" />
</svg>
