<?xml version="1.0" standalone="no"?>
<!DOCTYPE svg PUBLIC "-//W3C//DTD SVG 1.1//EN" "http://www.w3.org/Graphics/SVG/1.1/DTD/svg11.dtd" >
<svg xmlns="http://www.w3.org/2000/svg" xmlns:xlink="http://www.w3.org/1999/xlink" version="1.1" viewBox="-10 0 1010 1000">
   <path fill="currentColor"
d="M834 144v29h-666v-29h666zM938 458h-489q-56 113 -122 220.5t-134 192.5l606 -56q-37 -56 -78.5 -115t-79.5 -109l26 -12q43 57 89.5 122t87 126.5t64.5 108.5l-26 15q-13 -23 -29.5 -51t-36.5 -59q-149 14 -255 24.5t-177.5 17.5t-115 11.5t-67.5 8t-35 6t-18 5.5
q-1 -6 -4.5 -16.5t-6.5 -17.5q13 -3 31.5 -25t40.5 -55q12 -15 34.5 -49.5t52 -81t59.5 -101t57 -110.5h-348v-29h874v29z" />
</svg>
