<?xml version="1.0" standalone="no"?>
<!DOCTYPE svg PUBLIC "-//W3C//DTD SVG 1.1//EN" "http://www.w3.org/Graphics/SVG/1.1/DTD/svg11.dtd" >
<svg xmlns="http://www.w3.org/2000/svg" xmlns:xlink="http://www.w3.org/1999/xlink" version="1.1" viewBox="-10 0 1010 1000">
   <path fill="currentColor"
d="M678 875h268v29h-892v-29h593q10 -53 21.5 -120t22.5 -141t21.5 -147.5t17.5 -137.5h-384l-21 86q53 17 109.5 40t107 47t84.5 46l-19 27q-32 -21 -80 -45t-102.5 -47t-106.5 -40q-10 37 -19.5 74.5t-18.5 72.5q53 18 109.5 42t107 49t83.5 48l-18 26q-32 -22 -80 -46.5
t-102.5 -48.5t-105.5 -43q-14 50 -26.5 95.5t-23.5 82.5l-29 -6q18 -59 39.5 -137t43.5 -164.5t42.5 -172.5t36.5 -159h-263v-29h817v29h-525q-15 67 -33 144h411q-9 66 -19.5 142.5t-22.5 155.5t-23 150.5t-21 126.5z" />
</svg>
