<?xml version="1.0" standalone="no"?>
<!DOCTYPE svg PUBLIC "-//W3C//DTD SVG 1.1//EN" "http://www.w3.org/Graphics/SVG/1.1/DTD/svg11.dtd" >
<svg xmlns="http://www.w3.org/2000/svg" xmlns:xlink="http://www.w3.org/1999/xlink" version="1.1" viewBox="-10 0 1010 1000">
   <path fill="currentColor"
d="M547 71l30 2q-2 33 -4.5 64.5t-6.5 61.5q29 124 78 229t120.5 183t164.5 121q-5 4 -11 11t-10 14q-130 -65 -217.5 -190.5t-135.5 -294.5q-19 117 -55 207.5t-96.5 158.5t-151.5 119q-3 -5 -9.5 -12.5t-11.5 -11.5q114 -58 179 -147.5t95.5 -217t41.5 -297.5zM158 860
h781v29h-810v-768h29v739z" />
</svg>
