<?xml version="1.0" standalone="no"?>
<!DOCTYPE svg PUBLIC "-//W3C//DTD SVG 1.1//EN" "http://www.w3.org/Graphics/SVG/1.1/DTD/svg11.dtd" >
<svg xmlns="http://www.w3.org/2000/svg" xmlns:xlink="http://www.w3.org/1999/xlink" version="1.1" viewBox="-10 0 1010 1000">
   <path fill="currentColor"
d="M930 151h-753v265q0 58 -3.5 126t-14.5 139t-32.5 138.5t-57.5 126.5q-4 -5 -11.5 -10.5t-12.5 -8.5q35 -57 55.5 -122t31 -133t13.5 -133.5t3 -122.5v-294h782v29zM564 198h30q-2 47 -5.5 98t-10.5 104q35 111 90.5 212t127.5 180t154 124q-13 9 -23 25
q-76 -46 -144 -119t-122.5 -165.5t-92.5 -195.5q-17 96 -53.5 188t-103.5 169.5t-175 128.5q-9 -11 -23 -21q95 -43 157 -107.5t99.5 -142t56.5 -160.5t27 -164.5t11 -153.5z" />
</svg>
