<?xml version="1.0" standalone="no"?>
<!DOCTYPE svg PUBLIC "-//W3C//DTD SVG 1.1//EN" "http://www.w3.org/Graphics/SVG/1.1/DTD/svg11.dtd" >
<svg xmlns="http://www.w3.org/2000/svg" xmlns:xlink="http://www.w3.org/1999/xlink" version="1.1" viewBox="-10 0 1010 1000">
   <path fill="currentColor"
d="M805 549l6 -3l22 13q-30 37 -68.5 85t-82.5 101.5t-88 106t-84 99.5l-27 -13q38 -42 78.5 -90.5t80 -97.5t75.5 -93.5t63 -78.5h-612v-29h637zM328 374h345v29h-345v-29zM509 48l26 11l-8 12t-9 12q38 51 90 101.5t111.5 96.5t120 84t115.5 62q-6 4 -12 11t-11 13
q-53 -25 -111.5 -63t-116.5 -84t-110.5 -96.5t-92.5 -101.5q-53 68 -122.5 132.5t-149 119t-161.5 94.5q-9 -13 -22 -21q92 -43 179 -104.5t160.5 -133.5t123.5 -145z" />
</svg>
