<?xml version="1.0" standalone="no"?>
<!DOCTYPE svg PUBLIC "-//W3C//DTD SVG 1.1//EN" "http://www.w3.org/Graphics/SVG/1.1/DTD/svg11.dtd" >
<svg xmlns="http://www.w3.org/2000/svg" xmlns:xlink="http://www.w3.org/1999/xlink" version="1.1" viewBox="-10 0 1010 1000">
   <path fill="currentColor"
d="M299 571v-144h29v144q0 50 -7 101t-29.5 100.5t-68 95t-122.5 85.5q-3 -5 -9.5 -11.5t-11.5 -10.5q75 -38 119 -81.5t65.5 -90.5t28 -94.5t6.5 -93.5zM673 955v-529h29v529h-29zM503 49l24 15q-3 6 -6.5 11.5t-6.5 10.5q36 54 87.5 107t112.5 100.5t125.5 85t127.5 59.5
q-5 4 -11 11.5t-11 14.5q-61 -24 -123.5 -61.5t-122 -85t-111 -101t-89.5 -107.5q-49 77 -119.5 147.5t-152 127t-166.5 90.5q-3 -6 -8 -14t-10 -13q69 -26 136.5 -67.5t129 -94.5t111.5 -113t83 -123z" />
</svg>
