<?xml version="1.0" standalone="no"?>
<!DOCTYPE svg PUBLIC "-//W3C//DTD SVG 1.1//EN" "http://www.w3.org/Graphics/SVG/1.1/DTD/svg11.dtd" >
<svg xmlns="http://www.w3.org/2000/svg" xmlns:xlink="http://www.w3.org/1999/xlink" version="1.1" viewBox="-10 0 1010 1000">
   <path fill="currentColor"
d="M266 731l15 -25q56 16 115.5 36.5t117.5 43.5t107.5 46t85.5 44l-14 30q-36 -21 -86 -44.5t-107.5 -47.5t-117.5 -45.5t-116 -37.5zM377 448l17 -20q48 24 98 55t94 62.5t72 57.5l-18 25q-28 -26 -72 -58t-94 -64.5t-97 -57.5zM504 55l25 12q-5 11 -13 23
q58 91 126.5 160t146 123t160.5 100q-12 8 -22 22q-122 -69 -229 -158t-198 -223q-50 76 -117 148.5t-143.5 133.5t-157.5 105q-4 -5 -11 -11.5t-12 -9.5q89 -47 173.5 -115t154.5 -148t117 -162z" />
</svg>
