<?xml version="1.0" standalone="no"?>
<!DOCTYPE svg PUBLIC "-//W3C//DTD SVG 1.1//EN" "http://www.w3.org/Graphics/SVG/1.1/DTD/svg11.dtd" >
<svg xmlns="http://www.w3.org/2000/svg" xmlns:xlink="http://www.w3.org/1999/xlink" version="1.1" viewBox="-10 0 1010 1000">
   <path fill="currentColor"
d="M90 589v-29h826v29h-459q-58 82 -121 157.5t-126 134.5l558 -51q-33 -40 -70.5 -79.5t-74.5 -72.5l24 -14q46 41 91 89t82.5 95t59.5 84l-26 17q-12 -20 -28 -43t-36 -48q-141 13 -242 22.5t-168.5 16t-109.5 11t-64.5 7.5t-33 5t-17.5 5q-1 -6 -4.5 -16.5t-6.5 -17.5
q13 -2 31 -17.5t41 -38.5q15 -14 48.5 -51.5t74.5 -89t77 -105.5h-326zM260 369h486v29h-486v-29zM512 55l34 11l-12 18t-12 17q42 52 109 110t149.5 108.5t169.5 83.5q-5 5 -11.5 13t-10.5 14q-86 -35 -167 -86.5t-147.5 -109t-109.5 -108.5q-74 93 -182.5 173.5
t-240.5 142.5q-9 -13 -24 -22q101 -47 189 -104.5t156.5 -124t109.5 -136.5z" />
</svg>
