<?xml version="1.0" standalone="no"?>
<!DOCTYPE svg PUBLIC "-//W3C//DTD SVG 1.1//EN" "http://www.w3.org/Graphics/SVG/1.1/DTD/svg11.dtd" >
<svg xmlns="http://www.w3.org/2000/svg" xmlns:xlink="http://www.w3.org/1999/xlink" version="1.1" viewBox="-10 0 1010 1000">
   <path fill="currentColor"
d="M733 32l25 23q-48 39 -117.5 76t-148 70t-155.5 61q-4 -12 -12 -23q76 -28 154 -61.5t145 -70.5t109 -75zM279 59l28 6q-19 58 -42.5 114t-50.5 109v660h-29v-605q-27 47 -56 89.5t-61 79.5q-8 -12 -21 -23q47 -53 90 -122t79 -148t63 -160zM435 667l29 9
q-19 37 -47.5 77.5t-61 77.5t-65.5 66q-4 -4 -10 -9.5t-11 -9.5q32 -28 64 -63t58.5 -73.5t43.5 -74.5zM848 571l-223 25v311q0 26 -21 33q-13 4 -39 4.5t-73 0.5q-3 -12 -12 -24q36 1 64 0.5t35 -0.5q9 -1 12.5 -3.5t3.5 -10.5v-307q-84 9 -134.5 15t-77 9.5t-38.5 6.5
t-18 6q-1 -7 -4.5 -17t-6.5 -17q17 -2 48 -17.5t70 -38.5q27 -16 89.5 -57t136.5 -96q-93 8 -148.5 13t-84 8.5t-40 5.5t-17.5 5q-1 -6 -4 -15.5t-6 -16.5q14 -2 34 -11.5t43 -24.5q18 -11 58 -39.5t89 -68t92 -82.5l27 16q-66 59 -132.5 110t-131.5 90l261 -21
q33 -25 65.5 -51t63.5 -53l28 18q-112 94 -223 172t-221 140l415 -43q-37 -47 -74 -89l22 -12q29 31 59.5 68t57.5 72t44 60l-23 16q-12 -18 -29 -41.5t-37 -48.5zM749 668l22 -14q34 32 67 71t60.5 76t42.5 67l-22 17q-15 -31 -42.5 -69t-60.5 -77t-67 -71z" />
</svg>
