<?xml version="1.0" standalone="no"?>
<!DOCTYPE svg PUBLIC "-//W3C//DTD SVG 1.1//EN" "http://www.w3.org/Graphics/SVG/1.1/DTD/svg11.dtd" >
<svg xmlns="http://www.w3.org/2000/svg" xmlns:xlink="http://www.w3.org/1999/xlink" version="1.1" viewBox="-10 0 1010 1000">
   <path fill="currentColor"
d="M857 136v29h-707v-29h707zM690 903h169q24 0 36 -14t16.5 -55t6.5 -122q14 11 29 16q-2 81 -8.5 125t-24.5 61.5t-55 17.5h-168q-50 0 -68 -13t-18 -55v-410h-227q-7 84 -22.5 159.5t-47 139t-85.5 113.5t-138 83q-3 -5 -9 -11t-11 -10q82 -31 134.5 -79.5t82.5 -110
t45 -133.5t21 -151h-282v-29h869v29h-301v410q0 23 11 31t45 8z" />
</svg>
