<?xml version="1.0" standalone="no"?>
<!DOCTYPE svg PUBLIC "-//W3C//DTD SVG 1.1//EN" "http://www.w3.org/Graphics/SVG/1.1/DTD/svg11.dtd" >
<svg xmlns="http://www.w3.org/2000/svg" xmlns:xlink="http://www.w3.org/1999/xlink" version="1.1" viewBox="-10 0 1010 1000">
   <path fill="currentColor"
d="M349 68l29 8q-48 119 -129 211t-179 154q-3 -4 -11 -11t-14 -11q100 -57 179.5 -147t124.5 -204zM322 579h464l-0.5 7t-1.5 11q-14 101 -27 164.5t-27.5 99t-33.5 51.5q-13 10 -27.5 13.5t-38.5 4.5q-25 0 -76 -1.5t-109 -6.5q-1 -6 -3.5 -13.5t-7.5 -14.5
q62 6 115.5 7.5t73.5 1.5t31.5 -1.5t19.5 -7.5q16 -13 29 -45t25 -90.5t24 -150.5h-471q20 -45 42.5 -109t39.5 -121h-131v-29h543v29h-382q-17 49 -35.5 103.5t-35.5 97.5zM613 63l26 -10q32 74 82.5 144t111 126t122.5 88q-5 4 -11.5 10.5t-10.5 12.5q-62 -35 -123 -93
t-112 -130t-85 -148z" />
</svg>
