<?xml version="1.0" standalone="no"?>
<!DOCTYPE svg PUBLIC "-//W3C//DTD SVG 1.1//EN" "http://www.w3.org/Graphics/SVG/1.1/DTD/svg11.dtd" >
<svg xmlns="http://www.w3.org/2000/svg" xmlns:xlink="http://www.w3.org/1999/xlink" version="1.1" viewBox="-10 0 1010 1000">
   <path fill="currentColor"
d="M932 218h-530q-20 45 -45.5 87t-54.5 83h493v506q0 22 -7 32t-26 15q-18 4 -59.5 5t-111.5 1q-1 -7 -4.5 -15t-7.5 -15q61 1 105 1t58 -1t19 -5.5t5 -17.5v-477h-454v534h-29v-536q-45 59 -99 110.5t-117 93.5q-5 -12 -17 -24q105 -70 185 -167.5t135 -209.5h-298v-29
h312q15 -34 28.5 -69t23.5 -69l30 9q-10 32 -22.5 64.5t-27.5 64.5h516v29z" />
</svg>
