<?xml version="1.0" standalone="no"?>
<!DOCTYPE svg PUBLIC "-//W3C//DTD SVG 1.1//EN" "http://www.w3.org/Graphics/SVG/1.1/DTD/svg11.dtd" >
<svg xmlns="http://www.w3.org/2000/svg" xmlns:xlink="http://www.w3.org/1999/xlink" version="1.1" viewBox="-10 0 1010 1000">
   <path fill="currentColor"
d="M464 279h433l-0.5 8t-0.5 13q-9 160 -18.5 271.5t-20 182.5t-23 110.5t-29.5 56.5q-13 16 -29 21t-40 6t-68.5 -1t-91.5 -6q-1 -7 -3 -15t-7 -15q56 5 102 6.5t64 1.5q17 0 27.5 -2.5t19.5 -11.5q15 -14 27 -52t22 -107.5t19.5 -177t18.5 -260.5h-402q-5 78 -23 161.5
t-58.5 167t-112.5 164t-185 153.5q-4 -5 -10 -11.5t-11 -10.5q111 -71 181.5 -148.5t110 -158.5t57 -161t22.5 -156h-345v-29h345q2 -22 2 -44v-42v-141h29v141v42t-2 44z" />
</svg>
