<?xml version="1.0" standalone="no"?>
<!DOCTYPE svg PUBLIC "-//W3C//DTD SVG 1.1//EN" "http://www.w3.org/Graphics/SVG/1.1/DTD/svg11.dtd" >
<svg xmlns="http://www.w3.org/2000/svg" xmlns:xlink="http://www.w3.org/1999/xlink" version="1.1" viewBox="-10 0 1010 1000">
   <path fill="currentColor"
d="M298 424l24 -14q47 42 92.5 92.5t83.5 100t59 90.5l-27 16q-20 -40 -57 -90.5t-82.5 -101.5t-92.5 -93zM910 209v22q-7 178 -15 302t-17 203t-21.5 122.5t-29.5 61.5q-15 16 -31 21.5t-42 6.5q-28 1 -77 -1t-102 -6q-1 -8 -3.5 -16t-7.5 -14q63 5 115 6.5t72 1.5
q17 0 28.5 -2.5t20.5 -12.5q15 -15 26.5 -56t21 -118t17.5 -197.5t15 -294.5h-613q-40 82 -87 153.5t-100 127.5q-4 -4 -12 -9.5t-14 -9.5q83 -81 148 -200t107 -250l29 7q-13 39 -27.5 77t-31.5 75h631z" />
</svg>
