<?xml version="1.0" standalone="no"?>
<!DOCTYPE svg PUBLIC "-//W3C//DTD SVG 1.1//EN" "http://www.w3.org/Graphics/SVG/1.1/DTD/svg11.dtd" >
<svg xmlns="http://www.w3.org/2000/svg" xmlns:xlink="http://www.w3.org/1999/xlink" version="1.1" viewBox="-10 0 1010 1000">
   <path fill="currentColor"
d="M770 782h-567v80h-29v-467h29v357h567v30zM490 296l30 5q-9 46 -21.5 87t-28.5 79q42 34 85.5 73t81.5 76.5t63 66.5l-25 19q-23 -27 -58.5 -63t-76.5 -74t-82 -72q-67 141 -182 222q-9 -11 -24 -22q95 -62 154 -162t84 -235zM904 201v23q-5 187 -10 314t-11.5 206
t-15.5 121t-23 59q-13 16 -27 21t-37 6q-22 1 -60 -0.5t-78 -4.5q-1 -7 -2.5 -15t-6.5 -14q48 4 88.5 4.5t55.5 0.5q14 1 23.5 -2t16.5 -13q12 -14 20.5 -54.5t15.5 -118.5t12 -201.5t9 -302.5h-620q-38 67 -83 125t-94 103q-4 -3 -12.5 -9t-14.5 -10q81 -70 148 -172
t110 -217l29 8q-29 75 -66 143h633z" />
</svg>
