<?xml version="1.0" standalone="no"?>
<!DOCTYPE svg PUBLIC "-//W3C//DTD SVG 1.1//EN" "http://www.w3.org/Graphics/SVG/1.1/DTD/svg11.dtd" >
<svg xmlns="http://www.w3.org/2000/svg" xmlns:xlink="http://www.w3.org/1999/xlink" version="1.1" viewBox="-10 0 1010 1000">
   <path fill="currentColor"
d="M142 890h804v29h-834v-804h810v29h-780v746zM801 775l-27 20q-40 -53 -99.5 -120.5t-129.5 -138.5q-134 150 -287 258q-4 -4 -12 -11t-15 -11q78 -51 152 -116t141 -140q-65 -66 -134 -130t-135 -119l23 -17q65 54 133.5 117t132.5 127q57 -67 108 -138.5t92 -146.5
l28 10q-90 157 -208 295q71 72 133 139.5t104 121.5z" />
</svg>
