<?xml version="1.0" standalone="no"?>
<!DOCTYPE svg PUBLIC "-//W3C//DTD SVG 1.1//EN" "http://www.w3.org/Graphics/SVG/1.1/DTD/svg11.dtd" >
<svg xmlns="http://www.w3.org/2000/svg" xmlns:xlink="http://www.w3.org/1999/xlink" version="1.1" viewBox="-10 0 1010 1000">
   <path fill="currentColor"
d="M888 868l-28 17q-8 -23 -19 -51t-24 -59q-154 11 -263.5 18.5t-182.5 13t-118 9t-69.5 6.5t-35.5 5t-18 5q-1 -7 -5.5 -16.5t-8.5 -16.5q14 -5 36.5 -40.5t51.5 -87.5q15 -25 46 -81.5t69.5 -133.5t77.5 -165.5t71 -176.5l31 12q-46 118 -100 237.5t-111.5 228.5
t-116.5 198l635 -41q-29 -65 -63.5 -136.5t-67.5 -133.5l27 -12q27 49 54.5 104t52.5 109.5t45.5 103t33.5 84.5z" />
</svg>
