<?xml version="1.0" standalone="no"?>
<!DOCTYPE svg PUBLIC "-//W3C//DTD SVG 1.1//EN" "http://www.w3.org/Graphics/SVG/1.1/DTD/svg11.dtd" >
<svg xmlns="http://www.w3.org/2000/svg" xmlns:xlink="http://www.w3.org/1999/xlink" version="1.1" viewBox="-10 0 1010 1000">
   <path fill="currentColor"
d="M769 512h-402q74 139 208 244q62 -48 111.5 -109t82.5 -135zM792 481l19 13q-34 88 -88.5 157.5t-122.5 123.5q74 53 161 92.5t182 61.5q-4 4 -9.5 11.5t-9.5 14.5q-195 -47 -347 -163q-76 57 -164 96.5t-180 65.5q-3 -6 -8.5 -14t-10.5 -12q91 -25 177.5 -63t160.5 -91
q-136 -110 -213 -258q-25 63 -60.5 125t-84.5 115.5t-114 92.5q-9 -11 -21 -17q69 -41 120 -99.5t87 -126.5t60 -137t39 -132h-301v-29h308q10 -48 16 -88t10 -65q-69 7 -138.5 12.5t-134.5 10.5q-1 -12 -9 -25q89 -6 185.5 -15t189 -21t172 -26.5t133.5 -32.5l26 23
q-72 22 -175 39.5t-218 31.5q-4 26 -10.5 66.5t-17.5 89.5h541v29h-547q-8 34 -18.5 71t-24.5 75h433z" />
</svg>
