<?xml version="1.0" standalone="no"?>
<!DOCTYPE svg PUBLIC "-//W3C//DTD SVG 1.1//EN" "http://www.w3.org/Graphics/SVG/1.1/DTD/svg11.dtd" >
<svg xmlns="http://www.w3.org/2000/svg" xmlns:xlink="http://www.w3.org/1999/xlink" version="1.1" viewBox="-10 0 1010 1000">
   <path fill="currentColor"
d="M588 435h-310v285h310v-285zM617 749h-339v76h-29v-419h368v343zM905 209v22q-7 181 -14 306.5t-16 205.5t-20.5 123t-28.5 61q-14 16 -30.5 22t-42.5 7q-28 1 -77 -1t-102 -6q-2 -19 -10 -30q62 5 114.5 6t71.5 1q33 1 48 -14t26.5 -56t20.5 -119t16.5 -200t13.5 -299
h-609q-39 82 -86 154t-100 128q-3 -4 -11.5 -10t-14.5 -10q83 -81 148 -200t106 -250l30 7q-13 39 -27.5 77t-31.5 75h626z" />
</svg>
