<?xml version="1.0" standalone="no"?>
<!DOCTYPE svg PUBLIC "-//W3C//DTD SVG 1.1//EN" "http://www.w3.org/Graphics/SVG/1.1/DTD/svg11.dtd" >
<svg xmlns="http://www.w3.org/2000/svg" xmlns:xlink="http://www.w3.org/1999/xlink" version="1.1" viewBox="-10 0 1010 1000">
   <path fill="currentColor"
d="M844 237h-443q-27 40 -57.5 76t-62.5 69q63 37 127.5 80.5t121.5 87.5t96 81q71 -78 127.5 -176.5t90.5 -217.5zM861 206l19 9q-42 159 -117.5 282.5t-174.5 214t-211 150.5t-228 92q-6 -14 -17 -27q126 -33 248 -100.5t225 -172.5q-39 -37 -96 -81t-121.5 -88.5
t-126.5 -81.5q-64 63 -133 108q-3 -4 -11 -10t-14 -10q117 -76 213.5 -191t157.5 -251l29 9q-18 40 -38.5 77.5t-44.5 72.5h436z" />
</svg>
