<?xml version="1.0" standalone="no"?>
<!DOCTYPE svg PUBLIC "-//W3C//DTD SVG 1.1//EN" "http://www.w3.org/Graphics/SVG/1.1/DTD/svg11.dtd" >
<svg xmlns="http://www.w3.org/2000/svg" xmlns:xlink="http://www.w3.org/1999/xlink" version="1.1" viewBox="-10 0 1010 1000">
   <path fill="currentColor"
d="M936 384h-402q36 123 95 229.5t139 186t179 123.5q-6 5 -11.5 12.5t-10.5 13.5q-101 -49 -182.5 -132t-141.5 -193.5t-97 -239.5h-10q-15 80 -44.5 161t-78.5 156.5t-122 139.5t-177 109q-4 -5 -11 -11.5t-12 -10.5q101 -43 173 -104t120.5 -134t77.5 -151t45 -155h-397
v-29h401q16 -89 19 -168.5t3 -135.5h29q-1 58 -4 136.5t-17 167.5h437v29z" />
</svg>
