<?xml version="1.0" standalone="no"?>
<!DOCTYPE svg PUBLIC "-//W3C//DTD SVG 1.1//EN" "http://www.w3.org/Graphics/SVG/1.1/DTD/svg11.dtd" >
<svg xmlns="http://www.w3.org/2000/svg" xmlns:xlink="http://www.w3.org/1999/xlink" version="1.1" viewBox="-10 0 1010 1000">
   <path fill="currentColor"
d="M938 480h-410q52 165 160 282t265 167q-5 4 -11 11t-9 13q-160 -55 -269.5 -177.5t-164.5 -295.5h-3q-12 62 -38 124.5t-74 123t-124 117t-186 107.5q-4 -5 -9 -12t-10 -11q107 -49 180 -103t120 -111.5t73 -117t38 -117.5h-397v-29h402q6 -39 8 -76.5t2 -73.5v-134h-378
v-29h789v29h-382v134q0 36 -2 73.5t-7 76.5h437v29z" />
</svg>
