<?xml version="1.0" standalone="no"?>
<!DOCTYPE svg PUBLIC "-//W3C//DTD SVG 1.1//EN" "http://www.w3.org/Graphics/SVG/1.1/DTD/svg11.dtd" >
<svg xmlns="http://www.w3.org/2000/svg" xmlns:xlink="http://www.w3.org/1999/xlink" version="1.1" viewBox="-10 0 1010 1000">
   <path fill="currentColor"
d="M926 530h-410q51 154 162.5 254t278.5 139q-5 5 -11 12.5t-10 14.5q-165 -44 -277.5 -146t-167.5 -260q-18 78 -64 151t-132.5 137.5t-229.5 117.5q-2 -5 -7.5 -12.5t-10.5 -11.5q141 -53 226 -116.5t129 -134t61 -145.5h-388v-29h394q8 -38 10 -77.5t2 -78.5v-95h-338
v-29h338v-172h29v172h357v29h-357v95q0 39 -2 78.5t-9 77.5h427v29z" />
</svg>
