<?xml version="1.0" standalone="no"?>
<!DOCTYPE svg PUBLIC "-//W3C//DTD SVG 1.1//EN" "http://www.w3.org/Graphics/SVG/1.1/DTD/svg11.dtd" >
<svg xmlns="http://www.w3.org/2000/svg" xmlns:xlink="http://www.w3.org/1999/xlink" version="1.1" viewBox="-10 0 1010 1000">
   <path fill="currentColor"
d="M117 557v-29h764v29h-551q-12 31 -23.5 64t-22.5 61h493l-0.5 7t-2.5 11q-20 106 -38.5 158.5t-43.5 72.5q-13 9 -27 11.5t-37 3.5q-22 0 -69.5 -1.5t-103.5 -5.5q-1 -6 -3 -14t-6 -15q58 6 108 7.5t69 1.5q20 0 30.5 -1.5t17.5 -6.5q20 -17 37 -62t34 -138h-502
q15 -32 30.5 -73.5t28.5 -80.5h-182zM285 373h433v29h-433v-29zM934 214h-292q33 53 83 101.5t110.5 86.5t123.5 62q-11 13 -16 28q-67 -29 -130.5 -71.5t-116 -95t-86.5 -111.5h-218q-53 80 -134 154t-192 127q-4 -5 -10 -11.5t-11 -10.5q104 -49 182 -117.5t129 -141.5
h-287v-29h306q22 -35 37 -68.5t25 -65.5l32 5q-10 31 -25 64t-35 65h525v29z" />
</svg>
