<?xml version="1.0" standalone="no"?>
<!DOCTYPE svg PUBLIC "-//W3C//DTD SVG 1.1//EN" "http://www.w3.org/Graphics/SVG/1.1/DTD/svg11.dtd" >
<svg xmlns="http://www.w3.org/2000/svg" xmlns:xlink="http://www.w3.org/1999/xlink" version="1.1" viewBox="-10 0 1010 1000">
   <path fill="currentColor"
d="M515 227v229q0 23 9 66.5t34.5 98.5t74 112.5t127 108t193.5 84.5q-4 5 -9.5 13t-8.5 13q-102 -32 -175 -76.5t-121.5 -94t-77 -98t-42.5 -89.5t-19 -68q-4 27 -18.5 68t-44 89t-78.5 97t-121.5 94t-173.5 78q-8 -12 -19 -23q115 -36 194 -87t127.5 -108t74.5 -111.5
t35 -98.5t9 -68v-229h-426v-29h426v-145h30v145h427v29h-427zM273 273l29 5q-16 74 -45 139q28 23 57.5 50t55.5 52.5t42 44.5l-19 23q-15 -19 -39.5 -44t-52.5 -51.5t-55 -49.5q-58 123 -154 204q-4 -4 -11 -10t-13 -10q77 -59 128 -149.5t77 -203.5zM736 276l30 4
q-15 74 -42 139q36 30 74.5 65.5t72.5 69t55 59.5l-22 21q-20 -25 -51.5 -57.5t-68 -67.5t-71.5 -65q-49 102 -130 168q-4 -4 -11 -10t-13 -10q69 -52 113.5 -132.5t63.5 -183.5z" />
</svg>
