<?xml version="1.0" standalone="no"?>
<!DOCTYPE svg PUBLIC "-//W3C//DTD SVG 1.1//EN" "http://www.w3.org/Graphics/SVG/1.1/DTD/svg11.dtd" >
<svg xmlns="http://www.w3.org/2000/svg" xmlns:xlink="http://www.w3.org/1999/xlink" version="1.1" viewBox="-10 0 1010 1000">
   <path fill="currentColor"
d="M484 52h30v528q0 22 -7.5 31.5t-25.5 14.5q-18 4 -56 5t-103 1q-3 -16 -13 -30q57 1 98.5 1t54.5 -1t17.5 -5t4.5 -17v-528zM700 185l24 -12q46 50 91 110t82 117.5t57 102.5l-27 14q-19 -45 -55.5 -103t-81 -118t-90.5 -111zM787 476l27 12q-45 126 -131.5 219.5
t-221.5 154t-325 89.5l-7 -14t-9 -14q188 -27 320.5 -85t217 -148.5t129.5 -213.5zM270 177l30 9q-25 58 -60.5 120.5t-77.5 121t-88 105.5q-4 -4 -11 -9.5t-13 -9.5q46 -45 88 -101.5t76 -117.5t56 -118z" />
</svg>
