<?xml version="1.0" standalone="no"?>
<!DOCTYPE svg PUBLIC "-//W3C//DTD SVG 1.1//EN" "http://www.w3.org/Graphics/SVG/1.1/DTD/svg11.dtd" >
<svg xmlns="http://www.w3.org/2000/svg" xmlns:xlink="http://www.w3.org/1999/xlink" version="1.1" viewBox="-10 0 1010 1000">
   <path fill="currentColor"
d="M816 143h-591v237v25t-1 26h592v-288zM845 460h-596q63 122 165.5 216t238 157t297.5 92q-4 5 -9.5 12t-9.5 14q-162 -31 -298.5 -95.5t-240.5 -161t-169 -222.5q-4 78 -18.5 163t-47 167t-90.5 152q-4 -5 -11 -12t-12 -10q51 -61 81.5 -131t45.5 -143.5t20 -144.5
t5 -134v-265h649v346z" />
</svg>
