<?xml version="1.0" standalone="no"?>
<!DOCTYPE svg PUBLIC "-//W3C//DTD SVG 1.1//EN" "http://www.w3.org/Graphics/SVG/1.1/DTD/svg11.dtd" >
<svg xmlns="http://www.w3.org/2000/svg" xmlns:xlink="http://www.w3.org/1999/xlink" version="1.1" viewBox="-10 0 1010 1000">
   <path fill="currentColor"
d="M182 459h365v-140h-364v77v30.5t-1 32.5zM840 137h-657v153h657v-153zM820 880v-211h-503v211h503zM933 488h-357v152h273v307h-29v-38h-503v41h-29v-310h259v-152h-366q-2 75 -13 156.5t-34.5 160t-65.5 145.5q-4 -5 -12 -9.5t-13 -6.5q38 -60 60 -128.5t33 -140
t14.5 -140.5t3.5 -129v-288h715v211h-293v140h357v29z" />
</svg>
