<?xml version="1.0" standalone="no"?>
<!DOCTYPE svg PUBLIC "-//W3C//DTD SVG 1.1//EN" "http://www.w3.org/Graphics/SVG/1.1/DTD/svg11.dtd" >
<svg xmlns="http://www.w3.org/2000/svg" xmlns:xlink="http://www.w3.org/1999/xlink" version="1.1" viewBox="-10 0 1010 1000">
   <path fill="currentColor"
d="M684 74l26 16q-63 46 -147.5 91.5t-174.5 84.5t-172 66q-4 -5 -9.5 -13t-10.5 -12q60 -19 126.5 -45t132.5 -57t125 -64.5t104 -66.5zM739 326l26 15q-61 55 -146.5 108t-180.5 97t-186 74q-4 -5 -9 -12.5t-11 -12.5q68 -21 138.5 -50.5t138.5 -65t127 -74.5t103 -79z
M816 576l25 15q-66 80 -167 149t-223.5 122t-254.5 87q-4 -6 -9.5 -14t-10.5 -13q132 -32 253.5 -83.5t221 -118.5t165.5 -144z" />
</svg>
