<?xml version="1.0" standalone="no"?>
<!DOCTYPE svg PUBLIC "-//W3C//DTD SVG 1.1//EN" "http://www.w3.org/Graphics/SVG/1.1/DTD/svg11.dtd" >
<svg xmlns="http://www.w3.org/2000/svg" xmlns:xlink="http://www.w3.org/1999/xlink" version="1.1" viewBox="-10 0 1010 1000">
   <path fill="currentColor"
d="M606 256l-21 23q-30 -27 -75 -62.5t-95 -73t-95 -67.5l21 -19q45 30 95 67t95.5 72t74.5 60zM167 384l27 8q-11 52 -29 114t-42.5 121t-55.5 104l-25 -15q32 -43 56 -101.5t41.5 -119.5t27.5 -111zM432 917h235q33 0 49 -17t23 -63t10 -134q8 5 15.5 9.5t14.5 6.5
q-4 88 -12.5 137.5t-31.5 69.5t-70 20h-230q-62 0 -85 -16.5t-23 -69.5v-135q-123 90 -267 156q-2 -5 -8 -12t-11 -11q77 -35 148.5 -77t137.5 -90v-380h29v358q149 -116 266 -259t195 -300l29 14q-88 166 -210.5 314t-279.5 265v159q0 32 15 43.5t61 11.5zM761 396l25 -10
q38 52 73 113t62.5 120t41.5 105l-27 12q-14 -47 -41.5 -106t-62 -120.5t-71.5 -113.5z" />
</svg>
