<?xml version="1.0" standalone="no"?>
<!DOCTYPE svg PUBLIC "-//W3C//DTD SVG 1.1//EN" "http://www.w3.org/Graphics/SVG/1.1/DTD/svg11.dtd" >
<svg xmlns="http://www.w3.org/2000/svg" xmlns:xlink="http://www.w3.org/1999/xlink" version="1.1" viewBox="-10 0 1010 1000">
   <path fill="currentColor"
d="M825 186l-16 26q-25 -20 -63 -42t-81.5 -42t-85.5 -34l17 -22q41 14 84.5 33.5t82 40.5t62.5 40zM836 387l26 14q-57 88 -128 163.5t-155 138.5q55 103 123.5 161t144.5 58q23 0 36.5 -16t21.5 -55t12 -107q5 4 13.5 7.5t15.5 5.5q-5 73 -15.5 116t-30.5 61t-55 18
q-85 0 -159 -62.5t-130 -168.5q-96 70 -204 125.5t-227 96.5q-3 -5 -9.5 -13t-11.5 -13q121 -40 232 -95.5t207 -125.5q-74 -150 -111 -355l-368 31l-3 -28l366 -31q-9 -63 -14.5 -128t-7.5 -132h31q1 67 6.5 131.5t15.5 125.5l479 -40l3 29l-477 40q17 97 43 183t61 156
q81 -62 149 -134.5t120 -156.5z" />
</svg>
