<?xml version="1.0" standalone="no"?>
<!DOCTYPE svg PUBLIC "-//W3C//DTD SVG 1.1//EN" "http://www.w3.org/Graphics/SVG/1.1/DTD/svg11.dtd" >
<svg xmlns="http://www.w3.org/2000/svg" xmlns:xlink="http://www.w3.org/1999/xlink" version="1.1" viewBox="-10 0 1010 1000">
   <path fill="currentColor"
d="M489 491l4 28q-48 13 -95.5 27t-94.5 28v318q0 24 -8 34t-24 15q-16 4 -50 5t-90 1q-2 -7 -5.5 -15.5t-7.5 -15.5q48 1 85.5 1t48.5 -1q12 -1 17 -5.5t5 -17.5v-312l-178 51l-12 -30q38 -10 86.5 -22.5t103.5 -28.5v-256h-182v-29h182v-219h29v219h169v29h-169v248
q45 -12 92 -25.5t94 -26.5z" />
</svg>
