<?xml version="1.0" standalone="no"?>
<!DOCTYPE svg PUBLIC "-//W3C//DTD SVG 1.1//EN" "http://www.w3.org/Graphics/SVG/1.1/DTD/svg11.dtd" >
<svg xmlns="http://www.w3.org/2000/svg" xmlns:xlink="http://www.w3.org/1999/xlink" version="1.1" viewBox="-10 0 1010 1000">
   <path fill="currentColor"
d="M159 452h321q10 -69 13.5 -144.5t4.5 -156.5h-260q-11 47 -24.5 101t-27.5 106t-27 94zM616 907h229q30 0 45 -13.5t21 -53.5t9 -118q15 12 29 15q-3 79 -11 122.5t-29 60t-65 16.5h-225q-61 0 -83 -14t-22 -59v-382h-10q-14 82 -42 154t-77.5 131.5t-126.5 105.5
t-188 77q-3 -5 -9 -13t-11 -12q108 -29 183.5 -72.5t124 -99.5t76.5 -124.5t41 -146.5h-357q14 -42 29.5 -99.5t31 -118.5t27.5 -112h-106v-29h782v29h-356q-1 81 -4.5 156.5t-13.5 144.5h421v29h-386v383q0 25 14 34t59 9z" />
</svg>
