<?xml version="1.0" standalone="no"?>
<!DOCTYPE svg PUBLIC "-//W3C//DTD SVG 1.1//EN" "http://www.w3.org/Graphics/SVG/1.1/DTD/svg11.dtd" >
<svg xmlns="http://www.w3.org/2000/svg" xmlns:xlink="http://www.w3.org/1999/xlink" version="1.1" viewBox="-10 0 1010 1000">
   <path fill="currentColor"
d="M882 513h-337q48 70 116.5 137t145.5 120.5t149 85.5q-5 4 -11 11.5t-11 12.5q-55 -26 -114 -65.5t-115.5 -88.5t-105.5 -103.5t-86 -109.5v436h-29v-435q-48 76 -117.5 147t-147 127.5t-150.5 91.5q-4 -5 -9.5 -12t-11.5 -11q73 -32 148.5 -85.5t142.5 -120.5t113 -138
h-333v-29h365v-220h-421v-29h421v-185h29v185h427v29h-427v220h369v29z" />
</svg>
