<?xml version="1.0" standalone="no"?>
<!DOCTYPE svg PUBLIC "-//W3C//DTD SVG 1.1//EN" "http://www.w3.org/Graphics/SVG/1.1/DTD/svg11.dtd" >
<svg xmlns="http://www.w3.org/2000/svg" xmlns:xlink="http://www.w3.org/1999/xlink" version="1.1" viewBox="-10 0 1010 1000">
   <path fill="currentColor"
d="M180 855l296 -83q0 6 1 14.5t2 13.5q-111 32 -176 51.5t-98.5 30.5t-46.5 16.5t-20 10.5q-2 -6 -7.5 -15t-9.5 -15q8 -5 19 -18t11 -41v-770h29v321h288v29h-288v455zM652 896h203q28 0 41.5 -16t19 -57.5t8.5 -117.5q14 11 28 14q-3 77 -10.5 121.5t-27 63t-61.5 18.5
h-198q-40 0 -62 -7t-30.5 -27.5t-8.5 -58.5v-779h29v321h296v29h-296v431q0 40 13 52.5t56 12.5z" />
</svg>
