<?xml version="1.0" standalone="no"?>
<!DOCTYPE svg PUBLIC "-//W3C//DTD SVG 1.1//EN" "http://www.w3.org/Graphics/SVG/1.1/DTD/svg11.dtd" >
<svg xmlns="http://www.w3.org/2000/svg" xmlns:xlink="http://www.w3.org/1999/xlink" version="1.1" viewBox="-10 0 1010 1000">
   <path fill="currentColor"
d="M873 388l-19 28q-61 -35 -148.5 -75t-186.5 -79q-99 46 -207.5 83t-217.5 63q-2 -5 -7.5 -13t-10.5 -12q102 -23 206.5 -57.5t200.5 -77.5q-89 -33 -181.5 -62.5t-179.5 -51.5l21 -25q89 23 186.5 55t190.5 67q83 -40 153.5 -85t119.5 -96l28 18q-52 49 -120 93.5
t-146 83.5q95 36 177 73.5t141 69.5zM740 391l28 12q-47 95 -109.5 173t-139.5 142q188 148 433 209q-12 10 -20 25q-120 -32 -230.5 -87t-204.5 -130q-91 71 -201 125t-235 93q-3 -5 -9 -14t-11 -13q125 -36 234 -87.5t200 -121.5q-155 -130 -246 -304l25 -11
q43 84 105 159.5t138 138.5q76 -62 137.5 -139t105.5 -170z" />
</svg>
