<?xml version="1.0" standalone="no"?>
<!DOCTYPE svg PUBLIC "-//W3C//DTD SVG 1.1//EN" "http://www.w3.org/Graphics/SVG/1.1/DTD/svg11.dtd" >
<svg xmlns="http://www.w3.org/2000/svg" xmlns:xlink="http://www.w3.org/1999/xlink" version="1.1" viewBox="-10 0 1010 1000">
   <path fill="currentColor"
d="M936 444h-392q36 58 84.5 115t103.5 108.5t112.5 92.5t111.5 67q-11 10 -22 24q-55 -30 -114 -74t-115 -98.5t-105.5 -114t-86.5 -120.5v506h-29v-506q-48 83 -117.5 160.5t-147 140t-150.5 102.5q-8 -13 -21 -24q73 -35 148.5 -94.5t142.5 -133.5t114 -151h-385v-29h416
v-242q-90 12 -183 20.5t-181 15.5q-2 -12 -7 -25q93 -8 193 -18t195.5 -22.5t177 -27.5t138.5 -32l29 23q-64 19 -150.5 34t-182.5 28v246h423v29z" />
</svg>
