<?xml version="1.0" standalone="no"?>
<!DOCTYPE svg PUBLIC "-//W3C//DTD SVG 1.1//EN" "http://www.w3.org/Graphics/SVG/1.1/DTD/svg11.dtd" >
<svg xmlns="http://www.w3.org/2000/svg" xmlns:xlink="http://www.w3.org/1999/xlink" version="1.1" viewBox="-10 0 1010 1000">
   <path fill="currentColor"
d="M245 208l-24 16q-13 -21 -34 -48.5t-44 -57t-45 -53.5l24 -12q22 25 45.5 53.5t44.5 55t33 46.5zM253 533l18 7q-10 67 -27 125t-38 105q35 60 93.5 89.5t140.5 39t187 9.5q52 0 109 -1t112 -3.5t100 -5.5q-4 6 -7 16t-5 16q-41 2 -93.5 4t-108 2.5t-106.5 0.5
q-110 0 -193.5 -10t-143 -40t-98.5 -89q-51 100 -123 157q-4 -6 -11 -13t-12 -11q67 -50 117 -143.5t72 -224.5h-115q-43 0 -56 13q-2 -8 -7.5 -19.5t-9.5 -18.5q10 -3 21 -8.5t23 -18.5q10 -11 27.5 -35t38 -54l41 -60t35.5 -54h-178v-29h198l9 -5l27 13q-16 23 -38.5 54.5
t-47 66.5t-49 68t-45.5 58h136z" />
</svg>
