<?xml version="1.0" standalone="no"?>
<!DOCTYPE svg PUBLIC "-//W3C//DTD SVG 1.1//EN" "http://www.w3.org/Graphics/SVG/1.1/DTD/svg11.dtd" >
<svg xmlns="http://www.w3.org/2000/svg" xmlns:xlink="http://www.w3.org/1999/xlink" version="1.1" viewBox="-10 0 1010 1000">
   <path fill="currentColor"
d="M804 65l27 11q-22 37 -47.5 77.5t-50.5 69.5l-23 -10q16 -20 33.5 -46.5t33.5 -53.5t27 -48zM284 206l-26 13q-13 -29 -38.5 -69.5t-50.5 -73.5l24 -10q26 33 52 72t39 68zM394 533l28 7q-29 76 -68.5 151t-80.5 128q-11 -8 -28 -15q44 -53 82.5 -125t66.5 -146zM942 241
v29h-428v167h331v452q0 21 -6.5 31t-23.5 15q-19 4 -57 5t-99 1q-1 -8 -4.5 -16t-7.5 -15q56 1 95.5 1t52.5 -1t17 -5.5t4 -15.5v-423h-302v473h-29v-473h-301v485h-29v-514h330v-167h-426v-29h326v-193h29v193h170v-193h29v193h329zM629 431l-17 -18q24 -17 52 -39.5
t54.5 -46t44.5 -42.5l21 20q-33 34 -75.5 67.5t-79.5 58.5zM756 792l-25 13q-16 -36 -41.5 -81.5t-54.5 -93.5t-58 -89l24 -11q29 42 59.5 89.5t56 92.5t39.5 80zM371 406l-22 21q-20 -26 -57 -61t-72 -61l21 -18q37 28 74 61t56 58z" />
</svg>
