<?xml version="1.0" standalone="no"?>
<!DOCTYPE svg PUBLIC "-//W3C//DTD SVG 1.1//EN" "http://www.w3.org/Graphics/SVG/1.1/DTD/svg11.dtd" >
<svg xmlns="http://www.w3.org/2000/svg" xmlns:xlink="http://www.w3.org/1999/xlink" version="1.1" viewBox="-10 0 1010 1000">
   <path fill="currentColor"
d="M873 93l29 14q-32 49 -72.5 105t-82 108.5t-78.5 91.5l-23 -13q37 -39 79 -93t81.5 -110.5t66.5 -102.5zM89 154l26 -13q30 35 57.5 76.5t49 81t32.5 70.5l-26 16q-11 -32 -32.5 -72.5t-49.5 -82t-57 -76.5zM370 86l28 -9q24 39 46.5 83.5t39.5 86.5t24 74l-31 11
q-6 -33 -22.5 -75.5t-38.5 -87.5t-46 -83z" />
</svg>
