<?xml version="1.0" standalone="no"?>
<!DOCTYPE svg PUBLIC "-//W3C//DTD SVG 1.1//EN" "http://www.w3.org/Graphics/SVG/1.1/DTD/svg11.dtd" >
<svg xmlns="http://www.w3.org/2000/svg" xmlns:xlink="http://www.w3.org/1999/xlink" version="1.1" viewBox="-10 0 1010 1000">
   <path fill="currentColor"
d="M446 761q0 31 26.5 45t66.5 14q47 0 65 -23.5t18 -67.5v-8.5v-8.5q-40 -12 -81 -12q-42 0 -68.5 16t-26.5 45zM743 109q-2 14 -3.5 31t-2.5 33t-2 43.5t-1 60.5q41 -4 80 -9.5t76 -12.5v123q-37 5 -76.5 9.5t-80.5 7.5q2 73 5 133.5t6 111.5q63 25 111 61t83 68l-67 105
q-31 -29 -62 -54.5t-61 -45.5q-4 72 -48.5 118t-146.5 46q-103 0 -163.5 -42t-60.5 -121q0 -77 60 -124.5t162 -47.5q17 0 33.5 1t32.5 3q-2 -46 -4.5 -99t-3.5 -106q-18 0 -36 0.5t-35 0.5q-87 0 -174 -6l-1 -119q43 4 86.5 6t88.5 2h35t35 -1v-65.5t-1 -44.5q0 -12 -2 -32
t-5 -34h143zM255 119q-4 10 -9 28t-9 35.5t-6 26.5q-4 20 -10.5 56t-12.5 80.5t-11.5 90.5t-9 88t-3.5 72q0 14 1 32t3 33q10 -26 22 -51.5t22 -50.5l62 48q-14 41 -28.5 86t-26 85t-17.5 68q-2 10 -4 24t-1 22v19.5t1 22.5l-112 8q-16 -52 -28 -135t-12 -184q0 -57 5 -118
t12 -118.5t14 -104.5t11 -76q2 -21 5 -47.5t4 -50.5zM825 69q14 29 29 68t24 68l-70 23q-10 -32 -23 -70t-28 -68zM928 37q14 29 29.5 68t25.5 68l-69 22q-11 -32 -25 -69.5t-29 -67.5z" />
</svg>
