<?xml version="1.0" standalone="no"?>
<!DOCTYPE svg PUBLIC "-//W3C//DTD SVG 1.1//EN" "http://www.w3.org/Graphics/SVG/1.1/DTD/svg11.dtd" >
<svg xmlns="http://www.w3.org/2000/svg" xmlns:xlink="http://www.w3.org/1999/xlink" version="1.1" viewBox="-10 0 1010 1000">
   <path fill="currentColor"
d="M628 178l87 40q-18 73 -42.5 139.5t-53.5 126.5q50 123 141.5 222.5t214.5 150.5q-22 19 -47.5 51t-39.5 56q-113 -55 -197.5 -145.5t-144.5 -207.5q-82 124 -189 213.5t-228 143.5q-9 -15 -25.5 -36t-34.5 -40.5t-33 -30.5q179 -71 315 -211.5t204 -345.5h-210
q-45 85 -99 156.5t-114 124.5q-11 -12 -30.5 -28.5t-40 -33.5t-36.5 -27q67 -51 122.5 -122.5t98 -158.5t69.5 -181l131 29q-10 31 -21 61t-24 60h204z" />
</svg>
