<?xml version="1.0" standalone="no"?>
<!DOCTYPE svg PUBLIC "-//W3C//DTD SVG 1.1//EN" "http://www.w3.org/Graphics/SVG/1.1/DTD/svg11.dtd" >
<svg xmlns="http://www.w3.org/2000/svg" xmlns:xlink="http://www.w3.org/1999/xlink" version="1.1" viewBox="-10 0 1010 1000">
   <path fill="currentColor"
d="M420 39l124 46q-49 79 -114 161.5t-138.5 157t-150.5 131.5q-17 -20 -44.5 -45t-49.5 -41q56 -38 110.5 -87.5t104 -104.5t90 -111t68.5 -107zM961 890l-117 62q-8 -21 -18.5 -45t-23.5 -49q-159 13 -267.5 21t-177.5 13.5t-109.5 9t-62.5 7t-37 8.5q-4 -12 -12.5 -33.5
t-18.5 -44.5t-19 -40q29 -8 60 -30t79 -64q27 -21 74.5 -68.5t107 -113.5t122 -144.5t117.5 -163.5l124 62q-106 151 -220 274.5t-226 222.5l404 -29q-51 -87 -106 -162l108 -54q43 56 85 121t77 127.5t57 112.5z" />
</svg>
