<?xml version="1.0" standalone="no"?>
<!DOCTYPE svg PUBLIC "-//W3C//DTD SVG 1.1//EN" "http://www.w3.org/Graphics/SVG/1.1/DTD/svg11.dtd" >
<svg xmlns="http://www.w3.org/2000/svg" xmlns:xlink="http://www.w3.org/1999/xlink" version="1.1" viewBox="-10 0 1010 1000">
   <path fill="currentColor"
d="M443 828h281q41 0 62.5 -12t31.5 -45.5t16 -96.5q23 13 54.5 26.5t56.5 18.5q-9 81 -29.5 128t-63 67.5t-118.5 20.5h-293q-84 0 -131.5 -16t-66.5 -58t-19 -118v-248l-166 53l-32 -109l198 -61v-306h116v269l374 -116l33 -23l88 29l-5 18q-4 70 -10.5 151t-16 158
t-22.5 138l-96 -26q10 -62 17 -151t11 -178l-373 118v286q0 35 7 53t29 24t67 6z" />
</svg>
