<?xml version="1.0" standalone="no"?>
<!DOCTYPE svg PUBLIC "-//W3C//DTD SVG 1.1//EN" "http://www.w3.org/Graphics/SVG/1.1/DTD/svg11.dtd" >
<svg xmlns="http://www.w3.org/2000/svg" xmlns:xlink="http://www.w3.org/1999/xlink" version="1.1" viewBox="-10 0 1010 1000">
   <path fill="currentColor"
d="M732 816h222v109h-908v-109h561q11 -62 21 -134.5t19 -150.5t16 -153h-287l-7 31q39 12 83.5 29t85.5 35.5t68 34.5l-60 88q-33 -21 -88.5 -47t-109.5 -48l-18 76q38 13 82 31.5t84 38t66 36.5l-56 89q-21 -15 -54 -33t-71 -36.5t-74 -33.5q-7 28 -13.5 54.5t-13.5 49.5
l-120 -18q21 -73 43.5 -166.5t44.5 -195t39 -195.5h-212v-110h852v110h-513l-15 76h398q-8 88 -19 185.5t-22.5 190t-23.5 166.5z" />
</svg>
