<?xml version="1.0" standalone="no"?>
<!DOCTYPE svg PUBLIC "-//W3C//DTD SVG 1.1//EN" "http://www.w3.org/Graphics/SVG/1.1/DTD/svg11.dtd" >
<svg xmlns="http://www.w3.org/2000/svg" xmlns:xlink="http://www.w3.org/1999/xlink" version="1.1" viewBox="-10 0 1010 1000">
   <path fill="currentColor"
d="M234 197v191q0 63 -4 138.5t-14.5 154t-31 152t-54.5 133.5q-11 -10 -30.5 -21.5t-40 -22.5t-35.5 -16q32 -55 50 -121t27 -135.5t11.5 -136.5t2.5 -125v-306h831v115h-712zM531 225h126q-3 55 -7 112t-13 115q42 139 123.5 247t207.5 161q-19 17 -42 46.5t-35 52.5
q-103 -50 -176 -133.5t-123 -192.5q-36 96 -103 181t-183 146q-13 -22 -36 -48.5t-47 -44.5q87 -43 143 -100t88.5 -123.5t47.5 -137.5t20.5 -142.5t8.5 -138.5z" />
</svg>
