<?xml version="1.0" standalone="no"?>
<!DOCTYPE svg PUBLIC "-//W3C//DTD SVG 1.1//EN" "http://www.w3.org/Graphics/SVG/1.1/DTD/svg11.dtd" >
<svg xmlns="http://www.w3.org/2000/svg" xmlns:xlink="http://www.w3.org/1999/xlink" version="1.1" viewBox="-10 0 1010 1000">
   <path fill="currentColor"
d="M768 508l21 -6l94 45q-44 63 -99 136t-113 147.5t-112 141.5l-124 -58q56 -66 117.5 -141.5t113.5 -142.5h-509v-122h611zM354 340h312q-42 -34 -82.5 -70.5t-76.5 -74.5q-34 40 -73 76t-80 69zM480 22l119 56q-5 7 -10.5 14t-10.5 15q49 50 115 99.5t138.5 92
t140.5 72.5q-23 19 -50 51.5t-43 57.5q-46 -24 -95.5 -56t-97.5 -69v98h-348v-100q-52 40 -107 74.5t-111 63.5q-15 -26 -40.5 -57t-51.5 -53q88 -38 173 -92t157.5 -121.5t121.5 -145.5z" />
</svg>
