<?xml version="1.0" standalone="no"?>
<!DOCTYPE svg PUBLIC "-//W3C//DTD SVG 1.1//EN" "http://www.w3.org/Graphics/SVG/1.1/DTD/svg11.dtd" >
<svg xmlns="http://www.w3.org/2000/svg" xmlns:xlink="http://www.w3.org/1999/xlink" version="1.1" viewBox="-10 0 1010 1000">
   <path fill="currentColor"
d="M602 698l102 -52q44 38 86.5 83t78.5 90t58 83l-106 65q-9 -17 -21.5 -36.5t-27.5 -39.5q-148 11 -249 18.5t-165.5 12.5t-102 9t-58.5 8.5t-36 9.5q-3 -13 -10 -34.5t-15 -45t-15 -40.5q20 -4 38 -16.5t41 -32.5q18 -14 55 -51.5t77 -86.5h-242v-115h827v115h-420
q-34 43 -74.5 85t-82.5 80l348 -20q-21 -23 -42.5 -46t-43.5 -43zM335 334h344q-49 -33 -94.5 -68t-82.5 -69q-37 37 -79.5 71t-87.5 66zM496 28l109 52q-8 10 -16.5 20.5t-17.5 21.5q49 41 114.5 82.5t140 77t148.5 59.5q-20 19 -45 50t-39 55q-39 -16 -78 -35.5t-77 -41.5
v74h-467v-66q-37 21 -74.5 41t-78.5 38q-8 -15 -23 -35t-31.5 -39.5t-30.5 -31.5q95 -36 184 -87t162 -111t120 -124z" />
</svg>
