<?xml version="1.0" standalone="no"?>
<!DOCTYPE svg PUBLIC "-//W3C//DTD SVG 1.1//EN" "http://www.w3.org/Graphics/SVG/1.1/DTD/svg11.dtd" >
<svg xmlns="http://www.w3.org/2000/svg" xmlns:xlink="http://www.w3.org/1999/xlink" version="1.1" viewBox="-10 0 1010 1000">
   <path fill="currentColor"
d="M577 66l110 -33q26 73 69.5 141.5t100 124.5t120.5 92q-22 16 -47 45.5t-39 52.5q-37 -23 -71 -53.5t-66 -64.5v69h-311q-9 29 -18.5 59.5t-19.5 59.5h399l-0.5 9.5t-2 21t-3.5 19.5q-15 138 -34 209t-49 99q-24 22 -51 30.5t-67 10.5q-31 2 -80.5 1.5t-105.5 -2.5
q-2 -26 -14.5 -58.5t-31.5 -56.5q39 3 78 4.5t71 2.5t48 1q18 0 31 -2t24 -9q32 -24 54 -173h-430q19 -46 40 -106.5t39 -119.5h-82v-61q-27 32 -54.5 61.5t-56.5 53.5q-11 -11 -30 -26.5t-39 -30t-35 -23.5q58 -43 110.5 -102.5t95.5 -130t72 -144.5l122 36
q-29 68 -66.5 133t-81.5 124h446q-44 -58 -80 -124.5t-64 -139.5z" />
</svg>
