<?xml version="1.0" standalone="no"?>
<!DOCTYPE svg PUBLIC "-//W3C//DTD SVG 1.1//EN" "http://www.w3.org/Graphics/SVG/1.1/DTD/svg11.dtd" >
<svg xmlns="http://www.w3.org/2000/svg" xmlns:xlink="http://www.w3.org/1999/xlink" version="1.1" viewBox="-10 0 1010 1000">
   <path fill="currentColor"
d="M945 267h-527q-14 29 -29 56.5t-32 55.5h462v451q0 45 -11 71t-42 40q-30 14 -74 17.5t-105 3.5q-4 -26 -15 -60t-23 -57q38 1 76 1.5t51 -0.5q13 0 18 -4t5 -15v-344h-324v482h-120v-445q-33 37 -70 70.5t-78 61.5q-13 -21 -38 -50t-44 -46q81 -52 144 -127.5
t109 -161.5h-221v-114h273q24 -62 39 -121l129 29q-7 23 -15.5 46t-16.5 46h479v114z" />
</svg>
