<?xml version="1.0" standalone="no"?>
<!DOCTYPE svg PUBLIC "-//W3C//DTD SVG 1.1//EN" "http://www.w3.org/Graphics/SVG/1.1/DTD/svg11.dtd" >
<svg xmlns="http://www.w3.org/2000/svg" xmlns:xlink="http://www.w3.org/1999/xlink" version="1.1" viewBox="-10 0 1010 1000">
   <path fill="currentColor"
d="M256 467l103 -58q39 39 77.5 85.5t69 93t46.5 87.5l-114 64q-14 -38 -42.5 -86t-64.5 -96.5t-75 -89.5zM356 180h569v11t-0.5 25t-0.5 22q-7 167 -14 284t-15.5 193.5t-20 121t-27.5 65.5q-23 29 -47 40.5t-56 16.5q-30 4 -76 4t-94 -2q-1 -26 -12.5 -61t-28.5 -60
q52 4 95.5 5t63.5 1q30 0 47 -17t28 -76.5t19.5 -171t15.5 -283.5h-502q-35 67 -76 126t-84 104q-11 -10 -31 -25t-41 -29.5t-36 -22.5q53 -48 99 -114.5t82 -144t60 -159.5l125 30q-19 60 -42 117z" />
</svg>
