<?xml version="1.0" standalone="no"?>
<!DOCTYPE svg PUBLIC "-//W3C//DTD SVG 1.1//EN" "http://www.w3.org/Graphics/SVG/1.1/DTD/svg11.dtd" >
<svg xmlns="http://www.w3.org/2000/svg" xmlns:xlink="http://www.w3.org/1999/xlink" version="1.1" viewBox="-10 0 1010 1000">
   <path fill="currentColor"
d="M339 162h589l-0.5 11t-0.5 25t-1 22q-5 178 -10 301t-12 201.5t-17 122t-24 63.5q-19 28 -39.5 39t-48.5 16q-25 4 -62.5 4t-77.5 -1q-1 -23 -10 -54t-23 -54q37 3 68.5 3.5t48.5 0.5q14 0 22.5 -4t15.5 -15q14 -16 23.5 -76.5t16 -180t11.5 -311.5h-529q-16 28 -34 54.5
t-37 51.5h58v320h464v108h-464v65h-115v-426q-7 7 -14.5 15t-15.5 15q-10 -12 -28.5 -27.5t-37.5 -30.5t-33 -24q51 -42 96 -99t81 -124.5t60 -138.5l120 30q-9 25 -19 49.5t-21 48.5zM447 307l111 21q-6 28 -14 56t-17 54q33 26 68 57.5t66 62t51 55.5l-86 76
q-22 -32 -61.5 -72.5t-81.5 -78.5q-25 48 -56 88.5t-67 72.5q-9 -10 -26 -24t-35 -27t-31 -20q69 -53 114 -136.5t65 -184.5z" />
</svg>
