<?xml version="1.0" standalone="no"?>
<!DOCTYPE svg PUBLIC "-//W3C//DTD SVG 1.1//EN" "http://www.w3.org/Graphics/SVG/1.1/DTD/svg11.dtd" >
<svg xmlns="http://www.w3.org/2000/svg" xmlns:xlink="http://www.w3.org/1999/xlink" version="1.1" viewBox="-10 0 1010 1000">
   <path fill="currentColor"
d="M436 228v216h233v110h-233v410h-118v-410h-243v-110h243v-216h118zM72 82h748q-1 104 -0.5 210.5t4.5 203.5t12 173t20.5 120t30.5 44q9 -1 14 -46t5 -130q19 25 39 47.5t38 34.5q-6 123 -30.5 175.5t-77.5 53.5q-46 0 -77.5 -42.5t-50.5 -117t-29.5 -173t-14.5 -211.5
t-5 -231h-626v-111z" />
</svg>
