<?xml version="1.0" standalone="no"?>
<!DOCTYPE svg PUBLIC "-//W3C//DTD SVG 1.1//EN" "http://www.w3.org/Graphics/SVG/1.1/DTD/svg11.dtd" >
<svg xmlns="http://www.w3.org/2000/svg" xmlns:xlink="http://www.w3.org/1999/xlink" version="1.1" viewBox="-10 0 1010 1000">
   <path fill="currentColor"
d="M138 609v-97h716v97h-462q-5 16 -10.5 32t-10.5 32h428l-2.5 18.5t-5.5 29.5q-16 89 -34.5 138.5t-42.5 69.5q-21 18 -44.5 24.5t-56.5 8.5q-25 2 -68 2t-91 -2q-1 -25 -11 -54.5t-25 -52.5q45 4 90 5.5t66 1.5q15 0 25.5 -1.5t18.5 -7.5q23 -16 42 -85h-451
q14 -33 30 -75t29 -84h-130zM347 351h313q-21 -23 -38.5 -47.5t-33.5 -49.5h-163q-16 25 -36 49.5t-42 47.5zM944 254h-227q47 58 115 103.5t147 69.5q-14 22 -27.5 56t-18.5 60q-70 -29 -132 -70t-112 -91v64h-378v-59q-44 40 -97 76t-116 68q-9 -23 -30 -52t-39 -45
q80 -36 142 -82t108 -98h-223v-105h298q16 -29 28.5 -57.5t21.5 -57.5l122 19q-9 25 -18.5 48.5t-20.5 47.5h457v105z" />
</svg>
