<?xml version="1.0" standalone="no"?>
<!DOCTYPE svg PUBLIC "-//W3C//DTD SVG 1.1//EN" "http://www.w3.org/Graphics/SVG/1.1/DTD/svg11.dtd" >
<svg xmlns="http://www.w3.org/2000/svg" xmlns:xlink="http://www.w3.org/1999/xlink" version="1.1" viewBox="-10 0 1010 1000">
   <path fill="currentColor"
d="M214 287l112 21q-15 61 -36 116q32 25 65 54.5t52 50.5l-67 86q-16 -19 -41.5 -44.5t-52.5 -50.5q-25 46 -55 85.5t-64 71.5q-9 -11 -25 -25.5t-33 -28.5t-29 -22q65 -53 109 -135t65 -179zM947 569l-74 84q-22 -26 -59 -60t-76 -68q-33 62 -74 105q-10 -8 -30 -19.5
t-39 -21.5q26 49 72.5 99t119.5 93t175 74q-20 21 -42 54t-35 59q-88 -29 -156 -72t-115.5 -92t-77 -94.5t-41.5 -78.5q-11 34 -39 79.5t-74 93.5t-112 90.5t-153 71.5q-13 -20 -36.5 -50t-43.5 -51q112 -33 188 -84.5t121 -110.5t65 -115.5t20 -99.5v-176h-376v-115h376
v-127h128v127h388v115h-388v176q0 49 22 103q47 -48 75.5 -118.5t41.5 -152.5l111 17q-10 63 -29 120q30 23 61.5 49.5t59.5 51t46 44.5z" />
</svg>
