<?xml version="1.0" standalone="no"?>
<!DOCTYPE svg PUBLIC "-//W3C//DTD SVG 1.1//EN" "http://www.w3.org/Graphics/SVG/1.1/DTD/svg11.dtd" >
<svg xmlns="http://www.w3.org/2000/svg" xmlns:xlink="http://www.w3.org/1999/xlink" version="1.1" viewBox="-10 0 1010 1000">
   <path fill="currentColor"
d="M955 465v119h-388v241q0 50 -13.5 77.5t-48.5 41.5q-37 14 -88.5 18t-120.5 3q-5 -26 -20.5 -62t-30.5 -61q35 2 70 3t62 0.5t37 -0.5q17 -1 23 -5.5t6 -17.5v-238h-396v-119h396v-139q47 -23 98.5 -54.5t94.5 -63.5h-490v-118h623l28 -6l90 69q-64 63 -149 126t-171 110
v76h388z" />
</svg>
