<?xml version="1.0" standalone="no"?>
<!DOCTYPE svg PUBLIC "-//W3C//DTD SVG 1.1//EN" "http://www.w3.org/Graphics/SVG/1.1/DTD/svg11.dtd" >
<svg xmlns="http://www.w3.org/2000/svg" xmlns:xlink="http://www.w3.org/1999/xlink" version="1.1" viewBox="-10 0 1010 1000">
   <path fill="currentColor"
d="M440 33h121v485q0 47 -11.5 74t-43.5 41q-32 15 -78 19t-107 4q-4 -26 -16 -62t-26 -61q43 1 83.5 1.5t53.5 -0.5q14 0 19 -4t5 -14v-483zM655 200l111 -57q41 49 82 107.5t75 116t51 105.5l-122 65q-15 -46 -46 -104.5t-70.5 -119.5t-80.5 -113zM701 453l128 37
q-37 115 -93.5 197t-136.5 137.5t-186.5 90.5t-241.5 56q-9 -29 -26.5 -62.5t-36.5 -56.5q165 -19 282.5 -61.5t194 -123.5t116.5 -214zM212 158l133 31q-24 63 -56 129t-70 125.5t-81 103.5q-21 -17 -53 -37.5t-55 -32.5q42 -40 77.5 -94.5t62.5 -113.5t42 -111z" />
</svg>
