<?xml version="1.0" standalone="no"?>
<!DOCTYPE svg PUBLIC "-//W3C//DTD SVG 1.1//EN" "http://www.w3.org/Graphics/SVG/1.1/DTD/svg11.dtd" >
<svg xmlns="http://www.w3.org/2000/svg" xmlns:xlink="http://www.w3.org/1999/xlink" version="1.1" viewBox="-10 0 1010 1000">
   <path fill="currentColor"
d="M257 443h275v-85h-274v17v33t-1 35zM772 186h-514v68h514v-68zM759 834v-99h-339v99h339zM942 549h-291v82h227v336h-119v-29h-339v30h-114v-337h226v-82h-281q-5 72 -18.5 147.5t-38 146t-62.5 128.5q-11 -10 -30.5 -22.5t-40 -23.5t-35.5 -17q39 -57 61.5 -124.5
t33.5 -139t14 -140.5t3 -129v-293h755v276h-242v85h291v106z" />
</svg>
