<?xml version="1.0" standalone="no"?>
<!DOCTYPE svg PUBLIC "-//W3C//DTD SVG 1.1//EN" "http://www.w3.org/Graphics/SVG/1.1/DTD/svg11.dtd" >
<svg xmlns="http://www.w3.org/2000/svg" xmlns:xlink="http://www.w3.org/1999/xlink" version="1.1" viewBox="-10 0 1010 1000">
   <path fill="currentColor"
d="M670 317h-343q65 159 180 277q52 -57 93 -126t70 -151zM957 317h-153q-38 108 -89.5 196.5t-116.5 161.5q155 121 378 173q-20 19 -43 52.5t-37 58.5q-118 -32 -215 -81t-176 -115q-82 67 -183 117t-222 85q-6 -14 -18.5 -35t-27 -42t-26.5 -34q117 -29 214 -72.5
t175 -104.5q-67 -74 -119.5 -164t-93.5 -196h-157v-116h422q-8 -31 -23.5 -69.5t-32.5 -71.5l127 -37q20 34 39.5 77t28.5 74l-86 27h435v116z" />
</svg>
