<?xml version="1.0" standalone="no"?>
<!DOCTYPE svg PUBLIC "-//W3C//DTD SVG 1.1//EN" "http://www.w3.org/Graphics/SVG/1.1/DTD/svg11.dtd" >
<svg xmlns="http://www.w3.org/2000/svg" xmlns:xlink="http://www.w3.org/1999/xlink" version="1.1" viewBox="-10 0 1010 1000">
   <path fill="currentColor"
d="M783 294l50 27q-24 66 -59.5 137t-77 138.5t-83.5 123.5q92 61 145 117l-47 61q-29 -32 -72 -67t-95 -70.5t-107 -68t-108 -57.5l42 -54q90 43 183 100q35 -45 69 -99t63 -110.5t50 -107.5h-348q-44 88 -99.5 169t-120.5 144q-11 -9 -29.5 -21t-32.5 -19q75 -69 136 -161
t106 -191.5t73 -192.5l74 18q-16 46 -34 93t-40 94h349z" />
</svg>
