<?xml version="1.0" standalone="no"?>
<!DOCTYPE svg PUBLIC "-//W3C//DTD SVG 1.1//EN" "http://www.w3.org/Graphics/SVG/1.1/DTD/svg11.dtd" >
<svg xmlns="http://www.w3.org/2000/svg" xmlns:xlink="http://www.w3.org/1999/xlink" version="1.1" viewBox="-10 0 1010 1000">
   <path fill="currentColor"
d="M418 772q0 40 35.5 61.5t91.5 21.5q66 0 89.5 -31t23.5 -82v-17.5t-1 -20.5q-25 -8 -51 -12t-55 -4q-58 0 -95.5 23t-37.5 61zM721 122q-4 31 -6 60q-1 21 -1.5 55t-1.5 69q47 -4 92 -9.5t85 -13.5v69q-42 7 -86.5 11.5t-90.5 8.5q1 75 5 150.5t7 141.5q61 23 110 58
t89 71l-39 59q-39 -36 -77.5 -66t-79.5 -52v13.5v13.5q0 39 -14.5 75.5t-51 60t-103.5 23.5q-99 0 -151.5 -38t-52.5 -103q0 -61 53 -103.5t150 -42.5q26 0 50.5 2.5t47.5 7.5q-3 -60 -6 -132t-4 -136q-51 3 -101 3q-43 0 -83 -2t-84 -5v-67q43 4 84 6t85 2q25 0 49.5 -0.5
t49.5 -1.5q0 -39 -0.5 -72t0.5 -55q0 -13 -1 -30.5t-3 -30.5h80zM227 129q-4 12 -9 30.5t-8 32.5q-7 36 -16 87.5t-16.5 109t-12.5 112t-5 97.5q0 40 3 76t9 77q12 -36 29 -80.5t30 -75.5l37 29q-12 34 -26.5 75.5t-27 80t-17.5 62.5q-2 10 -3.5 23t-0.5 22q0 7 1 16.5
t2 17.5l-63 5q-15 -55 -26 -135t-11 -182q0 -55 5.5 -115.5t13 -118.5t15.5 -107t12 -80l4 -34t2 -33zM808 147q0 25 18 43t44 18t44 -18t18 -43q0 -26 -18 -44.5t-44 -18.5t-44 18.5t-18 44.5zM766 147q0 -44 30.5 -74.5t73.5 -30.5t73.5 30.5t30.5 74.5q0 43 -30.5 73
t-73.5 30t-73.5 -30t-30.5 -73z" />
</svg>
