<?xml version="1.0" standalone="no"?>
<!DOCTYPE svg PUBLIC "-//W3C//DTD SVG 1.1//EN" "http://www.w3.org/Graphics/SVG/1.1/DTD/svg11.dtd" >
<svg xmlns="http://www.w3.org/2000/svg" xmlns:xlink="http://www.w3.org/1999/xlink" version="1.1" viewBox="-10 0 1010 1000">
   <path fill="currentColor"
d="M355 356l56 -31q40 47 83 101t80.5 104.5t61.5 89.5l-60 37q-23 -39 -60.5 -91.5t-79.5 -108t-81 -101.5zM237 805l522 -9v-611h-522v620zM179 118h653v807h-73v-64l-250 5t-162 4t-96 3.5t-50.5 3.5t-26.5 5q-5 -14 -18 -34.5t-22 -31.5q11 -7 22 -24t11 -48v-622h12v-4
z" />
</svg>
