<?xml version="1.0" standalone="no"?>
<!DOCTYPE svg PUBLIC "-//W3C//DTD SVG 1.1//EN" "http://www.w3.org/Graphics/SVG/1.1/DTD/svg11.dtd" >
<svg xmlns="http://www.w3.org/2000/svg" xmlns:xlink="http://www.w3.org/1999/xlink" version="1.1" viewBox="-10 0 1010 1000">
   <path fill="currentColor"
d="M873 846l-59 55q-45 -70 -115 -156.5t-153 -177.5q-168 203 -378 335q-7 -11 -22.5 -29t-26.5 -29q106 -62 201.5 -145t178.5 -183q-74 -80 -152.5 -156.5t-152.5 -143.5l50 -44q72 64 149 137.5t151 149.5q62 -82 115.5 -172t96.5 -187l67 22q-49 106 -106.5 203
t-124.5 184q86 91 160 178.5t121 158.5z" />
</svg>
