<?xml version="1.0" standalone="no"?>
<!DOCTYPE svg PUBLIC "-//W3C//DTD SVG 1.1//EN" "http://www.w3.org/Graphics/SVG/1.1/DTD/svg11.dtd" >
<svg xmlns="http://www.w3.org/2000/svg" xmlns:xlink="http://www.w3.org/1999/xlink" version="1.1" viewBox="-10 0 1010 1000">
   <path fill="currentColor"
d="M945 180h-566q-16 70 -35.5 148t-36.5 142h530l-0.5 12.5t-2.5 20.5q-15 135 -31 221t-34 134t-41 69q-18 17 -37.5 23t-48.5 8q-26 1 -72.5 0t-98.5 -4q-1 -15 -7.5 -33.5t-15.5 -32.5q55 5 103 6.5t70 1.5q17 0 29 -2t22 -10q18 -15 33 -55t29 -113t27 -185h-544
q14 -45 30 -105t32 -124.5t29 -121.5h-249v-61h886v61z" />
</svg>
