<?xml version="1.0" standalone="no"?>
<!DOCTYPE svg PUBLIC "-//W3C//DTD SVG 1.1//EN" "http://www.w3.org/Graphics/SVG/1.1/DTD/svg11.dtd" >
<svg xmlns="http://www.w3.org/2000/svg" xmlns:xlink="http://www.w3.org/1999/xlink" version="1.1" viewBox="-10 0 1010 1000">
   <path fill="currentColor"
d="M930 181h-398v159h339v63h-339v163h388l-0.5 12.5t-2.5 20.5q-12 103 -24.5 169.5t-27.5 104.5t-35 55q-18 16 -39 21.5t-53 7.5q-27 1 -77 0t-106 -5q-1 -15 -8.5 -33t-18.5 -32q41 4 80 6t70 2.5t45 0.5q20 0 31.5 -1.5t21.5 -8.5q22 -17 38.5 -77t31.5 -178h-700v-334
h66v269h249v-385h-387v-64h856v64z" />
</svg>
