<?xml version="1.0" standalone="no"?>
<!DOCTYPE svg PUBLIC "-//W3C//DTD SVG 1.1//EN" "http://www.w3.org/Graphics/SVG/1.1/DTD/svg11.dtd" >
<svg xmlns="http://www.w3.org/2000/svg" xmlns:xlink="http://www.w3.org/1999/xlink" version="1.1" viewBox="-10 0 1010 1000">
   <path fill="currentColor"
d="M755 112l72 17q-46 176 -113.5 312t-163.5 238q81 76 185 129.5t234 85.5q-11 10 -25 29.5t-22 33.5q-133 -35 -238 -91t-188 -134q-81 73 -182.5 128t-226.5 97q-6 -12 -21.5 -31.5t-26.5 -30.5q250 -76 407 -215q-95 -106 -159 -244t-107 -306l67 -15q38 155 99 284
t152 229q91 -96 153 -224t104 -292z" />
</svg>
