<?xml version="1.0" standalone="no"?>
<!DOCTYPE svg PUBLIC "-//W3C//DTD SVG 1.1//EN" "http://www.w3.org/Graphics/SVG/1.1/DTD/svg11.dtd" >
<svg xmlns="http://www.w3.org/2000/svg" xmlns:xlink="http://www.w3.org/1999/xlink" version="1.1" viewBox="-10 0 1010 1000">
   <path fill="currentColor"
d="M630 205l46 22q-34 138 -90 253q35 92 90.5 174t128 144.5t156.5 98.5q-12 10 -26 27t-22 31q-120 -56 -213.5 -161.5t-152.5 -240.5q-85 145 -201 246t-246 160q-7 -13 -22.5 -31t-28.5 -27q122 -52 228.5 -138.5t187.5 -208t126 -279.5h-270q-95 181 -224 298
q-10 -9 -28 -24t-31 -23q101 -83 179 -209t124 -272l70 16q-12 38 -26.5 75t-30.5 72h263z" />
</svg>
