<?xml version="1.0" standalone="no"?>
<!DOCTYPE svg PUBLIC "-//W3C//DTD SVG 1.1//EN" "http://www.w3.org/Graphics/SVG/1.1/DTD/svg11.dtd" >
<svg xmlns="http://www.w3.org/2000/svg" xmlns:xlink="http://www.w3.org/1999/xlink" version="1.1" viewBox="-10 0 1010 1000">
   <path fill="currentColor"
d="M447 57l68 25q-49 76 -113.5 155.5t-137.5 152t-147 129.5q-9 -11 -24 -25.5t-26 -22.5q73 -53 145 -123t133.5 -145.5t101.5 -145.5zM941 910l-63 35q-10 -23 -26 -51t-34 -57q-148 13 -254 21.5t-178.5 14.5t-118 10t-71 7t-39.5 6t-23 6q-3 -11 -11.5 -32t-16.5 -36
q23 -5 55.5 -30.5t77.5 -66.5q24 -21 71.5 -68t107 -112t123.5 -141.5t121 -157.5l67 32q-116 157 -240 291.5t-246 238.5l534 -45q-33 -49 -70 -98.5t-73 -92.5l58 -30q48 55 96 119.5t88.5 126.5t64.5 110z" />
</svg>
