<?xml version="1.0" standalone="no"?>
<!DOCTYPE svg PUBLIC "-//W3C//DTD SVG 1.1//EN" "http://www.w3.org/Graphics/SVG/1.1/DTD/svg11.dtd" >
<svg xmlns="http://www.w3.org/2000/svg" xmlns:xlink="http://www.w3.org/1999/xlink" version="1.1" viewBox="-10 0 1010 1000">
   <path fill="currentColor"
d="M292 849h475q37 0 56.5 -16.5t28.5 -60.5t12 -128q14 7 33.5 14t34.5 10q-6 101 -23 155t-51.5 74t-95.5 20h-461q-105 0 -156.5 -35.5t-51.5 -97.5q0 -18 5 -38t22 -48t52.5 -69t96.5 -100t154 -141t225 -192h-550v-68h643l15 -5l47 33q-2 3 -5.5 5.5t-7.5 4.5
q-148 122 -252.5 211.5t-173 152.5t-109.5 105.5t-60.5 69.5t-25 44t-5.5 30q0 36 36 53t92 17z" />
</svg>
