<?xml version="1.0" standalone="no"?>
<!DOCTYPE svg PUBLIC "-//W3C//DTD SVG 1.1//EN" "http://www.w3.org/Graphics/SVG/1.1/DTD/svg11.dtd" >
<svg xmlns="http://www.w3.org/2000/svg" xmlns:xlink="http://www.w3.org/1999/xlink" version="1.1" viewBox="-10 0 1010 1000">
   <path fill="currentColor"
d="M874 211l49 19q-27 65 -62 131.5t-70 112.5l-57 -26q24 -32 49.5 -77t44.5 -91h-277v574q0 34 -10 51t-34 26q-24 8 -67 10t-109 1q-2 -14 -9 -33.5t-15 -34.5q52 2 95 2t57 -1q14 0 19 -4.5t5 -17.5v-573h-221q-34 58 -72.5 109t-77.5 92q-10 -9 -29 -22.5t-32 -20.5
q51 -47 97.5 -110t85 -135.5t66.5 -147.5l68 17q-15 39 -32.5 77t-36.5 75h563z" />
</svg>
