<?xml version="1.0" standalone="no"?>
<!DOCTYPE svg PUBLIC "-//W3C//DTD SVG 1.1//EN" "http://www.w3.org/Graphics/SVG/1.1/DTD/svg11.dtd" >
<svg xmlns="http://www.w3.org/2000/svg" xmlns:xlink="http://www.w3.org/1999/xlink" version="1.1" viewBox="-10 0 1010 1000">
   <path fill="currentColor"
d="M700 849h248v62h-895v-62h577q13 -67 26 -152t25 -175t21 -172h-343l-15 63q47 15 98.5 35.5t98 42t77.5 40.5l-36 52q-28 -18 -69.5 -38.5t-89 -41t-93.5 -36.5q-7 30 -14 59.5t-15 58.5q47 16 98.5 37.5t97.5 44t76 42.5l-34 52q-28 -19 -70 -41t-89 -44t-92 -39
q-10 41 -20.5 78.5t-19.5 69.5l-66 -11q17 -57 36.5 -130t39 -154t37.5 -162t32 -153h-239v-62h828v62h-517q-7 28 -13.5 56.5t-12.5 58.5h403q-7 66 -16.5 140.5t-19.5 149.5t-20.5 144.5t-19.5 124.5z" />
</svg>
