<?xml version="1.0" standalone="no"?>
<!DOCTYPE svg PUBLIC "-//W3C//DTD SVG 1.1//EN" "http://www.w3.org/Graphics/SVG/1.1/DTD/svg11.dtd" >
<svg xmlns="http://www.w3.org/2000/svg" xmlns:xlink="http://www.w3.org/1999/xlink" version="1.1" viewBox="-10 0 1010 1000">
   <path fill="currentColor"
d="M935 171h-733v234q0 60 -4 131t-15 144.5t-32 143.5t-56 129q-9 -9 -26.5 -20t-30.5 -16q33 -56 53 -121t29.5 -133.5t12.5 -134.5t3 -123v-298h799v64zM550 210h70q-3 50 -7 103.5t-12 109.5q32 103 83.5 195t120 162.5t150.5 111.5q-11 10 -23.5 26t-20.5 29
q-109 -60 -192.5 -167t-138.5 -242q-21 82 -59 159t-99.5 142t-155.5 112q-7 -12 -21 -26.5t-26 -23.5q91 -43 150.5 -104.5t94.5 -134t52.5 -150.5t24 -155.5t9.5 -146.5z" />
</svg>
