<?xml version="1.0" standalone="no"?>
<!DOCTYPE svg PUBLIC "-//W3C//DTD SVG 1.1//EN" "http://www.w3.org/Graphics/SVG/1.1/DTD/svg11.dtd" >
<svg xmlns="http://www.w3.org/2000/svg" xmlns:xlink="http://www.w3.org/1999/xlink" version="1.1" viewBox="-10 0 1010 1000">
   <path fill="currentColor"
d="M789 532l11 -5l51 27q-41 54 -96 124t-113.5 142.5t-112.5 137.5l-67 -32q45 -51 93 -108.5t94 -114.5t83 -104h-568v-67h625zM332 361h345v63h-345v-63zM497 39l63 30q-4 7 -8.5 13.5t-9.5 12.5q51 60 121 119.5t147.5 109t148.5 80.5q-13 10 -27.5 27.5t-23.5 31.5
q-66 -34 -139.5 -84t-142.5 -110.5t-124 -123.5q-82 99 -189.5 182.5t-222.5 140.5q-19 -31 -50 -57q90 -41 175.5 -99t158.5 -128t123 -145z" />
</svg>
