<?xml version="1.0" standalone="no"?>
<!DOCTYPE svg PUBLIC "-//W3C//DTD SVG 1.1//EN" "http://www.w3.org/Graphics/SVG/1.1/DTD/svg11.dtd" >
<svg xmlns="http://www.w3.org/2000/svg" xmlns:xlink="http://www.w3.org/1999/xlink" version="1.1" viewBox="-10 0 1010 1000">
   <path fill="currentColor"
d="M282 564v-129h69v131q0 49 -7 101.5t-29.5 103.5t-67.5 98.5t-120 87.5q-8 -11 -24 -25.5t-29 -22.5q71 -37 112.5 -79t62 -87t27 -90.5t6.5 -88.5zM655 958v-525h69v525h-69zM499 40l54 36q-4 7 -8 13t-8 13q47 63 117 122.5t153 106t166 71.5q-12 11 -25.5 29t-21.5 32
q-80 -28 -158.5 -75.5t-147 -107.5t-119.5 -127q-53 68 -122 129.5t-147 111t-158 81.5q-6 -14 -17 -32t-22 -31q70 -23 138.5 -62t130 -88.5t112 -106t83.5 -115.5z" />
</svg>
