<?xml version="1.0" standalone="no"?>
<!DOCTYPE svg PUBLIC "-//W3C//DTD SVG 1.1//EN" "http://www.w3.org/Graphics/SVG/1.1/DTD/svg11.dtd" >
<svg xmlns="http://www.w3.org/2000/svg" xmlns:xlink="http://www.w3.org/1999/xlink" version="1.1" viewBox="-10 0 1010 1000">
   <path fill="currentColor"
d="M247 739l34 -52q55 15 116.5 35.5t121.5 43.5t112.5 46.5t89.5 45.5l-36 60q-36 -22 -87.5 -46.5t-111 -49t-121 -46t-118.5 -37.5zM362 461l40 -43q47 23 98.5 53t97 61t74.5 57l-42 50q-28 -26 -73.5 -58t-96.5 -63.5t-98 -56.5zM489 47l58 24q-4 7 -7.5 13t-7.5 13
q86 126 193.5 207t232.5 143q-12 9 -23 23.5t-19 28.5q-122 -65 -224.5 -146.5t-191.5 -205.5q-77 110 -183.5 203t-224.5 155q-8 -12 -20.5 -27t-24.5 -25q90 -44 173.5 -107t153 -139.5t115.5 -159.5z" />
</svg>
