<?xml version="1.0" standalone="no"?>
<!DOCTYPE svg PUBLIC "-//W3C//DTD SVG 1.1//EN" "http://www.w3.org/Graphics/SVG/1.1/DTD/svg11.dtd" >
<svg xmlns="http://www.w3.org/2000/svg" xmlns:xlink="http://www.w3.org/1999/xlink" version="1.1" viewBox="-10 0 1010 1000">
   <path fill="currentColor"
d="M92 610v-64h822v64h-441q-49 64 -102 126t-108 113l471 -37q-29 -33 -60 -66t-61 -61l56 -29q45 39 89 86t80.5 93t58.5 84l-59 35q-10 -19 -25 -40t-32 -43q-160 13 -267 22.5t-173 15t-101.5 10t-52.5 7.5t-28 7q-3 -11 -10 -33t-13 -36q16 -2 33.5 -16.5t41.5 -36.5
q14 -13 42 -42.5t63 -71t68 -87.5h-292zM505 46l64 27l-14 20t-15 20q45 48 111.5 98.5t145 94.5t160.5 73q-11 10 -25 27t-22 31q-79 -32 -155 -78.5t-140.5 -99t-111.5 -101.5q-49 55 -108.5 104t-128.5 93h474v62h-477v-60q-39 25 -81 48t-86 43q-7 -12 -21.5 -29.5
t-26.5 -27.5q98 -42 185.5 -96.5t157.5 -118t114 -130.5z" />
</svg>
