<?xml version="1.0" standalone="no"?>
<!DOCTYPE svg PUBLIC "-//W3C//DTD SVG 1.1//EN" "http://www.w3.org/Graphics/SVG/1.1/DTD/svg11.dtd" >
<svg xmlns="http://www.w3.org/2000/svg" xmlns:xlink="http://www.w3.org/1999/xlink" version="1.1" viewBox="-10 0 1010 1000">
   <path fill="currentColor"
d="M751 29l47 51q-56 34 -130.5 66t-156 59.5t-160.5 50.5q-2 -11 -8 -26.5t-13 -25.5q77 -23 156 -51t148.5 -59.5t116.5 -64.5zM259 51l62 18q-17 52 -39 103.5t-47 101.5v680h-65v-565q-22 37 -47 70.5t-50 62.5q-4 -11 -16.5 -32t-20.5 -32q45 -50 86.5 -115.5
t76.5 -140t60 -151.5zM423 663l60 19q-28 57 -71.5 116.5t-88.5 102.5q-10 -8 -24.5 -18.5t-25.5 -16.5q30 -27 58.5 -61.5t52.5 -71.5t39 -70zM847 592l-199 19v270q0 25 -7 38.5t-26 21.5q-18 7 -48 8t-77 1q-2 -13 -8 -28.5t-12 -27.5q32 1 59.5 0.5t34.5 -0.5
q17 0 17 -14v-262q-73 7 -118 12t-69.5 8.5t-36.5 6.5t-20 6q-3 -10 -9 -28t-11 -31q40 -6 118 -55q23 -14 71 -46t108 -76q-76 6 -122 10t-71 7t-36.5 5.5t-18.5 4.5q-1 -9 -7 -27.5t-11 -29.5q15 -2 34 -11.5t41 -24.5q16 -10 52.5 -36.5t81 -64t83.5 -77.5l55 29
q-53 49 -108 92.5t-111 78.5l211 -13q33 -26 65 -53.5t63 -55.5l49 38q-194 168 -390 284l334 -30q-34 -41 -68 -80l48 -29q29 30 59.5 65.5t57 69.5t42.5 60l-52 34q-18 -30 -48 -69zM740 679l52 -27q30 31 60 67.5t55 72t39 64.5l-55 31q-13 -29 -37.5 -65.5t-54 -74
t-59.5 -68.5z" />
</svg>
