<?xml version="1.0" standalone="no"?>
<!DOCTYPE svg PUBLIC "-//W3C//DTD SVG 1.1//EN" "http://www.w3.org/Graphics/SVG/1.1/DTD/svg11.dtd" >
<svg xmlns="http://www.w3.org/2000/svg" xmlns:xlink="http://www.w3.org/1999/xlink" version="1.1" viewBox="-10 0 1010 1000">
   <path fill="currentColor"
d="M855 124v64h-705v-64h705zM702 875h136q21 0 31.5 -13t15 -52.5t6.5 -116.5q12 10 30 17.5t32 12.5q-4 84 -13.5 130.5t-32 65t-64.5 18.5h-148q-64 0 -86.5 -21t-22.5 -82v-365h-194q-7 81 -22.5 153.5t-47 135t-86 111.5t-140.5 84q-6 -11 -18.5 -27t-23.5 -24
q80 -30 130 -74.5t78 -100.5t40.5 -121t18.5 -137h-258v-65h875v65h-284v365q0 25 9 33t39 8z" />
</svg>
