<?xml version="1.0" standalone="no"?>
<!DOCTYPE svg PUBLIC "-//W3C//DTD SVG 1.1//EN" "http://www.w3.org/Graphics/SVG/1.1/DTD/svg11.dtd" >
<svg xmlns="http://www.w3.org/2000/svg" xmlns:xlink="http://www.w3.org/1999/xlink" version="1.1" viewBox="-10 0 1010 1000">
   <path fill="currentColor"
d="M330 57l67 18q-49 121 -129.5 221t-172.5 167q-9 -9 -26.5 -23.5t-30.5 -21.5q94 -60 171 -154.5t121 -206.5zM357 570h435l-0.5 12t-2.5 19q-12 97 -24.5 159.5t-27 98.5t-34.5 53q-17 16 -36.5 21t-50.5 7q-27 1 -77.5 0t-106.5 -5q-2 -15 -8.5 -32.5t-17.5 -31.5
q40 3 78.5 5t69 3t44.5 1q20 0 31.5 -1.5t20.5 -8.5q22 -17 37.5 -72t30.5 -167h-453q20 -45 42 -107.5t40 -119.5h-111v-62h530v62h-353q-13 41 -27.5 84.5t-28.5 81.5zM598 66l60 -19q30 73 77.5 142t106 124.5t120.5 89.5q-12 10 -25.5 25t-21.5 29q-65 -39 -125 -100
t-109.5 -136t-82.5 -155z" />
</svg>
