<?xml version="1.0" standalone="no"?>
<!DOCTYPE svg PUBLIC "-//W3C//DTD SVG 1.1//EN" "http://www.w3.org/Graphics/SVG/1.1/DTD/svg11.dtd" >
<svg xmlns="http://www.w3.org/2000/svg" xmlns:xlink="http://www.w3.org/1999/xlink" version="1.1" viewBox="-10 0 1010 1000">
   <path fill="currentColor"
d="M282 442l56 -31q44 40 86.5 88.5t77 97t52.5 88.5l-61 36q-18 -40 -51.5 -88.5t-75 -98.5t-84.5 -92zM915 198v37q-7 173 -14.5 294t-16.5 198.5t-21.5 121t-29.5 62.5q-17 21 -36 29.5t-48 10.5q-28 2 -76 1t-98 -4q-1 -15 -7 -34t-16 -33q57 4 105.5 5.5t68.5 1.5
q17 0 28 -3t20 -13q14 -14 24.5 -53t19.5 -110t16 -181t13 -264h-565q-38 76 -82.5 142.5t-93.5 117.5q-9 -9 -27.5 -23t-31.5 -21q54 -51 100.5 -120t84 -149.5t63.5 -165.5l68 16q-23 72 -51 137h603z" />
</svg>
