<?xml version="1.0" standalone="no"?>
<!DOCTYPE svg PUBLIC "-//W3C//DTD SVG 1.1//EN" "http://www.w3.org/Graphics/SVG/1.1/DTD/svg11.dtd" >
<svg xmlns="http://www.w3.org/2000/svg" xmlns:xlink="http://www.w3.org/1999/xlink" version="1.1" viewBox="-10 0 1010 1000">
   <path fill="currentColor"
d="M300 186h612v14.5t-1 22.5q-5 183 -10 307.5t-12 203.5t-16 121t-23 60q-15 21 -31.5 29t-41.5 10q-23 2 -61 1t-78 -3q-1 -14 -5 -31t-12 -29q42 3 78.5 3.5t52.5 0.5q14 0 23 -3t16 -13q11 -13 19 -52t14.5 -112t12 -187.5t9.5 -278.5h-581q-45 76 -98 140h63v341h523
v61h-523v73h-64v-474q-17 21 -34.5 39.5t-35.5 35.5q-9 -8 -26.5 -22.5t-29.5 -22.5q79 -66 144 -165.5t105 -210.5l66 17q-12 31 -25.5 62.5t-29.5 61.5zM473 301l62 11q-16 78 -42 144q38 30 78 66t75 70t58 61l-49 43q-19 -25 -49.5 -56t-66 -64.5t-70.5 -64.5
q-59 120 -158 196q-8 -8 -24 -21.5t-27 -20.5q84 -57 136.5 -150t76.5 -214z" />
</svg>
