<?xml version="1.0" standalone="no"?>
<!DOCTYPE svg PUBLIC "-//W3C//DTD SVG 1.1//EN" "http://www.w3.org/Graphics/SVG/1.1/DTD/svg11.dtd" >
<svg xmlns="http://www.w3.org/2000/svg" xmlns:xlink="http://www.w3.org/1999/xlink" version="1.1" viewBox="-10 0 1010 1000">
   <path fill="currentColor"
d="M423 205v261h270v62h-270v426h-65v-426h-273v-62h273v-261h65zM79 100h714q0 113 2.5 226t8.5 213.5t17 178.5t28.5 123t42.5 45q14 0 20 -48.5t7 -129.5q24 29 47 42q-3 76 -11 121.5t-24 65.5t-45 21q-42 0 -70 -40.5t-45 -114t-26 -173t-12.5 -218.5t-5.5 -250h-648
v-62z" />
</svg>
