<?xml version="1.0" standalone="no"?>
<!DOCTYPE svg PUBLIC "-//W3C//DTD SVG 1.1//EN" "http://www.w3.org/Graphics/SVG/1.1/DTD/svg11.dtd" >
<svg xmlns="http://www.w3.org/2000/svg" xmlns:xlink="http://www.w3.org/1999/xlink" version="1.1" viewBox="-10 0 1010 1000">
   <path fill="currentColor"
d="M912 871l-66 33q-14 -47 -40 -112q-146 10 -251.5 18t-177.5 13.5t-117.5 9.5t-71.5 7t-40.5 6t-24.5 7q-3 -12 -12.5 -35t-17.5 -38q19 -6 41.5 -38.5t53.5 -83.5q17 -25 48.5 -82.5t70.5 -136t77.5 -169t69.5 -181.5l75 29q-44 117 -98 233t-112 222t-117 194l579 -36
q-26 -63 -55.5 -127.5t-57.5 -121.5l60 -27q25 51 52 107.5t52 113t46 106.5t34 89z" />
</svg>
