<?xml version="1.0" standalone="no"?>
<!DOCTYPE svg PUBLIC "-//W3C//DTD SVG 1.1//EN" "http://www.w3.org/Graphics/SVG/1.1/DTD/svg11.dtd" >
<svg xmlns="http://www.w3.org/2000/svg" xmlns:xlink="http://www.w3.org/1999/xlink" version="1.1" viewBox="-10 0 1010 1000">
   <path fill="currentColor"
d="M733 537h-348q70 114 186 201q51 -41 92.5 -91t69.5 -110zM780 473l41 24q-33 85 -83 154.5t-115 122.5q71 44 151.5 77t168.5 52q-10 9 -21.5 26t-19.5 29q-91 -22 -174 -59t-155 -87q-73 52 -156.5 88t-173.5 59q-6 -11 -17.5 -28t-22.5 -26q88 -20 168.5 -52.5
t150.5 -78.5q-56 -46 -103.5 -99.5t-83.5 -113.5q-39 82 -98 158.5t-146 132.5q-7 -11 -18.5 -24.5t-22.5 -22.5q65 -39 113.5 -92.5t83 -114t57.5 -122t38 -118.5h-280v-62h295q8 -36 13 -67t9 -53q-64 5 -128.5 9t-126.5 7q0 -13 -5 -29.5t-10 -27.5q91 -5 188.5 -12
t191.5 -17t175.5 -23t140.5 -29l44 55q-79 19 -183.5 34.5t-217.5 25.5q-4 25 -10.5 57t-15.5 70h520v62h-534q-7 28 -16.5 57.5t-20.5 60.5h397z" />
</svg>
