<?xml version="1.0" standalone="no"?>
<!DOCTYPE svg PUBLIC "-//W3C//DTD SVG 1.1//EN" "http://www.w3.org/Graphics/SVG/1.1/DTD/svg11.dtd" >
<svg xmlns="http://www.w3.org/2000/svg" xmlns:xlink="http://www.w3.org/1999/xlink" version="1.1" viewBox="-10 0 1010 1000">
   <path fill="currentColor"
d="M555 464h-257v236h257v-236zM621 760h-323v73h-64v-429h387v356zM311 192h602v15t-1 22q-6 177 -12.5 300t-15 202t-20 123t-27.5 63q-17 22 -36.5 30t-48.5 11q-28 2 -76 1t-97 -4q-1 -16 -7.5 -35t-16.5 -34q58 4 106 5t68 1q16 1 27 -2t20 -13q14 -14 24 -53.5
t18 -112t14 -184t11 -269.5h-563q-39 77 -84.5 144.5t-95.5 119.5q-9 -9 -27 -23t-30 -22q81 -77 145.5 -191t104.5 -241l68 17q-22 65 -50 130z" />
</svg>
