<?xml version="1.0" standalone="no"?>
<!DOCTYPE svg PUBLIC "-//W3C//DTD SVG 1.1//EN" "http://www.w3.org/Graphics/SVG/1.1/DTD/svg11.dtd" >
<svg xmlns="http://www.w3.org/2000/svg" xmlns:xlink="http://www.w3.org/1999/xlink" version="1.1" viewBox="-10 0 1010 1000">
   <path fill="currentColor"
d="M800 269h-393q-23 32 -47.5 62t-50.5 58q53 31 108.5 68t105.5 75t86 72q62 -68 111 -152t80 -183zM840 199l47 23q-41 157 -114.5 279t-171.5 211.5t-213 150.5t-239 96q-5 -15 -16.5 -34t-22.5 -31q123 -31 238 -90t211 -149q-35 -34 -84 -73t-103.5 -77t-108.5 -70
q-29 27 -59 51.5t-62 46.5q-9 -10 -27 -26t-31 -24q119 -73 215 -187t154 -252l69 20q-16 36 -34 71t-38 68h377z" />
</svg>
