<?xml version="1.0" standalone="no"?>
<!DOCTYPE svg PUBLIC "-//W3C//DTD SVG 1.1//EN" "http://www.w3.org/Graphics/SVG/1.1/DTD/svg11.dtd" >
<svg xmlns="http://www.w3.org/2000/svg" xmlns:xlink="http://www.w3.org/1999/xlink" version="1.1" viewBox="-10 0 1010 1000">
   <path fill="currentColor"
d="M938 401h-381q36 112 91.5 208.5t132 169t172.5 113.5q-12 11 -26 29t-23 33q-146 -69 -245.5 -202.5t-157.5 -308.5q-23 99 -70 195t-127.5 178t-205.5 139q-8 -14 -22.5 -29.5t-27.5 -25.5q94 -41 161.5 -97t113 -121.5t74 -137t43.5 -143.5h-374v-68h386
q12 -81 13.5 -155t2.5 -132h70q-1 60 -3.5 133.5t-13.5 153.5h417v68z" />
</svg>
