<?xml version="1.0" standalone="no"?>
<!DOCTYPE svg PUBLIC "-//W3C//DTD SVG 1.1//EN" "http://www.w3.org/Graphics/SVG/1.1/DTD/svg11.dtd" >
<svg xmlns="http://www.w3.org/2000/svg" xmlns:xlink="http://www.w3.org/1999/xlink" version="1.1" viewBox="-10 0 1010 1000">
   <path fill="currentColor"
d="M935 497h-385q52 145 155 249.5t256 148.5q-12 10 -24.5 27.5t-20.5 31.5q-151 -50 -253.5 -155t-161.5 -255q-21 74 -68 148t-129.5 141t-212.5 122q-7 -13 -20 -29.5t-24 -26.5q131 -54 211.5 -120.5t123 -138.5t59.5 -143h-371v-67h383q5 -31 6 -61t1 -58v-120h-356
v-67h788v67h-363v121q0 28 -1 57.5t-5 60.5h412v67z" />
</svg>
