<?xml version="1.0" standalone="no"?>
<!DOCTYPE svg PUBLIC "-//W3C//DTD SVG 1.1//EN" "http://www.w3.org/Graphics/SVG/1.1/DTD/svg11.dtd" >
<svg xmlns="http://www.w3.org/2000/svg" xmlns:xlink="http://www.w3.org/1999/xlink" version="1.1" viewBox="-10 0 1010 1000">
   <path fill="currentColor"
d="M932 547h-391q53 134 157.5 221.5t264.5 122.5q-12 11 -24 29t-20 33q-155 -40 -259 -127.5t-164 -221.5q-24 69 -72.5 133.5t-130.5 120t-208 99.5q-6 -13 -18 -31t-23 -28q128 -44 208 -99.5t123.5 -119.5t62.5 -132h-368v-68h383q5 -32 6.5 -64.5t1.5 -63.5v-84h-323
v-68h323v-155h70v155h344v68h-344v84q0 32 -1.5 64t-5.5 64h408v68z" />
</svg>
