<?xml version="1.0" standalone="no"?>
<!DOCTYPE svg PUBLIC "-//W3C//DTD SVG 1.1//EN" "http://www.w3.org/Graphics/SVG/1.1/DTD/svg11.dtd" >
<svg xmlns="http://www.w3.org/2000/svg" xmlns:xlink="http://www.w3.org/1999/xlink" version="1.1" viewBox="-10 0 1010 1000">
   <path fill="currentColor"
d="M127 577v-57h741v57h-512q-8 25 -17.5 51.5t-18.5 49.5h465l-1.5 11.5t-3.5 18.5q-19 99 -37 149.5t-44 70.5q-16 13 -33.5 17t-43.5 6q-23 1 -68.5 0t-98.5 -4q-2 -31 -20 -61q52 5 100 6.5t67 1.5q18 0 29 -1.5t18 -6.5q17 -13 31.5 -49t27.5 -104h-409v1h-71
q15 -32 30.5 -74.5t28.5 -82.5h-160zM297 364h408v57h-408v-57zM937 232h-267q50 71 128 128t167 89q-8 12 -16 30t-12 32q-69 -28 -133 -71t-116 -96t-88 -112h-194q-54 80 -134.5 151.5t-191.5 124.5q-6 -11 -17 -26.5t-22 -24.5q95 -44 165.5 -102.5t119.5 -122.5h-261
v-60h301q20 -32 34 -63.5t24 -62.5l69 10q-20 60 -51 116h495v60z" />
</svg>
