<?xml version="1.0" standalone="no"?>
<!DOCTYPE svg PUBLIC "-//W3C//DTD SVG 1.1//EN" "http://www.w3.org/Graphics/SVG/1.1/DTD/svg11.dtd" >
<svg xmlns="http://www.w3.org/2000/svg" xmlns:xlink="http://www.w3.org/1999/xlink" version="1.1" viewBox="-10 0 1010 1000">
   <path fill="currentColor"
d="M250 279l63 12q-8 34 -18.5 66.5t-22.5 62.5q38 31 77 67.5t61 62.5l-38 48q-20 -26 -54.5 -59.5t-69.5 -64.5q-57 110 -140 183q-7 -8 -23 -21.5t-27 -20.5q72 -56 120.5 -143t71.5 -193zM933 595l-43 46q-27 -32 -74 -78t-94 -86q-22 42 -48 77.5t-58 64.5
q-8 -8 -25 -18t-28 -16q23 54 70 112.5t125.5 111t196.5 87.5q-10 10 -22.5 28.5t-19.5 31.5q-111 -35 -187 -87t-123.5 -108.5t-72 -107.5t-32.5 -84q-8 33 -32 83.5t-71 107t-122.5 108.5t-185.5 88q-7 -11 -20 -27.5t-24 -27.5q105 -32 178 -77.5t120.5 -97.5t74 -103.5
t37 -95t10.5 -71.5v-207h-404v-64h404v-136h70v136h409v64h-409v207q0 22 6.5 55.5t22.5 71.5q62 -50 101.5 -128t56.5 -174l62 10q-14 72 -36 131q34 27 69 59t66.5 61.5t51.5 52.5z" />
</svg>
