<?xml version="1.0" standalone="no"?>
<!DOCTYPE svg PUBLIC "-//W3C//DTD SVG 1.1//EN" "http://www.w3.org/Graphics/SVG/1.1/DTD/svg11.dtd" >
<svg xmlns="http://www.w3.org/2000/svg" xmlns:xlink="http://www.w3.org/1999/xlink" version="1.1" viewBox="-10 0 1010 1000">
   <path fill="currentColor"
d="M949 489v66h-412v310q0 35 -10.5 52.5t-37.5 25.5q-27 9 -75 11t-120 2q-4 -15 -12.5 -34.5t-17.5 -34.5q62 2 112 2.5t66 -0.5q15 -2 21 -7t6 -18v-309h-416v-66h416v-146q44 -20 90.5 -46.5t91 -57t80.5 -60.5h-578v-65h650l14 -4l50 38q-43 41 -98.5 83t-115 80
t-116.5 67v111h412z" />
</svg>
