<?xml version="1.0" standalone="no"?>
<!DOCTYPE svg PUBLIC "-//W3C//DTD SVG 1.1//EN" "http://www.w3.org/Graphics/SVG/1.1/DTD/svg11.dtd" >
<svg xmlns="http://www.w3.org/2000/svg" xmlns:xlink="http://www.w3.org/1999/xlink" version="1.1" viewBox="-10 0 1010 1000">
   <path fill="currentColor"
d="M466 46h67v508q0 33 -9 49.5t-33 25.5q-23 8 -64.5 10t-104.5 2q-2 -15 -9.5 -34t-15.5 -34q52 1 92.5 1.5t53.5 -0.5q14 -1 18.5 -5t4.5 -15v-508zM681 192l59 -30q44 50 87 109t78.5 116t54.5 103l-65 35q-17 -45 -51 -103t-76.5 -118.5t-86.5 -111.5zM751 467l67 22
q-46 137 -131.5 230.5t-217.5 151t-317 86.5q-5 -15 -15 -33.5t-20 -30.5q178 -24 304 -75.5t206.5 -138t123.5 -212.5zM247 171l72 18q-24 60 -58 123.5t-74.5 122t-85.5 104.5q-11 -10 -27.5 -21.5t-30.5 -18.5q45 -43 84 -98.5t70 -115.5t50 -114z" />
</svg>
