<?xml version="1.0" standalone="no"?>
<!DOCTYPE svg PUBLIC "-//W3C//DTD SVG 1.1//EN" "http://www.w3.org/Graphics/SVG/1.1/DTD/svg11.dtd" >
<svg xmlns="http://www.w3.org/2000/svg" xmlns:xlink="http://www.w3.org/1999/xlink" version="1.1" viewBox="-10 0 1010 1000">
   <path fill="currentColor"
d="M214 452h326v-116h-325v52v31.5t-1 32.5zM811 159h-596v117h596v-117zM794 860v-165h-434v165h434zM935 513h-329v123h254v318h-66v-34h-434v36h-64v-320h244v-123h-328q-4 74 -16.5 153t-36 154t-64.5 137q-9 -9 -27 -19.5t-30 -15.5q38 -59 60 -127t33 -139
t14.5 -139.5t3.5 -128.5v-289h728v237h-271v116h329v61z" />
</svg>
