<?xml version="1.0" standalone="no"?>
<!DOCTYPE svg PUBLIC "-//W3C//DTD SVG 1.1//EN" "http://www.w3.org/Graphics/SVG/1.1/DTD/svg11.dtd" >
<svg xmlns="http://www.w3.org/2000/svg" xmlns:xlink="http://www.w3.org/1999/xlink" version="1.1" viewBox="-10 0 1010 1000">
   <path fill="currentColor"
d="M669 65l61 39q-67 48 -153.5 93.5t-178 83.5t-174.5 65q-7 -14 -20.5 -31.5t-26.5 -30.5q61 -17 128 -41.5t134 -53t126 -60.5t104 -64zM714 317l63 36q-64 59 -150.5 112t-181.5 96t-187 73q-7 -14 -20 -32t-27 -31q90 -26 184 -65.5t177.5 -87.5t141.5 -101zM798 567
l63 36q-72 85 -175.5 153t-227 117.5t-256.5 81.5q-7 -15 -18.5 -34t-24.5 -33q130 -28 251.5 -73.5t221.5 -107.5t166 -140z" />
</svg>
