<?xml version="1.0" standalone="no"?>
<!DOCTYPE svg PUBLIC "-//W3C//DTD SVG 1.1//EN" "http://www.w3.org/Graphics/SVG/1.1/DTD/svg11.dtd" >
<svg xmlns="http://www.w3.org/2000/svg" xmlns:xlink="http://www.w3.org/1999/xlink" version="1.1" viewBox="-10 0 1010 1000">
   <path fill="currentColor"
d="M610 235l-44 53q-29 -26 -72.5 -60t-90.5 -69.5t-90 -63.5l43 -47q44 28 91.5 62.5t90.5 67.5t72 57zM153 351l62 17q-11 54 -27.5 116t-38.5 120.5t-51 102.5l-61 -26q28 -43 50.5 -99.5t39.5 -117t26 -113.5zM450 882h200q30 0 44.5 -15t21 -57.5t9.5 -122.5
q14 10 32.5 17.5t33.5 11.5q-5 89 -17.5 140t-40 71.5t-80.5 20.5h-207q-51 0 -80.5 -10.5t-41.5 -37.5t-12 -76v-64q-55 37 -112.5 71t-119.5 63q-7 -11 -19.5 -26t-23.5 -25q74 -34 143 -75t132 -88v-390h69v336q134 -113 238.5 -246.5t174.5 -275.5l66 27
q-85 162 -205 310.5t-274 267.5v117q0 34 13 45t56 11zM741 406l59 -27q35 50 68 107.5t59 113.5t39 100l-63 30q-13 -45 -38 -101t-57.5 -114.5t-66.5 -108.5z" />
</svg>
