<?xml version="1.0" standalone="no"?>
<!DOCTYPE svg PUBLIC "-//W3C//DTD SVG 1.1//EN" "http://www.w3.org/Graphics/SVG/1.1/DTD/svg11.dtd" >
<svg xmlns="http://www.w3.org/2000/svg" xmlns:xlink="http://www.w3.org/1999/xlink" version="1.1" viewBox="-10 0 1010 1000">
   <path fill="currentColor"
d="M821 175l-44 51q-23 -19 -58.5 -41.5t-76 -44t-77.5 -37.5l43 -44q36 14 76.5 34.5t77 41.5t59.5 40zM805 380l64 32q-55 87 -126.5 161.5t-154.5 137.5q47 81 105 127t123 46q22 0 35 -16t21 -55t13 -107q13 10 31 20t34 14q-9 84 -24 130.5t-41.5 65t-70.5 18.5
q-87 0 -158.5 -54.5t-126.5 -146.5q-89 59 -188 107t-205 85q-7 -13 -20.5 -32t-24.5 -31q111 -34 213.5 -81.5t192.5 -108.5q-33 -71 -58.5 -155.5t-41.5 -177.5l-332 28l-7 -65l329 -27q-8 -59 -13 -121.5t-6 -125.5h73q1 62 5.5 123t11.5 118l478 -39l6 63l-474 40
q30 171 89 296q74 -58 136.5 -125t111.5 -144z" />
</svg>
