<?xml version="1.0" standalone="no"?>
<!DOCTYPE svg PUBLIC "-//W3C//DTD SVG 1.1//EN" "http://www.w3.org/Graphics/SVG/1.1/DTD/svg11.dtd" >
<svg xmlns="http://www.w3.org/2000/svg" xmlns:xlink="http://www.w3.org/1999/xlink" version="1.1" viewBox="-10 0 1010 1000">
   <path fill="currentColor"
d="M495 475l6 62q-43 12 -87.5 24t-88.5 23v273q0 34 -9.5 51t-29.5 26q-22 8 -59.5 10t-94.5 2q-3 -14 -9.5 -33.5t-14.5 -33.5q43 1 79 1.5t47 -0.5q12 -1 17 -5.5t5 -17.5v-254l-160 42l-19 -69q37 -8 82.5 -18.5t96.5 -23.5v-224h-169v-66h169v-205h69v205h163v66h-163
v208q42 -11 85 -22t85 -21z" />
</svg>
