<?xml version="1.0" standalone="no"?>
<!DOCTYPE svg PUBLIC "-//W3C//DTD SVG 1.1//EN" "http://www.w3.org/Graphics/SVG/1.1/DTD/svg11.dtd" >
<svg xmlns="http://www.w3.org/2000/svg" xmlns:xlink="http://www.w3.org/1999/xlink" version="1.1" viewBox="-10 0 1010 1000">
   <path fill="currentColor"
d="M573 193l-72 23q-9 -30 -31 -74.5t-45 -81.5l68 -20q23 35 46.5 78t33.5 75zM716 287h-440q41 99 97 186t129 160q69 -69 122 -155.5t92 -190.5zM949 287h-158q-43 121 -103 218t-137 174q85 73 187 126t223 84q-11 10 -24 28t-21 32q-123 -34 -226.5 -90t-188.5 -132
q-85 74 -189 129.5t-230 96.5q-5 -11 -17.5 -30.5t-23.5 -30.5q250 -73 412 -212q-79 -81 -139.5 -180t-104.5 -213h-155v-65h895v65z" />
</svg>
