<?xml version="1.0" standalone="no"?>
<!DOCTYPE svg PUBLIC "-//W3C//DTD SVG 1.1//EN" "http://www.w3.org/Graphics/SVG/1.1/DTD/svg11.dtd" >
<svg xmlns="http://www.w3.org/2000/svg" xmlns:xlink="http://www.w3.org/1999/xlink" version="1.1" viewBox="-10 0 1010 1000">
   <path fill="currentColor"
d="M831 276h-560q-30 66 -66 124t-76 102q-10 -8 -29.5 -21.5t-33.5 -20.5q74 -75 129.5 -187t88.5 -236l69 13q-10 41 -24 81.5t-30 78.5h561l13 -3l51 19q-17 51 -39.5 104.5t-47 102t-49.5 84.5l-59 -26q27 -41 54 -99t48 -116zM531 328v59q0 36 -3 77
q46 167 148.5 279.5t276.5 153.5q-11 11 -23.5 28.5t-20.5 31.5q-152 -43 -250 -138.5t-154 -237.5q-20 65 -66.5 132t-129.5 129.5t-216 114.5q-6 -12 -19.5 -27.5t-24.5 -25.5q116 -45 192 -97t121 -107.5t66.5 -111t28 -107.5t6.5 -96v-57h68z" />
</svg>
