<?xml version="1.0" standalone="no"?>
<!DOCTYPE svg PUBLIC "-//W3C//DTD SVG 1.1//EN" "http://www.w3.org/Graphics/SVG/1.1/DTD/svg11.dtd" >
<svg xmlns="http://www.w3.org/2000/svg" xmlns:xlink="http://www.w3.org/1999/xlink" version="1.1" viewBox="-10 0 1010 1000">
   <path fill="currentColor"
d="M383 418v395q37 -7 74 -13.5t73 -13.5l5 66q-84 16 -170 32.5t-164 31t-141 26.5l-11 -72l39 -6.5t43 -7.5v-611h64v601l121 -21v-780h67v309h147v64h-147zM703 858h144q22 0 33 -15t16 -54.5t7 -110.5q14 9 31.5 17.5t31.5 12.5q-4 79 -14 126t-33 67.5t-67 20.5h-156
q-44 0 -69 -11t-35 -39t-10 -79v-748h69v369q64 -35 124.5 -75t100.5 -76l55 52q-58 43 -132 86t-148 80v314q0 39 9.5 51t42.5 12z" />
</svg>
