<?xml version="1.0" standalone="no"?>
<!DOCTYPE svg PUBLIC "-//W3C//DTD SVG 1.1//EN" "http://www.w3.org/Graphics/SVG/1.1/DTD/svg11.dtd" >
<svg xmlns="http://www.w3.org/2000/svg" xmlns:xlink="http://www.w3.org/1999/xlink" version="1.1" viewBox="-10 0 1010 1000">
   <path fill="currentColor"
d="M882 375l-46 55q-59 -35 -141 -74t-174 -76q-95 45 -200 80.5t-212 60.5q-5 -13 -16.5 -30t-20.5 -28q94 -20 187.5 -49t180.5 -66q-79 -29 -159.5 -55.5t-156.5 -45.5l48 -49q83 21 172 50.5t176 63.5q75 -37 138 -79t108 -88l63 36q-47 45 -105.5 85.5t-126.5 75.5
q83 34 156.5 68t128.5 65zM715 403l67 24q-43 88 -101 159.5t-128 129.5q86 61 188.5 105.5t217.5 69.5q-12 12 -24 30.5t-20 32.5q-119 -29 -223.5 -78.5t-192.5 -116.5q-89 64 -194 111t-224 82q-6 -12 -18 -31.5t-23 -30.5q117 -29 219 -72.5t187 -101.5
q-138 -122 -222 -283l59 -23q39 76 93.5 142.5t122.5 123.5q138 -111 216 -273z" />
</svg>
