<?xml version="1.0" standalone="no"?>
<!DOCTYPE svg PUBLIC "-//W3C//DTD SVG 1.1//EN" "http://www.w3.org/Graphics/SVG/1.1/DTD/svg11.dtd" >
<svg xmlns="http://www.w3.org/2000/svg" xmlns:xlink="http://www.w3.org/1999/xlink" version="1.1" viewBox="-10 0 1010 1000">
   <path fill="currentColor"
d="M276 656l66 22q-46 66 -108 131t-121 110q-9 -8 -27 -21.5t-31 -20.5q61 -41 120.5 -100.5t100.5 -120.5zM820 557l-271 19v291q0 31 -8 47.5t-31 24.5t-61 10t-92 2q-3 -15 -11 -34t-17 -35q47 2 82.5 2.5t48.5 -0.5q12 -1 15.5 -4t3.5 -13v-287q-105 8 -169 13t-99 9
t-52 7t-28 7q-2 -11 -9.5 -33t-13.5 -36q25 -4 59 -20t80 -43q26 -14 76.5 -45.5t112.5 -74.5q-84 6 -134.5 9.5t-78 6.5t-40 5t-20.5 5q-1 -11 -8 -32t-13 -34q14 -3 32.5 -16t40.5 -32q17 -13 52.5 -47.5t78 -81.5t77.5 -97l66 34q-54 65 -112.5 125t-117.5 109l262 -16
q44 -32 87.5 -67t83.5 -72l60 44q-114 98 -233 180t-238 146l493 -30q-23 -27 -47.5 -53.5t-49.5 -49.5l55 -29q38 35 77.5 77t73.5 82.5t55 73.5l-59 34q-10 -17 -25.5 -38t-33.5 -43zM647 686l55 -32q42 33 87.5 74t85.5 80.5t65 71.5l-58 38q-23 -31 -62.5 -72t-84.5 -83
t-88 -77z" />
</svg>
