<?xml version="1.0" standalone="no"?>
<!DOCTYPE svg PUBLIC "-//W3C//DTD SVG 1.1//EN" "http://www.w3.org/Graphics/SVG/1.1/DTD/svg11.dtd" >
<svg xmlns="http://www.w3.org/2000/svg" xmlns:xlink="http://www.w3.org/1999/xlink" version="1.1" viewBox="-10 0 1010 1000">
   <path fill="currentColor"
d="M249 337v132h486v-132h-486zM735 157h-486v123h486v-123zM844 549l41 47q-48 38 -110.5 76t-116.5 68q65 50 143.5 87.5t166.5 59.5q-12 10 -24.5 28.5t-20.5 32.5q-175 -50 -307.5 -156.5t-209.5 -258.5h-157v329l244 -60q1 13 3 31t4 28q-100 28 -160.5 45t-93 27
t-47 16t-22.5 11q-4 -11 -13 -27t-17 -25q11 -6 22.5 -21t11.5 -46v-748h623v440h-327q54 94 136 169q37 -21 79 -47t82 -53.5t70 -52.5z" />
</svg>
