<?xml version="1.0" standalone="no"?>
<!DOCTYPE svg PUBLIC "-//W3C//DTD SVG 1.1//EN" "http://www.w3.org/Graphics/SVG/1.1/DTD/svg11.dtd" >
<svg xmlns="http://www.w3.org/2000/svg" xmlns:xlink="http://www.w3.org/1999/xlink" version="1.1" viewBox="-10 0 1010 1000">
   <path fill="currentColor"
d="M265 200l-53 35q-12 -21 -32.5 -49t-43.5 -57.5t-44 -53.5l52 -28q22 24 45 52t43.5 54.5t32.5 46.5zM254 521l35 13q-9 62 -23.5 116.5t-33.5 101.5q34 54 87.5 81t127 35.5t167.5 8.5q52 0 113 -1.5t121.5 -4.5t110.5 -7q-8 11 -15 32t-9 36q-69 4 -155 6t-166 2
q-101 0 -178.5 -10t-133.5 -38.5t-95 -83.5q-52 97 -123 153q-7 -11 -21.5 -27t-25.5 -23q65 -47 112 -131.5t69 -202.5h-93q-17 0 -34 4.5t-23 9.5q-3 -13 -11.5 -33t-13.5 -31q11 -4 22 -10t24 -19q11 -12 31 -40t43 -62.5t43 -65.5h-153v-58h192l12 -6l48 21
q-19 29 -47.5 71.5t-58.5 86t-57 77.5h100z" />
</svg>
