<?xml version="1.0" standalone="no"?>
<!DOCTYPE svg PUBLIC "-//W3C//DTD SVG 1.1//EN" "http://www.w3.org/Graphics/SVG/1.1/DTD/svg11.dtd" >
<svg xmlns="http://www.w3.org/2000/svg" xmlns:xlink="http://www.w3.org/1999/xlink" version="1.1" viewBox="-10 0 1010 1000">
   <path fill="currentColor"
d="M786 57l61 18q-20 37 -43.5 74.5t-43.5 64.5l-55 -16q20 -29 43.5 -69.5t37.5 -71.5zM294 192l-56 28q-11 -28 -35 -67t-48 -71l53 -24q25 31 49.5 68.5t36.5 65.5zM370 549l56 14q-25 71 -60.5 142t-70.5 120q-8 -6 -24.5 -13t-27.5 -11q38 -50 71.5 -117.5t55.5 -134.5
zM651 431l-37 -24q32 -24 68.5 -60t61.5 -64h-213v148h120zM944 223v60h-197l47 31q-28 32 -63 63t-67 54h192v437q0 28 -8 43.5t-29 24.5q-22 7 -60 9t-94 2q-2 -14 -8.5 -31t-13.5 -30q46 2 81.5 2t46.5 -1q12 -1 16 -5t4 -14v-379h-260v454h-64v-454h-259v467h-64v-525
h177q-19 -25 -50.5 -57t-61.5 -57l44 -31q33 26 66.5 58.5t52.5 56.5l-39 30h134v-148h-412v-60h314v-178h62v178h135v-178h63v178h315zM750 782l-52 22q-13 -33 -34.5 -74.5t-46 -85.5t-48.5 -81l50 -19q25 38 50 81t46.5 84t34.5 73z" />
</svg>
