<?xml version="1.0" standalone="no"?>
<!DOCTYPE svg PUBLIC "-//W3C//DTD SVG 1.1//EN" "http://www.w3.org/Graphics/SVG/1.1/DTD/svg11.dtd" >
<svg xmlns="http://www.w3.org/2000/svg" xmlns:xlink="http://www.w3.org/1999/xlink" version="1.1" viewBox="-10 0 1010 1000">
   <path fill="currentColor"
d="M840 87l74 26q-33 55 -73.5 114t-81.5 112.5t-78 94.5l-62 -27q37 -41 77.5 -96.5t78.5 -114t65 -109.5zM81 157l59 -27q29 36 56 78.5t48.5 83.5t32.5 73l-65 32q-10 -33 -30.5 -75t-46.5 -85.5t-54 -79.5zM360 91l63 -21q23 38 45 82.5t38.5 86.5t23.5 75l-67 25
q-6 -33 -22 -76t-37 -88t-44 -84z" />
</svg>
