<?xml version="1.0" standalone="no"?>
<!DOCTYPE svg PUBLIC "-//W3C//DTD SVG 1.1//EN" "http://www.w3.org/Graphics/SVG/1.1/DTD/svg11.dtd" >
<svg xmlns="http://www.w3.org/2000/svg" xmlns:xlink="http://www.w3.org/1999/xlink" version="1.1" viewBox="-10 0 1010 1000">
   <path fill="currentColor"
d="M778 268l92 49q-21 61 -53 127.5t-70 132.5t-79 124q35 23 66 46t53 46l-83 114q-28 -30 -71 -63.5t-94.5 -66.5t-106 -63t-105.5 -54l74 -100q74 32 156 75q40 -56 75.5 -120t60.5 -123h-286q-43 85 -95.5 161.5t-114.5 135.5q-21 -16 -55 -36t-60 -31
q56 -50 104.5 -115t87.5 -137.5t68.5 -146.5t48.5 -142l133 30q-13 40 -28.5 80.5t-33.5 81.5h294z" />
</svg>
