<?xml version="1.0" standalone="no"?>
<!DOCTYPE svg PUBLIC "-//W3C//DTD SVG 1.1//EN" "http://www.w3.org/Graphics/SVG/1.1/DTD/svg11.dtd" >
<svg xmlns="http://www.w3.org/2000/svg" xmlns:xlink="http://www.w3.org/1999/xlink" version="1.1" viewBox="-10 0 1010 1000">
   <path fill="currentColor"
d="M354 376l103 -51q33 46 67.5 97.5t64.5 100.5t50 87l-109 61q-17 -39 -46.5 -90.5t-63.5 -105.5t-66 -99zM270 774l458 -14v-533h-458v547zM172 106h690v826h-134v-55q-136 6 -229.5 9t-153.5 5.5t-95 4t-54.5 4t-33.5 7.5q-7 -15 -21 -37t-29 -42.5t-25 -32.5
q17 -14 36.5 -43.5t19.5 -65.5v-578h29v-2z" />
</svg>
