<?xml version="1.0" standalone="no"?>
<!DOCTYPE svg PUBLIC "-//W3C//DTD SVG 1.1//EN" "http://www.w3.org/Graphics/SVG/1.1/DTD/svg11.dtd" >
<svg xmlns="http://www.w3.org/2000/svg" xmlns:xlink="http://www.w3.org/1999/xlink" version="1.1" viewBox="-10 0 1010 1000">
   <path fill="currentColor"
d="M911 812l-107 107q-43 -66 -110 -145.5t-147 -163.5q-79 94 -169 172.5t-189 139.5q-9 -14 -25.5 -33.5t-34.5 -39t-32 -31.5q102 -56 192.5 -132t168.5 -168q-73 -73 -148.5 -144t-145.5 -132l90 -83q66 57 139 121.5t146 132.5q53 -76 98 -159.5t82 -173.5l124 39
q-87 208 -212 382q86 82 159 162.5t121 148.5z" />
</svg>
