<?xml version="1.0" standalone="no"?>
<!DOCTYPE svg PUBLIC "-//W3C//DTD SVG 1.1//EN" "http://www.w3.org/Graphics/SVG/1.1/DTD/svg11.dtd" >
<svg xmlns="http://www.w3.org/2000/svg" xmlns:xlink="http://www.w3.org/1999/xlink" version="1.1" viewBox="-10 0 1010 1000">
   <path fill="currentColor"
d="M954 199h-553q-12 61 -27.5 126t-29.5 123h511l-1 10t-2 22.5t-2 21.5q-14 129 -29.5 213.5t-33.5 133t-41 71.5q-25 25 -50.5 34t-62.5 12q-28 2 -75.5 2t-98.5 -2q-1 -26 -13 -60t-29 -59q53 5 101 6.5t70 1.5q17 0 29.5 -2.5t22.5 -11.5q23 -18 42 -86.5t34 -198.5
h-535q15 -46 31 -106t32 -125t28 -126h-223v-108h905v108z" />
</svg>
