<?xml version="1.0" standalone="no"?>
<!DOCTYPE svg PUBLIC "-//W3C//DTD SVG 1.1//EN" "http://www.w3.org/Graphics/SVG/1.1/DTD/svg11.dtd" >
<svg xmlns="http://www.w3.org/2000/svg" xmlns:xlink="http://www.w3.org/1999/xlink" version="1.1" viewBox="-10 0 1010 1000">
   <path fill="currentColor"
d="M940 218h-520q-1 40 -3 80.5t-6 81.5h449l-0.5 10t-1 22.5t-1.5 20.5q-7 153 -16 249.5t-22 148.5t-33 74q-22 26 -47.5 36t-59.5 14q-29 4 -76.5 3.5t-97.5 -2.5q-2 -26 -13.5 -59t-28.5 -58q52 4 98.5 5t68.5 1q16 0 26.5 -2.5t20.5 -10.5q20 -19 32.5 -98t20.5 -239
h-333q-15 92 -47.5 178.5t-90.5 161t-151 130.5q-13 -24 -38 -51.5t-48 -44.5q77 -43 126.5 -99.5t78.5 -122.5t42.5 -137.5t18 -145.5t6.5 -146h-233v-117h879v117z" />
</svg>
