<?xml version="1.0" standalone="no"?>
<!DOCTYPE svg PUBLIC "-//W3C//DTD SVG 1.1//EN" "http://www.w3.org/Graphics/SVG/1.1/DTD/svg11.dtd" >
<svg xmlns="http://www.w3.org/2000/svg" xmlns:xlink="http://www.w3.org/1999/xlink" version="1.1" viewBox="-10 0 1010 1000">
   <path fill="currentColor"
d="M943 329h-277q-8 121 -33.5 222.5t-87.5 181.5q77 46 177.5 75.5t230.5 42.5q-19 20 -40 54.5t-32 59.5q-137 -17 -243 -52.5t-186 -90.5q-58 43 -139 77t-189 58q-9 -24 -29.5 -55t-40.5 -51q101 -20 175 -48.5t126 -64.5q-62 -67 -107 -154t-78 -196l113 -28
q26 91 65 164t96 129q48 -63 68 -143.5t25 -180.5h-478v-116h482v-79.5t1 -83.5h130q0 42 -0.5 82.5t-1.5 80.5h273v116z" />
</svg>
