<?xml version="1.0" standalone="no"?>
<!DOCTYPE svg PUBLIC "-//W3C//DTD SVG 1.1//EN" "http://www.w3.org/Graphics/SVG/1.1/DTD/svg11.dtd" >
<svg xmlns="http://www.w3.org/2000/svg" xmlns:xlink="http://www.w3.org/1999/xlink" version="1.1" viewBox="-10 0 1010 1000">
   <path fill="currentColor"
d="M939 211h-381v108h325v111h-325v113h371l-1 9.5t-2 22t-3 20.5q-10 98 -22 163t-28 104t-39 59q-25 25 -55.5 33.5t-75.5 10.5q-34 1 -89.5 0.5t-116.5 -2.5q-2 -26 -15.5 -58.5t-33.5 -57.5q44 3 89 5t81.5 2.5t56.5 0.5t33.5 -1.5t25.5 -8.5q37 -25 59 -187h-664v-365
h120v250h181v-332h-364v-114h873v114z" />
</svg>
