<?xml version="1.0" standalone="no"?>
<!DOCTYPE svg PUBLIC "-//W3C//DTD SVG 1.1//EN" "http://www.w3.org/Graphics/SVG/1.1/DTD/svg11.dtd" >
<svg xmlns="http://www.w3.org/2000/svg" xmlns:xlink="http://www.w3.org/1999/xlink" version="1.1" viewBox="-10 0 1010 1000">
   <path fill="currentColor"
d="M727 96l131 32q-43 167 -108 300.5t-156 236.5q75 64 170.5 111t214.5 75q-14 13 -30.5 34.5t-31 43.5t-24.5 40q-124 -33 -222.5 -85t-175.5 -122q-156 132 -381 208q-8 -15 -24 -36t-33.5 -42t-31.5 -35q230 -67 380 -191q-83 -104 -139.5 -238t-94.5 -297l123 -26
q30 139 80.5 256t126.5 210q79 -91 134 -209t92 -266z" />
</svg>
