<?xml version="1.0" standalone="no"?>
<!DOCTYPE svg PUBLIC "-//W3C//DTD SVG 1.1//EN" "http://www.w3.org/Graphics/SVG/1.1/DTD/svg11.dtd" >
<svg xmlns="http://www.w3.org/2000/svg" xmlns:xlink="http://www.w3.org/1999/xlink" version="1.1" viewBox="-10 0 1010 1000">
   <path fill="currentColor"
d="M684 442h228l-0.5 10t-0.5 22.5t-1 20.5q-5 127 -13 207.5t-19.5 125.5t-30.5 65q-22 26 -49.5 36.5t-63.5 13.5q-30 4 -79 3t-102 -2q-1 -29 -15.5 -64t-34.5 -62q56 4 106 5.5t75 1.5q17 0 28 -2.5t21 -9.5q17 -14 27 -76t17 -180h-266q24 -70 51 -163t50 -186h-260v37
q0 57 -4 128t-16.5 149.5t-38.5 158t-69 154t-108 136.5q-10 -15 -26.5 -34.5t-34.5 -37.5t-33 -28q58 -54 96 -118.5t60 -133t33 -136t14 -129t3 -110.5v-36h-143v-117h684q-19 85 -41 177.5t-44 173.5z" />
</svg>
