<?xml version="1.0" standalone="no"?>
<!DOCTYPE svg PUBLIC "-//W3C//DTD SVG 1.1//EN" "http://www.w3.org/Graphics/SVG/1.1/DTD/svg11.dtd" >
<svg xmlns="http://www.w3.org/2000/svg" xmlns:xlink="http://www.w3.org/1999/xlink" version="1.1" viewBox="-10 0 1010 1000">
   <path fill="currentColor"
d="M256 555v-110h126v113q0 50 -7 104.5t-29 108.5t-66 104.5t-118 92.5q-16 -21 -46 -47.5t-54 -41.5q66 -35 104.5 -75t58 -82.5t25.5 -85t6 -81.5zM632 967v-524h127v524h-127zM494 20l97 68q-4 7 -9 13.5t-10 13.5q45 52 109.5 98t142.5 81t163 55q-14 13 -30.5 33
t-31 41t-23.5 38q-120 -36 -223 -103.5t-180 -155.5q-55 57 -122 109t-139.5 93.5t-146.5 70.5q-12 -25 -32.5 -58t-40.5 -57q96 -29 187.5 -81t167 -119.5t121.5 -139.5z" />
</svg>
