<?xml version="1.0" standalone="no"?>
<!DOCTYPE svg PUBLIC "-//W3C//DTD SVG 1.1//EN" "http://www.w3.org/Graphics/SVG/1.1/DTD/svg11.dtd" >
<svg xmlns="http://www.w3.org/2000/svg" xmlns:xlink="http://www.w3.org/1999/xlink" version="1.1" viewBox="-10 0 1010 1000">
   <path fill="currentColor"
d="M219 753l62 -89q56 14 119.5 34.5t127.5 44t120 48t96 47.5l-68 103q-37 -23 -91.5 -48.5t-117 -51.5t-127 -49t-121.5 -39zM342 483l71 -78q47 21 100.5 50t102.5 59t80 57l-77 88q-29 -27 -76 -59t-100 -63t-101 -54zM467 31l105 45q-4 6 -7.5 12.5t-7.5 13.5
q85 112 189.5 184t230.5 125q-21 18 -41 44t-31 50q-121 -59 -219.5 -132.5t-186.5 -184.5q-78 104 -179 185.5t-216 137.5q-13 -22 -34.5 -49.5t-43.5 -46.5q91 -39 174.5 -95.5t152 -129.5t114.5 -159z" />
</svg>
