<?xml version="1.0" standalone="no"?>
<!DOCTYPE svg PUBLIC "-//W3C//DTD SVG 1.1//EN" "http://www.w3.org/Graphics/SVG/1.1/DTD/svg11.dtd" >
<svg xmlns="http://www.w3.org/2000/svg" xmlns:xlink="http://www.w3.org/1999/xlink" version="1.1" viewBox="-10 0 1010 1000">
   <path fill="currentColor"
d="M228 37l110 34q-16 45 -35 91.5t-42 90.5v713h-116v-516q-34 48 -69 87q-5 -15 -16 -38.5t-23.5 -47.5t-22.5 -38q43 -46 83 -106.5t74 -129.5t57 -140zM845 624l-164 13v212q0 38 -9.5 61t-37.5 36q-26 11 -62.5 13.5t-84.5 2.5q-4 -24 -13.5 -52.5t-20.5 -50.5
q26 1 54.5 1h36.5q18 0 18 -14v-199q-56 4 -93 8t-60 7l103 31q-28 57 -67.5 116.5t-77.5 102.5q-19 -14 -44.5 -31.5t-45.5 -27.5q24 -25 47.5 -58t44 -67.5t33.5 -64.5q-22 3 -34 5t-21 6q-2 -9 -7.5 -26t-12 -35.5t-12.5 -31.5q26 -5 53.5 -19t66.5 -38q17 -10 48 -30.5
t69 -48.5q-71 4 -109 7t-55.5 6.5t-28.5 7.5q-3 -15 -13 -45t-18 -50q17 -2 34 -11.5t38 -23.5q13 -8 39 -27t58 -46t62 -58q-48 11 -96 21t-94 19q-4 -20 -14 -47t-21 -45q80 -17 161.5 -38t155 -45.5t127.5 -49.5l80 93q-52 22 -112 41t-124 36l62 31q-76 73 -163 134
l151 -5q65 -54 124 -115l79 65q-75 71 -157.5 134t-165.5 116l228 -15q-15 -18 -30 -35.5t-29 -33.5l88 -54q28 29 58 63t56 67t41 60l-95 62q-4 -9 -10 -19t-14 -21zM729 697l96 -46q25 29 50.5 63t47.5 67t34 60l-103 53q-11 -27 -31.5 -61.5t-45 -70t-48.5 -65.5z" />
</svg>
