<?xml version="1.0" standalone="no"?>
<!DOCTYPE svg PUBLIC "-//W3C//DTD SVG 1.1//EN" "http://www.w3.org/Graphics/SVG/1.1/DTD/svg11.dtd" >
<svg xmlns="http://www.w3.org/2000/svg" xmlns:xlink="http://www.w3.org/1999/xlink" version="1.1" viewBox="-10 0 1010 1000">
   <path fill="currentColor"
d="M855 103v115h-710v-115h710zM722 839h90q17 0 25.5 -12.5t12.5 -49t6 -108.5q20 16 52.5 30t57.5 20q-6 89 -20 139.5t-43.5 71t-80.5 20.5h-120q-56 0 -87 -14.5t-43 -48.5t-12 -92v-306h-150q-7 78 -22 148.5t-46.5 131t-88 110.5t-146.5 86q-10 -23 -32 -51.5
t-42 -45.5q78 -29 125 -68.5t72.5 -88t36 -104.5t14.5 -118h-226v-116h892v116h-264v306q0 28 7 36t32 8z" />
</svg>
