<?xml version="1.0" standalone="no"?>
<!DOCTYPE svg PUBLIC "-//W3C//DTD SVG 1.1//EN" "http://www.w3.org/Graphics/SVG/1.1/DTD/svg11.dtd" >
<svg xmlns="http://www.w3.org/2000/svg" xmlns:xlink="http://www.w3.org/1999/xlink" version="1.1" viewBox="-10 0 1010 1000">
   <path fill="currentColor"
d="M201 825h754v114h-870v-862h844v114h-728v634zM862 691l-94 88q-34 -41 -86 -91t-112 -105q-123 117 -256 198q-10 -12 -26.5 -29.5t-33.5 -34.5t-31 -28q68 -35 133.5 -82t125.5 -101q-55 -48 -111 -94t-107 -86l83 -73q49 38 105 81.5t112 90.5q89 -95 153 -203l113 45
q-37 61 -82 119.5t-95 112.5q63 52 117.5 101.5t91.5 90.5z" />
</svg>
