<?xml version="1.0" standalone="no"?>
<!DOCTYPE svg PUBLIC "-//W3C//DTD SVG 1.1//EN" "http://www.w3.org/Graphics/SVG/1.1/DTD/svg11.dtd" >
<svg xmlns="http://www.w3.org/2000/svg" xmlns:xlink="http://www.w3.org/1999/xlink" version="1.1" viewBox="-10 0 1010 1000">
   <path fill="currentColor"
d="M952 877l-121 58q-7 -26 -16.5 -54.5l-20.5 -61.5q-164 13 -276.5 22t-184.5 15t-114.5 11t-66.5 9.5t-41 10.5q-3 -13 -12.5 -37.5t-21 -50.5t-21.5 -44q27 -8 50 -37t57 -78q14 -20 38.5 -62t55 -101t62 -129.5t61 -147t52.5 -152.5l141 54q-42 118 -96 230.5
t-113 214.5t-119 190l505 -32q-22 -56 -45.5 -112.5t-45.5 -107.5l110 -46q24 52 50 111t51.5 118t46.5 113t35 96z" />
</svg>
