<?xml version="1.0" standalone="no"?>
<!DOCTYPE svg PUBLIC "-//W3C//DTD SVG 1.1//EN" "http://www.w3.org/Graphics/SVG/1.1/DTD/svg11.dtd" >
<svg xmlns="http://www.w3.org/2000/svg" xmlns:xlink="http://www.w3.org/1999/xlink" version="1.1" viewBox="-10 0 1010 1000">
   <path fill="currentColor"
d="M685 573h-271q30 39 68 75t83 68q36 -30 66.5 -66t53.5 -77zM947 386h-521q-7 19 -14 39t-15 41h349l20 -4l74 40q-30 84 -75.5 151t-103.5 120q127 67 285 97q-18 18 -38.5 47.5t-32.5 52.5q-172 -41 -306 -125q-70 45 -149 76.5t-165 52.5q-6 -14 -18 -32t-26.5 -35.5
t-26.5 -28.5q80 -16 153.5 -41t136.5 -60q-84 -70 -148 -159q-40 67 -94.5 129.5t-128.5 112.5q-10 -22 -30 -47t-41 -44q79 -49 132.5 -113.5t88 -134.5t54.5 -135h-251v-108h280q5 -23 9 -42t7 -35q-58 3 -116 5t-114 3q-1 -23 -9.5 -52.5t-16.5 -49.5q95 -3 194.5 -8
t195.5 -13t182 -18t154 -23l69 100q-90 16 -197 28t-219 20q-4 19 -9 40t-11 45h492v108z" />
</svg>
