<?xml version="1.0" standalone="no"?>
<!DOCTYPE svg PUBLIC "-//W3C//DTD SVG 1.1//EN" "http://www.w3.org/Graphics/SVG/1.1/DTD/svg11.dtd" >
<svg xmlns="http://www.w3.org/2000/svg" xmlns:xlink="http://www.w3.org/1999/xlink" version="1.1" viewBox="-10 0 1010 1000">
   <path fill="currentColor"
d="M737 311h-322q-16 22 -32.5 43t-34.5 41q62 37 125.5 82t110.5 87q97 -106 153 -253zM811 187l91 42q-54 209 -162 354.5t-258.5 239t-334.5 145.5q-11 -27 -31.5 -62t-39.5 -55q119 -29 224.5 -78t191.5 -120q-43 -42 -104 -88.5t-121 -86.5q-26 24 -53 45t-54 39
q-11 -12 -30 -29.5t-39.5 -35t-36.5 -27.5q122 -70 218 -184t150 -253l129 36q-28 66 -61 124h299z" />
</svg>
