<?xml version="1.0" standalone="no"?>
<!DOCTYPE svg PUBLIC "-//W3C//DTD SVG 1.1//EN" "http://www.w3.org/Graphics/SVG/1.1/DTD/svg11.dtd" >
<svg xmlns="http://www.w3.org/2000/svg" xmlns:xlink="http://www.w3.org/1999/xlink" version="1.1" viewBox="-10 0 1010 1000">
   <path fill="currentColor"
d="M944 424h-352q50 146 142 258.5t232 169.5q-15 12 -32 32t-31.5 41.5t-24.5 38.5q-136 -64 -226 -171.5t-149 -252.5q-27 83 -74 161.5t-120.5 145.5t-179.5 118q-14 -25 -38.5 -53.5t-50.5 -47.5q115 -51 188 -121t114.5 -151.5t60.5 -167.5h-344v-123h364
q8 -71 8.5 -138.5t1.5 -128.5h130q-1 61 -2.5 129t-9.5 138h393v123z" />
</svg>
