<?xml version="1.0" standalone="no"?>
<!DOCTYPE svg PUBLIC "-//W3C//DTD SVG 1.1//EN" "http://www.w3.org/Graphics/SVG/1.1/DTD/svg11.dtd" >
<svg xmlns="http://www.w3.org/2000/svg" xmlns:xlink="http://www.w3.org/1999/xlink" version="1.1" viewBox="-10 0 1010 1000">
   <path fill="currentColor"
d="M934 522h-349q53 119 150 204t243 123q-22 19 -45.5 52t-36.5 59q-141 -45 -235.5 -131t-157.5 -209q-27 66 -76.5 129t-126.5 117.5t-190 96.5q-8 -15 -21.5 -34.5t-28.5 -38.5t-28 -30q116 -41 190 -95.5t117 -117t63 -125.5h-335v-122h360q3 -41 3 -77v-101h-327v-122
h792v122h-340v103q0 18 -0.5 36.5t-1.5 38.5h381v122z" />
</svg>
