<?xml version="1.0" standalone="no"?>
<!DOCTYPE svg PUBLIC "-//W3C//DTD SVG 1.1//EN" "http://www.w3.org/Graphics/SVG/1.1/DTD/svg11.dtd" >
<svg xmlns="http://www.w3.org/2000/svg" xmlns:xlink="http://www.w3.org/1999/xlink" version="1.1" viewBox="-10 0 1010 1000">
   <path fill="currentColor"
d="M648 46l112 75q-72 52 -162.5 97.5t-184.5 82.5t-180 64q-13 -26 -37 -59.5t-49 -58.5q62 -15 131 -36.5t137.5 -47.5t129 -55.5t103.5 -61.5zM678 301l118 68q-69 65 -157 118.5t-184 95t-190 71.5q-13 -27 -37 -60.5t-49 -58.5q67 -17 137 -40.5t137.5 -53.5t125 -65
t99.5 -75zM775 554l119 67q-80 92 -188.5 159t-235 112.5t-262.5 75.5q-11 -29 -32 -63.5t-44 -61.5q128 -22 250.5 -59.5t224.5 -94.5t168 -135z" />
</svg>
