<?xml version="1.0" standalone="no"?>
<!DOCTYPE svg PUBLIC "-//W3C//DTD SVG 1.1//EN" "http://www.w3.org/Graphics/SVG/1.1/DTD/svg11.dtd" >
<svg xmlns="http://www.w3.org/2000/svg" xmlns:xlink="http://www.w3.org/1999/xlink" version="1.1" viewBox="-10 0 1010 1000">
   <path fill="currentColor"
d="M561 49l126 54q-51 55 -116 109t-135 102t-138 84q-17 -21 -45 -49t-49 -44q67 -31 135.5 -74t127 -90.5t94.5 -91.5zM641 280l120 58q-40 49 -89.5 96t-102.5 91v442h-131v-344q-42 29 -85 54.5t-84 46.5q-10 -13 -26.5 -34t-33.5 -41.5t-30 -33.5q85 -37 170.5 -90
t161.5 -115.5t130 -129.5z" />
</svg>
