<?xml version="1.0" standalone="no"?>
<!DOCTYPE svg PUBLIC "-//W3C//DTD SVG 1.1//EN" "http://www.w3.org/Graphics/SVG/1.1/DTD/svg11.dtd" >
<svg xmlns="http://www.w3.org/2000/svg" xmlns:xlink="http://www.w3.org/1999/xlink" version="1.1" viewBox="-10 0 1010 1000">
   <path fill="currentColor"
d="M617 202l-78 97q-29 -24 -70 -56t-85 -64.5t-83 -59.5l77 -87q41 26 85.5 57t85 61t68.5 52zM130 303l113 29q-10 59 -24.5 122t-34 121t-44.5 101l-115 -43q37 -65 64.5 -153.5t40.5 -176.5zM475 837h152q26 0 39 -13t19 -50t9 -107q22 16 56.5 30t60.5 20
q-8 90 -25 142t-52 74.5t-97 22.5h-175q-61 0 -97.5 -13t-53.5 -44.5t-21 -86.5q-43 30 -90 57t-95 50q-13 -20 -36.5 -48.5t-41.5 -45.5q70 -32 135.5 -72t126.5 -86v-409h127v302q113 -107 201.5 -227.5t145.5 -240.5l120 47q-82 157 -199 306.5t-268 272.5v61
q0 38 10.5 48t48.5 10zM716 421l107 -51q32 47 61.5 100.5t53.5 105t36 92.5l-114 58q-11 -42 -34 -95t-51.5 -108t-58.5 -102z" />
</svg>
