<?xml version="1.0" standalone="no"?>
<!DOCTYPE svg PUBLIC "-//W3C//DTD SVG 1.1//EN" "http://www.w3.org/Graphics/SVG/1.1/DTD/svg11.dtd" >
<svg xmlns="http://www.w3.org/2000/svg" xmlns:xlink="http://www.w3.org/1999/xlink" version="1.1" viewBox="-10 0 1010 1000">
   <path fill="currentColor"
d="M764 371l121 55q-56 86 -127.5 159.5t-154.5 135.5q37 52 80.5 81.5t92.5 29.5q20 0 33 -16t21.5 -55.5t14.5 -108.5q23 22 55 40t60 26q-13 99 -35 151.5t-58 72t-92 19.5q-89 0 -159 -44.5t-123 -121.5q-80 49 -166.5 87.5t-175.5 69.5q-8 -16 -23 -37.5t-30.5 -43
t-28.5 -34.5q98 -27 189.5 -65t172.5 -87q-29 -65 -50.5 -141.5t-35.5 -158.5l-281 23l-11 -118l276 -22q-7 -57 -10 -115.5t-4 -116.5h134q-1 57 2 112.5t9 108.5l264 -21q-22 -19 -53 -40.5t-64 -43t-61 -39.5l81 -78q31 16 67.5 38t70.5 44t56 40l-73 77l191 -16l11 114
l-473 41q12 67 28.5 126.5t37.5 110.5q67 -51 122.5 -111t98.5 -128z" />
</svg>
