<?xml version="1.0" standalone="no"?>
<!DOCTYPE svg PUBLIC "-//W3C//DTD SVG 1.1//EN" "http://www.w3.org/Graphics/SVG/1.1/DTD/svg11.dtd" >
<svg xmlns="http://www.w3.org/2000/svg" xmlns:xlink="http://www.w3.org/1999/xlink" version="1.1" viewBox="-10 0 1010 1000">
   <path fill="currentColor"
d="M502 451l11 114q-38 10 -78 19t-79 19v209q0 49 -11.5 75t-40.5 41q-28 14 -71.5 18t-103.5 4q-4 -26 -15 -60t-23 -59q35 1 69 1.5t46 0.5t17 -4.5t5 -17.5v-177l-135 33l-29 -126q34 -6 76 -14.5t88 -17.5v-180h-151v-118h151v-188h128v188h153v118h-153v153
q37 -8 73.5 -15.5t72.5 -15.5z" />
</svg>
