<?xml version="1.0" standalone="no"?>
<!DOCTYPE svg PUBLIC "-//W3C//DTD SVG 1.1//EN" "http://www.w3.org/Graphics/SVG/1.1/DTD/svg11.dtd" >
<svg xmlns="http://www.w3.org/2000/svg" xmlns:xlink="http://www.w3.org/1999/xlink" version="1.1" viewBox="-10 0 1010 1000">
   <path fill="currentColor"
d="M778 301h-489q-30 67 -65 125.5t-73 103.5q-12 -11 -32.5 -25.5t-42.5 -29t-38 -22.5q49 -49 89 -117.5t71 -149t51 -164.5l129 26q-9 34 -19.5 68t-21.5 67h490l22 -5l94 31q-27 88 -64 175t-76 151l-107 -46q21 -37 42.5 -86.5t39.5 -101.5zM557 357v75q0 13 -0.5 28
t-1.5 31q47 142 147.5 237t271.5 130q-20 19 -42.5 52t-34.5 58q-142 -38 -234.5 -115t-151.5 -193q-26 57 -75 113.5t-128.5 106.5t-197.5 88q-10 -21 -34 -50t-44 -47q110 -34 182.5 -77t116.5 -91t66 -97t29 -94.5t7 -83.5v-71h124z" />
</svg>
