<?xml version="1.0" standalone="no"?>
<!DOCTYPE svg PUBLIC "-//W3C//DTD SVG 1.1//EN" "http://www.w3.org/Graphics/SVG/1.1/DTD/svg11.dtd" >
<svg xmlns="http://www.w3.org/2000/svg" xmlns:xlink="http://www.w3.org/1999/xlink" version="1.1" viewBox="-10 0 1010 1000">
   <path fill="currentColor"
d="M422 774l108 -19l8 117q-84 16 -170 32t-166 30.5t-146 27.5l-19 -126q17 -2 35.5 -5t37.5 -6v-585h116v567l73 -12v-761h123v295h115v114h-115v331zM733 831h90q16 0 24.5 -14t12.5 -50t6 -101q22 16 54 31t57 21q-6 82 -20.5 132.5t-43.5 73.5t-79 23h-121
q-55 0 -85.5 -16t-43 -55.5t-12.5 -109.5v-732h124v335q46 -29 89 -60.5t74 -59.5l95 98q-58 39 -125 76t-133 68v277q0 41 6.5 52t30.5 11z" />
</svg>
