<?xml version="1.0" standalone="no"?>
<!DOCTYPE svg PUBLIC "-//W3C//DTD SVG 1.1//EN" "http://www.w3.org/Graphics/SVG/1.1/DTD/svg11.dtd" >
<svg xmlns="http://www.w3.org/2000/svg" xmlns:xlink="http://www.w3.org/1999/xlink" version="1.1" viewBox="-10 0 1010 1000">
   <path fill="currentColor"
d="M899 357l-88 95q-55 -36 -129.5 -73t-157.5 -74q-93 44 -194 78t-205 58q-10 -23 -29 -54.5t-34 -51.5q80 -16 159.5 -38.5t152.5 -50.5q-64 -24 -128 -45t-125 -37l89 -85q74 19 153 45.5t157 56.5q132 -68 207 -147l116 63q-40 38 -87.5 72.5t-100.5 66.5
q70 31 132 61.5t112 59.5zM680 420l124 43q-39 76 -89 138.5t-110 114.5q154 93 368 132q-21 21 -44 56t-36 61q-232 -51 -396 -168q-85 54 -183 93.5t-208 67.5q-7 -15 -20 -36t-27 -42t-26 -34q104 -22 196 -53.5t170 -77.5q-55 -53 -101.5 -116t-84.5 -136l110 -39
q32 63 77 118.5t103 102.5q56 -46 101 -102t76 -123z" />
</svg>
