<?xml version="1.0" standalone="no"?>
<!DOCTYPE svg PUBLIC "-//W3C//DTD SVG 1.1//EN" "http://www.w3.org/Graphics/SVG/1.1/DTD/svg11.dtd" >
<svg xmlns="http://www.w3.org/2000/svg" xmlns:xlink="http://www.w3.org/1999/xlink" version="1.1" viewBox="-10 0 1010 1000">
   <path fill="currentColor"
d="M229 655l122 42q-27 42 -63.5 86t-74 83.5t-71.5 68.5q-13 -11 -32.5 -25t-39.5 -27.5t-36 -21.5q54 -38 107.5 -94t87.5 -112zM798 583l-219 15v234q0 46 -11.5 72t-46.5 40q-32 15 -75.5 18t-97.5 3q-4 -27 -18.5 -62.5t-27.5 -60.5q38 2 76.5 2.5t51.5 0.5
q13 -1 17 -4t4 -12v-222q-86 6 -140.5 10.5t-87.5 8.5t-52 8t-33 9q-3 -13 -10 -35t-15.5 -46t-15.5 -40q32 -5 63 -20t79 -41q21 -11 56.5 -31.5t80.5 -49.5q-77 5 -118.5 8.5t-61 7.5t-31.5 9q-3 -13 -9.5 -34.5t-14.5 -44.5t-15 -39q19 -5 37 -16.5t40 -29.5
q16 -12 49.5 -43t73 -74t71.5 -89l121 59q-43 50 -92.5 98t-100.5 89l200 -9q39 -30 77 -62.5t72 -66.5l110 81q-91 82 -191.5 151.5t-201.5 125.5l329 -17q-33 -40 -67 -76l100 -52q35 35 73.5 78t72 84.5t53.5 75.5l-108 60q-9 -16 -20.5 -34t-25.5 -37zM637 711l101 -59
q37 32 78.5 70t78.5 76t59 70l-109 66q-20 -30 -54.5 -69.5t-75 -80t-78.5 -73.5z" />
</svg>
