<?xml version="1.0" standalone="no"?>
<!DOCTYPE svg PUBLIC "-//W3C//DTD SVG 1.1//EN" "http://www.w3.org/Graphics/SVG/1.1/DTD/svg11.dtd" >
<svg xmlns="http://www.w3.org/2000/svg" xmlns:xlink="http://www.w3.org/1999/xlink" version="1.1" viewBox="-10 0 1010 1000">
   <path fill="currentColor"
d="M811 550h-295q47 73 113 130q44 -26 95.5 -62t86.5 -68zM280 359v78h434v-78h-434zM714 192h-434v71h434v-71zM815 550l73 82q-40 29 -85.5 58t-88.5 53q57 36 125 62.5t145 43.5q-21 19 -44.5 52.5t-37.5 58.5q-185 -48 -312.5 -151.5t-207.5 -258.5h-102v262l214 -49
q2 25 6.5 56.5t9.5 51.5q-102 26 -165.5 43.5t-99.5 28.5t-54 18.5t-29 14.5q-6 -20 -21 -46.5t-29 -39.5q16 -10 30 -30.5t14 -57.5v-723h684v471h-25z" />
</svg>
