<?xml version="1.0" standalone="no"?>
<!DOCTYPE svg PUBLIC "-//W3C//DTD SVG 1.1//EN" "http://www.w3.org/Graphics/SVG/1.1/DTD/svg11.dtd" >
<svg xmlns="http://www.w3.org/2000/svg" xmlns:xlink="http://www.w3.org/1999/xlink" version="1.1" viewBox="-10 0 1010 1000">
   <path fill="currentColor"
d="M290 185l-95 62q-12 -22 -31.5 -50.5t-42 -58.5t-43.5 -55l92 -52q32 37 66.5 80t53.5 74zM250 504l62 22q-8 56 -19.5 106t-27.5 95q31 48 77.5 71.5t110 31t142.5 7.5q53 0 120.5 -2t136.5 -6t126 -9q-13 19 -25 55.5t-17 63.5q-76 4 -166.5 6.5t-176.5 2.5
q-90 0 -159.5 -9t-122 -34.5t-91.5 -74.5q-25 47 -55.5 83t-65.5 62q-8 -13 -23 -30t-31 -32.5t-29 -23.5q128 -87 172 -290h-61q-16 0 -34.5 4.5t-24.5 10.5q-3 -14 -10.5 -33.5t-15.5 -38.5t-14 -30q13 -4 25.5 -11t25.5 -22q12 -13 35.5 -47.5t46.5 -73.5h-118v-99h186
l17 -7l79 31q-18 28 -42.5 67.5t-51 80.5t-51.5 76h51z" />
</svg>
