<?xml version="1.0" standalone="no"?>
<!DOCTYPE svg PUBLIC "-//W3C//DTD SVG 1.1//EN" "http://www.w3.org/Graphics/SVG/1.1/DTD/svg11.dtd" >
<svg xmlns="http://www.w3.org/2000/svg" xmlns:xlink="http://www.w3.org/1999/xlink" version="1.1" viewBox="-10 0 1010 1000">
   <path fill="currentColor"
d="M796 73l138 46q-35 64 -75.5 127t-80.5 119t-77 99l-122 -47q37 -43 77.5 -101.5t77 -121.5t62.5 -121zM62 157l110 -45q28 38 55 82t48 87t31 78l-119 53q-9 -35 -28 -79t-44 -90t-53 -86zM345 94l113 -39q22 39 43.5 83.5t38 87.5t24.5 78l-123 44q-6 -34 -21 -77.5
t-34.5 -89.5t-40.5 -87z" />
</svg>
