<?xml version="1.0" standalone="no"?>
<!DOCTYPE svg PUBLIC "-//W3C//DTD SVG 1.1//EN" "http://www.w3.org/Graphics/SVG/1.1/DTD/svg11.dtd" >
<svg xmlns="http://www.w3.org/2000/svg" xmlns:xlink="http://www.w3.org/1999/xlink" version="1.1" viewBox="-10 0 1010 1000">
   <path fill="currentColor"
d="M357 167l6 -17q39 -2 71.5 0.5t60.5 16.5q18 9 38 25t34.5 32.5t14.5 29.5q0 19 -16.5 29.5t-28.5 27.5q-27 39 -64 90q14 0 38.5 -2t51.5 -4.5t50 -5.5t35 -5q22 -5 36 -19.5t29 -14.5t37 14t43 34t35.5 40.5t14.5 34.5t-13.5 24t-30.5 17.5t-28 16.5q-43 40 -89.5 85
t-100.5 92q24 16 42 32t31 30q17 18 31.5 42.5t14.5 46.5q0 26 -14 47.5t-48 21.5q-31 0 -45.5 -16.5t-29.5 -44.5q-28 -51 -59 -90.5t-70 -76t-91 -76.5l12 -16q53 13 97.5 31t79.5 38q46 -58 80.5 -111.5t57.5 -97.5q9 -19 -12 -19q-17 1 -45 4t-54.5 6.5t-41.5 6.5
q-16 3 -26 7t-21 4q-7 0 -16.5 -7.5t-20.5 -17.5q-30 38 -64 76q-51 55 -114.5 116t-143.5 108l-16 -17q59 -63 110 -126.5t93 -123.5q27 -40 52.5 -84.5t45.5 -85.5t31 -70q4 -11 3 -20t-12 -19q-11 -12 -27 -21t-34 -18z" />
</svg>
