<?xml version="1.0" standalone="no"?>
<!DOCTYPE svg PUBLIC "-//W3C//DTD SVG 1.1//EN" "http://www.w3.org/Graphics/SVG/1.1/DTD/svg11.dtd" >
<svg xmlns="http://www.w3.org/2000/svg" xmlns:xlink="http://www.w3.org/1999/xlink" version="1.1" viewBox="-10 0 1012 1000">
   <path fill="currentColor"
d="M291 518l22 9q-9 27 -22 63.5t-24 70t-17 51.5q-6 30 -9 47.5t-3 28.5q0 27 9.5 52.5t9.5 48.5q0 56 -51 56q-18 0 -35.5 -12.5t-31.5 -32.5q-28 -38 -45 -101t-17 -148q0 -46 7.5 -97.5t18 -97.5t18.5 -76q10 -37 16.5 -68.5t6.5 -65.5q0 -35 -16 -65.5t-36 -53.5
l10 -11q25 6 42.5 13t36.5 20q15 9 35 30t35.5 47.5t15.5 53.5q0 21 -11 40t-28 54q-18 33 -36 76.5t-30 92.5t-12 99q0 48 11 70q5 11 12 11.5t14 -10.5q9 -14 22.5 -38.5t28.5 -53.5t29 -56.5t24 -46.5zM641 731v-2q-48 -13 -105 -13q-28 0 -53.5 7.5t-41.5 22.5t-16 36
q0 28 28 40.5t63 12.5q76 0 100.5 -26t24.5 -78zM534 170l-3 -15q20 -14 45 -27t45 -13q34 0 63.5 10t48 24.5t18.5 29.5q0 18 -6 29.5t-11 38.5q-4 23 -9 67q52 -17 74.5 -28t26.5 -11q27 0 52 12.5t25 35.5q0 25 -14 35t-49 24q-16 6 -48 14.5t-72 16.5q-1 10 -1 20v20
q0 64 4 116.5t8 95.5q62 16 102.5 42.5t65.5 51.5q34 32 34 66q0 25 -12.5 39t-32.5 14q-17 0 -31.5 -12t-39.5 -35q-38 -35 -77 -59v6q0 71 -46.5 108t-147.5 37q-45 0 -83.5 -15.5t-62.5 -45t-24 -72.5q0 -50 30 -81t79.5 -46t106.5 -15q12 0 23.5 0.5t22.5 1.5
q-2 -44 -4.5 -97t-3.5 -102v-24q-48 6 -94 6q-32 0 -60.5 -6.5t-54 -32t-50.5 -80.5l12 -11q37 25 70.5 35.5t64.5 10.5q32 0 59.5 -3t52.5 -7l1 -100q0 -32 -6 -40t-19 -12q-16 -7 -35 -10.5t-37 -6.5zM881 207q29 0 49.5 -20.5t20.5 -50.5q0 -29 -20.5 -49.5t-49.5 -20.5
q-30 0 -50.5 20.5t-20.5 49.5q0 30 20.5 50.5t50.5 20.5zM881 25q46 0 78.5 32t32.5 79q0 31 -15 56.5t-40 40.5t-56 15q-46 0 -79 -33t-33 -79q0 -47 33 -79t79 -32z" />
</svg>
