<?xml version="1.0" standalone="no"?>
<!DOCTYPE svg PUBLIC "-//W3C//DTD SVG 1.1//EN" "http://www.w3.org/Graphics/SVG/1.1/DTD/svg11.dtd" >
<svg xmlns="http://www.w3.org/2000/svg" xmlns:xlink="http://www.w3.org/1999/xlink" version="1.1" viewBox="-10 0 1010 1000">
   <path fill="currentColor"
d="M477 480q30 17 58.5 43.5t43 59.5t-0.5 71q-12 33 -29 24.5t-32 -48.5q-14 -41 -41 -76t-48 -57q-28 -31 -16 -39t65 22zM369 355l-3 25q-3 25 -5 72t-3.5 104.5t-2 114t-0.5 99.5q0 25 1 36.5t8.5 13.5t24.5 1q25 -2 69 -5.5t92 -5.5t85 0q2 -12 4 -25.5t3 -29.5
q3 -37 4.5 -89t2 -105t0.5 -94.5v-57.5q-1 -35 -3.5 -50t-13 -19.5t-36.5 -7.5q-19 -2 -59.5 -0.5t-86 7t-81.5 16.5zM733 301q10 11 10 18t-14 24q-7 9 -10.5 40t-5 71.5t-2 79t-1.5 61.5q0 21 -0.5 58t-1 80.5t-1.5 86t-3 75.5q-2 43 -24.5 44.5t-45.5 -47.5q-2 -5 -3 -10
t-2 -11q-22 -1 -62 -1t-84 2t-79 6.5t-47 13.5q-23 16 -34.5 20.5t-18.5 -5t-19 -34.5q-8 -18 -9 -28.5t3 -25.5t10 -45q8 -41 6.5 -111.5t-2.5 -176.5q0 -31 -1.5 -70t-7 -71.5t-17.5 -42.5q-19 -20 -16.5 -30.5t18.5 -8.5q33 3 77 25q6 3 9 6q30 -6 70 -9.5t79.5 -5.5
t69 -4t36.5 -5q24 -10 36 -13t20 -1.5t19 7.5q11 7 23 16t25 22z" />
</svg>
