<?xml version="1.0" standalone="no"?>
<!DOCTYPE svg PUBLIC "-//W3C//DTD SVG 1.1//EN" "http://www.w3.org/Graphics/SVG/1.1/DTD/svg11.dtd" >
<svg xmlns="http://www.w3.org/2000/svg" xmlns:xlink="http://www.w3.org/1999/xlink" version="1.1" viewBox="-10 0 1010 1000">
   <path fill="currentColor"
d="M729 828q1 40 -9.5 54t-26.5 14q-25 1 -36 -17.5t-28 -54.5q-17 -34 -48 -82.5t-69 -101.5q-61 76 -139 144t-170 100q-49 16 -49.5 1.5t36.5 -39.5q77 -53 148 -124.5t127 -144.5q-47 -59 -97.5 -114.5t-97.5 -93.5q-20 -16 -21 -30t13 -18t37 11q44 27 98.5 77
t109.5 109q53 -78 80 -143t19 -96q-11 -46 6.5 -53.5t69.5 32.5q39 30 43 52t-20 39q-4 3 -22.5 35.5t-49 83t-72.5 108.5q46 52 83.5 101.5t60.5 89t24 61.5z" />
</svg>
