<?xml version="1.0" standalone="no"?>
<!DOCTYPE svg PUBLIC "-//W3C//DTD SVG 1.1//EN" "http://www.w3.org/Graphics/SVG/1.1/DTD/svg11.dtd" >
<svg xmlns="http://www.w3.org/2000/svg" xmlns:xlink="http://www.w3.org/1999/xlink" version="1.1" viewBox="-10 0 1010 1000">
   <path fill="currentColor"
d="M803 130l63 -86l20 16t47 39t48 44q-4 16 -28 16h-518q-11 35 -26.5 83.5t-32.5 98.5t-31 90h372l70 -67l113 99q-12 15 -43 19q-13 107 -32.5 197.5t-46 153t-61.5 88.5q-31 24 -69.5 34.5t-103.5 10.5q0 -27 -6.5 -49.5t-25.5 -36.5q-19 -17 -61.5 -31t-91.5 -23l1 -11
q38 3 84 6.5t85 5.5t54 2q29 0 46 -13q20 -15 38 -66.5t33.5 -127.5t25.5 -163h-391v1h8l-47 54l-119 -71q14 -14 38 -25q15 -38 31 -86t30 -94.5t22 -78.5h-246l-9 -29h760z" />
</svg>
