<?xml version="1.0" standalone="no"?>
<!DOCTYPE svg PUBLIC "-//W3C//DTD SVG 1.1//EN" "http://www.w3.org/Graphics/SVG/1.1/DTD/svg11.dtd" >
<svg xmlns="http://www.w3.org/2000/svg" xmlns:xlink="http://www.w3.org/1999/xlink" version="1.1" viewBox="-10 0 1010 1000">
   <path fill="currentColor"
d="M773 147l68 -87l12.5 9.5t32 25t41 33t39.5 32.5q-4 16 -29 16h-465q-1 54 -4 107.5t-10 106.5h225l64 -62l107 93q-6 6 -16 11t-27 7q-13 193 -39 311.5t-71 156.5q-28 23 -62.5 34t-87.5 11q0 -26 -5 -47t-19 -34q-15 -14 -48 -26t-71 -19l1 -14q28 3 62 5.5t63.5 4
t42.5 1.5q25 0 41 -11q18 -15 32 -68t25 -136t18 -189h-239q-12 79 -37.5 154t-72 144.5t-119.5 133t-180 118.5l-11 -15q89 -71 146.5 -146.5t89.5 -153.5t47 -158t18.5 -160.5t4.5 -159.5h-293l-8 -29h734z" />
</svg>
