<?xml version="1.0" standalone="no"?>
<!DOCTYPE svg PUBLIC "-//W3C//DTD SVG 1.1//EN" "http://www.w3.org/Graphics/SVG/1.1/DTD/svg11.dtd" >
<svg xmlns="http://www.w3.org/2000/svg" xmlns:xlink="http://www.w3.org/1999/xlink" version="1.1" viewBox="-10 0 1010 1000">
   <path fill="currentColor"
d="M939 288h-265q-3 88 -13.5 166t-36 144.5t-73.5 123.5q90 49 197.5 79t225.5 47l-2 12q-42 7 -71 35t-42 71q-114 -27 -210 -68.5t-173 -103.5q-70 55 -176.5 98t-260.5 77l-8 -16q139 -47 231.5 -101t150.5 -117q-66 -71 -113.5 -166t-73.5 -220l14 -9q32 108 89 188.5
t135 138.5q49 -79 66 -173t20 -206h-500l-8 -29h508q1 -53 0.5 -109t-0.5 -117l164 15q-1 11 -9.5 19t-27.5 10q-1 49 -1 93.5t-2 88.5h96l70 -90l13 10t33 26t42 33.5t40 33.5q-4 16 -29 16z" />
</svg>
