<?xml version="1.0" standalone="no"?>
<!DOCTYPE svg PUBLIC "-//W3C//DTD SVG 1.1//EN" "http://www.w3.org/Graphics/SVG/1.1/DTD/svg11.dtd" >
<svg xmlns="http://www.w3.org/2000/svg" xmlns:xlink="http://www.w3.org/1999/xlink" version="1.1" viewBox="-10 0 1010 1000">
   <path fill="currentColor"
d="M432 329l165 15q-1 10 -9 18t-28 11v562q0 5 -16 14t-40 15.5t-49 6.5h-23v-642zM517 114q-30 59 -77.5 121.5t-110 122.5t-137.5 110t-159 84l-6 -11q66 -47 125.5 -108t108.5 -129.5t85.5 -138.5t56.5 -136l178 49q-3 10 -13 16t-36 9q47 65 115.5 122.5t152 102.5
t176.5 75l-2 15q-37 14 -58 47t-31 68q-128 -68 -221 -175.5t-147 -243.5z" />
</svg>
