<?xml version="1.0" standalone="no"?>
<!DOCTYPE svg PUBLIC "-//W3C//DTD SVG 1.1//EN" "http://www.w3.org/Graphics/SVG/1.1/DTD/svg11.dtd" >
<svg xmlns="http://www.w3.org/2000/svg" xmlns:xlink="http://www.w3.org/1999/xlink" version="1.1" viewBox="-10 0 1010 1000">
   <path fill="currentColor"
d="M851 341l109 95q-11 14 -43 18q-10 202 -32.5 318t-66.5 154q-28 23 -62.5 34t-87.5 11q1 -28 -4.5 -49t-19.5 -33q-15 -15 -46 -27t-70 -20l1 -12q27 2 60 4t61 3.5t40 1.5q26 0 39 -11q17 -14 30 -66.5t22 -136t15 -191.5h-125l-45 51l-112 -70q8 -7 18.5 -13t21.5 -11
q13 -34 27 -77.5t26.5 -87t20.5 -76.5h-213q-2 96 -8 188t-25.5 178.5t-59 166.5t-108 151.5t-174.5 133.5l-12 -15q97 -89 150 -185t76 -198t28 -207.5t5 -212.5h-202l-9 -29h547l58 -56l112 104q-13 13 -47 16q-9 30 -22 69t-26 78.5t-24 72.5h112z" />
</svg>
