<?xml version="1.0" standalone="no"?>
<!DOCTYPE svg PUBLIC "-//W3C//DTD SVG 1.1//EN" "http://www.w3.org/Graphics/SVG/1.1/DTD/svg11.dtd" >
<svg xmlns="http://www.w3.org/2000/svg" xmlns:xlink="http://www.w3.org/1999/xlink" version="1.1" viewBox="-10 0 1010 1000">
   <path fill="currentColor"
d="M611 139l115 107q-6 9 -15 12.5t-29 5.5q-8 37 -18.5 72.5t-22.5 70.5q16 91 55 172t109 146.5t179 111.5v12q-45 9 -71 37.5t-34 81.5q-64 -42 -108 -100t-73 -127t-45.5 -143.5t-25.5 -149.5q-45 117 -120 218t-191 179t-286 126l-8 -12q157 -73 263.5 -182t171.5 -246
t94 -293h-179q-58 127 -138.5 216.5t-182.5 151.5l-10 -9q58 -66 108.5 -155t88.5 -194t57 -219l171 46q-3 9 -13 15t-27 5q-19 60 -42 114h159z" />
</svg>
