<?xml version="1.0" standalone="no"?>
<!DOCTYPE svg PUBLIC "-//W3C//DTD SVG 1.1//EN" "http://www.w3.org/Graphics/SVG/1.1/DTD/svg11.dtd" >
<svg xmlns="http://www.w3.org/2000/svg" xmlns:xlink="http://www.w3.org/1999/xlink" version="1.1" viewBox="-10 0 1010 1000">
   <path fill="currentColor"
d="M386 23l170 76q-4 9 -14.5 14t-29.5 2q-91 166 -207.5 280t-255.5 188l-10 -9q63 -62 128.5 -149t122.5 -190.5t96 -211.5zM628 588l11 -6q103 42 166 92t93.5 99t35.5 90.5t-10 68t-43 30.5t-62 -22q-7 -33 -20.5 -68t-30.5 -70q-98 23 -238 52t-313 60q-16 19 -36 25
l-45 -153l19 -5t31 -14q35 -26 77.5 -71t86.5 -100.5t84.5 -115.5t72 -116.5t49.5 -102.5l165 87q-4 8 -15 13.5t-29 2.5q-33 48 -83 104.5t-110 115t-123.5 112t-123.5 95.5q61 -1 143 -3.5t177 -6t196 -7.5q-27 -51 -60 -98.5t-65 -87.5z" />
</svg>
