<?xml version="1.0" standalone="no"?>
<!DOCTYPE svg PUBLIC "-//W3C//DTD SVG 1.1//EN" "http://www.w3.org/Graphics/SVG/1.1/DTD/svg11.dtd" >
<svg xmlns="http://www.w3.org/2000/svg" xmlns:xlink="http://www.w3.org/1999/xlink" version="1.1" viewBox="-10 0 1010 1000">
   <path fill="currentColor"
d="M778 225l66 -86l20.5 16t48.5 39t50 44q-1 8 -9.5 12t-19.5 4h-414v186h178l63 -80l19 15.5t45.5 36.5t47.5 40q-4 16 -28 16h-325v189h216l66 -87l12 9.5t31 25t39.5 32.5t37.5 32q-4 16 -28 16h-374v252q0 6 -26.5 19.5t-73.5 13.5h-22v-716h-91q-114 188 -273 300
l-10 -9q45 -62 90.5 -145.5t84.5 -179t65 -192.5l162 57q-4 9 -13.5 14t-27.5 4q-14 32 -29 62.5t-32 59.5h454z" />
</svg>
