<?xml version="1.0" standalone="no"?>
<!DOCTYPE svg PUBLIC "-//W3C//DTD SVG 1.1//EN" "http://www.w3.org/Graphics/SVG/1.1/DTD/svg11.dtd" >
<svg xmlns="http://www.w3.org/2000/svg" xmlns:xlink="http://www.w3.org/1999/xlink" version="1.1" viewBox="-10 0 1010 1000">
   <path fill="currentColor"
d="M777 528l72 -90l13 10t33.5 25.5t43 33t40.5 33.5q-2 8 -10 12t-19 4h-388v265q0 41 -12 73t-49 52.5t-112 25.5q-2 -30 -9 -52t-22 -36q-16 -14 -39.5 -24.5t-73.5 -18.5v-13l21.5 1.5t51.5 3t57 3t38 1.5q24 0 24 -22v-259h-404l-8 -28h412v-353q-91 7 -183 9.5
t-181 1.5l-1 -17q91 -9 189.5 -25t193.5 -36t176.5 -42t139.5 -44l113 110q-9 7 -25.5 7.5t-41.5 -9.5q-55 10 -119.5 18.5t-135.5 15.5v364h215zM137 238l10 -5q77 27 122 61.5t64.5 70t18.5 66t-16 50t-39 21.5t-52 -20q-6 -42 -23.5 -85t-39.5 -84t-45 -75zM631 507
l-12 -8q20 -35 42 -82t42.5 -100.5t37.5 -105.5l148 63q-4 8 -14 13t-27 4q-48 64 -104.5 120t-112.5 96z" />
</svg>
