<?xml version="1.0" standalone="no"?>
<!DOCTYPE svg PUBLIC "-//W3C//DTD SVG 1.1//EN" "http://www.w3.org/Graphics/SVG/1.1/DTD/svg11.dtd" >
<svg xmlns="http://www.w3.org/2000/svg" xmlns:xlink="http://www.w3.org/1999/xlink" version="1.1" viewBox="-10 0 1010 1000">
   <path fill="currentColor"
d="M904 599l-3 183q38 14 50.5 23t12.5 28q0 49 -75.5 67.5t-248.5 18.5h-220q-171 0 -250.5 -40.5t-89.5 -120.5q-6 -47 24.5 -99t100.5 -119t180 -157.5t262 -213.5h-534l-9 -28h565l59 -60l119 114q-18 15 -68 18q-158 118 -268 206.5t-177.5 151.5t-96.5 104.5t-25 66.5
q7 37 56 49t140 12h243q64 0 97 -2.5t47.5 -7.5t20.5 -11q22 -22 40.5 -67.5t37.5 -116.5z" />
</svg>
