<?xml version="1.0" standalone="no"?>
<!DOCTYPE svg PUBLIC "-//W3C//DTD SVG 1.1//EN" "http://www.w3.org/Graphics/SVG/1.1/DTD/svg11.dtd" >
<svg xmlns="http://www.w3.org/2000/svg" xmlns:xlink="http://www.w3.org/1999/xlink" version="1.1" viewBox="-10 0 1010 1000">
   <path fill="currentColor"
d="M898 695l4 106q36 11 50.5 23.5t14.5 29.5q0 25 -15 41t-53.5 25t-107 12.5t-176.5 3.5l-175 -1q-76 0 -124 -9.5t-71 -38.5t-23 -88v-396l-170 45l-17 -25l187 -51v-314l161 17q-1 10 -8.5 17.5t-27.5 10.5v235l386 -104l65 -67l112 115q-11 12 -42 15q-18 58 -46 127
t-64 136t-78 119l-8 -7q16 -63 28.5 -135t21 -143.5t11.5 -130.5l-386 105v401q0 31 20 42t72 11h187q47 0 86 -1.5t59 -2.5q16 -2 28.5 -5t22.5 -10q12 -12 29 -38t37 -70h10z" />
</svg>
