<?xml version="1.0" standalone="no"?>
<!DOCTYPE svg PUBLIC "-//W3C//DTD SVG 1.1//EN" "http://www.w3.org/Graphics/SVG/1.1/DTD/svg11.dtd" >
<svg xmlns="http://www.w3.org/2000/svg" xmlns:xlink="http://www.w3.org/1999/xlink" version="1.1" viewBox="-10 0 1010 1000">
   <path fill="currentColor"
d="M811 57l115 103q-7 7 -16.5 9t-26.5 4q-60 40 -138 84.5t-157 80.5l10 1q-2 11 -10 17.5t-25 9.5v455q0 42 -12 72.5t-50 48.5t-116 25q-4 -29 -10.5 -50t-23.5 -35q-17 -15 -43.5 -25.5t-79.5 -18.5v-13l16 1t41 2.5t51.5 3t47.5 2.5t30 1q14 0 19.5 -5.5t5.5 -16.5
v-488l104 9q50 -41 100 -91t85 -90h-616l-9 -29h637z" />
</svg>
