<?xml version="1.0" standalone="no"?>
<!DOCTYPE svg PUBLIC "-//W3C//DTD SVG 1.1//EN" "http://www.w3.org/Graphics/SVG/1.1/DTD/svg11.dtd" >
<svg xmlns="http://www.w3.org/2000/svg" xmlns:xlink="http://www.w3.org/1999/xlink" version="1.1" viewBox="-10 0 1010 1000">
   <path fill="currentColor"
d="M840 159h-695l-8 -28h531l72 -91l13 10t33.5 26t42.5 33.5t40 33.5q-2 8 -10 12t-19 4zM765 406l73 -93l13.5 10.5t34 26.5t43 34.5t40.5 34.5q-4 16 -29 16h-482l131 70q-4 7 -13.5 11t-24.5 3q-36 45 -92.5 98t-121 104t-126.5 89q62 -1 148 -3t187 -5t208 -7
q-32 -61 -72 -118.5t-79 -103.5l11 -6q108 44 175.5 96.5t101 104t39.5 95.5t-8.5 72t-43 32.5t-63.5 -21.5q-7 -30 -19 -61t-27 -62q-103 22 -248.5 49.5t-324.5 56.5q-14 17 -33 22l-44 -150l16.5 -4t25.5 -11q33 -22 71 -63.5t75.5 -92t68 -102t48.5 -93.5h-381l-8 -29
h730z" />
</svg>
