<?xml version="1.0" standalone="no"?>
<!DOCTYPE svg PUBLIC "-//W3C//DTD SVG 1.1//EN" "http://www.w3.org/Graphics/SVG/1.1/DTD/svg11.dtd" >
<svg xmlns="http://www.w3.org/2000/svg" xmlns:xlink="http://www.w3.org/1999/xlink" version="1.1" viewBox="-10 0 1010 1000">
   <path fill="currentColor"
d="M639 488h-184q-23 107 -46.5 210.5t-43.5 180.5h274v-391zM792 879l67 -98l12 11t30.5 28t38.5 36t36 35q-4 16 -29 16h-910l-8 -28h213q20 -78 44 -181.5t46 -209.5h-186l-9 -28h201q16 -74 29.5 -143.5t23.5 -127.5h-293l-8 -29h635l68 -92l12.5 10.5t32 26.5t40.5 34
t38 34q-4 16 -29 16h-372q-11 59 -25 128.5t-29 142.5h168l58 -62l112 88q-4 6 -14 11.5t-26 7.5v374h33z" />
</svg>
