<?xml version="1.0" standalone="no"?>
<!DOCTYPE svg PUBLIC "-//W3C//DTD SVG 1.1//EN" "http://www.w3.org/Graphics/SVG/1.1/DTD/svg11.dtd" >
<svg xmlns="http://www.w3.org/2000/svg" xmlns:xlink="http://www.w3.org/1999/xlink" version="1.1" viewBox="-10 0 1010 1000">
   <path fill="currentColor"
d="M771 890l71 -92l13 10t33.5 26t43 34t40.5 35q-4 16 -29 16h-904l-8 -29h564l60 -519h-287q-18 69 -38 139t-38.5 131.5t-33.5 106.5q-20 12 -55.5 12t-75.5 -12q16 -40 35.5 -97.5t39.5 -123t38.5 -132t33 -127t23.5 -106.5h-216l-8 -28h661l71 -90l13 10t33 25.5
t42 33.5t40 33q-1 8 -9 12t-19 4h-485q-8 38 -19.5 84.5t-25.5 96.5h271l54 -65l118 97q-7 7 -16 11t-26 6l-56 498h51zM353 630l8 -8q73 4 116.5 22t64 43t22 49.5t-11.5 42t-35.5 21.5t-50.5 -12q-7 -29 -25.5 -58t-41.5 -55.5t-46 -44.5zM388 446l8 -8q69 -2 111.5 11.5
t63 34.5t23 43.5t-9 39.5t-33.5 22.5t-49 -8.5q-13 -38 -46.5 -75.5t-67.5 -59.5z" />
</svg>
