<?xml version="1.0" standalone="no"?>
<!DOCTYPE svg PUBLIC "-//W3C//DTD SVG 1.1//EN" "http://www.w3.org/Graphics/SVG/1.1/DTD/svg11.dtd" >
<svg xmlns="http://www.w3.org/2000/svg" xmlns:xlink="http://www.w3.org/1999/xlink" version="1.1" viewBox="-10 0 1010 1000">
   <path fill="currentColor"
d="M230 796l-11 -13q80 -63 130.5 -132t77.5 -141.5t38.5 -148.5t13.5 -154.5t2 -157.5l158 14q-2 10 -10 17.5t-26 9.5q-2 65 -6 129q16 95 54.5 178t108 150t178.5 115l-2 13q-41 8 -66.5 34.5t-32.5 74.5q-78 -51 -128 -125.5t-78.5 -163t-42.5 -182.5q-9 69 -30.5 135
t-61.5 127.5t-104.5 117t-161.5 103.5zM784 878l67 -86l12.5 9.5t31.5 25t39.5 33t37.5 32.5q-3 16 -29 16h-726l-37 53l-124 -64q15 -17 37 -31v-753l156 15q-2 11 -10 18.5t-28 10.5v721h573z" />
</svg>
