<?xml version="1.0" standalone="no"?>
<!DOCTYPE svg PUBLIC "-//W3C//DTD SVG 1.1//EN" "http://www.w3.org/Graphics/SVG/1.1/DTD/svg11.dtd" >
<svg xmlns="http://www.w3.org/2000/svg" xmlns:xlink="http://www.w3.org/1999/xlink" version="1.1" viewBox="-10 0 1010 1000">
   <path fill="currentColor"
d="M229 155v208q0 68 -4.5 147t-22 160.5t-56.5 158t-107 139.5l-10 -7q41 -90 59 -192t22.5 -206t4.5 -199v-295l132 57h532l66 -84l20.5 16t48.5 38.5t51 42.5q-4 16 -28 16h-708zM473 212l156 15q-1 10 -8.5 17.5t-25.5 9.5q11 143 48 256t116.5 196t216.5 136l-1 12
q-89 18 -105 117q-96 -56 -153.5 -140.5t-86.5 -191.5t-42 -230q-6 85 -24.5 164t-61.5 150.5t-121 133.5t-203 113l-10 -14q94 -60 152.5 -125.5t90 -137.5t44.5 -149.5t15 -160.5t3 -171z" />
</svg>
