<?xml version="1.0" standalone="no"?>
<!DOCTYPE svg PUBLIC "-//W3C//DTD SVG 1.1//EN" "http://www.w3.org/Graphics/SVG/1.1/DTD/svg11.dtd" >
<svg xmlns="http://www.w3.org/2000/svg" xmlns:xlink="http://www.w3.org/1999/xlink" version="1.1" viewBox="-10 0 1010 1000">
   <path fill="currentColor"
d="M663 566l68 -59l111 89q-8 13 -39 16q-26 63 -69.5 129t-101 126.5t-126.5 107.5l-9 -9q34 -51 65 -115t56 -130.5t39 -126.5h-495l-9 -28h510zM541 403l62 -84l19 16t45 38.5t47 42.5q-4 16 -28 16h-428l-8 -29h291zM419 23l148 79q-8 15 -33 15q50 60 122 109t155.5 83
t165.5 52l-2 12q-34 7 -60 34.5t-37 70.5q-249 -102 -363 -350q-93 143 -214.5 227.5t-262.5 131.5l-8 -11q74 -45 147.5 -112.5t136.5 -154t105 -186.5z" />
</svg>
