<?xml version="1.0" standalone="no"?>
<!DOCTYPE svg PUBLIC "-//W3C//DTD SVG 1.1//EN" "http://www.w3.org/Graphics/SVG/1.1/DTD/svg11.dtd" >
<svg xmlns="http://www.w3.org/2000/svg" xmlns:xlink="http://www.w3.org/1999/xlink" version="1.1" viewBox="-10 0 1010 1000">
   <path fill="currentColor"
d="M578 388l157 14q-1 10 -8.5 17.5t-28.5 10.5v506q0 5 -15 13t-37.5 14t-45.5 6h-22v-581zM296 391l151 14q-1 10 -8 17.5t-25 9.5v93q-1 61 -14.5 126t-50.5 125.5t-108.5 110.5t-188.5 83l-7 -11q84 -42 134.5 -94t75.5 -109t33 -116t8 -116v-133zM539 109
q-45 86 -123.5 168t-178 149t-209.5 108l-6 -12q69 -42 134 -101t120.5 -127t94 -136.5t53.5 -128.5l180 44q-4 19 -48 23q44 72 113 123.5t151.5 87t163.5 59.5l-1 15q-40 11 -65 44t-32 68q-122 -61 -213.5 -155t-133.5 -229z" />
</svg>
