<?xml version="1.0" standalone="no"?>
<!DOCTYPE svg PUBLIC "-//W3C//DTD SVG 1.1//EN" "http://www.w3.org/Graphics/SVG/1.1/DTD/svg11.dtd" >
<svg xmlns="http://www.w3.org/2000/svg" xmlns:xlink="http://www.w3.org/1999/xlink" version="1.1" viewBox="-10 0 1010 1000">
   <path fill="currentColor"
d="M534 104q-35 75 -87.5 147t-118.5 137.5t-140.5 120t-153.5 92.5l-7 -12q65 -49 128 -118t117 -147t92.5 -156t52.5 -145l182 46q-4 19 -48 22q41 85 107 149.5t146 111.5t162 82l-3 15q-40 10 -66 43t-34 68q-116 -78 -203.5 -190t-125.5 -266zM259 625q132 15 221 44
t141.5 64.5t73.5 71t17.5 63t-27 41t-60.5 4.5q-33 -35 -78 -73t-96 -75.5t-102.5 -71t-97.5 -57.5zM417 363q80 13 127 38.5t68 54.5t21 56.5t-15.5 45.5t-40.5 21t-55 -16q-9 -33 -28 -68t-41.5 -68t-44.5 -58z" />
</svg>
