<?xml version="1.0" standalone="no"?>
<!DOCTYPE svg PUBLIC "-//W3C//DTD SVG 1.1//EN" "http://www.w3.org/Graphics/SVG/1.1/DTD/svg11.dtd" >
<svg xmlns="http://www.w3.org/2000/svg" xmlns:xlink="http://www.w3.org/1999/xlink" version="1.1" viewBox="-10 0 1010 1000">
   <path fill="currentColor"
d="M745 558l67 -85l12.5 9.5t31.5 24t40 31.5t38 32q-4 16 -28 16h-465l125 70q-4 7 -13 11t-25 2q-31 26 -78 55.5t-100 58t-105 50.5q86 0 210 -2t262 -6q-28 -40 -60 -77t-60 -67l9 -7q95 26 154.5 61.5t89.5 73.5t37 71t-4.5 56t-36 28.5t-55.5 -13.5
q-10 -24 -24.5 -49.5t-31.5 -50.5q-93 19 -226 42t-295 48q-12 17 -28 23l-49 -136l13.5 -3t23.5 -7q31 -15 66 -42t68.5 -60.5t61.5 -67.5t45 -62h-329l-8 -28h667zM580 387l60 -74l18.5 14t44 34t46.5 39q-3 16 -28 16h-463l-8 -29h330zM429 24l170 42q-3 10 -14 15t-34 7
q45 60 115.5 106t152 79.5t158.5 56.5l-2 16q-36 10 -59.5 40.5t-29.5 62.5q-75 -39 -143.5 -90.5t-122.5 -116.5t-86 -142q-37 57 -92 113t-122.5 107.5t-140.5 94t-146 72.5l-7 -13q63 -39 127 -94t120.5 -117t97.5 -124t58 -115z" />
</svg>
