<?xml version="1.0" standalone="no"?>
<!DOCTYPE svg PUBLIC "-//W3C//DTD SVG 1.1//EN" "http://www.w3.org/Graphics/SVG/1.1/DTD/svg11.dtd" >
<svg xmlns="http://www.w3.org/2000/svg" xmlns:xlink="http://www.w3.org/1999/xlink" version="1.1" viewBox="-10 0 1010 1000">
   <path fill="currentColor"
d="M240 306l54 20q-2 7 -9 12t-21 8v589q-1 4 -15.5 12.5t-36 15t-45.5 6.5h-21v-531q-57 66 -120 116l-12 -8q41 -63 80 -146.5t71 -178t52 -190.5l161 48q-7 22 -39 21q-22 57 -46.5 108t-52.5 98zM441 637l129 67q-4 7 -12 11.5t-25 1.5q-39 51 -101 108t-136 97l-10 -11
q34 -38 64 -86.5t54 -98t37 -89.5zM767 421l9 -6q67 25 105.5 56t54 62.5t13.5 57.5t-16.5 42.5t-36.5 17t-46 -20.5q-3 -32 -15 -67q-58 12 -135 27v258q0 36 -9.5 62t-39.5 41.5t-92 20.5q-1 -23 -4.5 -41t-12.5 -29t-25 -19t-48 -14v-13l12.5 1t29.5 2t33 2t23 1
q11 0 15 -5t4 -12v-235q-44 7 -91.5 15.5t-97.5 16.5q-10 17 -25 24l-54 -116l15 -2.5t25 -6.5q52 -20 112 -56t118 -79q-78 22 -176 47q-8 12 -20 19l-52 -113l11.5 -2.5t19.5 -6.5q32 -13 67.5 -37.5t70 -54.5t62 -59.5t43.5 -51.5q-63 33 -145.5 64t-166.5 51l-6 -11
q54 -28 110 -66t103.5 -78.5t75.5 -73.5l131 77q-6 8 -20 11t-37 -1q-10 7 -21 13t-24 13l128 71q-4 7 -13.5 10.5t-26.5 0.5q-29 21 -71 45.5t-89 47t-94 41.5q43 -1 95 -2t109 -2q40 -32 72.5 -62.5t53.5 -55.5l119 79q-4 7 -15 10.5t-28 -0.5q-33 25 -81.5 54.5
t-105.5 59.5t-117 58.5t-118 51.5q74 -2 177 -6t217 -9q-11 -32 -27 -62t-32 -55zM725 654l10 -6q76 25 121.5 58t65.5 66.5t20.5 62.5t-13.5 47.5t-37.5 20.5t-50.5 -19q-7 -39 -26 -80t-42.5 -80t-47.5 -70z" />
</svg>
