<?xml version="1.0" standalone="no"?>
<!DOCTYPE svg PUBLIC "-//W3C//DTD SVG 1.1//EN" "http://www.w3.org/Graphics/SVG/1.1/DTD/svg11.dtd" >
<svg xmlns="http://www.w3.org/2000/svg" xmlns:xlink="http://www.w3.org/1999/xlink" version="1.1" viewBox="-10 0 1010 1000">
   <path fill="currentColor"
d="M850 156h-701l-8 -29h548l67 -84l12.5 9.5t31.5 24t39.5 31.5t37.5 32q-4 16 -27 16zM939 654l3 162q24 10 31.5 22t7.5 30q0 24 -17.5 39.5t-62 23.5t-125.5 8h-95q-50 0 -77.5 -9t-37.5 -32t-10 -64v-428h-127q-6 102 -26.5 189t-64 158.5t-118.5 126t-191 90.5l-5 -11
q83 -50 136 -109.5t82 -128.5t41 -148t13 -167h-250l-8 -29h734l69 -89l12.5 10t32 25.5t41 33t39.5 33.5q-4 16 -29 16h-262v23v374q0 13 7 17.5t29 4.5h78h38.5t27.5 -1q16 0 23 -16q9 -16 22 -58t28 -96h11z" />
</svg>
