<?xml version="1.0" standalone="no"?>
<!DOCTYPE svg PUBLIC "-//W3C//DTD SVG 1.1//EN" "http://www.w3.org/Graphics/SVG/1.1/DTD/svg11.dtd" >
<svg xmlns="http://www.w3.org/2000/svg" xmlns:xlink="http://www.w3.org/1999/xlink" version="1.1" viewBox="-10 0 1010 1000">
   <path fill="currentColor"
d="M932 693l3 135q23 10 30.5 21t7.5 28q0 23 -17 38.5t-62.5 23t-129.5 7.5h-103q-50 0 -77 -8.5t-37 -30.5t-10 -61v-303h-73q-13 112 -58.5 196.5t-134 141.5t-232.5 90l-5 -13q109 -47 172.5 -107t93.5 -136t37 -172h-71v33q-1 6 -25.5 21.5t-71.5 15.5h-17v-525l116 37
q34 -25 66 -52.5t51 -47.5l117 96q-18 15 -61 2q-33 10 -80 20t-95 18v159h60l51 -69l16.5 13t39 32t39.5 36q-3 16 -27 16h-179v166h463v-166h-174l-9 -28h183v-166h-189l-9 -29h188l55 -61l113 88q-4 6 -14 12.5t-26 9.5v399q0 4 -16.5 11t-39.5 13t-43 6h-19v-60h-78v11
v264q0 11 6.5 15.5t29.5 4.5h89h43t30 -1q18 -1 25 -15q8 -14 20 -48.5t27 -80.5h11z" />
</svg>
