<?xml version="1.0" standalone="no"?>
<!DOCTYPE svg PUBLIC "-//W3C//DTD SVG 1.1//EN" "http://www.w3.org/Graphics/SVG/1.1/DTD/svg11.dtd" >
<svg xmlns="http://www.w3.org/2000/svg" xmlns:xlink="http://www.w3.org/1999/xlink" version="1.1" viewBox="-10 0 1010 1000">
   <path fill="currentColor"
d="M294 83l148 67q-4 8 -12 12.5t-26 2.5q-35 59 -88 120.5t-122.5 115.5t-154.5 92l-8 -11q63 -52 115 -121t90 -141.5t58 -136.5zM671 565l61 -58l105 88q-11 14 -41 18q-12 127 -36.5 209.5t-66.5 111.5q-25 18 -57.5 26.5t-81.5 8.5q0 -23 -5 -43.5t-19 -33.5
q-15 -14 -47.5 -25t-70.5 -18l1 -12q28 2 62 4.5t63.5 4t41.5 1.5q25 0 37 -10q20 -15 36.5 -81t25.5 -162h-288l-54 59l-109 -76q9 -7 22 -13.5t26 -11.5q19 -37 38.5 -83t31.5 -78h-86l-8 -29h324l60 -74l19 14t45 34.5t47 38.5q-4 16 -28 16h-246q-15 37 -37 86t-41 88
h276zM665 30l98 66q-9 10 -31.5 16t-51.5 8q23 54 66.5 103.5t103.5 88t130 61.5l-1 13q-34 11 -60.5 39.5t-35.5 61.5q-89 -64 -146.5 -158.5t-81.5 -212.5h-140l-9 -29h124z" />
</svg>
