<?xml version="1.0" standalone="no"?>
<!DOCTYPE svg PUBLIC "-//W3C//DTD SVG 1.1//EN" "http://www.w3.org/Graphics/SVG/1.1/DTD/svg11.dtd" >
<svg xmlns="http://www.w3.org/2000/svg" xmlns:xlink="http://www.w3.org/1999/xlink" version="1.1" viewBox="-10 0 1010 1000">
   <path fill="currentColor"
d="M779 194l64 -79l20.5 15t48 36t49.5 41q-3 16 -27 16h-468q-22 40 -46.5 76t-51.5 68l36 13h292l52 -61l115 87q-4 6 -14.5 12.5t-26.5 9.5v408q0 38 -10.5 65.5t-43 44t-100.5 22.5q-2 -26 -7.5 -45.5t-18.5 -32.5q-12 -13 -32 -22.5t-60 -15.5v-13l16.5 1t40 2t45.5 2
t32 1q13 0 17.5 -5t4.5 -15v-417h-321v167q0 48 -5.5 100.5t-24.5 105.5t-57.5 101.5t-104.5 87.5l-9 -8q38 -57 55 -121.5t21.5 -132t4.5 -133.5v-101q-101 87 -224 143l-10 -10q85 -67 164.5 -165t138.5 -219h-275l-8 -29h297q18 -40 33.5 -81.5t27.5 -84.5l162 47
q-8 21 -42 20q-11 26 -22.5 51t-24.5 48h297z" />
</svg>
