<?xml version="1.0" standalone="no"?>
<!DOCTYPE svg PUBLIC "-//W3C//DTD SVG 1.1//EN" "http://www.w3.org/Graphics/SVG/1.1/DTD/svg11.dtd" >
<svg xmlns="http://www.w3.org/2000/svg" xmlns:xlink="http://www.w3.org/1999/xlink" version="1.1" viewBox="-10 0 1010 1000">
   <path fill="currentColor"
d="M811 224l109 96q-6 7 -16.5 12t-28.5 7q-7 243 -27 385.5t-64 184.5q-28 27 -64.5 39.5t-94.5 12.5q1 -29 -4.5 -51t-21.5 -35q-16 -15 -50.5 -28t-77.5 -20l1 -13q31 3 67 5.5t66.5 4t44.5 1.5q27 0 40 -14q19 -16 32 -81.5t21 -171t12 -240.5h-243q-7 100 -29.5 192
t-72.5 174.5t-137.5 153.5t-225.5 130l-10 -14q102 -67 167.5 -140.5t103.5 -153t55 -165t23 -177.5h-297l-9 -28h307q3 -62 3 -126v-131l166 15q-1 12 -9 19t-27 9q-1 55 -2 108.5t-5 105.5h232z" />
</svg>
