<?xml version="1.0" standalone="no"?>
<!DOCTYPE svg PUBLIC "-//W3C//DTD SVG 1.1//EN" "http://www.w3.org/Graphics/SVG/1.1/DTD/svg11.dtd" >
<svg xmlns="http://www.w3.org/2000/svg" xmlns:xlink="http://www.w3.org/1999/xlink" version="1.1" viewBox="-10 0 1010 1000">
   <path fill="currentColor"
d="M291 380l9 -6q98 29 158.5 69t89 82t32.5 78.5t-11.5 61t-43.5 28.5t-63 -20q-14 -50 -41.5 -102.5t-61.5 -101.5t-68 -89zM859 163l110 99q-12 15 -45 19q-8 167 -21 298.5t-33.5 217t-52.5 117.5q-31 29 -69 42.5t-100 13.5q1 -28 -6 -50t-23 -35q-19 -15 -58 -28.5
t-86 -21.5l1 -14q35 3 76 6t76 5t51 2q27 0 44 -14t30 -62.5t22.5 -123.5t16.5 -170.5t12 -203.5h-494q-55 92 -123.5 163t-148.5 123l-11 -9q47 -60 91.5 -141.5t81 -175.5t59.5 -191l171 57q-9 20 -41 19q-14 33 -29.5 65t-32.5 61h467z" />
</svg>
