<?xml version="1.0" standalone="no"?>
<!DOCTYPE svg PUBLIC "-//W3C//DTD SVG 1.1//EN" "http://www.w3.org/Graphics/SVG/1.1/DTD/svg11.dtd" >
<svg xmlns="http://www.w3.org/2000/svg" xmlns:xlink="http://www.w3.org/1999/xlink" version="1.1" viewBox="-10 0 1010 1000">
   <path fill="currentColor"
d="M850 111l106 94q-12 14 -45 20q-4 304 -17 474.5t-54 217.5q-27 31 -63.5 41.5t-92.5 10.5q0 -24 -5.5 -42t-19.5 -29q-17 -14 -51 -25t-76 -19v-14q30 2 65 5t64.5 5t44.5 2q16 0 24.5 -3.5t16.5 -11.5q20 -18 30.5 -101t15.5 -218.5t7 -311.5h-488q-28 41 -59 77.5
t-64 68.5l122 12q-2 11 -10.5 18.5t-27.5 10.5v330h322l64 -78q-7 -1 -13.5 -3.5t-14.5 -6.5q-13 -44 -48 -92t-76 -84q-79 144 -208 219l-11 -10q64 -74 109 -183.5t61 -240.5l150 37q-7 22 -38 23q-21 69 -48 126q75 19 118.5 47.5t61.5 59.5t16 57t-18 40.5t-41 10.5
q3 2 22.5 17t45 35t45.5 39q-3 16 -27 16h-465l-37 50l-119 -61q7 -8 17 -16t20 -14v-334q-29 26 -60.5 48.5t-63.5 42.5l-9 -9q42 -51 85 -121t81 -151t64 -165l157 63q-4 9 -13.5 14t-26.5 3q-10 19 -21 38t-23 37h456z" />
</svg>
