<?xml version="1.0" standalone="no"?>
<!DOCTYPE svg PUBLIC "-//W3C//DTD SVG 1.1//EN" "http://www.w3.org/Graphics/SVG/1.1/DTD/svg11.dtd" >
<svg xmlns="http://www.w3.org/2000/svg" xmlns:xlink="http://www.w3.org/1999/xlink" version="1.1" viewBox="-10 0 1010 1000">
   <path fill="currentColor"
d="M783 880l66 -92l12.5 10t31.5 26t39.5 34t37.5 34q-4 16 -29 16h-722l-36 60l-121 -70q11 -14 31 -29v-800l131 50h540l58 -80l18.5 15.5t43.5 36.5t44 40q-4 16 -27 16h-690v733h572zM672 194l155 72q-4 8 -15 12.5t-29 1.5q-27 55 -57.5 105t-64.5 94q62 55 94.5 103.5
t40.5 86t-3 61t-36 27.5t-58 -15q-22 -40 -52.5 -83t-65.5 -87q-69 70 -147 123t-164 92l-9 -11q66 -50 132 -121t124 -156q-55 -61 -112.5 -118.5t-108.5 -103.5l12 -8q81 34 147 70t118 71q29 -51 54.5 -105.5t44.5 -110.5z" />
</svg>
