<?xml version="1.0" standalone="no"?>
<!DOCTYPE svg PUBLIC "-//W3C//DTD SVG 1.1//EN" "http://www.w3.org/Graphics/SVG/1.1/DTD/svg11.dtd" >
<svg xmlns="http://www.w3.org/2000/svg" xmlns:xlink="http://www.w3.org/1999/xlink" version="1.1" viewBox="-10 0 1010 1000">
   <path fill="currentColor"
d="M544 479l66 -95l19.5 17t47 40.5t49.5 45.5q-5 -84 -5.5 -172.5t0.5 -174.5h-272v339h95zM965 654l-11 186q34 98 1 120q-25 14 -49.5 8t-45.5 -25t-36 -43q-30 -39 -49.5 -100.5t-31 -138.5t-17.5 -163q-7 9 -25 9h-252v426q-1 6 -26.5 19.5t-71.5 13.5h-22v-459h-251
l-8 -28h259v-339h-247l-9 -28h635l61 -69l117 98q-5 5 -16 10t-29 9q-4 59 -5 130.5t1.5 145.5t10.5 141t21.5 118.5t33.5 76.5q12 16 19 -5q10 -25 18.5 -55t15.5 -59z" />
</svg>
