<?xml version="1.0" standalone="no"?>
<!DOCTYPE svg PUBLIC "-//W3C//DTD SVG 1.1//EN" "http://www.w3.org/Graphics/SVG/1.1/DTD/svg11.dtd" >
<svg xmlns="http://www.w3.org/2000/svg" xmlns:xlink="http://www.w3.org/1999/xlink" version="1.1" viewBox="-10 0 1010 1000">
   <path fill="currentColor"
d="M769 446l73 -97l13.5 10.5t34 27.5t43 36t40.5 36q-1 8 -9.5 12t-19.5 4h-380v458q-1 6 -29.5 21t-75.5 15h-23v-494h-390l-8 -29h398v-245q-81 7 -164 10.5t-163 2.5l-2 -16q84 -11 174 -28.5t176 -39.5t159.5 -46t125.5 -48l122 116q-9 7 -25.5 7.5t-42.5 -9.5
q-102 23 -232 38v258h205z" />
</svg>
