<?xml version="1.0" standalone="no"?>
<!DOCTYPE svg PUBLIC "-//W3C//DTD SVG 1.1//EN" "http://www.w3.org/Graphics/SVG/1.1/DTD/svg11.dtd" >
<svg xmlns="http://www.w3.org/2000/svg" xmlns:xlink="http://www.w3.org/1999/xlink" version="1.1" viewBox="-10 0 1010 1000">
   <path fill="currentColor"
d="M645 479l12 -6q103 60 166.5 125t94 125t34 109t-13 78.5t-47 32.5t-67.5 -29q-7 -37 -18 -74.5t-25 -76.5q-107 28 -263 62.5t-354 73.5q-13 24 -31 31l-72 -154l10 -3t22 -9.5t19 -14.5q29 -37 66 -99.5t76 -139.5t75 -159.5t64.5 -161t42.5 -142.5l179 76
q-4 10 -15.5 16.5t-30.5 5.5q-31 71 -78 154.5t-104 169t-117.5 164t-117.5 140.5q67 -2 164.5 -7t214 -12.5t240.5 -15.5q-27 -68 -60.5 -134.5t-65.5 -124.5z" />
</svg>
