<?xml version="1.0" standalone="no"?>
<!DOCTYPE svg PUBLIC "-//W3C//DTD SVG 1.1//EN" "http://www.w3.org/Graphics/SVG/1.1/DTD/svg11.dtd" >
<svg xmlns="http://www.w3.org/2000/svg" xmlns:xlink="http://www.w3.org/1999/xlink" version="1.1" viewBox="-10 0 1010 1000">
   <path fill="currentColor"
d="M699 503h-270q26 61 63.5 109.5t86.5 86.5q77 -87 120 -196zM767 411l109 102q-6 8 -15 11.5t-28 5.5q-63 132 -170 224q68 36 144.5 59.5t158.5 38.5l-2 11q-78 17 -102 104q-82 -28 -151.5 -65t-125.5 -88q-86 55 -198 93.5t-253 59.5l-5 -13q122 -33 222 -84t176 -120
q-37 -50 -66 -110.5t-49 -136.5h-17q-28 87 -73.5 169.5t-115 152.5t-169.5 121l-10 -9q89 -73 145.5 -166.5t89 -199t47.5 -212.5h-256l-9 -28h268q5 -32 7.5 -63.5t3.5 -62.5q-71 3 -134.5 2.5t-114.5 -3.5l-1 -14q96 -14 212.5 -37t242.5 -54t248 -68l92 124
q-16 13 -45 -2q-104 19 -221 31.5t-227 17.5l117 18q-1 9 -9.5 15.5t-29.5 8.5q-3 22 -6.5 43.5t-7.5 43.5h322l70 -89l13 10t32.5 25.5t41.5 33t40 32.5q-4 16 -29 16h-496q-6 29 -13 58t-16 58h292z" />
</svg>
