<?xml version="1.0" standalone="no"?>
<!DOCTYPE svg PUBLIC "-//W3C//DTD SVG 1.1//EN" "http://www.w3.org/Graphics/SVG/1.1/DTD/svg11.dtd" >
<svg xmlns="http://www.w3.org/2000/svg" xmlns:xlink="http://www.w3.org/1999/xlink" version="1.1" viewBox="-10 0 1010 1000">
   <path fill="currentColor"
d="M712 562h-420v286h420v-286zM769 266l71 -92l13 10.5t32.5 26.5t41 34t39.5 34q-4 16 -29 16h-375v238h139l58 -64l123 93q-5 7 -16.5 13.5t-28.5 9.5v347q0 3 -18 10t-42 13t-44 6h-21v-85h-420v52q0 6 -16 15.5t-40 17t-50 7.5h-18v-485l131 50h137v-238h-383l-8 -29
h391v-235l163 14q-2 11 -9.5 18.5t-27.5 10.5v192h207z" />
</svg>
