<?xml version="1.0" standalone="no"?>
<!DOCTYPE svg PUBLIC "-//W3C//DTD SVG 1.1//EN" "http://www.w3.org/Graphics/SVG/1.1/DTD/svg11.dtd" >
<svg xmlns="http://www.w3.org/2000/svg" xmlns:xlink="http://www.w3.org/1999/xlink" version="1.1" viewBox="-10 0 1010 1000">
   <path fill="currentColor"
d="M494 408h-176v225h176v-225zM850 136l108 97q-7 7 -17.5 12t-28.5 7q-7 280 -27 447t-66 215q-28 30 -65 43.5t-96 13.5q1 -29 -5.5 -50.5t-21.5 -34.5q-16 -15 -51 -28t-79 -20l1 -14q31 2 67.5 5t67.5 5t46 2q16 0 25 -3.5t18 -11.5q21 -19 34.5 -98t22 -205t13.5 -286
h-472q-20 31 -42.5 59t-45.5 54l88 35h160l53 -59l112 85q-5 6 -15.5 12t-24.5 9v287q0 3 -16.5 9.5t-38.5 12t-40 5.5h-20v-79h-176v90q0 5 -14 13.5t-35.5 15.5t-45.5 7h-17v-413q-75 72 -165 124l-10 -9q48 -54 93.5 -127.5t84 -160t62.5 -178.5l166 63q-3 8 -13 13
t-28 4q-13 26 -26 51t-27 48h442z" />
</svg>
