<?xml version="1.0" standalone="no"?>
<!DOCTYPE svg PUBLIC "-//W3C//DTD SVG 1.1//EN" "http://www.w3.org/Graphics/SVG/1.1/DTD/svg11.dtd" >
<svg xmlns="http://www.w3.org/2000/svg" xmlns:xlink="http://www.w3.org/1999/xlink" version="1.1" viewBox="-10 0 1010 1000">
   <path fill="currentColor"
d="M59 433h377v-197h-293l-8 -28h301v-171l158 13q-1 10 -9 17.5t-28 10.5v130h158l61 -79l19 15t45.5 36t46.5 40q-4 16 -27 16h-303v197h215l62 -80l19.5 15t46 36.5t48.5 41.5q-4 16 -29 16h-851zM788 909l64 -83l20 15.5t47.5 38t48.5 42.5q-3 16 -27 16h-900l-8 -29
h403v-223h-312l-8 -29h320v-174l158 14q-1 10 -9 17t-28 11v132h175l63 -80l19.5 15.5t45.5 37t47 40.5q-4 16 -28 16h-322v223h231z" />
</svg>
