<?xml version="1.0" standalone="no"?>
<!DOCTYPE svg PUBLIC "-//W3C//DTD SVG 1.1//EN" "http://www.w3.org/Graphics/SVG/1.1/DTD/svg11.dtd" >
<svg xmlns="http://www.w3.org/2000/svg" xmlns:xlink="http://www.w3.org/1999/xlink" version="1.1" viewBox="-10 0 1010 1000">
   <path fill="currentColor"
d="M770 475l71 -96l13 10.5t32.5 27.5t41 35.5t38.5 35.5q-4 16 -29 16h-374v362h171l67 -93l12 10.5t31 26.5t39.5 34t36.5 34q-4 16 -29 16h-776l-8 -28h323v-362h-389l-9 -29h398v-324h-283l-8 -29h554l66 -93l12 10.5t31 26.5t39.5 34.5t36.5 34.5q-4 16 -28 16h-287
v324h207z" />
</svg>
