<?xml version="1.0" standalone="no"?>
<!DOCTYPE svg PUBLIC "-//W3C//DTD SVG 1.1//EN" "http://www.w3.org/Graphics/SVG/1.1/DTD/svg11.dtd" >
<svg xmlns="http://www.w3.org/2000/svg" xmlns:xlink="http://www.w3.org/1999/xlink" version="1.1" viewBox="-10 0 1010 1000">
   <path fill="currentColor"
d="M800 153l118 104q-12 14 -51 17q-66 189 -170 327t-261 228.5t-383 137.5l-7 -14q183 -70 316 -165.5t225 -228t150 -312.5h-313q-21 34 -45 68t-51 66q71 20 114 48.5t63 59t21 58t-12.5 46t-37 22t-52.5 -13.5q-16 -47 -50.5 -97.5t-72.5 -91.5q-49 54 -108 102.5
t-128 86.5l-9 -10q61 -56 112.5 -126t92.5 -145.5t70.5 -150t46.5 -140.5l160 62q-4 7 -12 12t-27 4q-12 27 -26.5 54.5t-31.5 56.5h296z" />
</svg>
