<?xml version="1.0" standalone="no"?>
<!DOCTYPE svg PUBLIC "-//W3C//DTD SVG 1.1//EN" "http://www.w3.org/Graphics/SVG/1.1/DTD/svg11.dtd" >
<svg xmlns="http://www.w3.org/2000/svg" xmlns:xlink="http://www.w3.org/1999/xlink" version="1.1" viewBox="-10 0 1010 1000">
   <path fill="currentColor"
d="M936 460h-394q19 76 68.5 148.5t139 134t226.5 105.5l-1 12q-44 8 -70 33.5t-33 75.5q-86 -43 -146 -100t-99.5 -121.5t-62.5 -131t-35 -129.5q-13 80 -43.5 150t-86 130t-143.5 110.5t-218 91.5l-8 -15q102 -50 171 -105t111 -116t64 -129.5t31 -143.5h-342l-8 -29h353
q5 -61 6 -126t1 -136h-294l-8 -29h595l69 -87l12.5 9.5t32.5 25t41.5 33t39.5 32.5q-2 8 -10 12t-19 4h-326q-1 71 -3.5 136.5t-8.5 125.5h231l70 -88l13 9.5t32.5 25t41 33t39.5 33.5q-4 16 -29 16z" />
</svg>
