<?xml version="1.0" standalone="no"?>
<!DOCTYPE svg PUBLIC "-//W3C//DTD SVG 1.1//EN" "http://www.w3.org/Graphics/SVG/1.1/DTD/svg11.dtd" >
<svg xmlns="http://www.w3.org/2000/svg" xmlns:xlink="http://www.w3.org/1999/xlink" version="1.1" viewBox="-10 0 1010 1000">
   <path fill="currentColor"
d="M936 508h-386q21 66 70.5 126.5t137 111t219.5 86.5v13q-46 9 -73 35t-32 79q-88 -38 -148 -90.5t-98.5 -113t-60.5 -124t-33 -123.5h-1q-15 79 -46 147t-87 125t-144.5 104t-216.5 85l-8 -15q126 -58 202 -125.5t116.5 -147t56.5 -173.5h-350l-9 -27h363
q7 -49 9.5 -101.5t3.5 -109.5h-305l-8 -27h314q0 -48 -0.5 -99t-0.5 -105l169 15q-2 12 -10.5 19.5t-26.5 10.5q-1 42 -1 81.5t-1 77.5h154l69 -86l12.5 9.5t32 24.5t41 32t39.5 32q-4 15 -27 15h-321q-1 57 -4.5 109.5t-11.5 101.5h233l70 -88l13 9.5t32.5 25t41.5 33
t40 32.5q-4 15 -29 15z" />
</svg>
