<?xml version="1.0" standalone="no"?>
<!DOCTYPE svg PUBLIC "-//W3C//DTD SVG 1.1//EN" "http://www.w3.org/Graphics/SVG/1.1/DTD/svg11.dtd" >
<svg xmlns="http://www.w3.org/2000/svg" xmlns:xlink="http://www.w3.org/1999/xlink" version="1.1" viewBox="-10 0 1010 1000">
   <path fill="currentColor"
d="M704 534l58 -68l17.5 13t42 31.5t43.5 35.5q-4 16 -26 16h-433q-8 21 -19 48t-22 50h275l60 -56l107 87q-11 13 -41 17q-11 94 -33.5 152t-60.5 82q-24 15 -56 20.5t-78 5.5q0 -22 -4 -38t-18 -28q-13 -13 -40 -22t-62 -16v-12q24 2 53.5 4t55 3t36.5 1q13 0 20.5 -1.5
t14.5 -6.5q17 -11 30.5 -54.5t22.5 -109.5h-287l-45 51l-112 -71q8 -6 19 -12.5t23 -11.5q9 -20 18 -42.5t15 -39.5h-163l-9 -28h598zM553 399l53 -70l16.5 13.5t38.5 33t40 36.5q-4 16 -27 16h-359l-8 -29h246zM930 216h-309q37 46 94.5 81t126 58.5t138.5 33.5l-2 11
q-34 10 -58.5 39.5t-34.5 74.5q-106 -41 -175.5 -114.5t-110.5 -183.5h-127q-85 126 -196.5 199.5t-242.5 115.5l-8 -11q86 -50 164.5 -127t139.5 -177h-278l-8 -29h303q22 -38 39.5 -80t31.5 -85l164 58q-7 21 -42 18q-11 24 -23.5 46t-25.5 43h282l67 -86l20.5 16t48.5 39
t51 44q-4 16 -29 16z" />
</svg>
