<?xml version="1.0" standalone="no"?>
<!DOCTYPE svg PUBLIC "-//W3C//DTD SVG 1.1//EN" "http://www.w3.org/Graphics/SVG/1.1/DTD/svg11.dtd" >
<svg xmlns="http://www.w3.org/2000/svg" xmlns:xlink="http://www.w3.org/1999/xlink" version="1.1" viewBox="-10 0 1010 1000">
   <path fill="currentColor"
d="M672 263l152 34q-3 10 -12.5 16.5t-26.5 6.5q-9 28 -19 53t-22 48q65 12 103.5 34.5t55 48t16.5 49.5t-13.5 40.5t-36 19t-48.5 -13.5q-11 -38 -37.5 -78t-55.5 -71q-25 40 -54.5 72t-64.5 56q49 91 135.5 159t225.5 113l-1 12q-43 7 -69.5 33.5t-33.5 73.5
q-119 -57 -189 -141t-104.5 -191.5t-48.5 -232.5q-8 90 -34 174.5t-79.5 159t-144 134t-227.5 97.5l-6 -12q108 -52 178 -115.5t110.5 -136t59.5 -150.5q-13 20 -39 25t-54 -17q-3 -25 -13 -51t-24 -48q-35 61 -81.5 104.5t-103.5 72.5l-12 -9q56 -65 94.5 -158.5
t50.5 -207.5l149 37q-3 9 -12 15t-26 7q-8 27 -17.5 51t-20.5 47q61 16 87.5 42t30.5 51q11 -58 14.5 -117.5t3.5 -120.5v-43h-355l-8 -28h363v-174l158 15q-2 10 -9.5 17.5t-27.5 10.5v131h231l69 -89l13 10t32.5 25.5t41 33t39.5 32.5q-4 16 -29 16h-397v31q7 80 22 150.5
t43 131.5q31 -57 51.5 -130.5t26.5 -154.5z" />
</svg>
