<?xml version="1.0" standalone="no"?>
<!DOCTYPE svg PUBLIC "-//W3C//DTD SVG 1.1//EN" "http://www.w3.org/Graphics/SVG/1.1/DTD/svg11.dtd" >
<svg xmlns="http://www.w3.org/2000/svg" xmlns:xlink="http://www.w3.org/1999/xlink" version="1.1" viewBox="-10 0 1010 1000">
   <path fill="currentColor"
d="M762 482l72 -92l13 10t33.5 26t43 34t40.5 34q-1 7 -9.5 11t-19.5 4h-370v314q0 42 -12 72.5t-50 48.5t-116 25q-4 -30 -10.5 -51t-23.5 -35t-43.5 -24.5t-78.5 -19.5v-13l16 1t40.5 2.5t50.5 3t47 2.5t30 1q26 0 26 -21v-306h-394l-8 -27h402v-175l102 10q41 -36 82 -81
t70 -82h-545l-9 -28h563l70 -67l115 101q-6 7 -15 9.5t-26 4.5q-55 36 -125.5 75.5t-141.5 70.5l18 2q-3 21 -34 27v133h197z" />
</svg>
