<?xml version="1.0" standalone="no"?>
<!DOCTYPE svg PUBLIC "-//W3C//DTD SVG 1.1//EN" "http://www.w3.org/Graphics/SVG/1.1/DTD/svg11.dtd" >
<svg xmlns="http://www.w3.org/2000/svg" xmlns:xlink="http://www.w3.org/1999/xlink" version="1.1" viewBox="-10 0 1010 1000">
   <path fill="currentColor"
d="M445 33l159 14q-1 10 -8.5 18t-28.5 10v525q0 9 -17 23.5t-41.5 26t-47.5 11.5h-16v-628zM667 190q97 31 157.5 70.5t90.5 81t35.5 77t-7 59.5t-38 28.5t-57.5 -16.5q-15 -49 -46.5 -102t-69.5 -102.5t-74 -88.5zM234 177l154 60q-4 8 -12 13t-27 4q-29 62 -73 131.5
t-102 135t-132 116.5l-9 -9q50 -64 90 -143.5t68.5 -160.5t42.5 -147zM713 470l150 75q-6 9 -16.5 12t-30.5 0q-71 113 -151 187.5t-171.5 120t-196.5 69.5t-226 36l-3 -15q104 -27 198 -63t176 -90.5t150.5 -135.5t120.5 -196z" />
</svg>
