<?xml version="1.0" standalone="no"?>
<!DOCTYPE svg PUBLIC "-//W3C//DTD SVG 1.1//EN" "http://www.w3.org/Graphics/SVG/1.1/DTD/svg11.dtd" >
<svg xmlns="http://www.w3.org/2000/svg" xmlns:xlink="http://www.w3.org/1999/xlink" version="1.1" viewBox="-10 0 1010 1000">
   <path fill="currentColor"
d="M315 142v213v27.5t-1 28.5h394v-269h-393zM708 440h-209q21 79 73 153.5t145 136.5t237 107l-1 13q-46 7 -72.5 33.5t-33.5 77.5q-96 -47 -161 -108.5t-106 -131t-64 -141.5t-34 -140h-169q-3 67 -16 138.5t-42.5 141t-82.5 132.5t-136 114l-10 -9q57 -66 91 -139
t51.5 -150.5t23 -156t5.5 -155.5v-291l136 48h365l54 -60l114 87q-4 6 -14 12t-26 9v315q0 3 -17 10t-39.5 13t-41.5 6h-20v-65z" />
</svg>
