<?xml version="1.0" standalone="no"?>
<!DOCTYPE svg PUBLIC "-//W3C//DTD SVG 1.1//EN" "http://www.w3.org/Graphics/SVG/1.1/DTD/svg11.dtd" >
<svg xmlns="http://www.w3.org/2000/svg" xmlns:xlink="http://www.w3.org/1999/xlink" version="1.1" viewBox="-10 0 1010 1000">
   <path fill="currentColor"
d="M270 330l-37 52l-122 -63q15 -17 37 -31v-207l153 15q-1 11 -9 18.5t-28 10.5v176h181v-270l154 13q-1 10 -8.5 17.5t-27.5 10.5v229h177v-227l155 14q-1 10 -9 17.5t-28 10.5v238q0 4 -14.5 10t-37 10.5t-46.5 4.5h-20v-49h-470zM734 646h-377v207h377v-207zM795 453
l62 -83l20 15.5t47.5 37.5t48.5 42q-4 16 -28 16h-478q-21 35 -48 68t-58 64l10 4h353l56 -61l117 89q-4 6 -14 11.5t-26 9.5v267q-1 3 -18 10t-40.5 12.5t-43.5 5.5h-21v-79h-377v53q0 7 -25.5 21.5t-71.5 14.5h-22v-258q-49 32 -101 59.5t-108 48.5l-6 -11
q62 -42 117.5 -96t99 -114.5t67.5 -118.5h-264l-8 -28h760z" />
</svg>
