<?xml version="1.0" standalone="no"?>
<!DOCTYPE svg PUBLIC "-//W3C//DTD SVG 1.1//EN" "http://www.w3.org/Graphics/SVG/1.1/DTD/svg11.dtd" >
<svg xmlns="http://www.w3.org/2000/svg" xmlns:xlink="http://www.w3.org/1999/xlink" version="1.1" viewBox="-10 0 1010 1000">
   <path fill="currentColor"
d="M614 34l137 101q-11 14 -44 6q-124 81 -256.5 134.5t-275.5 84.5l-4 -14q124 -54 235 -131.5t208 -180.5zM668 276l146 96q-12 15 -45 8q-127 103 -265.5 162.5t-296.5 91.5l-5 -14q137 -56 253.5 -138t212.5 -206zM755 543l148 94q-12 16 -47 9q-105 106 -217 169.5
t-236.5 96.5t-267.5 49l-3 -15q125 -35 237 -84.5t209.5 -126t176.5 -192.5z" />
</svg>
