<?xml version="1.0" standalone="no"?>
<!DOCTYPE svg PUBLIC "-//W3C//DTD SVG 1.1//EN" "http://www.w3.org/Graphics/SVG/1.1/DTD/svg11.dtd" >
<svg xmlns="http://www.w3.org/2000/svg" xmlns:xlink="http://www.w3.org/1999/xlink" version="1.1" viewBox="-10 0 1010 1000">
   <path fill="currentColor"
d="M614 24l131 94q-5 7 -14 9.5t-25 -2.5q-59 50 -143.5 100.5t-185 93t-209.5 69.5l-8 -12q69 -33 136 -75.5t127 -89.5t109 -95t82 -92zM695 219l131 97q-4 7 -14 9.5t-27 -2.5q-42 40 -94.5 81t-115.5 80l40 14q-6 16 -32 20v424q0 3 -15.5 9.5t-38 11.5t-44.5 5h-23
v-420q-73 38 -154.5 70t-167.5 55l-7 -12q87 -41 170 -94t157 -112.5t134.5 -120t100.5 -115.5z" />
</svg>
