<?xml version="1.0" standalone="no"?>
<!DOCTYPE svg PUBLIC "-//W3C//DTD SVG 1.1//EN" "http://www.w3.org/Graphics/SVG/1.1/DTD/svg11.dtd" >
<svg xmlns="http://www.w3.org/2000/svg" xmlns:xlink="http://www.w3.org/1999/xlink" version="1.1" viewBox="-10 0 1010 1000">
   <path fill="currentColor"
d="M239 32l150 15q-1 10 -8.5 17.5t-27.5 10.5v861q0 5 -14 13t-34.5 14t-42.5 6h-23v-937zM161 235h14q22 64 23 116.5t-12.5 91t-34.5 61.5q-15 16 -35.5 21t-39.5 -1.5t-29 -24.5q-12 -24 -3 -47t30 -39q19 -15 38 -42t33 -62.5t16 -73.5zM385 214q58 31 88 65.5t39.5 67
t3 58.5t-24 40t-39.5 12t-44 -26q7 -53 -4 -110.5t-29 -101.5z" />
</svg>
