<?xml version="1.0" standalone="no"?>
<!DOCTYPE svg PUBLIC "-//W3C//DTD SVG 1.1//EN" "http://www.w3.org/Graphics/SVG/1.1/DTD/svg11.dtd" >
<svg xmlns="http://www.w3.org/2000/svg" xmlns:xlink="http://www.w3.org/1999/xlink" version="1.1" viewBox="-10 0 1010 1000">
   <path fill="currentColor"
d="M413 57l9 -6q72 25 113 58.5t57 68t12.5 63.5t-20.5 47t-42 18.5t-52 -23.5q-1 -59 -24.5 -119.5t-52.5 -106.5zM172 363l13 -1q34 77 40 139t-7 107t-36 72q-16 19 -38 26t-43 0.5t-33 -25.5q-15 -25 -7 -49.5t30 -42.5q21 -18 40.5 -53t31.5 -80t9 -93zM772 642l3 150
q27 10 37 22t10 29q0 27 -21.5 44.5t-77 25.5t-158.5 8h-125q-56 0 -90 -8.5t-49 -31t-17 -64.5q-106 66 -237 114l-9 -12q68 -36 129.5 -79t116.5 -91v-530l153 15q-1 10 -8.5 17.5t-25.5 9.5v369q110 -125 183 -264t113 -272l158 55q-4 10 -13.5 14.5t-29.5 2.5
q-39 100 -96 200.5t-134.5 194t-180.5 174.5v38q0 18 11 25t43 7h119h59t40 -1q23 -3 33 -17q10 -15 23.5 -54t29.5 -91h11zM752 388l10 -6q79 34 124 75.5t62.5 83t13.5 75.5t-22.5 54.5t-46 20.5t-56.5 -28q0 -71 -25 -144.5t-60 -130.5z" />
</svg>
