<?xml version="1.0" standalone="no"?>
<!DOCTYPE svg PUBLIC "-//W3C//DTD SVG 1.1//EN" "http://www.w3.org/Graphics/SVG/1.1/DTD/svg11.dtd" >
<svg xmlns="http://www.w3.org/2000/svg" xmlns:xlink="http://www.w3.org/1999/xlink" version="1.1" viewBox="-10 0 1010 1000">
   <path fill="currentColor"
d="M532 61l7 -8q78 1 126 18t72 42t27.5 51t-8 45.5t-34.5 26t-53 -7.5q-12 -31 -34.5 -62t-49.5 -58.5t-53 -46.5zM946 677l-26 166q39 39 45 57.5t-3 34.5q-17 29 -52.5 33.5t-77.5 -6.5t-79 -29q-68 -32 -123 -73.5t-97 -89.5q-94 62 -211.5 108.5t-259.5 73.5l-7 -13
q128 -41 235 -101.5t192 -133.5q-52 -76 -82.5 -165.5t-46.5 -187.5l-310 23l-10 -28l316 -24q-10 -69 -14 -141t-4 -148l160 16q-1 10 -8.5 17.5t-26.5 10.5q-1 61 2 120t10 116l293 -22l64 -95l13.5 9t34 23t43.5 30.5t42 30.5q-3 16 -27 18l-459 35q13 76 36.5 146.5
t63.5 131.5q57 -61 101 -126t74 -132l139 76q-4 7 -13.5 10.5t-28.5 -0.5q-38 66 -90.5 129t-120.5 119q35 35 78.5 65.5t97.5 53.5q17 8 26.5 7.5t19.5 -13.5q10 -14 24 -37t29.5 -49t26.5 -49z" />
</svg>
