<?xml version="1.0" standalone="no"?>
<!DOCTYPE svg PUBLIC "-//W3C//DTD SVG 1.1//EN" "http://www.w3.org/Graphics/SVG/1.1/DTD/svg11.dtd" >
<svg xmlns="http://www.w3.org/2000/svg" xmlns:xlink="http://www.w3.org/1999/xlink" version="1.1" viewBox="-10 0 1010 1000">
   <path fill="currentColor"
d="M506 290h-163v173l90 -22.5t92 -22.5l3 12q-36 20 -81.5 45.5t-103.5 55.5v301q0 39 -10 67.5t-41.5 45.5t-98.5 23q-2 -27 -7 -47.5t-16 -33.5q-12 -14 -31 -23t-57 -16v-14l16 1t38.5 2.5t42.5 2.5t28 1q13 0 17.5 -4.5t4.5 -13.5v-235q-26 12 -54 25t-58 27
q-8 22 -25 28l-63 -134q31 -5 82.5 -16.5t117.5 -27.5v-200h-170l-8 -29h178v-228l151 15q-1 10 -9.5 17.5t-27.5 10.5v185h23l61 -84l18.5 16t43.5 38.5t45 42.5q-4 16 -28 16z" />
</svg>
