<?xml version="1.0" standalone="no"?>
<!DOCTYPE svg PUBLIC "-//W3C//DTD SVG 1.1//EN" "http://www.w3.org/Graphics/SVG/1.1/DTD/svg11.dtd" >
<svg xmlns="http://www.w3.org/2000/svg" xmlns:xlink="http://www.w3.org/1999/xlink" version="1.1" viewBox="-10 0 1010 1000">
   <path fill="currentColor"
d="M264 444h174q15 -76 18.5 -154.5t4.5 -157.5h-141q-6 39 -15.5 95t-20 114t-20.5 103zM924 690l3 128q24 10 31.5 20.5t7.5 26.5q0 24 -18 40t-63 23.5t-127 7.5h-101q-50 0 -77 -8.5t-36.5 -30t-9.5 -60.5v-308q-31 86 -89.5 164.5t-157 148t-248.5 128.5l-9 -16
q129 -74 210 -152.5t126 -161t65 -168.5h-165l-43 54l-115 -66q12 -12 34 -24q8 -32 15.5 -72.5t15 -83.5t12.5 -81.5t8 -66.5h-95l-9 -28h612l67 -79l21.5 15t51 36t53.5 40q-2 8 -10 12t-19 4h-276q-2 81 -8 159.5t-23 152.5h197l70 -87l13 9.5t33.5 24.5t42.5 32.5
t41 32.5q-2 8 -10 12t-19 4h-374q-3 9 -5.5 18.5t-5.5 18.5l140 12q-3 21 -32 25v262q0 11 6.5 15.5t28.5 4.5h86q25 0 44.5 -0.5t29.5 -1.5q16 0 25 -13q8 -13 19.5 -46.5t25.5 -76.5h10z" />
</svg>
