<?xml version="1.0" standalone="no"?>
<!DOCTYPE svg PUBLIC "-//W3C//DTD SVG 1.1//EN" "http://www.w3.org/Graphics/SVG/1.1/DTD/svg11.dtd" >
<svg xmlns="http://www.w3.org/2000/svg" xmlns:xlink="http://www.w3.org/1999/xlink" version="1.1" viewBox="-10 0 1010 1000">
   <path fill="currentColor"
d="M885 462h-308q42 76 105.5 138.5t139.5 108t153 71.5l-3 10q-34 7 -59.5 34t-37.5 69q-225 -128 -318 -431h-1v465q0 6 -15 16t-37 18t-45 8h-23v-379q-142 198 -400 312l-9 -12q77 -53 142 -123t115.5 -148.5t82.5 -156.5h-267l-8 -29h344v-178h-387l-9 -28h396v-196
l157 15q-1 10 -9 17.5t-28 10.5v153h208l70 -86l12.5 9.5t32 24.5t41 32.5t39.5 32.5q-4 15 -28 15h-375v178h166l68 -85l12.5 9.5t32 24.5t40.5 32t39 32q-4 16 -29 16z" />
</svg>
