<?xml version="1.0" standalone="no"?>
<!DOCTYPE svg PUBLIC "-//W3C//DTD SVG 1.1//EN" "http://www.w3.org/Graphics/SVG/1.1/DTD/svg11.dtd" >
<svg xmlns="http://www.w3.org/2000/svg" xmlns:xlink="http://www.w3.org/1999/xlink" version="1.1" viewBox="-10 0 1010 1000">
   <path fill="currentColor"
d="M608 68l7 -8q65 4 104.5 20t57 37.5t18 42.5t-12 36.5t-33 18.5t-45.5 -12q-9 -36 -38 -73.5t-58 -61.5zM45 929l-11 -13q71 -54 108.5 -115t53 -128.5t18 -141t3.5 -153.5l150 13q-1 10 -8.5 17.5t-24.5 9.5q-3 61 -8 120t-19 113.5t-44.5 104.5t-83 93.5t-134.5 79.5z
M926 302h-375v625q0 6 -15 16t-37 18t-44 8h-23v-667h-365l-8 -29h373v-242l156 16q-1 10 -9 17.5t-28 10.5v198h231l61 -76l19 14.5t45 35t47 39.5q-3 16 -28 16zM932 760l6 2q21 10 29.5 20t8.5 27q0 34 -35 51t-121 17h-63q-43 0 -64.5 -9t-28.5 -30t-7 -58v-403l147 13
q-2 21 -31 27v333q0 10 4 14t17 4h41h21.5t17.5 -1q12 0 24 -2l12.5 -2.5l12.5 -2.5h9z" />
</svg>
