<?xml version="1.0" standalone="no"?>
<!DOCTYPE svg PUBLIC "-//W3C//DTD SVG 1.1//EN" "http://www.w3.org/Graphics/SVG/1.1/DTD/svg11.dtd" >
<svg xmlns="http://www.w3.org/2000/svg" xmlns:xlink="http://www.w3.org/1999/xlink" version="1.1" viewBox="-10 0 1010 1000">
   <path fill="currentColor"
d="M785 260h-457q-52 94 -117.5 166t-144.5 123l-12 -8q47 -61 90 -142t77 -176t52 -195l166 48q-7 22 -40 21q-12 36 -26 69.5t-30 65.5h436l67 -66l111 109q-9 10 -40 13q-23 30 -56.5 67t-70 72.5t-69.5 62.5l-8 -6q12 -31 25.5 -70t26 -79.5t20.5 -74.5zM435 311l166 37
q-3 10 -12.5 17t-27.5 6q13 108 56 196.5t128.5 155t226.5 110.5v12q-96 18 -112 123q-81 -40 -136 -96t-89.5 -124.5t-54 -146t-28.5 -158.5q-9 62 -26 122t-50 116.5t-88.5 108t-141 97t-207.5 83.5l-9 -15q108 -56 180 -115t116 -121.5t66.5 -128.5t31 -136t11.5 -143z
" />
</svg>
