<?xml version="1.0" standalone="no"?>
<!DOCTYPE svg PUBLIC "-//W3C//DTD SVG 1.1//EN" "http://www.w3.org/Graphics/SVG/1.1/DTD/svg11.dtd" >
<svg xmlns="http://www.w3.org/2000/svg" xmlns:xlink="http://www.w3.org/1999/xlink" version="1.1" viewBox="-10 0 1010 1000">
   <path fill="currentColor"
d="M767 891l73 -93l13 10.5t33.5 26.5t43 34.5t41.5 34.5q-4 16 -29 16h-903l-8 -29h153v-618l163 15q-1 11 -9 18.5t-28 10.5v574h154v-846l163 16q-1 11 -8 18.5t-27 10.5v335h122l71 -91l13 10t33.5 26t42.5 34t40 34q-2 8 -10 12t-19 4h-293v437h175z" />
</svg>
