<?xml version='1.0' encoding='ASCII' standalone='yes'?>
<svg xmlns="http://www.w3.org/2000/svg" xmlns:xlink="http://www.w3.org/1999/xlink" version="1.1" viewBox="0 0 1010 1000" height="1000" width="1010">
   <g><g transform="translate(1010, 0) scale(1)  scale(-1.000000 1.000000)"><path fill="currentColor" d="M767 886l72 -91l13 10t33.5 26t43 34t41.5 34q-4 16 -29 16h-902l-8 -29h144v-522l163 14q-1 10 -9 17.5t-28 11.5v479h152v-726h-363l-8 -29h649l71 -90l13 10t33 26t42 33.5t40 33.5q-4 16 -28 16h-321v323h119l69 -89l12.5 10t32 25.5t41 33t38.5 32.5q-4 15 -28 15 h-284v376h186z"/>
</g></g></svg>
