<?xml version="1.0" standalone="no"?>
<!DOCTYPE svg PUBLIC "-//W3C//DTD SVG 1.1//EN" "http://www.w3.org/Graphics/SVG/1.1/DTD/svg11.dtd" >
<svg xmlns="http://www.w3.org/2000/svg" xmlns:xlink="http://www.w3.org/1999/xlink" version="1.1" viewBox="-10 0 1010 1000">
   <path fill="currentColor"
d="M425 380l51 -85l16.5 16.5t38 39t37.5 42.5q-4 16 -27 16h-134v348q35 -7 70.5 -15t71.5 -15l3 12q-67 38 -171.5 89t-260.5 117q-9 20 -27 26l-77 -140q35 -5 86 -15v-572l141 13q-1 9 -8 15.5t-25 9.5v514l84 -16v-738l150 14q-1 10 -9 18t-28 11v295h18zM924 667
l4 152q23 11 31.5 22.5t8.5 28.5q0 37 -40.5 55t-147.5 18h-80q-70 0 -95.5 -23t-25.5 -87v-793l152 17q-1 10 -8.5 17.5t-27.5 10.5v294h83l55 -92l10.5 10.5t26 26.5t32 34.5t28.5 33.5q-4 16 -27 16h-208v389q0 16 7.5 23t27.5 7h61h30.5t22.5 -1q7 -1 13.5 -4t10.5 -10
q9 -14 21 -56.5t24 -88.5h11z" />
</svg>
