<?xml version="1.0" standalone="no"?>
<!DOCTYPE svg PUBLIC "-//W3C//DTD SVG 1.1//EN" "http://www.w3.org/Graphics/SVG/1.1/DTD/svg11.dtd" >
<svg xmlns="http://www.w3.org/2000/svg" xmlns:xlink="http://www.w3.org/1999/xlink" version="1.1" viewBox="-10 0 1010 1000">
   <path fill="currentColor"
d="M474 423h-227v378q55 -17 119.5 -36.5t131.5 -40.5l4 11q-46 31 -125.5 84.5t-181.5 113.5q-6 11 -13 19.5t-14 13.5l-85 -123q32 -20 41 -31.5t9 -29.5v-737l155 15q-2 12 -10.5 19.5t-30.5 11.5v304h78l64 -98l12 11t29.5 28t37 36t34.5 35q-1 8 -9 12t-19 4zM925 657
l4 157q25 11 34 22.5t9 27.5q0 26 -19 42.5t-65 24t-129 7.5h-95q-51 0 -80 -9.5t-41 -34t-12 -68.5v-778l151 16q-1 10 -8.5 17.5t-27.5 10.5v302h101l64 -98l11.5 11t29.5 28t37.5 36t34.5 36q-4 16 -28 16h-250v368q0 18 9.5 25.5t34.5 7.5h80q23 0 41 -0.5t28 -1.5
q8 -1 15 -4t12 -10q9 -15 22 -58t26 -93h11z" />
</svg>
