<?xml version="1.0" standalone="no"?>
<!DOCTYPE svg PUBLIC "-//W3C//DTD SVG 1.1//EN" "http://www.w3.org/Graphics/SVG/1.1/DTD/svg11.dtd" >
<svg xmlns="http://www.w3.org/2000/svg" xmlns:xlink="http://www.w3.org/1999/xlink" version="1.1" viewBox="-10 0 1010 1000">
   <path fill="currentColor"
d="M49 455l-4 -14q114 -35 222 -85.5t199 -108.5q-76 -35 -162.5 -66.5t-180.5 -56.5l4 -13q136 13 242 31.5t188 41.5q50 -38 91.5 -77.5t70.5 -77.5l151 86q-5 9 -19 12.5t-40 -1.5q-58 51 -133 98q85 34 131 69.5t61.5 67t7.5 53t-31.5 28.5t-54.5 -6
q-37 -32 -96.5 -69.5t-136.5 -76.5q-109 55 -238.5 97t-271.5 68zM646 418l159 71q-4 9 -13 12.5t-28 2.5q-33 67 -79 128t-105 114q88 40 189 64.5t205 37.5l-1 13q-42 8 -69 36.5t-38 73.5q-107 -26 -200.5 -65t-170.5 -96q-88 58 -202 98.5t-258 59.5l-5 -13
q124 -35 222 -87.5t172 -117.5q-56 -56 -100 -126.5t-73 -158.5l13 -9q35 76 90.5 135t126.5 104q58 -62 99 -132t66 -145z" />
</svg>
