<?xml version='1.0' encoding='ASCII' standalone='yes'?>
<svg xmlns="http://www.w3.org/2000/svg" xmlns:xlink="http://www.w3.org/1999/xlink" version="1.1" width="1010" viewBox="0 0 1010 1000" height="1000">
  <g>
    <g transform=" scale(0.500000 1.000000)"><path fill="currentColor" d="M718 73l168 35q-3 10 -11 16t-30 7q-34 157 -94.5 299t-171.5 257q86 57 187.5 96t213.5 65l-3 11q-46 4 -79.5 29.5t-50.5 68.5q-103 -34 -191.5 -81t-162.5 -111q-84 66 -195.5 117.5t-256.5 85.5l-7 -12q129 -47 228.5 -109.5t172.5 -138.5q-94 -102 -156 -245.5 t-89 -337.5l16 -9q34 174 110 301t185 216q94 -122 143.5 -264.5t73.5 -295.5z"/>
</g>
    <g transform="translate(505.0, 0) scale(1)  scale(0.500000 1.000000)"><path fill="currentColor" d="M718 73l168 35q-3 10 -11 16t-30 7q-34 157 -94.5 299t-171.5 257q86 57 187.5 96t213.5 65l-3 11q-46 4 -79.5 29.5t-50.5 68.5q-103 -34 -191.5 -81t-162.5 -111q-84 66 -195.5 117.5t-256.5 85.5l-7 -12q129 -47 228.5 -109.5t172.5 -138.5q-94 -102 -156 -245.5 t-89 -337.5l16 -9q34 174 110 301t185 216q94 -122 143.5 -264.5t73.5 -295.5z"/>
</g>
  </g>
</svg>
