<?xml version="1.0" standalone="no"?>
<!DOCTYPE svg PUBLIC "-//W3C//DTD SVG 1.1//EN" "http://www.w3.org/Graphics/SVG/1.1/DTD/svg11.dtd" >
<svg xmlns="http://www.w3.org/2000/svg" xmlns:xlink="http://www.w3.org/1999/xlink" version="1.1" viewBox="-10 0 1010 1000">
   <path fill="currentColor"
d="M764 887l73 -91l13 10t33.5 26t42.5 34t41 34q-4 16 -29 16h-889l-8 -29h386v-383h-280l-8 -28h288v-316h-319l-8 -28h620l71 -90l13 10t33.5 25.5t42.5 33.5t40 33q-2 8 -10 12t-19 4h-335v316h130l68 -87l12.5 9.5t32 24.5t40.5 32.5t38 32.5q-4 16 -27 16h-294v383
h208zM616 559l8 -6q80 14 126.5 41t66.5 58t19 59.5t-17.5 47.5t-42.5 21.5t-56 -19.5q-7 -53 -38 -108t-66 -94z" />
</svg>
