<?xml version="1.0" standalone="no"?>
<!DOCTYPE svg PUBLIC "-//W3C//DTD SVG 1.1//EN" "http://www.w3.org/Graphics/SVG/1.1/DTD/svg11.dtd" >
<svg xmlns="http://www.w3.org/2000/svg" xmlns:xlink="http://www.w3.org/1999/xlink" version="1.1" viewBox="-10 0 1010 1000">
   <path fill="currentColor"
d="M763 890l73 -91l13 10t33.5 26t42.5 34t41 34q-4 16 -29 16h-887l-9 -29h392v-376h-306l-7 -28h313v-330h-342l-9 -28h639l71 -90l13 10t33.5 25.5t42 33.5t39.5 33q-4 16 -28 16h-330v330h131l69 -86l12.5 9.5t32 24.5t40.5 32.5t38 32.5q-4 15 -28 15h-295v376h201z
" />
</svg>
