<?xml version="1.0" standalone="no"?>
<!DOCTYPE svg PUBLIC "-//W3C//DTD SVG 1.1//EN" "http://www.w3.org/Graphics/SVG/1.1/DTD/svg11.dtd" >
<svg xmlns="http://www.w3.org/2000/svg" xmlns:xlink="http://www.w3.org/1999/xlink" version="1.1" viewBox="-10 0 1010 1000">
   <path fill="currentColor"
d="M767 890l72 -91l13 10t33.5 26t43 34t41.5 34q-4 16 -29 16h-902l-8 -29h401v-300h-275l-8 -29h283v-256h-177q-94 155 -222 245l-11 -9q39 -57 74.5 -133.5t65 -164.5t46.5 -178l168 50q-5 21 -39 21q-15 38 -31 73.5t-35 67.5h161v-242l166 16q-2 11 -9.5 18.5
t-27.5 10.5v197h158l69 -85l21.5 15.5t51 38t53.5 43.5q-4 16 -30 16h-323v256h125l70 -87l13 9.5t33 25t42 33t40 32.5q-4 16 -27 16h-296v300h206z" />
</svg>
