<?xml version="1.0" standalone="no"?>
<!DOCTYPE svg PUBLIC "-//W3C//DTD SVG 1.1//EN" "http://www.w3.org/Graphics/SVG/1.1/DTD/svg11.dtd" >
<svg xmlns="http://www.w3.org/2000/svg" xmlns:xlink="http://www.w3.org/1999/xlink" version="1.1" viewBox="-10 0 1010 1000">
   <path fill="currentColor"
d="M555 848h211v-271h-211v271zM230 577v271h205v-271h-205zM435 295h-205v254h205v-254zM766 295h-211v254h211v-254zM813 199l122 96q-14 19 -50 26v606q-1 4 -17 12.5t-39 15.5t-45 7h-18v-85h-536v50q0 7 -14.5 17t-37 17.5t-47.5 7.5h-18v-754l126 51h196v-226l157 15
q-1 10 -9 17.5t-28 10.5v183h199z" />
</svg>
