<?xml version="1.0" standalone="no"?>
<!DOCTYPE svg PUBLIC "-//W3C//DTD SVG 1.1//EN" "http://www.w3.org/Graphics/SVG/1.1/DTD/svg11.dtd" >
<svg xmlns="http://www.w3.org/2000/svg" xmlns:xlink="http://www.w3.org/1999/xlink" version="1.1" viewBox="-10 0 1010 1000">
   <path fill="currentColor"
d="M933 422h-358q43 79 108 144t143 112t157 73l-3 10q-37 8 -64.5 37t-40.5 76q-228 -135 -319 -452h-1v515q0 5 -25.5 19t-72.5 14h-22v-407q-71 102 -173 186t-230 145l-9 -10q78 -58 144.5 -134.5t118.5 -161t84 -166.5h-319l-9 -28h393v-192q-82 7 -167.5 12t-166.5 5
l-2 -16q86 -12 178 -31t179.5 -42t163 -48.5t128.5 -49.5l123 115q-9 7 -25.5 7.5t-42.5 -9.5q-52 12 -115 23t-133 20v206h211l70 -87l12.5 9.5t32.5 25t41.5 32.5t39.5 32q-4 16 -29 16z" />
</svg>
