<?xml version="1.0" standalone="no"?>
<!DOCTYPE svg PUBLIC "-//W3C//DTD SVG 1.1//EN" "http://www.w3.org/Graphics/SVG/1.1/DTD/svg11.dtd" >
<svg xmlns="http://www.w3.org/2000/svg" xmlns:xlink="http://www.w3.org/1999/xlink" version="1.1" viewBox="-10 0 1010 1000">
   <path fill="currentColor"
d="M260 616l135 73q-4 7 -12.5 11t-26.5 1q-34 41 -83 84t-109 81.5t-127 64.5l-9 -11q50 -41 95 -94t80.5 -108t56.5 -102zM626 632l9 -7q96 23 155.5 58t88.5 74t34 74t-9 59t-40 29t-59 -17q-13 -48 -41.5 -97t-64.5 -94t-73 -79zM667 380l8 -7q90 16 145.5 44.5t83 62.5
t32.5 65.5t-7.5 53.5t-36.5 27.5t-55 -13.5q-7 -23 -19 -47.5t-28 -48.5q-48 9 -103.5 18t-120.5 19v283q0 38 -10 66.5t-42 45.5t-98 22q-1 -26 -4.5 -45.5t-13.5 -32.5q-9 -11 -25 -20.5t-49 -14.5v-13l12.5 1t30 2t33 2t22.5 1q11 0 15 -5t4 -12v-261q-58 8 -120 17
t-129 17q-12 16 -27 21l-52 -133l19 -2.5t33 -7.5q53 -15 114 -41.5t124 -60.5t121 -70q-63 14 -142 30.5t-168 32.5q-5 7 -11 11t-11 6l-49 -120l13 -3t23 -7q39 -14 84.5 -41.5t89 -62t78 -68.5t53.5 -60l137 98q-4 6 -14 9t-26 -1q-35 23 -89 49.5t-116 52t-123 44.5
q64 -2 151.5 -4t181.5 -6q47 -32 83.5 -61.5t61.5 -54.5l123 116q-5 6 -18 8t-30 -5q-41 26 -104 56t-139.5 61t-157.5 59t-159 51q96 -1 233.5 -4.5t291.5 -7.5q-24 -32 -51 -60.5t-53 -50.5z" />
</svg>
