<?xml version="1.0" standalone="no"?>
<!DOCTYPE svg PUBLIC "-//W3C//DTD SVG 1.1//EN" "http://www.w3.org/Graphics/SVG/1.1/DTD/svg11.dtd" >
<svg xmlns="http://www.w3.org/2000/svg" xmlns:xlink="http://www.w3.org/1999/xlink" version="1.1" viewBox="-10 0 1010 1000">
   <path fill="currentColor"
d="M303 860h406v-193h-406v193zM709 450h-406v189h406v-189zM709 239h-406v182h406v-182zM759 143l118 95q-5 7 -15.5 13t-27.5 9v666q-1 4 -18 13t-40.5 16.5t-46.5 7.5h-20v-75h-406v34q0 7 -14.5 17.5t-37.5 18.5t-50 8h-20v-809l131 53h90q8 -41 14.5 -91t9.5 -89
l179 29q-2 10 -10.5 16t-26.5 7q-23 28 -56 63t-68 65h255z" />
</svg>
