<?xml version="1.0" standalone="no"?>
<!DOCTYPE svg PUBLIC "-//W3C//DTD SVG 1.1//EN" "http://www.w3.org/Graphics/SVG/1.1/DTD/svg11.dtd" >
<svg xmlns="http://www.w3.org/2000/svg" xmlns:xlink="http://www.w3.org/1999/xlink" version="1.1" viewBox="-10 0 1010 1000">
   <path fill="currentColor"
d="M812 145l112 90q-11 14 -41 20v669q0 4 -16 13t-38.5 16t-44.5 7h-19v-94h-533v67q-1 6 -25.5 20t-76.5 14h-15v-800l111 39q47 -35 99.5 -80t97.5 -91l112 114q-7 7 -17.5 7.5t-28.5 -5.5q-62 31 -130 54t-127 37v274h82l61 -86l19 16.5t44.5 39.5t45.5 43q-3 16 -27 16
h-225v292h533v-292h-213l-9 -29h222v-279h-232l-9 -29h231z" />
</svg>
