<?xml version="1.0" standalone="no"?>
<!DOCTYPE svg PUBLIC "-//W3C//DTD SVG 1.1//EN" "http://www.w3.org/Graphics/SVG/1.1/DTD/svg11.dtd" >
<svg xmlns="http://www.w3.org/2000/svg" xmlns:xlink="http://www.w3.org/1999/xlink" version="1.1" viewBox="-10 0 1010 1000">
   <path fill="currentColor"
d="M102 42l9 -7q72 10 115 31.5t62.5 48t20.5 51.5t-12.5 42t-36 20.5t-49.5 -13.5q-11 -45 -43 -93t-66 -80zM336 454l96 78q-5 7 -13 9.5t-25 3.5q-25 57 -71.5 112.5t-106.5 99.5q2 1 5 3t7 4q40 32 95.5 49.5t134.5 23t188 5.5q86 0 163.5 -1t165.5 -6v12
q-35 7 -55 35.5t-25 62.5h-289q-108 0 -179 -14.5t-120 -46t-92 -83.5q-20 -27 -34 1q-13 22 -31 59.5t-35 75.5q3 13 -9 21l-79 -114q25 -13 54.5 -32t56 -35.5t41.5 -21.5q34 -46 62 -104.5t42 -113.5h-77l-35 32l-84 -62q8 -5 18.5 -10t20.5 -9q23 -35 50 -81t46 -83
h-169l-9 -29h183l48 -49l97 88q-7 7 -22.5 11t-35.5 5q-19 33 -46 77.5t-50 80.5h62z" />
</svg>
