<?xml version="1.0" standalone="no"?>
<!DOCTYPE svg PUBLIC "-//W3C//DTD SVG 1.1//EN" "http://www.w3.org/Graphics/SVG/1.1/DTD/svg11.dtd" >
<svg xmlns="http://www.w3.org/2000/svg" xmlns:xlink="http://www.w3.org/1999/xlink" version="1.1" viewBox="-10 0 1010 1000">
   <path fill="currentColor"
d="M48 969l-4 -12q63 -25 125.5 -61.5t114 -76t82.5 -73.5l134 83q-6 8 -20.5 11t-37.5 -2q-45 28 -108.5 53.5t-136.5 45.5t-149 32zM548 788l4 -13q120 7 196.5 24t117.5 39.5t54 46t5.5 43t-27.5 30.5t-45.5 9.5t-48.5 -21.5q-32 -37 -95 -80.5t-161 -77.5zM681 264h-352
v123h352v-123zM329 696h352v-127h-352v127zM329 416v124h352v-124h-352zM767 110l65 -78l20.5 15t49 35.5t51.5 39.5q-4 16 -28 16h-348q-52 57 -107 98h201l55 -61l113 87q-4 6 -14.5 12t-25.5 9v442q0 4 -16 13t-39 16t-44 7h-19v-37h-352v12q0 6 -14.5 15t-37.5 16.5
t-48 7.5h-18v-589l125 50h90q3 -21 5 -47.5t3 -50.5h-378l-8 -28h719z" />
</svg>
