<?xml version="1.0" standalone="no"?>
<!DOCTYPE svg PUBLIC "-//W3C//DTD SVG 1.1//EN" "http://www.w3.org/Graphics/SVG/1.1/DTD/svg11.dtd" >
<svg xmlns="http://www.w3.org/2000/svg" xmlns:xlink="http://www.w3.org/1999/xlink" version="1.1" viewBox="-10 0 1010 1000">
   <path fill="currentColor"
d="M780 51l127 76q-4 7 -12.5 11t-25.5 1q-33 30 -78.5 67t-94.5 66l-10 -10q19 -31 37 -69.5t33.5 -76.5t23.5 -65zM89 69l9 -6q71 15 112.5 40.5t59.5 54t17 54t-16 42.5t-38 19t-50 -17q-7 -50 -35 -100t-59 -87zM262 485h178v-170h-146l98 65q-4 7 -12.5 9.5t-25.5 -1.5
q-26 19 -62.5 39.5t-77.5 37.5zM735 485l51 -59l115 86q-4 5 -14.5 11.5t-26.5 9.5v313q0 36 -10 62t-41 41.5t-95 21.5q-2 -26 -6 -44.5t-15 -29.5q-11 -12 -28.5 -21.5t-52.5 -14.5v-13l14 1t33.5 2t37.5 2t27 1q13 0 17 -5t4 -14v-322h-191v408q0 4 -24.5 16.5
t-68.5 12.5h-21v-332q-3 1 -5.5 0.5t-6.5 -0.5q-27 49 -68.5 110.5t-91.5 111.5l-12 -10q21 -43 38 -94.5t30 -102t20 -88.5l96 46v-78h-186v417q0 6 -14 15t-36.5 16t-46.5 7h-17v-475q-53 18 -106 30l-9 -13q48 -25 94.5 -57.5t86 -68.5t65.5 -69h-229l-8 -28h315v-254
l141 12q-1 10 -8 16.5t-24 9.5v216h79v-254l143 12q-1 10 -8 16.5t-25 9.5v216h138l64 -78l20 14.5t48 35.5t51 40q-4 16 -28 16h-386v170h181zM566 569l12 -5q72 38 108 78.5t44.5 76t-2 59t-32 28t-46.5 -17.5q-4 -36 -17.5 -74.5t-31.5 -76t-35 -68.5zM659 332l4 -14
q96 5 157 23t94 42.5t43.5 49.5t3.5 44.5t-26.5 27t-44.5 -2.5q-17 -23 -50.5 -52.5t-79.5 -60.5t-101 -57z" />
</svg>
