<?xml version="1.0" standalone="no"?>
<!DOCTYPE svg PUBLIC "-//W3C//DTD SVG 1.1//EN" "http://www.w3.org/Graphics/SVG/1.1/DTD/svg11.dtd" >
<svg xmlns="http://www.w3.org/2000/svg" xmlns:xlink="http://www.w3.org/1999/xlink" version="1.1" viewBox="-10 0 1010 1000">
   <path fill="currentColor"
d="M91 99q80 35 127 76.5t67.5 82t20.5 75t-15.5 55.5t-40 23t-53.5 -22q-5 -48 -23 -99t-42.5 -98.5t-50.5 -86.5zM358 36q76 37 119.5 79.5t61.5 84.5t16 76.5t-19 55.5t-42.5 22t-53.5 -25q-1 -48 -15 -99t-34.5 -99.5t-43.5 -88.5zM792 62l161 77q-4 7 -12.5 12t-27.5 4
q-37 60 -90 129t-119.5 135t-144.5 118l-8 -9q39 -50 76 -110t68.5 -123t56.5 -123.5t40 -109.5z" />
</svg>
