<?xml version="1.0" encoding="UTF-8" standalone="no"?>
<svg
   xmlns:dc="http://purl.org/dc/elements/1.1/"
   xmlns:cc="http://creativecommons.org/ns#"
   xmlns:rdf="http://www.w3.org/1999/02/22-rdf-syntax-ns#"
   xmlns:svg="http://www.w3.org/2000/svg"
   xmlns="http://www.w3.org/2000/svg"
   xmlns:sodipodi="http://sodipodi.sourceforge.net/DTD/sodipodi-0.dtd"
   xmlns:inkscape="http://www.inkscape.org/namespaces/inkscape"
   version="1.1"
   viewBox="-10 0 1010 1000"
   id="svg12"
   sodipodi:docname="五 copy.svg"
   inkscape:version="1.0.1 (c497b03c, 2020-09-10)">
  <metadata
     id="metadata18">
    <rdf:RDF>
      <cc:Work
         rdf:about="">
        <dc:format>image/svg+xml</dc:format>
        <dc:type
           rdf:resource="http://purl.org/dc/dcmitype/StillImage" />
      </cc:Work>
    </rdf:RDF>
  </metadata>
  <defs
     id="defs16" />
  <sodipodi:namedview
     pagecolor="#ffffff"
     bordercolor="#666666"
     borderopacity="1"
     objecttolerance="10"
     gridtolerance="10"
     guidetolerance="10"
     inkscape:pageopacity="0"
     inkscape:pageshadow="2"
     inkscape:window-width="1062"
     inkscape:window-height="843"
     id="namedview14"
     showgrid="false"
     inkscape:zoom="0.51215453"
     inkscape:cx="595.89592"
     inkscape:cy="559.50745"
     inkscape:window-x="0"
     inkscape:window-y="23"
     inkscape:window-maximized="0"
     inkscape:current-layer="svg12" />
  <path
     id="path34"
     d="M 787 829 L 293 829 L 70 829 L 70 901 L 953 901 L 953 829 L 787 829 z "
     transform="translate(-10)" />
  <path
     id="path32"
     d="M 133 140 L 133 213 L 416 213 L 497 213 L 881 213 L 881 140 L 133 140 z "
     transform="translate(-10)" />
  <path
     d="m 802.06435,752.82703 -59,53 q -37,-47 -93,-105.5 -56,-58.5 -121,-119.5 -63,65 -131,122.5 -68,57.5 -138,102.5 -10,-11 -27.5,-28.5 -17.5,-17.5 -31.5,-26.5 73,-44 143,-100 70,-56 133,-120 -61,-56 -123,-111 -62,-55 -121,-103 l 52,-44 q 57,46 119,99 62,53 122,107 51,-56 95.5,-117.5 44.5,-61.5 80.5,-124.5 l 69,28 q -41,70 -89.5,135.5 -48.5,65.5 -102.5,126.5 67,61 125,119.5 58,58.5 98,106.5 z"
     id="path44" />
</svg>
