<?xml version="1.0" standalone="no"?>
<!DOCTYPE svg PUBLIC "-//W3C//DTD SVG 1.1//EN" "http://www.w3.org/Graphics/SVG/1.1/DTD/svg11.dtd" >
<svg xmlns="http://www.w3.org/2000/svg" xmlns:xlink="http://www.w3.org/1999/xlink" version="1.1" viewBox="-10 0 1010 1000">
   <path fill="currentColor"
d="M783 290l56 30q-23 65 -58 135.5t-76 138t-84 123.5q43 29 80 58t62 56l-53 68q-28 -31 -71.5 -66t-95 -70t-107 -67.5t-108.5 -57.5l48 -60q43 20 88.5 44.5t90.5 51.5q34 -44 66 -96t60 -106.5t49 -103.5h-339q-44 88 -98.5 168t-119.5 143q-13 -11 -33.5 -24
t-36.5 -20q75 -69 135.5 -160.5t105.5 -191.5t73 -192l83 19q-15 45 -33.5 91t-39.5 92h341z" />
</svg>
