<?xml version="1.0" standalone="no"?>
<!DOCTYPE svg PUBLIC "-//W3C//DTD SVG 1.1//EN" "http://www.w3.org/Graphics/SVG/1.1/DTD/svg11.dtd" >
<svg xmlns="http://www.w3.org/2000/svg" xmlns:xlink="http://www.w3.org/1999/xlink" version="1.1" viewBox="-10 0 1010 1000">
   <path fill="currentColor"
d="M879 841l-67 63q-44 -70 -113.5 -155.5t-152.5 -175.5q-83 100 -176.5 183.5t-197.5 148.5q-8 -13 -26 -33t-31 -32q106 -62 200.5 -143.5t176.5 -180.5q-74 -78 -151.5 -154t-151.5 -142l57 -50q71 63 147.5 135t149.5 147q61 -81 113 -170t94 -185l76 24
q-96 211 -228 387q86 90 160 176t121 157z" />
</svg>
