<?xml version="1.0" standalone="no"?>
<!DOCTYPE svg PUBLIC "-//W3C//DTD SVG 1.1//EN" "http://www.w3.org/Graphics/SVG/1.1/DTD/svg11.dtd" >
<svg xmlns="http://www.w3.org/2000/svg" xmlns:xlink="http://www.w3.org/1999/xlink" version="1.1" viewBox="-10 0 1010 1000">
   <path fill="currentColor"
d="M935 191h-523q-1 49 -4 100.5t-8 103.5h444v14t-1 22q-7 121 -13.5 206t-15 140.5t-19 88t-25.5 48.5q-17 19 -36.5 26.5t-48.5 9.5q-28 2 -76 1t-100 -5q-1 -17 -8 -37t-18 -36q56 6 105 7t69 1q17 0 27.5 -2.5t19.5 -10.5q15 -14 26 -58t19.5 -127.5t15.5 -215.5h-374
q-14 98 -47 190t-93.5 169.5t-159.5 132.5q-9 -15 -24 -31.5t-30 -26.5q83 -44 137 -105.5t85.5 -134.5t47 -152.5t20.5 -160.5t7 -157h-269v-72h870v72z" />
</svg>
