<?xml version="1.0" standalone="no"?>
<!DOCTYPE svg PUBLIC "-//W3C//DTD SVG 1.1//EN" "http://www.w3.org/Graphics/SVG/1.1/DTD/svg11.dtd" >
<svg xmlns="http://www.w3.org/2000/svg" xmlns:xlink="http://www.w3.org/1999/xlink" version="1.1" viewBox="-10 0 1010 1000">
   <path fill="currentColor"
d="M935 309h-291q-7 133 -32.5 241.5t-93.5 191.5q157 114 432 145q-12 13 -24.5 33t-19.5 37q-281 -39 -441 -160q-60 51 -145.5 89t-206.5 64q-5 -15 -18 -33.5t-24 -31.5q116 -23 197.5 -58t136.5 -81q-70 -69 -118.5 -162t-80.5 -211l70 -17q27 106 71.5 190t110.5 147
q59 -73 80.5 -168.5t26.5 -215.5h-498v-72h501q1 -41 1 -86v-93h80q0 47 -0.5 92t-1.5 87h288v72z" />
</svg>
