<?xml version="1.0" standalone="no"?>
<!DOCTYPE svg PUBLIC "-//W3C//DTD SVG 1.1//EN" "http://www.w3.org/Graphics/SVG/1.1/DTD/svg11.dtd" >
<svg xmlns="http://www.w3.org/2000/svg" xmlns:xlink="http://www.w3.org/1999/xlink" version="1.1" viewBox="-10 0 1010 1000">
   <path fill="currentColor"
d="M930 186h-395v151h336v70h-336v156h385l-1 13.5t-3 21.5q-11 102 -23.5 168.5t-28 104.5t-35.5 55q-19 18 -41 24t-56 8q-28 1 -79.5 0t-107.5 -5q-1 -17 -9.5 -37t-20.5 -35q41 3 81 5t71.5 2.5t46.5 0.5q20 0 32 -1.5t22 -8.5q22 -16 38 -74t30 -170h-691v-338h73v266
h238v-377h-382v-71h856v71z" />
</svg>
