<?xml version="1.0" standalone="no"?>
<!DOCTYPE svg PUBLIC "-//W3C//DTD SVG 1.1//EN" "http://www.w3.org/Graphics/SVG/1.1/DTD/svg11.dtd" >
<svg xmlns="http://www.w3.org/2000/svg" xmlns:xlink="http://www.w3.org/1999/xlink" version="1.1" viewBox="-10 0 1010 1000">
   <path fill="currentColor"
d="M646 462h245v14.5t-1 22.5q-7 130 -14.5 211.5t-18.5 124.5t-29 61q-17 19 -37.5 26.5t-50.5 9.5q-27 2 -75.5 1t-100.5 -4q-2 -17 -10.5 -39t-20.5 -38q57 5 107.5 6.5t71.5 1.5q17 0 28 -2.5t19 -9.5q19 -17 30.5 -88.5t19.5 -224.5h-272q16 -46 34 -105t35 -122.5
t31 -123.5h-301v30q0 60 -4 131.5t-17 149.5t-39.5 158t-71.5 157t-113 147q-9 -12 -26.5 -30.5t-31.5 -28.5q81 -81 127 -172t67.5 -183t27.5 -176.5t6 -152.5v-30h-161v-72h636q-12 55 -27.5 116t-31.5 121.5t-31 112.5z" />
</svg>
