<?xml version="1.0" standalone="no"?>
<!DOCTYPE svg PUBLIC "-//W3C//DTD SVG 1.1//EN" "http://www.w3.org/Graphics/SVG/1.1/DTD/svg11.dtd" >
<svg xmlns="http://www.w3.org/2000/svg" xmlns:xlink="http://www.w3.org/1999/xlink" version="1.1" viewBox="-10 0 1010 1000">
   <path fill="currentColor"
d="M299 841h464q36 0 55.5 -16t28.5 -60.5t12 -129.5q16 9 38 16.5t38 11.5q-7 103 -25 157.5t-54.5 75t-99.5 20.5h-449q-109 0 -161.5 -37t-52.5 -101q0 -19 4.5 -39.5t21 -48.5t51.5 -68t94 -97.5t149.5 -137t219.5 -186.5h-534v-75h639l18 -5l52 37q-5 7 -15 11
q-147 119 -250.5 207t-171.5 150t-108.5 103.5t-60 68.5t-25 44t-5.5 30q0 36 34.5 52.5t92.5 16.5z" />
</svg>
