<?xml version="1.0" standalone="no"?>
<!DOCTYPE svg PUBLIC "-//W3C//DTD SVG 1.1//EN" "http://www.w3.org/Graphics/SVG/1.1/DTD/svg11.dtd" >
<svg xmlns="http://www.w3.org/2000/svg" xmlns:xlink="http://www.w3.org/1999/xlink" version="1.1" viewBox="-10 0 1010 1000">
   <path fill="currentColor"
d="M870 206l57 21q-27 67 -62.5 134.5t-71.5 114.5l-64 -27q24 -32 48 -76t44 -90h-266v564q0 37 -10 56t-36 27q-25 10 -68.5 12t-109.5 1q-3 -15 -10.5 -37t-15.5 -38q50 1 93 1.5t58 -0.5q14 -1 19 -5.5t5 -17.5v-563h-214q-34 57 -72 108t-77 91q-10 -10 -31.5 -24.5
t-35.5 -22.5q51 -47 97 -109.5t84.5 -135t65.5 -147.5l77 20q-14 37 -31 74.5t-35 72.5h549z" />
</svg>
