<?xml version="1.0" standalone="no"?>
<!DOCTYPE svg PUBLIC "-//W3C//DTD SVG 1.1//EN" "http://www.w3.org/Graphics/SVG/1.1/DTD/svg11.dtd" >
<svg xmlns="http://www.w3.org/2000/svg" xmlns:xlink="http://www.w3.org/1999/xlink" version="1.1" viewBox="-10 0 1010 1000">
   <path fill="currentColor"
d="M839 124v75h-671v-75h671zM942 479h-471q-50 93 -108.5 182t-118.5 161l501 -38q-30 -47 -62.5 -94t-62.5 -88l66 -35q42 56 87 119.5t83.5 124t62.5 106.5l-69 42q-12 -23 -27 -50t-34 -57q-164 14 -274 24t-178 16t-106 10.5t-56.5 8.5t-30.5 9q-4 -14 -12 -39.5
t-16 -42.5q17 -5 35 -24t41 -50q15 -17 44.5 -60t64.5 -102t67 -123h-309v-75h883v75z" />
</svg>
