<?xml version="1.0" standalone="no"?>
<!DOCTYPE svg PUBLIC "-//W3C//DTD SVG 1.1//EN" "http://www.w3.org/Graphics/SVG/1.1/DTD/svg11.dtd" >
<svg xmlns="http://www.w3.org/2000/svg" xmlns:xlink="http://www.w3.org/1999/xlink" version="1.1" viewBox="-10 0 1010 1000">
   <path fill="currentColor"
d="M705 843h243v70h-896v-70h575q12 -66 24.5 -149t24 -171t20.5 -169h-334l-14 59q46 14 96 34t95.5 41t76.5 39l-40 58q-26 -17 -66 -37t-86 -40t-91 -36q-6 28 -13 56t-14 55q45 16 95.5 37.5t95.5 43.5t75 41l-38 57q-27 -19 -67.5 -40t-86.5 -42t-89 -38
q-10 39 -19.5 74.5t-18.5 66.5l-74 -13q17 -56 36 -127.5t38.5 -151.5t37 -160t32.5 -152h-236v-70h831v70h-517q-6 26 -12 53.5t-13 55.5h403q-7 66 -16 140t-19.5 148.5t-20 143t-18.5 123.5z" />
</svg>
