<?xml version="1.0" standalone="no"?>
<!DOCTYPE svg PUBLIC "-//W3C//DTD SVG 1.1//EN" "http://www.w3.org/Graphics/SVG/1.1/DTD/svg11.dtd" >
<svg xmlns="http://www.w3.org/2000/svg" xmlns:xlink="http://www.w3.org/1999/xlink" version="1.1" viewBox="-10 0 1010 1000">
   <path fill="currentColor"
d="M855 122v71h-704v-71h704zM705 868h129q20 0 30 -13t14.5 -51.5t6.5 -114.5q13 10 33.5 19t35.5 14q-4 85 -14.5 132t-33.5 66t-67 19h-143q-67 0 -90 -23.5t-23 -87.5v-356h-187q-7 80 -22.5 152.5t-47 134t-86.5 111t-141 84.5q-7 -14 -20.5 -31t-26.5 -27
q80 -30 129.5 -74t77 -98.5t40 -118t18.5 -133.5h-253v-72h875v72h-281v355q0 25 9 33t38 8z" />
</svg>
