<?xml version="1.0" standalone="no"?>
<!DOCTYPE svg PUBLIC "-//W3C//DTD SVG 1.1//EN" "http://www.w3.org/Graphics/SVG/1.1/DTD/svg11.dtd" >
<svg xmlns="http://www.w3.org/2000/svg" xmlns:xlink="http://www.w3.org/1999/xlink" version="1.1" viewBox="-10 0 1010 1000">
   <path fill="currentColor"
d="M365 568h428l-0.5 13t-2.5 21q-12 96 -24 158.5t-26.5 98.5t-34.5 53q-18 17 -39 22.5t-53 7.5q-27 1 -77.5 0.5t-106.5 -4.5q-5 -37 -28 -72q40 3 78 5t68.5 3t45.5 1q19 0 30.5 -1.5t21.5 -8.5q20 -16 36 -69.5t30 -159.5h-449q20 -46 41.5 -107.5t39.5 -118.5h-107
v-69q-31 37 -65.5 68.5t-69.5 58.5q-10 -11 -30.5 -26t-34.5 -25q93 -61 169.5 -155.5t120.5 -206.5l75 20q-63 152 -164 265h527v70h-347q-12 40 -25.5 80.5t-26.5 77.5zM595 67l67 -22q29 73 76 142t105 124.5t121 89.5q-13 10 -28.5 28t-24.5 33q-65 -40 -125 -101.5
t-109 -137t-82 -156.5z" />
</svg>
