<?xml version="1.0" standalone="no"?>
<!DOCTYPE svg PUBLIC "-//W3C//DTD SVG 1.1//EN" "http://www.w3.org/Graphics/SVG/1.1/DTD/svg11.dtd" >
<svg xmlns="http://www.w3.org/2000/svg" xmlns:xlink="http://www.w3.org/1999/xlink" version="1.1" viewBox="-10 0 1010 1000">
   <path fill="currentColor"
d="M488 261h416l-0.5 15.5t-1.5 23.5q-8 154 -16.5 261.5t-18.5 178t-22.5 110.5t-29.5 59q-17 21 -36.5 29t-48.5 11q-26 2 -70 1t-90 -4q-1 -17 -7.5 -38.5t-17.5 -37.5q51 4 94.5 5.5t62.5 1.5q16 0 26.5 -3t19.5 -12q18 -17 32 -74t25 -167t20 -286h-341
q-5 78 -23.5 160t-58 164t-109.5 159t-179 143q-9 -14 -26 -32t-31 -27q102 -60 167.5 -130t103.5 -144t55.5 -148.5t23.5 -144.5h-320v-74h324v-22v-21v-173h77v173v21v22z" />
</svg>
