<?xml version="1.0" standalone="no"?>
<!DOCTYPE svg PUBLIC "-//W3C//DTD SVG 1.1//EN" "http://www.w3.org/Graphics/SVG/1.1/DTD/svg11.dtd" >
<svg xmlns="http://www.w3.org/2000/svg" xmlns:xlink="http://www.w3.org/1999/xlink" version="1.1" viewBox="-10 0 1010 1000">
   <path fill="currentColor"
d="M306 183h608l-0.5 16t-0.5 24q-5 181 -10 305.5t-12 203t-16 121t-23 60.5q-16 22 -33 30.5t-43 11.5q-23 2 -61 1.5t-77 -3.5q-1 -14 -6.5 -34t-13.5 -33q41 4 77 4.5t52 0.5q25 0 38 -17q11 -13 19.5 -52t15 -111t11.5 -184.5t9 -272.5h-573q-21 36 -44 70t-48 64h61
v338h513v68h-513v72h-72v-465q-16 18 -31.5 35t-31.5 32q-10 -10 -29.5 -26t-33.5 -24q78 -66 142.5 -165t104.5 -209l74 19q-11 31 -24.5 61t-28.5 59zM469 303l69 11q-15 77 -40 139q37 30 76.5 65t74 68.5t56.5 60.5l-55 48q-28 -36 -78 -85.5t-101 -94.5
q-59 117 -152 191q-9 -9 -26.5 -24t-30.5 -23q81 -56 132.5 -147.5t74.5 -208.5z" />
</svg>
