<?xml version="1.0" standalone="no"?>
<!DOCTYPE svg PUBLIC "-//W3C//DTD SVG 1.1//EN" "http://www.w3.org/Graphics/SVG/1.1/DTD/svg11.dtd" >
<svg xmlns="http://www.w3.org/2000/svg" xmlns:xlink="http://www.w3.org/1999/xlink" version="1.1" viewBox="-10 0 1010 1000">
   <path fill="currentColor"
d="M917 871l-73 37q-7 -24 -17.5 -53t-23.5 -60q-173 13 -289.5 21.5t-188.5 14.5t-111.5 10.5t-59 8t-32.5 8.5q-4 -14 -14.5 -40t-19.5 -42q20 -7 43 -38.5t54 -82.5q17 -24 48.5 -81.5t70.5 -137t77.5 -171t68.5 -182.5l85 33q-43 117 -97 232.5t-112 220.5t-117 193
l567 -36q-25 -62 -54 -125t-56 -118l68 -30q25 51 51.5 108t52 113t46 107t33.5 90z" />
</svg>
