<?xml version="1.0" standalone="no"?>
<!DOCTYPE svg PUBLIC "-//W3C//DTD SVG 1.1//EN" "http://www.w3.org/Graphics/SVG/1.1/DTD/svg11.dtd" >
<svg xmlns="http://www.w3.org/2000/svg" xmlns:xlink="http://www.w3.org/1999/xlink" version="1.1" viewBox="-10 0 1010 1000">
   <path fill="currentColor"
d="M726 542h-337q34 55 80 103t101 89q49 -39 88.5 -87t67.5 -105zM942 362h-531q-7 27 -16.5 55t-20.5 57h391l12 -3l46 26q-32 86 -81.5 154.5t-113.5 121.5q69 43 148.5 74.5t165.5 49.5q-11 10 -24 29t-21 33q-91 -21 -172.5 -57t-152.5 -85q-73 51 -155.5 86t-171.5 58
q-6 -13 -19.5 -31.5t-24.5 -28.5q86 -20 165.5 -51t148.5 -76q-55 -44 -100.5 -95.5t-80.5 -109.5q-40 80 -98 154.5t-142 129.5q-7 -13 -20 -28.5t-26 -25.5q86 -53 142.5 -127t91.5 -155t55 -155h-275v-68h292q8 -35 13 -63.5t8 -50.5q-64 5 -127 9t-124 6
q-1 -14 -6 -32.5t-10 -30.5q92 -5 189 -12t191 -16.5t176 -22.5t143 -28l47 61q-81 20 -185 34.5t-217 24.5q-4 24 -10.5 55t-14.5 66h515v68z" />
</svg>
