<?xml version="1.0" standalone="no"?>
<!DOCTYPE svg PUBLIC "-//W3C//DTD SVG 1.1//EN" "http://www.w3.org/Graphics/SVG/1.1/DTD/svg11.dtd" >
<svg xmlns="http://www.w3.org/2000/svg" xmlns:xlink="http://www.w3.org/1999/xlink" version="1.1" viewBox="-10 0 1010 1000">
   <path fill="currentColor"
d="M790 275h-382q-21 30 -44.5 58.5t-47.5 55.5q51 30 104 66t101 72.5t84 69.5q59 -66 106.5 -146.5t78.5 -175.5zM835 198l54 25q-41 157 -114.5 278.5t-171 210.5t-212.5 149.5t-241 96.5q-6 -17 -19 -37.5t-25 -33.5q122 -32 235.5 -89.5t207.5 -143.5
q-33 -33 -80 -70.5t-99.5 -74.5t-104.5 -68q-28 26 -57.5 50t-60.5 46q-10 -11 -31 -29t-35 -28q119 -72 215 -186t152 -251l79 23q-16 35 -33.5 69.5t-37.5 66.5h365z" />
</svg>
