<?xml version="1.0" standalone="no"?>
<!DOCTYPE svg PUBLIC "-//W3C//DTD SVG 1.1//EN" "http://www.w3.org/Graphics/SVG/1.1/DTD/svg11.dtd" >
<svg xmlns="http://www.w3.org/2000/svg" xmlns:xlink="http://www.w3.org/1999/xlink" version="1.1" viewBox="-10 0 1010 1000">
   <path fill="currentColor"
d="M939 405h-377q35 110 90 204.5t131 165t172 110.5q-13 13 -29.5 33t-26.5 37q-144 -68 -241.5 -196.5t-156.5 -298.5q-24 96 -71 188.5t-126.5 171.5t-201.5 135q-8 -15 -24 -32.5t-32 -28.5q124 -54 202.5 -132.5t122.5 -170.5t64 -186h-369v-76h381q11 -79 12.5 -152
t2.5 -132h80q-1 60 -3 132.5t-13 151.5h413v76z" />
</svg>
