<?xml version="1.0" standalone="no"?>
<!DOCTYPE svg PUBLIC "-//W3C//DTD SVG 1.1//EN" "http://www.w3.org/Graphics/SVG/1.1/DTD/svg11.dtd" >
<svg xmlns="http://www.w3.org/2000/svg" xmlns:xlink="http://www.w3.org/1999/xlink" version="1.1" viewBox="-10 0 1010 1000">
   <path fill="currentColor"
d="M129 582v-63h736v63h-505q-7 24 -15.5 48t-16.5 47h458l-1.5 12t-3.5 20q-18 97 -36.5 148t-43.5 71q-16 13 -34.5 17.5t-46.5 6.5q-23 1 -68 0.5t-97 -4.5q-1 -15 -7 -34t-16 -33q52 5 99 6.5t67 1.5q17 0 28 -1.5t19 -7.5q16 -12 29.5 -45.5t25.5 -96.5h-395v1h-79
q15 -32 30 -74t28 -83h-155zM303 362h396q-61 -59 -100 -127h-190q-22 33 -48.5 65t-57.5 62zM937 235h-261q50 70 126 125.5t164 84.5q-9 14 -17.5 35t-12.5 36q-65 -26 -124.5 -65t-109.5 -87v61h-403v-60q-44 42 -97.5 79t-117.5 67q-7 -13 -20 -30.5t-24 -27.5
q92 -43 162 -99t118 -119h-256v-66h301q19 -31 32.5 -62t23.5 -62l77 11q-10 28 -22.5 56.5t-26.5 56.5h488v66z" />
</svg>
