<?xml version="1.0" standalone="no"?>
<!DOCTYPE svg PUBLIC "-//W3C//DTD SVG 1.1//EN" "http://www.w3.org/Graphics/SVG/1.1/DTD/svg11.dtd" >
<svg xmlns="http://www.w3.org/2000/svg" xmlns:xlink="http://www.w3.org/1999/xlink" version="1.1" viewBox="-10 0 1010 1000">
   <path fill="currentColor"
d="M245 281l70 13q-8 34 -18 65.5t-22 61.5q37 31 75 65.5t60 60.5l-43 54q-19 -25 -52 -57.5t-67 -63.5q-55 109 -137 180q-8 -9 -25.5 -24t-29.5 -24q71 -55 118.5 -141t70.5 -190zM935 591l-49 52q-25 -32 -70.5 -75.5t-91.5 -83.5q-20 40 -45.5 75t-55.5 62
q-8 -8 -24.5 -18t-30.5 -17q24 53 70.5 110t124 107.5t192.5 85.5q-12 12 -25.5 32.5t-21.5 35.5q-108 -35 -182.5 -85.5t-121.5 -105.5t-72.5 -105t-34.5 -83q-8 33 -33 83t-71.5 105t-120 105.5t-180.5 85.5q-7 -12 -21.5 -30.5t-27.5 -30.5q102 -32 174 -76.5t119 -95.5
t73.5 -101.5t37.5 -94t11 -72.5v-202h-399v-72h399v-134h79v134h405v72h-405v202q0 22 6 54t22 69q59 -50 97 -126.5t54 -169.5l70 10q-7 34 -15.5 67t-19.5 63q33 27 67.5 57.5t65.5 59t51 51.5z" />
</svg>
