<?xml version="1.0" standalone="no"?>
<!DOCTYPE svg PUBLIC "-//W3C//DTD SVG 1.1//EN" "http://www.w3.org/Graphics/SVG/1.1/DTD/svg11.dtd" >
<svg xmlns="http://www.w3.org/2000/svg" xmlns:xlink="http://www.w3.org/1999/xlink" version="1.1" viewBox="-10 0 1010 1000">
   <path fill="currentColor"
d="M462 45h75v504q0 34 -9.5 52t-34.5 28q-24 10 -66 12t-105 2q-2 -17 -10 -38.5t-17 -37.5q50 1 90.5 1h53.5q14 -1 18.5 -5t4.5 -15v-503zM677 194l67 -34q43 50 85.5 108.5t78 115.5t54.5 103l-74 40q-17 -45 -50.5 -103t-75.5 -118.5t-85 -111.5zM743 465l76 24
q-46 139 -131.5 233t-216.5 150.5t-316 85.5q-5 -17 -16.5 -38t-22.5 -34q176 -23 300.5 -73t204.5 -135.5t122 -212.5zM242 169l81 20q-24 60 -57.5 124t-73.5 123t-85 104q-13 -11 -31.5 -24t-33.5 -20q44 -43 82.5 -98.5t69 -115t48.5 -113.5z" />
</svg>
