<?xml version="1.0" standalone="no"?>
<!DOCTYPE svg PUBLIC "-//W3C//DTD SVG 1.1//EN" "http://www.w3.org/Graphics/SVG/1.1/DTD/svg11.dtd" >
<svg xmlns="http://www.w3.org/2000/svg" xmlns:xlink="http://www.w3.org/1999/xlink" version="1.1" viewBox="-10 0 1010 1000">
   <path fill="currentColor"
d="M220 451h319v-111h-318v46v32t-1 33zM805 164h-584v109h584v-109zM788 856v-155h-419v155h419zM935 518h-323v117h249v320h-73v-33h-419v35h-71v-322h241v-117h-321q-4 74 -16.5 152t-36 152t-64.5 136q-10 -9 -30.5 -21t-34.5 -18q38 -58 60.5 -126t33.5 -139t14 -139.5
t3 -128.5v-289h732v243h-267v111h323v67z" />
</svg>
