<?xml version="1.0" standalone="no"?>
<!DOCTYPE svg PUBLIC "-//W3C//DTD SVG 1.1//EN" "http://www.w3.org/Graphics/SVG/1.1/DTD/svg11.dtd" >
<svg xmlns="http://www.w3.org/2000/svg" xmlns:xlink="http://www.w3.org/1999/xlink" version="1.1" viewBox="-10 0 1010 1000">
   <path fill="currentColor"
d="M666 63l69 44q-68 49 -155 94.5t-179 83t-175 64.5q-8 -15 -23.5 -35.5t-29.5 -34.5q61 -17 128.5 -40.5t134 -52t126 -60t104.5 -63.5zM708 315l71 41q-65 60 -151 112.5t-181.5 95t-187.5 72.5q-8 -16 -22 -36t-30 -34q89 -26 183 -64.5t177.5 -86t140.5 -100.5z
M794 565l72 41q-73 86 -177 153.5t-228 116.5t-258 80q-7 -17 -20 -38t-27 -36q130 -27 251 -71.5t221 -106t166 -139.5z" />
</svg>
