<?xml version="1.0" standalone="no"?>
<!DOCTYPE svg PUBLIC "-//W3C//DTD SVG 1.1//EN" "http://www.w3.org/Graphics/SVG/1.1/DTD/svg11.dtd" >
<svg xmlns="http://www.w3.org/2000/svg" xmlns:xlink="http://www.w3.org/1999/xlink" version="1.1" viewBox="-10 0 1010 1000">
   <path fill="currentColor"
d="M610 231l-49 60q-29 -26 -71.5 -59.5t-89.5 -68.5t-89 -63l49 -53q42 28 89 62t90 66t71 56zM150 345l70 17q-11 55 -27 117.5t-38 121t-50 102.5l-69 -29q28 -43 50 -99t38.5 -116t25.5 -114zM454 875h192q29 0 43.5 -14.5t21 -56t9.5 -120.5q15 11 36 20t37 13
q-5 88 -18.5 138.5t-42.5 71.5t-83 21h-201q-54 0 -84 -11t-42.5 -39.5t-12.5 -79.5v-50q-53 36 -109 68.5t-115 61.5q-8 -13 -22.5 -30.5t-25.5 -27.5q73 -33 141 -74t131 -88v-392h77v330q131 -111 233 -243t170 -269l74 30q-85 160 -204.5 308.5t-272.5 267.5v109
q0 35 12.5 45.5t55.5 10.5zM737 409l66 -30q35 49 67 106t57.5 112t38.5 99l-70 34q-13 -44 -38 -100t-56.5 -114t-64.5 -107z" />
</svg>
