<?xml version="1.0" standalone="no"?>
<!DOCTYPE svg PUBLIC "-//W3C//DTD SVG 1.1//EN" "http://www.w3.org/Graphics/SVG/1.1/DTD/svg11.dtd" >
<svg xmlns="http://www.w3.org/2000/svg" xmlns:xlink="http://www.w3.org/1999/xlink" version="1.1" viewBox="-10 0 1010 1000">
   <path fill="currentColor"
d="M820 174l-50 56q-22 -19 -57.5 -41t-75 -44t-75.5 -39l49 -49q35 15 74.5 35.5t75.5 41.5t59 40zM798 380l72 34q-55 88 -126 162t-154 136q45 76 100.5 120t119.5 44q21 0 34 -16t21 -55t13 -107q14 13 35 24t37 16q-9 85 -25 132.5t-43.5 66t-72.5 18.5
q-88 0 -159.5 -52.5t-126.5 -143.5q-87 58 -183.5 104.5t-199.5 81.5q-7 -13 -23.5 -34.5t-27.5 -34.5q109 -33 209.5 -79.5t188.5 -104.5q-32 -70 -56.5 -153.5t-41.5 -175.5l-323 28l-7 -73l320 -26q-16 -118 -18 -244h82q0 61 4.5 121t11.5 116l476 -39l7 71l-473 40
q15 81 36.5 153.5t49.5 133.5q73 -56 134.5 -122t108.5 -142z" />
</svg>
