<?xml version="1.0" standalone="no"?>
<!DOCTYPE svg PUBLIC "-//W3C//DTD SVG 1.1//EN" "http://www.w3.org/Graphics/SVG/1.1/DTD/svg11.dtd" >
<svg xmlns="http://www.w3.org/2000/svg" xmlns:xlink="http://www.w3.org/1999/xlink" version="1.1" viewBox="-10 0 1010 1000">
   <path fill="currentColor"
d="M388 806l143 -25l6 74q-85 16 -171 32t-164.5 30.5t-141.5 26.5l-12 -79q18 -3 38 -6t42 -7v-607h72v594l114 -19v-776h74v306h143v72h-143v384zM707 853h136q21 0 31.5 -15t15 -53.5t6.5 -108.5q15 10 35 19t36 14q-4 80 -15 127.5t-34.5 68t-68.5 20.5h-151
q-46 0 -71.5 -12t-35.5 -41.5t-10 -83.5v-744h77v363q61 -34 118.5 -72.5t95.5 -73.5l61 59q-57 43 -130 85t-145 77v308q0 40 9 51.5t40 11.5z" />
</svg>
