<?xml version='1.0' encoding='ASCII' standalone='yes'?>
<svg xmlns="http://www.w3.org/2000/svg" xmlns:xlink="http://www.w3.org/1999/xlink" version="1.1" width="1010" viewBox="0 0 1010 1000" height="1000">
  <g>
    <g transform=" scale(0.500000 1.000000)"><path fill="currentColor" d="M750 110l81 20q-46 175 -113 310t-162 238q80 73 183 125.5t231 83.5q-13 11 -28.5 33t-24.5 38q-131 -34 -235 -90t-186 -132q-80 72 -180 127t-224 96q-7 -14 -24 -36t-31 -34q246 -74 402 -212q-92 -105 -155 -242.5t-105 -303.5l76 -17q37 152 96.5 279.5 t147.5 225.5q89 -95 149.5 -221t101.5 -288z"/>
</g>
    <g transform="translate(505.0, 0) scale(1)  scale(0.500000 1.000000)"><path fill="currentColor" d="M750 110l81 20q-46 175 -113 310t-162 238q80 73 183 125.5t231 83.5q-13 11 -28.5 33t-24.5 38q-131 -34 -235 -90t-186 -132q-80 72 -180 127t-224 96q-7 -14 -24 -36t-31 -34q246 -74 402 -212q-92 -105 -155 -242.5t-105 -303.5l76 -17q37 152 96.5 279.5 t147.5 225.5q89 -95 149.5 -221t101.5 -288z"/>
</g>
  </g>
</svg>
