<?xml version="1.0" standalone="no"?>
<!DOCTYPE svg PUBLIC "-//W3C//DTD SVG 1.1//EN" "http://www.w3.org/Graphics/SVG/1.1/DTD/svg11.dtd" >
<svg xmlns="http://www.w3.org/2000/svg" xmlns:xlink="http://www.w3.org/1999/xlink" version="1.1" viewBox="-10 0 1010 1000">
   <path fill="currentColor"
d="M940 465h-358q46 68 108 133.5t132.5 119t139.5 87.5q-13 12 -29.5 30.5t-27.5 34.5q-65 -37 -131 -92t-126.5 -121.5t-109.5 -137.5v436h-78v-433q-47 72 -107 137.5t-126 119.5t-131 91q-9 -15 -25.5 -33.5t-29.5 -30.5q69 -34 139 -87.5t131.5 -119t105.5 -134.5h-354
v-74h397v-190q-170 21 -334 32q-1 -15 -8 -35.5t-13 -33.5q92 -7 188.5 -16.5t189.5 -22t173.5 -28t139.5 -33.5l62 65q-67 18 -148.5 33.5t-171.5 29.5v199h402v74z" />
</svg>
