<?xml version="1.0" standalone="no"?>
<!DOCTYPE svg PUBLIC "-//W3C//DTD SVG 1.1//EN" "http://www.w3.org/Graphics/SVG/1.1/DTD/svg11.dtd" >
<svg xmlns="http://www.w3.org/2000/svg" xmlns:xlink="http://www.w3.org/1999/xlink" version="1.1" viewBox="-10 0 1010 1000">
   <path fill="currentColor"
d="M269 198l-59 39q-12 -21 -32 -49t-43 -57.5t-44 -53.5l58 -32q32 37 66.5 80t53.5 73zM254 518l39 15q-9 61 -23 114.5t-32 99.5q32 53 84.5 79.5t125 35t163.5 8.5q52 0 114 -1t123.5 -4.5t112.5 -8.5q-9 13 -16.5 36t-9.5 40q-70 4 -156.5 6t-168.5 2
q-99 0 -174.5 -9.5t-131 -37.5t-95.5 -82q-52 97 -122 151q-8 -12 -24.5 -29.5t-28.5 -25.5q65 -46 111 -128.5t68 -197.5h-87q-17 0 -34 4t-23 10q-4 -14 -13 -36.5t-15 -34.5q11 -3 22.5 -9.5t24.5 -19.5q10 -12 28.5 -38.5t41 -59t41.5 -62.5h-147v-65h192l12 -5l52 22
q-19 29 -46.5 71t-57 85t-55.5 77h91z" />
</svg>
