<?xml version="1.0" standalone="no"?>
<!DOCTYPE svg PUBLIC "-//W3C//DTD SVG 1.1//EN" "http://www.w3.org/Graphics/SVG/1.1/DTD/svg11.dtd" >
<svg xmlns="http://www.w3.org/2000/svg" xmlns:xlink="http://www.w3.org/1999/xlink" version="1.1" viewBox="-10 0 1010 1000">
   <path fill="currentColor"
d="M688 285h75v499q0 28 4.5 38.5t19.5 10.5h90q11 0 26 -1t25 -4q2 15 4 35t3 33q-10 4 -26 4.5t-33 0.5h-89q-60 0 -79.5 -27t-19.5 -92v-497zM228 278h73v121q0 61 -6 129.5t-26 138.5t-60.5 137.5t-109.5 127.5q-10 -12 -26.5 -27.5t-29.5 -24.5q64 -56 101.5 -117
t55.5 -124.5t23 -124.5t5 -115v-121zM455 276h75v681h-75v-681zM66 151h867v71h-867v-71z" />
</svg>
