<?xml version="1.0" standalone="no"?>
<!DOCTYPE svg PUBLIC "-//W3C//DTD SVG 1.1//EN" "http://www.w3.org/Graphics/SVG/1.1/DTD/svg11.dtd" >
<svg xmlns="http://www.w3.org/2000/svg" xmlns:xlink="http://www.w3.org/1999/xlink" version="1.1" viewBox="-10 0 1010 1000">
   <path fill="currentColor"
d="M833 85l83 29q-33 57 -73 116.5t-81 113.5t-78 95l-72 -31q37 -41 77.5 -96.5t78.5 -115t65 -111.5zM79 158l66 -30q29 36 56 78.5t48.5 84t31.5 74.5l-72 34q-10 -33 -30.5 -75t-46.5 -85.5t-53 -80.5zM358 92l70 -24q23 39 45 83t38.5 86.5t23.5 75.5l-75 28
q-7 -33 -23 -76t-36.5 -88.5t-42.5 -84.5z" />
</svg>
