<?xml version="1.0" standalone="no"?>
<!DOCTYPE svg PUBLIC "-//W3C//DTD SVG 1.1//EN" "http://www.w3.org/Graphics/SVG/1.1/DTD/svg11.dtd" >
<svg xmlns="http://www.w3.org/2000/svg" xmlns:xlink="http://www.w3.org/1999/xlink" version="1.1" viewBox="-10 0 1010 1000">
   <path fill="currentColor"
d="M422 771q0 38 34 58t88 20q63 0 86 -29.5t23 -79.5v-16t-1 -18q-47 -16 -103 -16q-55 0 -91 22t-36 59zM725 120q-3 16 -4.5 31t-2.5 30q-1 20 -1.5 53t-0.5 68q46 -4 89.5 -10t83.5 -13v77q-41 7 -84.5 11.5t-88.5 7.5q1 76 5 149t7 136q61 24 109.5 59t87.5 70l-43 67
q-37 -35 -75 -64.5t-76 -51.5v10v10q0 41 -15 78.5t-52.5 61t-105.5 23.5q-100 0 -153.5 -39t-53.5 -106q0 -62 53.5 -106t151.5 -44q50 0 93 9q-2 -58 -5.5 -127t-4.5 -131q-24 1 -48 1.5t-48 0.5q-43 0 -83.5 -1.5t-84.5 -4.5v-75q43 4 84.5 6t84.5 2q24 0 47.5 -0.5
t47.5 -1.5v-124q0 -13 -1 -31t-3 -31h90zM231 127q-4 13 -9.5 33t-7.5 34q-7 35 -16 86t-16.5 108.5t-12.5 112t-5 96.5q0 70 10 140q12 -35 28 -76t29 -71l41 32q-12 34 -26.5 76.5t-27 81t-18.5 63.5q-2 10 -3 23t-1 22q1 7 1.5 17t1.5 18l-70 5q-15 -54 -26.5 -134.5
t-11.5 -182.5q0 -55 5.5 -115.5t13 -118.5t15.5 -106.5t12 -79.5q2 -17 4 -36.5t2 -35.5zM811 88q9 18 20 43t21.5 50.5t17.5 45.5l-51 18q-11 -32 -27 -72.5t-30 -69.5zM911 57q14 28 32 68t29 70l-51 18q-12 -33 -27.5 -72.5t-31.5 -67.5z" />
</svg>
