<?xml version="1.0" standalone="no"?>
<!DOCTYPE svg PUBLIC "-//W3C//DTD SVG 1.1//EN" "http://www.w3.org/Graphics/SVG/1.1/DTD/svg11.dtd" >
<svg xmlns="http://www.w3.org/2000/svg" xmlns:xlink="http://www.w3.org/1999/xlink" version="1.1" viewBox="-10 0 1010 1000">
   <path fill="currentColor"
d="M355 359l63 -34q39 47 80.5 100.5t78 104t59.5 88.5l-67 41q-22 -39 -58.5 -91.5t-77 -107.5t-78.5 -101zM242 800l512 -10v-599h-512v609zM178 116h658v810h-82v-63q-148 4 -247 6.5t-160.5 4t-95.5 3t-51 3.5t-28 5q-6 -15 -20.5 -37.5t-24.5 -34.5q12 -8 24.5 -27.5
t12.5 -50.5v-615h14v-4z" />
</svg>
