<?xml version="1.0" standalone="no"?>
<!DOCTYPE svg PUBLIC "-//W3C//DTD SVG 1.1//EN" "http://www.w3.org/Graphics/SVG/1.1/DTD/svg11.dtd" >
<svg xmlns="http://www.w3.org/2000/svg" xmlns:xlink="http://www.w3.org/1999/xlink" version="1.1" viewBox="-10 0 1010 1000">
   <path fill="currentColor"
d="M945 183h-563q-15 69 -33.5 144.5t-35.5 139.5h526l-0.5 13.5t-2.5 21.5q-15 135 -31 220.5t-34 133.5t-41 69q-18 19 -38.5 25.5t-51.5 8.5q-26 1 -72.5 0t-98.5 -4q-1 -17 -8 -37.5t-18 -36.5q55 5 103 6.5t70 1.5q17 0 29 -2t22 -10q26 -22 47.5 -101t40.5 -241h-543
q14 -45 30 -105t32 -124.5t28 -122.5h-244v-68h887v68z" />
</svg>
