<?xml version="1.0" standalone="no"?>
<!DOCTYPE svg PUBLIC "-//W3C//DTD SVG 1.1//EN" "http://www.w3.org/Graphics/SVG/1.1/DTD/svg11.dtd" >
<svg xmlns="http://www.w3.org/2000/svg" xmlns:xlink="http://www.w3.org/1999/xlink" version="1.1" viewBox="-10 0 1010 1000">
   <path fill="currentColor"
d="M630 201l53 24q-17 70 -40 133.5t-51 121.5q34 90 88.5 170t126.5 142t156 98q-13 10 -28.5 30t-24.5 35q-119 -56 -211 -159.5t-152 -234.5q-85 141 -199 240t-242 158q-8 -14 -25.5 -34.5t-31.5 -30.5q121 -51 226.5 -136t186 -204.5t124.5 -274.5h-261
q-46 88 -102 163.5t-119 131.5q-10 -11 -31 -27.5t-35 -26.5q101 -81 178 -206t123 -270l78 18q-12 37 -26 72.5t-30 70.5h255z" />
</svg>
