<?xml version="1.0" standalone="no"?>
<!DOCTYPE svg PUBLIC "-//W3C//DTD SVG 1.1//EN" "http://www.w3.org/Graphics/SVG/1.1/DTD/svg11.dtd" >
<svg xmlns="http://www.w3.org/2000/svg" xmlns:xlink="http://www.w3.org/1999/xlink" version="1.1" viewBox="-10 0 1010 1000">
   <path fill="currentColor"
d="M443 55l77 28q-49 77 -113.5 156.5t-137.5 152t-147 129.5q-10 -12 -27 -28t-30 -26q73 -52 144.5 -121.5t132.5 -145.5t101 -145zM943 906l-70 39q-10 -23 -25 -50.5t-32 -55.5q-146 13 -250.5 21.5t-176.5 14.5t-117 10t-71.5 7t-40 5.5t-23.5 6.5q-4 -13 -13.5 -36.5
t-18.5 -39.5q23 -5 56 -30.5t78 -66.5q25 -21 72 -67.5t107 -111.5t123 -142t120 -158l76 36q-115 155 -237 288t-241 236l513 -41q-33 -49 -68.5 -97.5t-69.5 -90.5l66 -33q47 56 94 120.5t86.5 126t62.5 109.5z" />
</svg>
