<?xml version="1.0" standalone="no"?>
<!DOCTYPE svg PUBLIC "-//W3C//DTD SVG 1.1//EN" "http://www.w3.org/Graphics/SVG/1.1/DTD/svg11.dtd" >
<svg xmlns="http://www.w3.org/2000/svg" xmlns:xlink="http://www.w3.org/1999/xlink" version="1.1" viewBox="-10 0 1010 1000">
   <path fill="currentColor"
d="M426 854h327q43 0 64.5 -13.5t31 -50.5t15.5 -106q14 10 34 18t36 12q-7 78 -23 123.5t-52 65t-105 19.5h-326q-70 0 -110.5 -13t-57 -46.5t-16.5 -95.5v-303l-188 59l-20 -67l208 -65v-311h73v289l434 -136l21 -17l56 19l-4 12q-2 69 -6.5 147.5t-11 153t-15.5 130.5
l-61 -18q6 -44 10.5 -103.5t7.5 -125t4 -127.5l-435 137v328q0 34 8.5 52.5t32 25.5t68.5 7z" />
</svg>
