<?xml version="1.0" standalone="no"?>
<!DOCTYPE svg PUBLIC "-//W3C//DTD SVG 1.1//EN" "http://www.w3.org/Graphics/SVG/1.1/DTD/svg11.dtd" >
<svg xmlns="http://www.w3.org/2000/svg" xmlns:xlink="http://www.w3.org/1999/xlink" version="1.1" viewBox="-10 0 1010 1000">
   <path fill="currentColor"
d="M935 176h-728v226q0 61 -4 132.5t-14.5 145.5t-31.5 144.5t-55 129.5q-10 -9 -30.5 -21t-34.5 -18q33 -56 52.5 -121t29 -133.5t12.5 -135t3 -123.5v-298h801v72zM547 213h77q-2 51 -6.5 104.5t-12.5 109.5q32 102 82.5 192t118 159t150.5 109q-12 10 -27 28.5t-23 32.5
q-108 -58 -189.5 -160.5t-135.5 -234.5q-21 79 -58.5 153t-98.5 137t-152 109q-8 -13 -23 -30t-29 -27q90 -43 149 -103t93.5 -132t51.5 -149t23.5 -153t9.5 -145z" />
</svg>
