<?xml version="1.0" standalone="no"?>
<!DOCTYPE svg PUBLIC "-//W3C//DTD SVG 1.1//EN" "http://www.w3.org/Graphics/SVG/1.1/DTD/svg11.dtd" >
<svg xmlns="http://www.w3.org/2000/svg" xmlns:xlink="http://www.w3.org/1999/xlink" version="1.1" viewBox="-10 0 1010 1000">
   <path fill="currentColor"
d="M785 529l13 -5l57 28q-41 56 -95.5 126.5t-113 143t-112.5 137.5l-76 -35q44 -50 91 -106.5t91.5 -112t80.5 -102.5h-558v-74h622zM333 358h345v70h-345v-70zM495 37l70 34q-4 7 -9 13.5t-10 13.5q50 58 120 115.5t147.5 106t147.5 79.5q-15 12 -31 32t-27 35
q-65 -34 -137 -83.5t-140 -108.5t-123 -121q-81 97 -188 179.5t-220 139.5q-10 -15 -25 -33.5t-32 -31.5q90 -41 175.5 -98.5t158.5 -127t123 -144.5z" />
</svg>
