<?xml version="1.0" standalone="no"?>
<!DOCTYPE svg PUBLIC "-//W3C//DTD SVG 1.1//EN" "http://www.w3.org/Graphics/SVG/1.1/DTD/svg11.dtd" >
<svg xmlns="http://www.w3.org/2000/svg" xmlns:xlink="http://www.w3.org/1999/xlink" version="1.1" viewBox="-10 0 1010 1000">
   <path fill="currentColor"
d="M280 563v-127h76v128q0 50 -7 102.5t-29 104t-66.5 99t-119.5 88.5q-9 -13 -27.5 -29t-32.5 -25q70 -36 111 -78t61.5 -86.5t27 -89.5t6.5 -87zM652 959v-524h76v524h-76zM499 38l59 40q-4 7 -8 13t-8 13q46 61 114.5 118.5t150.5 102.5t166 70q-13 11 -28 31.5t-25 36.5
q-79 -28 -156 -73.5t-144.5 -104.5t-119.5 -125q-53 67 -121 127.5t-144.5 108.5t-155.5 79q-7 -16 -19.5 -36t-25.5 -34q70 -23 138.5 -61.5t130.5 -87.5t112 -104.5t84 -113.5z" />
</svg>
