<?xml version="1.0" standalone="no"?>
<!DOCTYPE svg PUBLIC "-//W3C//DTD SVG 1.1//EN" "http://www.w3.org/Graphics/SVG/1.1/DTD/svg11.dtd" >
<svg xmlns="http://www.w3.org/2000/svg" xmlns:xlink="http://www.w3.org/1999/xlink" version="1.1" viewBox="-10 0 1010 1000">
   <path fill="currentColor"
d="M243 741l39 -58q55 15 116 35.5t121.5 43.5t113.5 47t91 45l-40 67q-37 -22 -89 -47t-112 -49t-121.5 -46t-118.5 -38zM359 465l45 -49q47 23 98.5 52.5t97.5 60.5t75 57l-47 56q-28 -26 -73.5 -58t-96.5 -63.5t-99 -55.5zM486 45l64 28q-4 6 -7.5 12.5t-7.5 12.5
q86 124 193 203.5t232 140.5q-13 11 -26 27t-21 31q-121 -64 -223 -144.5t-191 -201.5q-76 109 -181.5 200t-223.5 152q-8 -14 -22 -31t-27 -27q89 -43 172.5 -105.5t153 -138.5t115.5 -159z" />
</svg>
