<?xml version="1.0" standalone="no"?>
<!DOCTYPE svg PUBLIC "-//W3C//DTD SVG 1.1//EN" "http://www.w3.org/Graphics/SVG/1.1/DTD/svg11.dtd" >
<svg xmlns="http://www.w3.org/2000/svg" xmlns:xlink="http://www.w3.org/1999/xlink" version="1.1" viewBox="-10 0 1010 1000">
   <path fill="currentColor"
d="M93 615v-72h821v72h-436q-46 61 -98 119.5t-106 107.5l454 -34q-27 -32 -57 -63t-59 -57l63 -34q45 40 88.5 86.5t80 91.5t58.5 83l-66 41q-10 -18 -24.5 -39.5t-31.5 -43.5q-158 13 -264 22t-171.5 15t-102 10t-54 7.5t-28.5 7.5q-4 -12 -11.5 -36.5t-13.5 -40.5
q16 -3 34 -16.5t40 -35.5q14 -12 41.5 -40t61 -67.5t65.5 -83.5h-284zM504 44l71 31q-7 10 -14.5 20t-14.5 20q46 46 112 95.5t144 92t158 70.5q-13 11 -28 30.5t-24 35.5q-77 -32 -152.5 -77.5t-140.5 -97t-112 -99.5q-94 103 -225 187h462v69h-475v-61q-39 25 -80 47
t-85 42q-8 -14 -24.5 -33.5t-29.5 -30.5q97 -41 185 -95t158.5 -116.5t114.5 -129.5z" />
</svg>
