<?xml version="1.0" standalone="no"?>
<!DOCTYPE svg PUBLIC "-//W3C//DTD SVG 1.1//EN" "http://www.w3.org/Graphics/SVG/1.1/DTD/svg11.dtd" >
<svg xmlns="http://www.w3.org/2000/svg" xmlns:xlink="http://www.w3.org/1999/xlink" version="1.1" viewBox="-10 0 1010 1000">
   <path fill="currentColor"
d="M754 28l53 58q-58 33 -133.5 63.5t-157.5 57t-161 48.5q-2 -12 -9 -29.5t-15 -28.5q77 -22 156.5 -49t149 -57.5t117.5 -62.5zM256 49l68 21q-17 52 -39 103t-46 100v682h-72v-556q-22 34 -45.5 66t-46.5 59q-5 -13 -18.5 -36.5t-22.5 -36.5q45 -49 86 -113.5t76 -138.5
t60 -150zM420 663l69 20q-29 57 -72 117t-87 103q-11 -10 -27 -21t-29 -18q29 -27 57 -61.5t51.5 -71t37.5 -68.5zM847 597l-194 18v261q0 26 -7 41.5t-27 23.5q-19 7 -50 9t-79 2q-2 -15 -8.5 -33t-13.5 -31q31 1 59 1h35q9 -1 13 -3.5t4 -10.5v-252q-70 6 -114 10.5
t-68.5 8t-37 6.5t-20.5 7q-3 -11 -9.5 -31t-12.5 -34q22 -3 51 -17t68 -37q22 -14 67 -44t100 -72q-72 6 -115.5 9.5t-67.5 6.5t-35.5 5t-18.5 5q-2 -11 -8.5 -30.5t-11.5 -32.5q28 -4 74 -36q16 -10 52 -36.5t79.5 -63t81.5 -75.5l60 32q-50 46 -103 88t-106 77l200 -12
q32 -26 64.5 -53.5t62.5 -56.5l54 42q-91 81 -186.5 151t-190.5 127l315 -27q-16 -20 -33 -40t-34 -38l55 -33q29 30 59 65.5t56.5 69t42.5 59.5l-59 38q-8 -14 -18.5 -30t-24.5 -34zM738 681l59 -29q29 30 58 66.5t54 71.5t38 63l-62 34q-13 -29 -36.5 -64.5t-52.5 -73
t-58 -68.5z" />
</svg>
