<?xml version="1.0" standalone="no"?>
<!DOCTYPE svg PUBLIC "-//W3C//DTD SVG 1.1//EN" "http://www.w3.org/Graphics/SVG/1.1/DTD/svg11.dtd" >
<svg xmlns="http://www.w3.org/2000/svg" xmlns:xlink="http://www.w3.org/1999/xlink" version="1.1" viewBox="-10 0 1010 1000">
   <path fill="currentColor"
d="M936 244h-526q-18 36 -37 71t-42 69h475v476q0 33 -9 51.5t-34 27.5q-24 10 -66.5 11.5t-107.5 1.5q-2 -16 -9.5 -36.5t-15.5 -36.5q50 1 91 1.5t54 -0.5q14 -1 18.5 -5.5t4.5 -15.5v-408h-388v505h-73v-489q-39 48 -84.5 90.5t-96.5 77.5q-8 -14 -23.5 -31.5
t-26.5 -28.5q92 -59 163.5 -146t121.5 -185h-258v-72h291q13 -32 24.5 -64.5t20.5 -64.5l79 19q-9 27 -19.5 55t-21.5 55h495v72z" />
</svg>
