<?xml version="1.0" standalone="no"?>
<!DOCTYPE svg PUBLIC "-//W3C//DTD SVG 1.1//EN" "http://www.w3.org/Graphics/SVG/1.1/DTD/svg11.dtd" >
<svg xmlns="http://www.w3.org/2000/svg" xmlns:xlink="http://www.w3.org/1999/xlink" version="1.1" viewBox="-10 0 1010 1000">
   <path fill="currentColor"
d="M278 446l64 -36q42 40 84 88t76 96t52 89l-70 40q-17 -39 -49.5 -87.5t-73 -98.5t-83.5 -91zM319 196h596v15.5t-1 23.5q-7 172 -14 292t-16 197.5t-20.5 121t-28.5 63.5q-18 22 -38.5 31t-49.5 12q-28 2 -75.5 1.5t-97.5 -4.5q-1 -17 -7.5 -38t-17.5 -37q56 4 104 5.5
t67 1.5q17 0 28 -3t20 -13q19 -18 31.5 -81.5t22 -188.5t17.5 -326h-555q-37 75 -80.5 140t-91.5 115q-10 -11 -31.5 -25.5t-35.5 -23.5q81 -76 144.5 -190t102.5 -241l77 18q-11 34 -23.5 68t-26.5 66z" />
</svg>
