<?xml version="1.0" standalone="no"?>
<!DOCTYPE svg PUBLIC "-//W3C//DTD SVG 1.1//EN" "http://www.w3.org/Graphics/SVG/1.1/DTD/svg11.dtd" >
<svg xmlns="http://www.w3.org/2000/svg" xmlns:xlink="http://www.w3.org/1999/xlink" version="1.1" viewBox="-10 0 1010 1000">
   <path fill="currentColor"
d="M425 209v253h264v70h-264v423h-73v-423h-268v-70h268v-253h73zM78 98h718q0 111 2 223t8 212t16.5 177.5t27.5 122t41 44.5q13 0 18.5 -48t6.5 -129q12 14 26.5 27t25.5 21q-5 115 -22.5 162.5t-61.5 47.5q-43 0 -71.5 -40.5t-45.5 -114t-26.5 -173t-13 -217t-5.5 -246.5
h-644v-69z" />
</svg>
