<?xml version="1.0" standalone="no"?>
<!DOCTYPE svg PUBLIC "-//W3C//DTD SVG 1.1//EN" "http://www.w3.org/Graphics/SVG/1.1/DTD/svg11.dtd" >
<svg xmlns="http://www.w3.org/2000/svg" xmlns:xlink="http://www.w3.org/1999/xlink" version="1.1" viewBox="-10 0 1010 1000">
   <path fill="currentColor"
d="M548 471h-245v224h245v-224zM621 763h-318v71h-72v-431h390v360zM318 189h596l-0.5 16t-0.5 24q-6 176 -12.5 298.5t-14.5 201t-19.5 122.5t-27.5 63q-19 23 -38.5 32t-48.5 12t-76.5 2t-97.5 -4q-1 -17 -8 -39t-17 -38q56 4 103.5 5t66.5 1q17 0 27.5 -3t19.5 -13
q18 -18 30.5 -82.5t21 -192t15.5 -332.5h-554q-38 76 -83 143t-95 118q-10 -11 -30.5 -26.5t-34.5 -25.5q54 -50 101 -117.5t85 -146.5t64 -163l76 19q-10 32 -22.5 63.5t-25.5 62.5z" />
</svg>
