<?xml version="1.0" standalone="no"?>
<!DOCTYPE svg PUBLIC "-//W3C//DTD SVG 1.1//EN" "http://www.w3.org/Graphics/SVG/1.1/DTD/svg11.dtd" >
<svg xmlns="http://www.w3.org/2000/svg" xmlns:xlink="http://www.w3.org/1999/xlink" version="1.1" viewBox="-10 0 1010 1000">
   <path fill="currentColor"
d="M934 501h-380q53 142 155 242t253 144q-13 12 -27.5 32t-22.5 35q-149 -50 -250.5 -151t-160.5 -246q-22 73 -69.5 144.5t-129.5 136t-209 117.5q-7 -14 -21.5 -32.5t-26.5 -29.5q129 -53 208 -117t121.5 -134.5t59.5 -140.5h-364v-75h379q4 -29 5 -58t1 -55v-117h-350
v-75h786v75h-359v118q0 26 -1 54.5t-4 57.5h407v75z" />
</svg>
