<?xml version="1.0" standalone="no"?>
<!DOCTYPE svg PUBLIC "-//W3C//DTD SVG 1.1//EN" "http://www.w3.org/Graphics/SVG/1.1/DTD/svg11.dtd" >
<svg xmlns="http://www.w3.org/2000/svg" xmlns:xlink="http://www.w3.org/1999/xlink" version="1.1" viewBox="-10 0 1010 1000">
   <path fill="currentColor"
d="M495 471l7 71q-43 11 -86.5 23t-86.5 23v262q0 36 -9.5 54.5t-31.5 27.5q-22 10 -60 12t-97 2q-2 -15 -9.5 -37t-15.5 -37q41 1 77 1.5t47 -0.5q12 -1 17 -5t5 -17v-243q-43 11 -82 21.5t-74 18.5l-20 -77q36 -8 81 -18.5t95 -21.5v-218h-166v-73h166v-202h77v202h161v73
h-161v199q41 -11 83 -21t83 -20z" />
</svg>
