<?xml version="1.0" standalone="no"?>
<!DOCTYPE svg PUBLIC "-//W3C//DTD SVG 1.1//EN" "http://www.w3.org/Graphics/SVG/1.1/DTD/svg11.dtd" >
<svg xmlns="http://www.w3.org/2000/svg" xmlns:xlink="http://www.w3.org/1999/xlink" version="1.1" viewBox="-10 0 1010 1000">
   <path fill="currentColor"
d="M887 532h-303q46 61 108.5 119.5t132 105.5t137.5 77q-13 11 -29 30t-26 35q-65 -34 -132 -84t-128 -111t-110 -127v379h-77v-374q-48 66 -108.5 126t-126.5 109.5t-131 82.5q-10 -14 -25.5 -33t-28.5 -30q69 -30 138.5 -77.5t131.5 -106.5t106 -121h-299v-73h343v-174
h-394v-73h394v-169h77v169h401v73h-401v174h350v73z" />
</svg>
