<?xml version="1.0" standalone="no"?>
<!DOCTYPE svg PUBLIC "-//W3C//DTD SVG 1.1//EN" "http://www.w3.org/Graphics/SVG/1.1/DTD/svg11.dtd" >
<svg xmlns="http://www.w3.org/2000/svg" xmlns:xlink="http://www.w3.org/1999/xlink" version="1.1" viewBox="-10 0 1010 1000">
   <path fill="currentColor"
d="M884 373l-52 62q-58 -35 -138 -74t-172 -76q-94 45 -198.5 80.5t-211.5 59.5q-6 -14 -18.5 -33.5t-21.5 -31.5q92 -19 183 -47t176 -64q-76 -29 -154.5 -54t-152.5 -44l54 -55q82 21 170 50t173 63q73 -37 134 -78t104 -86l72 40q-46 43 -102.5 83t-121.5 75
q80 33 151.5 66.5t125.5 63.5zM709 406l76 27q-43 86 -99.5 156.5t-124.5 127.5q85 58 185.5 101.5t214.5 66.5q-13 13 -27.5 33.5t-22.5 37.5q-118 -28 -222 -76t-191 -114q-88 61 -191.5 107.5t-220.5 79.5q-7 -14 -21 -35t-25 -34q114 -29 214.5 -70t184.5 -97
q-66 -59 -120.5 -128.5t-95.5 -149.5l67 -26q75 147 210 259q67 -54 119.5 -120.5t89.5 -145.5z" />
</svg>
