<?xml version="1.0" standalone="no"?>
<!DOCTYPE svg PUBLIC "-//W3C//DTD SVG 1.1//EN" "http://www.w3.org/Graphics/SVG/1.1/DTD/svg11.dtd" >
<svg xmlns="http://www.w3.org/2000/svg" xmlns:xlink="http://www.w3.org/1999/xlink" version="1.1" viewBox="-10 0 1010 1000">
   <path fill="currentColor"
d="M270 655l74 26q-30 44 -68 88t-78.5 83t-78.5 70q-10 -11 -30.5 -25t-34.5 -22q59 -41 117.5 -100t98.5 -120zM817 561l-263 18v283q0 33 -8.5 51t-33.5 26q-24 10 -63 12t-93 2q-2 -17 -11 -38.5t-19 -37.5q45 1 81.5 1.5t48.5 -0.5q12 0 16 -3.5t4 -12.5v-277
q-102 7 -164.5 12t-97.5 8.5t-52 7t-28 7.5q-2 -13 -10.5 -36.5t-15.5 -39.5q26 -4 59.5 -20t80.5 -43q24 -14 72.5 -43.5t108.5 -71.5q-79 5 -128 9t-75.5 6.5t-39.5 5t-21 5.5q-3 -11 -10 -35t-14 -39q15 -3 33 -15.5t40 -31.5q17 -13 52.5 -47t77 -80.5t76.5 -95.5l74 37
q-52 64 -109 122.5t-116 105.5l254 -15q42 -32 84.5 -66.5t81.5 -70.5l68 49q-111 96 -227 176t-232 143l468 -30q-23 -26 -46 -51t-46 -47l61 -32q37 35 76.5 77t73.5 83t55 74l-67 38q-10 -17 -24.5 -37.5t-31.5 -42.5zM645 690l62 -36q41 33 86 73.5t84.5 80t64.5 71.5
l-66 42q-23 -32 -61.5 -72.5t-83 -82.5t-86.5 -76z" />
</svg>
