<?xml version="1.0" standalone="no"?>
<!DOCTYPE svg PUBLIC "-//W3C//DTD SVG 1.1//EN" "http://www.w3.org/Graphics/SVG/1.1/DTD/svg11.dtd" >
<svg xmlns="http://www.w3.org/2000/svg" xmlns:xlink="http://www.w3.org/1999/xlink" version="1.1" viewBox="-10 0 1010 1000">
   <path fill="currentColor"
d="M758 404v-91h-502v91h502zM758 552v-92h-502v92h502zM758 701v-92h-502v92h502zM180 254h255q6 -21 11.5 -45t9.5 -46h-372v-68h829v68h-372q-7 23 -14 46.5t-15 44.5h325v507h-657v-507zM361 772l67 49q-43 26 -99.5 51.5t-115.5 47t-113 36.5q-9 -12 -23.5 -29
t-27.5 -29q54 -14 113 -34.5t112 -44.5t87 -47zM573 826l53 -49q59 19 118 42t112 45t92 42l-69 51q-35 -20 -84.5 -42.5t-106 -45.5t-115.5 -43z" />
</svg>
