<?xml version="1.0" standalone="no"?>
<!DOCTYPE svg PUBLIC "-//W3C//DTD SVG 1.1//EN" "http://www.w3.org/Graphics/SVG/1.1/DTD/svg11.dtd" >
<svg xmlns="http://www.w3.org/2000/svg" xmlns:xlink="http://www.w3.org/1999/xlink" version="1.1" viewBox="-10 0 1010 1000">
   <path fill="currentColor"
d="M782 56l68 19q-21 37 -43 73.5t-42 63.5l-61 -18q20 -29 42.5 -68.5t35.5 -69.5zM365 553l61 14q-25 71 -58.5 140.5t-67.5 119.5q-10 -7 -27.5 -15t-30.5 -12q37 -48 69 -114.5t54 -132.5zM653 430l-37 -24q29 -24 63.5 -58.5t58.5 -62.5h-203v145h118zM945 219v66h-198
l49 31q-27 31 -60 61t-63 53h185v434q0 30 -8 46t-30 26q-22 8 -60 10t-93 2q-2 -16 -9.5 -34.5t-15.5 -32.5q44 2 78.5 2t45.5 -1q12 -1 16 -5t4 -14v-369h-251v449h-72v-449h-250v463h-71v-527h172q-19 -25 -49 -55.5t-58 -55.5l49 -33q32 26 65 58t51 56l-40 30h131v-145
h-408v-66h179q-12 -28 -35.5 -66t-46.5 -69l60 -27q24 30 48.5 67t35.5 65l-60 30h130v-175h69v175h128v-175h70v175h312zM749 780l-59 24q-12 -32 -32 -73t-43.5 -84t-46.5 -80l56 -19q24 36 48 78.5t44.5 82.5t32.5 71z" />
</svg>
