<?xml version="1.0" standalone="no"?>
<!DOCTYPE svg PUBLIC "-//W3C//DTD SVG 1.1//EN" "http://www.w3.org/Graphics/SVG/1.1/DTD/svg11.dtd" >
<svg xmlns="http://www.w3.org/2000/svg" xmlns:xlink="http://www.w3.org/1999/xlink" version="1.1" viewBox="-10 0 377 1000">
   <path fill="currentColor"
d="M95 77q22 0 34.5 13.5t12.5 44.5q0 20 -4 54.5t-9 69t-7 56.5l-11 88h-32l-11 -88q-2 -22 -7 -56.5t-9 -69t-4 -54.5q0 -31 12.5 -44.5t34.5 -13.5zM273 77q22 0 35 13.5t13 44.5q0 20 -4.5 54.5t-9.5 69t-7 56.5l-11 88h-31l-11 -88q-3 -22 -8 -56.5t-9 -69t-4 -54.5
q0 -31 12.5 -44.5t34.5 -13.5z" />
</svg>
