<?xml version="1.0" encoding="UTF-8" standalone="no"?>
<svg
   xmlns:dc="http://purl.org/dc/elements/1.1/"
   xmlns:cc="http://creativecommons.org/ns#"
   xmlns:rdf="http://www.w3.org/1999/02/22-rdf-syntax-ns#"
   xmlns:svg="http://www.w3.org/2000/svg"
   xmlns="http://www.w3.org/2000/svg"
   xmlns:sodipodi="http://sodipodi.sourceforge.net/DTD/sodipodi-0.dtd"
   xmlns:inkscape="http://www.inkscape.org/namespaces/inkscape"
   version="1.1"
   viewBox="-10 0 1010 1000"
   id="svg12"
   sodipodi:docname="五 copy.svg"
   inkscape:version="1.0.1 (c497b03c, 2020-09-10)">
  <metadata
     id="metadata18">
    <rdf:RDF>
      <cc:Work
         rdf:about="">
        <dc:format>image/svg+xml</dc:format>
        <dc:type
           rdf:resource="http://purl.org/dc/dcmitype/StillImage" />
      </cc:Work>
    </rdf:RDF>
  </metadata>
  <defs
     id="defs16" />
  <sodipodi:namedview
     pagecolor="#ffffff"
     bordercolor="#666666"
     borderopacity="1"
     objecttolerance="10"
     gridtolerance="10"
     guidetolerance="10"
     inkscape:pageopacity="0"
     inkscape:pageshadow="2"
     inkscape:window-width="1115"
     inkscape:window-height="884"
     id="namedview14"
     showgrid="false"
     inkscape:zoom="0.68303184"
     inkscape:cx="508.41376"
     inkscape:cy="499.83727"
     inkscape:window-x="0"
     inkscape:window-y="23"
     inkscape:window-maximized="0"
     inkscape:current-layer="svg12" />
  <path
     id="path24"
     d="M 756 865 L 284 865 L 49 865 L 57 895 L 947 895 C 961.66667 895 970.33333 889.66667 973 879 C 972.33333 876.33333 959.33333 864.33333 934 843 L 896 811 L 880 798 L 828 865 L 756 865 z "
     transform="translate(-10)" />
  <path
     id="path22"
     d="M 820 92 L 769 157 L 112 157 L 121 185 L 433 185 L 501 185 L 886 185 C 902 185 911 180 913 170 C 912.33333 167 899.33333 155.33333 874 135 L 836 104.5 L 820 92 z "
     transform="translate(-10)" />
  <path
     d="m 647.47329,207.52903 108.77137,53.83633 q -4.3948,7.69091 -15.93116,12.63506 -11.53636,4.94416 -31.31297,1.64805 -31.86232,63.72465 -68.66879,121.95578 -36.80648,58.23114 -77.4584,109.87007 88.99475,76.90905 132.39343,135.68954 43.39868,58.78049 51.08958,96.13632 7.69091,37.35582 -9.33895,49.44153 -17.02986,12.08571 -47.79348,-5.49351 Q 662.8551,734.90537 616.16032,678.87164 569.46554,622.8379 513.4318,565.70546 438.72015,652.50282 355.2189,720.62226 271.71765,788.74171 182.72289,837.08454 L 169.53848,821.70273 Q 245.34883,767.86639 322.25788,690.40799 399.16693,612.94959 468.38507,519.56003 405.75913,456.93409 339.83709,398.1536 273.91505,339.37312 217.88131,293.22769 l 14.28311,-13.18441 q 168.10121,97.78436 275.77388,182.38432 40.65193,-59.32984 75.81035,-123.60383 35.15842,-64.274 63.72464,-131.29474 z"
     id="path44"
     style="stroke-width:1.0987" />
</svg>
