<?xml version="1.0" standalone="no"?>
<!DOCTYPE svg PUBLIC "-//W3C//DTD SVG 1.1//EN" "http://www.w3.org/Graphics/SVG/1.1/DTD/svg11.dtd" >
<svg xmlns="http://www.w3.org/2000/svg" xmlns:xlink="http://www.w3.org/1999/xlink" version="1.1" viewBox="-10 0 1010 1000">
   <path fill="currentColor"
d="M398 186l8 -20q30 2 51 7t43 16q21 10 41 30t20 34q0 10 -6 16t-15 13.5t-19 23.5q-13 20 -30 46t-37 54q5 1 11.5 1h13.5q13 0 38 -1.5t54 -3.5t54 -4t37 -3q22 -3 31 -12.5t20 -9.5q9 0 23.5 9t29 22t24.5 26.5t10 23.5q0 11 -8.5 17.5t-20 12.5t-20.5 16
q-31 38 -78.5 94.5t-105.5 115.5q25 19 44 37t32 32q17 18 32 41t15 43q0 16 -7.5 27.5t-23.5 11.5t-25.5 -11.5t-23.5 -33.5q-49 -77 -113.5 -133.5t-139.5 -108.5l15 -20q48 20 88.5 43.5t73.5 47.5q55 -64 100 -128t64 -107q5 -10 2.5 -13t-12.5 -3q-13 0 -37.5 2
t-53 4.5t-53.5 5.5t-39 5q-16 3 -24.5 6t-16.5 3q-12 0 -35 -21q-12 16 -24.5 32.5t-25.5 31.5q-46 56 -105.5 118t-124.5 110l-21 -20q55 -54 108 -115t99 -123q25 -34 51 -73.5t47 -78.5t32 -68q5 -11 3.5 -18.5t-12.5 -16.5q-11 -10 -26 -18t-32 -15z" />
</svg>
