<?xml version="1.0" standalone="no"?>
<!DOCTYPE svg PUBLIC "-//W3C//DTD SVG 1.1//EN" "http://www.w3.org/Graphics/SVG/1.1/DTD/svg11.dtd" >
<svg xmlns="http://www.w3.org/2000/svg" xmlns:xlink="http://www.w3.org/1999/xlink" version="1.1" viewBox="-10 0 1010 1000">
   <path fill="currentColor"
d="M120 155l16 -13q17 7 27.5 12.5t23.5 17.5q11 8 26.5 26t28 40t12.5 43q0 16 -10 35.5t-29 64.5q-12 28 -27 70t-26.5 92t-11.5 102q0 40 5.5 63t13.5 38q5 9 11 9.5t12 -9.5q8 -12 21 -40t28 -62t28 -65.5t22 -50.5l24 12q-7 19 -17.5 48.5t-22 60t-21 56.5t-14.5 40
q-7 24 -11.5 40.5t-4.5 28.5q0 23 7 45.5t7 40.5q0 31 -28 31q-13 0 -25 -11t-23 -27q-13 -20 -26.5 -56t-22.5 -82t-9 -96q0 -89 17.5 -161.5t30.5 -117.5q10 -36 17.5 -63.5t8.5 -52.5q1 -27 -15.5 -52.5t-42.5 -56.5zM670 730v-5q-46 -12 -103 -12q-31 0 -61 8.5
t-49.5 25t-19.5 40.5q0 34 30 49t75 15q55 0 82 -13.5t36.5 -40.5t9.5 -67zM569 181l-2 -21q16 -7 36.5 -13t36.5 -6q21 0 43 7.5t37 19.5t15 24q0 15 -5.5 26t-10.5 44q-3 16 -4.5 37t-3.5 46q21 -6 37.5 -12l27.5 -10q32 -13 44.5 -20t19.5 -7q16 1 34 9t18 23
q0 14 -10.5 22.5t-35.5 17.5q-21 7 -56.5 16.5t-79.5 18.5q0 77 5.5 151t9.5 132q61 16 101.5 42t63.5 48q32 29 32 56q0 32 -26 32q-11 0 -21.5 -8.5t-24.5 -21.5q-27 -26 -56.5 -48.5t-64.5 -38.5q1 8 1 15v14q0 57 -39 93.5t-131 36.5q-67 0 -113.5 -29.5t-46.5 -83.5
q0 -43 26.5 -70t71 -40.5t98.5 -13.5q20 0 38 1.5t34 3.5q-2 -53 -5.5 -125t-5.5 -137q-28 4 -56.5 6.5t-56.5 2.5q-31 0 -56.5 -6.5t-49.5 -26.5t-51 -58l15 -14q30 23 63.5 37t76.5 14q31 0 60 -3t55 -7q-1 -37 -0.5 -76t0.5 -58q0 -17 -3.5 -23.5t-14.5 -9.5
q-28 -7 -70 -9zM868 235q31 0 52.5 -22t21.5 -53q0 -32 -21.5 -53.5t-52.5 -21.5t-53 21.5t-22 53.5q0 31 22 53t53 22zM868 52q44 0 76 31.5t32 76.5q0 29 -14.5 54t-39 39.5t-54.5 14.5q-45 0 -76.5 -32t-31.5 -76q0 -45 31.5 -76.5t76.5 -31.5z" />
</svg>
