<?xml version="1.0" standalone="no"?>
<!DOCTYPE svg PUBLIC "-//W3C//DTD SVG 1.1//EN" "http://www.w3.org/Graphics/SVG/1.1/DTD/svg11.dtd" >
<svg xmlns="http://www.w3.org/2000/svg" xmlns:xlink="http://www.w3.org/1999/xlink" version="1.1" viewBox="-10 0 1010 1000">
   <path fill="currentColor"
d="M470 486q18 11 38.5 28.5t37.5 39t24.5 43.5t0.5 41q-10 31 -20.5 26.5t-24.5 -42.5q-29 -74 -89 -126q-27 -25 -18.5 -30.5t51.5 20.5zM379 830q18 -2 50.5 -4.5t70.5 -4.5t75.5 -2.5t66.5 1.5q2 -14 4 -31t3 -37q2 -38 3.5 -90t2.5 -105.5t1.5 -95.5t0.5 -58
q0 -38 -2.5 -54.5t-13.5 -21.5t-37 -8q-16 -2 -46 -2t-66 3t-70.5 9t-60.5 15q-1 7 -1.5 14.5t-1.5 17.5q-3 25 -4.5 74t-3 108.5t-2.5 117.5t-1 101q0 25 0.5 37t7 14.5t24.5 1.5zM720 305q6 7 6 13.5t-11 21.5q-6 6 -9 36t-5 70.5t-3 80t-2 66.5q0 21 -0.5 56t-1 76
t-1.5 82t-3 74q-2 34 -13.5 40.5t-31.5 -35.5q-4 -7 -5 -14.5t-1 -15.5q-15 -1 -45.5 -1t-68.5 0.5t-75 3t-64 6.5t-36 11q-22 17 -29 15t-19 -27q-7 -18 -7.5 -27t3.5 -21.5t8 -37.5q6 -38 5 -107t-1 -174q0 -23 -0.5 -53.5t-3 -60.5t-7.5 -52.5t-15 -30.5
q-16 -14 -13.5 -21t13.5 -5q14 1 27.5 7t27.5 13q7 3 12 8q29 -6 70.5 -9.5t82.5 -5t71.5 -3t36.5 -4.5q23 -8 34 -11t17.5 -1.5t14.5 6.5q11 6 21.5 14t20.5 17z" />
</svg>
