<?xml version="1.0" standalone="no"?>
<!DOCTYPE svg PUBLIC "-//W3C//DTD SVG 1.1//EN" "http://www.w3.org/Graphics/SVG/1.1/DTD/svg11.dtd" >
<svg xmlns="http://www.w3.org/2000/svg" xmlns:xlink="http://www.w3.org/1999/xlink" version="1.1" viewBox="-10 0 1010 1000">
   <path fill="currentColor"
d="M712 832q2 19 -4 33t-19 14q-15 0 -21.5 -12t-24.5 -46t-55 -88t-84 -115q-54 64 -125 128.5t-160 114.5q-30 16 -39 15.5t-2.5 -10.5t22.5 -22q83 -58 152.5 -126.5t122.5 -136.5q-49 -62 -100 -119.5t-93 -94.5q-25 -22 -19 -33t33 5q21 13 54 43.5t73 71.5t81 88
q44 -60 72.5 -113t40.5 -92t5 -56q-10 -31 1.5 -34.5t46.5 26.5q29 23 30.5 38t-17.5 35q-3 3 -20.5 36t-48.5 84.5t-78 112.5q45 51 83.5 101t63.5 90t29 62z" />
</svg>
