<?xml version="1.0" standalone="no"?>
<!DOCTYPE svg PUBLIC "-//W3C//DTD SVG 1.1//EN" "http://www.w3.org/Graphics/SVG/1.1/DTD/svg11.dtd" >
<svg xmlns="http://www.w3.org/2000/svg" xmlns:xlink="http://www.w3.org/1999/xlink" version="1.1" viewBox="-10 0 1010 1000">
   <path fill="currentColor"
d="M828 136l46 -60l15 12t35.5 29t36.5 33q-4 16 -26 16h-533q-12 41 -30 93.5t-36.5 106t-35.5 97.5h441l42 -44l81 68q-6 6 -16 10t-26 6q-7 64 -19.5 129.5t-28.5 123t-35.5 100t-41.5 60.5q-51 43 -143 42q0 -16 -6 -30t-23 -22q-11 -7 -37 -14t-58 -13.5t-63 -10.5
l2 -17q27 3 61.5 6t68.5 5.5t60.5 4.5t37.5 2q20 0 31 -3t21 -10q15 -12 29.5 -47.5t27.5 -86.5t24 -110.5t18 -118.5h-450l-34 35l-71 -58q8 -5 20.5 -10.5t24.5 -8.5q16 -40 34 -92t34.5 -103.5t26.5 -89.5h-265l-9 -30h769z" />
</svg>
