<?xml version="1.0" standalone="no"?>
<!DOCTYPE svg PUBLIC "-//W3C//DTD SVG 1.1//EN" "http://www.w3.org/Graphics/SVG/1.1/DTD/svg11.dtd" >
<svg xmlns="http://www.w3.org/2000/svg" xmlns:xlink="http://www.w3.org/1999/xlink" version="1.1" viewBox="-10 0 1010 1000">
   <path fill="currentColor"
d="M811 158l51 -64l15.5 12.5t37.5 30.5t39 34q-1 15 -26 15h-488q-2 54 -5.5 108.5t-11.5 109.5h293l40 -42l76 64q-12 12 -42 15q-6 114 -19 210t-32 162t-45 91q-44 40 -122 40q0 -15 -4.5 -27.5t-17.5 -20.5q-13 -9 -48.5 -17.5t-70.5 -13.5l1 -18q27 3 62.5 6t66.5 5.5
t43 2.5q16 0 25 -3t19 -10q19 -16 33.5 -75.5t26 -148t17.5 -191.5h-306q-16 96 -54 189t-110 178.5t-192 160.5l-15 -17q89 -68 147 -141.5t91.5 -151t50 -156t22 -156.5t6.5 -153h-309l-9 -28h764z" />
</svg>
