<?xml version="1.0" standalone="no"?>
<!DOCTYPE svg PUBLIC "-//W3C//DTD SVG 1.1//EN" "http://www.w3.org/Graphics/SVG/1.1/DTD/svg11.dtd" >
<svg xmlns="http://www.w3.org/2000/svg" xmlns:xlink="http://www.w3.org/1999/xlink" version="1.1" viewBox="-10 0 1010 1000">
   <path fill="currentColor"
d="M927 289h-284q-3 89 -14.5 167.5t-37.5 145.5t-76 125q90 62 204 102t250 61l-2 11q-52 6 -69 57q-130 -28 -237 -73.5t-190 -114.5q-66 58 -168.5 105t-254.5 85l-8 -19q143 -42 238.5 -93t154.5 -112q-73 -72 -125 -168t-81 -219l18 -11q32 114 88.5 201.5t135.5 152.5
q61 -81 81.5 -181t23.5 -222h-513l-9 -29h523q1 -50 0.5 -104.5t-0.5 -112.5l107 12q-1 10 -9 18t-27 10q-1 46 -1 91t-1 86h164l51 -64l16 12.5t38.5 30.5t39.5 34q-4 16 -26 16z" />
</svg>
