<?xml version="1.0" standalone="no"?>
<!DOCTYPE svg PUBLIC "-//W3C//DTD SVG 1.1//EN" "http://www.w3.org/Graphics/SVG/1.1/DTD/svg11.dtd" >
<svg xmlns="http://www.w3.org/2000/svg" xmlns:xlink="http://www.w3.org/1999/xlink" version="1.1" viewBox="-10 0 1010 1000">
   <path fill="currentColor"
d="M914 143h-385v182h213l47 -61l15 12t36 29.5t37 33.5q-4 16 -26 16h-322v182h273l38 -39l75 62q-9 12 -39 15q-7 135 -24.5 227.5t-49.5 121.5q-40 34 -109 34q0 -14 -4 -27t-16 -20q-13 -8 -45 -16t-64 -12l1 -17q25 2 57 4.5t60 4.5t39 2q26 0 38 -11q13 -12 23 -52.5
t17.5 -104t11.5 -142.5h-569l-25 31l-77 -44q5 -5 13.5 -11t16.5 -11v-298l101 12q-3 22 -35 26v265h227v-394h-395l-9 -29h738l50 -62l16 12t38 29.5t39 33.5q-1 8 -8.5 12t-17.5 4z" />
</svg>
