<?xml version="1.0" standalone="no"?>
<!DOCTYPE svg PUBLIC "-//W3C//DTD SVG 1.1//EN" "http://www.w3.org/Graphics/SVG/1.1/DTD/svg11.dtd" >
<svg xmlns="http://www.w3.org/2000/svg" xmlns:xlink="http://www.w3.org/1999/xlink" version="1.1" viewBox="-10 0 1010 1000">
   <path fill="currentColor"
d="M463 319l105 12q-2 10 -10 17.5t-27 9.5v579q0 7 -18 15.5t-37 8.5h-13v-642zM508 103q-44 75 -114.5 154.5t-160.5 151.5t-191 123l-7 -15q67 -44 131 -101t120 -121t99 -128.5t67 -124.5l115 30q-3 9 -12 13.5t-29 6.5q73 104 186 196.5t252 151.5l-1 15
q-23 6 -37.5 22t-22.5 36q-130 -77 -233 -182.5t-162 -227.5z" />
</svg>
