<?xml version="1.0" standalone="no"?>
<!DOCTYPE svg PUBLIC "-//W3C//DTD SVG 1.1//EN" "http://www.w3.org/Graphics/SVG/1.1/DTD/svg11.dtd" >
<svg xmlns="http://www.w3.org/2000/svg" xmlns:xlink="http://www.w3.org/1999/xlink" version="1.1" viewBox="-10 0 1010 1000">
   <path fill="currentColor"
d="M739 96l110 22q-2 10 -11 15t-31 6q-32 160 -93.5 301t-171.5 253q89 69 197 117.5t233 79.5l-3 12q-27 0 -47.5 14t-31.5 38q-118 -35 -218 -87.5t-180 -125.5q-82 70 -189.5 124.5t-247.5 91.5l-9 -15q131 -44 232 -103.5t177 -133.5q-101 -102 -168 -241.5t-99 -318.5
l19 -11q35 168 109 298.5t184 226.5q101 -116 157 -258t82 -305z" />
</svg>
