<?xml version="1.0" standalone="no"?>
<!DOCTYPE svg PUBLIC "-//W3C//DTD SVG 1.1//EN" "http://www.w3.org/Graphics/SVG/1.1/DTD/svg11.dtd" >
<svg xmlns="http://www.w3.org/2000/svg" xmlns:xlink="http://www.w3.org/1999/xlink" version="1.1" viewBox="-10 0 1010 1000">
   <path fill="currentColor"
d="M874 363l76 65q-9 12 -41 16q-5 118 -17 216t-31 164t-45 90q-21 22 -52 32t-69 10q1 -15 -4 -28.5t-17 -20.5q-13 -10 -47.5 -18.5t-69.5 -13.5l1 -17q27 2 61.5 5.5t64.5 5.5t41 2q17 0 26 -2.5t18 -10.5q18 -16 32.5 -75.5t25 -150t16.5 -197.5h-195l-33 35l-75 -59
q9 -5 21 -10.5t24 -9.5q13 -33 27 -74.5t27 -84t22 -75.5h-274q-2 82 -8.5 167t-24.5 169t-53.5 165t-95 156t-151.5 142l-14 -17q97 -87 152.5 -184.5t81 -199.5t33 -203t8.5 -195h-221l-9 -30h571l38 -39l78 70q-12 13 -45 15q-9 31 -22.5 72t-27.5 83t-27 77h184z" />
</svg>
