<?xml version="1.0" standalone="no"?>
<!DOCTYPE svg PUBLIC "-//W3C//DTD SVG 1.1//EN" "http://www.w3.org/Graphics/SVG/1.1/DTD/svg11.dtd" >
<svg xmlns="http://www.w3.org/2000/svg" xmlns:xlink="http://www.w3.org/1999/xlink" version="1.1" viewBox="-10 0 1010 1000">
   <path fill="currentColor"
d="M626 168l76 72q-10 11 -42 14q-8 32 -17 64t-20 63q14 100 50.5 193.5t109 174t194.5 142.5l-2 12q-25 3 -41.5 15t-23.5 40q-79 -48 -132.5 -109.5t-87.5 -131.5t-53.5 -145t-28.5 -150q-45 118 -117 220.5t-181 183t-267 133.5l-10 -15q162 -70 273 -175.5
t179.5 -239.5t101.5 -288h-242q-53 114 -123.5 203t-153.5 150l-13 -11q60 -61 113.5 -144.5t96 -184.5t68.5 -214l107 32q-7 21 -37 20q-21 63 -45 120h225z" />
</svg>
