<?xml version="1.0" standalone="no"?>
<!DOCTYPE svg PUBLIC "-//W3C//DTD SVG 1.1//EN" "http://www.w3.org/Graphics/SVG/1.1/DTD/svg11.dtd" >
<svg xmlns="http://www.w3.org/2000/svg" xmlns:xlink="http://www.w3.org/1999/xlink" version="1.1" viewBox="-10 0 1010 1000">
   <path fill="currentColor"
d="M919 671l2 180q20 6 26.5 13t6.5 17q0 13 -10 22t-37 14t-77.5 7t-130.5 2h-151q-74 0 -102 -17.5t-28 -69.5v-311l-361 39l-10 -28l371 -40v-287q-82 16 -167 30t-169 22l-5 -17q93 -16 191.5 -39t191.5 -51t172.5 -58t134.5 -58l80 65q-13 16 -53 1q-63 23 -142 46
t-168 44v21v274l312 -34l48 -74l18.5 11t44.5 27t46 31q-1 18 -24 21l-445 47v305q0 21 12.5 30t57.5 9h147q52 0 87 -1t52 -3q12 -2 17.5 -5.5t10.5 -11.5q6 -15 16 -63t22 -110h13z" />
</svg>
