<?xml version="1.0" standalone="no"?>
<!DOCTYPE svg PUBLIC "-//W3C//DTD SVG 1.1//EN" "http://www.w3.org/Graphics/SVG/1.1/DTD/svg11.dtd" >
<svg xmlns="http://www.w3.org/2000/svg" xmlns:xlink="http://www.w3.org/1999/xlink" version="1.1" viewBox="-10 0 1010 1000">
   <path fill="currentColor"
d="M416 39l108 51q-4 7 -14.5 12t-27.5 2q-82 151 -190 270t-225 194l-13 -12q65 -57 131.5 -138t126.5 -178t104 -201zM638 594l13 -7q101 63 160 122.5t83.5 109t23.5 83t-19 43.5t-45 -9q-7 -27 -21 -56t-31 -60q-108 16 -262 36.5t-339 41.5q-10 15 -23 20l-35 -91
l14 -3.5t21 -10.5q40 -36 85 -86t90.5 -108.5t87.5 -118t75.5 -115t54.5 -99.5l102 59q-4 7 -14.5 11.5t-27.5 1.5q-32 50 -79.5 111t-104 125t-117 125t-118.5 111q63 -3 153 -7.5t198.5 -11t225.5 -13.5q-34 -56 -74 -109t-77 -95z" />
</svg>
