<?xml version="1.0" standalone="no"?>
<!DOCTYPE svg PUBLIC "-//W3C//DTD SVG 1.1//EN" "http://www.w3.org/Graphics/SVG/1.1/DTD/svg11.dtd" >
<svg xmlns="http://www.w3.org/2000/svg" xmlns:xlink="http://www.w3.org/1999/xlink" version="1.1" viewBox="-10 0 1010 1000">
   <path fill="currentColor"
d="M824 223l47 -60l15.5 12t36.5 29t37 33q-3 16 -26 16h-439v186h254l45 -57l14.5 11t34 27.5t35.5 31.5q-4 16 -26 16h-357v183h289l48 -60l15 12t35.5 28.5t37.5 32.5q-4 16 -27 16h-398v257q0 4 -15 12.5t-40 8.5h-11v-705h-146q-51 88 -110.5 162t-124.5 128l-14 -11
q49 -58 97.5 -136.5t91.5 -170.5t74 -187l104 39q-4 9 -13 14.5t-26 4.5q-14 33 -29.5 64.5t-32.5 62.5h524z" />
</svg>
