<?xml version="1.0" standalone="no"?>
<!DOCTYPE svg PUBLIC "-//W3C//DTD SVG 1.1//EN" "http://www.w3.org/Graphics/SVG/1.1/DTD/svg11.dtd" >
<svg xmlns="http://www.w3.org/2000/svg" xmlns:xlink="http://www.w3.org/1999/xlink" version="1.1" viewBox="-10 0 1010 1000">
   <path fill="currentColor"
d="M909 637l-5 188q25 7 35 12.5t10 16.5q0 31 -68 43.5t-218 12.5h-254q-154 0 -230 -28t-88 -101q-7 -45 26.5 -99t107 -125t187 -166.5t266.5 -222.5h-554l-9 -29h589l36 -36l77 72q-8 5 -20.5 8.5t-35.5 4.5q-215 168 -348 283.5t-192.5 187t-53.5 109.5q8 42 60 58.5
t173 16.5h272q70 0 103 -3t45 -8.5t17 -12.5q19 -25 31.5 -71t27.5 -113z" />
</svg>
