<?xml version="1.0" standalone="no"?>
<!DOCTYPE svg PUBLIC "-//W3C//DTD SVG 1.1//EN" "http://www.w3.org/Graphics/SVG/1.1/DTD/svg11.dtd" >
<svg xmlns="http://www.w3.org/2000/svg" xmlns:xlink="http://www.w3.org/1999/xlink" version="1.1" viewBox="-10 0 1010 1000">
   <path fill="currentColor"
d="M906 732l4 108q23 7 31.5 13.5t8.5 17.5q0 16 -13.5 25.5t-50.5 14.5t-104.5 7t-175.5 2l-210 -1q-65 0 -104 -8.5t-56 -31.5t-17 -67v-417l-164 42l-17 -27l181 -45v-312l104 12q-1 10 -9 18t-27 10v254l460 -116l7 -2l41 -43l73 78q-9 9 -39 12q-14 62 -37 136
t-53 146.5t-66 130.5l-14 -9q22 -60 40.5 -134t32.5 -149t22 -137l-467 119v421q0 21 8.5 33.5t31.5 18.5t68 6h216q74 0 126.5 -1.5t74.5 -3.5q16 -2 24.5 -5.5t14.5 -8.5q8 -11 18.5 -37t23.5 -70h13z" />
</svg>
