<?xml version="1.0" standalone="no"?>
<!DOCTYPE svg PUBLIC "-//W3C//DTD SVG 1.1//EN" "http://www.w3.org/Graphics/SVG/1.1/DTD/svg11.dtd" >
<svg xmlns="http://www.w3.org/2000/svg" xmlns:xlink="http://www.w3.org/1999/xlink" version="1.1" viewBox="-10 0 1010 1000">
   <path fill="currentColor"
d="M833 77l79 74q-11 9 -44 10q-38 27 -88.5 59t-105.5 64t-109 58h4q-2 10 -9.5 17t-24.5 9v488q0 27 -8 47.5t-34.5 34t-82.5 19.5q-3 -17 -9 -29t-20 -19q-14 -9 -41.5 -16t-71.5 -12v-16l22 1.5t53 3.5t58.5 3.5t37.5 1.5q16 0 22 -5.5t6 -18.5v-519l69 7
q41 -27 83 -59.5t80 -66t67 -61.5h-646l-9 -30h674z" />
</svg>
