<?xml version="1.0" standalone="no"?>
<!DOCTYPE svg PUBLIC "-//W3C//DTD SVG 1.1//EN" "http://www.w3.org/Graphics/SVG/1.1/DTD/svg11.dtd" >
<svg xmlns="http://www.w3.org/2000/svg" xmlns:xlink="http://www.w3.org/1999/xlink" version="1.1" viewBox="-10 0 1010 1000">
   <path fill="currentColor"
d="M497 852v-536l103 11q-3 23 -35 27v504q0 28 -8 49t-33.5 34.5t-80.5 19.5q-3 -17 -9.5 -30t-19.5 -21q-14 -9 -40 -16t-70 -12v-16l21.5 1.5t51 3t56 3t35.5 1.5q17 0 23 -5t6 -18zM875 185l79 76q-5 5 -14 7t-24 4q-13 25 -32 56t-40 61.5t-41 54.5l-13 -7
q12 -36 25 -87.5t22 -91.5h-562q-46 67 -97.5 125t-104.5 101l-14 -11q44 -51 90 -121.5t87.5 -153t71.5 -167.5l102 50q-10 17 -39 13q-17 34 -36.5 68t-40.5 66h538z" />
</svg>
