<?xml version="1.0" standalone="no"?>
<!DOCTYPE svg PUBLIC "-//W3C//DTD SVG 1.1//EN" "http://www.w3.org/Graphics/SVG/1.1/DTD/svg11.dtd" >
<svg xmlns="http://www.w3.org/2000/svg" xmlns:xlink="http://www.w3.org/1999/xlink" version="1.1" viewBox="-10 0 1010 1000">
   <path fill="currentColor"
d="M831 168h-673l-8 -29h562l51 -64l16 12.5t38.5 30.5t39.5 34q-4 16 -26 16zM814 411l52 -65l16.5 12.5t39 31t40.5 35.5q-4 16 -27 16h-468l86 48q-4 7 -14 11.5t-25 1.5q-34 50 -86 112t-112.5 122.5t-119.5 108.5q64 -3 156.5 -8t204.5 -12.5t232 -15.5
q-37 -62 -85 -121t-90 -105l13 -9q108 66 171 129t90.5 115t27.5 87t-18 46t-46 -9q-15 -52 -50 -113q-112 17 -268.5 38t-344.5 43q-10 15 -23 20l-34 -90l12.5 -3.5t18.5 -7.5q37 -32 79 -80.5t82 -104t73.5 -108.5t53.5 -95h-401l-9 -30h773z" />
</svg>
