<?xml version="1.0" standalone="no"?>
<!DOCTYPE svg PUBLIC "-//W3C//DTD SVG 1.1//EN" "http://www.w3.org/Graphics/SVG/1.1/DTD/svg11.dtd" >
<svg xmlns="http://www.w3.org/2000/svg" xmlns:xlink="http://www.w3.org/1999/xlink" version="1.1" viewBox="-10 0 1010 1000">
   <path fill="currentColor"
d="M680 483h-251q-22 104 -45 204.5t-43 177.5h339v-382zM818 865l52 -67l16 13t38 32t39 36q-4 16 -26 16h-890l-8 -30h235q20 -77 43.5 -178t45.5 -204h-209l-9 -29h224q16 -74 30 -142.5t24 -126.5h-312l-9 -28h657l51 -65l16 12.5t38 30.5t39 35q-3 15 -27 15h-385
q-11 58 -25.5 127t-29.5 142h234l38 -41l81 62q-12 14 -43 20v370h72z" />
</svg>
