<?xml version="1.0" standalone="no"?>
<!DOCTYPE svg PUBLIC "-//W3C//DTD SVG 1.1//EN" "http://www.w3.org/Graphics/SVG/1.1/DTD/svg11.dtd" >
<svg xmlns="http://www.w3.org/2000/svg" xmlns:xlink="http://www.w3.org/1999/xlink" version="1.1" viewBox="-10 0 1010 1000">
   <path fill="currentColor"
d="M815 881l52 -64l16.5 12.5t38.5 30.5t40 35q-4 16 -26 16h-885l-8 -30h583l65 -510h-355q-18 68 -38 138t-39 131.5t-35 107.5q-10 7 -30.5 7.5t-43.5 -6.5q16 -38 34.5 -94t38.5 -121.5t39 -133t34 -129t25 -107.5h-233l-8 -29h698l50 -64l16.5 12.5t39 30t40.5 34.5
q-3 16 -27 16h-508q-9 37 -20 82t-25 95h340l36 -41l74 65q-11 11 -36 12l-60 504h117zM353 636l8 -11q76 12 120.5 36t63 50.5t17.5 48.5t-16.5 31t-38.5 -3q-11 -28 -36.5 -56.5t-57 -54t-60.5 -41.5zM388 459l9 -11q72 6 114 24.5t60.5 41t18.5 42t-14.5 28.5t-37.5 -1
q-13 -22 -38 -45.5t-55 -44.5t-57 -34z" />
</svg>
