<?xml version="1.0" standalone="no"?>
<!DOCTYPE svg PUBLIC "-//W3C//DTD SVG 1.1//EN" "http://www.w3.org/Graphics/SVG/1.1/DTD/svg11.dtd" >
<svg xmlns="http://www.w3.org/2000/svg" xmlns:xlink="http://www.w3.org/1999/xlink" version="1.1" viewBox="-10 0 1010 1000">
   <path fill="currentColor"
d="M224 803l-14 -16q91 -64 149.5 -135t91.5 -146t47.5 -151t18 -150.5t4.5 -144.5l101 10q-1 10 -8.5 17.5t-25.5 9.5q-1 22 -2 46.5t-3 49.5q14 105 49.5 202t104.5 180t183 146l-2 11q-26 4 -42 15.5t-23 39.5q-89 -59 -145.5 -138.5t-87.5 -172.5t-46 -190
q-9 67 -29 135t-59 135t-103 129.5t-159 117.5zM811 878l53 -65l16.5 12.5t38.5 30t40 34.5q-4 16 -26 16h-737l-29 38l-81 -51q6 -5 16.5 -12t20.5 -11v-747l103 12q-2 11 -10.5 18t-27.5 10v715h623z" />
</svg>
