<?xml version="1.0" standalone="no"?>
<!DOCTYPE svg PUBLIC "-//W3C//DTD SVG 1.1//EN" "http://www.w3.org/Graphics/SVG/1.1/DTD/svg11.dtd" >
<svg xmlns="http://www.w3.org/2000/svg" xmlns:xlink="http://www.w3.org/1999/xlink" version="1.1" viewBox="-10 0 1010 1000">
   <path fill="currentColor"
d="M204 165v217q0 65 -4 139.5t-18 151.5t-44.5 150t-84.5 135l-14 -10q46 -85 67 -180t27 -193.5t6 -192.5v-283l77 36h599l50 -61l15.5 12t37 29.5t38.5 33.5q-4 16 -26 16h-726zM506 225l105 10q-3 22 -35 26q9 105 30.5 197.5t64 172t112.5 144.5t176 115l-2 12
q-25 4 -42.5 15.5t-24.5 40.5q-108 -62 -173 -147t-99 -187.5t-49 -218.5q-6 78 -24 154t-59.5 146.5t-115.5 134.5t-192 118l-13 -17q102 -57 166.5 -121.5t100 -134.5t51 -145.5t19 -154.5t4.5 -160z" />
</svg>
