<?xml version="1.0" standalone="no"?>
<!DOCTYPE svg PUBLIC "-//W3C//DTD SVG 1.1//EN" "http://www.w3.org/Graphics/SVG/1.1/DTD/svg11.dtd" >
<svg xmlns="http://www.w3.org/2000/svg" xmlns:xlink="http://www.w3.org/1999/xlink" version="1.1" viewBox="-10 0 1010 1000">
   <path fill="currentColor"
d="M713 560l44 -37l71 62q-8 11 -41 12q-22 60 -58.5 125.5t-84 128t-104.5 112.5l-13 -12q36 -49 70.5 -110.5t63.5 -127t46 -124.5h-551l-9 -29h566zM576 389l46 -59l14.5 12t34.5 28.5t37 32.5q-4 16 -27 16h-423l-8 -30h326zM462 33l91 53q-4 7 -13 11t-23 1
q47 71 118 131t156 104t172 68l-2 11q-43 6 -57 52q-127 -47 -232.5 -137t-169.5 -214q-88 136 -205 227.5t-245 138.5l-11 -15q78 -40 156 -103t147 -146t118 -182z" />
</svg>
