<?xml version="1.0" standalone="no"?>
<!DOCTYPE svg PUBLIC "-//W3C//DTD SVG 1.1//EN" "http://www.w3.org/Graphics/SVG/1.1/DTD/svg11.dtd" >
<svg xmlns="http://www.w3.org/2000/svg" xmlns:xlink="http://www.w3.org/1999/xlink" version="1.1" viewBox="-10 0 1010 1000">
   <path fill="currentColor"
d="M524 104q-34 66 -85 133.5t-113.5 130.5t-133 117.5t-143.5 93.5l-8 -15q63 -43 129 -105.5t124.5 -135.5t102 -146t62.5 -137l125 33q-4 15 -41 18q42 78 107 147.5t146 127t171 102.5l-3 14q-25 4 -42 21t-23 37q-82 -51 -156 -119t-130.5 -148.5t-88.5 -168.5z
M303 656q129 34 208 74t118 77.5t46.5 66.5t-9 42.5t-46.5 4.5q-25 -29 -64.5 -63t-85 -69t-91.5 -66.5t-85 -54.5zM415 391q84 28 131 61.5t66 65.5t16 55t-20.5 31t-42.5 -6q-14 -31 -42 -67.5t-59.5 -71.5t-59.5 -60z" />
</svg>
