<?xml version="1.0" standalone="no"?>
<!DOCTYPE svg PUBLIC "-//W3C//DTD SVG 1.1//EN" "http://www.w3.org/Graphics/SVG/1.1/DTD/svg11.dtd" >
<svg xmlns="http://www.w3.org/2000/svg" xmlns:xlink="http://www.w3.org/1999/xlink" version="1.1" viewBox="-10 0 1010 1000">
   <path fill="currentColor"
d="M601 693l12 -8q95 42 150 85t79.5 81t24.5 64.5t-16.5 36t-41.5 -5.5q-9 -20 -22.5 -41t-30.5 -43q-99 15 -241 33t-311 35q-8 13 -21 18l-33 -87l10 -2.5t17 -5.5q35 -20 74 -52.5t76 -70t67 -73.5t48 -63l95 54q-4 7 -14 11.5t-25 1.5q-31 30 -76 66.5t-96 72.5
t-102 65q59 -2 140 -5.5t177.5 -8t199.5 -9.5q-33 -41 -70.5 -80.5t-69.5 -68.5zM768 561l51 -63l16 12t38 29.5t40 34.5q-4 16 -28 16h-795l-9 -29h687zM610 383l49 -59l15 11.5t36 28.5t38 33q-3 16 -26 16h-470l-7 -30h365zM463 37l114 27q-4 16 -40 19q45 59 112.5 113
t149.5 99.5t169 79.5l-2 14q-22 4 -37.5 18.5t-20.5 31.5q-81 -40 -156.5 -94t-136 -117.5t-97.5 -132.5q-36 52 -88 105.5t-115.5 104t-133 94t-138.5 75.5l-8 -15q63 -34 129.5 -84.5t127 -108.5t105.5 -117.5t66 -111.5z" />
</svg>
