<?xml version="1.0" standalone="no"?>
<!DOCTYPE svg PUBLIC "-//W3C//DTD SVG 1.1//EN" "http://www.w3.org/Graphics/SVG/1.1/DTD/svg11.dtd" >
<svg xmlns="http://www.w3.org/2000/svg" xmlns:xlink="http://www.w3.org/1999/xlink" version="1.1" viewBox="-10 0 1010 1000">
   <path fill="currentColor"
d="M303 274l-9 -15q57 -26 114 -62.5t104.5 -76t74.5 -73.5l89 45q-11 16 -45 9q-36 30 -88.5 63t-114.5 62t-125 48zM255 42l103 34q-3 8 -12.5 13.5t-26.5 4.5q-40 111 -95 212l40 15q-5 15 -30 18v596q-1 4 -18 13t-35 9h-12v-557q-29 43 -59.5 80.5t-63.5 69.5l-14 -10
q43 -60 84.5 -140t77.5 -172t61 -186zM456 646l89 44q-4 7 -12 10.5t-25 -0.5q-24 34 -60 73t-79 76t-90 67l-12 -13q39 -35 75 -80.5t66 -92t48 -84.5zM763 423l12 -8q68 37 105.5 75t50.5 71t8.5 55t-20.5 28.5t-36 -9.5q-4 -19 -12 -39t-19 -41q-38 5 -83.5 11t-98.5 13
v293q0 25 -7 44t-28.5 31t-65.5 17q-1 -14 -5.5 -25.5t-12.5 -18.5q-20 -14 -83 -23v-15l14.5 1t35.5 2.5t39.5 2.5t25.5 1q14 0 18.5 -4.5t4.5 -14.5v-284q-51 6 -106.5 12.5t-115.5 12.5q-10 21 -21 25l-42 -80l12.5 -2t20.5 -6q61 -27 129.5 -69t132.5 -88
q-45 9 -99.5 18t-112.5 18q-10 18 -19 22l-40 -79l10 -2.5t16 -4.5q33 -17 69.5 -43.5t71.5 -58t63.5 -61.5t46.5 -52l83 49q-4 7 -14 11t-26 0q-28 24 -68 53.5t-85 58t-90 52.5q45 -2 106 -4.5t128 -6.5q43 -33 79.5 -64.5t60.5 -55.5l79 57q-4 7 -15 10t-27 -3
q-46 37 -115.5 82t-149.5 89.5t-158 80.5q78 -3 191 -9t240 -14q-18 -31 -38.5 -60t-39.5 -51zM721 662l11 -8q81 37 126.5 76.5t64 74.5t16.5 60t-18 33t-38 -8q-10 -37 -37 -79t-60.5 -81t-64.5 -68z" />
</svg>
