<?xml version="1.0" standalone="no"?>
<!DOCTYPE svg PUBLIC "-//W3C//DTD SVG 1.1//EN" "http://www.w3.org/Graphics/SVG/1.1/DTD/svg11.dtd" >
<svg xmlns="http://www.w3.org/2000/svg" xmlns:xlink="http://www.w3.org/1999/xlink" version="1.1" viewBox="-10 0 1010 1000">
   <path fill="currentColor"
d="M832 159h-672l-8 -30h563l51 -62l16 12t37.5 29.5t39.5 34.5q-4 16 -27 16zM940 689l2 168q17 6 22 12.5t5 17.5q0 15 -14.5 24t-55 13.5t-120.5 4.5h-107q-61 0 -80 -15t-19 -56v-453h-169q-6 106 -24 191.5t-57.5 153t-108 119.5t-173.5 91l-7 -14q88 -47 144.5 -101
t88.5 -120t46 -145t17 -175h-275l-8 -30h763l53 -64l16 12.5t38.5 30.5t39.5 35q-4 16 -26 16h-293v19v419q0 13 8 18.5t38 5.5h97q33 0 57 -0.5t34 -1.5q15 -1 20 -15q7 -14 15.5 -60.5t18.5 -100.5h14z" />
</svg>
