<?xml version="1.0" standalone="no"?>
<!DOCTYPE svg PUBLIC "-//W3C//DTD SVG 1.1//EN" "http://www.w3.org/Graphics/SVG/1.1/DTD/svg11.dtd" >
<svg xmlns="http://www.w3.org/2000/svg" xmlns:xlink="http://www.w3.org/1999/xlink" version="1.1" viewBox="-10 0 1010 1000">
   <path fill="currentColor"
d="M936 736l2 133q17 6 22 12t5 17q0 15 -14.5 24t-55.5 13t-122 4h-114q-60 0 -78.5 -14.5t-18.5 -52.5v-320h-131q-14 112 -55 190.5t-120 130.5t-207 85l-5 -15q110 -42 176 -95t99 -125t43 -171h-135v39q-1 4 -14.5 13t-41.5 9h-8v-502l81 29q47 -23 92.5 -50.5
t71.5 -49.5l78 59q-12 14 -47 3q-38 17 -96 36.5t-116 32.5v149h125l42 -55l13.5 11t32.5 26.5t33 30.5q-3 15 -25 15h-221v175h546v-175h-213l-9 -28h222v-169h-226l-8 -29h224l36 -41l81 63q-10 14 -42 20v419q-1 4 -20 12.5t-35 8.5h-10v-52h-147v8v298q0 13 7 17.5
t37 4.5h105q34 0 60 -0.5t36 -1.5q14 -1 21 -13q5 -13 13.5 -49.5t17.5 -79.5h13z" />
</svg>
