<?xml version="1.0" standalone="no"?>
<!DOCTYPE svg PUBLIC "-//W3C//DTD SVG 1.1//EN" "http://www.w3.org/Graphics/SVG/1.1/DTD/svg11.dtd" >
<svg xmlns="http://www.w3.org/2000/svg" xmlns:xlink="http://www.w3.org/1999/xlink" version="1.1" viewBox="-10 0 1010 1000">
   <path fill="currentColor"
d="M313 94l97 42q-4 7 -12.5 10.5t-26.5 1.5q-30 55 -78.5 115.5t-111 116t-136.5 95.5l-11 -13q64 -47 118 -109.5t95.5 -130t65.5 -128.5zM693 566l38 -39l75 62q-11 12 -41 15q-6 79 -19.5 145t-32.5 111.5t-43 64.5q-21 17 -50 25.5t-64 8.5q0 -14 -4.5 -26.5
t-16.5 -19.5q-13 -9 -45.5 -17t-66.5 -12l1 -17q25 2 59 5t63.5 5t40.5 2q29 0 42 -11q16 -12 29.5 -50.5t24.5 -96t18 -125.5h-355l-36 35l-69 -60q8 -5 21 -10t26 -9q17 -37 35.5 -82.5t29.5 -79.5h-113l-8 -30h393l46 -56l14.5 11.5t34.5 27.5t36 31q-4 16 -27 16h-306
q-13 37 -34.5 86.5t-38.5 89.5h343zM654 38l85 58q-8 10 -26 14.5t-41 6.5q30 85 106.5 160.5t189.5 117.5l-3 12q-20 4 -35.5 18t-21.5 33q-103 -58 -169 -145.5t-94 -199.5h-137l-8 -30h123z" />
</svg>
