<?xml version="1.0" standalone="no"?>
<!DOCTYPE svg PUBLIC "-//W3C//DTD SVG 1.1//EN" "http://www.w3.org/Graphics/SVG/1.1/DTD/svg11.dtd" >
<svg xmlns="http://www.w3.org/2000/svg" xmlns:xlink="http://www.w3.org/1999/xlink" version="1.1" viewBox="-10 0 1010 1000">
   <path fill="currentColor"
d="M809 191l46 -56l15 11t35.5 27t36.5 31q-4 16 -26 16h-471q-47 83 -103 151l18 7h375l33 -41l83 64q-4 5 -15.5 11t-26.5 8v443q0 25 -7 44t-29.5 30.5t-69.5 16.5q-2 -14 -7.5 -25.5t-16.5 -18.5q-13 -8 -34 -14t-56 -10v-15l16.5 1t40 2.5t44.5 2.5t30 1q14 0 19.5 -5
t5.5 -16v-449h-397v145q0 47 -4 100.5t-17 108t-40.5 106.5t-75.5 96l-14 -12q40 -60 57.5 -126.5t22.5 -136t5 -136.5v-112q-52 55 -109 99t-117 78l-12 -14q88 -65 172.5 -163.5t150.5 -220.5h-294l-9 -29h318q36 -72 65 -153l101 37q-7 21 -40 18q-11 25 -23 49.5
t-24 48.5h348z" />
</svg>
