<?xml version="1.0" standalone="no"?>
<!DOCTYPE svg PUBLIC "-//W3C//DTD SVG 1.1//EN" "http://www.w3.org/Graphics/SVG/1.1/DTD/svg11.dtd" >
<svg xmlns="http://www.w3.org/2000/svg" xmlns:xlink="http://www.w3.org/1999/xlink" version="1.1" viewBox="-10 0 1010 1000">
   <path fill="currentColor"
d="M822 253l79 67q-6 5 -16 9.5t-26 6.5q-4 146 -14 264.5t-26.5 197.5t-40.5 107q-43 46 -124 46q0 -16 -4.5 -29.5t-16.5 -21.5q-13 -9 -48 -18t-70 -15l1 -18q27 3 61.5 6t64 5.5t42.5 2.5q17 0 25 -3t16 -11q15 -13 26 -57.5t19 -114.5t13 -159.5t8 -191.5h-297
q-7 95 -29 183t-68.5 168.5t-128 151t-209.5 129.5l-12 -18q108 -61 178.5 -130t111.5 -146.5t60.5 -162t25.5 -175.5h-317l-9 -29h328q3 -61 3.5 -124.5t0.5 -129.5l109 12q-2 10 -10 18t-26 10q-1 55 -2 108.5t-4 105.5h286z" />
</svg>
