<?xml version="1.0" standalone="no"?>
<!DOCTYPE svg PUBLIC "-//W3C//DTD SVG 1.1//EN" "http://www.w3.org/Graphics/SVG/1.1/DTD/svg11.dtd" >
<svg xmlns="http://www.w3.org/2000/svg" xmlns:xlink="http://www.w3.org/1999/xlink" version="1.1" viewBox="-10 0 1010 1000">
   <path fill="currentColor"
d="M297 384l10 -7q101 46 159 94.5t83 91.5t23.5 73.5t-20 40.5t-45.5 -8q-16 -46 -51 -97.5t-77.5 -101t-81.5 -86.5zM872 192l78 67q-10 13 -42 16q-4 108 -10 211t-16 190t-24.5 148t-34.5 84q-45 52 -134 52q0 -16 -5 -30t-19 -21q-16 -11 -58.5 -20.5t-84.5 -16.5
l2 -18q33 3 74.5 7t77 7t48.5 3q19 0 27.5 -3t18.5 -11q16 -15 28 -70.5t20.5 -138.5t14.5 -182t9 -200h-570q-48 83 -105.5 152t-119.5 119l-14 -10q49 -56 96 -133t88 -167t69 -185l107 38q-3 9 -12.5 14.5t-26.5 4.5q-15 35 -31.5 70t-33.5 67h544z" />
</svg>
