<?xml version="1.0" standalone="no"?>
<!DOCTYPE svg PUBLIC "-//W3C//DTD SVG 1.1//EN" "http://www.w3.org/Graphics/SVG/1.1/DTD/svg11.dtd" >
<svg xmlns="http://www.w3.org/2000/svg" xmlns:xlink="http://www.w3.org/1999/xlink" version="1.1" viewBox="-10 0 1010 1000">
   <path fill="currentColor"
d="M861 142l77 65q-10 13 -42 17q-1 179 -6 322.5t-16.5 237t-33.5 123.5q-21 26 -51 38t-71 12q0 -15 -4.5 -27.5t-16.5 -19.5q-14 -9 -48 -17.5t-70 -14.5v-18q28 3 62 6.5t63.5 5.5t41.5 2q17 0 24.5 -3t14.5 -11q14 -14 23 -69t14 -141.5t7.5 -197.5t3.5 -237h-548
q-25 38 -52 73t-55 66l98 11q-3 22 -38 28v342h412l48 -58l15 11.5t35.5 28t36.5 32.5q-3 16 -25 16h-514l-28 36l-80 -49q6 -6 16.5 -12.5t20.5 -10.5v-372q-31 34 -63 62.5t-65 52.5l-13 -12q47 -48 94.5 -115.5t89.5 -146.5t73 -163l103 42q-4 8 -13.5 13t-26.5 3
q-11 25 -24 47.5t-27 45.5h519zM485 267l98 27q-2 9 -10.5 15t-25.5 6q-10 34 -21 65.5t-24 60.5q80 34 127 69.5t67.5 67t21 54t-13 30.5t-35.5 -5q-13 -30 -42 -65t-64.5 -68.5t-70.5 -60.5q-78 155 -207 236l-11 -12q75 -68 131 -175t80 -245z" />
</svg>
