<?xml version="1.0" standalone="no"?>
<!DOCTYPE svg PUBLIC "-//W3C//DTD SVG 1.1//EN" "http://www.w3.org/Graphics/SVG/1.1/DTD/svg11.dtd" >
<svg xmlns="http://www.w3.org/2000/svg" xmlns:xlink="http://www.w3.org/1999/xlink" version="1.1" viewBox="-10 0 1010 1000">
   <path fill="currentColor"
d="M818 878l49 -62l15 12.5l36 30t37 33.5q-3 16 -25 16h-749l-26 39l-75 -51q11 -13 28 -22v-788l77 34h609l45 -56l14 11t33 27t34 31q-4 16 -26 16h-721v729h645zM689 210l99 49q-4 7 -14.5 11.5t-28.5 1.5q-29 58 -62.5 111t-70.5 100q81 70 120.5 123.5t46.5 87.5
t-8.5 45t-43.5 -5q-24 -44 -66.5 -95t-93.5 -103q-68 79 -144 141t-157 106l-12 -14q69 -49 139 -119.5t133 -155.5q-57 -57 -117 -110.5t-111 -95.5l13 -12q153 89 251 166q37 -54 69 -112.5t58 -119.5z" />
</svg>
