<?xml version="1.0" standalone="no"?>
<!DOCTYPE svg PUBLIC "-//W3C//DTD SVG 1.1//EN" "http://www.w3.org/Graphics/SVG/1.1/DTD/svg11.dtd" >
<svg xmlns="http://www.w3.org/2000/svg" xmlns:xlink="http://www.w3.org/1999/xlink" version="1.1" viewBox="-10 0 1010 1000">
   <path fill="currentColor"
d="M958 716l-15 165q27 58 10 70q-21 15 -47.5 -1t-48.5 -47q-41 -46 -65 -127.5t-35.5 -186.5t-14.5 -220.5t-3 -229.5h-310v335h168l47 -62l15 12.5t35 29.5t36 33q-4 16 -27 16h-274v433q-1 4 -15.5 12.5t-39.5 8.5h-11v-454h-273l-8 -29h281v-335h-277l-9 -29h651
l40 -43l82 71q-4 5 -15 10t-28 7q-3 70 -3 150.5t4.5 161t15.5 153.5t28.5 128t43.5 84q8 8 11.5 6.5t7.5 -11.5q9 -28 16.5 -56.5t13.5 -56.5z" />
</svg>
