<?xml version="1.0" standalone="no"?>
<!DOCTYPE svg PUBLIC "-//W3C//DTD SVG 1.1//EN" "http://www.w3.org/Graphics/SVG/1.1/DTD/svg11.dtd" >
<svg xmlns="http://www.w3.org/2000/svg" xmlns:xlink="http://www.w3.org/1999/xlink" version="1.1" viewBox="-10 0 1010 1000">
   <path fill="currentColor"
d="M809 443l52 -66l16.5 13t39 31.5t40.5 35.5q-3 16 -27 16h-396v463q0 4 -16 13.5t-41 9.5h-11v-486h-409l-9 -30h418v-267q-84 10 -170.5 16.5t-172.5 8.5l-2 -21q87 -7 179.5 -20.5t181 -30.5t165 -36t131.5 -38l74 69q-7 5 -20 5t-32 -7q-56 12 -124 23.5t-142 21.5
v276h275z" />
</svg>
