<?xml version="1.0" standalone="no"?>
<!DOCTYPE svg PUBLIC "-//W3C//DTD SVG 1.1//EN" "http://www.w3.org/Graphics/SVG/1.1/DTD/svg11.dtd" >
<svg xmlns="http://www.w3.org/2000/svg" xmlns:xlink="http://www.w3.org/1999/xlink" version="1.1" viewBox="-10 0 1010 1000">
   <path fill="currentColor"
d="M217 156v222q0 67 -4.5 142t-20.5 152t-50 149.5t-92 134.5l-15 -10q53 -84 77.5 -178.5t32 -193.5t7.5 -195v-289l78 37h590l48 -60l15 12t35.5 28.5t36.5 32.5q-3 16 -27 16h-711zM830 866l47 -61l15 12t35.5 29t36.5 33q-3 16 -26 16h-749l-8 -29h346v-360h-246
l-8 -30h254v-266l101 11q-1 10 -9 17.5t-27 10.5v227h172l46 -59l14.5 12t34 28.5t35.5 32.5q-4 16 -26 16h-276v360h238zM661 581l11 -8q72 26 112.5 58t56 62t12 52t-19.5 29.5t-38 -7.5q-9 -31 -30.5 -65.5t-49 -66.5t-54.5 -54z" />
</svg>
