<?xml version="1.0" standalone="no"?>
<!DOCTYPE svg PUBLIC "-//W3C//DTD SVG 1.1//EN" "http://www.w3.org/Graphics/SVG/1.1/DTD/svg11.dtd" >
<svg xmlns="http://www.w3.org/2000/svg" xmlns:xlink="http://www.w3.org/1999/xlink" version="1.1" viewBox="-10 0 1010 1000">
   <path fill="currentColor"
d="M668 500l14 -7q100 84 158 159t82.5 134.5t23.5 98t-20 49t-47 -12.5q-7 -31 -20 -66t-30 -71q-124 21 -294.5 47.5t-378.5 55.5q-13 21 -29 27l-40 -97l14.5 -4t21.5 -13q34 -51 73 -122t78.5 -152.5t76.5 -164.5t66 -159.5t46 -137.5l108 55q-4 8 -14 13.5t-27 2.5
q-27 72 -69.5 159.5t-94 180.5t-107 181t-109.5 160q69 -4 173 -12t231.5 -19t264.5 -23q-33 -70 -74 -138.5t-77 -123.5z" />
</svg>
