<?xml version="1.0" standalone="no"?>
<!DOCTYPE svg PUBLIC "-//W3C//DTD SVG 1.1//EN" "http://www.w3.org/Graphics/SVG/1.1/DTD/svg11.dtd" >
<svg xmlns="http://www.w3.org/2000/svg" xmlns:xlink="http://www.w3.org/1999/xlink" version="1.1" viewBox="-10 0 1010 1000">
   <path fill="currentColor"
d="M726 502h-326q28 70 71.5 126.5t99.5 100.5q51 -48 89.5 -105t65.5 -122zM771 432l72 68q-9 11 -42 14q-65 147 -185 249q140 89 332 124l-2 11q-47 6 -63 57q-94 -26 -172.5 -64t-140.5 -92q-78 56 -178 97t-225 65l-6 -16q226 -60 370 -180q-102 -104 -153 -263h-32
q-26 83 -65.5 162.5t-96.5 149.5t-136 124l-13 -10q82 -72 137 -164.5t89 -196.5t51 -210h-243l-9 -29h257q5 -35 9 -70.5t7 -69.5q-67 5 -129 8t-114 3l-1 -19q96 -10 213 -28t241.5 -43.5t239.5 -57.5l60 77q-15 11 -37 -4q-104 21 -222.5 37t-231.5 25l95 13
q-2 9 -10.5 15t-31.5 8q-4 26 -8 52.5t-9 53.5h406l50 -63l16 12.5t38 30t40 33.5q-4 16 -27 16h-528q-6 28 -13 57.5t-15 58.5h371z" />
</svg>
