<?xml version="1.0" standalone="no"?>
<!DOCTYPE svg PUBLIC "-//W3C//DTD SVG 1.1//EN" "http://www.w3.org/Graphics/SVG/1.1/DTD/svg11.dtd" >
<svg xmlns="http://www.w3.org/2000/svg" xmlns:xlink="http://www.w3.org/1999/xlink" version="1.1" viewBox="-10 0 1010 1000">
   <path fill="currentColor"
d="M745 560h-489v284h489v-284zM806 267l53 -67l16.5 13.5t39 32t40.5 34.5q-3 16 -27 16h-396v234h201l40 -44l89 68q-13 15 -50 23v356q-1 4 -20.5 12.5t-36.5 8.5h-10v-80h-489v60q0 5 -17.5 14t-38.5 9h-11v-459l73 32h202v-234h-404l-9 -29h413v-223l104 11
q-2 10 -10 17.5t-26 10.5v184h274z" />
</svg>
