<?xml version="1.0" standalone="no"?>
<!DOCTYPE svg PUBLIC "-//W3C//DTD SVG 1.1//EN" "http://www.w3.org/Graphics/SVG/1.1/DTD/svg11.dtd" >
<svg xmlns="http://www.w3.org/2000/svg" xmlns:xlink="http://www.w3.org/1999/xlink" version="1.1" viewBox="-10 0 1010 1000">
   <path fill="currentColor"
d="M68 434h398v-197h-312l-8 -30h320v-163l103 11q-1 10 -9.5 17.5t-26.5 10.5v124h205l47 -59l15 11.5t35 28.5t36 33q-1 16 -25 16h-313v197h264l48 -60l15 12t36 29t38 32q-4 16 -26 16h-831zM816 902l51 -63l15.5 12.5t36.5 30t38 34.5q-3 15 -25 15h-881l-8 -29h423
v-220h-335l-8 -29h343v-164l103 12q-1 10 -9.5 17t-26.5 10v125h228l48 -61l15 12t36 29.5t38 33.5q-4 15 -27 15h-338v220h283z" />
</svg>
