<?xml version="1.0" standalone="no"?>
<!DOCTYPE svg PUBLIC "-//W3C//DTD SVG 1.1//EN" "http://www.w3.org/Graphics/SVG/1.1/DTD/svg11.dtd" >
<svg xmlns="http://www.w3.org/2000/svg" xmlns:xlink="http://www.w3.org/1999/xlink" version="1.1" viewBox="-10 0 1010 1000">
   <path fill="currentColor"
d="M827 170l79 71q-6 7 -17 10t-28 4q-53 148 -124.5 261.5t-167 197.5t-219.5 143.5t-283 99.5l-9 -16q140 -48 252.5 -109.5t201 -144t155.5 -192t116 -254.5h-387q-20 34 -42.5 69.5t-48.5 70.5q83 31 131 67t68 69.5t18.5 58.5t-17.5 34t-40 -5q-12 -35 -40.5 -72
t-64 -72t-70.5 -62q-43 55 -93 105t-109 92l-12 -12q59 -54 110.5 -121t93 -139.5t73 -145t51.5 -137.5l104 38q-4 8 -12 12t-28 2q-12 28 -25.5 58t-30.5 61h373z" />
</svg>
