<?xml version="1.0" standalone="no"?>
<!DOCTYPE svg PUBLIC "-//W3C//DTD SVG 1.1//EN" "http://www.w3.org/Graphics/SVG/1.1/DTD/svg11.dtd" >
<svg xmlns="http://www.w3.org/2000/svg" xmlns:xlink="http://www.w3.org/1999/xlink" version="1.1" viewBox="-10 0 1010 1000">
   <path fill="currentColor"
d="M932 366h-399q14 71 42.5 143t79 140.5t128.5 130.5t189 113l-2 11q-26 3 -43.5 14.5t-25.5 40.5q-104 -57 -174 -128.5t-113 -150t-66 -158.5t-34 -155q-10 87 -36 169t-77 157t-136 141.5t-214 123.5l-11 -18q110 -59 183.5 -124.5t118.5 -137.5t68.5 -150t33.5 -162
h-385l-9 -29h397q6 -70 7 -143.5t1 -149.5l107 11q-2 11 -9.5 18.5t-24.5 10.5q-1 64 -3 127.5t-8 125.5h288l55 -69l17 13.5t40 32.5t41 36q-3 16 -26 16z" />
</svg>
