<?xml version="1.0" standalone="no"?>
<!DOCTYPE svg PUBLIC "-//W3C//DTD SVG 1.1//EN" "http://www.w3.org/Graphics/SVG/1.1/DTD/svg11.dtd" >
<svg xmlns="http://www.w3.org/2000/svg" xmlns:xlink="http://www.w3.org/1999/xlink" version="1.1" viewBox="-10 0 1010 1000">
   <path fill="currentColor"
d="M928 453h-399q14 61 43.5 121.5t80.5 118t128.5 108.5t187.5 93l-2 12q-27 2 -44.5 13t-23.5 40q-104 -48 -174 -108.5t-113.5 -127.5t-67 -136t-35.5 -134q-12 82 -39 154.5t-79 135.5t-135.5 117.5t-208.5 99.5l-11 -18q108 -47 181 -101t118 -115t69 -129t34 -144
h-368l-8 -29h380q7 -60 8 -124.5t2 -133.5h-321l-9 -30h629l51 -63l16 12.5t38 30t40 34.5q-4 16 -28 16h-342q-1 70 -3.5 134.5t-9.5 123.5h297l51 -64l16 12.5t38.5 30t40.5 34.5q-4 16 -28 16z" />
</svg>
