<?xml version="1.0" standalone="no"?>
<!DOCTYPE svg PUBLIC "-//W3C//DTD SVG 1.1//EN" "http://www.w3.org/Graphics/SVG/1.1/DTD/svg11.dtd" >
<svg xmlns="http://www.w3.org/2000/svg" xmlns:xlink="http://www.w3.org/1999/xlink" version="1.1" viewBox="-10 0 1010 1000">
   <path fill="currentColor"
d="M933 509h-396q21 65 69 133.5t135 132t223 114.5l-2 12q-26 3 -43.5 13.5t-23.5 39.5q-97 -44 -164 -98.5t-110 -114t-67.5 -119t-37.5 -113.5h-14q-15 74 -45 139t-81.5 121t-130.5 103.5t-193 86.5l-10 -19q129 -54 208.5 -118.5t122.5 -142.5t61 -170h-378l-9 -29h392
q8 -49 12 -101.5t5 -109.5h-329l-8 -28h337q1 -47 0.5 -95.5t-0.5 -100.5l105 12q-2 10 -9.5 17.5t-24.5 10.5q-1 40 -1 79t-1 77h214l50 -64l16 12.5t38 30.5t39 34q-4 15 -26 15h-332q-1 57 -5 109.5t-12 101.5h309l50 -62l16 12t38.5 29.5t39.5 34.5q-4 15 -27 15z" />
</svg>
