<?xml version="1.0" standalone="no"?>
<!DOCTYPE svg PUBLIC "-//W3C//DTD SVG 1.1//EN" "http://www.w3.org/Graphics/SVG/1.1/DTD/svg11.dtd" >
<svg xmlns="http://www.w3.org/2000/svg" xmlns:xlink="http://www.w3.org/1999/xlink" version="1.1" viewBox="-10 0 1010 1000">
   <path fill="currentColor"
d="M562 638l10 -11q126 59 203 113t114.5 97.5t44.5 73t-7.5 39.5t-40.5 -3q-22 -33 -60.5 -73.5t-84.5 -83.5t-93 -82.5t-86 -69.5zM743 257h-209q-1 82 -6.5 154.5t-19.5 136.5h235v-291zM244 548h198q14 -64 19 -136.5t6 -154.5h-223v291zM838 548l46 -72l15 14t34.5 34
t34.5 38q-4 16 -26 16h-441q-23 87 -74 157.5t-140.5 126.5t-230.5 99l-11 -18q121 -44 199 -98.5t123 -120.5t67 -146h-386l-8 -30h140v-353l77 33h210q1 -43 0.5 -88.5t-0.5 -94.5l103 11q-1 11 -8.5 18.5t-25.5 10.5q-1 37 -1 73v70h198l38 -41l79 62q-10 15 -42 21v278
h30z" />
</svg>
