<?xml version="1.0" standalone="no"?>
<!DOCTYPE svg PUBLIC "-//W3C//DTD SVG 1.1//EN" "http://www.w3.org/Graphics/SVG/1.1/DTD/svg11.dtd" >
<svg xmlns="http://www.w3.org/2000/svg" xmlns:xlink="http://www.w3.org/1999/xlink" version="1.1" viewBox="-10 0 1010 1000">
   <path fill="currentColor"
d="M748 530l43 -53l14 10.5t33 25.5t34 30q-4 16 -26 16h-476q-9 23 -20.5 51t-22.5 53h355l38 -39l75 62q-11 11 -39 15q-13 86 -39.5 148t-60.5 85q-20 14 -48 20.5t-60 6.5q0 -14 -4 -25t-15 -18q-12 -8 -38.5 -15t-56.5 -11l1 -17q22 2 51 4.5t55 4t37 1.5
q14 0 22.5 -1.5t16.5 -7.5q20 -14 39.5 -64t31.5 -120h-365l-34 32l-68 -58q8 -5 20 -9.5t25 -7.5q10 -23 20 -47t17 -43h-178l-8 -29h631zM588 391l39 -50l12.5 10t29.5 24.5t31 28.5q-4 16 -26 16h-371l-8 -29h293zM929 219h-307q36 54 90.5 97.5t121.5 74t138 45.5l-1 10
q-45 10 -57 61q-109 -38 -189 -110t-127 -178h-168q-79 109 -178 186t-207 123l-11 -14q84 -48 165 -123t148 -172h-289l-8 -30h317q24 -36 44.5 -75.5t38.5 -79.5l99 44q-4 8 -14 13t-28 2q-25 51 -57 96h370l47 -57l15 11.5t36 27.5t38 32q-4 16 -27 16z" />
</svg>
