<?xml version="1.0" standalone="no"?>
<!DOCTYPE svg PUBLIC "-//W3C//DTD SVG 1.1//EN" "http://www.w3.org/Graphics/SVG/1.1/DTD/svg11.dtd" >
<svg xmlns="http://www.w3.org/2000/svg" xmlns:xlink="http://www.w3.org/1999/xlink" version="1.1" viewBox="-10 0 1010 1000">
   <path fill="currentColor"
d="M703 276l96 25q-3 9 -11 15.5t-25 5.5q-18 57 -42 109q71 22 111 50.5t56.5 55.5t14 47t-17.5 27t-37 -5q-11 -25 -33 -53t-49.5 -54.5t-55.5 -47.5q-47 88 -115 141q49 94 136 169.5t227 131.5l-2 12q-26 2 -44 13.5t-24 39.5q-130 -63 -208 -148t-118.5 -188.5
t-57.5 -221.5q-7 87 -31 169t-74 155t-135.5 132.5t-215.5 101.5l-8 -18q109 -45 181.5 -101t117 -121t66.5 -137.5t29.5 -150t7.5 -158.5v-36h-382l-8 -30h390v-162l102 11q-2 10 -9 17.5t-26 10.5v123h299l50 -63l16 12.5t38 30t39 34.5q-4 16 -27 16h-415v27
q8 85 25.5 162t49.5 145q41 -54 73 -130t46 -164zM231 275l96 25q-3 9 -11.5 15t-24.5 6q-16 58 -39 108q57 20 87.5 45t41 48.5t5.5 40t-20 22t-34 -7.5q-10 -31 -35.5 -65.5t-54.5 -62.5q-60 121 -159 185l-13 -11q58 -59 101 -148t60 -200z" />
</svg>
