<?xml version="1.0" standalone="no"?>
<!DOCTYPE svg PUBLIC "-//W3C//DTD SVG 1.1//EN" "http://www.w3.org/Graphics/SVG/1.1/DTD/svg11.dtd" >
<svg xmlns="http://www.w3.org/2000/svg" xmlns:xlink="http://www.w3.org/1999/xlink" version="1.1" viewBox="-10 0 1010 1000">
   <path fill="currentColor"
d="M807 479l54 -66l16.5 13t39 31.5t40.5 35.5q-3 15 -26 15h-392v348q0 27 -8 48t-35 34.5t-84 18.5q-4 -16 -10.5 -28t-20.5 -19q-15 -9 -43 -16t-74 -12v-16l23 1.5t55 3.5t60.5 3.5t38.5 1.5q17 0 23.5 -5.5t6.5 -19.5v-343h-417l-7 -29h424v-165l57 6
q53 -35 106.5 -80.5t90.5 -83.5h-569l-9 -29h593l48 -45l81 73q-7 5 -17.5 7t-27.5 4q-34 24 -78.5 52.5t-93 55.5t-97.5 49l18 2q-4 21 -34 26v128h268z" />
</svg>
