<?xml version="1.0" standalone="no"?>
<!DOCTYPE svg PUBLIC "-//W3C//DTD SVG 1.1//EN" "http://www.w3.org/Graphics/SVG/1.1/DTD/svg11.dtd" >
<svg xmlns="http://www.w3.org/2000/svg" xmlns:xlink="http://www.w3.org/1999/xlink" version="1.1" viewBox="-10 0 1010 1000">
   <path fill="currentColor"
d="M469 46l103 11q-1 10 -9 17.5t-28 9.5v533q0 7 -18 19t-37 12h-11v-602zM662 195q101 52 160 103.5t85 95t27.5 73t-14.5 39.5t-41 -6q-13 -35 -38.5 -74.5t-57.5 -79.5t-66.5 -77t-65.5 -65zM274 190l102 38q-4 9 -12 13t-26 2q-26 59 -67 128t-94 136t-118 120l-12 -11
q53 -60 97.5 -134.5t78 -151t51.5 -140.5zM738 486l95 51q-6 7 -15 9.5t-29 -1.5q-66 107 -142 179t-163.5 117.5t-187.5 72.5t-216 44l-4 -18q106 -25 200.5 -57.5t177 -83t153.5 -126.5t131 -187z" />
</svg>
