<?xml version="1.0" standalone="no"?>
<!DOCTYPE svg PUBLIC "-//W3C//DTD SVG 1.1//EN" "http://www.w3.org/Graphics/SVG/1.1/DTD/svg11.dtd" >
<svg xmlns="http://www.w3.org/2000/svg" xmlns:xlink="http://www.w3.org/1999/xlink" version="1.1" viewBox="-10 0 1010 1000">
   <path fill="currentColor"
d="M270 149v206v27.5t-1 28.5h478v-262h-477zM747 441h-246q15 61 45.5 122.5t82.5 120t131 110t191 93.5l-1 13q-27 2 -44.5 13.5t-24.5 38.5q-106 -49 -177.5 -109.5t-116.5 -128t-69.5 -137t-36.5 -136.5h-213q-3 65 -13.5 133t-34 135t-64.5 129.5t-105 116.5l-15 -12
q73 -86 109 -182.5t48 -199.5t12 -205v-271l77 34h455l37 -41l80 63q-10 14 -42 20v319q-1 4 -20 12.5t-35 8.5h-10v-60z" />
</svg>
