<?xml version="1.0" standalone="no"?>
<!DOCTYPE svg PUBLIC "-//W3C//DTD SVG 1.1//EN" "http://www.w3.org/Graphics/SVG/1.1/DTD/svg11.dtd" >
<svg xmlns="http://www.w3.org/2000/svg" xmlns:xlink="http://www.w3.org/1999/xlink" version="1.1" viewBox="-10 0 1010 1000">
   <path fill="currentColor"
d="M658 51l85 60q-6 7 -15 8t-26 -3q-109 86 -241 150.5t-272 106.5l-9 -17q129 -53 254 -129t224 -176zM723 282l89 59q-10 14 -40 6q-116 112 -258.5 182t-302.5 114l-8 -18q147 -55 281 -137t239 -206zM810 548l92 60q-7 8 -16.5 9.5t-27.5 -3.5q-97 105 -208 171
t-235.5 104.5t-265.5 61.5l-5 -18q130 -33 249 -79.5t224.5 -119.5t192.5 -186z" />
</svg>
