<?xml version="1.0" standalone="no"?>
<!DOCTYPE svg PUBLIC "-//W3C//DTD SVG 1.1//EN" "http://www.w3.org/Graphics/SVG/1.1/DTD/svg11.dtd" >
<svg xmlns="http://www.w3.org/2000/svg" xmlns:xlink="http://www.w3.org/1999/xlink" version="1.1" viewBox="-10 0 1010 1000">
   <path fill="currentColor"
d="M642 35l82 58q-6 7 -14.5 9t-25.5 -5q-53 50 -132.5 102.5t-174 99.5t-192.5 79l-9 -14q67 -30 134 -69t129.5 -83.5t114.5 -89.5t88 -87zM717 220l84 60q-6 7 -14.5 8.5t-25.5 -4.5q-40 43 -92.5 88.5t-114.5 88.5l32 12q-4 14 -30 19v445q-1 4 -18.5 12.5t-35.5 8.5
h-12v-454q-76 49 -161 90.5t-175 72.5l-9 -13q86 -39 169.5 -90t159 -108.5t138 -118t105.5 -117.5z" />
</svg>
