<?xml version="1.0" standalone="no"?>
<!DOCTYPE svg PUBLIC "-//W3C//DTD SVG 1.1//EN" "http://www.w3.org/Graphics/SVG/1.1/DTD/svg11.dtd" >
<svg xmlns="http://www.w3.org/2000/svg" xmlns:xlink="http://www.w3.org/1999/xlink" version="1.1" viewBox="-10 0 1010 1000">
   <path fill="currentColor"
d="M269 41l101 12q-2 10 -9.5 17.5t-27.5 10.5v853q0 7 -16.5 16t-34.5 9h-13v-918zM174 241l18 1q11 58 5.5 105.5t-20 82t-31.5 53.5q-16 19 -39.5 23.5t-36.5 -11.5q-10 -14 -4 -30.5t21 -29.5q19 -17 37.5 -47.5t32 -69t17.5 -77.5zM379 215q52 40 76.5 79t29 72
t-5 54.5t-26.5 25.5t-35 -15q3 -34 -4.5 -72t-20 -74.5t-27.5 -64.5z" />
</svg>
