<?xml version="1.0" standalone="no"?>
<!DOCTYPE svg PUBLIC "-//W3C//DTD SVG 1.1//EN" "http://www.w3.org/Graphics/SVG/1.1/DTD/svg11.dtd" >
<svg xmlns="http://www.w3.org/2000/svg" xmlns:xlink="http://www.w3.org/1999/xlink" version="1.1" viewBox="-10 0 1010 1000">
   <path fill="currentColor"
d="M420 71l13 -7q66 38 100.5 79.5t44.5 78t2.5 62t-25 32.5t-38.5 -12q0 -40 -14 -82.5t-36 -82t-47 -68.5zM173 371h18q20 73 16.5 130.5t-20 97.5t-35.5 62q-18 22 -43.5 28.5t-38.5 -10.5q-10 -14 -4.5 -30.5t19.5 -29.5q24 -21 44.5 -59t33 -87.5t10.5 -101.5zM781 658
l3 179q18 7 25 13.5t7 17.5q0 17 -19 27t-72 14t-157 4h-144q-73 0 -99 -17.5t-26 -66.5v-30q-55 38 -116 72t-128 63l-10 -14q70 -36 133.5 -79.5t120.5 -91.5v-526l99 12q-2 21 -34 27v428q133 -128 224.5 -279t144.5 -302l106 40q-4 10 -14 13.5t-30 0.5
q-62 154 -168 307.5t-263 279.5v65q0 19 12 27t54 8h140q50 0 84 -0.5t50 -1.5q12 -2 17 -6t9 -12q7 -16 17 -63t21 -109h13zM755 388l13 -7q77 46 118.5 94t55.5 90t7.5 71t-25 37t-41.5 -13q-2 -45 -21.5 -94.5t-48 -96t-58.5 -81.5z" />
</svg>
