<?xml version="1.0" standalone="no"?>
<!DOCTYPE svg PUBLIC "-//W3C//DTD SVG 1.1//EN" "http://www.w3.org/Graphics/SVG/1.1/DTD/svg11.dtd" >
<svg xmlns="http://www.w3.org/2000/svg" xmlns:xlink="http://www.w3.org/1999/xlink" version="1.1" viewBox="-10 0 1010 1000">
   <path fill="currentColor"
d="M536 75l9 -10q76 16 121 41t64.5 52t18.5 48.5t-15.5 30.5t-37.5 -2q-12 -28 -38.5 -58t-59 -57t-62.5 -45zM937 739l-16 146q29 22 34.5 32t0.5 20q-8 18 -31 21t-55 -5.5t-67 -22.5q-85 -30 -151.5 -77.5t-116.5 -109.5q-93 67 -209 120t-256 85l-6 -16
q130 -40 240.5 -99.5t198.5 -133.5q-49 -74 -80 -162t-47 -188l-319 23l-12 -29l326 -25q-10 -65 -14 -134.5t-4 -142.5l104 12q-1 10 -9 17.5t-27 10.5q0 60 3.5 118.5t10.5 114.5l364 -28l46 -67l16.5 11.5t39.5 27.5t41 31q-3 16 -26 18l-476 37q14 87 41 166.5t70 146.5
q134 -128 202 -276l95 50q-4 7 -13.5 9.5t-28.5 -0.5q-38 70 -93.5 137t-126.5 126q44 54 104 96t138 67q20 7 29.5 5.5t16.5 -15.5q10 -20 25 -54t25 -65z" />
</svg>
