<?xml version="1.0" standalone="no"?>
<!DOCTYPE svg PUBLIC "-//W3C//DTD SVG 1.1//EN" "http://www.w3.org/Graphics/SVG/1.1/DTD/svg11.dtd" >
<svg xmlns="http://www.w3.org/2000/svg" xmlns:xlink="http://www.w3.org/1999/xlink" version="1.1" viewBox="-10 0 1010 1000">
   <path fill="currentColor"
d="M397 52l11 -8q71 22 111 51.5t54.5 58.5t11 50.5t-19.5 28.5t-38 -7q-8 -30 -29 -62t-48 -61.5t-53 -50.5zM700 290h-426q34 115 92.5 208t137.5 164q73 -79 121.5 -172.5t74.5 -199.5zM929 290h-146q-33 122 -90.5 225t-143.5 186q86 67 191.5 114.5t226.5 76.5l-3 11
q-53 3 -74 55q-115 -35 -213.5 -88.5t-175.5 -126.5q-85 71 -197 125t-255 92l-8 -15q133 -44 238 -104.5t184 -135.5q-75 -80 -128 -183.5t-83 -231.5h-196l-9 -30h765l51 -65l16 13t38 31t39 35q-4 16 -27 16z" />
</svg>
