<?xml version="1.0" standalone="no"?>
<!DOCTYPE svg PUBLIC "-//W3C//DTD SVG 1.1//EN" "http://www.w3.org/Graphics/SVG/1.1/DTD/svg11.dtd" >
<svg xmlns="http://www.w3.org/2000/svg" xmlns:xlink="http://www.w3.org/1999/xlink" version="1.1" viewBox="-10 0 1010 1000">
   <path fill="currentColor"
d="M210 452h243q18 -76 23 -154t6 -154h-206q-7 41 -18.5 96t-24 110.5t-23.5 101.5zM909 482h-395q-26 90 -78.5 175t-145 162t-237.5 144l-13 -18q126 -68 207 -143.5t128 -156t70 -163.5h-234l-32 35l-74 -56q7 -5 18 -10.5t21 -9.5q11 -41 23 -95.5t22.5 -108.5
t15.5 -93h-98l-9 -30h650l49 -59l15.5 11.5t37.5 28.5t39 33q-4 16 -27 16h-308q-2 78 -8.5 155.5t-25.5 152.5h272l51 -61l15.5 12t37.5 29t40 34q-4 16 -27 16zM924 729l3 133q17 5 23 11.5t6 15.5q0 15 -16 24.5t-60.5 14t-132.5 4.5h-124q-43 0 -65 -6t-30 -21t-8 -42
v-342l95 11q-3 21 -31 25v292q0 13 8 18t40 5h117q40 0 69.5 -0.5t40.5 -1.5q14 -1 21 -13q6 -13 14.5 -48.5t17.5 -79.5h12z" />
</svg>
