<?xml version="1.0" standalone="no"?>
<!DOCTYPE svg PUBLIC "-//W3C//DTD SVG 1.1//EN" "http://www.w3.org/Graphics/SVG/1.1/DTD/svg11.dtd" >
<svg xmlns="http://www.w3.org/2000/svg" xmlns:xlink="http://www.w3.org/1999/xlink" version="1.1" viewBox="-10 0 1010 1000">
   <path fill="currentColor"
d="M871 469h-314q46 77 112.5 145.5t144 121t153.5 83.5l-3 10q-19 3 -36 17t-25 38q-75 -41 -144.5 -102.5t-126.5 -140.5t-97 -172h-4v462q0 7 -17 17t-37 10h-13v-444q-70 115 -177 211.5t-241 164.5l-11 -15q80 -51 150 -116.5t126.5 -139.5t95.5 -150h-295l-9 -30h361
v-181h-404l-8 -28h412v-189l102 12q-1 10 -8.5 17.5t-26.5 10.5v149h276l50 -62l16 12t37.5 29.5t39.5 33.5q-4 15 -27 15h-392v181h225l50 -62l15.5 12.5t37.5 30t39 33.5q-3 16 -27 16z" />
</svg>
