<?xml version="1.0" standalone="no"?>
<!DOCTYPE svg PUBLIC "-//W3C//DTD SVG 1.1//EN" "http://www.w3.org/Graphics/SVG/1.1/DTD/svg11.dtd" >
<svg xmlns="http://www.w3.org/2000/svg" xmlns:xlink="http://www.w3.org/1999/xlink" version="1.1" viewBox="-10 0 1010 1000">
   <path fill="currentColor"
d="M906 292h-353q45 91 110.5 174t142 147.5t153.5 103.5l-3 10q-22 2 -39.5 17t-26.5 38q-112 -74 -206 -200.5t-152 -287.5v413h91l48 -62l15 12.5t35 30t36 33.5q-4 16 -25 16h-200v196q0 7 -17 15.5t-36 8.5h-13v-220h-210l-8 -30h218v-349q-66 138 -172 256.5
t-248 202.5l-12 -13q86 -65 159 -148t129 -176t92 -188h-334l-9 -29h395v-223l104 12q-2 10 -10 18t-28 11v182h256l51 -66l16 12.5t38.5 31t39.5 35.5q-4 16 -27 16z" />
</svg>
