<?xml version="1.0" standalone="no"?>
<!DOCTYPE svg PUBLIC "-//W3C//DTD SVG 1.1//EN" "http://www.w3.org/Graphics/SVG/1.1/DTD/svg11.dtd" >
<svg xmlns="http://www.w3.org/2000/svg" xmlns:xlink="http://www.w3.org/1999/xlink" version="1.1" viewBox="-10 0 1010 1000">
   <path fill="currentColor"
d="M606 79l8 -10q67 10 105.5 29.5t55 42t15.5 40.5t-15 25.5t-34 -2.5q-10 -23 -32.5 -46.5t-50 -44t-52.5 -34.5zM57 935l-13 -16q77 -51 119 -111t60.5 -127t22 -140t4.5 -149l98 9q-3 22 -32 26q-3 72 -9.5 142t-29.5 136t-75 124t-145 106zM922 310h-397v621
q0 7 -17.5 17t-35.5 10h-13v-648h-390l-9 -30h399v-239l102 12q-2 10 -9.5 17.5t-26.5 10.5v199h286l49 -59l15 12t35.5 28.5t37.5 32.5q-3 16 -26 16zM932 808l4 1q15 5 22 10.5t7 16.5q0 13 -12 21.5t-42.5 12.5t-87.5 4h-69q-49 0 -63 -15t-14 -49v-418l95 11
q-2 20 -30 26v365q0 11 4.5 15.5t23.5 4.5h59h34.5t22.5 -1q5 0 9 -0.5t7 -0.5q10 0 20 -4h10z" />
</svg>
