<?xml version="1.0" standalone="no"?>
<!DOCTYPE svg PUBLIC "-//W3C//DTD SVG 1.1//EN" "http://www.w3.org/Graphics/SVG/1.1/DTD/svg11.dtd" >
<svg xmlns="http://www.w3.org/2000/svg" xmlns:xlink="http://www.w3.org/1999/xlink" version="1.1" viewBox="-10 0 1010 1000">
   <path fill="currentColor"
d="M820 261h-516q-89 173 -220 272l-14 -11q51 -55 96.5 -130t81.5 -164.5t58 -188.5l107 33q-3 8 -12.5 14.5t-26.5 5.5q-12 37 -25.5 72t-29.5 67h499l44 -44l77 76q-5 5 -15 7t-24 4q-19 29 -47 67.5t-58.5 75.5t-57.5 64l-13 -8q15 -28 32.5 -65t34.5 -76t29 -71z
M468 336l105 28q-4 9 -12.5 15t-25.5 6q11 79 36.5 151t73.5 135.5t125 116.5t190 94l-2 12q-28 4 -46 17t-25 44q-94 -43 -158.5 -98.5t-105.5 -120.5t-64 -136.5t-35 -146.5q-10 72 -33.5 141t-73.5 133.5t-138 123t-227 108.5l-11 -19q110 -50 185 -104t121.5 -112
t71.5 -120.5t35.5 -129.5t13.5 -138z" />
</svg>
