<?xml version="1.0" standalone="no"?>
<!DOCTYPE svg PUBLIC "-//W3C//DTD SVG 1.1//EN" "http://www.w3.org/Graphics/SVG/1.1/DTD/svg11.dtd" >
<svg xmlns="http://www.w3.org/2000/svg" xmlns:xlink="http://www.w3.org/1999/xlink" version="1.1" viewBox="-10 0 1010 1000">
   <path fill="currentColor"
d="M814 879l52 -64l16.5 12.5t38.5 30.5t40 35q-4 16 -26 16h-884l-8 -30h154v-507l104 11q-2 10 -10 17.5t-26 11.5v467h209v-717h-384l-9 -29h698l51 -64l16.5 12.5t39 30t40.5 34.5q-4 16 -27 16h-357v318h192l51 -63l15.5 12.5t37.5 30t39 34.5q-4 15 -26 15h-309v370
h272z" />
</svg>
