<?xml version="1.0" standalone="no"?>
<!DOCTYPE svg PUBLIC "-//W3C//DTD SVG 1.1//EN" "http://www.w3.org/Graphics/SVG/1.1/DTD/svg11.dtd" >
<svg xmlns="http://www.w3.org/2000/svg" xmlns:xlink="http://www.w3.org/1999/xlink" version="1.1" viewBox="-10 0 1010 1000">
   <path fill="currentColor"
d="M435 378l45 -61l14.5 12t34 29.5t34.5 33.5q-4 16 -25 16h-163v390q42 -10 86.5 -20t88.5 -20l3 16q-76 31 -184.5 70.5t-257.5 89.5q-7 20 -23 25l-49 -92q17 -2 38 -6.5t47 -9.5v-592l97 11q-1 10 -8.5 17t-26.5 9v542q29 -6 60 -12.5t65 -13.5v-762l100 11
q-1 10 -8.5 17.5t-27.5 10.5v289h60zM923 704l3 159q18 6 24.5 12.5t6.5 17.5q0 15 -15 24t-53 13.5t-109 4.5h-90q-57 0 -77 -17.5t-20 -60.5v-808l101 12q-1 10 -9 17.5t-27 10.5v288h136l47 -63l14.5 12.5t34 30t35.5 34.5q-4 16 -27 16h-240v432q0 18 7.5 25.5t35.5 7.5
h80q28 0 48.5 -0.5t30.5 -1.5q12 -1 18 -13q4 -8 9 -32t11 -56.5t12 -64.5h13z" />
</svg>
