<?xml version="1.0" standalone="no"?>
<!DOCTYPE svg PUBLIC "-//W3C//DTD SVG 1.1//EN" "http://www.w3.org/Graphics/SVG/1.1/DTD/svg11.dtd" >
<svg xmlns="http://www.w3.org/2000/svg" xmlns:xlink="http://www.w3.org/1999/xlink" version="1.1" viewBox="-10 0 1010 1000">
   <path fill="currentColor"
d="M479 749l6 16q-54 26 -138.5 69.5t-181.5 90.5q-6 12 -15 20l-52 -66q25 -17 31.5 -26t6.5 -24v-775l105 12q-1 12 -10.5 19.5t-30.5 10.5v304h142l50 -66l15.5 13t36.5 31t38 35q-4 16 -27 16h-255v417q54 -18 127.5 -43.5t151.5 -53.5zM923 682l4 169q18 7 24.5 13.5
t6.5 16.5q0 16 -16.5 25.5t-61 13.5t-128.5 4h-112q-63 0 -85.5 -18t-22.5 -64v-787l100 12q-1 10 -9 17.5t-27 10.5v302h169l49 -66l15.5 13t36.5 31.5t38 35.5q-4 16 -27 16h-281v398q0 20 10 29t44 9h104q76 0 100 -3q15 -3 22 -15q6 -14 15.5 -61t18.5 -102h13z" />
</svg>
