<?xml version="1.0" standalone="no"?>
<!DOCTYPE svg PUBLIC "-//W3C//DTD SVG 1.1//EN" "http://www.w3.org/Graphics/SVG/1.1/DTD/svg11.dtd" >
<svg xmlns="http://www.w3.org/2000/svg" xmlns:xlink="http://www.w3.org/1999/xlink" version="1.1" viewBox="-10 0 1010 1000">
   <path fill="currentColor"
d="M69 439l-6 -18q110 -31 217.5 -76.5t200.5 -98.5q-79 -34 -169.5 -65t-188.5 -57l6 -18q130 25 231.5 51t179.5 52q130 -83 204 -168l96 53q-7 16 -49 9q-37 33 -83.5 65.5t-99.5 64.5q93 35 148 68t79 59.5t25.5 44t-12.5 24t-36 -2.5q-43 -34 -112.5 -74t-160.5 -82
q-102 53 -221 97.5t-249 71.5zM662 412l102 41q-4 9 -12 12.5t-28 1.5q-32 76 -80.5 145t-114.5 128q90 56 199 93t231 57l-2 11q-49 6 -65 58q-121 -28 -224 -72.5t-185 -109.5q-83 63 -191 108.5t-245 71.5l-6 -16q123 -32 222.5 -82.5t176.5 -116.5q-62 -58 -109 -130.5
t-79 -160.5l17 -11q33 82 86.5 147.5t123.5 117.5q64 -63 109.5 -137t73.5 -156z" />
</svg>
