<?xml version="1.0" standalone="no"?>
<!DOCTYPE svg PUBLIC "-//W3C//DTD SVG 1.1//EN" "http://www.w3.org/Graphics/SVG/1.1/DTD/svg11.dtd" >
<svg xmlns="http://www.w3.org/2000/svg" xmlns:xlink="http://www.w3.org/1999/xlink" version="1.1" viewBox="-10 0 1010 1000">
   <path fill="currentColor"
d="M809 880l53 -64l16 12.5t38.5 30.5t40.5 35q-4 16 -27 16h-874l-8 -30h410v-375h-300l-8 -28h308v-313h-343l-8 -30h649l51 -64l16.5 12.5t39 30.5t40.5 35q-4 16 -28 16h-349v313h194l50 -63l15.5 12.5t37.5 30t39 33.5q-4 15 -26 15h-310v375h283zM611 580l10 -9
q77 25 120 58t59 65t11.5 56t-22.5 32t-42 -9q-7 -34 -29 -69.5t-50.5 -68t-56.5 -55.5z" />
</svg>
