<?xml version="1.0" standalone="no"?>
<!DOCTYPE svg PUBLIC "-//W3C//DTD SVG 1.1//EN" "http://www.w3.org/Graphics/SVG/1.1/DTD/svg11.dtd" >
<svg xmlns="http://www.w3.org/2000/svg" xmlns:xlink="http://www.w3.org/1999/xlink" version="1.1" viewBox="-10 0 1010 1000">
   <path fill="currentColor"
d="M814 886l52 -64l16.5 12.5t38.5 30.5t40 35q-4 16 -26 16h-884l-8 -30h420v-291h-300l-8 -28h308v-254h-225q-40 70 -88 129t-100 103l-13 -10q44 -54 85.5 -126.5t77 -157t59.5 -174.5l105 33q-3 9 -12.5 15t-26.5 5q-15 40 -32.5 79t-37.5 75h208v-241l104 12
q-2 10 -9.5 17.5t-25.5 10.5v201h226l51 -62l16 11.5t37.5 29t39.5 34.5q-4 16 -27 16h-343v254h189l52 -63l16 12.5t37.5 30t39.5 33.5q-3 15 -26 15h-308v291h282z" />
</svg>
