<?xml version="1.0" standalone="no"?>
<!DOCTYPE svg PUBLIC "-//W3C//DTD SVG 1.1//EN" "http://www.w3.org/Graphics/SVG/1.1/DTD/svg11.dtd" >
<svg xmlns="http://www.w3.org/2000/svg" xmlns:xlink="http://www.w3.org/1999/xlink" version="1.1" viewBox="-10 0 1010 1000">
   <path fill="currentColor"
d="M532 575h268v-202h-268v202zM198 575h266v-202h-266v202zM464 150h-266v194h266v-194zM800 150h-268v194h268v-194zM828 79l81 63q-12 14 -42 20v481q-1 5 -20.5 14t-36.5 9h-10v-63h-268v332q0 4 -15.5 13.5t-41.5 9.5h-11v-355h-266v53q0 5 -16.5 14t-38.5 9h-11v-591
l73 32h585z" />
</svg>
