<?xml version="1.0" standalone="no"?>
<!DOCTYPE svg PUBLIC "-//W3C//DTD SVG 1.1//EN" "http://www.w3.org/Graphics/SVG/1.1/DTD/svg11.dtd" >
<svg xmlns="http://www.w3.org/2000/svg" xmlns:xlink="http://www.w3.org/1999/xlink" version="1.1" viewBox="-10 0 1010 1000">
   <path fill="currentColor"
d="M291 619l88 46q-5 7 -12.5 10t-24.5 -1q-29 40 -74 83.5t-99 84t-114 71.5l-11 -13q51 -37 98.5 -85t86.5 -99.5t62 -96.5zM651 384l9 -9q94 31 149 68.5t80 73t26 62.5t-14 37.5t-39 -3.5q-8 -22 -22.5 -45t-33.5 -46q-56 7 -124 15t-147 16v316q0 25 -6.5 43.5
t-27 29.5t-62.5 15q-1 -13 -4.5 -24t-11.5 -18q-17 -14 -70 -21v-15l12 1t29 2t32 2t22 1q11 0 15 -4.5t4 -13.5v-307q-130 13 -282 27q-11 17 -25 22l-36 -92l15 -1.5t25 -5.5q60 -22 127 -54t135 -69t130 -75q-69 13 -156 27t-183 27q-5 8 -11.5 12.5t-12.5 6.5l-33 -86
l10.5 -2t17.5 -6q41 -18 86.5 -48t88.5 -65t79 -68.5t58 -59.5l87 61q-4 6 -13.5 9.5t-26.5 -0.5q-34 28 -85.5 61.5t-110 66t-115.5 58.5q67 -3 164.5 -9t203.5 -15q44 -29 80 -55t61 -48l80 74q-4 6 -16.5 8t-29.5 -5q-44 28 -107.5 63t-138.5 71t-155.5 70.5t-157.5 62.5
q65 -2 154.5 -5t194.5 -8t218 -10q-32 -33 -68 -63.5t-68 -52.5zM633 634l12 -9q99 39 156.5 82.5t83 83.5t26 69.5t-16 40t-41.5 -5.5q-14 -45 -50 -93t-81.5 -92.5t-88.5 -75.5z" />
</svg>
