<?xml version="1.0" standalone="no"?>
<!DOCTYPE svg PUBLIC "-//W3C//DTD SVG 1.1//EN" "http://www.w3.org/Graphics/SVG/1.1/DTD/svg11.dtd" >
<svg xmlns="http://www.w3.org/2000/svg" xmlns:xlink="http://www.w3.org/1999/xlink" version="1.1" viewBox="-10 0 1010 1000">
   <path fill="currentColor"
d="M268 858h475v-191h-475v191zM743 450h-475v187h475v-187zM743 239h-475v182h475v-182zM771 166l83 66q-12 14 -44 20v676q-1 6 -20 16t-37 10h-10v-67h-475v43q0 7 -16 16.5t-38 9.5h-12v-781l73 34h145q13 -38 23.5 -84t15.5 -83l114 20q-5 22 -35 23q-15 28 -38 61
t-49 63h282z" />
</svg>
