<?xml version="1.0" standalone="no"?>
<!DOCTYPE svg PUBLIC "-//W3C//DTD SVG 1.1//EN" "http://www.w3.org/Graphics/SVG/1.1/DTD/svg11.dtd" >
<svg xmlns="http://www.w3.org/2000/svg" xmlns:xlink="http://www.w3.org/1999/xlink" version="1.1" viewBox="-10 0 1010 1000">
   <path fill="currentColor"
d="M837 156l82 65q-12 14 -44 20v683q-1 5 -19.5 15t-36.5 10h-9v-85h-622v70q-1 4 -15 13t-43 9h-7v-781l86 31q57 -29 119 -68t117 -81l74 69q-13 13 -38 2q-44 24 -95 45.5t-102 39t-96 29.5v267h159l45 -61l15 12.5t35 29.5t36 33q-4 16 -26 16h-264v296h622v-296h-255
l-9 -30h264v-281h-277l-9 -29h276z" />
</svg>
