<?xml version="1.0" standalone="no"?>
<!DOCTYPE svg PUBLIC "-//W3C//DTD SVG 1.1//EN" "http://www.w3.org/Graphics/SVG/1.1/DTD/svg11.dtd" >
<svg xmlns="http://www.w3.org/2000/svg" xmlns:xlink="http://www.w3.org/1999/xlink" version="1.1" viewBox="-10 0 1010 1000">
   <path fill="currentColor"
d="M101 57l11 -9q71 21 111 48.5t55.5 54.5t13 47.5t-18 28t-36.5 -5.5q-10 -28 -32.5 -58.5t-50 -58.5t-53.5 -47zM335 473l68 60q-10 10 -40 11q-19 58 -55.5 118t-89.5 107q2 1 4.5 3t5.5 4q44 45 98 66.5t126.5 28.5t170.5 7q89 0 168.5 -1t170.5 -5v14q-22 4 -34 17.5
t-15 33.5h-310q-100 0 -170 -11t-121 -40t-97 -82q-18 -19 -32 0q-10 15 -26 37t-32.5 46.5t-30.5 45.5q6 12 -5 21l-55 -68q18 -14 40.5 -33l45 -38t41 -33t28.5 -17q38 -45 66.5 -105.5t43.5 -118.5h-118l-28 23l-55 -51q8 -5 19 -9t21 -7q18 -24 38 -54.5t39.5 -61.5
t34.5 -57h-191l-9 -29h205l37 -38l75 67q-7 8 -23.5 12t-36.5 4q-22 35 -53.5 83.5t-59.5 87.5h102z" />
</svg>
