<?xml version="1.0" standalone="no"?>
<!DOCTYPE svg PUBLIC "-//W3C//DTD SVG 1.1//EN" "http://www.w3.org/Graphics/SVG/1.1/DTD/svg11.dtd" >
<svg xmlns="http://www.w3.org/2000/svg" xmlns:xlink="http://www.w3.org/1999/xlink" version="1.1" viewBox="-10 0 1010 1000">
   <path fill="currentColor"
d="M65 957l-7 -15q61 -20 123 -50t114.5 -63t84.5 -62l84 54q-11 15 -47 6q-40 24 -97.5 49t-123 46.5t-131.5 34.5zM573 800l6 -17q115 15 186.5 37t109 45t48 43t3 33.5t-25 15.5t-35.5 -12q-41 -37 -114.5 -75.5t-177.5 -69.5zM725 262h-436v127h436v-127zM289 705h436
v-130h-436v130zM289 418v128h436v-128h-436zM810 109l49 -59l15 11.5t36.5 28.5t38.5 32q-3 16 -26 16h-382q-15 25 -31.5 50t-33.5 45h239l37 -42l80 64q-11 13 -42 19v467q-1 5 -20 14.5t-36 9.5h-9v-31h-436v16q0 4 -16.5 13t-38.5 9h-11v-572l71 33h146q5 -21 10 -46.5
t9 -48.5h-398l-9 -29h758z" />
</svg>
