<?xml version="1.0" standalone="no"?>
<!DOCTYPE svg PUBLIC "-//W3C//DTD SVG 1.1//EN" "http://www.w3.org/Graphics/SVG/1.1/DTD/svg11.dtd" >
<svg xmlns="http://www.w3.org/2000/svg" xmlns:xlink="http://www.w3.org/1999/xlink" version="1.1" viewBox="-10 0 1010 1000">
   <path fill="currentColor"
d="M799 70l88 50q-5 7 -12.5 10t-24.5 0q-25 30 -65 69.5t-81 69.5l-13 -12q21 -27 41.5 -61t38 -67.5t28.5 -58.5zM109 81l12 -7q66 25 101.5 55.5t47.5 58.5t6.5 48.5t-22 26.5t-37.5 -9q-6 -29 -24 -60.5t-40 -61t-44 -51.5zM244 842l-12 -12q29 -41 55.5 -90.5t48.5 -99
t35 -87.5l90 41q-4 8 -12.5 11.5t-25.5 0.5q-19 34 -46.5 76t-61.5 83.5t-71 76.5zM649 334l7 -16q106 20 169 47.5t92 55t33 49t-9.5 31t-35.5 0.5q-19 -22 -56 -51t-88 -59.5t-112 -56.5zM465 489v-174h-172l78 47q-5 7 -13 9.5t-24 -1.5q-28 24 -67 49t-85 47l47 23h236z
M819 285l48 -60l15.5 12t37 29t39.5 33q-4 16 -27 16h-403v174h238l33 -41l83 63q-4 5 -15 11.5t-27 8.5v339q0 25 -6.5 43t-28 29t-66.5 15q-2 -14 -6.5 -25t-14.5 -16q-11 -8 -30 -13.5t-52 -9.5v-16l15 1t35.5 2.5t39.5 2.5t27 1q14 0 18.5 -5t4.5 -15v-346h-248v405
q0 3 -15 11t-39 8h-10v-424h-243v418q0 5 -16 14t-36 9h-11v-482q-28 13 -57 24.5t-58 20.5l-8 -14q48 -24 95.5 -57t88.5 -68.5t67 -67.5h-236l-9 -30h335v-243l95 10q-1 10 -8 16.5t-24 9.5v207h118v-243l96 10q-1 10 -8.5 16.5t-24.5 9.5v207h198zM567 574l14 -7
q70 44 109.5 85.5t54.5 75.5t12.5 55.5t-17 27.5t-33.5 -9q-10 -34 -34 -75.5t-52.5 -82t-53.5 -70.5z" />
</svg>
