<?xml version="1.0" standalone="no"?>
<!DOCTYPE svg PUBLIC "-//W3C//DTD SVG 1.1//EN" "http://www.w3.org/Graphics/SVG/1.1/DTD/svg11.dtd" >
<svg xmlns="http://www.w3.org/2000/svg" xmlns:xlink="http://www.w3.org/1999/xlink" version="1.1" viewBox="-10 0 1010 1000">
   <path fill="currentColor"
d="M98 109q76 51 117.5 101t56.5 92t10.5 70.5t-21.5 36.5t-39 -11q-5 -45 -27 -96t-52 -100t-58 -86zM380 46q68 52 104 103t47 93.5t4.5 71t-24 36t-38.5 -12.5q-1 -46 -17.5 -97.5t-40 -100.5t-48.5 -86zM840 76l104 45q-4 8 -12.5 12t-27.5 1q-32 61 -80 134.5
t-109.5 145.5t-132.5 130l-12 -11q44 -48 84 -106t75.5 -120t63.5 -121t47 -110z" />
</svg>
